<svg id="Grupo_1064888" data-name="Grupo 1064888" xmlns="http://www.w3.org/2000/svg" xmlns:xlink="http://www.w3.org/1999/xlink" width="231.757" height="286.705" viewBox="0 0 231.757 286.705">
  <defs>
    <clipPath id="clip-path">
      <rect id="Rectángulo_373918" data-name="Rectángulo 373918" width="231.757" height="286.705" fill="none"/>
    </clipPath>
    <clipPath id="clip-path-3">
      <rect id="Rectángulo_373911" data-name="Rectángulo 373911" width="100.223" height="41.999" fill="none"/>
    </clipPath>
    <clipPath id="clip-path-4">
      <path id="Trazado_798970" data-name="Trazado 798970" d="M163.309,110.531c0,7.279,26.582,13.179,59.372,13.179s59.373-5.9,59.373-13.179S257.5,54.565,224.713,54.565s-61.4,48.688-61.4,55.966" transform="translate(-163.309 -54.565)" fill="none"/>
    </clipPath>
    <clipPath id="clip-path-5">
      <rect id="Rectángulo_373913" data-name="Rectángulo 373913" width="23.405" height="0.467" fill="none"/>
    </clipPath>
    <clipPath id="clip-path-8">
      <rect id="Rectángulo_373916" data-name="Rectángulo 373916" width="21.934" height="34.141" fill="none"/>
    </clipPath>
  </defs>
  <g id="Grupo_1064887" data-name="Grupo 1064887" clip-path="url(#clip-path)">
    <g id="Grupo_1064870" data-name="Grupo 1064870">
      <g id="Grupo_1064869" data-name="Grupo 1064869" clip-path="url(#clip-path)">
        <path id="Trazado_798941" data-name="Trazado 798941" d="M217.837,672.661c-6.022-3.162-32.7-11.3-53.686-17.481a73.342,73.342,0,0,1-12.963,14.852,55.153,55.153,0,0,1-83.94-15.353c-20.311,6.233-47.143,14.734-53.329,17.982C4.619,677.545,0,715.505,0,715.505l115.957.279,115.8-.279s-4.618-37.96-13.919-42.844" transform="translate(0 -429.08)" fill="#5089ba"/>
        <path id="Trazado_798942" data-name="Trazado 798942" d="M266.339,583.381V555.972H215.284v27.566c-4,1.192-12.264,3.67-21.93,6.638,8.131,13.549,21.214,23.66,35.845,27.285,17.506,4.337,36.8-.711,50.5-13.214a76.481,76.481,0,0,0,11.551-13.65c-11.174-3.292-20.79-6.042-24.913-7.216" transform="translate(-126.725 -364.387)" fill="#ff925c"/>
        <path id="Trazado_798943" data-name="Trazado 798943" d="M292.893,586.892a36.821,36.821,0,0,0,15.156-3.638V555.971H256.993v9.109c4.705,7.307,10.059,12.475,14.2,15.108,5.821,3.7,14.687,6.7,21.7,6.7" transform="translate(-168.434 -364.386)" fill="#d97645"/>
        <path id="Trazado_798944" data-name="Trazado 798944" d="M280.431,208.41a6.316,6.316,0,0,1-6.039-3.09,6.2,6.2,0,0,1-.6-1.411c-1.684.4-3.389.738-5.05,1.208a50.619,50.619,0,0,0-13.533,5.936,6.454,6.454,0,0,1-5.618.506,155.317,155.317,0,0,1-23.693,1.977q-6.983.014-13.944-.661c-4.744-.46-10.085-.584-14.544-2.352a9.312,9.312,0,0,1-3.253-2.1q-9.7.066-19.4.139a6.421,6.421,0,0,1-2.426-.457,25.78,25.78,0,0,1-9.875-1.136q-.249-.082-.485-.181a83.705,83.705,0,0,0-.464,18.4c.518,8.941-1.591,22.368-.742,31.283.536,5.618,2.709,12.944,2.937,17.106.129,2.352,2.571-1.34,3.048,1.034a6.543,6.543,0,0,1,1.594.044c2.313.764,5.989.164,8.41.23l13.844.378,35.88.98c3.015.082,47.614,2.213,47.752,1.3.011-.074,4.785-16.86,5.687-27.231.739-8.5,3.768-16.624,3.338-25.138-.15-2.962-3.1-13.41-2.827-16.763" transform="translate(-105.234 -133.643)" fill="#9c4532"/>
        <path id="Trazado_798945" data-name="Trazado 798945" d="M278.588,222.029c-1.169-1.444-2.348-2.783-3.545-4.032-.927.5-1.871,1.046-2.857,1.644a6.454,6.454,0,0,1-5.618.506,155.316,155.316,0,0,1-23.693,1.977q-6.982.014-13.944-.661c-4.744-.46-10.085-.584-14.544-2.352a9.316,9.316,0,0,1-3.252-2.1q-5.551.038-11.1.077a63.229,63.229,0,0,0-4.743,5.342c-10.7,13.427-9.374,35.719-7.677,52.227s2.037,31.817,7.468,45.024,13.953,22.308,19.938,26.114c5.821,3.7,14.686,6.7,21.7,6.7s14.74-2.746,20.605-6.7c6.673-4.5,15.376-14.107,20.807-28.115s6-26.514,7.694-43.023,4.751-37.82-7.238-52.628" transform="translate(-122.212 -142.23)" fill="#ff925c"/>
        <path id="Trazado_798946" data-name="Trazado 798946" d="M318.373,510.722a20.274,20.274,0,0,1-8.595-2.028.7.7,0,0,1,.588-1.263c5.488,2.554,10.615,2.557,15.675.01a.7.7,0,1,1,.626,1.244,18.27,18.27,0,0,1-8.295,2.038" transform="translate(-202.766 -332.53)" fill="#d97645"/>
        <path id="Trazado_798947" data-name="Trazado 798947" d="M282.88,248.676a81.837,81.837,0,0,0-5.816-21.524,45.779,45.779,0,0,0-7.1-11.3,58.61,58.61,0,0,0-5.6,3.03,6.454,6.454,0,0,1-5.618.506,155.315,155.315,0,0,1-23.693,1.977q-6.983.014-13.944-.661c-4.744-.46-10.085-.584-14.544-2.352a9.312,9.312,0,0,1-3.252-2.1q-7.486.051-14.971.105c-.2.232-.409.458-.606.7-12.682,15.361-13.363,36.251-13.181,55.086.015,1.526.36,3.48,1.856,3.782,3.087.622,8.448-6.794,8.757-8.687a53.549,53.549,0,0,1,2.77-11.546,17.983,17.983,0,0,1,7.348-9.077,26.656,26.656,0,0,1,8.457-2.583c5.2-.97,10.532-1.972,15.042-4.732,3.665-2.243,6.589-5.535,10.208-7.851,1.7-1.087,8.482-3.408,10.032-1.721.546.594.684,2.346.946,3.129a24.789,24.789,0,0,0,1.354,3.348,11.721,11.721,0,0,0,4.356,4.972c3.98,2.338,8.991,1.3,13.5.318,6.325-1.37,11.646-1.193,16.323,3.7a12.987,12.987,0,0,1,3.153,4.964c.7,2.24.508,4.646.5,6.993-.018,3.146-1.8,13.673-1.15,16.75.377,1.773,1.861-.2,3.549-.866,5.906-2.325,2.013-19.651,1.328-24.354" transform="translate(-114.39 -141.468)" fill="#9c4532"/>
        <path id="Trazado_798948" data-name="Trazado 798948" d="M326.17,422.54c-2.022,0-5.023-1.032-6.249-5.083-.707-2.338-.773-7.211-.2-14.485.427-5.372,1.063-10.142,1.07-10.189a.7.7,0,1,1,1.38.185c-.006.047-.638,4.781-1.062,10.114-.556,7-.508,11.831.14,13.972,1.446,4.78,5.457,4.063,5.628,4.03a.7.7,0,0,1,.264,1.368,5.187,5.187,0,0,1-.976.088" transform="translate(-209.294 -257.036)" fill="#d97645"/>
        <path id="Trazado_798949" data-name="Trazado 798949" d="M390.014,392.256c0,4.011,1.807,7.263,4.036,7.263s4.036-3.252,4.036-7.263-1.807-7.263-4.036-7.263-4.036,3.252-4.036,7.263" transform="translate(-255.617 -252.326)" fill="#160d0b"/>
        <path id="Trazado_798950" data-name="Trazado 798950" d="M256.04,392.256c0,4.011,1.806,7.263,4.035,7.263s4.036-3.252,4.036-7.263-1.807-7.263-4.036-7.263-4.035,3.252-4.035,7.263" transform="translate(-167.81 -252.326)" fill="#160d0b"/>
        <path id="Trazado_798951" data-name="Trazado 798951" d="M247.353,345.628c1.313,1.722.176,5.368-2.448,5.23a59.892,59.892,0,0,0-11.176-.229c-4.6.484-9.943,2.424-11.982,1.609-1.8-.72-2.048-2.888,1.284-4.9a26.73,26.73,0,0,1,11.867-3.676c4.706-.333,11.141.241,12.454,1.963" transform="translate(-144.48 -225.181)" fill="#9c4532"/>
        <path id="Trazado_798952" data-name="Trazado 798952" d="M371.247,345.628c-1.313,1.722-.176,5.368,2.448,5.23a59.892,59.892,0,0,1,11.176-.229c4.6.484,9.943,2.424,11.982,1.609,1.8-.72,2.048-2.888-1.284-4.9a26.729,26.729,0,0,0-11.867-3.676c-4.706-.333-11.141.241-12.454,1.963" transform="translate(-242.958 -225.181)" fill="#9c4532"/>
        <path id="Trazado_798953" data-name="Trazado 798953" d="M172.3,387.351c-4.776-5.832-15.564.4-14.1,11.353s11.6,22.012,17.921,21.969,2.611-25.462-3.825-33.322" transform="translate(-103.601 -252.409)" fill="#ff925c"/>
        <path id="Trazado_798954" data-name="Trazado 798954" d="M179.365,425.582a.7.7,0,0,1-.57-.3c-2.976-4.228-2.254-9.72-2.222-9.952a.7.7,0,0,1,1.38.191c-.011.086-.663,5.2,1.981,8.958a.7.7,0,0,1-.569,1.1" transform="translate(-115.661 -271.819)" fill="#d97645"/>
        <path id="Trazado_798955" data-name="Trazado 798955" d="M445.058,387.351c4.776-5.832,15.564.4,14.1,11.353s-11.6,22.012-17.92,21.969-2.611-25.462,3.825-33.322" transform="translate(-287.046 -252.409)" fill="#ff925c"/>
        <path id="Trazado_798956" data-name="Trazado 798956" d="M469.224,425.71a.7.7,0,0,1-.518-1.161c.035-.039,3.461-3.923,3.372-8.533a.7.7,0,0,1,.683-.71.708.708,0,0,1,.71.683c.1,5.169-3.571,9.316-3.727,9.491a.7.7,0,0,1-.519.231" transform="translate(-307.075 -272.193)" fill="#d97645"/>
        <g id="Grupo_1064868" data-name="Grupo 1064868" transform="translate(64.992 74.286)" opacity="0.2">
          <g id="Grupo_1064867" data-name="Grupo 1064867">
            <g id="Grupo_1064866" data-name="Grupo 1064866" clip-path="url(#clip-path-3)">
              <path id="Trazado_798957" data-name="Trazado 798957" d="M271.937,236.936a.7.7,0,0,1-.068-1.39c7.752-.772,11.376-4.214,12.3-5.251a.7.7,0,1,1,1.039.928c-4,4.475-11.117,5.5-13.2,5.709a.674.674,0,0,1-.07,0" transform="translate(-242.765 -225.071)"/>
              <path id="Trazado_798958" data-name="Trazado 798958" d="M190.4,299.785a.7.7,0,0,1-.695-.656,23.152,23.152,0,0,1,8.358-18.993.7.7,0,1,1,.88,1.08,21.736,21.736,0,0,0-7.847,17.832.7.7,0,0,1-.655.736H190.4" transform="translate(-189.305 -257.786)"/>
              <path id="Trazado_798959" data-name="Trazado 798959" d="M189.3,227.566a.7.7,0,0,1-.078-1.389c4.489-.508,7.89-1.419,10.971-4.384,3.61-3.475,7.239-5.505,11.095-6.206a.7.7,0,0,1,.249,1.37c-3.577.65-6.971,2.56-10.378,5.839-3.364,3.238-7,4.224-11.78,4.765a.681.681,0,0,1-.079,0" transform="translate(-188.605 -215.576)"/>
              <path id="Trazado_798960" data-name="Trazado 798960" d="M390.8,250.552c-3.2,0-6.339-.411-8.571-2.581-2.048-1.99-2.679-4.927-3.148-7.764a.7.7,0,0,1,1.374-.227c.45,2.717,1,5.3,2.744,6.993,2.266,2.2,5.879,2.27,9.386,2.152h.024a.7.7,0,0,1,.023,1.393c-.609.021-1.222.035-1.832.035" transform="translate(-313.435 -231.188)"/>
              <path id="Trazado_798961" data-name="Trazado 798961" d="M451.992,230.94a.7.7,0,0,1-.582-.314c-2.715-4.128-7.716-5.74-12.249-6.772a.7.7,0,1,1,.309-1.358c4.8,1.094,10.117,2.825,13.1,7.365a.7.7,0,0,1-.581,1.079" transform="translate(-352.465 -220.1)"/>
            </g>
          </g>
        </g>
        <path id="Trazado_798962" data-name="Trazado 798962" d="M163.309,191.91c0-7.279,26.582-13.179,59.373-13.179s59.373,5.9,59.373,13.179-26.582,13.179-59.373,13.179-59.373-5.9-59.373-13.179" transform="translate(-107.033 -117.141)" fill="#5e3d36"/>
      </g>
    </g>
    <g id="Grupo_1064884" data-name="Grupo 1064884" transform="translate(56.276 18.803)">
      <g id="Grupo_1064883" data-name="Grupo 1064883" clip-path="url(#clip-path-4)">
        <path id="Trazado_798963" data-name="Trazado 798963" d="M303.249,120.278c4.834-6.174,9.27-17.125,5.841-28.29a26.17,26.17,0,0,0-13.646-17.324,13.772,13.772,0,0,0-1.461-.714,30.123,30.123,0,0,0-24.4-.118,13.813,13.813,0,0,0-2.2,1.087,26.157,26.157,0,0,0-13.071,16.643c-3.676,11.311.809,22.462,5.7,28.715,6.708,8.568,4.413,11.017,6.384,15.2s4.871,5.3,4.871,5.3l.275-1.784h.62a37.636,37.636,0,0,0,18.948,0h.6l.275,1.784s2.9-1.11,4.87-5.3c.029-.061.056-.121.083-.181,1.822-4.079-.309-6.58,6.3-15.022" transform="translate(-222.073 -65.54)" fill="#ffe3b0"/>
        <path id="Trazado_798964" data-name="Trazado 798964" d="M297.441,281.1l-.219-12.581a1.271,1.271,0,0,1,1.27-1.293h24.329a1.271,1.271,0,0,1,1.271,1.293l-.217,12.5a9.359,9.359,0,0,1-7.023,8.9L311.09,291.4a2.884,2.884,0,0,1-1.473-.009l-5.257-1.419a9.359,9.359,0,0,1-6.918-8.873" transform="translate(-251.076 -193.943)" fill="#9c4532"/>
        <g id="Grupo_1064873" data-name="Grupo 1064873" transform="translate(47.898 79.092)" opacity="0.2">
          <g id="Grupo_1064872" data-name="Grupo 1064872" transform="translate(0 0)">
            <g id="Grupo_1064871" data-name="Grupo 1064871" clip-path="url(#clip-path-5)">
              <path id="Trazado_798965" data-name="Trazado 798965" d="M325.477,284.554H302.539a.233.233,0,0,1,0-.467h22.938a.233.233,0,1,1,0,.467" transform="translate(-302.306 -284.087)"/>
            </g>
          </g>
        </g>
        <g id="Grupo_1064876" data-name="Grupo 1064876" transform="translate(47.898 83.457)" opacity="0.2">
          <g id="Grupo_1064875" data-name="Grupo 1064875">
            <g id="Grupo_1064874" data-name="Grupo 1064874" clip-path="url(#clip-path-5)">
              <path id="Trazado_798966" data-name="Trazado 798966" d="M325.477,297.22H302.539a.233.233,0,1,1,0-.467h22.938a.233.233,0,1,1,0,.467" transform="translate(-302.306 -296.753)"/>
            </g>
          </g>
        </g>
        <g id="Grupo_1064879" data-name="Grupo 1064879" transform="translate(47.898 87.821)" opacity="0.2">
          <g id="Grupo_1064878" data-name="Grupo 1064878">
            <g id="Grupo_1064877" data-name="Grupo 1064877" clip-path="url(#clip-path-5)">
              <path id="Trazado_798967" data-name="Trazado 798967" d="M325.477,309.885H302.539a.233.233,0,0,1,0-.467h22.938a.233.233,0,1,1,0,.467" transform="translate(-302.306 -309.418)"/>
            </g>
          </g>
        </g>
        <path id="Trazado_798968" data-name="Trazado 798968" d="M313.911,188.031l-1.677-.235c.029-.211,3.025-21.242,10.106-38.2a.363.363,0,0,0-.1-.416,7.135,7.135,0,0,0-5.334-1.742,17.609,17.609,0,0,0-4.929.861,16.294,16.294,0,0,1-3.96.772,8.07,8.07,0,0,1-3.907-.68,11.786,11.786,0,0,0-5.049-.875c-2.963,0-3.792.963-4.594,1.894-.151.175-.3.343-.447.5a.358.358,0,0,0-.048.441c2.036,3.312,8.679,15.809,8.679,37.563h-1.694c0-21.31-6.451-33.46-8.428-36.676a2.057,2.057,0,0,1,.271-2.5c.13-.134.254-.28.384-.43.9-1.047,2.138-2.482,5.877-2.482a13.4,13.4,0,0,1,5.668.992,6.468,6.468,0,0,0,3.2.565,14.671,14.671,0,0,0,3.573-.707,19.3,19.3,0,0,1,5.357-.928,8.8,8.8,0,0,1,6.5,2.166,2.06,2.06,0,0,1,.541,2.338c-6.995,16.753-9.962,37.574-9.991,37.782" transform="translate(-247.801 -114.321)" fill="#e8b961"/>
        <g id="Grupo_1064882" data-name="Grupo 1064882" transform="translate(41.378 12.007)" opacity="0.502">
          <g id="Grupo_1064881" data-name="Grupo 1064881">
            <g id="Grupo_1064880" data-name="Grupo 1064880" clip-path="url(#clip-path-8)">
              <path id="Trazado_798969" data-name="Trazado 798969" d="M297.83,89.762a23.138,23.138,0,0,0-13.89,26.529c.619,2.747,1.949,5.6,4.5,6.8a3.989,3.989,0,0,0,3.714,0c1.734-1.061,1.909-3.545,1.381-5.508s-1.555-3.841-1.525-5.873c.042-2.815,2.109-5.2,4.365-6.88s4.843-2.975,6.749-5.047,2.978-5.31,1.522-7.721a5.859,5.859,0,0,0-6.814-2.3" transform="translate(-283.386 -89.409)" fill="#fff"/>
            </g>
          </g>
        </g>
      </g>
    </g>
    <g id="Grupo_1064886" data-name="Grupo 1064886">
      <g id="Grupo_1064885" data-name="Grupo 1064885" clip-path="url(#clip-path)">
        <path id="Trazado_798971" data-name="Trazado 798971" d="M198.617,90.094c-4.776-3.28-10.168-5.506-16.03-4.384-2.316.443-1.62,3.711.486,3.882,4.78.386,9.7.88,13.84,3.49,1.889,1.191,3.507-1.748,1.7-2.987" transform="translate(-118.721 -55.982)" fill="#ff644d"/>
        <path id="Trazado_798972" data-name="Trazado 798972" d="M459.388,171.286c-5.639-.919-11.6-.878-16.405,2.61-1.635,1.186-.778,4.465,1.482,3.617,4.644-1.742,9.444-3.466,14.469-2.847,1.92.236,2.38-3.066.454-3.379" transform="translate(-289.777 -111.929)" fill="#5594c9"/>
        <path id="Trazado_798973" data-name="Trazado 798973" d="M416.7,49.092c3.329-5.177,8.069-8.611,12.926-12.23a1.817,1.817,0,0,0-1.816-3.146c-6.027,2.674-10.494,8.309-13.759,13.866-1,1.7,1.592,3.154,2.649,1.51" transform="translate(-271.225 -21.966)" fill="#e8b961"/>
        <path id="Trazado_798974" data-name="Trazado 798974" d="M339.533,14.3c.3-1.961.686-3.908.979-5.871.3-2.024.664-4.305-.122-6.256-.857-2.128-4.114-3.26-5.375-.713-1.769,3.573-.9,8.181-1.311,12.056-.352,3.317,5.313,4.113,5.83.783" transform="translate(-218.7 -0.001)" fill="#ff644d"/>
        <path id="Trazado_798975" data-name="Trazado 798975" d="M226.693,238.27a7.856,7.856,0,0,0-8.054-.144c-2.847,1.452-4.62,4.389-5.947,7.178-1.139,2.392,2.026,5.334,3.968,3.005,1.848-2.216,4.314-9.387,8.348-7.086,1.927,1.1,3.461-1.726,1.684-2.953" transform="translate(-139.242 -155.388)" fill="#ff644d"/>
        <path id="Trazado_798976" data-name="Trazado 798976" d="M420.844,236.329c.323-.266-.072.047.125-.1.374-.275.756-.54,1.148-.789a7.957,7.957,0,0,1,3.347-1.437c2.365-.228,5.279,2.015,7,3.447,2.048,1.708,5.328-.452,3.863-2.986a11.807,11.807,0,0,0-10.942-5.207c-2.775.432-5.479,2.263-7.527,4.123-2.023,1.839.941,4.634,2.989,2.946" transform="translate(-273.421 -150.196)" fill="#e8b961"/>
        <path id="Trazado_798977" data-name="Trazado 798977" d="M240.918,27.445a5.176,5.176,0,1,1,5.176,5.176,5.176,5.176,0,0,1-5.176-5.176" transform="translate(-157.899 -14.595)" fill="#e8b961"/>
        <path id="Trazado_798978" data-name="Trazado 798978" d="M466.578,110.323a3,3,0,1,1,2.367,3.517,3,3,0,0,1-2.367-3.517" transform="translate(-305.76 -70.718)" fill="#ff644d"/>
        <path id="Trazado_798979" data-name="Trazado 798979" d="M192.607,172.606a6.366,6.366,0,1,1,6.366,6.366,6.366,6.366,0,0,1-6.366-6.366" transform="translate(-126.236 -108.954)" fill="#5594c9"/>
        <path id="Trazado_798980" data-name="Trazado 798980" d="M445.928,116.314a2.238,2.238,0,1,1,1.767,2.626,2.237,2.237,0,0,1-1.767-2.626" transform="translate(-292.236 -75.047)" fill="#ff644d"/>
        <path id="Trazado_798981" data-name="Trazado 798981" d="M263.08,54.723a2.413,2.413,0,1,1,2.413,2.413,2.413,2.413,0,0,1-2.413-2.413" transform="translate(-172.424 -34.284)" fill="#e8b961"/>
        <path id="Trazado_798982" data-name="Trazado 798982" d="M432.9,158.438a.892.892,0,1,1,.892.892.892.892,0,0,1-.892-.892" transform="translate(-283.725 -103.256)" fill="#e8b961"/>
        <path id="Trazado_798983" data-name="Trazado 798983" d="M162.587,121.234c0,.867-.03,1.74.017,2.606a.4.4,0,0,0,.792,0c.049-.866.022-1.739.025-2.606a.417.417,0,0,0-.833,0" transform="translate(-106.554 -79.195)" fill="#5594c9"/>
        <path id="Trazado_798984" data-name="Trazado 798984" d="M152.8,115.208c-.867,0-1.741-.03-2.607.017a.4.4,0,0,0,0,.792c.865.05,1.739.022,2.606.025a.417.417,0,0,0,0-.833" transform="translate(-98.187 -75.502)" fill="#5594c9"/>
        <path id="Trazado_798985" data-name="Trazado 798985" d="M163.667,105.422c0-.867.03-1.741-.017-2.606a.4.4,0,0,0-.792,0c-.049.866-.022,1.739-.024,2.606a.417.417,0,0,0,.833,0" transform="translate(-106.719 -67.134)" fill="#5594c9"/>
        <path id="Trazado_798986" data-name="Trazado 798986" d="M168.614,116.286c.867,0,1.74.03,2.606-.017a.4.4,0,0,0,0-.792c-.866-.049-1.739-.022-2.606-.024a.417.417,0,0,0,0,.833" transform="translate(-110.248 -75.665)" fill="#5594c9"/>
        <path id="Trazado_798987" data-name="Trazado 798987" d="M435.7,16.509c0,.622-.021,1.249.012,1.871a.285.285,0,0,0,.569,0c.035-.621.016-1.248.017-1.871a.3.3,0,0,0-.6,0" transform="translate(-285.555 -10.632)" fill="#ff644d"/>
        <path id="Trazado_798988" data-name="Trazado 798988" d="M428.674,12.183c-.622,0-1.25-.022-1.871.012a.284.284,0,0,0,0,.569c.622.035,1.249.016,1.871.018a.3.3,0,0,0,0-.6" transform="translate(-279.548 -7.98)" fill="#ff644d"/>
        <path id="Trazado_798989" data-name="Trazado 798989" d="M436.474,5.158c0-.622.021-1.25-.012-1.871a.285.285,0,0,0-.569,0c-.035.622-.015,1.249-.017,1.871a.3.3,0,0,0,.6,0" transform="translate(-285.672 -1.973)" fill="#ff644d"/>
        <path id="Trazado_798990" data-name="Trazado 798990" d="M440.026,12.957c.623,0,1.249.022,1.871-.012a.284.284,0,0,0,0-.569c-.622-.035-1.249-.016-1.871-.018a.3.3,0,0,0,0,.6" transform="translate(-288.207 -8.098)" fill="#ff644d"/>
      </g>
    </g>
  </g>
</svg>
