<svg xmlns="http://www.w3.org/2000/svg" xmlns:xlink="http://www.w3.org/1999/xlink" width="1240" height="464.333" viewBox="0 0 1240 464.333">
  <defs>
    <clipPath id="clip-path">
      <path id="Trazado_796873" data-name="Trazado 796873" d="M10,0H1230c5.523,0,10,3.78,10,8.442V455.891c0,4.663-4.477,8.442-10,8.442H10c-5.523,0-10-3.78-10-8.442V8.442C0,3.78,4.477,0,10,0Z" transform="translate(180 2883.262)" fill="#8edee0" opacity="0.2"/>
    </clipPath>
    <clipPath id="clip-path-2">
      <rect id="Rectángulo_373503" data-name="Rectángulo 373503" width="837.136" height="398.327" fill="#ff8182"/>
    </clipPath>
  </defs>
  <g id="Grupo_1065253" data-name="Grupo 1065253" transform="translate(-180 -3882)">
    <path id="Trazado_782233" data-name="Trazado 782233" d="M10,0H1230c5.523,0,10,3.78,10,8.442V455.891c0,4.663-4.477,8.442-10,8.442H10c-5.523,0-10-3.78-10-8.442V8.442C0,3.78,4.477,0,10,0Z" transform="translate(180 3882)" fill="#8edee0" opacity="0.2"/>
    <g id="Enmascarar_grupo_1059015" data-name="Enmascarar grupo 1059015" transform="translate(0 998.738)" opacity="0.5" clip-path="url(#clip-path)">
      <g id="Grupo_1064026" data-name="Grupo 1064026" transform="translate(39.667 2802.402)">
        <path id="Trazado_796833" data-name="Trazado 796833" d="M605.453,72.832A145.178,145.178,0,0,1,729.39,222.28c-1.486,37.087-16.978,71.915-28.927,107.056S680.032,403.3,692.518,438.25c15.4,43.12,58.164,69.241,97.959,91.889s82.585,48.672,98.139,91.738c16.3,45.149-6.95,100.875-50.511,121.04-2-.474-2.821-1.652-4.877-1.652H3.6L0,52.97c139.211,0,466.313,24.311,605.453,19.862" transform="translate(87.333 -33.917)" fill="#c9f1f2"/>
        <path id="Trazado_796858" data-name="Trazado 796858" d="M507.29,69.612A121.64,121.64,0,0,1,611.133,194.829c-1.245,31.074-14.225,60.255-24.237,89.7s-17.118,61.97-6.657,91.256c12.906,36.129,48.734,58.015,82.077,76.991s69.2,40.781,82.228,76.864c13.661,37.829-5.823,84.52-42.322,101.416-1.677-.4-2.364-1.384-4.086-1.384H3.018L0,52.97c116.64,0,390.709,20.369,507.29,16.642" transform="matrix(0.799, -0.602, 0.602, 0.799, -484.632, 518.211)" fill="#dcfdfe"/>
        <path id="Trazado_796834" data-name="Trazado 796834" d="M1017.1,0c-29.239,20.161-35.461,63.18-22.008,96.049s42.088,57.06,71.955,76.278,62.181,35,89.2,58.051,48.842,55.58,48.3,91.092c-.747,49.223-43.41,92.12-38.312,141.083,3.5,33.631,30.012,61.55,60.929,75.242s65.722,15.411,99.527,14.652c0-.448-.082-1.5-.082-1.949V3.567C1226.273,3.575,1117.436-.008,1017.1,0" transform="translate(139.333 -45.917)" fill="#c9f1f2"/>
        <g id="Grupo_1064038" data-name="Grupo 1064038" transform="matrix(-0.966, -0.259, 0.259, -0.966, 639.091, 300.702)">
          <g id="Grupo_1064038-2" data-name="Grupo 1064038" clip-path="url(#clip-path-2)">
            <path id="Trazado_796859" data-name="Trazado 796859" d="M6.854,254.709c6.439-14.43,20.025-26.693,35.819-27.133,20.822-.578,38.31,18.565,59.135,18.11,15.381-.337,28.59-11.542,37.035-24.405s13.443-27.669,21.083-41.023c22.615-39.532,69.767-63.542,115.04-58.578,25.493,2.8,50.576,13.9,75.891,9.8,23.992-3.886,43.775-20.889,59.491-39.43s28.91-39.408,47.069-55.564C491,6.6,540.819-3.767,583.54,10.229c16.474,5.4,31.733,14.062,48.228,19.393s35.351,7,50.531-1.37c9.5-5.237,16.765-13.965,26.46-18.824,19.546-9.8,42.737-1.672,63.936,3.677S820.935,18.6,832.416,0l4.719,121.988s-6.248-6.051-37,0-71.435-40.494-94.4-48.148-30.616,20.41-65.057,48.148-70.162-36.667-104.6-48.148-58.68,30.616-98.854,89.3-109.542,35.821-109.542,35.821c-35.4,7.054-64.572,38.412-69.055,74.229-2.57,20.533.211,45.9-17.086,57.253-11.416,7.5-26.344,4.707-40,4.631-59.052-.329-105.531,53.838-163.935,62.589-7.435,1.114-15.653,1.285-21.758-3.1-7.12-5.116-9.121-14.681-10.366-23.359A542.641,542.641,0,0,1,.033,301.23c-.206-15.8.382-32.091,6.821-46.521" transform="translate(0)" fill="#ff8182"/>
          </g>
        </g>
        <path id="Trazado_796874" data-name="Trazado 796874" d="M15.579,281.266a5.6,5.6,0,0,0,6.367-2.929,5.715,5.715,0,0,0,.384-4.264,4.747,4.747,0,0,1,.119-3.126l0,0,9.821,3.875L36.137,265a4.729,4.729,0,0,0-3.126-.118,5.734,5.734,0,0,1-4.262-.385,5.493,5.493,0,0,1,4.538-10,5.7,5.7,0,0,1,2.871,2.479A4.668,4.668,0,0,0,38.507,259l3.873-9.816L16.742,239.066l-3.873,9.815a4.664,4.664,0,0,1-2.348-2.02,5.7,5.7,0,0,0-2.873-2.481A5.557,5.557,0,0,0,.18,248.018a5.6,5.6,0,0,0,2.929,6.368,5.725,5.725,0,0,0,4.265.384,4.746,4.746,0,0,1,3.125.118L6.627,264.7l9.823,3.875h-.007a4.674,4.674,0,0,1-2.019,2.349,5.7,5.7,0,0,0-2.482,2.872,5.557,5.557,0,0,0,3.637,7.468" transform="translate(725.97 324.598) rotate(150)" fill="#ff8182"/>
        <path id="Trazado_796875" data-name="Trazado 796875" d="M136.483,1.419a6.807,6.807,0,0,0-1.769,8.338,6.958,6.958,0,0,0,3.88,3.472,5.779,5.779,0,0,1,2.963,2.387l.006,0-10.914,6.763,6.758,10.906a5.756,5.756,0,0,0,2.387-2.963,6.966,6.966,0,0,1,3.472-3.877,6.68,6.68,0,0,1,6.459,11.691,6.926,6.926,0,0,1-4.5,1,5.676,5.676,0,0,0-3.679.822L148.3,50.864l28.491-17.654L170.034,22.3a5.679,5.679,0,0,1,3.675-.823,6.93,6.93,0,0,0,4.507-1,6.757,6.757,0,0,0,1.878-9.926,6.806,6.806,0,0,0-8.338-1.769,6.955,6.955,0,0,0-3.471,3.88,5.778,5.778,0,0,1-2.386,2.962L159.14,4.721l-10.915,6.763.006-.006a5.68,5.68,0,0,1-.823-3.676,6.93,6.93,0,0,0-1-4.506,6.758,6.758,0,0,0-9.926-1.878" transform="translate(168.821 481.248)" fill="#006a76"/>
        <path id="Trazado_796876" data-name="Trazado 796876" d="M136.483,1.419a6.807,6.807,0,0,0-1.769,8.338,6.958,6.958,0,0,0,3.88,3.472,5.779,5.779,0,0,1,2.963,2.387l.006,0-10.914,6.763,6.758,10.906a5.756,5.756,0,0,0,2.387-2.963,6.966,6.966,0,0,1,3.472-3.877,6.68,6.68,0,0,1,6.459,11.691,6.926,6.926,0,0,1-4.5,1,5.676,5.676,0,0,0-3.679.822L148.3,50.864l28.491-17.654L170.034,22.3a5.679,5.679,0,0,1,3.675-.823,6.93,6.93,0,0,0,4.507-1,6.757,6.757,0,0,0,1.878-9.926,6.806,6.806,0,0,0-8.338-1.769,6.955,6.955,0,0,0-3.471,3.88,5.778,5.778,0,0,1-2.386,2.962L159.14,4.721l-10.915,6.763.006-.006a5.68,5.68,0,0,1-.823-3.676,6.93,6.93,0,0,0-1-4.506,6.758,6.758,0,0,0-9.926-1.878" transform="translate(1119.252 460.426)" fill="#006a76"/>
      </g>
    </g>
  </g>
</svg>
