<svg xmlns="http://www.w3.org/2000/svg" xmlns:xlink="http://www.w3.org/1999/xlink" width="60" height="60" viewBox="0 0 60 60">
  <defs>
    <clipPath id="clip-path">
      <rect id="Rectángulo_374001" data-name="Rectángulo 374001" width="60" height="60" transform="translate(1085 5461.137)" fill="#006a76"/>
    </clipPath>
  </defs>
  <g id="Enmascarar_grupo_1059055" data-name="Enmascarar grupo 1059055" transform="translate(-1085 -5461.137)" clip-path="url(#clip-path)">
    <g id="asesoramiento" transform="translate(1085.008 5461.137)">
      <path id="Trazado_799330" data-name="Trazado 799330" d="M58.969,58a7.408,7.408,0,0,0-4.986-7.386A6.946,6.946,0,0,0,55,47V42a7,7,0,1,0-14,0v5a6.945,6.945,0,0,0,1.016,3.612,7.9,7.9,0,0,0-3.017,2,7.97,7.97,0,0,0-3.016-2A6.946,6.946,0,0,0,37,47V42a7,7,0,0,0-14,0v5a6.946,6.946,0,0,0,1.017,3.614,7.976,7.976,0,0,0-3.016,2,7.887,7.887,0,0,0-3.017-2A6.945,6.945,0,0,0,19,47V42A7,7,0,0,0,5,42v5a6.946,6.946,0,0,0,1.017,3.614A7.9,7.9,0,0,0,2.751,52.86,7.9,7.9,0,0,0,1.031,58H1a1,1,0,0,0,0,2H59a1,1,0,0,0-.031-2ZM43,44.115c2.325.167,5.183-.092,6.96-1.589a5.5,5.5,0,0,0,3.04,1.4V47a5,5,0,1,1-10,0ZM48,37a5,5,0,0,1,4.989,4.887A3.153,3.153,0,0,1,50.9,40.553a1,1,0,0,0-1.727-.108c-1.141,1.711-4.322,1.823-6.168,1.667A5.006,5.006,0,0,1,48,37ZM43.413,52.275a6.96,6.96,0,0,0,9.174,0,6.172,6.172,0,0,1,3.125,1.865A5.838,5.838,0,0,1,56.972,58h-16a9.721,9.721,0,0,0-.793-3.7,5.919,5.919,0,0,1,3.234-2.025ZM25,44.115c2.325.167,5.183-.092,6.96-1.589a5.5,5.5,0,0,0,3.04,1.4V47a5,5,0,1,1-10,0ZM30,37a5,5,0,0,1,4.989,4.887A3.153,3.153,0,0,1,32.9,40.553a1,1,0,0,0-1.727-.108c-1.141,1.711-4.322,1.823-6.168,1.667A5.006,5.006,0,0,1,30,37ZM25.413,52.275a6.961,6.961,0,0,0,9.174,0,6.172,6.172,0,0,1,3.125,1.865A5.838,5.838,0,0,1,38.972,58H21.028a5.834,5.834,0,0,1,1.257-3.857,6.173,6.173,0,0,1,3.128-1.868ZM7,44.115c2.325.167,5.183-.092,6.96-1.589a5.5,5.5,0,0,0,3.04,1.4V47A5,5,0,1,1,7,47ZM12,37a5,5,0,0,1,4.989,4.887A3.153,3.153,0,0,1,14.9,40.553a1,1,0,0,0-1.727-.108C12.027,42.156,8.846,42.268,7,42.112A5.006,5.006,0,0,1,12,37ZM4.285,54.143a6.173,6.173,0,0,1,3.128-1.868,6.961,6.961,0,0,0,9.174,0A5.913,5.913,0,0,1,19.824,54.3a9.716,9.716,0,0,0-.793,3.7h-16a5.834,5.834,0,0,1,1.254-3.857Z" fill="#006a76"/>
      <path id="Trazado_799331" data-name="Trazado 799331" d="M28,27H39.656l7.11,5.521A1.993,1.993,0,0,0,50,30.96V27h2a3,3,0,0,0,3-3V8a3,3,0,0,0-3-3H35V3a3,3,0,0,0-3-3H8A3,3,0,0,0,5,3V19.043a3,3,0,0,0,3,3h2V26a2,2,0,0,0,3.229,1.579l7.114-5.534H25V24a3,3,0,0,0,3,3ZM52,7a1,1,0,0,1,1,1V24a1,1,0,0,1-1,1H50a2,2,0,0,0-2,2v3.951l-7.1-5.513A1.966,1.966,0,0,0,39.66,25H28a1,1,0,0,1-1-1V22.043h5a3,3,0,0,0,3-3V7ZM19.115,20.464,12,26V22.043a2,2,0,0,0-2-2H8a1,1,0,0,1-1-1V3A1,1,0,0,1,8,2H32a1,1,0,0,1,1,1V19.043a1,1,0,0,1-1,1H20.343A2,2,0,0,0,19.115,20.464Z" fill="#006a76"/>
      <path id="Trazado_799332" data-name="Trazado 799332" d="M25,8H23V6a2,2,0,0,0-2-2H19a2,2,0,0,0-2,2V8H15a2,2,0,0,0-2,2v2a2,2,0,0,0,2,2h2v2a2,2,0,0,0,2,2h2a2,2,0,0,0,2-2V14h2a2,2,0,0,0,2-2V10A2,2,0,0,0,25,8Zm0,4H22a1,1,0,0,0-1,1v3H19V13a1,1,0,0,0-1-1H15V10h3a1,1,0,0,0,1-1V6h2V9a1,1,0,0,0,1,1h3Z" fill="#006a76"/>
      <path id="Trazado_799333" data-name="Trazado 799333" d="M38,12H50a1,1,0,0,0,0-2H38a1,1,0,0,0,0,2Z" fill="#006a76"/>
      <path id="Trazado_799334" data-name="Trazado 799334" d="M38,17H50a1,1,0,0,0,0-2H38a1,1,0,0,0,0,2Z" fill="#006a76"/>
      <path id="Trazado_799335" data-name="Trazado 799335" d="M38,22H50a1,1,0,0,0,0-2H38a1,1,0,0,0,0,2Z" fill="#006a76"/>
    </g>
  </g>
</svg>
