<svg xmlns="http://www.w3.org/2000/svg" xmlns:xlink="http://www.w3.org/1999/xlink" width="50" height="50" viewBox="0 0 50 50">
  <defs>
    <clipPath id="clip-path">
      <rect id="Rectángulo_373970" data-name="Rectángulo 373970" width="50" height="50" transform="translate(1090 5462.137)" fill="#006a76"/>
    </clipPath>
  </defs>
  <g id="Enmascarar_grupo_1059048" data-name="Enmascarar grupo 1059048" transform="translate(-1090 -5462.137)" clip-path="url(#clip-path)">
    <g id="ley" transform="translate(1090 5462.137)">
      <path id="Trazado_799250" data-name="Trazado 799250" d="M44.073,42.709a3.668,3.668,0,0,0-3.594-2.963H13.922a3.668,3.668,0,0,0-3.594,2.963A6.6,6.6,0,0,0,4.4,49.268.732.732,0,0,0,5.133,50H49.268A.732.732,0,0,0,50,49.268a6.6,6.6,0,0,0-5.927-6.558Zm-30.151-1.5H40.479a2.2,2.2,0,0,1,2.071,1.465h-30.7A2.2,2.2,0,0,1,13.922,41.211Zm-8,7.324a5.135,5.135,0,0,1,5.075-4.395H43.408a5.135,5.135,0,0,1,5.075,4.395Z" fill="#006a76"/>
      <path id="Trazado_799251" data-name="Trazado 799251" d="M47.07,31.031V29.366a2.2,2.2,0,0,0,0-4.143V13.058a2.2,2.2,0,0,0,0-4.143V7.25A3.662,3.662,0,0,0,46.338,0H27.295a3.662,3.662,0,0,0-.732,7.25V8.915a2.2,2.2,0,0,0,0,4.143v1.591H24.972a2.2,2.2,0,0,0-4.12-.06L6.525,13.211c-.194-.018-.385-.027-.568-.027a5.957,5.957,0,1,0,0,11.914c.184,0,.376-.009.57-.028l14.325-1.378a2.2,2.2,0,0,0,4.12-.06h1.591v1.591a2.2,2.2,0,0,0,0,4.143v1.664a3.662,3.662,0,0,0,.732,7.25H46.338a3.662,3.662,0,0,0,.732-7.25ZM20.7,22.235,6.391,23.611c-.15.014-.3.021-.434.021a4.492,4.492,0,0,1,0-8.984c.138,0,.284.007.43.021L20.7,16.046Zm2.93.665a.732.732,0,1,1-1.465,0v-7.52a.732.732,0,0,1,1.465,0ZM25.1,3.662a2.2,2.2,0,0,1,2.2-2.2H46.338a2.2,2.2,0,0,1,0,4.395H27.295A2.2,2.2,0,0,1,25.1,3.662ZM45.605,7.324V8.789H28.027V7.324Zm-18.311,2.93H46.338a.732.732,0,0,1,0,1.465H27.295a.732.732,0,0,1,0-1.465Zm18.311,2.93V25.1H28.027V13.184ZM25.1,22.168V16.113h1.465v6.055Zm2.2,4.395H46.338a.732.732,0,0,1,0,1.465H30.225a.732.732,0,0,0,0,1.465H45.605v1.465H28.027v-2.2a.732.732,0,0,0-.732-.732.732.732,0,0,1,0-1.465ZM46.338,36.816H27.295a2.2,2.2,0,0,1,0-4.395H46.338a2.2,2.2,0,0,1,0,4.395Z" fill="#006a76"/>
    </g>
  </g>
</svg>
