<svg id="Grupo_1064898" data-name="Grupo 1064898" xmlns="http://www.w3.org/2000/svg" xmlns:xlink="http://www.w3.org/1999/xlink" width="213.873" height="292.332" viewBox="0 0 213.873 292.332">
  <defs>
    <clipPath id="clip-path">
      <rect id="Rectángulo_373922" data-name="Rectángulo 373922" width="213.873" height="292.332" fill="none"/>
    </clipPath>
    <clipPath id="clip-path-3">
      <rect id="Rectángulo_373919" data-name="Rectángulo 373919" width="102.444" height="46.739" fill="none"/>
    </clipPath>
    <clipPath id="clip-path-4">
      <rect id="Rectángulo_373920" data-name="Rectángulo 373920" width="120.303" height="95.802" fill="none"/>
    </clipPath>
  </defs>
  <g id="Grupo_1064897" data-name="Grupo 1064897" clip-path="url(#clip-path)">
    <g id="Grupo_1064896" data-name="Grupo 1064896">
      <g id="Grupo_1064895" data-name="Grupo 1064895" clip-path="url(#clip-path)">
        <path id="Trazado_798991" data-name="Trazado 798991" d="M236.273,581.207V553.165H184.039v28.2l-21.386,8.685s-.342,16.08,8.151,22.976c6.468,5.251,31.854,31.255,38.325,32.858,17.911,4.437,33.889-18.67,47.906-31.461,4.494-4.1,4.725-25.836,4.725-25.836Z" transform="translate(-105.309 -358.148)" fill="#ff925c"/>
        <path id="Trazado_798992" data-name="Trazado 798992" d="M199.632,671.211a235.516,235.516,0,0,0-43.565-17.885s-16.353,38.819-48.1,55.408C85.939,696.859,68.3,671.644,57.978,654.707c-20.78,6.376-37.408,13.18-43.737,16.5C4.725,676.207,0,715.043,0,715.043l106.761.286,107.112-.286s-4.725-38.836-14.24-43.833" transform="translate(0 -422.998)" fill="#c68198"/>
        <path id="Trazado_798993" data-name="Trazado 798993" d="M260.045,584.8a37.667,37.667,0,0,0,15.505-3.722V553.165H223.317v9.319c4.814,7.476,10.291,12.763,14.526,15.457,5.956,3.787,15.025,6.859,22.2,6.859" transform="translate(-144.587 -358.148)" fill="#d97645"/>
        <path id="Trazado_798994" data-name="Trazado 798994" d="M218.1,638.111a4.766,4.766,0,0,1-2.174-.587c-2.316-1.186-2.547-2.872-2.478-3.772a3.909,3.909,0,0,1,2.416-3.315c1.916-.638,4.816.349,5.545,2.533a4.339,4.339,0,0,1-1.209,4.373,3.178,3.178,0,0,1-2.1.768m-.972-6.787a2.928,2.928,0,0,0-.922.138,2.715,2.715,0,0,0,.212,5.1,2.643,2.643,0,0,0,3.08-.039,3.234,3.234,0,0,0,.887-3.213,2.947,2.947,0,0,0-1.744-1.688,4.084,4.084,0,0,0-1.512-.3" transform="translate(-138.194 -408.054)" fill="#f7c934"/>
        <path id="Trazado_798995" data-name="Trazado 798995" d="M231.908,652.241a3.406,3.406,0,0,1-2.015-.653,3.907,3.907,0,0,1-1.557-3.795,4.754,4.754,0,0,1,1.825-2.613,3.935,3.935,0,0,1,3.237-.782,4.339,4.339,0,0,1,3.091,3.32c.134.841.041,2.444-2.086,3.736a4.8,4.8,0,0,1-2.5.786m-2.521-4.2a2.715,2.715,0,0,0,4.457,2.493,2.643,2.643,0,0,0,1.58-2.643,3.236,3.236,0,0,0-2.271-2.44,2.948,2.948,0,0,0-2.352.6,3.706,3.706,0,0,0-1.413,1.989" transform="translate(-147.789 -417.159)" fill="#f7c934"/>
        <path id="Trazado_798996" data-name="Trazado 798996" d="M291.663,668.168a3.406,3.406,0,0,1-2.015-.653,3.908,3.908,0,0,1-1.557-3.8,4.754,4.754,0,0,1,1.825-2.613,3.936,3.936,0,0,1,3.237-.782,4.34,4.34,0,0,1,3.091,3.32c.134.84.041,2.443-2.086,3.736a4.8,4.8,0,0,1-2.5.787m-2.521-4.2a2.715,2.715,0,0,0,4.457,2.493,2.643,2.643,0,0,0,1.58-2.644,3.236,3.236,0,0,0-2.271-2.439,2.949,2.949,0,0,0-2.352.6,3.7,3.7,0,0,0-1.413,1.989" transform="translate(-186.478 -427.472)" fill="#f7c934"/>
        <path id="Trazado_798997" data-name="Trazado 798997" d="M269.393,666.553a3.412,3.412,0,0,1-2.016-.653,3.908,3.908,0,0,1-1.556-3.8c.46-1.966,2.821-3.92,5.062-3.4a4.34,4.34,0,0,1,3.091,3.32c.134.841.041,2.444-2.086,3.736a4.8,4.8,0,0,1-2.5.787m.722-6.851a3.664,3.664,0,0,0-3.243,2.65,2.715,2.715,0,0,0,4.456,2.493,2.643,2.643,0,0,0,1.58-2.644,3.235,3.235,0,0,0-2.271-2.439,2.3,2.3,0,0,0-.522-.06" transform="translate(-172.059 -426.427)" fill="#f7c934"/>
        <path id="Trazado_798998" data-name="Trazado 798998" d="M312.767,667.726a4.355,4.355,0,0,1-3.524-1.787c-.473-.708-1.059-2.2.332-4.266,1.455-2.157,3.155-2.184,4.041-2.009a3.909,3.909,0,0,1,3,2.8,4.755,4.755,0,0,1-.565,3.137,3.941,3.941,0,0,1-2.613,2.064,3.353,3.353,0,0,1-.673.064m.173-7.05a3.063,3.063,0,0,0-2.47,1.6,2.643,2.643,0,0,0-.33,3.063,3.241,3.241,0,0,0,3.083,1.265,2.947,2.947,0,0,0,1.885-1.529,3.7,3.7,0,0,0,.452-2.4,2.853,2.853,0,0,0-2.155-1.954,2.376,2.376,0,0,0-.466-.047" transform="translate(-199.873 -427.059)" fill="#f7c934"/>
        <path id="Trazado_798999" data-name="Trazado 798999" d="M333.673,659.882a4.355,4.355,0,0,1-3.524-1.787c-.473-.708-1.059-2.2.332-4.266,1.454-2.157,3.156-2.184,4.041-2.009a3.908,3.908,0,0,1,3,2.8,4.755,4.755,0,0,1-.565,3.137,3.938,3.938,0,0,1-2.613,2.064,3.348,3.348,0,0,1-.673.065m.173-7.05a3.064,3.064,0,0,0-2.47,1.6,2.643,2.643,0,0,0-.33,3.062,3.24,3.24,0,0,0,3.083,1.266,2.947,2.947,0,0,0,1.885-1.529,3.7,3.7,0,0,0,.452-2.4,2.852,2.852,0,0,0-2.154-1.954,2.38,2.38,0,0,0-.467-.047" transform="translate(-213.409 -421.98)" fill="#f7c934"/>
        <path id="Trazado_799000" data-name="Trazado 799000" d="M368.644,636.871a3.392,3.392,0,0,1-.371-.02,3.91,3.91,0,0,1-3.236-2.521c-.577-1.935.5-4.8,2.708-5.461a4.341,4.341,0,0,1,4.332,1.347c.534.663,1.249,2.1.045,4.279a3.934,3.934,0,0,1-3.478,2.377m-2.573-2.85a2.715,2.715,0,0,0,5.106-.05,2.643,2.643,0,0,0,.059-3.079,3.234,3.234,0,0,0-3.183-.99c-1.588.474-2.417,2.66-1.982,4.118" transform="translate(-236.245 -407.073)" fill="#f7c934"/>
        <path id="Trazado_799001" data-name="Trazado 799001" d="M351.615,651.576a3.383,3.383,0,0,1-.371-.02,3.91,3.91,0,0,1-3.236-2.521,4.756,4.756,0,0,1,.287-3.174,3.936,3.936,0,0,1,2.421-2.286,4.34,4.34,0,0,1,4.332,1.346c.534.663,1.249,2.1.044,4.279a3.934,3.934,0,0,1-3.478,2.377m-2.573-2.85a2.715,2.715,0,0,0,5.106-.05,2.642,2.642,0,0,0,.059-3.079,3.234,3.234,0,0,0-3.183-.989,2.948,2.948,0,0,0-1.743,1.689,3.7,3.7,0,0,0-.239,2.428" transform="translate(-225.218 -416.594)" fill="#f7c934"/>
        <path id="Trazado_799002" data-name="Trazado 799002" d="M250.158,661.882a4,4,0,0,1-3.32-6.723c.577-.625,1.893-1.546,4.225-.676,2.437.909,2.863,2.556,2.9,3.458a3.91,3.91,0,0,1-2.015,3.573,4.252,4.252,0,0,1-1.788.368m-.889-6.675a2.139,2.139,0,0,0-1.638.684,3.235,3.235,0,0,0-.508,3.294c.7,1.5,2.989,2,4.366,1.352a2.716,2.716,0,0,0-.8-5.043,4.106,4.106,0,0,0-1.416-.286" transform="translate(-159.149 -423.516)" fill="#f7c934"/>
        <path id="Trazado_799003" data-name="Trazado 799003" d="M247.01,289.223c-.286-17.161-3.718-39.469-6.864-51.2s-10.438-23.33-10.438-23.33a5.694,5.694,0,0,0-4.683-1.27,8.167,8.167,0,0,0-2.735,1.442c-4.8,3.173-10.731,3.916-16.334,5.212-4.62,1.069-9.214,2.573-13.956,2.551a53.879,53.879,0,0,1-9.478-1.3,118.461,118.461,0,0,0-17-1.881q-4.365-.165-8.734-.009c-2.579.092-4.339.443-6.851-.26a54.971,54.971,0,0,1-6.008-1.87c-1.915-.782-3.713-1.831-5.626-2.619-4.844-2-7.2-2.23-12.195-.652-.622.2-1.251-.5-1.741-.075-3.553,3.072-6.493,9.264-8.017,16.972-2.137,10.812-3.949,20.25-5.951,33.692s-2,24.978-2.1,39.087a241.475,241.475,0,0,0,1.715,28.407c-.021-.162,7.505,1.1,7.912,1.19q6.063,1.314,12.223,2.118c.34.044,1.023.127,1.023.127l.567-3.778.421,3.894a83.093,83.093,0,0,0,11,.251c3.574-.365,7.074-1.281,10.645-1.67,12.836-1.4,25.588,4.045,38.481,3.322,3.264-.183,6.491-.76,9.725-1.239,4.894-.725,28.587-2.287,23.136-1.749s19.229,1.07,19.288.681c2.19-13.418,2.86-28.886,2.574-46.047" transform="translate(-70.115 -137.909)" fill="#9c4532"/>
        <g id="Grupo_1064891" data-name="Grupo 1064891" transform="translate(51.253 152.995)" opacity="0.2">
          <g id="Grupo_1064890" data-name="Grupo 1064890">
            <g id="Grupo_1064889" data-name="Grupo 1064889" clip-path="url(#clip-path-3)">
              <path id="Trazado_799004" data-name="Trazado 799004" d="M231.48,478.693c6.077-.9,12.3-11.632,12.751-12.847,3.071-8.212,5-9.123,2.311-17.466a9.212,9.212,0,0,0-1.593-3.223,10.445,10.445,0,0,0-4.056-2.512c-7.583-3.206-15.255-6.422-23.37-7.815-16.049-2.754-32.316,1.8-48.464,3.9-4.435.576-8.9.969-13.3,1.774-2.868.525-8.608.974-10.042,4.031-1.409,3,1.97,7.562,3.308,10.089,2.145,4.051,4.507,7.984,6.99,11.836a41.156,41.156,0,0,0,6.154,7.9,31.858,31.858,0,0,0,6.332,4.472c3.116-.425,6.189-1.17,9.317-1.511,12.836-1.4,25.588,4.046,38.481,3.322,3.264-.183,11.949-1.47,15.182-1.949" transform="translate(-145.379 -433.969)"/>
            </g>
          </g>
        </g>
        <path id="Trazado_799005" data-name="Trazado 799005" d="M162.951,258.658c-5.979,10.965-7.829,24.491-6.849,40.579,1.426,23.413,6.019,42.829,15.155,56.916s25.592,23.6,35.33,23.606S231.044,371.182,240,358.44c10.9-15.506,17.642-35.785,19.071-59.2.982-16.09-.868-29.618-6.848-40.584L209.154,265.2Z" transform="translate(-100.908 -167.469)" fill="#ff925c"/>
        <path id="Trazado_799006" data-name="Trazado 799006" d="M350.12,394.286c0,3.816,1.718,6.91,3.839,6.91s3.839-3.093,3.839-6.909-1.718-6.91-3.839-6.91-3.839,3.094-3.839,6.909" transform="translate(-226.686 -250.808)" fill="#160d0b"/>
        <path id="Trazado_799007" data-name="Trazado 799007" d="M228.886,394.279c0,3.816,1.718,6.91,3.838,6.91s3.839-3.094,3.839-6.91-1.718-6.91-3.839-6.91-3.839,3.094-3.839,6.909" transform="translate(-148.193 -250.804)" fill="#160d0b"/>
        <path id="Trazado_799008" data-name="Trazado 799008" d="M297.521,430.691c-1.94,0-4.819-.989-5.993-4.87-.674-2.23-.738-6.872-.187-13.8.406-5.112,1.012-9.65,1.018-9.7a.712.712,0,0,1,1.412.189c-.006.045-.607,4.547-1.01,9.619-.528,6.653-.483,11.243.13,13.273,1.363,4.5,5.136,3.83,5.3,3.8a.713.713,0,0,1,.27,1.4,4.992,4.992,0,0,1-.937.084" transform="translate(-188.389 -260.088)" fill="#d97645"/>
        <path id="Trazado_799009" data-name="Trazado 799009" d="M336.644,355.647a2.992,2.992,0,0,0,1.778,4.9c2.368.451,8.563-.262,12.8.575,4.1.81,8.5,3.118,9.468,2.762.983-.362.347-2.386-2.487-4.463-2.643-1.936-5.125-4.223-10.1-5.031s-10.14-.19-11.461,1.252" transform="translate(-217.496 -229.222)" fill="#9c4532"/>
        <path id="Trazado_799010" data-name="Trazado 799010" d="M218.906,352.254a2.992,2.992,0,0,1-2.06,4.793c-2.39.313-8.534-.758-12.814-.17-4.142.57-8.668,2.619-9.612,2.208-.96-.418-.208-2.4,2.742-4.311a23.735,23.735,0,0,1,10.863-4.408c5.23-.7,9.646.371,10.881,1.888" transform="translate(-125.623 -226.704)" fill="#9c4532"/>
        <path id="Trazado_799011" data-name="Trazado 799011" d="M336.644,355.647a2.992,2.992,0,0,0,1.778,4.9c2.368.451,8.563-.262,12.8.575,4.1.81,8.5,3.118,9.468,2.762.983-.362.347-2.386-2.487-4.463-2.643-1.936-5.125-4.223-10.1-5.031s-10.14-.19-11.461,1.252" transform="translate(-217.496 -229.222)" fill="#9c4532"/>
        <path id="Trazado_799012" data-name="Trazado 799012" d="M218.906,352.254a2.992,2.992,0,0,1-2.06,4.793c-2.39.313-8.534-.758-12.814-.17-4.142.57-8.668,2.619-9.612,2.208-.96-.418-.208-2.4,2.742-4.311a23.735,23.735,0,0,1,10.863-4.408c5.23-.7,9.646.371,10.881,1.888" transform="translate(-125.623 -226.704)" fill="#9c4532"/>
        <path id="Trazado_799013" data-name="Trazado 799013" d="M443.625,428.445a.713.713,0,0,1-.53-1.188c.033-.037,3.279-3.718,3.2-8.083a.712.712,0,0,1,.7-.726.7.7,0,0,1,.726.7c.095,4.937-3.411,8.9-3.56,9.062a.712.712,0,0,1-.531.237" transform="translate(-286.765 -270.925)" fill="#d97645"/>
        <path id="Trazado_799014" data-name="Trazado 799014" d="M292.365,503.066c-.1,1.305-5.706,5.407-11.068,5.494-6.161.1-11.812-4.293-11.555-5.8.27-1.579,6.353.4,11.715.485,5.735.089,11.013-1.633,10.908-.184" transform="translate(-174.64 -325.122)" fill="#fff"/>
        <path id="Trazado_799015" data-name="Trazado 799015" d="M151.705,198.627c0-7.094,21.366-12.846,51.658-12.846s54.849,5.752,54.849,12.846-24.557,12.846-54.849,12.846-51.658-5.751-51.658-12.846" transform="translate(-98.222 -120.284)" fill="#4f2626"/>
        <path id="Trazado_799016" data-name="Trazado 799016" d="M234.009,249.1l-44.617,8.008-49.529-7.672c-5.978,10.965-15.9,54.887-14.917,70.975.5,8.277,15.939,38.389,15.939,38.389-.183-2.306,0-4.545-.027-6.817-.042-3.839-.644-7.574-.432-11.456.417-7.642,1.859-15.2,2.068-22.854a51.89,51.89,0,0,1,.289-5.713,54.373,54.373,0,0,1,1.241-5.5,43.788,43.788,0,0,0,1.328-14.283c-.143-1.619-.4-3.229-.48-4.853a44.7,44.7,0,0,1,.609-7.558c.168-1.369.025-3.319.866-4.492,1.811-2.526,3.311-2.57,9.788-2.828a94.649,94.649,0,0,1,2.1-11.83l1.875,11.681.829-.029a21.951,21.951,0,0,1,1.831-4.449l.452,4.373c6.867-.217,15.1-.4,23.507-.4,3.937,0,7.755.085,11.362.223q.538-2.665,1.076-5.331a8.034,8.034,0,0,1,.567,2.374q.2,1.521.407,3.041c14.738.657,23,2.137,25.29,3.7,1.217.829,1.138,3.209,1.3,4.468.314,2.371.454,4.778.561,7.183q.348,7.877.029,15.766a51.178,51.178,0,0,0,.029,7.86c.227,2,.72,3.95,1.11,5.921,1.851,9.369,1.347,19.02.967,28.563-.091,2.276-1.5,7.38-1.283,9.652.205,2.148,2.376.822,2.942,2.793.825-1.629,3.065-2.043,4.624-2.669,2.314-.929,4.458-2.209,5.38-4.66,5.84-15.505,8.913-43.537,9.506-53.237.982-16.09-10.609-37.369-16.588-48.335" transform="translate(-80.853 -161.281)" fill="#9c4532"/>
        <g id="Grupo_1064894" data-name="Grupo 1064894" transform="translate(49.291 96.456)" opacity="0.2">
          <g id="Grupo_1064893" data-name="Grupo 1064893">
            <g id="Grupo_1064892" data-name="Grupo 1064892" clip-path="url(#clip-path-4)">
              <path id="Trazado_799017" data-name="Trazado 799017" d="M145.2,388.526a.712.712,0,0,1-.7-.576c-1.264-6.465-.495-13.126.25-19.568.739-6.4,1.5-13.015.226-19.318a.713.713,0,0,1,1.4-.283c1.321,6.525.544,13.255-.208,19.765-.732,6.334-1.488,12.883-.267,19.131a.712.712,0,0,1-.562.836.732.732,0,0,1-.137.013" transform="translate(-142.416 -321.906)"/>
              <path id="Trazado_799018" data-name="Trazado 799018" d="M140.526,532.216a.713.713,0,0,1-.712-.712v-5.72a.713.713,0,1,1,1.425,0v5.72a.713.713,0,0,1-.713.712" transform="translate(-139.814 -436.414)"/>
              <path id="Trazado_799019" data-name="Trazado 799019" d="M446.6,325.884a.713.713,0,0,1-.712-.7,38.729,38.729,0,0,0-1.872-11.26.712.712,0,1,1,1.356-.438,40.148,40.148,0,0,1,1.941,11.674.713.713,0,0,1-.7.724H446.6" transform="translate(-336.745 -299.103)"/>
              <path id="Trazado_799020" data-name="Trazado 799020" d="M472.43,430.845a.713.713,0,0,1-.7-.6L469.333,414.6a30.888,30.888,0,0,1-.493-5.153,32.337,32.337,0,0,1,.863-6.029c.645-3.1,1.254-6.031.4-8.854a.713.713,0,1,1,1.365-.411c.955,3.169.28,6.416-.373,9.555a31.265,31.265,0,0,0-.833,5.76,29.845,29.845,0,0,0,.477,4.916l2.394,15.638a.713.713,0,0,1-.6.812.752.752,0,0,1-.109.008" transform="translate(-352.841 -351.324)"/>
              <path id="Trazado_799021" data-name="Trazado 799021" d="M383.1,288.17a.716.716,0,0,1-.713-.726,122.183,122.183,0,0,0-.469-13.071.713.713,0,0,1,1.419-.127,123.55,123.55,0,0,1,.475,13.224.713.713,0,0,1-.712.7" transform="translate(-296.565 -273.598)"/>
              <path id="Trazado_799022" data-name="Trazado 799022" d="M292.856,298.492a.732.732,0,0,1-.091-.006.712.712,0,0,1-.617-.8l.584-4.575a.713.713,0,0,1,1.414.181l-.584,4.574a.713.713,0,0,1-.706.623" transform="translate(-238.439 -285.831)"/>
            </g>
          </g>
        </g>
        <path id="Trazado_799023" data-name="Trazado 799023" d="M293.639,107.794A18.634,18.634,0,1,1,275,89.16a18.634,18.634,0,0,1,18.634,18.634" transform="translate(-165.988 -57.727)" fill="#f7c934"/>
        <path id="Trazado_799024" data-name="Trazado 799024" d="M233.458,37.533l9.57,16.6A1.828,1.828,0,0,1,240,56.166L228.255,41.028a3.141,3.141,0,0,1,4.964-3.851,3.457,3.457,0,0,1,.239.357" transform="translate(-147.357 -23.283)" fill="#f7c934"/>
        <path id="Trazado_799025" data-name="Trazado 799025" d="M387.136,78.085l-11.113,4.872a1.834,1.834,0,0,1-1.817-3.162l9.807-7.145a3.152,3.152,0,0,1,3.713,5.1,3.286,3.286,0,0,1-.591.339" transform="translate(-241.793 -46.646)" fill="#f7c934"/>
        <path id="Trazado_799026" data-name="Trazado 799026" d="M322.84,26.351,327.628,2.52a3.137,3.137,0,0,1,6.151,1.236c-.018.091-.042.185-.067.272l-6.893,23.31a2.051,2.051,0,0,1-3.979-.986" transform="translate(-208.999 0)" fill="#f7c934"/>
        <path id="Trazado_799027" data-name="Trazado 799027" d="M186.225,93.465l-27.854-9.854a2.624,2.624,0,1,1,1.75-4.947c.048.017.1.038.15.058l27.2,11.546a1.716,1.716,0,0,1-1.243,3.2" transform="translate(-101.405 -50.833)" fill="#f7c934"/>
        <path id="Trazado_799028" data-name="Trazado 799028" d="M276.033,30.388l-3.207-9.057a2.751,2.751,0,1,1,5.186-1.836,3.012,3.012,0,0,1,.111.411l1.77,9.443a2,2,0,0,1-3.86,1.039" transform="translate(-176.539 -11.434)" fill="#f7c934"/>
        <path id="Trazado_799029" data-name="Trazado 799029" d="M162.119,141.809a14.122,14.122,0,0,0-11.417,4.022,17.608,17.608,0,0,0-33.859,4.958,9.869,9.869,0,0,0-4.044-.646,10.142,10.142,0,0,0-9.022,7.185c-.02.065-.04.13-.059.2a3.821,3.821,0,0,0,3.735,4.792h63.17a3.824,3.824,0,0,0,3.711-2.8,14.149,14.149,0,0,0-12.215-17.7" transform="translate(-67.06 -87.286)" fill="#ffe3b0"/>
        <path id="Trazado_799030" data-name="Trazado 799030" d="M377.633,102.212c-.259,0-.513.018-.766.039a14.153,14.153,0,1,0-25.684,11.339,4.671,4.671,0,0,0,4,2.239h26.783c2.051,2.351,4.525-1.319,4.682-4.552,0-.017,0-.034,0-.051a9.013,9.013,0,0,0-9.014-9.014" transform="translate(-226.055 -59.642)" fill="#ffe3b0"/>
        <path id="Trazado_799031" data-name="Trazado 799031" d="M341.454,215.57a11.388,11.388,0,0,0-10.558,7.124,9.148,9.148,0,0,0-15.534,5.518,9.224,9.224,0,0,0,.078,2.515c15.57-.262,29.13-2.222,37.319-5.1a11.385,11.385,0,0,0-11.3-10.061" transform="translate(-204.149 -139.571)" fill="#ffe3b0"/>
        <path id="Trazado_799032" data-name="Trazado 799032" d="M195.47,242.081a114.116,114.116,0,0,0,13.3,2.286,7.2,7.2,0,0,0-13.3-2.286" transform="translate(-126.558 -154.417)" fill="#ffe3b0"/>
        <path id="Trazado_799033" data-name="Trazado 799033" d="M358.571,178.087l6.028,3.526a3.168,3.168,0,0,1-3.2,5.469,3.275,3.275,0,0,1-.721-.579l-4.753-5.117a2.138,2.138,0,0,1,2.646-3.3" transform="translate(-230.075 -115.114)" fill="#f7c934"/>
      </g>
    </g>
  </g>
</svg>
