<svg id="Grupo_1064865" data-name="Grupo 1064865" xmlns="http://www.w3.org/2000/svg" xmlns:xlink="http://www.w3.org/1999/xlink" width="238.71" height="287.668" viewBox="0 0 238.71 287.668">
  <defs>
    <clipPath id="clip-path">
      <rect id="Rectángulo_373910" data-name="Rectángulo 373910" width="238.71" height="287.668" fill="none"/>
    </clipPath>
  </defs>
  <g id="Grupo_1064864" data-name="Grupo 1064864" clip-path="url(#clip-path)">
    <path id="Trazado_798891" data-name="Trazado 798891" d="M224.372,651.679c-6.2-3.257-33.678-11.641-55.3-18.006a75.541,75.541,0,0,1-13.352,15.3,56.807,56.807,0,0,1-86.459-15.813c-20.92,6.42-48.557,15.176-54.928,18.522C4.757,656.709,0,695.808,0,695.808l119.436.288,119.274-.288s-4.758-39.1-14.338-44.129" transform="translate(0 -408.429)" fill="#8bc5ea"/>
    <path id="Trazado_798892" data-name="Trazado 798892" d="M268.529,562.682V534.45H215.942v28.393c-4.12,1.228-12.632,3.78-22.588,6.837,8.375,13.955,21.851,24.37,36.92,28.1,18.032,4.468,37.906-.732,52.018-13.61a78.792,78.792,0,0,0,11.9-14.06c-11.51-3.39-21.415-6.224-25.66-7.432" transform="translate(-124.726 -344.756)" fill="#ad5731"/>
    <path id="Trazado_798893" data-name="Trazado 798893" d="M293.97,566.3a37.922,37.922,0,0,0,15.61-3.747v-28.1H256.993v9.382c4.847,7.526,10.361,12.85,14.625,15.561,6,3.813,15.127,6.9,22.353,6.9" transform="translate(-165.778 -344.756)" fill="#8c3f20"/>
    <path id="Trazado_798894" data-name="Trazado 798894" d="M285.236,207.831a15.723,15.723,0,0,1-1.523,5.587c-.948,1.874.064,2.23.783,4.125a11.143,11.143,0,0,1,.679,4.882,14.115,14.115,0,0,1-1.033,3.816c-.13.35-1.858,4.048-1.9,3.994,1.573,1.869,1.417,4.61,1.012,7.019a44.488,44.488,0,0,1-2.942,10.676c-1.288,2.878-1.488,6.144-2.964,9.047a5.081,5.081,0,0,1-2.2,2.5c-2.138.969-6.075-1.084-8.231-1.732-3.448-1.037-6.952-1.877-10.481-2.59-6.943-1.4-13.975-2.3-21-3.189-8.752-1.11-17.517-2.222-26.332-2.56-5.7-.219-11.484-.1-16.979,1.416-2.691.745-5.359,1.831-8.15,1.768-5.147-.119-9.471-4.589-11.2-8.981-2.426-6.173-3.79-11.628-2.232-18.08a13.457,13.457,0,0,1-3.359-9.122,35.327,35.327,0,0,1,.894-7.716,17.418,17.418,0,0,1,2.55-6.317.626.626,0,0,0,.129-.269.608.608,0,0,0-.065-.291,9.89,9.89,0,0,1-1.014-3.3,8.137,8.137,0,0,1,.14-1.553,23.74,23.74,0,0,1,2.259-7.985,7.774,7.774,0,0,1,4.07-3.715c1.841-.547,4.038-.027,5.942-.044,2.467-.022,4.973-.153,7.456-.231l17.175-.54c3.251-.1,6.028.127,9.235-.495a116.882,116.882,0,0,1,35.464-1.376c4.084.468,8.139,1.151,12.193,1.834,2.312.39,4.646.632,6.968.946.892.12,1.823.449,2.7.514,1.825.136,3.184-.793,4.976-.1a7.249,7.249,0,0,1,3.868,3.7,10.392,10.392,0,0,1,.111,7.692c1.962,1.244,2.716,3.735,2.957,6.045a23.354,23.354,0,0,1,.037,4.635" transform="translate(-107.845 -117.284)" fill="#562828"/>
    <path id="Trazado_798895" data-name="Trazado 798895" d="M196.516,235.427c-6.019,11.039-7.882,24.656-6.9,40.853,1.436,23.571,6.06,43.119,15.258,57.3s25.765,23.765,35.569,23.765,24.623-8.634,33.641-21.462c10.975-15.611,17.762-36.027,19.2-59.6.989-16.2-.874-29.818-6.894-40.858l-43.363,6.59Z" transform="translate(-122.156 -151.866)" fill="#ad5731"/>
    <path id="Trazado_798896" data-name="Trazado 798896" d="M383.637,373.807c0,3.842,1.73,6.956,3.865,6.956s3.865-3.114,3.865-6.956-1.73-6.956-3.864-6.956-3.865,3.115-3.866,6.956" transform="translate(-247.472 -236.643)" fill="#160d0b"/>
    <path id="Trazado_798897" data-name="Trazado 798897" d="M262.4,373.8c0,3.842,1.73,6.956,3.864,6.956s3.865-3.114,3.865-6.956-1.73-6.956-3.865-6.956-3.865,3.115-3.865,6.956" transform="translate(-169.268 -236.639)" fill="#160d0b"/>
    <path id="Trazado_798898" data-name="Trazado 798898" d="M331.081,407.657c-1.953,0-4.851-1-6.033-4.9-.679-2.246-.743-6.919-.188-13.891.409-5.147,1.019-9.716,1.025-9.761a.717.717,0,0,1,1.422.191c-.006.045-.611,4.578-1.017,9.684-.532,6.7-.487,11.318.131,13.363,1.362,4.5,5.173,3.854,5.335,3.824a.717.717,0,0,1,.269,1.409,5.018,5.018,0,0,1-.943.085" transform="translate(-209.315 -244.144)" fill="#8c3f20"/>
    <path id="Trazado_798899" data-name="Trazado 798899" d="M185.222,175.484c0-7.143,21.511-12.933,52.008-12.933s55.221,5.79,55.221,12.933-24.723,12.933-55.221,12.933-52.008-5.79-52.008-12.933" transform="translate(-119.481 -104.856)" fill="#301b1b"/>
    <path id="Trazado_798900" data-name="Trazado 798900" d="M253.8,333.688c1.976,1.706,1,5.645-3.08,6.894a48.189,48.189,0,0,1-15.681,1.8c-3.814-.319-4.316-2.816-3.172-4.7s5.4-3.859,10.676-4.719,9.28-.982,11.257.724" transform="translate(-149.223 -214.389)" fill="#562828"/>
    <path id="Trazado_798901" data-name="Trazado 798901" d="M371.145,335.561c-1.88,1.812-.686,5.692,3.454,6.715a48.208,48.208,0,0,0,15.756.932c3.79-.528,4.154-3.05,2.908-4.863s-5.607-3.556-10.919-4.125-9.32-.471-11.2,1.341" transform="translate(-238.855 -215.396)" fill="#562828"/>
    <path id="Trazado_798902" data-name="Trazado 798902" d="M284.326,285.044c.737,3.434.545,7.084,1.847,10.346.148.373.37.784.763.864,1.43.29,3.241-4.527,3.413-5.5a145.094,145.094,0,0,0,1.915-16.411c.993-16.429-2.343-30.242-8.39-41.44l-43.563,6.684-46.73-6.684c-6.047,11.2-9.44,29.748-7.538,46.094.708,6.087,3.387,9.984,4.679,16.2a43.824,43.824,0,0,0,2.5-14.2c.159-4.364,1.024-8.49,1.11-12.877q.15-7.6-.2-15.2a14.264,14.264,0,0,0,16.84,2.492c2.31-1.308,4.283-3.3,6.84-4.008a14.513,14.513,0,0,0,21.4-5.611,6.611,6.611,0,0,0,6.153,1.751,19.5,19.5,0,0,0,6.1-2.658c-1.763,1.022,2.9,6.476,3.645,7.068a8.475,8.475,0,0,0,4.148,1.977c2.83.334,5.417-1.549,7.49-3.505a4.709,4.709,0,0,0,3.724,2.426c3.539.47,6.764-1.289,9.794-2.859-.555.288-2.879,6.766-2.3,14.4s5.237,15.053,6.359,20.661" transform="translate(-119.669 -150.237)" fill="#562828"/>
    <path id="Trazado_798903" data-name="Trazado 798903" d="M178.38,365.685c-4.919-6.007-16.031.41-14.518,11.694s11.952,22.672,18.458,22.628,2.689-26.226-3.94-34.322" transform="translate(-105.611 -234.408)" fill="#ad5731"/>
    <path id="Trazado_798904" data-name="Trazado 798904" d="M185.1,404.176a.716.716,0,0,1-.587-.3c-3.065-4.355-2.321-10.011-2.288-10.25a.717.717,0,1,1,1.421.2c-.012.089-.683,5.356,2.04,9.227a.717.717,0,0,1-.586,1.13" transform="translate(-117.482 -253.514)" fill="#8c3f20"/>
    <path id="Trazado_798905" data-name="Trazado 798905" d="M450.92,365.685c4.919-6.007,16.031.41,14.519,11.694s-11.952,22.672-18.458,22.628-2.689-26.226,3.94-34.322" transform="translate(-286.162 -234.408)" fill="#ad5731"/>
    <path id="Trazado_798906" data-name="Trazado 798906" d="M474.894,404.289a.717.717,0,0,1-.533-1.2c.06-.067,3.564-4.057,3.473-8.789a.717.717,0,0,1,1.434-.028c.1,5.324-3.679,9.6-3.839,9.775a.717.717,0,0,1-.534.238" transform="translate(-305.876 -253.881)" fill="#8c3f20"/>
    <path id="Trazado_798907" data-name="Trazado 798907" d="M331.152,482.627a22.593,22.593,0,0,1-5.644-.75.717.717,0,0,1,.358-1.389c6.036,1.554,11.229.594,15.876-2.938a.717.717,0,1,1,.868,1.143,18.534,18.534,0,0,1-11.458,3.935" transform="translate(-209.627 -307.957)" fill="#8c3f20"/>
    <path id="Trazado_798908" data-name="Trazado 798908" d="M377.045,89.136a35.343,35.343,0,0,0-8.917-4.033,4.636,4.636,0,0,1,.665-2.044c.323-.521.749-.975,1.048-1.51a2.007,2.007,0,0,0,.21-1.76A2.351,2.351,0,0,0,368.6,78.7a5.768,5.768,0,0,0-3.739-.11,3.424,3.424,0,0,0-1.373.765,3.574,3.574,0,0,0-.679,1.079,11.108,11.108,0,0,0-.9,3.342,40.473,40.473,0,0,0-8.741-.179,2.394,2.394,0,0,0-1.889,1.218,41.869,41.869,0,0,0-3.682,9.434,4.67,4.67,0,0,1-2.374-.458c-.9-.484-1.878-1.161-2.882-.559a1.677,1.677,0,0,0-.427.371,3.933,3.933,0,0,0-.723,2.211c-.147,1.435-.108,3.09.975,4.043a3.927,3.927,0,0,0,2.55.8c.548.011,1.039-.187,1.61-.137a59.515,59.515,0,0,0-.585,8.429,2.377,2.377,0,0,0,2.413,2.373,46.461,46.461,0,0,1,11.45,1.083,47.975,47.975,0,0,1,10.6,4.659,2.38,2.38,0,0,0,3.452-1.364c.681-2.191,1.625-5.484,2.471-9.324a11.058,11.058,0,0,1-2.138-.7,3.57,3.57,0,0,1-1.08-.677,3.422,3.422,0,0,1-.767-1.371,5.77,5.77,0,0,1,.106-3.739,2.349,2.349,0,0,1,1.088-1.448,2.006,2.006,0,0,1,1.76.208c.535.3.99.724,1.511,1.046a4.482,4.482,0,0,0,.706.349,69.615,69.615,0,0,0,.812-8.864,2.369,2.369,0,0,0-1.08-2.036" transform="translate(-220.053 -50.528)" fill="#ff644d"/>
    <path id="Trazado_798909" data-name="Trazado 798909" d="M320.545,184.336c-1.484-.08-3.7-.15-6.248-.072a7.175,7.175,0,0,1-.1,1.454,2.3,2.3,0,0,1-.254.785,2.209,2.209,0,0,1-.739.7,3.738,3.738,0,0,1-2.365.527,1.522,1.522,0,0,1-1.082-.454,1.3,1.3,0,0,1-.148-1.138c.1-.383.3-.736.417-1.115a2.822,2.822,0,0,0,.107-.5,45.12,45.12,0,0,0-5.7.9,1.533,1.533,0,0,0-1.107,1,20.338,20.338,0,0,0-.7,2.68c-.127.657-.229,1.321-.3,1.987-.055.534-.425,1.31-.155,1.806a1.129,1.129,0,0,0,.892.5c1.137.128,2.327-.612,3.387-.179a1.644,1.644,0,0,1,.586,2.637,2.41,2.41,0,0,1-1.435.667c-.532.079-1.074.059-1.61.1a2.128,2.128,0,0,0-1.1.332c-.711.52-.275,1.545-.124,2.246a26.492,26.492,0,0,0,.854,3.041q4.41.158,9.1.16,4.558,0,8.945-.152a1.531,1.531,0,0,0,.179-1.205c-.281-1.043-.523-2.1-.716-3.16-.148-.813-.04-1.592-.995-1.958a2.462,2.462,0,0,0-1.216-.071,7.612,7.612,0,0,1-1.222.137,1.319,1.319,0,0,1-1.417-1.1,2.549,2.549,0,0,1-.068-.6,3.8,3.8,0,0,1,.117-.845,2.961,2.961,0,0,1,.336-.888,1.345,1.345,0,0,1,.721-.593,2.221,2.221,0,0,1,.667-.059,20.257,20.257,0,0,0,2.477-.13.642.642,0,0,0,.314-.093.526.526,0,0,0,.173-.43,21.168,21.168,0,0,1,.936-4.963,1.542,1.542,0,0,0-1.4-1.952" transform="translate(-194.86 -118.841)" fill="#5594c9"/>
    <path id="Trazado_798910" data-name="Trazado 798910" d="M332.641,43.535c.895-.544,2.124-1.324,3.507-2.29a1.551,1.551,0,0,0,.483-1.939,2.073,2.073,0,0,1-.209-.708,1.984,1.984,0,0,1,.192-.889,3.34,3.34,0,0,1,1.478-1.583,1.361,1.361,0,0,1,1.027-.212,1.162,1.162,0,0,1,.685.764c.118.335-.01.9.566,1.136s2.436-1.949,3.594-3.2a1.393,1.393,0,0,0,.325-1.313,18.169,18.169,0,0,0-.838-2.329c-.238-.549-.5-1.09-.784-1.616-.229-.421-.348-1.18-.8-1.41a1.009,1.009,0,0,0-.911.082c-.9.48-1.407,1.626-2.407,1.842a1.469,1.469,0,0,1-1.764-1.648A2.149,2.149,0,0,1,337.51,27c.352-.327.762-.586,1.136-.888a1.9,1.9,0,0,0,.645-.8c.262-.743-.578-1.278-1.043-1.719q-.661-.624-1.369-1.2a1.367,1.367,0,0,0-1.6-.105q-1.229.786-2.447,1.588c-.542.357-1.646.615-1.512,1.444a1.048,1.048,0,0,0,.213.439,3.454,3.454,0,0,0,.844.815,1.916,1.916,0,0,1,.456.362,1.017,1.017,0,0,1,.014,1.1,2.988,2.988,0,0,1-.8.831,1.6,1.6,0,0,1-.82.424c-.535.044-.95-.432-1.287-.849a2.707,2.707,0,0,0-1.5-1.113c-.858-.152-1.847.789-2.491,1.266-.876.648-1.773,1.27-2.653,1.914a.864.864,0,0,0-.039,1.357c.734.628,1.445,1.282,2.124,1.969.52.525.833,1.154,1.722.941a2.2,2.2,0,0,0,.933-.561,6.788,6.788,0,0,1,.832-.718,1.179,1.179,0,0,1,1.6.1,2.281,2.281,0,0,1,.353.409,3.381,3.381,0,0,1,.34.682,2.635,2.635,0,0,1,.2.825,1.2,1.2,0,0,1-.232.8,2,2,0,0,1-.462.38,18.137,18.137,0,0,0-1.76,1.347.578.578,0,0,0-.185.228.472.472,0,0,0,.09.4,18.946,18.946,0,0,1,1.819,4.139,1.371,1.371,0,0,0,2.012.727" transform="translate(-208.32 -14.245)" fill="#ffe3b0"/>
    <path id="Trazado_798911" data-name="Trazado 798911" d="M264.882,114.275c-.564-1.759-1.257-4.077-2-7.329a.884.884,0,0,0-1.295-.579,3,3,0,0,1-.415.2,6,6,0,0,1-3.339.505c-1.422-.494-2.112-2.076-2.536-3.52a4.1,4.1,0,0,1-.174-2.42,1.742,1.742,0,0,1,.265-.526c.732-.977,1.941-.708,3-.6a6.026,6.026,0,0,0,2.463-.527.889.889,0,0,0,.562-.931,53.059,53.059,0,0,1-.429-7.895c.084-1.782-1.582-2.8-3.334-2.464-1.458.277-4.143.733-7.173,1.233a11.555,11.555,0,0,1,.372,2.376,3.733,3.733,0,0,1-.12,1.325,3.58,3.58,0,0,1-.914,1.361,6.017,6.017,0,0,1-3.528,1.667,2.452,2.452,0,0,1-1.861-.328,2.093,2.093,0,0,1-.638-1.735c.025-.639.206-1.262.26-1.9a4.787,4.787,0,0,0-.17-1.692c-2.563.413-4.94.792-6.621,1.059a3.186,3.186,0,0,0-2.684,2.984,105.163,105.163,0,0,0,2.242,25.657,2.481,2.481,0,0,0,2.347,1.99,57.362,57.362,0,0,0,24.369-4.9,2.475,2.475,0,0,0,1.35-3.02" transform="translate(-151.258 -56.851)" fill="#f7c934"/>
    <path id="Trazado_798912" data-name="Trazado 798912" d="M470,66.092c0,.65-.028,1.308.017,1.956a.38.38,0,0,0,.76,0c.047-.648.021-1.306.023-1.955a.4.4,0,0,0-.8,0" transform="translate(-303.177 -42.386)" fill="#5594c9"/>
    <path id="Trazado_798913" data-name="Trazado 798913" d="M463.04,61.6c-.65,0-1.308-.028-1.956.017a.38.38,0,0,0,0,.76c.648.046,1.306.02,1.956.023a.4.4,0,0,0,0-.8" transform="translate(-297.192 -39.728)" fill="#5594c9"/>
    <path id="Trazado_798914" data-name="Trazado 798914" d="M470.979,54.636c0-.65.028-1.308-.017-1.956a.38.38,0,0,0-.759,0c-.047.648-.021,1.306-.023,1.956a.4.4,0,0,0,.8,0" transform="translate(-303.294 -33.744)" fill="#5594c9"/>
    <path id="Trazado_798915" data-name="Trazado 798915" d="M474.5,62.576c.65,0,1.308.028,1.956-.017a.38.38,0,0,0,0-.759c-.648-.047-1.306-.021-1.956-.023a.4.4,0,0,0,0,.8" transform="translate(-305.834 -39.847)" fill="#5594c9"/>
    <path id="Trazado_798916" data-name="Trazado 798916" d="M413.559,27.846c0,.651-.021,1.306.011,1.956a.268.268,0,0,0,.535,0c.034-.65.015-1.305.017-1.956a.282.282,0,0,0-.563,0" transform="translate(-266.769 -17.788)" fill="#f7c934"/>
    <path id="Trazado_798917" data-name="Trazado 798917" d="M406.458,23.481c-.651,0-1.306-.021-1.956.011a.268.268,0,0,0,0,.535c.65.033,1.305.015,1.956.017a.282.282,0,0,0,0-.563" transform="translate(-260.763 -15.142)" fill="#f7c934"/>
    <path id="Trazado_798918" data-name="Trazado 798918" d="M414.3,16.379c0-.651.021-1.306-.011-1.956a.268.268,0,0,0-.535,0c-.034.65-.015,1.3-.017,1.956a.282.282,0,0,0,.563,0" transform="translate(-266.887 -9.136)" fill="#f7c934"/>
    <path id="Trazado_798919" data-name="Trazado 798919" d="M417.926,24.223c.651,0,1.306.021,1.956-.011a.268.268,0,0,0,0-.535c-.65-.033-1.305-.015-1.956-.017a.282.282,0,0,0,0,.563" transform="translate(-269.416 -15.26)" fill="#f7c934"/>
    <path id="Trazado_798920" data-name="Trazado 798920" d="M245.933,48.43c0,.656-.021,1.315.011,1.97a.27.27,0,0,0,.539,0c.034-.654.015-1.314.017-1.969a.284.284,0,0,0-.567,0" transform="translate(-158.639 -31.065)" fill="#5594c9"/>
    <path id="Trazado_798921" data-name="Trazado 798921" d="M238.784,44.035c-.656,0-1.315-.021-1.97.011a.27.27,0,0,0,0,.539c.654.034,1.314.015,1.969.017a.284.284,0,0,0,0-.567" transform="translate(-152.593 -28.401)" fill="#5594c9"/>
    <path id="Trazado_798922" data-name="Trazado 798922" d="M246.681,36.886c0-.655.021-1.315-.011-1.969a.27.27,0,0,0-.539,0c-.033.654-.015,1.314-.017,1.969a.284.284,0,0,0,.567,0" transform="translate(-158.758 -22.355)" fill="#5594c9"/>
    <path id="Trazado_798923" data-name="Trazado 798923" d="M250.329,44.783c.655,0,1.315.021,1.969-.011a.27.27,0,0,0,0-.539c-.654-.033-1.314-.015-1.969-.017a.284.284,0,0,0,0,.567" transform="translate(-161.303 -28.52)" fill="#5594c9"/>
    <path id="Trazado_798924" data-name="Trazado 798924" d="M263.128,59.447a1.472,1.472,0,1,1,1.64-1.463,1.561,1.561,0,0,1-1.64,1.463m0-2.547a1.1,1.1,0,1,0,1.262,1.085,1.185,1.185,0,0,0-1.262-1.085" transform="translate(-168.677 -36.46)" fill="#ff644d"/>
    <path id="Trazado_798925" data-name="Trazado 798925" d="M441.313,206.745a2.271,2.271,0,1,1,2.528-2.256,2.407,2.407,0,0,1-2.528,2.256m0-3.91a1.673,1.673,0,1,0,1.926,1.654,1.808,1.808,0,0,0-1.926-1.654" transform="translate(-283.046 -130.453)" fill="#5594c9"/>
    <path id="Trazado_798926" data-name="Trazado 798926" d="M201.319,180.91a2.271,2.271,0,1,1,2.528-2.257,2.407,2.407,0,0,1-2.528,2.257m0-3.91a1.673,1.673,0,1,0,1.926,1.654A1.808,1.808,0,0,0,201.319,177" transform="translate(-128.233 -113.788)" fill="#f7c934"/>
    <path id="Trazado_798927" data-name="Trazado 798927" d="M473.58,102.751a1.285,1.285,0,1,1,1.414-1.279,1.353,1.353,0,0,1-1.414,1.279m0-1.955a.688.688,0,1,0,.812.676.755.755,0,0,0-.812-.676" transform="translate(-304.578 -64.631)" fill="#f7c934"/>
    <path id="Trazado_798928" data-name="Trazado 798928" d="M213.522,143.506a1.285,1.285,0,1,1,1.415-1.279,1.353,1.353,0,0,1-1.415,1.279m0-1.955a.688.688,0,1,0,.812.676.755.755,0,0,0-.812-.676" transform="translate(-136.824 -90.921)" fill="#ff644d"/>
    <path id="Trazado_798929" data-name="Trazado 798929" d="M249.079,202.716a.281.281,0,0,1-.281-.281v-5.171a.281.281,0,0,1,.562,0v5.171a.281.281,0,0,1-.281.281" transform="translate(-160.491 -127.067)" fill="#ff644d"/>
    <path id="Trazado_798930" data-name="Trazado 798930" d="M246.965,204.829h-5.171a.281.281,0,1,1,0-.561h5.171a.281.281,0,1,1,0,.561" transform="translate(-155.792 -131.767)" fill="#ff644d"/>
    <path id="Trazado_798931" data-name="Trazado 798931" d="M171.443,88.832a.281.281,0,0,1-.042-.558l5.111-.788a.281.281,0,0,1,.086.555l-5.111.788a.251.251,0,0,1-.043,0" transform="translate(-110.411 -56.432)" fill="#f7c934"/>
    <path id="Trazado_798932" data-name="Trazado 798932" d="M170.253,81.113a.281.281,0,0,1-.042-.558l5.111-.788a.281.281,0,0,1,.086.555l-5.111.788a.25.25,0,0,1-.043,0" transform="translate(-109.644 -51.452)" fill="#f7c934"/>
    <path id="Trazado_798933" data-name="Trazado 798933" d="M296.834,9.955a.3.3,0,0,1-.151-.041l-4.47-2.6a.3.3,0,0,1,.3-.521l4.47,2.6a.3.3,0,0,1-.152.562" transform="translate(-188.401 -4.355)" fill="#5594c9"/>
    <path id="Trazado_798934" data-name="Trazado 798934" d="M300.763,3.2a.3.3,0,0,1-.151-.041l-4.47-2.6a.3.3,0,0,1,.3-.521l4.47,2.6a.3.3,0,0,1-.152.562" transform="translate(-190.934 0)" fill="#5594c9"/>
    <path id="Trazado_798935" data-name="Trazado 798935" d="M501.448,139.863a.369.369,0,0,1-.355-.27l-.831-3.006a.369.369,0,0,1,.711-.2l.831,3.007a.369.369,0,0,1-.257.454.377.377,0,0,1-.1.013" transform="translate(-322.694 -87.806)" fill="#ff644d"/>
    <path id="Trazado_798936" data-name="Trazado 798936" d="M497.553,140.752a.369.369,0,0,1-.1-.725l3.006-.831a.369.369,0,1,1,.2.711l-3.006.831a.377.377,0,0,1-.1.013" transform="translate(-320.717 -89.783)" fill="#ff644d"/>
    <path id="Trazado_798937" data-name="Trazado 798937" d="M478.74,145.423a.367.367,0,0,1-.182-.048l-5.913-3.352a.369.369,0,0,1,.364-.642l5.913,3.352a.369.369,0,0,1-.182.69" transform="translate(-304.767 -91.169)" fill="#ff644d"/>
    <path id="Trazado_798938" data-name="Trazado 798938" d="M476.434,144.376a.369.369,0,0,1-.32-.551l3.352-5.913a.369.369,0,0,1,.642.364l-3.353,5.913a.368.368,0,0,1-.321.187" transform="translate(-307.094 -88.842)" fill="#ff644d"/>
    <path id="Trazado_798939" data-name="Trazado 798939" d="M517.045,132.343a.367.367,0,0,1-.182-.048l-2.957-1.676a.369.369,0,0,1,.364-.642l2.957,1.676a.369.369,0,0,1-.182.69" transform="translate(-331.384 -83.812)" fill="#ff644d"/>
    <path id="Trazado_798940" data-name="Trazado 798940" d="M517.7,132.972a.369.369,0,0,1-.321-.551l3.352-5.913a.369.369,0,0,1,.642.364l-3.353,5.913a.369.369,0,0,1-.321.187" transform="translate(-333.711 -81.485)" fill="#ff644d"/>
  </g>
</svg>
