<svg id="Grupo_1065205" data-name="Grupo 1065205" xmlns="http://www.w3.org/2000/svg" xmlns:xlink="http://www.w3.org/1999/xlink" width="342.353" height="263.709" viewBox="0 0 342.353 263.709">
  <defs>
    <clipPath id="clip-path">
      <rect id="Rectángulo_374145" data-name="Rectángulo 374145" width="342.353" height="263.709" fill="none"/>
    </clipPath>
  </defs>
  <g id="Grupo_1065205-2" data-name="Grupo 1065205" clip-path="url(#clip-path)">
    <path id="Trazado_800087" data-name="Trazado 800087" d="M303.215,189.1c5.776,13.974-1.343,29.943-13.267,32.312-15.03,2.986-20.65,1.41-37.362,1.41-27.962,0-27.774-17.762-43.889-12.8-15.589,4.8-22.6-31.771,5.456-35.885,5.346-.784,1.819-24.686,13.25-27.658,21.2-5.511,15.6-2.468,25.785-2.468,18.368,0,22.243,18.281,31.119,28.03,4.635,5.093,16.467,11.153,18.908,17.059" transform="translate(37.096 27.23)" fill="#8edee0"/>
    <path id="Trazado_800088" data-name="Trazado 800088" d="M216.962,168.85c0,15.03,4.11,35.389-19.808,40.143-30.147,5.99-48.224,27.5-81.748,27.5-56.087,0-55.71-35.629-88.036-25.676-31.269,9.629-45.339-63.728,10.944-71.981,10.725-1.572,3.648-49.516,26.578-55.477,42.526-11.053,31.3-4.951,51.723-4.951,36.843,0,69.531,27.434,87.332,46.99,9.3,10.215,13.015,30.634,13.015,43.452" transform="translate(0 14.592)" fill="#8edee0"/>
    <path id="Trazado_800089" data-name="Trazado 800089" d="M281.622,249.056H126.755a6,6,0,0,1-5.995-5.995V25.683a6,6,0,0,1,5.995-5.995H281.622a6,6,0,0,1,5.995,5.995V243.061a6,6,0,0,1-5.995,5.995" transform="translate(22.967 3.744)" fill="#006a76"/>
    <path id="Trazado_800090" data-name="Trazado 800090" d="M279.391,247.306H128.372a6,6,0,0,1-5.995-5.995V27.3a6,6,0,0,1,5.995-5.995H279.391a6,6,0,0,1,5.995,5.995V241.311a6,6,0,0,1-5.995,5.995" transform="translate(23.274 4.052)" fill="#ff8182"/>
    <path id="Trazado_800091" data-name="Trazado 800091" d="M128.653,223.871s49.964-5.949,60.076-5.949,65.429-1.784,73.161-5.947,16.655-15.465,16.655-15.465l-4.164-57.1Z" transform="translate(24.468 26.513)" fill="#f85d5e"/>
    <path id="Trazado_800092" data-name="Trazado 800092" d="M279.393,216.406a.95.95,0,0,1-.55.875c-3.979,1.85-28.561,12.822-51.785,12.822-25.85,0-90.364,11.983-99.655,13.734a.946.946,0,0,1-1.121-.933V27.654a.949.949,0,0,1,.95-.95H275.852a.95.95,0,0,1,.95.937Z" transform="translate(24.017 5.079)" fill="#fff"/>
    <path id="Trazado_800093" data-name="Trazado 800093" d="M279.061,189.028s-17.947,9.279-24.374-10c-1.345-4.035-128.746,36.44-128.746,36.44s78.415-13.438,92.449-13.352c51.772.32,60.671-13.086,60.671-13.086" transform="translate(23.952 33.994)" fill="#dae3ed"/>
    <path id="Trazado_800094" data-name="Trazado 800094" d="M161.854,31.118V33.1h69.038V21.595Z" transform="translate(30.782 4.107)" fill="#1b3a47"/>
    <path id="Trazado_800095" data-name="Trazado 800095" d="M230.892,24.481A11.261,11.261,0,0,0,219.63,13.219H209.078c.007-.164.025-.324.025-.489a12.73,12.73,0,1,0-25.46,0c0,.165.018.325.025.489H173.116a11.261,11.261,0,0,0-11.262,11.262V35.225L230.892,25.7Z" transform="translate(30.782)" fill="#2d4f6d"/>
    <path id="Trazado_800096" data-name="Trazado 800096" d="M201.647,11.77a9.3,9.3,0,1,1-9.3-9.3,9.3,9.3,0,0,1,9.3,9.3" transform="translate(34.812 0.469)" fill="#3a607c"/>
    <path id="Trazado_800097" data-name="Trazado 800097" d="M192.4,21.488a9.66,9.66,0,1,1,9.66-9.66,9.671,9.671,0,0,1-9.66,9.66m0-18.606a8.946,8.946,0,1,0,8.947,8.947A8.957,8.957,0,0,0,192.4,2.882" transform="translate(34.755 0.412)" fill="#5f7a8e"/>
    <path id="Trazado_800098" data-name="Trazado 800098" d="M163.765,27.526a.357.357,0,0,1-.356-.332c-.859-12.5,5.05-14.342,18.738-15.563a.357.357,0,0,1,.063.712c-13.493,1.2-18.908,2.879-18.09,14.8a.355.355,0,0,1-.332.38h-.024" transform="translate(31.062 2.212)" fill="#5f7a8e"/>
    <path id="Trazado_800099" data-name="Trazado 800099" d="M162.2,53.863c-.971,0-.971,0-.989-.784l.069-9.072h-.189l-.067.307L159.3,47.945l-.408.786h-.682l-.427-.768-1.756-3.649-.051-.307H155.8l.051,9.072c0,.784,0,.784-.971.784h-.069V41.585h.085c.974,0,.974,0,1.347.784l2.166,4.671h.256l2.541-5.456h.085c.974,0,.974,0,.974.784V53.863Z" transform="translate(29.443 7.909)" fill="#51bcbc"/>
    <path id="Trazado_800100" data-name="Trazado 800100" d="M163.242,53.863V41.585h4.486v.9H164.3l.067.427v3.392l-.067.427h3.187v.971H164.3l.067.427v4.331l-.067.427h3.6v.971Z" transform="translate(31.046 7.909)" fill="#51bcbc"/>
    <path id="Trazado_800101" data-name="Trazado 800101" d="M173.973,53.863c-.971,0-.971,0-1.263-.784l-2.762-8.1-.085-.461h-.12v8.561c0,.784,0,.784-.971.784H168.7V41.585h.087c.971,0,.953,0,1.244.784l2.764,8.288.085.459H173V41.585h.067c.972,0,.972,0,.972.784V53.863Z" transform="translate(32.085 7.909)" fill="#51bcbc"/>
    <path id="Trazado_800102" data-name="Trazado 800102" d="M176.407,53.863V42.916l.069-.427h-1.91v-.9h4.826v.9h-1.927l.068.427V53.079c0,.784-.017.784-.989.784Z" transform="translate(33.2 7.909)" fill="#51bcbc"/>
    <path id="Trazado_800103" data-name="Trazado 800103" d="M185.819,53.863c-1.022,0-1.022-.017-1.194-.784l-.749-3.393h-2.593l-.921,4.178h-.085c-.733,0-.938,0-.938-.273,0-.119.033-.289,2.695-12.005h1.091l2.779,12.278ZM183.6,48.321l-.853-4.554h-.324l-.836,4.554-.154.425h2.32Z" transform="translate(34.108 7.909)" fill="#51bcbc"/>
    <path id="Trazado_800104" data-name="Trazado 800104" d="M186.291,53.863V41.585h.137c.972,0,.989,0,.989.784v10.1l-.068.427h2.2c.972,0,.989,0,.989.784v.187Z" transform="translate(35.43 7.909)" fill="#51bcbc"/>
    <path id="Trazado_800105" data-name="Trazado 800105" d="M199.357,53.863c-.971,0-.989,0-.989-.784V48.133l.069-.427h-3.259l.069.427v4.945c0,.784-.018.784-.989.784h-.069V41.585h.069c.971,0,.989,0,.989.784v3.938l-.069.427h3.259l-.069-.427V41.585h.069c.971,0,.989,0,.989.784V53.863Z" transform="translate(36.932 7.909)" fill="#51bcbc"/>
    <path id="Trazado_800106" data-name="Trazado 800106" d="M200.74,53.863V41.585h4.486v.9H201.8l.068.427v3.392l-.068.427h3.189v.971H201.8l.068.427v4.331l-.068.427h3.6v.971Z" transform="translate(38.178 7.909)" fill="#51bcbc"/>
    <path id="Trazado_800107" data-name="Trazado 800107" d="M212.022,53.863c-1.022,0-1.022-.017-1.194-.784l-.75-3.393h-2.592l-.921,4.178h-.085c-.733,0-.938,0-.938-.273,0-.119.033-.289,2.695-12.005h1.091l2.779,12.278Zm-2.216-5.542-.853-4.554h-.324l-.836,4.554-.154.425h2.32Z" transform="translate(39.091 7.909)" fill="#51bcbc"/>
    <path id="Trazado_800108" data-name="Trazado 800108" d="M212.494,53.863V41.585h.137c.972,0,.989,0,.989.784v10.1l-.068.427h2.2c.972,0,.989,0,.989.784v.187Z" transform="translate(40.413 7.909)" fill="#51bcbc"/>
    <path id="Trazado_800109" data-name="Trazado 800109" d="M218.794,53.863V42.916l.069-.427h-1.91v-.9h4.826v.9h-1.927l.068.427V53.079c0,.784-.017.784-.989.784Z" transform="translate(41.261 7.909)" fill="#51bcbc"/>
    <path id="Trazado_800110" data-name="Trazado 800110" d="M227.61,53.863c-.971,0-.989,0-.989-.784V48.133l.069-.427h-3.259l.069.427v4.945c0,.784-.018.784-.989.784h-.069V41.585h.069c.971,0,.989,0,.989.784v3.938l-.069.427h3.259l-.069-.427V41.585h.069c.971,0,.989,0,.989.784V53.863Z" transform="translate(42.305 7.909)" fill="#51bcbc"/>
    <rect id="Rectángulo_374129" data-name="Rectángulo 374129" width="92.587" height="2.38" transform="translate(194.8 73.884)" fill="#1f507b"/>
    <rect id="Rectángulo_374130" data-name="Rectángulo 374130" width="92.587" height="2.38" transform="translate(194.8 79.272)" fill="#1f507b"/>
    <rect id="Rectángulo_374131" data-name="Rectángulo 374131" width="92.587" height="2.38" transform="translate(194.8 84.66)" fill="#1f507b"/>
    <rect id="Rectángulo_374132" data-name="Rectángulo 374132" width="54.896" height="2.38" transform="translate(194.8 90.047)" fill="#1f507b"/>
    <rect id="Rectángulo_374133" data-name="Rectángulo 374133" width="92.587" height="2.38" transform="translate(194.8 110.068)" fill="#1f507b"/>
    <rect id="Rectángulo_374134" data-name="Rectángulo 374134" width="92.587" height="2.38" transform="translate(194.8 115.456)" fill="#1f507b"/>
    <rect id="Rectángulo_374135" data-name="Rectángulo 374135" width="92.587" height="2.38" transform="translate(194.8 120.843)" fill="#1f507b"/>
    <rect id="Rectángulo_374136" data-name="Rectángulo 374136" width="83.386" height="2.38" transform="translate(194.799 126.231)" fill="#1f507b"/>
    <rect id="Rectángulo_374137" data-name="Rectángulo 374137" width="92.587" height="2.38" transform="translate(194.8 147.848)" fill="#1f507b"/>
    <rect id="Rectángulo_374138" data-name="Rectángulo 374138" width="92.587" height="2.38" transform="translate(194.8 153.235)" fill="#1f507b"/>
    <rect id="Rectángulo_374139" data-name="Rectángulo 374139" width="92.587" height="2.38" transform="translate(194.8 158.623)" fill="#1f507b"/>
    <rect id="Rectángulo_374140" data-name="Rectángulo 374140" width="92.587" height="2.38" transform="translate(194.8 164.011)" fill="#1f507b"/>
    <rect id="Rectángulo_374141" data-name="Rectángulo 374141" width="92.587" height="2.38" transform="translate(194.8 184.031)" fill="#1f507b"/>
    <rect id="Rectángulo_374142" data-name="Rectángulo 374142" width="92.587" height="2.38" transform="translate(194.8 189.419)" fill="#1f507b"/>
    <rect id="Rectángulo_374143" data-name="Rectángulo 374143" width="92.587" height="2.38" transform="translate(194.8 194.806)" fill="#1f507b"/>
    <rect id="Rectángulo_374144" data-name="Rectángulo 374144" width="74.12" height="2.38" transform="translate(194.8 200.195)" fill="#1f507b"/>
    <path id="Trazado_800111" data-name="Trazado 800111" d="M158.359,80.743H140.345a.6.6,0,0,1-.6-.6V62.136a.6.6,0,0,1,.6-.6h14.677a.6.6,0,0,1,0,1.19H140.94V79.553h16.823V71.735a.6.6,0,0,1,1.19,0v8.413a.6.6,0,0,1-.6.6" transform="translate(26.578 11.704)" fill="#1f507b"/>
    <path id="Trazado_800112" data-name="Trazado 800112" d="M149.75,77.626a1.781,1.781,0,0,1-1.249-.509c-2.747-2.69-6.857-6.665-7.387-7.086a1.752,1.752,0,0,1-.463-2.453,1.822,1.822,0,0,1,2.509-.471c.409.273,2.6,2.349,6.529,6.178l10.55-11.341a1.785,1.785,0,0,1,2.615,2.432l-11.8,12.681a1.783,1.783,0,0,1-1.266.569h-.042" transform="translate(26.691 11.672)" fill="#ff8182"/>
    <path id="Trazado_800113" data-name="Trazado 800113" d="M158.359,111.592H140.345a.6.6,0,0,1-.6-.6V92.985a.6.6,0,0,1,.6-.6h14.677a.6.6,0,0,1,0,1.19H140.94V110.4h16.823v-7.817a.6.6,0,1,1,1.19,0V111a.6.6,0,0,1-.6.6" transform="translate(26.578 17.571)" fill="#1f507b"/>
    <path id="Trazado_800114" data-name="Trazado 800114" d="M149.75,108.475a1.781,1.781,0,0,1-1.249-.509c-2.747-2.69-6.857-6.666-7.387-7.088a1.751,1.751,0,0,1-.463-2.452,1.822,1.822,0,0,1,2.509-.472c.409.274,2.6,2.349,6.529,6.181l10.55-11.344a1.785,1.785,0,0,1,2.615,2.432l-11.8,12.683a1.789,1.789,0,0,1-1.266.57h-.042" transform="translate(26.691 17.539)" fill="#ff8182"/>
    <path id="Trazado_800115" data-name="Trazado 800115" d="M158.359,142.664H140.345a.6.6,0,0,1-.6-.6V124.057a.6.6,0,0,1,.6-.6h14.677a.6.6,0,0,1,0,1.19H140.94v16.822h16.823v-7.818a.6.6,0,0,1,1.19,0v8.413a.6.6,0,0,1-.6.6" transform="translate(26.578 23.481)" fill="#1f507b"/>
    <path id="Trazado_800116" data-name="Trazado 800116" d="M149.75,139.546a1.781,1.781,0,0,1-1.249-.509c-2.747-2.69-6.857-6.665-7.387-7.086a1.752,1.752,0,0,1-.463-2.453,1.821,1.821,0,0,1,2.509-.471c.409.273,2.6,2.349,6.529,6.178l10.55-11.341a1.785,1.785,0,1,1,2.615,2.432l-11.8,12.681a1.783,1.783,0,0,1-1.266.569h-.042" transform="translate(26.691 23.448)" fill="#ff8182"/>
    <path id="Trazado_800117" data-name="Trazado 800117" d="M158.359,173.738H140.345a.6.6,0,0,1-.6-.6V155.129a.6.6,0,0,1,.6-.6h14.677a.6.6,0,0,1,0,1.19H140.94v16.823h16.823v-7.818a.6.6,0,0,1,1.19,0v8.413a.6.6,0,0,1-.6.6" transform="translate(26.578 29.39)" fill="#1f507b"/>
    <path id="Trazado_800118" data-name="Trazado 800118" d="M149.75,170.619a1.781,1.781,0,0,1-1.249-.509c-2.748-2.69-6.858-6.666-7.387-7.088a1.751,1.751,0,0,1-.462-2.453,1.818,1.818,0,0,1,2.509-.47c.409.274,2.6,2.351,6.527,6.178l10.551-11.342a1.785,1.785,0,0,1,2.615,2.432l-11.8,12.683a1.794,1.794,0,0,1-1.266.57Z" transform="translate(26.691 29.358)" fill="#ff8182"/>
    <path id="Trazado_800119" data-name="Trazado 800119" d="M126.918,83.549h0a1.072,1.072,0,0,1,.777-1.3l5.664-1.429a1.073,1.073,0,1,1,.525,2.08l-5.664,1.428a1.073,1.073,0,0,1-1.3-.777" transform="translate(24.132 15.364)" fill="#ffaa7f"/>
    <path id="Trazado_800120" data-name="Trazado 800120" d="M67.756,204.365h43.665l-10.413-80.949-24.856.672Z" transform="translate(12.886 23.472)" fill="#bac5ce"/>
    <path id="Trazado_800121" data-name="Trazado 800121" d="M99.387,134.588h0a.748.748,0,0,1,.952.509l.835,3.979a.817.817,0,0,1-.653.909.748.748,0,0,1-.952-.511l-.837-3.979a.815.815,0,0,1,.655-.908" transform="translate(18.775 25.591)" fill="#ffaa7f"/>
    <path id="Trazado_800122" data-name="Trazado 800122" d="M102.527,143.178l-.938-6.339,2.765-.647a15.944,15.944,0,0,0-.5,2.311,7.424,7.424,0,0,0,.074,1.926l-.351,3.5a.971.971,0,0,1-1.052-.75" transform="translate(19.321 25.902)" fill="#ff986b"/>
    <path id="Trazado_800123" data-name="Trazado 800123" d="M103.893,143.316l-1.827-6s2.121-2.376,2.42-1.83c.209.382-.058,1.782-.027,3.094a7.232,7.232,0,0,0,.389,1.869l.224,3.461a1.021,1.021,0,0,1-1.178-.592" transform="translate(19.411 25.751)" fill="#ffaa7f"/>
    <path id="Trazado_800124" data-name="Trazado 800124" d="M105.416,137.82c.349-.959-.894-2.027-1.6-3.549-.386-.833-1.465-3.2-1.465-3.2l-.03-3.9-3.7,2.77s-1.295,3.771-.883,5.747,1.531,1.961,1.657,3.354c.039.436,1.534-1.9,1.534-1.9l1.995,1.613s2.261-.3,2.491-.935" transform="translate(18.573 24.186)" fill="#ffaa7f"/>
    <path id="Trazado_800125" data-name="Trazado 800125" d="M100.407,135.929l.033-2.376,2,3.4.946-.3-.759,1.322,1.473,4.806-1.781-5.094Z" transform="translate(19.096 25.4)" fill="#ff986b"/>
    <path id="Trazado_800126" data-name="Trazado 800126" d="M63.412,210.539c-1.823,5.5-3.653,12.221,1.865,14.049,4.924,1.631,8.059-4.654,9.882-10.158s-.036-8.7-3.28-9.777-6.644.382-8.467,5.887" transform="translate(11.714 38.859)" fill="#501153"/>
    <path id="Trazado_800127" data-name="Trazado 800127" d="M66.146,216.653l.006,0a16,16,0,0,0,2.253.5.316.316,0,0,0,.362-.263.32.32,0,0,0-.263-.362,15.339,15.339,0,0,1-2.165-.476.316.316,0,0,0-.193.6" transform="translate(12.539 41.087)" fill="#547c99"/>
    <path id="Trazado_800128" data-name="Trazado 800128" d="M108.874,211.26s-6.207-5.261-5.093-11.918c.288-1.726-6.753,1.825-6.753,1.825a35.943,35.943,0,0,1,1.819,5.509,9.491,9.491,0,0,1-.359,5.211s5.146,2.77,6.772,1.595a35.082,35.082,0,0,1,3.615-2.221" transform="translate(18.453 37.822)" fill="#ffaa7f"/>
    <path id="Trazado_800129" data-name="Trazado 800129" d="M108.3,208.545s9.825,4.61,13.806,8.131c.5.442-.054,1.978-.054,1.978l-23.688-.874.259-2.166s-.843-1.813-.916-2.015c-.483-1.34.711-4.3.711-4.3a4.389,4.389,0,0,0,4.98,1.854,9.628,9.628,0,0,0,4.9-2.614" transform="translate(18.561 39.662)" fill="#501153"/>
    <path id="Trazado_800130" data-name="Trazado 800130" d="M109.241,212.269a.262.262,0,0,0,.023-.1,13.812,13.812,0,0,1,.2-2.134.263.263,0,1,0-.519-.088,14.384,14.384,0,0,0-.2,2.213.264.264,0,0,0,.5.111" transform="translate(20.68 39.887)" fill="#547c99"/>
    <path id="Trazado_800131" data-name="Trazado 800131" d="M111.685,213.057a.251.251,0,0,0,.02-.133,9.99,9.99,0,0,1-.03-1.925.263.263,0,0,0-.525-.045,10.454,10.454,0,0,0,.032,2.025.263.263,0,0,0,.5.079" transform="translate(21.133 40.075)" fill="#547c99"/>
    <path id="Trazado_800132" data-name="Trazado 800132" d="M94.709,157.207c0-2.685-2.674-27.84-2.674-27.84l-4.5,1.811c.277,2.842,3.231,33.3,3.018,36.927-.224,3.8.8,54.687.8,54.687a15.543,15.543,0,0,0,3.813,1.6c.086-10.013.544-57.042.544-57.042a39.681,39.681,0,0,1-1-10.146" transform="translate(16.648 24.604)" fill="#113e51"/>
    <path id="Trazado_800133" data-name="Trazado 800133" d="M74.172,163.93c.6-2.554,4.206-38.462,6.008-39.513s24.642-1.8,27.195-2.4a4.105,4.105,0,0,0,1.826-1.119c-1.222-3.793-2.6-6.648-3.1-7.027-.894-.67-30.468-.425-30.468-.425a32.956,32.956,0,0,0-6.773,19.125c-.448,12.077,1.631,29.852,1.183,31.865S65.282,186.889,64,194.624c-2.216,13.369-1.273,29.4-1.273,29.4a34.747,34.747,0,0,0,4.63,2.611c-1.72-35.151,6.22-60.177,6.815-62.7" transform="translate(11.892 21.567)" fill="#113e51"/>
    <path id="Trazado_800134" data-name="Trazado 800134" d="M107.55,166.812c.064-2.637,4.888-15.172,3-37.33a45.652,45.652,0,0,0-2.085-9.787,4.085,4.085,0,0,1-1.825,1.119c-2.554.6-25.39,1.352-27.193,2.4s-5.408,36.959-6.009,39.513c-.6,2.527-8.534,27.553-6.815,62.7,2.491,1.159,5.551,2.177,8.05,1.742,5.144-.9,6.577-2.7,6.577-2.7s-.985-46.486-1.209-52.524,8.667-38.231,8.667-38.231l2.829-.943s.008.1.023.234l4.376-1.445s2.8,24.788,2.8,27.473a39.636,39.636,0,0,0,1,10.146s-.458,47.03-.544,57.042a16.933,16.933,0,0,0,4.6.651c4.92,0,9.881-1.332,10.217-3.606,3.019-20.5-6.541-52.888-6.454-56.466" transform="translate(12.625 22.764)" fill="#1f507b"/>
    <path id="Trazado_800135" data-name="Trazado 800135" d="M66.966,175.961a.435.435,0,0,1-.068-.006.357.357,0,0,1-.283-.418c.239-1.237.565-2.7.91-4.244.887-3.972,1.894-8.473,1.894-11.262a18.538,18.538,0,0,0-.233-2.5,19.117,19.117,0,0,1-.24-2.622v-.132c.262-18.779,1.182-23.725,1.92-27.7a42.545,42.545,0,0,0,.757-5.612.353.353,0,0,1,.38-.332.357.357,0,0,1,.333.38,42.973,42.973,0,0,1-.768,5.7c-.734,3.948-1.647,8.862-1.908,27.579v.123a18.59,18.59,0,0,0,.234,2.523,19.059,19.059,0,0,1,.239,2.6c0,2.867-1.014,7.41-1.909,11.417-.345,1.54-.67,3-.907,4.223a.356.356,0,0,1-.35.289" transform="translate(12.668 23.037)" fill="#547c99"/>
    <path id="Trazado_800136" data-name="Trazado 800136" d="M69.99,134.693a.357.357,0,0,1-.215-.643c3.98-3,7.7-8.828,8.476-13.272a.352.352,0,0,1,.413-.292.358.358,0,0,1,.29.413c-.814,4.679-4.575,10.577-8.749,13.722a.365.365,0,0,1-.215.071" transform="translate(13.243 22.913)" fill="#547c99"/>
    <path id="Trazado_800137" data-name="Trazado 800137" d="M103.981,132.067a.358.358,0,0,1-.312-.182c-1.761-3.116-3.926-7.987-4.23-11.459a.357.357,0,0,1,.712-.062c.293,3.358,2.414,8.116,4.141,11.17a.358.358,0,0,1-.311.533" transform="translate(18.912 22.829)" fill="#547c99"/>
    <path id="Trazado_800138" data-name="Trazado 800138" d="M77.623,70.72c-1.013,6.548,3,12.6,8.962,13.524S98.2,80.6,99.211,74.055s-3-12.6-8.963-13.524S78.635,64.172,77.623,70.72" transform="translate(14.733 11.49)" fill="#501153"/>
    <path id="Trazado_800139" data-name="Trazado 800139" d="M90.609,63.141A5.6,5.6,0,0,1,94.5,67.124c.356,1.522.6,6.78-.668,7.984s1.29-.8,2-2.4c.985-2.228.769-7.551-1.164-10.993a6.492,6.492,0,0,0-3-2.889c-3.541-1.747-1.062,4.312-1.062,4.312" transform="translate(17.072 11.128)" fill="#66226b"/>
    <path id="Trazado_800140" data-name="Trazado 800140" d="M80.027,63.662C78.644,88.273,57.1,78.574,61.689,91.868c.137.4.28.774.4,1.128,2.027,5.877-9.732,4.641-6.971,12.647,1.635,4.742,8.29,3.415,9.7,7.509.348,1.008.393,2.146.772,3.246a5.914,5.914,0,0,0,7.3,3.423c1.491-.514,2.858-1.51,4.487-2.073,3.4-1.172,3.692,1.671,10.809-.784,14.9-5.138,22.411-16.039,17.074-31.51C101.62,74.893,92.377,65.626,81.9,64.058Z" transform="translate(10.403 12.108)" fill="#501153"/>
    <path id="Trazado_800141" data-name="Trazado 800141" d="M76.053,84.662c2.992-.868,9.051-7.184,9.892-9.575.018-.049.029-.1.044-.149,1.343,5.962,5.666,6.8,7.155,6.826a5.624,5.624,0,0,0,2.689-.481,52.728,52.728,0,0,0,8.757,4.7,31.145,31.145,0,0,0-4.545,2.507c-1.8,1.289-30.412-2.3-30.412-2.3s3.428-.661,6.42-1.528" transform="translate(13.243 14.252)" fill="#ffaa7f"/>
    <path id="Trazado_800142" data-name="Trazado 800142" d="M90.606,82.592c-1.489-.024-5.813-.864-7.155-6.826a8.682,8.682,0,0,0-.473-5.184,23.934,23.934,0,0,1,7.032,7.846,11.6,11.6,0,0,0,3.285,3.684,5.612,5.612,0,0,1-2.689.481" transform="translate(15.781 13.424)" fill="#ff986b"/>
    <path id="Trazado_800143" data-name="Trazado 800143" d="M79.2,73.934c-.083-.123-.168-.246-.25-.369-6.2-9.366,2.145-14.4,6.511-15.4,5.487-1.249,9.9,6.234,11.352,12.606s-.845,10.459-1.777,10.841c-4.7,1.926-9.024-.2-12.427-3.554.109.4.2.837-.043.959-.608.307-3-.506-4.68-2.67A1.46,1.46,0,0,1,79.2,73.934" transform="translate(14.594 11.037)" fill="#ffaa7f"/>
    <path id="Trazado_800144" data-name="Trazado 800144" d="M75.725,69.642a3.854,3.854,0,0,0,2.6,3.1c.928.369,3.089,3.342,4.267,3.373,1.109.027-2.507-2.123,2.374-3.048,4.13-.783,8.791-9.173,8.224-12.831s-5.964-3.96-9.956-2.641a10.86,10.86,0,0,0-7.508,12.049" transform="translate(14.38 10.817)" fill="#6b2572"/>
    <path id="Trazado_800145" data-name="Trazado 800145" d="M79.486,66.322C81.734,80.014,59.358,79.355,62.1,87.311c.282.82.684,1.642.965,2.458,2.126,6.162-8.549,6.437-6.576,12.16.832,2.41,3.246,4.6,5.716,3.936,4.33-1.163,4.5-3.621,4.741-4.977-.177.014.258-.38-.154.1a8.054,8.054,0,0,1-2.38,2.03,1.892,1.892,0,0,1-2.864-2.332c1.162-3.311,6.175-4.718,4.169-10.536-.119-.343-.246-.682-.363-1.02C62.5,80.833,86.8,75.953,84.551,69.425c-.559-1.623-2.005-4.687-3.7-4.1a2.714,2.714,0,0,0-1.178.943Z" transform="translate(10.697 12.41)" fill="#6b2572"/>
    <path id="Trazado_800146" data-name="Trazado 800146" d="M75.69,73.677c-4.269,3.348-13.442,8.008-10.539,15.407,1.184,3.018,3.79,1.877,4.385,3.65s-1.854,6.907-1.172,8.939c.458,1.366,1.492,2.379,3.835,2.565-.75-1.24-2.514-.888-2.975-2.263-1.022-3.045,2.515-7.057,1.583-9.834-.726-2.164-3.759-1.782-4.4-3.694-1.859-5.536,3.741-9.664,11.434-16.6a6.86,6.86,0,0,0-2.547,1.65Z" transform="translate(12.285 13.664)" fill="#6b2572"/>
    <path id="Trazado_800147" data-name="Trazado 800147" d="M81.857,71.325a6.083,6.083,0,0,0-2.93,1.75c-1.078,1.153-1.69,2.585-2.823,3.8-2.458,2.629-5.827,1.76-7.708,3.772a2.228,2.228,0,0,0-.624,1.589,7.582,7.582,0,0,1,.519-.624c2.64-2.823,5.6-.687,7.887-3.137,1.479-1.583,1.9-3.874,3.308-5.378a3.41,3.41,0,0,1,3.4-1.438Z" transform="translate(12.889 13.565)" fill="#6b2572"/>
    <path id="Trazado_800148" data-name="Trazado 800148" d="M66.787,123.323h0a4.369,4.369,0,0,0,4.652-3.687c1.194-5.7,2.074-9.57,3.268-15.274.5-2.366-1.572-4.423-4.267-4.851s-4.806.965-5.069,3.368c-.632,5.793-1.233,9.7-1.866,15.5a4.37,4.37,0,0,0,3.281,4.948" transform="translate(12.072 18.911)" fill="#ffaa7f"/>
    <path id="Trazado_800149" data-name="Trazado 800149" d="M66.927,138.118l.256-.008c1.21-.037,1.731-2.395,1.941-4.36.722-6.725,1.2-9.669,1.925-16.394.211-1.966-.969-3.185-3.266-3.115l-.487.015c-2.3.07-4.054,1.711-3.922,3.667.449,6.689,1.2,8.134,1.652,14.821.131,1.955.69,5.409,1.9,5.373" transform="translate(12.051 21.726)" fill="#ffaa7f"/>
    <path id="Trazado_800150" data-name="Trazado 800150" d="M67.348,137.624h0a.748.748,0,0,0-.952.509l-.836,3.979a.817.817,0,0,0,.653.909.748.748,0,0,0,.952-.511L68,138.533a.816.816,0,0,0-.655-.908" transform="translate(12.466 26.169)" fill="#ffaa7f"/>
    <path id="Trazado_800151" data-name="Trazado 800151" d="M64.254,146.215l.938-6.339-2.765-.647a15.993,15.993,0,0,1,.5,2.311,7.436,7.436,0,0,1-.074,1.927l.351,3.5a.971.971,0,0,0,1.052-.75" transform="translate(11.873 26.479)" fill="#ff986b"/>
    <path id="Trazado_800152" data-name="Trazado 800152" d="M62.926,146.353l1.827-6s-2.121-2.376-2.42-1.831c-.209.382.058,1.782.027,3.094a7.232,7.232,0,0,1-.389,1.869l-.224,3.46a1.019,1.019,0,0,0,1.178-.59" transform="translate(11.744 26.329)" fill="#ffaa7f"/>
    <path id="Trazado_800153" data-name="Trazado 800153" d="M62.173,140.856c-.349-.959.894-2.027,1.6-3.549.386-.833,1.465-3.2,1.465-3.2l.029-3.9,3.7,2.77s1.295,3.771.882,5.747-1.529,1.961-1.656,3.354c-.039.436-1.534-1.9-1.534-1.9l-1.995,1.613s-2.261-.3-2.491-.935" transform="translate(11.813 24.764)" fill="#ffaa7f"/>
    <path id="Trazado_800154" data-name="Trazado 800154" d="M66.523,138.966l-.033-2.376-2,3.4-.946-.3.759,1.322-1.473,4.806,1.781-5.094Z" transform="translate(11.949 25.977)" fill="#ff986b"/>
    <path id="Trazado_800155" data-name="Trazado 800155" d="M76.352,96.967l-.075,6.986-1.418.436c.227.374,1.153,2.111,1.153,5.706,0,4.1-8.261,10.55-6.546,15.7.224.67,2.51.494,5.809.025a55.793,55.793,0,0,0,3.78-17.883c.22-3.236-2.7-10.968-2.7-10.968" transform="translate(13.167 18.442)" fill="#ffac1a"/>
    <path id="Trazado_800156" data-name="Trazado 800156" d="M103.655,83.292a37.076,37.076,0,0,1-11.327,3.133c-6.507.724-17.111-1.928-18.316-2.41a6.994,6.994,0,0,0-4.58,1.446c-2.169,1.688-4.882,19.429-4.882,20.633s11.148.816,11.148.816.019.027.051.079l1.418-.436.075-6.986s2.924,7.731,2.7,10.968a55.805,55.805,0,0,1-3.779,17.883c3.661-.52,19.611-.06,24.4-.567,9.26-.982,8.447-2.759,8.447-2.759s-5.186-10.843-6.805-14.565c-.887-2.039,1.537-6.536,1.537-6.536s.194.108.506.268a55.587,55.587,0,0,0,.1-13.117c-.319-3.515,2.107-4.007,3.392-4.026-.338-2.729-4.091-3.822-4.091-3.822" transform="translate(12.276 15.841)" fill="#ff8182"/>
    <path id="Trazado_800157" data-name="Trazado 800157" d="M76.382,99.177h-.017a.359.359,0,0,1-.34-.374c.035-.739.057-1.485.057-2.233,0-4.059-1.735-9.654-4.225-11.193a2.384,2.384,0,0,0-2.485-.1.357.357,0,1,1-.32-.639,3.126,3.126,0,0,1,3.18.132c2.978,1.84,4.563,8.035,4.563,11.8,0,.757-.023,1.516-.056,2.266a.358.358,0,0,1-.357.34" transform="translate(13.095 16.026)" fill="#ffcc6d"/>
    <path id="Trazado_800158" data-name="Trazado 800158" d="M93.783,104.6c-.568,0-1.2-.032-1.865-.1a.358.358,0,0,1-.32-.39.369.369,0,0,1,.39-.321c.645.063,1.25.1,1.795.1,4.191,0,4.986-1.8,4.986-5.134,0-1.02-.081-2.19-.168-3.429-.04-.584-.082-1.191-.119-1.82a.357.357,0,1,1,.713-.042c.037.625.079,1.229.119,1.811.087,1.252.169,2.434.169,3.479,0,3.511-.969,5.849-5.7,5.849" transform="translate(17.42 17.712)" fill="#ffcc6d"/>
    <path id="Trazado_800159" data-name="Trazado 800159" d="M82.839,79.919a36.2,36.2,0,0,1,5.338,13.969C89.406,102,84.35,216,84.35,216s-22.974,2.307-24.2-.152,4.671-42.536,5.655-48.192,3.935-36.881,4.673-39.587c2.213-8.113,7.159-12.973,7.159-15.187S75.785,107,75.785,107L72.2,85.036Z" transform="translate(11.407 15.199)" fill="#eff3f4"/>
    <path id="Trazado_800160" data-name="Trazado 800160" d="M77.259,110.043s-3.523,6.9-5.011,9.955c-3.191,6.55-9.573,63.146-9.573,63.146S74.1,123.692,75.44,121.509s4.535-11.924,4.535-11.924L76.6,97.233s-.319,3.955-.319,4.626-.175,2.479-.175,2.479Z" transform="translate(11.92 18.492)" fill="#d9dbdd"/>
    <path id="Trazado_800161" data-name="Trazado 800161" d="M92.074,79.954a62.618,62.618,0,0,0-2.049,13.753c-.371,8.15,8.431,122.618,8.431,122.618s17.418.487,18.122-2.017-5.734-42.273-6.747-47.878-4.893-36.658-5.562-39.327c-2.007-8.009-5.711-12.659-5.84-14.868s.682-4.46.93-5.944c.908-5.451,1.184-22.072,1.184-22.072Z" transform="translate(17.119 15.206)" fill="#eff3f4"/>
    <path id="Trazado_800162" data-name="Trazado 800162" d="M97.329,109.745s4.264,9.447,5.472,12.434c2.59,6.408,8.912,59.945,8.912,59.945s-11.395-58.882-12.452-61.006S95.426,109.4,95.426,109.4L98.77,95.476a17.723,17.723,0,0,1,.252,1.764c.039.67-1.694,12.505-1.694,12.505" transform="translate(18.149 18.158)" fill="#d9dbdd"/>
    <path id="Trazado_800163" data-name="Trazado 800163" d="M63.012,139.793s2.95,3.2,5.9,3.442,4.918-27.046,5.656-29.751,1.966-13.769,1.966-13.769-2.459-15.244-4.917-15.49-4.18.246-5.9,11.8-.947,15.726-1.7,16.469-1,27.3-1,27.3" transform="translate(11.984 16.01)" fill="#eff3f4"/>
    <path id="Trazado_800164" data-name="Trazado 800164" d="M75.624,98.709a.3.3,0,0,1-.3-.275c-.371-4.833-2.44-12.353-4.969-13.622a1.569,1.569,0,0,0-1.653.118.3.3,0,0,1-.413-.093.3.3,0,0,1,.094-.411,2.153,2.153,0,0,1,2.238-.148c3.06,1.535,4.989,10.087,5.3,14.11a.3.3,0,0,1-.274.319h-.024" transform="translate(12.98 15.982)" fill="#fff"/>
    <path id="Trazado_800165" data-name="Trazado 800165" d="M69.285,131.278a13.265,13.265,0,0,1-5.669-1.662l-.593-.274a.3.3,0,0,1,.248-.542l.6.275a12.286,12.286,0,0,0,5.7,1.6.291.291,0,0,1,.308.287.3.3,0,0,1-.287.308c-.1,0-.2.006-.3.006" transform="translate(11.953 24.491)" fill="#fff"/>
    <path id="Trazado_800166" data-name="Trazado 800166" d="M120.877,99.653h0a4.112,4.112,0,0,0-1.991-5.218L106.942,87.72c-1.983-1.114-4.519-.156-5.666,2.14s-.39,4.9,1.691,5.815l12.541,5.52a4.113,4.113,0,0,0,5.369-1.542" transform="translate(19.159 16.595)" fill="#ffaa7f"/>
    <path id="Trazado_800167" data-name="Trazado 800167" d="M130.133,84c-.067-.067-.1-.1-.168-.168-.79-.79-2.564-.482-3.96.69l-11.944,10.03c-1.4,1.172-1.312,3.34.19,4.842l.318.318c1.5,1.5,3.669,1.588,4.842.192l.594-.707,9.436-11.237a5.192,5.192,0,0,0,.741-1.164,2.532,2.532,0,0,0-.05-2.8" transform="translate(21.504 15.86)" fill="#ffaa7f"/>
    <path id="Trazado_800168" data-name="Trazado 800168" d="M127.008,85.507s-8.9,8.566-9.573,8.229S99.969,81.645,98.961,83.66C98.43,84.722,97.953,97.6,97.953,97.6s18.138,7.053,19.986,6.55S130.7,96.424,130.7,96.424s0-3.694-1.007-5.711-2.687-5.206-2.687-5.206" transform="translate(18.629 15.867)" fill="#eff3f4"/>
    <path id="Trazado_800169" data-name="Trazado 800169" d="M138.538,80.429l-6.314,3.381-.029,2.359a6.975,6.975,0,0,0,3.033-1.433,8.3,8.3,0,0,1,1.777-1.216l2.906-2.646a1.084,1.084,0,0,0-1.373-.445" transform="translate(25.142 15.277)" fill="#ff986b"/>
    <path id="Trazado_800170" data-name="Trazado 800170" d="M123.439,85.469s2.936-3.211,4.837-3.211,3.875,1.47,5.776,1.153,8.422-3.153,8.942-2.32c.093.148.578.418.258.716-1.475,1.376-6.6,4.006-8.68,4.787-1.647.618-4.019.578-5.83.876a3.743,3.743,0,0,0-1.727.869l-3.16-2.621Z" transform="translate(23.476 15.393)" fill="#ffaa7f"/>
    <path id="Trazado_800171" data-name="Trazado 800171" d="M139.068,83.233l-7.01.213s-1.757,3.1-1.072,3.218c.48.085,1.866-.7,3.267-1.137a8.073,8.073,0,0,1,2.119-.257l3.744-1a1.141,1.141,0,0,0-1.047-1.035" transform="translate(24.881 15.83)" fill="#ffaa7f"/>
    <path id="Trazado_800172" data-name="Trazado 800172" d="M128.028,82.118l1.834.668,3.189,1.03.024,1.109,1.128-1.278,5.616-.158-6.032-.063Z" transform="translate(24.349 15.618)" fill="#ff986b"/>
    <path id="Trazado_800173" data-name="Trazado 800173" d="M99.2,96.571a.275.275,0,0,1-.087-.013.3.3,0,0,1-.2-.371,28.108,28.108,0,0,0,1.469-7.6c0-2.577-.832-4.292-2.471-5.1a.3.3,0,1,1,.262-.533c1.86.915,2.8,2.811,2.8,5.633a28.669,28.669,0,0,1-1.495,7.778.3.3,0,0,1-.284.211" transform="translate(18.589 15.77)" fill="#fff"/>
    <path id="Trazado_800174" data-name="Trazado 800174" d="M90.945,110.025a.3.3,0,0,1-.165-.05c-.2-.133-.669-.444,3.377-20.341L92.71,87.384a.3.3,0,0,1,.024-.355l3.784-4.413-4.7-2.349a.3.3,0,0,1-.133-.4.3.3,0,0,1,.4-.133l5.038,2.52a.3.3,0,0,1,.094.459L93.33,87.249l1.393,2.165a.3.3,0,0,1,.04.22c-1.523,7.49-3.712,18.9-3.562,19.943a.3.3,0,0,1-.256.449" transform="translate(17.241 15.158)" fill="#fff"/>
    <path id="Trazado_800175" data-name="Trazado 800175" d="M84.943,111.208a.3.3,0,0,1-.165-.05c-.4-.27-1.747-7.174-3.991-20.52a.315.315,0,0,1,.006-.125l.794-3.017L75.5,81.906a.3.3,0,0,1,.089-.494l4.2-1.721a.3.3,0,1,1,.226.55l-3.766,1.544,5.869,5.394a.293.293,0,0,1,.087.294l-.824,3.13c1.291,7.679,3.347,19.273,3.778,20.106a.3.3,0,0,1-.219.5" transform="translate(14.341 15.152)" fill="#fff"/>
  </g>
</svg>
