<svg id="Grupo_1064947" data-name="Grupo 1064947" xmlns="http://www.w3.org/2000/svg" xmlns:xlink="http://www.w3.org/1999/xlink" width="174.235" height="229" viewBox="0 0 174.235 229">
  <defs>
    <clipPath id="clip-path">
      <rect id="Rectángulo_373940" data-name="Rectángulo 373940" width="174.235" height="229" fill="none"/>
    </clipPath>
    <clipPath id="clip-path-3">
      <rect id="Rectángulo_373936" data-name="Rectángulo 373936" width="14.518" height="23.832" fill="none"/>
    </clipPath>
    <clipPath id="clip-path-4">
      <rect id="Rectángulo_373937" data-name="Rectángulo 373937" width="22.38" height="20.48" fill="none"/>
    </clipPath>
    <clipPath id="clip-path-5">
      <rect id="Rectángulo_373938" data-name="Rectángulo 373938" width="4.925" height="6.141" fill="none"/>
    </clipPath>
  </defs>
  <g id="Grupo_1064946" data-name="Grupo 1064946" clip-path="url(#clip-path)">
    <g id="Grupo_1064945" data-name="Grupo 1064945">
      <g id="Grupo_1064944" data-name="Grupo 1064944" clip-path="url(#clip-path)">
        <path id="Trazado_799131" data-name="Trazado 799131" d="M222.628,544.141V521.3H180.075v22.976l-17.422,7.075s-.278,13.1,6.641,18.718c5.269,4.278,17.107,1.175,22.379,2.481a46.571,46.571,0,0,0,42.092-11.013c3.661-3.341,9.627-11.377,9.627-11.377Z" transform="translate(-115.937 -371.575)" fill="#ff925c"/>
        <path id="Trazado_799132" data-name="Trazado 799132" d="M162.633,636.027a191.855,191.855,0,0,0-35.491-14.57,61.12,61.12,0,0,1-10.8,12.378,46.743,46.743,0,0,1-40.064,9.742c-12.527-2.884-22.772-9.8-29.042-21C30.3,627.777,16.757,633.32,11.6,636.027,3.849,640.1,0,671.736,0,671.736l86.974.233,87.261-.233s-3.849-31.639-11.6-35.709" transform="translate(0 -442.969)" fill="#ffe3b0"/>
        <path id="Trazado_799133" data-name="Trazado 799133" d="M253.237,547.066a30.69,30.69,0,0,0,12.632-3.032V521.295H223.316v7.592c3.922,6.09,8.384,10.4,11.834,12.592,4.852,3.085,12.241,5.587,18.088,5.587" transform="translate(-159.178 -371.574)" fill="#d97645"/>
        <path id="Trazado_799134" data-name="Trazado 799134" d="M118.7,214.3c-1.709,19.883,2.447,33.371,2.447,33.371s7.2-14.751,9.3,4.821,4.556,14.6,8.684,17.739c11.225,8.548,30.072,6.037,43.134,5.349,4.659-.246,10.814.14,15.118-1.832a50.118,50.118,0,0,0,24.707-26.066,47.563,47.563,0,0,0,2.156-6.889c1.674-7.219,1.587-14.869,1.455-22.237a47.079,47.079,0,0,0-.565-7.731,47.116,47.116,0,0,0-2.155-7.22,149.127,149.127,0,0,0-7.477-18.308c-1.035-2.006-2.777-4.271-4.989-3.821a6.643,6.643,0,0,0-2.228,1.175c-3.907,2.585-8.742,3.19-13.307,4.246-3.764.871-7.506,2.1-11.369,2.078a43.946,43.946,0,0,1-7.721-1.063,96.424,96.424,0,0,0-13.853-1.532q-3.556-.135-7.115-.007c-2.1.075-3.536.361-5.582-.212a44.785,44.785,0,0,1-4.895-1.523c-1.561-.637-3.025-1.491-4.584-2.133-3.946-1.626-5.865-1.817-9.934-.531-.508.161-1.023-.41-1.423-.058-.473.417-8.415,16.242-9.8,32.385" transform="translate(-84.318 -129.11)" fill="#753434"/>
        <path id="Trazado_799135" data-name="Trazado 799135" d="M161.635,226.788c-4.87,8.932-6.378,19.952-5.58,33.058,1.162,19.074,4.9,34.892,12.347,46.368s18.869,19.23,26.8,19.231,21.906-6.987,29.2-17.367c8.881-12.632,14.372-29.153,15.537-48.227.8-13.108-.707-24.129-5.578-33.062Z" transform="translate(-111.091 -161.652)" fill="#ff925c"/>
        <path id="Trazado_799136" data-name="Trazado 799136" d="M349.747,361.136c0,3.109,1.4,5.629,3.127,5.629s3.128-2.52,3.128-5.629-1.4-5.629-3.127-5.629-3.127,2.52-3.128,5.629" transform="translate(-249.297 -253.402)" fill="#160d0b"/>
        <path id="Trazado_799137" data-name="Trazado 799137" d="M225.178,361.129c0,3.109,1.4,5.629,3.127,5.629s3.128-2.52,3.128-5.629-1.4-5.629-3.127-5.629-3.127,2.52-3.128,5.629" transform="translate(-160.505 -253.397)" fill="#160d0b"/>
        <path id="Trazado_799138" data-name="Trazado 799138" d="M274.792,393.45a5.049,5.049,0,0,1-4.882-3.968c-.549-1.816-.6-5.6-.152-11.241.331-4.164.824-7.861.829-7.9a.58.58,0,1,1,1.151.154c0,.037-.494,3.7-.823,7.836-.431,5.42-.394,9.159.106,10.813,1.11,3.669,4.184,3.121,4.314,3.1a.58.58,0,0,1,.22,1.14,4.063,4.063,0,0,1-.763.069" transform="translate(-192.065 -263.618)" fill="#d97645"/>
        <path id="Trazado_799139" data-name="Trazado 799139" d="M332.9,322.373a2.438,2.438,0,0,0,1.23,4.068c1.906.472,6.977.165,10.389,1.033,3.3.839,6.778,2.912,7.58,2.665s.388-1.925-1.826-3.74c-2.064-1.692-3.983-3.662-7.993-4.539s-8.24-.6-9.379.513" transform="translate(-236.809 -229.049)" fill="#753434"/>
        <path id="Trazado_799140" data-name="Trazado 799140" d="M200.7,318.607a2.438,2.438,0,0,1-1.4,4.012c-1.925.391-6.978-.13-10.423.592-3.333.7-6.9,2.622-7.686,2.342s-.306-1.94,1.983-3.659a19.328,19.328,0,0,1,8.577-4.2c4.21-.867,7.86-.248,8.95.915" transform="translate(-128.892 -226.158)" fill="#753434"/>
        <path id="Trazado_799141" data-name="Trazado 799141" d="M420.134,360.383c3.7-4.52,12.062.309,10.923,8.8s-8.993,17.058-13.889,17.024-2.022-19.732,2.966-25.823" transform="translate(-295.55 -255.645)" fill="#ff925c"/>
        <path id="Trazado_799142" data-name="Trazado 799142" d="M155.178,360.367c-3.7-4.52-12.062.308-10.924,8.8s8.991,17.059,13.887,17.025,2.025-19.732-2.963-25.823" transform="translate(-102.748 -255.633)" fill="#ff925c"/>
        <path id="Trazado_799143" data-name="Trazado 799143" d="M211.855,224.374c1.24,2.2,2.442,4.46,3.8,6.731a45.749,45.749,0,0,1,6.243,23.612c-.017,2.432-.474,5.273-2.617,6.423-1.734.93-2.714,1.653-4.539.917-5.476-2.205-11.566-6.852-16.455-10.161a26.76,26.76,0,0,1-10.015-10.305c-2.563-4.018-5.19-8.206-5.805-12.933a14.178,14.178,0,0,1-6.674,8.283c-3.035,1.671-6.564,2.158-9.82,3.341a24.16,24.16,0,0,0-9.212,6.024c-2.666,2.8-4.677,5.877-7.65,8.408-2.666,2.269-6.317,4.808-7.755,8.045a28.5,28.5,0,0,0-2.436,11.844A56.886,56.886,0,0,0,140.328,285c1.683,8.46,3.351,16.936,3.186,25.614a41.2,41.2,0,0,1-2.066,12.1,40.661,40.661,0,0,1-2.36,5.681c-.857,1.687-2.3,3.275-3.014,4.988,2.072-4.936,1.863-10.518,1.164-15.825a93.921,93.921,0,0,0-4.96-20.106c-2.246-6.112-5.3-11.767-7.359-17.926a48.474,48.474,0,0,1-2.065-16.144,59.617,59.617,0,0,1,.984-10.422c.52-2.679,1.285-5.3,2.048-7.923,1.89-6.486,2.756-13.524,7.428-18.624a10.153,10.153,0,0,1,1.863-1.674c2.909-1.912,6.579-1.217,9.883-1.176l9.058.111,22.172.271,34.357.42a5.207,5.207,0,0,1,1.208.015" transform="translate(-87.561 -159.239)" fill="#753434"/>
        <path id="Trazado_799144" data-name="Trazado 799144" d="M443.492,394.723a.58.58,0,0,1-.432-.968,10.971,10.971,0,0,0,2.6-6.585.581.581,0,0,1,.569-.592.591.591,0,0,1,.592.569,11.967,11.967,0,0,1-2.9,7.383.58.58,0,0,1-.432.192" transform="translate(-315.704 -275.55)" fill="#d97645"/>
        <g id="Grupo_1064937" data-name="Grupo 1064937" transform="translate(43.244 79.914)" opacity="0.4">
          <g id="Grupo_1064936" data-name="Grupo 1064936">
            <g id="Grupo_1064935" data-name="Grupo 1064935" clip-path="url(#clip-path-3)">
              <path id="Trazado_799145" data-name="Trazado 799145" d="M151.179,302.075a.611.611,0,0,1-.57-.832c3.055-7.889,6.519-16.83,13.465-22.851a.611.611,0,1,1,.8.923c-6.717,5.822-10.122,14.613-13.127,22.369a.611.611,0,0,1-.57.39" transform="translate(-150.568 -278.242)"/>
            </g>
          </g>
        </g>
        <g id="Grupo_1064940" data-name="Grupo 1064940" transform="translate(108.316 70.13)" opacity="0.4">
          <g id="Grupo_1064939" data-name="Grupo 1064939">
            <g id="Grupo_1064938" data-name="Grupo 1064938" clip-path="url(#clip-path-4)">
              <path id="Trazado_799146" data-name="Trazado 799146" d="M398.9,264.657a.608.608,0,0,1-.256-.057,39.019,39.019,0,0,0-4.01-1.5c-.991-.331-2.016-.673-3.011-1.071C384.053,259,380.2,251.67,377.189,245.041a.611.611,0,0,1,1.113-.506c2.916,6.412,6.626,13.493,13.778,16.356.962.385,1.969.721,2.944,1.046a39.967,39.967,0,0,1,4.136,1.554.611.611,0,0,1-.256,1.166" transform="translate(-377.134 -244.177)"/>
            </g>
          </g>
        </g>
        <g id="Grupo_1064943" data-name="Grupo 1064943" transform="translate(123.771 70.073)" opacity="0.4">
          <g id="Grupo_1064942" data-name="Grupo 1064942">
            <g id="Grupo_1064941" data-name="Grupo 1064941" clip-path="url(#clip-path-5)">
              <path id="Trazado_799147" data-name="Trazado 799147" d="M435.257,250.12a.609.609,0,0,1-.387-.138,13.765,13.765,0,0,1-3.876-5.148.611.611,0,1,1,1.121-.487,12.538,12.538,0,0,0,3.53,4.689.611.611,0,0,1-.388,1.083" transform="translate(-430.943 -243.979)"/>
            </g>
          </g>
        </g>
        <path id="Trazado_799148" data-name="Trazado 799148" d="M279.6,471.027c-.078,1.063-4.648,4.405-9.016,4.476-5.02.08-9.622-3.5-9.414-4.721.22-1.287,5.176.328,9.544.4,4.672.072,8.972-1.331,8.886-.15" transform="translate(-186.152 -335.215)" fill="#fff"/>
        <path id="Trazado_799149" data-name="Trazado 799149" d="M151.705,164.377c0-5.78,17.406-10.465,42.084-10.465s44.684,4.685,44.684,10.465-20.006,10.465-44.684,10.465-42.084-4.685-42.084-10.465" transform="translate(-108.134 -109.707)" fill="#4f2626"/>
        <path id="Trazado_799150" data-name="Trazado 799150" d="M278.179,74.756c0,9.406-8.685,17.031-19.4,17.031s-19.4-7.625-19.4-17.031,8.685-17.031,19.4-17.031,19.4,7.625,19.4,17.031" transform="translate(-170.629 -41.146)" fill="#f7c934"/>
        <path id="Trazado_799151" data-name="Trazado 799151" d="M262.249,120.561a2.644,2.644,0,1,1-2.622-2.3,2.477,2.477,0,0,1,2.622,2.3" transform="translate(-183.192 -84.294)" fill="#ff925c"/>
        <path id="Trazado_799152" data-name="Trazado 799152" d="M339.123,120.561a2.644,2.644,0,1,1-2.621-2.3,2.477,2.477,0,0,1,2.621,2.3" transform="translate(-237.987 -84.294)" fill="#ff925c"/>
        <path id="Trazado_799153" data-name="Trazado 799153" d="M262.023,104.143c.16-.1.28-.167.42-.241s.273-.136.412-.195a6.712,6.712,0,0,1,.859-.307,5.73,5.73,0,0,1,1.861-.214,5.541,5.541,0,0,1,.961.14,5.232,5.232,0,0,1,.918.344,5.82,5.82,0,0,1,1.564,1.124.923.923,0,0,1-1.261,1.348l-.037-.036-.056-.059a4.05,4.05,0,0,0-1-.845,3.532,3.532,0,0,0-.583-.275,3.929,3.929,0,0,0-.639-.14,4.174,4.174,0,0,0-1.366.057,5.313,5.313,0,0,0-.688.19,4.7,4.7,0,0,0-.632.269l-.048.024a.684.684,0,0,1-.68-1.186" transform="translate(-186.542 -73.545)" fill="#4f2626"/>
        <path id="Trazado_799154" data-name="Trazado 799154" d="M332.226,105.3a4.786,4.786,0,0,0-.632-.269,5.286,5.286,0,0,0-.688-.19,4.175,4.175,0,0,0-1.366-.057,3.95,3.95,0,0,0-.639.14,3.512,3.512,0,0,0-.583.275,4.044,4.044,0,0,0-1,.845l-.054.057a.923.923,0,0,1-1.339-1.272l.039-.038a5.81,5.81,0,0,1,1.565-1.124,5.213,5.213,0,0,1,.917-.344,5.544,5.544,0,0,1,.961-.14,5.731,5.731,0,0,1,1.861.214,6.767,6.767,0,0,1,.859.307c.14.059.276.126.412.2s.26.139.42.241a.684.684,0,0,1-.678,1.187Z" transform="translate(-232.132 -73.544)" fill="#4f2626"/>
        <path id="Trazado_799155" data-name="Trazado 799155" d="M295.648,123.485a.613.613,0,0,0-.6.748,3.423,3.423,0,0,0,6.68,0,.613.613,0,0,0-.6-.748Z" transform="translate(-210.3 -88.019)" fill="#fff"/>
        <path id="Trazado_799156" data-name="Trazado 799156" d="M302.121,108.782a.607.607,0,0,1-.13-.014l-1.786-.391a1.366,1.366,0,0,1-.612-2.359l1.466-1.294a.6.6,0,0,1,.8.9l-1.466,1.294a.162.162,0,0,0,.072.281l1.786.391a.6.6,0,0,1-.128,1.19" transform="translate(-213.218 -74.539)" fill="#4f2626"/>
        <path id="Trazado_799157" data-name="Trazado 799157" d="M415.155,104.489c0,3.873-3.576,7.012-7.987,7.012s-7.987-3.14-7.987-7.012,3.576-7.012,7.987-7.012,7.987,3.139,7.987,7.012" transform="translate(-284.532 -69.481)" fill="#f7c934"/>
        <path id="Trazado_799158" data-name="Trazado 799158" d="M408.6,123.349a1.088,1.088,0,1,1-1.079-.948,1.02,1.02,0,0,1,1.079.948" transform="translate(-289.705 -87.246)" fill="#ff925c"/>
        <path id="Trazado_799159" data-name="Trazado 799159" d="M440.248,123.349a1.088,1.088,0,1,1-1.079-.948,1.02,1.02,0,0,1,1.079.948" transform="translate(-312.266 -87.246)" fill="#ff925c"/>
        <path id="Trazado_799160" data-name="Trazado 799160" d="M408.5,116.588a2.693,2.693,0,0,1,.7-.306,2.364,2.364,0,0,1,.766-.088,1.926,1.926,0,0,1,.774.2,2.391,2.391,0,0,1,.644.463.38.38,0,1,1-.519.555l-.015-.015-.023-.024a1.669,1.669,0,0,0-.414-.348,1.246,1.246,0,0,0-.5-.171,1.71,1.71,0,0,0-.562.024,2.183,2.183,0,0,0-.544.189l-.022.011a.282.282,0,0,1-.278-.489" transform="translate(-291.078 -82.82)" fill="#4f2626"/>
        <path id="Trazado_799161" data-name="Trazado 799161" d="M437.408,117.067a2.2,2.2,0,0,0-.544-.189,1.728,1.728,0,0,0-.563-.024,1.242,1.242,0,0,0-.5.171,1.675,1.675,0,0,0-.414.348l-.022.024a.38.38,0,0,1-.551-.524l.016-.016a2.4,2.4,0,0,1,.644-.463,1.928,1.928,0,0,1,.773-.2,2.359,2.359,0,0,1,.766.088,2.7,2.7,0,0,1,.7.306.282.282,0,0,1-.277.49Z" transform="translate(-309.855 -82.82)" fill="#4f2626"/>
        <path id="Trazado_799162" data-name="Trazado 799162" d="M422.348,124.552a.252.252,0,0,0-.245.308,1.409,1.409,0,0,0,2.75,0,.252.252,0,0,0-.245-.308Z" transform="translate(-300.867 -88.78)" fill="#fff"/>
        <path id="Trazado_799163" data-name="Trazado 799163" d="M425.013,118.5a.241.241,0,0,1-.053-.006l-.735-.161a.562.562,0,0,1-.252-.971l.6-.532a.248.248,0,0,1,.328.372l-.6.532a.067.067,0,0,0,.03.115l.736.161a.248.248,0,0,1-.053.49" transform="translate(-302.068 -83.23)" fill="#4f2626"/>
        <path id="Trazado_799164" data-name="Trazado 799164" d="M226.788,189.091c-3.752,0-6.793,2.67-6.793,5.964a5.468,5.468,0,0,0,1.334,3.539c3.04.422,6.349.753,9.887.978a5.677,5.677,0,0,0,2.365-4.517c0-3.294-3.041-5.964-6.793-5.964" transform="translate(-156.811 -134.782)" fill="#f7c934"/>
        <path id="Trazado_799165" data-name="Trazado 799165" d="M228,211.095a.926.926,0,1,1-.918-.806.867.867,0,0,1,.918.806" transform="translate(-161.209 -149.892)" fill="#ff925c"/>
        <path id="Trazado_799166" data-name="Trazado 799166" d="M254.921,211.095a.926.926,0,1,1-.918-.806.867.867,0,0,1,.918.806" transform="translate(-180.397 -149.892)" fill="#ff925c"/>
        <path id="Trazado_799167" data-name="Trazado 799167" d="M227.919,205.345a2.3,2.3,0,0,1,.593-.26,2.01,2.01,0,0,1,.651-.075,1.647,1.647,0,0,1,.658.17,2.051,2.051,0,0,1,.548.393.323.323,0,0,1-.442.472l-.013-.013-.02-.02a1.416,1.416,0,0,0-.352-.3,1.053,1.053,0,0,0-.428-.145,1.452,1.452,0,0,0-.479.02,1.863,1.863,0,0,0-.462.161l-.018.009a.24.24,0,0,1-.237-.416" transform="translate(-162.378 -146.127)" fill="#4f2626"/>
        <path id="Trazado_799168" data-name="Trazado 799168" d="M252.506,205.752a1.862,1.862,0,0,0-.462-.161,1.458,1.458,0,0,0-.478-.02,1.054,1.054,0,0,0-.428.145,1.415,1.415,0,0,0-.352.3l-.019.02a.323.323,0,0,1-.469-.445l.014-.014a2.034,2.034,0,0,1,.548-.393,1.64,1.64,0,0,1,.658-.169,2,2,0,0,1,.651.075,2.292,2.292,0,0,1,.592.26.239.239,0,0,1-.236.416Z" transform="translate(-178.347 -146.127)" fill="#4f2626"/>
        <path id="Trazado_799169" data-name="Trazado 799169" d="M239.7,212.118a.215.215,0,0,0-.209.262,1.2,1.2,0,0,0,2.339,0,.215.215,0,0,0-.209-.262Z" transform="translate(-170.702 -151.196)" fill="#fff"/>
        <path id="Trazado_799170" data-name="Trazado 799170" d="M241.965,206.97a.2.2,0,0,1-.045,0l-.625-.137a.478.478,0,0,1-.214-.826l.513-.453a.211.211,0,0,1,.279.316l-.513.453a.054.054,0,0,0-.018.057.054.054,0,0,0,.043.041l.625.137a.211.211,0,0,1-.045.417" transform="translate(-171.724 -146.476)" fill="#4f2626"/>
        <path id="Trazado_799171" data-name="Trazado 799171" d="M172.477,129.963c0,5.546-5.121,10.041-11.437,10.041s-11.438-4.5-11.438-10.041,5.121-10.041,11.438-10.041,11.437,4.5,11.437,10.041" transform="translate(-106.635 -85.479)" fill="#5594c9"/>
        <path id="Trazado_799172" data-name="Trazado 799172" d="M185.571,152.343a.348.348,0,0,1-.076-.008l-1.053-.23a.805.805,0,0,1-.361-1.391l.865-.763a.355.355,0,0,1,.47.532l-.864.763a.1.1,0,0,0,.043.165l1.053.23a.355.355,0,0,1-.076.7" transform="translate(-131.017 -106.82)" fill="#4f2626"/>
        <path id="Trazado_799173" data-name="Trazado 799173" d="M170.984,148.82c0,1.034-.477,1.872-1.064,1.872s-1.065-.838-1.065-1.872.477-1.872,1.065-1.872,1.064.838,1.064,1.872" transform="translate(-120.358 -104.743)" fill="#4f2626"/>
        <path id="Trazado_799174" data-name="Trazado 799174" d="M204.339,148.82c0,1.034-.477,1.872-1.065,1.872s-1.064-.838-1.064-1.872.476-1.872,1.064-1.872,1.065.838,1.065,1.872" transform="translate(-144.133 -104.743)" fill="#4f2626"/>
        <path id="Trazado_799175" data-name="Trazado 799175" d="M185.2,162.823a1.6,1.6,0,0,1-1.6-1.6.355.355,0,0,1,.71,0,.893.893,0,0,0,1.786,0,.355.355,0,0,1,.71,0,1.6,1.6,0,0,1-1.6,1.6" transform="translate(-130.864 -114.664)" fill="#4f2626"/>
        <path id="Trazado_799176" data-name="Trazado 799176" d="M198.78,30.549c0,2.584-2.386,4.679-5.329,4.679s-5.329-2.095-5.329-4.679,2.386-4.679,5.329-4.679,5.329,2.095,5.329,4.679" transform="translate(-134.092 -18.44)" fill="#f7c934"/>
        <path id="Trazado_799177" data-name="Trazado 799177" d="M204.882,40.978a.167.167,0,0,1-.036,0l-.491-.107a.376.376,0,0,1-.168-.648l.4-.355a.165.165,0,1,1,.219.248l-.4.356a.042.042,0,0,0-.014.045.042.042,0,0,0,.034.032l.491.107a.165.165,0,0,1-.035.327" transform="translate(-145.453 -28.385)" fill="#4f2626"/>
        <path id="Trazado_799178" data-name="Trazado 799178" d="M198.085,39.335c0,.482-.222.872-.5.872s-.5-.391-.5-.872.222-.872.5-.872.5.391.5.872" transform="translate(-140.486 -27.416)" fill="#4f2626"/>
        <path id="Trazado_799179" data-name="Trazado 799179" d="M213.626,39.335c0,.482-.222.872-.5.872s-.5-.391-.5-.872.222-.872.5-.872.5.391.5.872" transform="translate(-151.564 -27.416)" fill="#4f2626"/>
        <path id="Trazado_799180" data-name="Trazado 799180" d="M204.708,45.859a.747.747,0,0,1-.747-.747.165.165,0,1,1,.331,0,.416.416,0,0,0,.832,0,.165.165,0,1,1,.331,0,.747.747,0,0,1-.747.747" transform="translate(-145.382 -32.038)" fill="#4f2626"/>
        <path id="Trazado_799181" data-name="Trazado 799181" d="M392.8,28.444c0,3.073-2.838,5.564-6.338,5.564s-6.338-2.491-6.338-5.564,2.838-5.564,6.338-5.564,6.338,2.491,6.338,5.564" transform="translate(-270.952 -16.309)" fill="#5594c9"/>
        <path id="Trazado_799182" data-name="Trazado 799182" d="M400.06,40.847a.192.192,0,0,1-.042,0l-.584-.128a.447.447,0,0,1-.2-.771l.479-.422a.2.2,0,1,1,.26.295l-.479.423a.05.05,0,0,0-.016.053.05.05,0,0,0,.04.038l.583.128a.2.2,0,0,1-.042.389" transform="translate(-284.463 -28.135)" fill="#4f2626"/>
        <path id="Trazado_799183" data-name="Trazado 799183" d="M391.978,38.893c0,.573-.264,1.037-.59,1.037s-.59-.464-.59-1.037.264-1.037.59-1.037.59.464.59,1.037" transform="translate(-278.557 -26.983)" fill="#4f2626"/>
        <path id="Trazado_799184" data-name="Trazado 799184" d="M410.46,38.893c0,.573-.264,1.037-.59,1.037s-.59-.464-.59-1.037.264-1.037.59-1.037.59.464.59,1.037" transform="translate(-291.731 -26.983)" fill="#4f2626"/>
        <path id="Trazado_799185" data-name="Trazado 799185" d="M399.853,46.653a.889.889,0,0,1-.888-.888.2.2,0,1,1,.393,0,.5.5,0,0,0,.99,0,.2.2,0,1,1,.393,0,.889.889,0,0,1-.888.888" transform="translate(-284.379 -32.48)" fill="#4f2626"/>
        <path id="Trazado_799186" data-name="Trazado 799186" d="M370.257,171.176c-4.92,0-8.909,3.5-8.909,7.821a7.69,7.69,0,0,0,4.369,6.729,88.987,88.987,0,0,0,11.94-2.374A7.131,7.131,0,0,0,379.165,179c0-4.32-3.988-7.821-8.908-7.821" transform="translate(-257.566 -122.013)" fill="#5594c9"/>
        <path id="Trazado_799187" data-name="Trazado 799187" d="M389.365,196.43a.264.264,0,0,1-.059-.007l-.82-.179a.627.627,0,0,1-.281-1.083l.673-.594a.276.276,0,1,1,.366.414l-.673.594a.075.075,0,0,0,.034.129l.82.18a.276.276,0,0,1-.059.546" transform="translate(-276.557 -138.637)" fill="#4f2626"/>
        <path id="Trazado_799188" data-name="Trazado 799188" d="M378,193.685c0,.805-.371,1.458-.829,1.458s-.829-.653-.829-1.458.371-1.458.829-1.458.829.653.829,1.458" transform="translate(-268.255 -137.018)" fill="#4f2626"/>
        <path id="Trazado_799189" data-name="Trazado 799189" d="M403.982,193.685c0,.805-.371,1.458-.829,1.458s-.829-.653-.829-1.458.371-1.458.829-1.458.829.653.829,1.458" transform="translate(-286.773 -137.018)" fill="#4f2626"/>
        <path id="Trazado_799190" data-name="Trazado 799190" d="M389.073,204.592a1.25,1.25,0,0,1-1.248-1.248.276.276,0,1,1,.553,0,.7.7,0,0,0,1.392,0,.276.276,0,1,1,.553,0,1.25,1.25,0,0,1-1.249,1.248" transform="translate(-276.438 -144.744)" fill="#4f2626"/>
        <path id="Trazado_799191" data-name="Trazado 799191" d="M319.439,207.324c0,.723-.025,1.45.014,2.172a.33.33,0,0,0,.66,0c.041-.721.018-1.45.021-2.172a.347.347,0,0,0-.694,0" transform="translate(-227.688 -147.541)" fill="#5594c9"/>
        <path id="Trazado_799192" data-name="Trazado 799192" d="M309.158,201.362c-.723,0-1.451-.025-2.172.014a.33.33,0,0,0,0,.66c.721.041,1.45.018,2.172.021a.347.347,0,0,0,0-.694" transform="translate(-218.588 -143.524)" fill="#5594c9"/>
        <path id="Trazado_799193" data-name="Trazado 799193" d="M320.381,191.081c0-.723.025-1.45-.014-2.172a.33.33,0,0,0-.66,0c-.041.721-.018,1.45-.021,2.172a.347.347,0,0,0,.694,0" transform="translate(-227.867 -134.424)" fill="#5594c9"/>
        <path id="Trazado_799194" data-name="Trazado 799194" d="M325.4,202.3c.723,0,1.451.025,2.172-.013a.33.33,0,0,0,0-.66c-.722-.041-1.45-.018-2.172-.021a.347.347,0,0,0,0,.694" transform="translate(-231.705 -143.703)" fill="#5594c9"/>
        <path id="Trazado_799195" data-name="Trazado 799195" d="M389.773,84.193c0,.474-.016.952.009,1.425a.217.217,0,0,0,.433,0c.027-.473.012-.951.013-1.425a.228.228,0,0,0-.456,0" transform="translate(-277.823 -59.856)" fill="#f7c934"/>
        <path id="Trazado_799196" data-name="Trazado 799196" d="M383.029,80.282c-.474,0-.952-.017-1.425.009a.217.217,0,0,0,0,.433c.473.027.951.012,1.425.013a.228.228,0,0,0,0-.456" transform="translate(-271.855 -57.22)" fill="#f7c934"/>
        <path id="Trazado_799197" data-name="Trazado 799197" d="M390.39,73.538c0-.474.016-.952-.009-1.425a.217.217,0,0,0-.433,0c-.027.473-.012.951-.014,1.425a.228.228,0,0,0,.456,0" transform="translate(-277.94 -51.252)" fill="#f7c934"/>
        <path id="Trazado_799198" data-name="Trazado 799198" d="M393.684,80.9c.474,0,.952.016,1.425-.009a.217.217,0,0,0,0-.433c-.473-.027-.951-.012-1.425-.014a.228.228,0,0,0,0,.456" transform="translate(-280.458 -57.338)" fill="#f7c934"/>
        <path id="Trazado_799199" data-name="Trazado 799199" d="M339.029,12.288c0,.474-.016.952.009,1.425a.217.217,0,0,0,.433,0c.027-.473.012-.951.013-1.425a.228.228,0,0,0-.456,0" transform="translate(-241.653 -8.603)" fill="#f7c934"/>
        <path id="Trazado_799200" data-name="Trazado 799200" d="M332.285,8.378c-.474,0-.952-.016-1.425.009a.217.217,0,0,0,0,.433c.473.027.951.012,1.425.013a.228.228,0,0,0,0-.456" transform="translate(-235.685 -5.968)" fill="#f7c934"/>
        <path id="Trazado_799201" data-name="Trazado 799201" d="M339.646,1.635c0-.474.016-.952-.009-1.425a.217.217,0,0,0-.433,0c-.027.473-.012.951-.013,1.425a.228.228,0,0,0,.456,0" transform="translate(-241.77 0)" fill="#f7c934"/>
        <path id="Trazado_799202" data-name="Trazado 799202" d="M342.94,9c.474,0,.952.016,1.425-.009a.217.217,0,0,0,0-.433c-.473-.027-.951-.012-1.425-.013a.228.228,0,0,0,0,.456" transform="translate(-244.289 -6.085)" fill="#f7c934"/>
        <path id="Trazado_799203" data-name="Trazado 799203" d="M264.956,44.568c0,.919-.032,1.846.018,2.764a.42.42,0,0,0,.84,0c.053-.918.023-1.844.026-2.763a.442.442,0,0,0-.883,0" transform="translate(-188.851 -31.465)" fill="#5594c9"/>
        <path id="Trazado_799204" data-name="Trazado 799204" d="M251.876,36.983c-.919,0-1.846-.032-2.764.018a.42.42,0,0,0,0,.84c.918.052,1.844.023,2.763.026a.442.442,0,0,0,0-.883" transform="translate(-177.275 -26.354)" fill="#5594c9"/>
        <path id="Trazado_799205" data-name="Trazado 799205" d="M266.154,23.9c0-.919.032-1.845-.018-2.764a.42.42,0,0,0-.84,0c-.053.918-.023,1.844-.026,2.763a.442.442,0,0,0,.883,0" transform="translate(-189.078 -14.777)" fill="#5594c9"/>
        <path id="Trazado_799206" data-name="Trazado 799206" d="M272.541,38.181c.919,0,1.845.032,2.764-.018a.42.42,0,0,0,0-.84c-.918-.052-1.844-.023-2.764-.026a.442.442,0,0,0,0,.883" transform="translate(-193.962 -26.581)" fill="#5594c9"/>
        <path id="Trazado_799207" data-name="Trazado 799207" d="M286.312,16.938a1.777,1.777,0,0,1-1.866-1.668,1.877,1.877,0,0,1,3.731,0,1.777,1.777,0,0,1-1.866,1.668m0-2.848a1.292,1.292,0,0,0-1.378,1.18,1.395,1.395,0,0,0,2.757,0,1.292,1.292,0,0,0-1.378-1.18" transform="translate(-202.751 -9.695)" fill="#5594c9"/>
        <path id="Trazado_799208" data-name="Trazado 799208" d="M209.6,96.537a1.678,1.678,0,1,1,1.866-1.668,1.777,1.777,0,0,1-1.866,1.668m0-2.848a1.194,1.194,0,1,0,1.378,1.18,1.292,1.292,0,0,0-1.378-1.18" transform="translate(-148.068 -66.433)" fill="#f7c934"/>
        <path id="Trazado_799209" data-name="Trazado 799209" d="M429.851,170.361a1.679,1.679,0,1,1,1.866-1.668,1.777,1.777,0,0,1-1.866,1.668m0-2.849a1.194,1.194,0,1,0,1.378,1.18,1.292,1.292,0,0,0-1.378-1.18" transform="translate(-305.064 -119.054)" fill="#f7c934"/>
      </g>
    </g>
  </g>
</svg>
