<svg id="Grupo_1065080" data-name="Grupo 1065080" xmlns="http://www.w3.org/2000/svg" xmlns:xlink="http://www.w3.org/1999/xlink" width="295" height="316.267" viewBox="0 0 295 316.267">
  <defs>
    <clipPath id="clip-path">
      <rect id="Rect치ngulo_374051" data-name="Rect치ngulo 374051" width="295" height="316.267" fill="none"/>
    </clipPath>
    <clipPath id="clip-path-2">
      <path id="Trazado_799599" data-name="Trazado 799599" d="M0,153.089A147.5,147.5,0,1,0,147.5,5.59,147.5,147.5,0,0,0,0,153.089" transform="translate(0 -5.59)" fill="none"/>
    </clipPath>
  </defs>
  <g id="Grupo_1065075" data-name="Grupo 1065075">
    <g id="Grupo_1065074" data-name="Grupo 1065074" clip-path="url(#clip-path)">
      <path id="Trazado_799480" data-name="Trazado 799480" d="M295,153.089A147.5,147.5,0,1,1,147.5,5.589,147.5,147.5,0,0,1,295,153.089" transform="translate(0 -1.13)" fill="#f9e4b2"/>
    </g>
  </g>
  <g id="Grupo_1065077" data-name="Grupo 1065077" transform="translate(0 4.46)">
    <g id="Grupo_1065076" data-name="Grupo 1065076" clip-path="url(#clip-path-2)">
      <path id="Trazado_799481" data-name="Trazado 799481" d="M135.534,9.213c24.112,4.321,28.108,32.52,24.947,50.8-6.615,38.25-34.7,40.255-40.189,41.831-2.344-13.913,1.8-25.8,3.48-39.387,1.305-10.585-1.166-20.892.091-31.4Z" transform="translate(-24.172 -6.322)" fill="#e23b5b"/>
      <path id="Trazado_799482" data-name="Trazado 799482" d="M160.333,218.1a7.128,7.128,0,0,1-6.575-7.59l.018-1.259c.585-41.489-.484-70.852-2.859-78.546a12.174,12.174,0,0,0-7.039-7.993,7.092,7.092,0,0,1,3.9-13.637c4.605,1.32,13.3,6.478,16.686,17.446,3.681,11.924,3.93,51.68,3.49,82.93-.01.661-.017,1.128-.02,1.375q.008.328-.013.657a7.105,7.105,0,0,1-7.364,6.63c-.076,0-.152-.008-.23-.014" transform="translate(-28.042 -26.45)" fill="#e23b5b"/>
      <path id="Trazado_799483" data-name="Trazado 799483" d="M153.025,218.467l-.824-87.352a26.789,26.789,0,0,0-53.554,1.595l.845,82.514s1.328,4.621,29.007,6.792c21.919,1.719,24.527-3.55,24.527-3.55" transform="translate(-19.936 -25.708)" fill="#f44e66"/>
      <path id="Trazado_799484" data-name="Trazado 799484" d="M88.883,223.409a7.109,7.109,0,0,1-6.509-6.479c-.019-.221-.027-.441-.026-.657-.008-.247-.023-.712-.045-1.372-1.033-31.237-1.541-70.991,1.915-82.985,3.178-11.03,11.146-18.011,19.566-18.6l.949,14.4.123-.04a12.18,12.18,0,0,0-7.009,8.165c-2.229,7.737-2.741,37.117-1.368,78.589l.04,1.257a7.106,7.106,0,0,1-7.637,7.72" transform="translate(-16.48 -27.364)" fill="#f44e66"/>
      <path id="Trazado_799485" data-name="Trazado 799485" d="M131.184,116.809a8.217,8.217,0,0,0,6.478-9.644c-1.239-6.3.949-16.313,1.9-19.638A8.214,8.214,0,0,0,123.767,83c-.463,1.605-4.451,16.02-2.226,27.334a8.216,8.216,0,0,0,9.642,6.478" transform="translate(-24.431 -20.035)" fill="#ff7347"/>
      <path id="Trazado_799486" data-name="Trazado 799486" d="M120.894,101.41A80.732,80.732,0,0,1,123.772,83a8.214,8.214,0,0,1,15.791,4.53,69.38,69.38,0,0,0-2,10.608Z" transform="translate(-24.435 -20.035)" fill="#ff572d"/>
      <path id="Trazado_799487" data-name="Trazado 799487" d="M98.515,60.836a5.639,5.639,0,1,0,11.26.619l.083-1.5A5.64,5.64,0,0,0,98.6,59.338Z" transform="translate(-19.91 -15.377)" fill="#ff7347"/>
      <path id="Trazado_799488" data-name="Trazado 799488" d="M130.389,86.077l-5.509-.3c-10.814-.6-19.139-9.158-18.591-19.124l1.046-19.021,0,0,.445-8.047c.549-9.964,9.758-17.561,20.574-16.966l5.509.3a20.861,20.861,0,0,1,8.782,2.452,17.971,17.971,0,0,1,9.811,16.672l-1.489,27.071c-.551,9.964-9.76,17.561-20.575,16.965" transform="translate(-21.478 -9.025)" fill="#ff7347"/>
      <path id="Trazado_799489" data-name="Trazado 799489" d="M112.685,44.144a30.083,30.083,0,0,0,14.338-8.56,21.124,21.124,0,0,0,4.836-7.554,26.7,26.7,0,0,0,.939-5.187l-4.14-.227c-10.816-.6-20.026,7-20.575,16.965l-.3,5.436a27.3,27.3,0,0,0,4.9-.873" transform="translate(-21.785 -9.025)" fill="#002b43"/>
      <path id="Trazado_799490" data-name="Trazado 799490" d="M143.467,33.591a30.687,30.687,0,0,0,10.091,9.558,22.214,22.214,0,0,0,5.638,2.206l.178-3.233a17.973,17.973,0,0,0-9.811-16.672A20.872,20.872,0,0,0,140.781,23l-.276-.015a18.828,18.828,0,0,0,2.963,10.607" transform="translate(-28.399 -9.106)" fill="#002b43"/>
      <path id="Trazado_799491" data-name="Trazado 799491" d="M135.4,74.117c-.114,0-.23,0-.348-.01a.492.492,0,0,1-.463-.517.5.5,0,0,1,.517-.463,2.9,2.9,0,0,0,2.453-.815c1.122-1.257.75-3.541.746-3.564a.451.451,0,0,1-.007-.081l-.04-11.481a.488.488,0,0,1,.488-.491.48.48,0,0,1,.492.488l.041,11.444c.055.366.363,2.824-.989,4.338a3.689,3.689,0,0,1-2.892,1.151" transform="translate(-27.204 -15.919)" fill="#e04f28"/>
      <path id="Trazado_799492" data-name="Trazado 799492" d="M144.927,65.85c-.078,1.418.689,2.614,1.715,2.672s1.92-1.048,2-2.469-.69-2.613-1.714-2.668-1.922,1.047-2,2.465" transform="translate(-29.292 -17.271)" fill="#002b43"/>
      <path id="Trazado_799493" data-name="Trazado 799493" d="M122.874,64.6c-.077,1.42.69,2.615,1.717,2.671s1.919-1.047,2-2.465-.69-2.613-1.714-2.671-1.92,1.049-2,2.465" transform="translate(-24.834 -17.019)" fill="#002b43"/>
      <path id="Trazado_799494" data-name="Trazado 799494" d="M152.959,51.61a.732.732,0,0,1-.647-.385c-1.514-2.8-5.058-2.489-5.209-2.473a.735.735,0,0,1-.148-1.463c.19-.021,4.666-.432,6.65,3.235a.736.736,0,0,1-.646,1.086" transform="translate(-29.569 -14.013)" fill="#002b43"/>
      <path id="Trazado_799495" data-name="Trazado 799495" d="M121.711,49.2a.726.726,0,0,1-.418-.132.735.735,0,0,1-.186-1.023c2.376-3.427,6.78-2.525,6.967-2.485A.736.736,0,1,1,127.765,47c-.162-.033-3.642-.722-5.449,1.885a.733.733,0,0,1-.606.317" transform="translate(-24.452 -13.642)" fill="#002b43"/>
      <path id="Trazado_799496" data-name="Trazado 799496" d="M133.056,83.717c-.2,0-.4-.01-.6-.028a5.9,5.9,0,0,1-4.222-2.285.49.49,0,1,1,.78-.594,4.928,4.928,0,0,0,3.531,1.9,5.953,5.953,0,0,0,4.151-1.234.49.49,0,0,1,.593.78,6.984,6.984,0,0,1-4.23,1.459" transform="translate(-25.898 -20.754)" fill="#e04f28"/>
      <path id="Trazado_799497" data-name="Trazado 799497" d="M122.478,19.833c12.208-2.5,24.418,15.338,25.281,27C161.11-.537,99.21-3.309,89.122,31.257,76.478,74.583,94.561,108.8,135.708,105.3c8.829-.752,8.3-4.765,17.929.827.806-22.572-38.965-11.549-46.616-39.163-4.438-16.017-4.984-42.943,15.457-47.133" transform="translate(-17.211 -6.063)" fill="#f9627f"/>
      <path id="Trazado_799498" data-name="Trazado 799498" d="M294.5,12.425A12.426,12.426,0,1,1,282.072,0,12.427,12.427,0,0,1,294.5,12.425" transform="translate(-54.501 -4.46)" fill="#f44"/>
      <path id="Trazado_799499" data-name="Trazado 799499" d="M286.08,20.9a26.523,26.523,0,0,0-9.223-6.54,19.58,19.58,0,0,0-6.41-1.669l-.573-.046a12.407,12.407,0,0,0,18.8,12.851,14.447,14.447,0,0,0-2.592-4.6" transform="translate(-54.501 -7.016)" fill="#ffb646"/>
      <path id="Trazado_799500" data-name="Trazado 799500" d="M280.663,44.139c0,14.314-1.949,42.873-25.917,42.873S228.83,58.452,228.83,44.139a25.917,25.917,0,1,1,51.833,0" transform="translate(-46.251 -8.143)" fill="#f44"/>
      <path id="Trazado_799501" data-name="Trazado 799501" d="M234.982,67.705a5.639,5.639,0,1,1-11.261.62l-.085-1.5a5.641,5.641,0,0,1,11.264-.619Z" transform="translate(-45.2 -16.765)" fill="#ffa077"/>
      <path id="Trazado_799502" data-name="Trazado 799502" d="M218.8,224.964c3.215-.215,7.731-2.362,7.657-7.59l-.021-1.258c-.682-41.489.563-70.852,3.331-78.547a13.313,13.313,0,0,1,8.2-7.992c4.387-1.079,6.923-5,5.668-8.77s-5.834-5.945-10.217-4.866c-5.364,1.319-15.5,6.477-19.44,17.446-4.289,11.925-4.577,51.681-4.065,82.929.012.661.019,1.129.024,1.376a5.866,5.866,0,0,0,.015.658c.3,3.838,4.1,6.783,8.578,6.629.089,0,.179-.007.27-.014" transform="translate(-42.39 -27.838)" fill="#ffa077"/>
      <path id="Trazado_799503" data-name="Trazado 799503" d="M227.366,153.662c.585-8.13,1.392-13.843,2.4-16.655a13.311,13.311,0,0,1,8.2-7.992c4.386-1.079,6.923-5.005,5.668-8.771s3.038-8.166-1.39-7.23c-17.5,3.7-25.383,8.842-29.327,19.81-1.482,4.121-2.533,11.568-3.192,20.838Z" transform="translate(-42.39 -27.277)" fill="#825bbc"/>
      <path id="Trazado_799504" data-name="Trazado 799504" d="M219.933,225.337l.961-87.352c.511-14.788,14.895-26.419,32.124-25.98s30.778,12.787,30.264,27.574l-.983,82.515s-1.548,4.621-33.793,6.791c-25.535,1.719-28.573-3.548-28.573-3.548" transform="translate(-44.453 -27.096)" fill="#825bbc"/>
      <path id="Trazado_799505" data-name="Trazado 799505" d="M295.542,226.725c3.972-.267,7.234-2.978,7.584-6.48a6.1,6.1,0,0,0,.03-.657c.008-.247.027-.713.051-1.372,1.2-31.235,1.8-70.989-2.23-82.985-3.7-11.029-12.984-18.01-22.794-18.6l-1.105,14.4-.143-.039a13.234,13.234,0,0,1,8.163,8.164c2.6,7.739,3.193,37.117,1.594,78.588L286.645,219c-.194,5.371,4.532,7.565,7.756,7.73a9.86,9.86,0,0,0,1.14-.008" transform="translate(-55.974 -28.034)" fill="#ffa077"/>
      <path id="Trazado_799506" data-name="Trazado 799506" d="M284.363,138.617c.935,2.785,1.608,8.383,2.015,16.325h16.515a69.044,69.044,0,0,0-1.907-20.892c-1.975-7.052-10.569-19.7-27.575-20.091l-.119,17.338v1.826c.246.074,8.964-.784,11.071,5.493" transform="translate(-55.238 -27.494)" fill="#825bbc"/>
      <path id="Trazado_799507" data-name="Trazado 799507" d="M256.515,123.679a8.216,8.216,0,0,1-6.476-9.643c1.238-6.3-.95-16.313-1.9-19.638a8.214,8.214,0,0,1,15.79-4.53c.463,1.606,4.451,16.02,2.227,27.334a8.217,8.217,0,0,1-9.644,6.478" transform="translate(-50.091 -21.423)" fill="#ffa077"/>
      <path id="Trazado_799508" data-name="Trazado 799508" d="M266.811,108.279a80.765,80.765,0,0,0-2.88-18.413,8.214,8.214,0,0,0-15.79,4.53,69.281,69.281,0,0,1,2,10.608Z" transform="translate(-50.091 -21.423)" fill="#ff865e"/>
      <path id="Trazado_799509" data-name="Trazado 799509" d="M291.121,67.705a5.639,5.639,0,1,1-11.261.62l-.083-1.5a5.64,5.64,0,0,1,11.262-.619Z" transform="translate(-56.547 -16.765)" fill="#ffa077"/>
      <path id="Trazado_799510" data-name="Trazado 799510" d="M250.417,92.947l5.51-.3c10.814-.6,19.139-9.159,18.591-19.124L273.472,54.5l0,0-.444-8.047c-.55-9.963-9.76-17.561-20.574-16.965l-5.509.3a20.873,20.873,0,0,0-8.783,2.451,17.974,17.974,0,0,0-9.811,16.672l1.489,27.072c.55,9.964,9.759,17.561,20.573,16.965" transform="translate(-46.15 -10.413)" fill="#ffa077"/>
      <path id="Trazado_799511" data-name="Trazado 799511" d="M277.33,50.245c1.29,1.493,2.575,3.126,3.986,4.615,0,0,1.354.2,1.354-7S276.1,32.515,267.7,29.317a40.557,40.557,0,0,0,9.628,20.928" transform="translate(-54.108 -10.386)" fill="#f44"/>
      <path id="Trazado_799512" data-name="Trazado 799512" d="M232.892,45.085a82.4,82.4,0,0,0,10.467-3.651,48.532,48.532,0,0,0,8.023-3.959,66.964,66.964,0,0,0,9.115-7.889,24.686,24.686,0,0,0-11.362-2.047l-6.523.358a24.732,24.732,0,0,0-10.4,2.9,21.613,21.613,0,0,0-11.554,16.693,87.112,87.112,0,0,0,12.239-2.408" transform="translate(-44.599 -10.019)" fill="#f44"/>
      <path id="Trazado_799513" data-name="Trazado 799513" d="M255.906,80.987a3.688,3.688,0,0,1-2.892-1.151c-1.352-1.514-1.044-3.973-.989-4.34l.04-11.443a.489.489,0,0,1,.49-.489h0a.49.49,0,0,1,.488.492l-.04,11.481a.541.541,0,0,1-.006.08c0,.023-.37,2.318.748,3.568A2.919,2.919,0,0,0,256.2,80a.5.5,0,0,1,.517.463.491.491,0,0,1-.462.517c-.119.006-.234.01-.348.01" transform="translate(-50.926 -17.308)" fill="#ff5d56"/>
      <path id="Trazado_799514" data-name="Trazado 799514" d="M246.644,72.719c.078,1.419-.689,2.615-1.716,2.672s-1.918-1.047-2-2.468.69-2.614,1.714-2.668,1.921,1.046,2,2.464" transform="translate(-49.1 -18.66)" fill="#002b43"/>
      <path id="Trazado_799515" data-name="Trazado 799515" d="M268.7,71.474c.077,1.42-.689,2.615-1.715,2.671s-1.921-1.047-2-2.465.69-2.614,1.714-2.671,1.92,1.049,2,2.465" transform="translate(-53.558 -18.408)" fill="#002b43"/>
      <path id="Trazado_799516" data-name="Trazado 799516" d="M237.682,58.479a.735.735,0,0,1-.647-1.085c1.985-3.669,6.46-3.255,6.65-3.237a.736.736,0,0,1-.147,1.465c-.153-.018-3.7-.325-5.209,2.472a.737.737,0,0,1-.648.385" transform="translate(-47.892 -15.402)" fill="#002b43"/>
      <path id="Trazado_799517" data-name="Trazado 799517" d="M268.859,56.071a.733.733,0,0,1-.606-.317c-1.823-2.628-5.412-1.892-5.449-1.884a.736.736,0,0,1-.309-1.439c.187-.04,4.592-.941,6.966,2.485a.735.735,0,0,1-.6,1.154" transform="translate(-52.938 -15.03)" fill="#002b43"/>
      <path id="Trazado_799518" data-name="Trazado 799518" d="M257.09,90.586a6.985,6.985,0,0,1-4.23-1.458.49.49,0,0,1,.6-.78,5.966,5.966,0,0,0,4.149,1.234,4.929,4.929,0,0,0,3.53-1.9.491.491,0,0,1,.781.594,5.9,5.9,0,0,1-4.222,2.285q-.3.028-.6.027" transform="translate(-51.069 -22.143)" fill="#ff5d56"/>
      <path id="Trazado_799519" data-name="Trazado 799519" d="M239.967,205.763c-1.091-9.345-8.652-17.3-16.282-19.166a22.148,22.148,0,0,0,1.817-8.854c0-10.84-7.555-19.626-16.875-19.626a14.4,14.4,0,0,0-1.954.136c-3.153-15.138-18.545-24.085-32.24-24.085s-24.555,8.947-27.709,24.085a14.383,14.383,0,0,0-1.953-.136c-9.32,0-16.874,8.786-16.874,19.626a22.188,22.188,0,0,0,1.815,8.854c-7.629,1.864-15.191,9.821-16.282,19.166-4.9,42,10.926,71.589,63.269,71.589s68.169-29.587,63.268-71.589" transform="translate(-22.756 -31.578)" fill="#ffb646"/>
      <path id="Trazado_799520" data-name="Trazado 799520" d="M120.637,353.67a7.869,7.869,0,0,1-7.889-7.786l-.09-1.388c-2.936-45.717-6.647-77.944-9.924-86.208A13.44,13.44,0,0,0,94.3,250.1a7.83,7.83,0,0,1,3.12-15.346c5.181,1.055,15.2,5.982,19.871,17.762,5.081,12.808,8.785,56.544,11,90.978.047.728.08,1.243.1,1.515.026.239.038.48.042.725a7.845,7.845,0,0,1-7.534,7.932c-.083,0-.168,0-.255,0" transform="translate(-17.792 -51.876)" fill="#a0525f"/>
      <path id="Trazado_799521" data-name="Trazado 799521" d="M93.347,249.708a13.435,13.435,0,0,1,8.436,8.189c1.364,3.438,2.8,11.035,4.229,22.014h15.775c-1.589-12.512-3.408-22.644-5.449-27.789-4.673-11.779-12.713-20.151-31.7-19.424-4.319.166,3.456,3.538,2.595,7.778a7.831,7.831,0,0,0,6.113,9.232" transform="translate(-16.841 -51.484)" fill="#69ace8"/>
      <path id="Trazado_799522" data-name="Trazado 799522" d="M113.039,354.261l-8.446-96.073a29.576,29.576,0,0,0-58.808,6.377l8.051,90.749s1.861,4.972,32.515,4.972c24.273,0,26.687-6.024,26.687-6.024" transform="translate(-9.219 -51.311)" fill="#69ace8"/>
      <path id="Trazado_799523" data-name="Trazado 799523" d="M43.228,365.667A7.851,7.851,0,0,1,35.5,359.1q-.06-.363-.086-.723c-.029-.27-.086-.78-.167-1.5-3.833-34.293-7.823-78-5.054-91.5,2.545-12.415,11.547-19.013,16.465-20.956l5.752,14.565.132-.054a13.448,13.448,0,0,0-7.009,9.59c-1.786,8.71.186,41.092,5.276,86.619l.154,1.38a7.871,7.871,0,0,1-6.661,9.083,7.969,7.969,0,0,1-1.078.076" transform="translate(-5.917 -53.86)" fill="#a0525f"/>
      <path id="Trazado_799524" data-name="Trazado 799524" d="M45.209,288.728c-.5-10.976-.412-18.652.33-22.259,1.448-7.062,15.977-12.222,16.2-12.321l-2.027-7.178.885-12.658c-26.915,8.057-27.856,16.6-30.4,29.012-1.024,5-1.123,14.138-.646,25.4Z" transform="translate(-5.917 -51.82)" fill="#69ace8"/>
      <path id="Trazado_799525" data-name="Trazado 799525" d="M222.9,353.755,217.5,258.6c-1.758-16.238-11.583-24.568-37.436-24.126-25.618.438-33.59,6.415-35.511,17.284-.74,4.189-4.758,105.768-4.758,105.768s14.312,4.973,44.965,4.973c24.273,0,38.141-8.748,38.141-8.748" transform="translate(-28.256 -51.85)" fill="#e1f8f9"/>
      <path id="Trazado_799526" data-name="Trazado 799526" d="M192.043,244.469a9.073,9.073,0,0,0,6.3-11.174c-1.909-6.83-.364-18.038.392-21.779a9.069,9.069,0,0,0-17.772-3.622c-.369,1.806-3.515,18.017-.09,30.276a9.072,9.072,0,0,0,11.173,6.3" transform="translate(-36.238 -45.015)" fill="#ffa077"/>
      <path id="Trazado_799527" data-name="Trazado 799527" d="M179.381,228.409a89.174,89.174,0,0,1,1.579-20.514,9.069,9.069,0,0,1,17.772,3.622,76.625,76.625,0,0,0-1.289,11.849Z" transform="translate(-36.238 -45.015)" fill="#ff865e"/>
      <path id="Trazado_799528" data-name="Trazado 799528" d="M216.339,184.268a6.226,6.226,0,1,0,12.449-.289l-.037-1.657a6.226,6.226,0,0,0-12.449.29Z" transform="translate(-43.719 -40.082)" fill="#ffa077"/>
      <path id="Trazado_799529" data-name="Trazado 799529" d="M150.881,185.793a6.225,6.225,0,1,0,12.447-.289l-.037-1.659a6.226,6.226,0,0,0-12.449.291Z" transform="translate(-30.488 -40.39)" fill="#ffa077"/>
      <path id="Trazado_799530" data-name="Trazado 799530" d="M188.794,210.443l-6.09.145c-11.955.275-21.856-8.429-22.113-19.444l-.49-21.027h0l-.207-8.9c-.255-11.013,9.227-20.171,21.182-20.45l6.09-.141a23.03,23.03,0,0,1,9.879,1.939c7.1,3.135,12.056,9.751,12.236,17.5l.7,29.926c.253,11.014-9.227,20.17-21.182,20.447" transform="translate(-32.316 -32.882)" fill="#ffa077"/>
      <path id="Trazado_799531" data-name="Trazado 799531" d="M205.815,161.793c2.5,1.936,7.917,6.136,10.866,7.146l4.176-8.166c-.18-7.754-8.524-16.4-15.622-19.537a34.452,34.452,0,0,0-9.825-2.184c1.008,7.5,4.6,18.254,10.405,22.741" transform="translate(-39.496 -32.565)" fill="#ffb646"/>
      <path id="Trazado_799532" data-name="Trazado 799532" d="M177.407,159.846c4.933-4.381,9.061-15.064,10.848-21.01-.215,0-1.044-.861-1.261-.856l-7.264.784c-11.655.271-22.945,9.6-23.859,30.619,1.47.207,6.237,4.057,21.536-9.537" transform="translate(-31.505 -32.349)" fill="#ffb646"/>
      <path id="Trazado_799533" data-name="Trazado 799533" d="M189.044,197.286a.541.541,0,0,1-.013-1.083,3.207,3.207,0,0,0,2.627-1.106c1.125-1.472.523-3.966.516-3.992a.52.52,0,0,1-.014-.087l-1.035-12.634a.54.54,0,0,1,.5-.583.534.534,0,0,1,.583.5l1.032,12.592c.093.4.645,3.077-.713,4.861a4.227,4.227,0,0,1-3.465,1.536Z" transform="translate(-38.1 -40.397)" fill="#ff5d56"/>
      <path id="Trazado_799534" data-name="Trazado 799534" d="M201.3,187.391c.036,1.569.983,2.819,2.118,2.793s2.022-1.319,1.986-2.888-.987-2.817-2.119-2.79-2.024,1.318-1.985,2.884" transform="translate(-40.687 -41.753)" fill="#002b43"/>
      <path id="Trazado_799535" data-name="Trazado 799535" d="M176.922,187.927c.037,1.569.985,2.818,2.119,2.791s2.022-1.317,1.984-2.886-.985-2.816-2.116-2.791-2.023,1.32-1.988,2.886" transform="translate(-35.759 -41.861)" fill="#002b43"/>
      <path id="Trazado_799536" data-name="Trazado 799536" d="M208.881,180.4a.811.811,0,0,1-.681-.371c-1.907-2.947-5.782-2.3-5.947-2.273a.812.812,0,0,1-.288-1.6c.207-.036,5.1-.878,7.6,2.989a.812.812,0,0,1-.682,1.253" transform="translate(-40.686 -40.045)" fill="#002b43"/>
      <path id="Trazado_799537" data-name="Trazado 799537" d="M174.33,180.349a.8.8,0,0,1-.409-.111.811.811,0,0,1-.292-1.11c2.319-3.977,7.246-3.365,7.453-3.337a.812.812,0,0,1-.216,1.61c-.188-.026-4.072-.479-5.833,2.544a.812.812,0,0,1-.7.4" transform="translate(-35.072 -39.981)" fill="#002b43"/>
      <path id="Trazado_799538" data-name="Trazado 799538" d="M190.169,208.136h-.091a6.511,6.511,0,0,1-4.846-2.151.542.542,0,0,1,.807-.722,5.445,5.445,0,0,0,4.051,1.791,6.608,6.608,0,0,0,4.46-1.717.541.541,0,1,1,.721.807,7.658,7.658,0,0,1-5.1,1.992" transform="translate(-37.411 -45.911)" fill="#ff5d56"/>
      <path id="Trazado_799539" data-name="Trazado 799539" d="M174.03,198.886a.555.555,0,1,1-.555-.555.555.555,0,0,1,.555.555" transform="translate(-34.951 -44.547)" fill="#ff5d56"/>
      <path id="Trazado_799540" data-name="Trazado 799540" d="M177.955,197.9a.555.555,0,1,1-.554-.555.554.554,0,0,1,.554.555" transform="translate(-35.744 -44.348)" fill="#ff5d56"/>
      <path id="Trazado_799541" data-name="Trazado 799541" d="M179.918,200.85a.555.555,0,1,1-.555-.555.555.555,0,0,1,.555.555" transform="translate(-36.141 -44.944)" fill="#ff5d56"/>
      <path id="Trazado_799542" data-name="Trazado 799542" d="M205.433,199.868a.555.555,0,1,1-.555-.556.555.555,0,0,1,.555.556" transform="translate(-41.298 -44.745)" fill="#ff5d56"/>
      <path id="Trazado_799543" data-name="Trazado 799543" d="M206.414,196.924a.555.555,0,1,1-.554-.555.554.554,0,0,1,.554.555" transform="translate(-41.496 -44.15)" fill="#ff5d56"/>
      <path id="Trazado_799544" data-name="Trazado 799544" d="M210.339,199.868a.555.555,0,1,1-.554-.556.555.555,0,0,1,.554.556" transform="translate(-42.289 -44.745)" fill="#ff5d56"/>
      <path id="Trazado_799545" data-name="Trazado 799545" d="M117.652,235.262a112.114,112.114,0,0,1-13.041-2.809c-30.921-8.408-50.392-11.913-60.632-3.626-2.865,2.319-6.19,6.689-5.764,14.352a7.83,7.83,0,1,0,15.635-.869,4.732,4.732,0,0,1,.074-1.375c.53-.318,3.409-1.593,13.746.025,8.8,1.375,20.447,5.9,32.831,10.529a70.743,70.743,0,0,0,18.63,4.654,87.576,87.576,0,0,0-1.479-20.882" transform="translate(-7.717 -49.756)" fill="#f7916d"/>
      <path id="Trazado_799546" data-name="Trazado 799546" d="M166.478,244.4c-.886-4.233-3.72-7.917-7.949-7.031-5.9,1.236-12.186,1.426-25.923-.014.423,5.409-.821,16.08-2.034,21.346a29.918,29.918,0,0,1,6.57,2.342c8.026,4.289.874,16.088,7.328,14.736,4.232-.886,22.9-27.145,22.009-31.379" transform="translate(-26.391 -52.41)" fill="#e1f8f9"/>
      <path id="Trazado_799547" data-name="Trazado 799547" d="M243.866,235.262a112.125,112.125,0,0,0,13.042-2.809c30.921-8.408,50.392-11.913,60.632-3.626,2.865,2.319,6.19,6.689,5.763,14.352a7.829,7.829,0,1,1-15.634-.869,4.689,4.689,0,0,0-.075-1.375c-.529-.318-3.409-1.593-13.745.025-8.8,1.375-20.447,5.9-32.832,10.529a70.728,70.728,0,0,1-18.63,4.654,87.618,87.618,0,0,1,1.479-20.882" transform="translate(-48.966 -49.756)" fill="#f7916d"/>
      <path id="Trazado_799548" data-name="Trazado 799548" d="M206.477,244.4c.886-4.233,3.719-7.917,7.95-7.031,5.9,1.236,12.185,1.426,25.922-.014-.422,5.409.821,16.08,2.035,21.346a29.881,29.881,0,0,0-6.569,2.342c-8.027,4.289-.874,16.088-7.329,14.736-4.232-.886-22.894-27.145-22.009-31.379" transform="translate(-41.727 -52.41)" fill="#e1f8f9"/>
      <path id="Trazado_799549" data-name="Trazado 799549" d="M57.445,258.916a3.133,3.133,0,0,1-2.851-1.83c-2.038-4.455-3.629-9.3-3.695-9.508a3.132,3.132,0,1,1,5.955-1.944c.016.045,1.551,4.723,3.436,8.846a3.136,3.136,0,0,1-2.845,4.437" transform="translate(-10.256 -53.671)" fill="#f7916d"/>
      <path id="Trazado_799550" data-name="Trazado 799550" d="M53.5,269.459a3.127,3.127,0,0,1-2.53-1.282,37.113,37.113,0,0,1-6.872-18.5,3.132,3.132,0,0,1,6.258-.29,31.252,31.252,0,0,0,5.669,15.088,3.132,3.132,0,0,1-2.524,4.981" transform="translate(-8.913 -54.264)" fill="#f7916d"/>
      <path id="Trazado_799551" data-name="Trazado 799551" d="M45.042,270.615a3.122,3.122,0,0,1-2.214-.917c-6.9-6.9-4.707-21.9-4.434-23.593a3.131,3.131,0,0,1,6.183,1c-.554,3.463-1.25,14.233,2.68,18.165a3.131,3.131,0,0,1-2.215,5.346" transform="translate(-7.65 -53.671)" fill="#f7916d"/>
      <path id="Trazado_799552" data-name="Trazado 799552" d="M35.345,263.917a3.136,3.136,0,0,1-2.935-2.037c-6.456-17.283,7.518-29.9,8.116-30.426a3.131,3.131,0,0,1,4.155,4.686c-.469.421-11.334,10.349-6.4,23.546a3.135,3.135,0,0,1-2.933,4.23" transform="translate(-6.207 -51.083)" fill="#f7916d"/>
      <path id="Trazado_799553" data-name="Trazado 799553" d="M65.578,197.136c-5.077,14.3-34.536,12.083-30.037-4.936-14.173,8.789-23.663-12.469-13.414-18.53-13.286,1.1-15.832-21.352-1.55-23.258-6.076-7.53-2.23-21.553,8.789-18.812-4.042-10.88,10.041-17.581,18.281-13.929,6.542-7.933,19.07-1.8,22.329,6.82,6.489-6.864,20.36-4.757,21.151,5.686,8.147,0,11.721,9.754,8.891,14.033,4.488,3.4,5.277,10.017,2.441,15.089,5.708,6.172,5.129,16.645-2.7,21.037,3.866,6.843-1.739,13.117-8.659,15.089,1.9,15.234-22.155,12.173-27.443,3.026Z" transform="translate(-2.215 -27.501)" fill="#002b43"/>
      <path id="Trazado_799554" data-name="Trazado 799554" d="M80.179,244.622c2.714-.759,4.793-1.554,5.853-3.942.825-1.858.444-4.465.444-7.232,0-7.091-.362-18.036.393-21.778A9.069,9.069,0,0,0,69.1,208.048c-.369,1.807-3.515,18.016-.091,30.276a9.072,9.072,0,0,0,11.173,6.3" transform="translate(-13.628 -45.046)" fill="#a0525f"/>
      <path id="Trazado_799555" data-name="Trazado 799555" d="M86.934,240.212H66.289c.25,2.076-.3,4.8-.3,6.821,0,8.079,9.074,10.917,13.9,9.575,2.714-.759,5.985-2.4,7.045-4.793.825-1.857,0-11.193,0-11.6" transform="translate(-13.338 -53.012)" fill="#69ace8"/>
      <path id="Trazado_799556" data-name="Trazado 799556" d="M67.518,228.562A89.119,89.119,0,0,1,69.1,208.048a9.069,9.069,0,0,1,17.772,3.622c-.441,2.189-.339,6.924-.474,11.849Z" transform="translate(-13.628 -45.046)" fill="#753845"/>
      <path id="Trazado_799557" data-name="Trazado 799557" d="M100.8,184.421a6.226,6.226,0,1,0,12.448-.289l-.037-1.658a6.226,6.226,0,0,0-12.449.29Z" transform="translate(-20.365 -40.113)" fill="#a0525f"/>
      <path id="Trazado_799558" data-name="Trazado 799558" d="M39.018,185.947a6.225,6.225,0,1,0,12.447-.29L51.428,184a6.226,6.226,0,0,0-12.449.291Z" transform="translate(-7.878 -40.421)" fill="#a0525f"/>
      <path id="Trazado_799559" data-name="Trazado 799559" d="M76.931,210.6l-6.09.144c-11.955.275-21.856-8.429-22.113-19.444l-.491-21.028,0,0-.206-8.9c-.255-11.014,9.227-20.171,21.183-20.449l6.089-.143a23.034,23.034,0,0,1,9.878,1.94c7.1,3.134,12.058,9.75,12.238,17.5l.7,29.926c.255,11.014-9.226,20.17-21.181,20.448" transform="translate(-9.706 -32.913)" fill="#a0525f"/>
      <path id="Trazado_799560" data-name="Trazado 799560" d="M80.6,197.438a.541.541,0,0,1-.013-1.082,3.21,3.21,0,0,0,2.627-1.106c1.124-1.471.522-3.967.515-3.992a.6.6,0,0,1-.014-.087l-1.035-12.633a.541.541,0,1,1,1.079-.089l1.032,12.592c.093.4.645,3.078-.713,4.861a4.217,4.217,0,0,1-3.466,1.536Z" transform="translate(-16.182 -40.428)" fill="#753845"/>
      <path id="Trazado_799561" data-name="Trazado 799561" d="M90.449,187.546c.037,1.568.985,2.818,2.12,2.793s2.02-1.318,1.984-2.888-.985-2.817-2.118-2.79-2.023,1.319-1.986,2.886" transform="translate(-18.281 -41.784)" fill="#002b43"/>
      <path id="Trazado_799562" data-name="Trazado 799562" d="M66.068,188.079c.037,1.569.985,2.82,2.12,2.792s2.022-1.318,1.985-2.886-.986-2.817-2.118-2.793-2.023,1.32-1.988,2.887" transform="translate(-13.353 -41.891)" fill="#002b43"/>
      <path id="Trazado_799563" data-name="Trazado 799563" d="M97.959,171.193a.807.807,0,0,1-.682-.372c-1.908-2.946-5.784-2.3-5.947-2.272a.812.812,0,0,1-.289-1.6c.207-.037,5.1-.878,7.6,2.988a.812.812,0,0,1-.681,1.253" transform="translate(-18.267 -38.184)" fill="#002b43"/>
      <path id="Trazado_799564" data-name="Trazado 799564" d="M63.406,171.143a.794.794,0,0,1-.409-.112.812.812,0,0,1-.293-1.111c2.319-3.977,7.245-3.364,7.454-3.336a.812.812,0,1,1-.216,1.609c-.187-.026-4.072-.478-5.834,2.545a.811.811,0,0,1-.7.4" transform="translate(-12.652 -38.12)" fill="#002b43"/>
      <path id="Trazado_799565" data-name="Trazado 799565" d="M78.307,208.291h-.093a6.511,6.511,0,0,1-4.844-2.15.542.542,0,0,1,.807-.723,5.439,5.439,0,0,0,4.051,1.79,6.61,6.61,0,0,0,4.46-1.716.541.541,0,1,1,.721.807,7.667,7.667,0,0,1-5.1,1.992" transform="translate(-14.802 -45.943)" fill="#753845"/>
      <path id="Trazado_799566" data-name="Trazado 799566" d="M98.027,121.577c-3.347-4.9-11.7-8.591-17.622-3.638-1.735-6.564-9.644-10.338-17.872-8.454-8.356,1.916-13.878,8.943-12.346,15.705-.522.105-1.046.222-1.571.361-10.534,2.771-17.45,11.183-15.448,18.791S45.33,155.87,55.863,153.1a23.875,23.875,0,0,0,12.577-7.777c1.185.42-.685,4.732.23,6.293a3.273,3.273,0,0,0,4.48,1.167,27.62,27.62,0,0,0,6.359-5.015c4.371,2.266,9.118,2.45,12.682.014,5.858-4,11.157-18.421,5.836-26.2" transform="translate(-6.634 -26.492)" fill="#002b43"/>
      <path id="Trazado_799567" data-name="Trazado 799567" d="M62.113,197.4a13.161,13.161,0,1,1,13.144-13.854c.012.228.018.46.018.693A13.177,13.177,0,0,1,62.113,197.4m0-24.544A11.383,11.383,0,1,0,73.5,184.236c0-.2-.006-.4-.015-.6a11.374,11.374,0,0,0-11.369-10.783" transform="translate(-9.894 -39.038)" fill="#fff"/>
      <path id="Trazado_799568" data-name="Trazado 799568" d="M100.482,197.4a13.161,13.161,0,1,1,13.163-13.162A13.176,13.176,0,0,1,100.482,197.4m0-24.544a11.383,11.383,0,1,0,11.385,11.383,11.395,11.395,0,0,0-11.385-11.383" transform="translate(-17.649 -39.038)" fill="#fff"/>
      <rect id="Rect치ngulo_374052" data-name="Rect치ngulo 374052" width="6.069" height="1.778" transform="translate(65.223 142.933)" fill="#fff"/>
      <path id="Trazado_799569" data-name="Trazado 799569" d="M322.084,258.916a3.135,3.135,0,0,0,2.85-1.83c2.038-4.455,3.626-9.3,3.695-9.508a3.132,3.132,0,0,0-5.955-1.944c-.014.045-1.551,4.723-3.436,8.846a3.136,3.136,0,0,0,2.846,4.437" transform="translate(-64.467 -53.671)" fill="#f7916d"/>
      <path id="Trazado_799570" data-name="Trazado 799570" d="M325.341,269.459a3.128,3.128,0,0,0,2.53-1.282,37.1,37.1,0,0,0,6.871-18.5,3.132,3.132,0,0,0-6.257-.29,31.239,31.239,0,0,1-5.67,15.088,3.132,3.132,0,0,0,2.525,4.981" transform="translate(-65.126 -54.264)" fill="#f7916d"/>
      <path id="Trazado_799571" data-name="Trazado 799571" d="M334.362,270.615a3.124,3.124,0,0,0,2.216-.917c6.9-6.9,4.707-21.9,4.433-23.593a3.132,3.132,0,0,0-6.184,1c.555,3.463,1.251,14.233-2.678,18.165a3.131,3.131,0,0,0,2.213,5.346" transform="translate(-66.948 -53.671)" fill="#f7916d"/>
      <path id="Trazado_799572" data-name="Trazado 799572" d="M342.87,263.917a3.133,3.133,0,0,0,2.934-2.037c6.457-17.283-7.518-29.9-8.115-30.426a3.131,3.131,0,0,0-4.155,4.686c.469.421,11.334,10.349,6.4,23.546a3.136,3.136,0,0,0,2.935,4.23" transform="translate(-67.201 -51.083)" fill="#f7916d"/>
      <path id="Trazado_799573" data-name="Trazado 799573" d="M251.782,357.384h-.033a7.963,7.963,0,0,1-7.79-7.83c-.006-.243,0-.562.018-.8.01-.274.025-.826.049-1.556,1.072-34.487,3.329-78.339,7.985-91.31,4.281-11.928,14.129-17.193,19.273-18.417l3.626,15.229.138-.038a13.438,13.438,0,0,0-8.3,8.5c-3.006,8.368-5.647,40.7-7.072,86.489l-.043,1.539a8.016,8.016,0,0,1-7.851,8.2" transform="translate(-49.309 -52.458)" fill="#ff7347"/>
      <path id="Trazado_799574" data-name="Trazado 799574" d="M265.6,268.311c.5,2.414,1.088,4.814,1.731,7.2.864-7.3,1.793-12.478,2.758-15.169a13.438,13.438,0,0,1,8.3-8.5l-.138.034,2.743-18.447c-9.662,3.213-14.027,6.125-16.23,8.327-9.205,24.022-.927,18.083.837,26.552" transform="translate(-52.651 -51.642)" fill="#7bc984"/>
      <path id="Trazado_799575" data-name="Trazado 799575" d="M254.31,351.25l4.725-93.063a29.576,29.576,0,0,1,58.808,6.377L313.511,352.3s-1.86,4.972-32.513,4.972c-24.275,0-26.688-6.023-26.688-6.023" transform="translate(-51.401 -51.311)" fill="#7bc984"/>
      <path id="Trazado_799576" data-name="Trazado 799576" d="M335.188,358.329c-.155,0-.31,0-.467-.014a7.871,7.871,0,0,1-7.353-8.532l.046-1.383c1.513-45.789.945-78.227-1.516-86.771a13.442,13.442,0,0,0-7.739-9.014l.136.043,4.594-14.969c5.055,1.55,14.547,7.426,18.055,19.6,3.815,13.246,3.259,57.136,2.12,91.624-.024.724-.043,1.238-.049,1.509q0,.359-.029.723a7.848,7.848,0,0,1-7.8,7.18" transform="translate(-64.307 -52.502)" fill="#ff7347"/>
      <path id="Trazado_799577" data-name="Trazado 799577" d="M329.478,250.024a14.641,14.641,0,0,1,4.7-3.234c-7.214-9.524-19.248-12.292-22.72-13.358l.025,18-3.388,2.148c.235.081,8.481.71,16.219,9.127a16.867,16.867,0,0,1,5.163-12.682" transform="translate(-62.273 -51.642)" fill="#7bc984"/>
      <path id="Trazado_799578" data-name="Trazado 799578" d="M300.322,138.534c-43.947.413-34.876,23.629-35.282,36.44-.241,7.6,7.222,12.879,16.743-.539,5.6-7.888.374-4.8,4-13.657,1.945-4.746,4-8.912,3.133-14.138Z" transform="translate(-53.466 -32.461)" fill="#002b43"/>
      <path id="Trazado_799579" data-name="Trazado 799579" d="M294.617,244.622a9.074,9.074,0,0,1-6.3-11.174c1.909-6.829.364-18.036-.392-21.778a9.069,9.069,0,0,1,17.772-3.622c.369,1.807,3.515,18.016.091,30.276a9.073,9.073,0,0,1-11.173,6.3" transform="translate(-58.159 -45.046)" fill="#ff7347"/>
      <path id="Trazado_799580" data-name="Trazado 799580" d="M307.278,228.562a89.218,89.218,0,0,0-1.579-20.514,9.069,9.069,0,0,0-17.772,3.622,76.467,76.467,0,0,1,1.287,11.849Z" transform="translate(-58.159 -45.046)" fill="#ff572d"/>
      <path id="Trazado_799581" data-name="Trazado 799581" d="M275.807,186.658a6.226,6.226,0,1,1-12.448-.289l.037-1.657a6.226,6.226,0,1,1,12.449.289Z" transform="translate(-53.23 -40.565)" fill="#ff7347"/>
      <path id="Trazado_799582" data-name="Trazado 799582" d="M337.586,183.845a6.226,6.226,0,1,1-12.449-.29l.038-1.657a6.226,6.226,0,0,1,12.449.29Z" transform="translate(-65.717 -39.997)" fill="#ff7347"/>
      <path id="Trazado_799583" data-name="Trazado 799583" d="M290.147,210.6l6.089.144c11.956.275,21.856-8.429,22.114-19.444l.49-21.028,0,0,.207-8.9c.255-11.014-9.227-20.171-21.183-20.449l-6.089-.143a23.039,23.039,0,0,0-9.878,1.94c-7.1,3.134-12.056,9.75-12.237,17.5l-.7,29.926c-.254,11.014,9.227,20.17,21.181,20.448" transform="translate(-54.363 -32.913)" fill="#ff7347"/>
      <path id="Trazado_799584" data-name="Trazado 799584" d="M311.648,167.247c.049,1.966.391,4.12,2.259,5.2a4.015,4.015,0,0,0,3.535.548c.317-.131,3.548-1.913,4.364-10.85,1.435-15.716-7.852-25.633-23.229-25.633s-21.687,3.517-24.657,5.213c-9.687,5.529-7.427,10.87-5.055,13.143,1.171,1.123,4.049,1.682,9.993,1.009,6.823-.771,16.046-4.626,21.018-4.56,4.1.055,9.133,1.025,11.152,5.05,1.664,3.32.533,7.359.621,10.884" transform="translate(-53.927 -32.051)" fill="#002b43"/>
      <path id="Trazado_799585" data-name="Trazado 799585" d="M296.671,197.438h-.014a4.214,4.214,0,0,1-3.464-1.536c-1.359-1.782-.807-4.461-.714-4.861l1.031-12.592a.542.542,0,1,1,1.08.089l-1.036,12.633a.51.51,0,0,1-.014.087c-.006.025-.607,2.521.515,3.992a3.214,3.214,0,0,0,2.629,1.106.541.541,0,0,1-.013,1.082" transform="translate(-59.078 -40.428)" fill="#892923"/>
      <path id="Trazado_799586" data-name="Trazado 799586" d="M287.029,187.546c-.038,1.568-.984,2.818-2.12,2.793s-2.02-1.318-1.985-2.888.987-2.817,2.118-2.79,2.024,1.319,1.988,2.886" transform="translate(-57.185 -41.784)" fill="#002b43"/>
      <path id="Trazado_799587" data-name="Trazado 799587" d="M311.409,188.079c-.038,1.569-.985,2.82-2.119,2.792s-2.022-1.318-1.985-2.886.985-2.817,2.118-2.793,2.023,1.32,1.987,2.887" transform="translate(-62.112 -41.891)" fill="#002b43"/>
      <path id="Trazado_799588" data-name="Trazado 799588" d="M280.064,176.456a.821.821,0,0,1-.441-.13.812.812,0,0,1-.239-1.123c2.5-3.864,7.389-3.025,7.6-2.987a.812.812,0,1,1-.289,1.6c-.172-.029-4.041-.673-5.946,2.272a.813.813,0,0,1-.683.371" transform="translate(-56.443 -39.248)" fill="#002b43"/>
      <path id="Trazado_799589" data-name="Trazado 799589" d="M314.647,176.406a.814.814,0,0,1-.7-.4c-1.767-3.033-5.67-2.568-5.835-2.545a.812.812,0,0,1-.215-1.61c.209-.027,5.135-.641,7.453,3.337a.812.812,0,0,1-.292,1.11.8.8,0,0,1-.41.111" transform="translate(-62.09 -39.184)" fill="#002b43"/>
      <path id="Trazado_799590" data-name="Trazado 799590" d="M297.2,211.386a7.655,7.655,0,0,1-5.1-1.993.541.541,0,1,1,.721-.806,6.65,6.65,0,0,0,4.46,1.716,5.446,5.446,0,0,0,4.052-1.791.542.542,0,1,1,.807.723,6.512,6.512,0,0,1-4.845,2.151Z" transform="translate(-59.001 -46.568)" fill="#892923"/>
      <path id="Trazado_799591" data-name="Trazado 799591" d="M303.65,228.911c0,2.778-2.593,5.161-5.795,5.161H297.7c-3.2,0-5.8-2.382-5.8-5.161v-6.25c0-2.778,2.6-5.032,5.8-5.032h.155c3.2,0,5.795,2.254,5.795,5.032Z" transform="translate(-59 -48.447)" fill="#002b43"/>
      <path id="Trazado_799592" data-name="Trazado 799592" d="M310.955,208.889a2.593,2.593,0,0,1-3.444,1.262l-5.949-2.759a2.6,2.6,0,0,1-1.261-3.444l.124-.266a2.594,2.594,0,0,1,3.444-1.262l5.948,2.759a2.594,2.594,0,0,1,1.263,3.444Z" transform="translate(-60.648 -45.325)" fill="#002b43"/>
      <path id="Trazado_799593" data-name="Trazado 799593" d="M280.8,208.889a2.592,2.592,0,0,0,3.443,1.262l5.95-2.759a2.593,2.593,0,0,0,1.261-3.444l-.123-.266a2.594,2.594,0,0,0-3.444-1.262l-5.948,2.759a2.593,2.593,0,0,0-1.262,3.444Z" transform="translate(-56.681 -45.325)" fill="#002b43"/>
      <path id="Trazado_799594" data-name="Trazado 799594" d="M332.965,229.239a17.643,17.643,0,0,0-5.956-3.1h-8.28l1.826,8.057c3.815,2.849,2.157,6.971,2.461,7.155a4.6,4.6,0,0,1,.077,1.374,7.83,7.83,0,1,0,15.635.869c.426-7.662-2.9-12.033-5.764-14.352" transform="translate(-64.422 -50.167)" fill="#f7916d"/>
      <path id="Trazado_799595" data-name="Trazado 799595" d="M322.084,258.916a3.135,3.135,0,0,0,2.85-1.83c2.038-4.455,3.626-9.3,3.695-9.508a3.132,3.132,0,0,0-5.955-1.944c-.014.045-1.551,4.723-3.436,8.846a3.136,3.136,0,0,0,2.846,4.437" transform="translate(-64.467 -53.671)" fill="#f7916d"/>
      <path id="Trazado_799596" data-name="Trazado 799596" d="M325.341,269.459a3.128,3.128,0,0,0,2.53-1.282,37.1,37.1,0,0,0,6.871-18.5,3.132,3.132,0,0,0-6.257-.29,31.239,31.239,0,0,1-5.67,15.088,3.132,3.132,0,0,0,2.525,4.981" transform="translate(-65.126 -54.264)" fill="#f7916d"/>
      <path id="Trazado_799597" data-name="Trazado 799597" d="M334.362,270.615a3.124,3.124,0,0,0,2.216-.917c6.9-6.9,4.707-21.9,4.433-23.593a3.132,3.132,0,0,0-6.184,1c.555,3.463,1.251,14.233-2.678,18.165a3.131,3.131,0,0,0,2.213,5.346" transform="translate(-66.948 -53.671)" fill="#f7916d"/>
      <path id="Trazado_799598" data-name="Trazado 799598" d="M342.87,263.612a3.133,3.133,0,0,0,2.934-2.037c6.457-17.283-7.5-29.92-8.115-30.426-4.822-3.946-3.276-1.024-4.421.272a3.13,3.13,0,0,0,.266,4.414c.469.421,11.334,10.349,6.4,23.546a3.136,3.136,0,0,0,2.935,4.23" transform="translate(-67.201 -50.778)" fill="#f7916d"/>
    </g>
  </g>
  <g id="Grupo_1065079" data-name="Grupo 1065079">
    <g id="Grupo_1065078" data-name="Grupo 1065078" clip-path="url(#clip-path)">
      <path id="Trazado_799600" data-name="Trazado 799600" d="M161.588,38.566c-2.244-13.683-9.414-26.548-25.065-29.353L124.852,31.062a58.639,58.639,0,0,0-.361,7.5Z" transform="translate(-25.161 -1.862)" fill="#e23b5b"/>
      <path id="Trazado_799601" data-name="Trazado 799601" d="M152.826,41.269A18.037,18.037,0,0,0,143,25.37a20.861,20.861,0,0,0-8.782-2.452l-5.509-.3c-10.816-.6-20.025,7-20.574,16.965l-.093,1.687Z" transform="translate(-21.838 -4.565)" fill="#ff7347"/>
      <path id="Trazado_799602" data-name="Trazado 799602" d="M119.8,41.269a28.27,28.27,0,0,0,7.28-5.683,21.133,21.133,0,0,0,4.837-7.554,26.772,26.772,0,0,0,.938-5.188l-4.14-.227c-10.816-.6-20.025,7-20.574,16.965l-.093,1.687Z" transform="translate(-21.838 -4.565)" fill="#002b43"/>
      <path id="Trazado_799603" data-name="Trazado 799603" d="M150.825,41.35h8.561a18.037,18.037,0,0,0-9.823-15.9A20.861,20.861,0,0,0,140.781,23l-.277-.015a18.825,18.825,0,0,0,2.963,10.607,30.967,30.967,0,0,0,7.358,7.759" transform="translate(-28.399 -4.646)" fill="#002b43"/>
      <path id="Trazado_799604" data-name="Trazado 799604" d="M129.28,45.886a.732.732,0,0,0-.464-.323,8.2,8.2,0,0,0-4.167.323Z" transform="translate(-25.194 -9.182)" fill="#002b43"/>
      <path id="Trazado_799605" data-name="Trazado 799605" d="M106.119,38.308c1.966-8.964,6.934-16.428,16.909-18.473,9.455-1.938,18.907,8.326,23.091,18.473h3.855c3.986-39.043-50.858-39.408-60.3-7.05q-1.041,3.569-1.8,7.05Z" transform="translate(-17.761 -1.604)" fill="#f9627f"/>
      <path id="Trazado_799606" data-name="Trazado 799606" d="M294.5,12.425A12.426,12.426,0,1,1,282.072,0,12.427,12.427,0,0,1,294.5,12.425" transform="translate(-54.501)" fill="#f44"/>
      <path id="Trazado_799607" data-name="Trazado 799607" d="M286.08,20.9a26.523,26.523,0,0,0-9.223-6.54,19.58,19.58,0,0,0-6.41-1.669l-.573-.046a12.407,12.407,0,0,0,18.8,12.851,14.447,14.447,0,0,0-2.592-4.6" transform="translate(-54.501 -2.556)" fill="#ffb646"/>
      <path id="Trazado_799608" data-name="Trazado 799608" d="M280.459,40.387a25.915,25.915,0,0,0-51.285,0Z" transform="translate(-46.321 -3.683)" fill="#f44"/>
      <path id="Trazado_799609" data-name="Trazado 799609" d="M272.6,42.657c-2.349-8.024-10.527-13.688-19.92-13.171l-5.508.3a20.875,20.875,0,0,0-8.784,2.45,18.7,18.7,0,0,0-8.967,10.419Z" transform="translate(-46.37 -5.953)" fill="#ffa077"/>
      <path id="Trazado_799610" data-name="Trazado 799610" d="M281.6,42.63a24.786,24.786,0,0,0-13.9-13.313,40.8,40.8,0,0,0,4.374,13.313Z" transform="translate(-54.108 -5.926)" fill="#f44"/>
      <path id="Trazado_799611" data-name="Trazado 799611" d="M241.648,42.263c.68-.268,1.358-.539,2.028-.828a48.528,48.528,0,0,0,8.023-3.958,66.964,66.964,0,0,0,9.115-7.889,24.676,24.676,0,0,0-11.362-2.047l-6.523.358a24.721,24.721,0,0,0-10.4,2.9,22.273,22.273,0,0,0-10.3,11.462Z" transform="translate(-44.916 -5.559)" fill="#f44"/>
    </g>
  </g>
</svg>
