<svg id="Grupo_1065085" data-name="Grupo 1065085" xmlns="http://www.w3.org/2000/svg" xmlns:xlink="http://www.w3.org/1999/xlink" width="255.366" height="292.333" viewBox="0 0 255.366 292.333">
  <defs>
    <clipPath id="clip-path">
      <rect id="Rectángulo_373837" data-name="Rectángulo 373837" width="255.366" height="292.333" fill="none"/>
    </clipPath>
    <clipPath id="clip-path-3">
      <rect id="Rectángulo_373832" data-name="Rectángulo 373832" width="4.119" height="8.065" fill="none"/>
    </clipPath>
    <clipPath id="clip-path-4">
      <rect id="Rectángulo_373833" data-name="Rectángulo 373833" width="13.541" height="19.392" fill="none"/>
    </clipPath>
    <clipPath id="clip-path-5">
      <rect id="Rectángulo_373834" data-name="Rectángulo 373834" width="4.617" height="14.566" fill="none"/>
    </clipPath>
    <clipPath id="clip-path-6">
      <rect id="Rectángulo_373835" data-name="Rectángulo 373835" width="7.179" height="16.002" fill="none"/>
    </clipPath>
  </defs>
  <g id="Grupo_1064793" data-name="Grupo 1064793" clip-path="url(#clip-path)">
    <g id="Grupo_1064792" data-name="Grupo 1064792">
      <g id="Grupo_1064791" data-name="Grupo 1064791" clip-path="url(#clip-path)">
        <path id="Trazado_798435" data-name="Trazado 798435" d="M240.028,612.393c-6.636-3.484-36.028-12.453-59.155-19.262A80.817,80.817,0,0,1,166.59,609.5,60.772,60.772,0,0,1,74.1,592.579c-22.38,6.868-51.945,16.235-58.761,19.814C5.089,617.774,0,659.6,0,659.6l127.769.308,127.6-.308s-5.089-41.827-15.337-47.208" transform="translate(0 -367.577)" fill="#674e7a"/>
        <path id="Trazado_798436" data-name="Trazado 798436" d="M273.774,524.074v-30.2H217.518v30.374c-4.407,1.314-13.513,4.043-24.164,7.314,8.959,14.929,23.375,26.071,39.5,30.064,19.29,4.779,40.551-.783,55.647-14.56a84.275,84.275,0,0,0,12.728-15.041c-12.313-3.627-22.909-6.658-27.451-7.951" transform="translate(-119.938 -306.349)" fill="#ff925c"/>
        <path id="Trazado_798437" data-name="Trazado 798437" d="M296.55,514.961a40.568,40.568,0,0,0,16.7-4.008V480.891H256.993v10.037c5.184,8.051,11.083,13.746,15.645,16.647,6.414,4.079,16.182,7.386,23.912,7.386" transform="translate(-159.413 -298.297)" fill="#d97645"/>
        <path id="Trazado_798438" data-name="Trazado 798438" d="M258.206,159.21a35.477,35.477,0,0,1-6.511,2.449c-4.081,1.158-8.2,2.258-12.322,3.268-8.918,2.188-17.975,3.751-27.029,5.25-9.215,1.525-18.414,3.092-27.673,4.328-8.982,1.2-18.345,2.7-27.421,2.035-7.812-.573-16.309-2.8-23.876-1.042-.191.045-.383.079-.576.106,1.89,14.137,7.458,28.375,9.521,42.078,1.266,8.411,4.1,16.866,6.248,25.1.253.968,48.256-6.36,51.509-6.789l38.7-5.1,14.933-1.968c2.611-.344.521,9.391,5.613.473s6.079-38.024,6.114-40.641c.136-10.337-.919-21.647-7.232-29.55" transform="translate(-82.375 -98.758)" fill="#b24061"/>
        <path id="Trazado_798439" data-name="Trazado 798439" d="M270.841,170.185q-3.029.8-6.066,1.551c-8.918,2.188-17.975,3.751-27.029,5.25-9.215,1.525-18.414,3.092-27.673,4.328-8.982,1.2-18.345,2.7-27.421,2.035-1.488-.109-3-.278-4.526-.469-8.158,16.744-3.039,37.372.375,53.7,3.7,17.667,4.395,29.389,12.923,43.326,9.5,15.52,35.421,36.774,67.1,30.708,12.16-2.328,20.529-16.7,25.567-36.751,3.783-15.063,3.183-35.218,2.361-53.5-.8-17.9-2.788-36.874-15.611-50.18" transform="translate(-107.777 -105.566)" fill="#ff925c"/>
        <path id="Trazado_798440" data-name="Trazado 798440" d="M365.769,450.6a22.736,22.736,0,0,1-11.927-3.317.767.767,0,0,1,.861-1.271,21.89,21.89,0,0,0,16.915,2.241.767.767,0,0,1,.415,1.477,23.079,23.079,0,0,1-6.264.87" transform="translate(-219.279 -276.576)" fill="#d97645"/>
        <path id="Trazado_798441" data-name="Trazado 798441" d="M382.646,365.692c-.155,0-.3-.006-.439-.018a.768.768,0,0,1,.133-1.529c.186.014,4.606.3,5.623-4.986.459-2.387-.033-7.617-1.422-15.126-1.059-5.723-2.276-10.771-2.288-10.821a.767.767,0,0,1,1.492-.361c.013.051,1.238,5.139,2.305,10.9,1.444,7.8,1.922,13.085,1.42,15.7-.958,4.979-4.658,6.243-6.825,6.243" transform="translate(-236.648 -206.103)" fill="#d97645"/>
        <path id="Trazado_798442" data-name="Trazado 798442" d="M317.723,343.763c.431,4.135-1.083,7.68-3.38,7.919s-4.509-2.919-4.939-7.053,1.083-7.68,3.38-7.919,4.509,2.919,4.939,7.053" transform="translate(-191.878 -208.853)" fill="#160d0b"/>
        <path id="Trazado_798443" data-name="Trazado 798443" d="M433.2,328.6c.431,4.135-1.083,7.68-3.379,7.919s-4.509-2.918-4.939-7.053,1.083-7.68,3.38-7.919,4.508,2.919,4.938,7.053" transform="translate(-263.51 -199.447)" fill="#160d0b"/>
        <path id="Trazado_798444" data-name="Trazado 798444" d="M288.665,299.973c2.259,1.643,1.566,5.929-2.67,7.624a51.547,51.547,0,0,1-16.557,3.311c-4.094,0-4.851-2.618-3.8-4.723s5.416-4.595,10.961-5.981,9.806-1.874,12.065-.231" transform="translate(-164.512 -185.431)" fill="#b24061"/>
        <path id="Trazado_798445" data-name="Trazado 798445" d="M409.286,284.638c-1.828,2.113-.18,6.13,4.329,6.819a51.548,51.548,0,0,0,16.876-.532c3.987-.929,4.131-3.651,2.628-5.462s-6.317-3.246-12.032-3.338-9.975.4-11.8,2.512" transform="translate(-253.426 -174.996)" fill="#b24061"/>
        <path id="Trazado_798446" data-name="Trazado 798446" d="M179.4,347.4c-5.823-5.771-16.791,2.184-13.969,13.869s15.032,22.5,21.86,21.746-.044-27.837-7.891-35.615" transform="translate(-102.335 -214.296)" fill="#ff925c"/>
        <path id="Trazado_798447" data-name="Trazado 798447" d="M187.3,386.944a.763.763,0,0,1-.514-.2c-.189-.171-4.63-4.246-5.105-9.853a.767.767,0,1,1,1.529-.129c.423,4.993,4.564,8.806,4.605,8.844a.768.768,0,0,1-.516,1.336" transform="translate(-112.696 -233.27)" fill="#d97645"/>
        <path id="Trazado_798448" data-name="Trazado 798448" d="M268.077,168.2q-4.419,1.21-8.865,2.306c-8.918,2.188-17.975,3.751-27.029,5.25-9.215,1.525-18.414,3.092-27.673,4.328-8.981,1.2-18.345,2.7-27.421,2.035-2.344-.172-4.75-.494-7.174-.811q-.664,1.652-1.226,3.369a89.039,89.039,0,0,0-3.867,23.938c-.279,6.827.9,21.522,2.635,28.245.533,2.069,6.573-3.7,11.824.577s4.205,14.6,4.924,14.311c1.347-.534,2.021-10.075,3.1-19.821,1.052-9.526,2.456-15.922,7.2-21.683,4.854-5.888,15.245-17.98,14.539-25.6,9.828-6.486,15.565-1.28,15.565-1.28s9.782-5.843,19.91-1.21c.441.2.979.216,1.316.565a2.668,2.668,0,0,1,.528,1.58c1.053,8.52,7.754,15.586,15.623,19.017,5.689,2.481,11.353,2.69,17.44,3.129,1.043.075,1.507,25.728,2.665,15.464,1.053-9.338-1.851-37.3-14.017-53.71" transform="translate(-102.214 -104.331)" fill="#b24061"/>
        <g id="Grupo_1064781" data-name="Grupo 1064781" transform="translate(140.891 70.416)" opacity="0.2">
          <g id="Grupo_1064780" data-name="Grupo 1064780">
            <g id="Grupo_1064779" data-name="Grupo 1064779" clip-path="url(#clip-path-3)">
              <path id="Trazado_798449" data-name="Trazado 798449" d="M374.409,193.517h-.044a.758.758,0,0,1-.713-.8,8.329,8.329,0,0,0-2.392-5.992.758.758,0,1,1,1.112-1.029,9.846,9.846,0,0,1,2.793,7.108.757.757,0,0,1-.756.714" transform="translate(-371.058 -185.452)"/>
            </g>
          </g>
        </g>
        <g id="Grupo_1064784" data-name="Grupo 1064784" transform="translate(164.134 70.478)" opacity="0.2">
          <g id="Grupo_1064783" data-name="Grupo 1064783">
            <g id="Grupo_1064782" data-name="Grupo 1064782" clip-path="url(#clip-path-4)">
              <path id="Trazado_798450" data-name="Trazado 798450" d="M445.054,205.007a.753.753,0,0,1-.391-.109c-3.09-1.866-6.6-4.125-9.128-7.323-2.782-3.518-3.877-7.777-2.929-11.394a.758.758,0,0,1,1.466.384c-.829,3.159.162,6.923,2.651,10.07,2.373,3,5.747,5.169,8.723,6.966a.757.757,0,0,1-.392,1.406" transform="translate(-432.272 -185.615)"/>
            </g>
          </g>
        </g>
        <g id="Grupo_1064787" data-name="Grupo 1064787" transform="translate(83.97 78.542)" opacity="0.2">
          <g id="Grupo_1064786" data-name="Grupo 1064786">
            <g id="Grupo_1064785" data-name="Grupo 1064785" clip-path="url(#clip-path-5)">
              <path id="Trazado_798451" data-name="Trazado 798451" d="M222.279,221.421a.758.758,0,0,1-.738-.591,17.266,17.266,0,0,1,2.853-13.659.757.757,0,1,1,1.23.884,15.732,15.732,0,0,0-2.605,12.442.758.758,0,0,1-.74.924" transform="translate(-221.149 -206.855)"/>
            </g>
          </g>
        </g>
        <g id="Grupo_1064790" data-name="Grupo 1064790" transform="translate(67.318 101.81)" opacity="0.2">
          <g id="Grupo_1064789" data-name="Grupo 1064789">
            <g id="Grupo_1064788" data-name="Grupo 1064788" clip-path="url(#clip-path-6)">
              <path id="Trazado_798452" data-name="Trazado 798452" d="M178.049,284.136a.757.757,0,0,1-.6-1.225,26.587,26.587,0,0,0,5.506-14.082.758.758,0,0,1,1.51.123,28.118,28.118,0,0,1-5.823,14.893.757.757,0,0,1-.6.29" transform="translate(-177.292 -268.133)"/>
            </g>
          </g>
        </g>
        <path id="Trazado_798453" data-name="Trazado 798453" d="M131.884,163.846c-1.1-7.944,26.168-18.271,60.9-23.065s63.771-2.239,64.868,5.705-26.167,18.271-60.9,23.064-63.771,2.239-64.868-5.7" transform="translate(-81.788 -85.827)" fill="#5e3d36"/>
        <path id="Trazado_798454" data-name="Trazado 798454" d="M370.337,124.485a8.4,8.4,0,1,0,8.4,8.4,8.4,8.4,0,0,0-8.4-8.4m0,2a1.123,1.123,0,1,1-1.123,1.123,1.123,1.123,0,0,1,1.123-1.123m-5.28,7.526a1.123,1.123,0,1,1,1.123-1.123,1.123,1.123,0,0,1-1.123,1.123m5.28,5.28a1.123,1.123,0,1,1,1.123-1.123,1.123,1.123,0,0,1-1.123,1.123m0-3.9a2.5,2.5,0,1,1,2.5-2.5,2.5,2.5,0,0,1-2.5,2.5m5.28-1.378a1.123,1.123,0,1,1,1.123-1.123,1.123,1.123,0,0,1-1.123,1.123" transform="translate(-224.508 -77.218)" fill="#d97645"/>
        <path id="Trazado_798455" data-name="Trazado 798455" d="M382.471,123.206h-1.863a.614.614,0,0,1-.614-.614v-1.086a.614.614,0,0,1,.614-.614h1.863a.614.614,0,0,1,.614.614v1.086a.614.614,0,0,1-.614.614" transform="translate(-235.71 -74.989)" fill="#d97645"/>
        <path id="Trazado_798456" data-name="Trazado 798456" d="M380.607,165.7h1.863a.614.614,0,0,1,.614.614V167.4a.614.614,0,0,1-.614.614h-1.863a.614.614,0,0,1-.614-.614v-1.086a.614.614,0,0,1,.614-.614" transform="translate(-235.71 -102.783)" fill="#d97645"/>
        <path id="Trazado_798457" data-name="Trazado 798457" d="M360.928,142.886v1.863a.614.614,0,0,1-.614.614h-1.086a.614.614,0,0,1-.614-.614v-1.863a.614.614,0,0,1,.614-.614h1.086a.614.614,0,0,1,.614.614" transform="translate(-222.448 -88.251)" fill="#d97645"/>
        <path id="Trazado_798458" data-name="Trazado 798458" d="M403.421,144.749v-1.863a.614.614,0,0,1,.614-.614h1.086a.614.614,0,0,1,.614.614v1.863a.614.614,0,0,1-.614.614h-1.086a.614.614,0,0,1-.614-.614" transform="translate(-250.242 -88.251)" fill="#d97645"/>
        <path id="Trazado_798459" data-name="Trazado 798459" d="M365.676,158l1.317,1.317a.614.614,0,0,1,0,.869l-.767.767a.614.614,0,0,1-.869,0l-1.317-1.317a.614.614,0,0,1,0-.868l.767-.768a.614.614,0,0,1,.869,0" transform="translate(-225.702 -97.896)" fill="#d97645"/>
        <path id="Trazado_798460" data-name="Trazado 798460" d="M397.041,129.271l-1.318-1.318a.614.614,0,0,1,0-.868l.768-.768a.614.614,0,0,1,.868,0l1.318,1.318a.614.614,0,0,1,0,.868l-.768.768a.614.614,0,0,1-.868,0" transform="translate(-245.356 -78.243)" fill="#d97645"/>
        <path id="Trazado_798461" data-name="Trazado 798461" d="M395.723,159.318,397.041,158a.614.614,0,0,1,.868,0l.768.767a.615.615,0,0,1,0,.869l-1.318,1.317a.614.614,0,0,1-.868,0l-.768-.767a.615.615,0,0,1,0-.869" transform="translate(-245.356 -97.896)" fill="#d97645"/>
        <path id="Trazado_798462" data-name="Trazado 798462" d="M366.993,127.953l-1.317,1.318a.615.615,0,0,1-.869,0l-.767-.768a.614.614,0,0,1,0-.868l1.317-1.318a.614.614,0,0,1,.869,0l.767.768a.614.614,0,0,1,0,.868" transform="translate(-225.702 -78.243)" fill="#d97645"/>
        <path id="Trazado_798463" data-name="Trazado 798463" d="M366.386,41.632a1.222,1.222,0,0,1-1.027-1.016c-.038-.229-.084-.456-.135-.68a1.222,1.222,0,0,1,.554-1.33.641.641,0,0,0,.344-.759l-.307-.733a.641.641,0,0,0-.782-.286A1.213,1.213,0,0,1,363.7,36.3q-.167-.264-.347-.517a1.211,1.211,0,0,1,.016-1.428.642.642,0,0,0,.033-.835l-.562-.562a.64.64,0,0,0-.832.031,1.223,1.223,0,0,1-1.444.009q-.282-.2-.577-.383a1.222,1.222,0,0,1-.55-1.333.642.642,0,0,0-.292-.782l-.736-.3a.64.64,0,0,0-.755.35,1.212,1.212,0,0,1-1.312.569q-.3-.067-.611-.119a1.211,1.211,0,0,1-1-1.021.642.642,0,0,0-.567-.614h-.8a.641.641,0,0,0-.567.61A1.222,1.222,0,0,1,351.787,31q-.343.058-.68.135a1.222,1.222,0,0,1-1.33-.554.641.641,0,0,0-.759-.344l-.733.307a.64.64,0,0,0-.286.782,1.212,1.212,0,0,1-.525,1.331q-.264.167-.518.347a1.211,1.211,0,0,1-1.428-.015.642.642,0,0,0-.835-.033l-.562.562a.641.641,0,0,0,.031.832,1.223,1.223,0,0,1,.01,1.444q-.2.282-.383.577a1.222,1.222,0,0,1-1.333.55.642.642,0,0,0-.782.292l-.3.736a.64.64,0,0,0,.35.755,1.212,1.212,0,0,1,.57,1.311c-.045.2-.085.406-.119.611a1.211,1.211,0,0,1-1.021,1,.642.642,0,0,0-.614.567v.8a.64.64,0,0,0,.61.567,1.222,1.222,0,0,1,1.027,1.016q.057.343.135.68a1.222,1.222,0,0,1-.554,1.33.641.641,0,0,0-.344.759l.307.733a.641.641,0,0,0,.782.286,1.212,1.212,0,0,1,1.331.525q.167.264.347.517a1.211,1.211,0,0,1-.015,1.429.642.642,0,0,0-.033.835l.562.562a.641.641,0,0,0,.832-.031,1.224,1.224,0,0,1,1.444-.01q.282.2.577.383a1.222,1.222,0,0,1,.55,1.333.642.642,0,0,0,.292.782l.736.3a.641.641,0,0,0,.755-.35,1.211,1.211,0,0,1,1.311-.57q.3.067.611.119a1.211,1.211,0,0,1,1,1.021.642.642,0,0,0,.567.614h.8a.64.64,0,0,0,.566-.61,1.223,1.223,0,0,1,1.016-1.027q.343-.058.68-.135a1.222,1.222,0,0,1,1.33.554.64.64,0,0,0,.759.344l.733-.307a.641.641,0,0,0,.287-.782,1.212,1.212,0,0,1,.525-1.331q.263-.167.517-.348a1.211,1.211,0,0,1,1.429.016.642.642,0,0,0,.835.033l.562-.562a.64.64,0,0,0-.031-.832,1.223,1.223,0,0,1-.01-1.444q.2-.282.383-.577a1.222,1.222,0,0,1,1.333-.55.642.642,0,0,0,.782-.292l.3-.736a.64.64,0,0,0-.35-.755,1.211,1.211,0,0,1-.569-1.311q.067-.3.119-.611a1.212,1.212,0,0,1,1.021-1,.642.642,0,0,0,.614-.567v-.8a.64.64,0,0,0-.61-.567m-9.631,4.143c-4.462,3.256-9.423-1.705-6.167-6.167a.879.879,0,0,1,.191-.191c4.462-3.256,9.423,1.705,6.167,6.167a.88.88,0,0,1-.191.191" transform="translate(-211.236 -18.216)" fill="#5594c9"/>
        <path id="Trazado_798464" data-name="Trazado 798464" d="M171.6,199.876a1.222,1.222,0,0,1-1.027-1.016q-.058-.343-.136-.68a1.222,1.222,0,0,1,.554-1.33.641.641,0,0,0,.344-.759l-.307-.733a.64.64,0,0,0-.782-.286,1.213,1.213,0,0,1-1.331-.525q-.167-.264-.347-.518a1.21,1.21,0,0,1,.015-1.428.642.642,0,0,0,.033-.835l-.562-.562a.641.641,0,0,0-.832.031,1.223,1.223,0,0,1-1.444.01q-.283-.2-.577-.383a1.221,1.221,0,0,1-.55-1.333.642.642,0,0,0-.292-.782l-.736-.3a.641.641,0,0,0-.756.35,1.211,1.211,0,0,1-1.311.57q-.3-.067-.611-.119a1.211,1.211,0,0,1-1-1.021.642.642,0,0,0-.567-.614h-.8a.64.64,0,0,0-.567.61A1.223,1.223,0,0,1,157,189.249q-.343.058-.68.135a1.222,1.222,0,0,1-1.33-.554.641.641,0,0,0-.758-.344l-.733.308a.64.64,0,0,0-.286.782,1.212,1.212,0,0,1-.526,1.331q-.263.167-.516.347a1.212,1.212,0,0,1-1.429-.015.642.642,0,0,0-.835-.033l-.562.562a.641.641,0,0,0,.031.832,1.223,1.223,0,0,1,.01,1.443q-.2.283-.383.577a1.222,1.222,0,0,1-1.333.549.642.642,0,0,0-.782.293l-.3.735a.641.641,0,0,0,.35.756,1.212,1.212,0,0,1,.57,1.311q-.067.3-.12.611a1.213,1.213,0,0,1-.271.58,43.909,43.909,0,0,0,7.665,1.837,4.913,4.913,0,0,1,1.021-3.44.89.89,0,0,1,.191-.192c3.919-2.86,8.222.62,7,4.533,2.408.165,4.974.267,7.674.306a1.206,1.206,0,0,1,.924-.7.642.642,0,0,0,.614-.567v-.795a.64.64,0,0,0-.61-.566" transform="translate(-90.909 -116.375)" fill="#ffe3b0"/>
        <path id="Trazado_798465" data-name="Trazado 798465" d="M183.368,30.214a.821.821,0,0,1-.894-.38q-.121-.2-.253-.391a.822.822,0,0,1,.017-.969.43.43,0,0,0,.027-.559l-.373-.382a.432.432,0,0,0-.56.014.814.814,0,0,1-.962,0q-.169-.123-.345-.237a.814.814,0,0,1-.344-.9.431.431,0,0,0-.186-.53L179,25.673a.431.431,0,0,0-.512.226.823.823,0,0,1-.9.363c-.15-.036-.3-.069-.455-.1a.822.822,0,0,1-.674-.7.431.431,0,0,0-.377-.416l-.534-.006a.431.431,0,0,0-.385.406.815.815,0,0,1-.679.681q-.206.032-.412.077a.815.815,0,0,1-.878-.39.432.432,0,0,0-.507-.244l-.5.2a.431.431,0,0,0-.2.522.822.822,0,0,1-.38.893q-.2.121-.391.253a.822.822,0,0,1-.969-.017.43.43,0,0,0-.559-.027l-.382.374a.431.431,0,0,0,.015.56.815.815,0,0,1,0,.962c-.082.113-.161.228-.237.345a.815.815,0,0,1-.9.344.432.432,0,0,0-.53.186l-.212.491a.431.431,0,0,0,.226.512.822.822,0,0,1,.363.9c-.037.151-.069.3-.1.455a.821.821,0,0,1-.7.674.431.431,0,0,0-.416.376l-.006.534a.431.431,0,0,0,.406.385.815.815,0,0,1,.681.679c.022.137.047.275.077.411a.815.815,0,0,1-.39.878.432.432,0,0,0-.244.507l.2.5a.43.43,0,0,0,.522.2.822.822,0,0,1,.893.38q.121.2.253.391a.822.822,0,0,1-.017.969.43.43,0,0,0-.027.559l.374.382a.431.431,0,0,0,.559-.014.815.815,0,0,1,.962,0c.113.082.228.161.345.237a.814.814,0,0,1,.344.9.433.433,0,0,0,.186.53l.491.212a.431.431,0,0,0,.512-.226.823.823,0,0,1,.9-.363c.151.037.3.069.455.1a.821.821,0,0,1,.674.7.431.431,0,0,0,.376.416l.534.006a.431.431,0,0,0,.385-.406.815.815,0,0,1,.679-.681c.137-.022.275-.047.411-.076a.814.814,0,0,1,.878.39.432.432,0,0,0,.507.243l.5-.2a.43.43,0,0,0,.2-.521.822.822,0,0,1,.38-.894c.134-.08.264-.165.391-.253a.822.822,0,0,1,.969.017.431.431,0,0,0,.559.027l.382-.374a.431.431,0,0,0-.014-.56.815.815,0,0,1,0-.962c.082-.113.161-.228.237-.345a.814.814,0,0,1,.9-.344.431.431,0,0,0,.53-.186l.212-.491a.43.43,0,0,0-.226-.512.822.822,0,0,1-.363-.9q.055-.226.1-.455a.821.821,0,0,1,.7-.674.431.431,0,0,0,.416-.377l.006-.534a.43.43,0,0,0-.406-.385.815.815,0,0,1-.681-.679q-.032-.206-.077-.412a.815.815,0,0,1,.39-.878.432.432,0,0,0,.244-.507l-.2-.5a.43.43,0,0,0-.521-.2m-4.993,4.974a2.937,2.937,0,0,1-5.382-2.327.606.606,0,0,1,.072-.167,2.937,2.937,0,0,1,5.382,2.327.6.6,0,0,1-.072.167" transform="translate(-103.481 -15.536)" fill="#d97645"/>
        <path id="Trazado_798466" data-name="Trazado 798466" d="M147.98,134.354a.593.593,0,0,1-.5-.493c-.019-.111-.041-.221-.066-.33a.592.592,0,0,1,.269-.645.311.311,0,0,0,.167-.368l-.149-.356a.311.311,0,0,0-.38-.139.589.589,0,0,1-.646-.255c-.054-.085-.11-.169-.169-.251a.587.587,0,0,1,.008-.693.312.312,0,0,0,.016-.406l-.273-.273a.311.311,0,0,0-.4.015.594.594,0,0,1-.7,0q-.137-.1-.28-.186a.593.593,0,0,1-.267-.647.312.312,0,0,0-.142-.38l-.357-.146a.311.311,0,0,0-.367.17.588.588,0,0,1-.636.276q-.147-.033-.3-.058a.587.587,0,0,1-.485-.5.312.312,0,0,0-.275-.3h-.386a.311.311,0,0,0-.275.3.593.593,0,0,1-.493.5q-.167.028-.33.066a.594.594,0,0,1-.645-.269.311.311,0,0,0-.368-.167l-.356.149a.311.311,0,0,0-.139.379.588.588,0,0,1-.255.646q-.128.081-.251.169a.589.589,0,0,1-.694-.008.311.311,0,0,0-.405-.016l-.273.273a.311.311,0,0,0,.015.4.593.593,0,0,1,0,.7c-.065.092-.127.185-.186.28a.593.593,0,0,1-.647.267.311.311,0,0,0-.379.142l-.146.357a.311.311,0,0,0,.17.367.588.588,0,0,1,.276.636q-.033.147-.058.3a.588.588,0,0,1-.5.486.312.312,0,0,0-.3.275v.386a.311.311,0,0,0,.3.275.594.594,0,0,1,.5.493q.028.166.066.33a.594.594,0,0,1-.269.645.311.311,0,0,0-.167.368l.149.356a.311.311,0,0,0,.379.139.588.588,0,0,1,.646.255c.054.085.11.169.169.251a.587.587,0,0,1-.007.693.312.312,0,0,0-.016.406l.273.273a.311.311,0,0,0,.4-.015.594.594,0,0,1,.7,0q.137.1.28.186a.592.592,0,0,1,.267.647.312.312,0,0,0,.142.38l.357.146a.311.311,0,0,0,.367-.17.589.589,0,0,1,.637-.276c.1.022.2.041.3.058a.588.588,0,0,1,.486.5.311.311,0,0,0,.275.3h.386a.311.311,0,0,0,.275-.3.593.593,0,0,1,.493-.5q.167-.028.33-.066a.593.593,0,0,1,.645.269.311.311,0,0,0,.368.167l.356-.149a.311.311,0,0,0,.139-.379.589.589,0,0,1,.255-.646q.128-.081.251-.168a.587.587,0,0,1,.693.007.312.312,0,0,0,.406.016l.273-.273a.311.311,0,0,0-.015-.4.594.594,0,0,1,0-.7q.1-.137.186-.28a.592.592,0,0,1,.647-.267.312.312,0,0,0,.38-.142l.146-.357a.31.31,0,0,0-.17-.366.588.588,0,0,1-.276-.637c.022-.1.041-.2.058-.3a.588.588,0,0,1,.5-.486.312.312,0,0,0,.3-.275v-.386a.311.311,0,0,0-.3-.275m-2.9,3.9c-4.822,3.519-10.184-1.843-6.665-6.665a.961.961,0,0,1,.207-.207c4.822-3.519,10.185,1.843,6.665,6.665a.944.944,0,0,1-.207.207" transform="translate(-84.01 -79.647)" fill="#d97645"/>
        <path id="Trazado_798467" data-name="Trazado 798467" d="M227.693,73.449a22.967,22.967,0,1,0,22.967,22.967,22.966,22.966,0,0,0-22.967-22.967m0,35a12.03,12.03,0,1,1,12.03-12.03,12.03,12.03,0,0,1-12.03,12.03" transform="translate(-126.992 -45.56)" fill="#f7c934"/>
        <path id="Trazado_798468" data-name="Trazado 798468" d="M259.376,74.5h-9.767a1.678,1.678,0,0,1-1.678-1.678V70.446a1.678,1.678,0,0,1,1.678-1.678h9.767a1.678,1.678,0,0,1,1.678,1.678V72.82a1.678,1.678,0,0,1-1.678,1.678" transform="translate(-153.792 -42.657)" fill="#f7c934"/>
        <path id="Trazado_798469" data-name="Trazado 798469" d="M259.376,189.74h-9.767a1.678,1.678,0,0,1-1.678-1.678v-2.373a1.678,1.678,0,0,1,1.678-1.679h9.767a1.678,1.678,0,0,1,1.678,1.679v2.373a1.678,1.678,0,0,1-1.678,1.678" transform="translate(-153.792 -114.141)" fill="#f7c934"/>
        <path id="Trazado_798470" data-name="Trazado 798470" d="M205.776,118.331V128.1a1.678,1.678,0,0,1-1.679,1.678h-2.373a1.678,1.678,0,0,1-1.678-1.678v-9.767a1.678,1.678,0,0,1,1.678-1.678H204.1a1.678,1.678,0,0,1,1.679,1.678" transform="translate(-124.089 -72.36)" fill="#f7c934"/>
        <path id="Trazado_798471" data-name="Trazado 798471" d="M321.018,118.331V128.1a1.678,1.678,0,0,1-1.678,1.678h-2.373a1.678,1.678,0,0,1-1.679-1.678v-9.767a1.678,1.678,0,0,1,1.679-1.678h2.373a1.678,1.678,0,0,1,1.678,1.678" transform="translate(-195.573 -72.36)" fill="#f7c934"/>
        <path id="Trazado_798472" data-name="Trazado 798472" d="M213.288,159.446l6.906,6.906a1.678,1.678,0,0,1,0,2.373l-1.678,1.678a1.678,1.678,0,0,1-2.374,0l-6.906-6.906a1.68,1.68,0,0,1,0-2.374l1.678-1.678a1.678,1.678,0,0,1,2.374,0" transform="translate(-129.484 -98.599)" fill="#f7c934"/>
        <path id="Trazado_798473" data-name="Trazado 798473" d="M294.776,77.957l6.906,6.906a1.679,1.679,0,0,1,0,2.374L300,88.915a1.678,1.678,0,0,1-2.374,0l-6.906-6.906a1.679,1.679,0,0,1,0-2.374l1.678-1.678a1.678,1.678,0,0,1,2.374,0" transform="translate(-180.031 -48.052)" fill="#f7c934"/>
        <path id="Trazado_798474" data-name="Trazado 798474" d="M290.724,166.352l6.906-6.906a1.678,1.678,0,0,1,2.374,0l1.678,1.678a1.678,1.678,0,0,1,0,2.374l-6.906,6.906a1.679,1.679,0,0,1-2.374,0l-1.678-1.678a1.678,1.678,0,0,1,0-2.373" transform="translate(-180.031 -98.6)" fill="#f7c934"/>
        <path id="Trazado_798475" data-name="Trazado 798475" d="M209.235,84.864l6.906-6.906a1.678,1.678,0,0,1,2.374,0l1.678,1.678a1.679,1.679,0,0,1,0,2.374l-6.906,6.906a1.678,1.678,0,0,1-2.374,0l-1.678-1.678a1.679,1.679,0,0,1,0-2.374" transform="translate(-129.484 -48.052)" fill="#f7c934"/>
        <path id="Trazado_798476" data-name="Trazado 798476" d="M341.437,181.1h-3.706l-1.853,3.209,1.853,3.209h3.706l1.853-3.209Z" transform="translate(-208.346 -112.334)" fill="#5594c9"/>
        <path id="Trazado_798477" data-name="Trazado 798477" d="M159.779,69.708,157.1,70.771l-.42,2.853,2.26,1.791,2.681-1.062.421-2.853Z" transform="translate(-97.187 -43.24)" fill="#5594c9"/>
        <path id="Trazado_798478" data-name="Trazado 798478" d="M309.872,33.542h-2.459l-1.229,2.129,1.229,2.129h2.459l1.229-2.129Z" transform="translate(-189.926 -20.806)" fill="#ffe3b0"/>
        <path id="Trazado_798479" data-name="Trazado 798479" d="M171.507,116.928l-1.16.533-.119,1.271,1.042.739,1.16-.533.119-1.271Z" transform="translate(-105.592 -72.53)" fill="#ffe3b0"/>
        <path id="Trazado_798480" data-name="Trazado 798480" d="M122.527,99.765c0,.611-.021,1.226.012,1.835a.279.279,0,0,0,.557,0c.035-.609.016-1.225.017-1.835a.293.293,0,0,0-.587,0" transform="translate(-75.999 -61.71)" fill="#d97645"/>
        <path id="Trazado_798481" data-name="Trazado 798481" d="M116.468,95.889c-.611,0-1.226-.021-1.835.012a.279.279,0,0,0,0,.557c.609.035,1.225.016,1.835.017a.293.293,0,0,0,0-.587" transform="translate(-70.939 -59.476)" fill="#d97645"/>
        <path id="Trazado_798482" data-name="Trazado 798482" d="M123.271,89.829c0-.611.021-1.225-.012-1.835a.279.279,0,0,0-.557,0c-.035.609-.016,1.225-.017,1.835a.293.293,0,0,0,.587,0" transform="translate(-76.099 -54.415)" fill="#d97645"/>
        <path id="Trazado_798483" data-name="Trazado 798483" d="M126.4,96.632c.611,0,1.225.021,1.835-.012a.279.279,0,0,0,0-.558c-.609-.035-1.225-.016-1.835-.017a.293.293,0,0,0,0,.587" transform="translate(-78.234 -59.575)" fill="#d97645"/>
        <path id="Trazado_798484" data-name="Trazado 798484" d="M277.013,23.973c0,1.215-.042,2.44.023,3.654a.555.555,0,0,0,1.11.006c.069-1.214.031-2.438.035-3.653a.584.584,0,0,0-1.168-.006" transform="translate(-171.823 -14.523)" fill="#5594c9"/>
        <path id="Trazado_798485" data-name="Trazado 798485" d="M264.952,16.255c-1.215,0-2.44-.042-3.654.023a.555.555,0,0,0-.006,1.11c1.214.069,2.438.031,3.653.035a.584.584,0,0,0,.006-1.168" transform="translate(-161.749 -10.075)" fill="#5594c9"/>
        <path id="Trazado_798486" data-name="Trazado 798486" d="M278.494,4.193c0-1.215.042-2.44-.023-3.653a.555.555,0,0,0-1.11-.006c-.069,1.214-.031,2.438-.035,3.653a.584.584,0,0,0,1.168.006" transform="translate(-172.021 0)" fill="#5594c9"/>
        <path id="Trazado_798487" data-name="Trazado 798487" d="M284.732,17.736c1.215,0,2.44.042,3.653-.023a.555.555,0,0,0,.006-1.11c-1.214-.069-2.438-.031-3.653-.035a.584.584,0,0,0-.006,1.168" transform="translate(-176.271 -10.273)" fill="#5594c9"/>
      </g>
    </g>
  </g>
</svg>
