<svg xmlns="http://www.w3.org/2000/svg" xmlns:xlink="http://www.w3.org/1999/xlink" width="85" height="85" viewBox="0 0 85 85">
  <defs>
    <clipPath id="clip-path">
      <rect id="proteger" width="55" height="55" transform="translate(195 5315)" fill="#8edee0"/>
    </clipPath>
  </defs>
  <g id="Grupo_1065067" data-name="Grupo 1065067" transform="translate(-180 -5300)">
    <rect id="Rectángulo_373668" data-name="Rectángulo 373668" width="85" height="85" transform="translate(180 5300)" fill="#ff8182"/>
    <g id="Enmascarar_grupo_1059079" data-name="Enmascarar grupo 1059079" clip-path="url(#clip-path)">
      <g id="proteger-2" data-name="proteger" transform="translate(195 5315)">
        <g id="Grupo_1065377" data-name="Grupo 1065377">
          <path id="Trazado_800674" data-name="Trazado 800674" d="M28.647,51.572A62.413,62.413,0,0,0,42.66,42.191c5.8-5.329,8.741-10.879,8.741-16.5,0-6.389-.015-13.847-.028-18.979a1.526,1.526,0,0,0-1.528-1.512,1.645,1.645,0,0,0-.3.029,35.357,35.357,0,0,1-6.561.609A33.99,33.99,0,0,1,29.472,3.107a4.936,4.936,0,0,0-3.948,0A33.95,33.95,0,0,1,12.072,5.845H12.02a35.353,35.353,0,0,1-6.56-.609,1.647,1.647,0,0,0-.3-.029,1.541,1.541,0,0,0-.744.192,1.5,1.5,0,0,0-.785,1.32C3.614,11.859,3.6,19.324,3.6,25.7c0,14.366,19.263,24.254,23.9,26.427.325-.152.71-.336,1.146-.551Z" fill="#bbf39b"/>
          <path id="Trazado_800675" data-name="Trazado 800675" d="M29.646,51.069c-.359.185-.693.352-1,.5-.436.216-.821.4-1.146.551C22.861,49.95,3.6,40.061,3.6,25.7c0-6.373.015-13.838.028-18.977A1.5,1.5,0,0,1,4.412,5.4a1.542,1.542,0,0,1,.743-.192,1.639,1.639,0,0,1,.305.029q.749.142,1.508.25a1.518,1.518,0,0,0-.16.678C6.8,11.3,6.78,18.768,6.78,25.141c0,5.175,2.5,9.79,5.919,13.652C18.171,44.978,25.987,49.264,29.646,51.069Z" fill="#9ae59c"/>
          <g id="Grupo_1065376" data-name="Grupo 1065376">
            <path id="Trazado_800676" data-name="Trazado 800676" d="M31.289,47.081l2.544-1.523.4,3.406L31.118,50.1Z" fill="#6fd6a2"/>
            <path id="Trazado_800677" data-name="Trazado 800677" d="M24.382,31.49V50.551l-6.4-2.561L12.7,43.649l.462-2.864L12.7,38.793v-7.3Z" fill="#857e87"/>
            <path id="Trazado_800678" data-name="Trazado 800678" d="M40.448,45.558V41.887H34.1V45.48l.415.837L34.1,49.23Z" fill="#ffd18d"/>
            <path id="Trazado_800679" data-name="Trazado 800679" d="M40.448,41.887v3.672L34.1,49.229V45.48c.448-.279.431-1.037.895-1.344,1.228-.811,2.975-1.253,4.231-2.25Z" fill="#fbbd80"/>
            <path id="Trazado_800680" data-name="Trazado 800680" d="M24.382,47.448v3.1l-6.4-2.561L12.7,43.65V38.793a52.971,52.971,0,0,0,11.683,8.655Z" fill="#766e7a"/>
            <path id="Trazado_800681" data-name="Trazado 800681" d="M25.568,23.505v1.266l-2.1.38a1.057,1.057,0,0,0-1.057,1.057L21.9,32.759,21.9,32.7v.114H14.074l-.567-6.6a1.057,1.057,0,0,0-1.057-1.057l-2.045-.38V23.505a4.23,4.23,0,0,1,4.229-4.229h6.7a4.23,4.23,0,0,1,4.229,4.229Z" fill="#7ad7ee"/>
            <path id="Trazado_800682" data-name="Trazado 800682" d="M42.778,22.844l-1.557-7.191H33.247l-2.1,7.689Z" fill="#766e7a"/>
            <path id="Trazado_800683" data-name="Trazado 800683" d="M42.958,38.034l1.132,4.529a.529.529,0,0,1-.513.657H29.419l.551-5.848V26.247A4.229,4.229,0,0,1,34.2,22.018h6.07A4.229,4.229,0,0,1,44.5,26.247v1.689Z" fill="#ff5f7a"/>
            <path id="Trazado_800684" data-name="Trazado 800684" d="M35.263,19.833H39.2V22.07a1.971,1.971,0,1,1-3.941,0V19.833Z" fill="#fbbd80"/>
            <path id="Trazado_800685" data-name="Trazado 800685" d="M41.289,16.056c-1.113.363-2.222.651-3.114-.022a1.594,1.594,0,0,0-1.883,0c-.892.672-2,.385-3.114.022a4.084,4.084,0,0,1,8.111,0Z" fill="#857e87"/>
            <path id="Trazado_800686" data-name="Trazado 800686" d="M41.318,16.539a4.084,4.084,0,0,1-8.168,0,4.029,4.029,0,0,1,.029-.483,3.309,3.309,0,0,0,3.114-.389,1.594,1.594,0,0,1,1.883,0,3.309,3.309,0,0,0,3.114.389A4.028,4.028,0,0,1,41.318,16.539Z" fill="#ffd18d"/>
            <path id="Trazado_800687" data-name="Trazado 800687" d="M44.5,27.936v10.08a1.623,1.623,0,0,1-3.246,0V31.172a3.237,3.237,0,0,1,3.238-3.236Z" fill="#ffd18d"/>
            <path id="Trazado_800688" data-name="Trazado 800688" d="M25.568,24.771v8.907a1.834,1.834,0,1,1-3.668,0V32.7l-.005.062V25.828a1.057,1.057,0,0,1,1.057-1.057Z" fill="#c6805d"/>
            <path id="Trazado_800689" data-name="Trazado 800689" d="M14.074,25.828v7.85a1.834,1.834,0,1,1-3.669,0V24.771h2.612a1.057,1.057,0,0,1,1.057,1.057Z" fill="#c6805d"/>
            <path id="Trazado_800690" data-name="Trazado 800690" d="M19.957,16.545H16.016v2.783a1.971,1.971,0,0,0,3.941,0V16.545Z" fill="#ba7052"/>
            <circle id="Elipse_4797" data-name="Elipse 4797" cx="4.084" cy="4.084" r="4.084" transform="translate(13.903 9.167)" fill="#c6805d"/>
            <path id="Trazado_800691" data-name="Trazado 800691" d="M23.464,38.671v8.253l.386,1.368-.386,2.633L27.717,52.6l3.572-1.81-.219-2.613.219-1.094V38.671l-3.913-.7Z" fill="#7ad7ee"/>
            <path id="Trazado_800692" data-name="Trazado 800692" d="M34.113,33.622v5.524a1.411,1.411,0,1,1-2.823,0l-.317-5.364a.634.634,0,0,1,.634-.634Z" fill="#ffd18d"/>
            <path id="Trazado_800693" data-name="Trazado 800693" d="M23.781,33.928l-.317,5.217a1.411,1.411,0,1,1-2.823,0V33.622l2.506-.328a.634.634,0,0,1,.634.634Z" fill="#ffd18d"/>
            <path id="Trazado_800694" data-name="Trazado 800694" d="M34.113,32.78v.842H31.924a.634.634,0,0,0-.634.634v4.415H23.464V34.256a.634.634,0,0,0-.634-.634H20.641V32.78a4.229,4.229,0,0,1,4.229-4.229h5.013A4.23,4.23,0,0,1,34.113,32.78Z" fill="#ffe077"/>
            <path id="Trazado_800695" data-name="Trazado 800695" d="M29.2,25.819H25.55v3.147a1.827,1.827,0,0,0,3.653,0Z" fill="#fbbd80"/>
            <circle id="Elipse_4798" data-name="Elipse 4798" cx="3.572" cy="3.572" r="3.572" transform="translate(23.805 19.465)" fill="#ffd18d"/>
            <path id="Trazado_800696" data-name="Trazado 800696" d="M31.289,47.081v3.707L27.717,52.6l-4.253-1.674v-4c1.517.883,2.84,1.573,3.8,2.05a.534.534,0,0,0,.475,0C28.7,48.5,29.923,47.865,31.289,47.081Z" fill="#4bc3ef"/>
          </g>
          <path id="Trazado_800697" data-name="Trazado 800697" d="M53.327,25.766c0,14.485-17.047,24.262-23.442,27.421-.866.428-1.536.734-1.943.914a1.09,1.09,0,0,1-.883,0C23.65,52.591,1.673,42.212,1.673,25.766c0-6.036.014-13.017.027-18.21a4.332,4.332,0,0,1,2.25-3.8A4.38,4.38,0,0,1,6.9,3.29a30.945,30.945,0,0,0,5.753.534A29.649,29.649,0,0,0,24.447,1.439a7.635,7.635,0,0,1,6.106,0,29.541,29.541,0,0,0,11.8,2.383A30.945,30.945,0,0,0,48.1,3.29a4.365,4.365,0,0,1,5.2,4.265c.013,5.194.027,12.175.027,18.212ZM28.6,50.586a59.864,59.864,0,0,0,13.441-9c5.564-5.112,8.385-10.435,8.385-15.822,0-6.129-.015-13.282-.027-18.2a1.464,1.464,0,0,0-1.466-1.45,1.576,1.576,0,0,0-.292.028,33.917,33.917,0,0,1-6.293.585A32.6,32.6,0,0,1,29.391,4.1a4.734,4.734,0,0,0-3.787,0A32.566,32.566,0,0,1,12.7,6.725h-.05A33.914,33.914,0,0,1,6.359,6.14a1.577,1.577,0,0,0-.292-.028,1.478,1.478,0,0,0-.713.185A1.434,1.434,0,0,0,4.6,7.563c-.012,4.93-.027,12.09-.027,18.2,0,13.78,18.477,23.264,22.927,25.349.312-.146.681-.322,1.1-.529Z" fill="#6fd6a2"/>
        </g>
        <g id="Grupo_1065378" data-name="Grupo 1065378">
          <path id="Trazado_800698" data-name="Trazado 800698" d="M54.106,7.553A5.134,5.134,0,0,0,52.237,3.6a5.191,5.191,0,0,0-4.285-1.1,30.2,30.2,0,0,1-5.6.52A28.869,28.869,0,0,1,30.875.7a8.469,8.469,0,0,0-6.75,0A28.828,28.828,0,0,1,12.7,3.018,30.22,30.22,0,0,1,7.049,2.5a5.216,5.216,0,0,0-3.489.555,5.161,5.161,0,0,0-2.665,4.5C.882,12.485.868,19.648.868,25.766A21.379,21.379,0,0,0,4.481,37.353a38.119,38.119,0,0,0,8.1,8.805,66.236,66.236,0,0,0,14.154,8.68,1.9,1.9,0,0,0,1.536,0,66.31,66.31,0,0,0,11.245-6.46.806.806,0,1,0-.936-1.312,64.634,64.634,0,0,1-10.962,6.3.285.285,0,0,1-.23,0A64.517,64.517,0,0,1,13.6,44.911C6.22,38.88,2.479,32.439,2.479,25.766c0-6.117.015-13.278.027-18.208A3.563,3.563,0,0,1,6.749,4.082a31.814,31.814,0,0,0,5.9.548H12.7A30.454,30.454,0,0,0,24.768,2.178a6.85,6.85,0,0,1,5.462,0A30.494,30.494,0,0,0,42.348,4.63a31.81,31.81,0,0,0,5.9-.548,3.584,3.584,0,0,1,2.959.757,3.528,3.528,0,0,1,1.284,2.719c.012,4.921.027,12.075.027,18.209,0,6.636-3.7,13.045-11,19.048a.806.806,0,0,0,1.024,1.245,37.891,37.891,0,0,0,8.019-8.775,21.35,21.35,0,0,0,3.57-11.518c0-6.136-.015-13.291-.027-18.213Z"/>
          <path id="Trazado_800699" data-name="Trazado 800699" d="M5.744,7a.684.684,0,0,1,.466-.07,34.721,34.721,0,0,0,6.442.6h.05c.741,0,1.493-.025,2.235-.073a.806.806,0,0,0-.1-1.608c-.707.046-1.424.07-2.13.07h-.05a33.1,33.1,0,0,1-6.143-.57,2.305,2.305,0,0,0-1.545.244A2.231,2.231,0,0,0,3.795,7.561c-.012,4.922-.027,12.075-.027,18.2,0,6.1,3.392,12.048,10.082,17.677a63.892,63.892,0,0,0,13.309,8.4.806.806,0,0,0,.682,0c.361-.168.736-.349,1.115-.536a60.69,60.69,0,0,0,13.629-9.127c5.737-5.271,8.645-10.793,8.645-16.415,0-6.125-.015-13.281-.027-18.206a2.272,2.272,0,0,0-2.272-2.254,2.384,2.384,0,0,0-.442.042,33.114,33.114,0,0,1-6.143.571A31.789,31.789,0,0,1,29.714,3.36a5.54,5.54,0,0,0-4.431,0,30.635,30.635,0,0,1-6.693,2.024.806.806,0,0,0,.291,1.585,32.247,32.247,0,0,0,7.046-2.131,3.928,3.928,0,0,1,3.143,0A33.416,33.416,0,0,0,42.348,7.53a34.729,34.729,0,0,0,6.443-.6.765.765,0,0,1,.142-.014.659.659,0,0,1,.66.646c.012,4.924.027,12.079.027,18.2,0,3.739-1.441,7.463-4.291,11.117V35a.806.806,0,0,0-1.611,0v3.351a.81.81,0,0,1-1.621,0v-6.79a2.42,2.42,0,0,1,1.621-2.281v1.929a.806.806,0,1,0,1.611,0V26.658a5.008,5.008,0,0,0-1.786-3.835c-.046-.21-1.455-7.245-1.509-7.464a4.872,4.872,0,0,0-9.491,0S31.1,20.739,31.1,20.765a4.358,4.358,0,0,0-6.48-1.089,5.015,5.015,0,0,0-3.249-1.2H20.8V17.309a4.873,4.873,0,1,0-5.537,0v1.171h-.57A5.024,5.024,0,0,0,9.67,23.5V27.68a.806.806,0,1,0,1.611,0V25.564h1.795a.248.248,0,0,1,.247.247V33.63a1.021,1.021,0,1,1-2.042,0V31.44a.806.806,0,1,0-1.611,0V33.63a2.636,2.636,0,0,0,2.285,2.609V39.5C7.59,35.028,5.38,30.422,5.38,25.766c0-6.128.015-13.28.027-18.2A.63.63,0,0,1,5.744,7ZM22.676,47.651c-1.2-.706-2.507-1.523-3.844-2.445V36.244a.806.806,0,0,0-1.611,0v7.809c-.781-.581-1.564-1.2-2.334-1.843q-.686-.577-1.32-1.157V35.939a2.635,2.635,0,0,0,1.368-2.308v-.057h4.93v5.5A2.205,2.205,0,0,0,22.676,41.2Zm0-8.575a.6.6,0,1,1-1.2,0v-4.7h1.2v4.7Zm7.795,9.63c-.844.459-1.657.875-2.286,1.186v-7.8a.806.806,0,0,0-1.611,0V49.77c-.654-.327-1.427-.729-2.286-1.2V39.41h6.184v9.3Zm0-15.133V37.8H24.288V33.574a.806.806,0,0,0-.806-.806H21.476v-.033a3.41,3.41,0,0,1,3.35-3.405,2.625,2.625,0,0,0,5.1,0,3.41,3.41,0,0,1,3.35,3.405v.033H31.277a.806.806,0,0,0-.806.806Zm-4.105-4.856V27.292a4.338,4.338,0,0,0,2.027,0v1.426a1.014,1.014,0,1,1-2.027,0Zm6.917,5.661v4.7a.6.6,0,1,1-1.2,0v-4.7Zm.084,12.654q-.659.4-1.284.766V44.368h1.284Zm1.611-1.021V44.368H37.36C36.556,44.954,35.757,45.5,34.978,46.013ZM41.5,40.995c-.668.614-1.353,1.2-2.043,1.762h-7.37V41.2a2.205,2.205,0,0,0,2.811-2.126V32.736c0-.162-.008-.321-.023-.479h5.616v6.1a2.425,2.425,0,0,0,1.46,2.222q-.222.21-.449.42ZM41.2,19.363l.5,2.474a5,5,0,0,0-1.389-.2h-.254V20.469A4.908,4.908,0,0,0,41.2,19.363ZM37.289,13.2a3.267,3.267,0,0,1,3.062,2.137,1.933,1.933,0,0,1-1.684-.37,2.2,2.2,0,0,0-2.756,0,1.933,1.933,0,0,1-1.684.37A3.267,3.267,0,0,1,37.289,13.2ZM34.716,17a3.45,3.45,0,0,0,2.211-.781.584.584,0,0,1,.724,0,3.521,3.521,0,0,0,2.864.725,3.262,3.262,0,0,1-6.452,0A4.009,4.009,0,0,0,34.716,17Zm3.73,4.2v1.3a1.157,1.157,0,1,1-2.314,0v-1.3a4.852,4.852,0,0,0,2.314,0ZM33.2,19.115a4.911,4.911,0,0,0,1.316,1.354V21.64h-.254a5.034,5.034,0,0,0-1.829.343Zm-1.974,6a3.4,3.4,0,0,1,3.036-1.859h.359a2.768,2.768,0,0,0,5.327,0h.359a3.411,3.411,0,0,1,3.407,3.407v.955a4.042,4.042,0,0,0-3.126,3.033H34.436A5.024,5.024,0,0,0,30,27.721V26.532A4.971,4.971,0,0,0,31.231,25.11ZM27.379,20.3a2.752,2.752,0,1,1-2.752,2.752A2.755,2.755,0,0,1,27.379,20.3Zm-2.625,6.235v1.189a4.985,4.985,0,0,0-2.029.485V25.812a.248.248,0,0,1,.247-.247h.844a4.4,4.4,0,0,0,.937.968ZM14.765,13.3a3.262,3.262,0,1,1,3.262,3.262A3.266,3.266,0,0,1,14.765,13.3Zm4.419,4.733v1.3a1.157,1.157,0,0,1-2.314,0v-1.3a4.852,4.852,0,0,0,2.314,0Zm-6.108,5.917H11.282V23.5a3.411,3.411,0,0,1,3.407-3.407h.675a2.768,2.768,0,0,0,5.327,0h.675a3.4,3.4,0,0,1,2.213.818,4.352,4.352,0,0,0-.468,3.043h-.138a1.861,1.861,0,0,0-1.859,1.859v3.617a5,5,0,0,0-1.189,2.533h-4.99v-6.15a1.861,1.861,0,0,0-1.859-1.859Z"/>
        </g>
      </g>
    </g>
  </g>
</svg>
