<svg id="Grupo_1064918" data-name="Grupo 1064918" xmlns="http://www.w3.org/2000/svg" xmlns:xlink="http://www.w3.org/1999/xlink" width="202.918" height="291.73" viewBox="0 0 202.918 291.73">
  <defs>
    <clipPath id="clip-path">
      <rect id="Rectángulo_373929" data-name="Rectángulo 373929" width="202.918" height="291.73" fill="none"/>
    </clipPath>
    <clipPath id="clip-path-3">
      <rect id="Rectángulo_373923" data-name="Rectángulo 373923" width="22.795" height="32.739" fill="none"/>
    </clipPath>
    <clipPath id="clip-path-4">
      <rect id="Rectángulo_373924" data-name="Rectángulo 373924" width="25.653" height="25.77" fill="none"/>
    </clipPath>
    <clipPath id="clip-path-5">
      <rect id="Rectángulo_373925" data-name="Rectángulo 373925" width="5.736" height="7.151" fill="none"/>
    </clipPath>
    <clipPath id="clip-path-6">
      <rect id="Rectángulo_373926" data-name="Rectángulo 373926" width="9.757" height="12.367" fill="none"/>
    </clipPath>
    <clipPath id="clip-path-7">
      <path id="Trazado_799061" data-name="Trazado 799061" d="M152.835,115.247c0,6.731,23.3,12.188,52.041,12.188s51.666-6,49.012-12.188c-2.264-5.277,3.5-72.681-52.366-75.341-.277-.013-.555-.02-.831-.02-28.263,0-47.856,68.694-47.856,75.361" transform="translate(-152.835 -39.886)" fill="none"/>
    </clipPath>
  </defs>
  <g id="Grupo_1064917" data-name="Grupo 1064917" clip-path="url(#clip-path)">
    <g id="Grupo_1064912" data-name="Grupo 1064912">
      <g id="Grupo_1064911" data-name="Grupo 1064911" clip-path="url(#clip-path)">
        <path id="Trazado_799034" data-name="Trazado 799034" d="M236.875,291.358c1.99,23.156-2.851,38.865-2.851,38.865s-8.388-17.179-10.83,5.615c-.783,7.305-1.585,16.056-6.059,22.169-2.275,3.109-5.41,5.667-6.877,9.229-1.179,2.862-1.221,6.25-3.153,8.668-2.9,3.635-8.393,3.31-13.038,3.043-13.768-.794-27.686,3.705-41.3.063-2.825-.756-5.76-1.941-7.373-4.38-1.294-1.956-1.533-4.42-2.52-6.548-3.285-7.083-13.765-8.774-16.5-16.088-.6-1.609-.751-3.348-1.192-5.008-.832-3.129-2.668-5.882-4.512-8.543-4.134-5.968-8.6-12.163-9.4-19.378-.452-4.046,1.531-11.446,1.177-15.5-.726-8.325-2.5-14.117.355-20.22,1.574-3.368,3.538-7.5,5.085-10.879,1.757-3.84,2.941-9.035,4.375-13.007,1.52-4.212,6.187-10.715,11.057-7.494,4.55,3.011,9.409,6.251,14.725,7.481,4.383,1.014,8.742,2.441,13.241,2.42a51.116,51.116,0,0,0,8.992-1.238,112.388,112.388,0,0,1,16.133-1.784q4.142-.157,8.287-.008c2.446.087,4.117.42,6.5-.247a52.155,52.155,0,0,0,5.7-1.774c1.818-.742,3.523-1.737,5.338-2.485,4.6-1.893,6.831-2.116,11.57-.618.592.187,1.191-.478,1.657-.067.551.486,9.8,18.915,11.416,37.716" transform="translate(-74.005 -167.108)" fill="#36454f"/>
        <path id="Trazado_799035" data-name="Trazado 799035" d="M170.673,622.739V596.133h49.558v26.758l20.29,8.24s.324,15.256-7.734,21.8c-6.137,4.982-30.218,29.142-36.357,30.664-16.993,4.21-43.931-7.729-57.23-19.865-4.263-3.89,7.291-33.985,7.291-33.985Z" transform="translate(-92.011 -396.733)" fill="#ad5731"/>
        <path id="Trazado_799036" data-name="Trazado 799036" d="M269.83,626.147a35.737,35.737,0,0,0,14.711-3.531V596.133H234.983v8.842c4.567,7.093,9.764,12.109,13.782,14.665,5.65,3.593,14.256,6.507,21.065,6.507" transform="translate(-156.384 -396.733)" fill="#8c3f20"/>
        <path id="Trazado_799037" data-name="Trazado 799037" d="M189.407,714.345a226.621,226.621,0,0,0-40.9-16.634s-15.953,34.819-46.074,50.927c-20.9-11.53-37.632-36.015-47.429-52.462-19.715,6.191-35.492,12.8-41.5,16.026C4.483,717.054,0,754.765,0,754.765l101.292.278,101.626-.278s-4.483-35.568-13.511-40.42" transform="translate(0 -463.313)" fill="#c68198"/>
        <path id="Trazado_799038" data-name="Trazado 799038" d="M248.743,301.626c5.672,10.4,7.428,23.236,6.5,38.5-1.353,22.214-5.711,40.635-14.379,54s-21.975,22.4-31.214,22.4-25.511-8.137-34.01-20.226c-10.342-14.711-16.738-33.952-18.094-56.166-.932-15.265.823-28.1,6.5-38.505Z" transform="translate(-104.69 -200.735)" fill="#ad5731"/>
        <path id="Trazado_799039" data-name="Trazado 799039" d="M242.409,436.9c0,3.621-1.63,6.556-3.642,6.556s-3.642-2.935-3.643-6.555,1.631-6.556,3.642-6.556,3.642,2.935,3.643,6.555" transform="translate(-156.478 -286.399)" fill="#160d0b"/>
        <path id="Trazado_799040" data-name="Trazado 799040" d="M366.979,436.894c0,3.621-1.63,6.556-3.642,6.556s-3.642-2.935-3.642-6.555,1.63-6.556,3.642-6.556,3.642,2.935,3.642,6.555" transform="translate(-239.381 -286.395)" fill="#160d0b"/>
        <path id="Trazado_799041" data-name="Trazado 799041" d="M315.755,472.175a4.732,4.732,0,0,1-.889-.08.676.676,0,1,1,.256-1.328c.151.028,3.742.635,5.025-3.6.582-1.926.625-6.281.124-12.593-.383-4.812-.953-9.083-.958-9.126a.676.676,0,0,1,1.34-.18c.006.043.581,4.349.966,9.2.522,6.571.463,10.975-.177,13.091-1.114,3.682-3.845,4.621-5.686,4.621" transform="translate(-209.182 -295.938)" fill="#8c3f20"/>
        <path id="Trazado_799042" data-name="Trazado 799042" d="M226.7,397.38a2.839,2.839,0,0,1-1.432,4.738c-2.22.55-8.126.193-12.1,1.2-3.844.978-7.894,3.391-8.828,3.1-.95-.292-.452-2.242,2.127-4.356,2.4-1.97,4.638-4.265,9.309-5.286s9.6-.7,10.922.6" transform="translate(-135.692 -263.661)" fill="#36454f"/>
        <path id="Trazado_799043" data-name="Trazado 799043" d="M355.241,393.662a2.839,2.839,0,0,0,1.632,4.673c2.242.455,8.127-.152,12.139.689,3.882.814,8.03,3.054,8.951,2.727.936-.332.356-2.259-2.31-4.262a22.512,22.512,0,0,0-9.989-4.893c-4.9-1.009-9.154-.289-10.423,1.065" transform="translate(-235.948 -260.962)" fill="#36454f"/>
        <path id="Trazado_799044" data-name="Trazado 799044" d="M147.319,435.505c-4.311-5.264-14.047.36-12.721,10.247s10.474,19.866,16.175,19.826,2.355-22.98-3.454-30.074" transform="translate(-89.495 -288.493)" fill="#ad5731"/>
        <path id="Trazado_799045" data-name="Trazado 799045" d="M411.368,435.49c4.31-5.264,14.047.358,12.722,10.246s-10.471,19.867-16.173,19.828-2.358-22.98,3.451-30.074" transform="translate(-269.512 -288.482)" fill="#ad5731"/>
        <path id="Trazado_799046" data-name="Trazado 799046" d="M153.992,470.9a.674.674,0,0,1-.5-.224c-.141-.158-3.467-3.914-3.377-8.6a.663.663,0,0,1,.689-.663.675.675,0,0,1,.663.689c-.079,4.141,3,7.634,3.032,7.669a.676.676,0,0,1-.5,1.127" transform="translate(-99.9 -307.077)" fill="#8c3f20"/>
        <path id="Trazado_799047" data-name="Trazado 799047" d="M256.308,292.486c-.215-3.044,0-6.132-.585-9.126a18.573,18.573,0,0,0-2.7-6.382c-1.134-1.792-2.553-3.225-3.648-5.068-1.4-2.354-2.833-4.687-4.25-7.031a1.766,1.766,0,0,0-.817-.841c-.016-.005-.033-.006-.049-.011a3.368,3.368,0,0,1,.036.388c0,6.731-20.271,12.188-49.012,12.188-4.526,0-8.916-.136-13.1-.39l-30.49.373a6.046,6.046,0,0,0-1.407.017c-1.445,2.563-2.844,5.195-4.424,7.839a52.042,52.042,0,0,0-6.735,19.421c-.7,5.008-2.259,14.472,3.94,16.55,2.621.879,5.886-.968,8.485-1.912a26.815,26.815,0,0,0,11.089-7.638c2.043-2.365,3.7-5.117,6.176-7.024,1.977-1.521,4.363-2.412,6.448-3.78,5.888-3.864,8.06-11.78,9.257-18.322a17.225,17.225,0,0,0,7.764,9.5c3.535,1.946,7.644,2.514,11.437,3.891a28.135,28.135,0,0,1,10.728,7.016c3.106,3.262,5.447,6.844,8.91,9.792,3.1,2.643,7.357,5.6,9.032,9.37a33.185,33.185,0,0,1,2.836,13.793c-.118,10.176-6.195,18.391-5.334,28.772.685,8.255,4.461,16.377,2.982,24.527-.613,3.38-2.11,6.547-2.79,9.914a21.588,21.588,0,0,0,9.994,22.3,20.967,20.967,0,0,1,.707-16.547c1.993-4.08,5.332-7.523,6.526-11.9,1.872-6.868-1.97-13.926-2.345-21.035-.459-8.689,4.047-16.562,6.941-24.469,2.609-7.126,1.954-14.955,4.4-22.219a70.677,70.677,0,0,0,2.564-7.7c1.7-8-1.991-16.092-2.567-24.252" transform="translate(-92.123 -175.713)" fill="#36454f"/>
        <path id="Trazado_799048" data-name="Trazado 799048" d="M281.294,545.988c.091,1.238,5.414,5.13,10.5,5.212,5.846.094,11.206-4.073,10.963-5.5-.256-1.5-6.027.382-11.115.461-5.441.085-10.449-1.55-10.349-.175" transform="translate(-187.203 -362.786)" fill="#fff"/>
        <path id="Trazado_799049" data-name="Trazado 799049" d="M253.887,240.937c0-6.731-20.271-12.188-49.012-12.188s-52.04,5.457-52.04,12.188,23.3,12.188,52.04,12.188,49.012-5.457,49.012-12.188" transform="translate(-101.713 -152.235)" fill="#202e35"/>
        <g id="Grupo_1064901" data-name="Grupo 1064901" transform="translate(129.759 113.118)" opacity="0.4">
          <g id="Grupo_1064900" data-name="Grupo 1064900">
            <g id="Grupo_1064899" data-name="Grupo 1064899" clip-path="url(#clip-path-3)">
              <path id="Trazado_799050" data-name="Trazado 799050" d="M410.016,370.919a.712.712,0,0,1-.664-.454c-.455-1.175-.828-2.353-1.188-3.491-1.024-3.236-1.99-6.291-4.665-8.725-.266-.241-.541-.474-.815-.706a12.8,12.8,0,0,1-4.674-7.489,30.319,30.319,0,0,0-1.3-3.3,14.365,14.365,0,0,0-8.284-7.187.712.712,0,0,1,.441-1.353,15.6,15.6,0,0,1,9.12,7.913,31.212,31.212,0,0,1,1.368,3.453,15.472,15.472,0,0,0,2.783,5.523,15.643,15.643,0,0,0,1.467,1.351c.288.243.575.487.854.74,2.959,2.692,3.981,5.925,5.064,9.349.354,1.118.719,2.274,1.158,3.406a.712.712,0,0,1-.663.969" transform="translate(-387.933 -338.18)"/>
            </g>
          </g>
        </g>
        <g id="Grupo_1064904" data-name="Grupo 1064904" transform="translate(50.706 104.788)" opacity="0.4">
          <g id="Grupo_1064903" data-name="Grupo 1064903">
            <g id="Grupo_1064902" data-name="Grupo 1064902" clip-path="url(#clip-path-4)">
              <path id="Trazado_799051" data-name="Trazado 799051" d="M152.305,339.049a.712.712,0,0,1-.3-1.358,15.129,15.129,0,0,1,4.221-1.354,32.5,32.5,0,0,0,5.29-1.377,7.193,7.193,0,0,0,2.862-1.592,8.2,8.2,0,0,0,1.467-2.67c.158-.392.321-.8.5-1.191a12.538,12.538,0,0,1,2.884-3.934c.582-.531,1.21-1,1.819-1.461a13.92,13.92,0,0,0,2.565-2.271c1.629-2.02,1.963-4.776,2.206-7.906a.712.712,0,0,1,1.419.11c-.214,2.745-.48,6.161-2.517,8.689a15.167,15.167,0,0,1-2.818,2.515c-.608.457-1.183.889-1.714,1.374a11.111,11.111,0,0,0-2.554,3.483c-.168.361-.317.732-.476,1.124a9.373,9.373,0,0,1-1.757,3.119,8.425,8.425,0,0,1-3.417,1.952,33.929,33.929,0,0,1-5.523,1.438,13.712,13.712,0,0,0-3.865,1.244.708.708,0,0,1-.3.066" transform="translate(-151.593 -313.279)"/>
            </g>
          </g>
        </g>
        <g id="Grupo_1064907" data-name="Grupo 1064907" transform="translate(53.036 106.641)" opacity="0.4">
          <g id="Grupo_1064906" data-name="Grupo 1064906">
            <g id="Grupo_1064905" data-name="Grupo 1064905" clip-path="url(#clip-path-5)">
              <path id="Trazado_799052" data-name="Trazado 799052" d="M159.27,325.968a.711.711,0,0,1-.452-1.262,14.6,14.6,0,0,0,4.112-5.461.712.712,0,0,1,1.306.567,16.035,16.035,0,0,1-4.515,6,.709.709,0,0,1-.451.161" transform="translate(-158.557 -318.817)"/>
            </g>
          </g>
        </g>
        <g id="Grupo_1064910" data-name="Grupo 1064910" transform="translate(141.378 104.448)" opacity="0.4">
          <g id="Grupo_1064909" data-name="Grupo 1064909">
            <g id="Grupo_1064908" data-name="Grupo 1064908" clip-path="url(#clip-path-6)">
              <path id="Trazado_799053" data-name="Trazado 799053" d="M431.715,324.628a.712.712,0,0,1-.66-.446,35.151,35.151,0,0,0-2.911-5.667,5.221,5.221,0,0,0-1.059-1.312,5.711,5.711,0,0,0-.981-.576c-.217-.109-.433-.219-.642-.341a6.686,6.686,0,0,1-2.728-3.022.711.711,0,1,1,1.3-.583,5.255,5.255,0,0,0,2.143,2.375c.186.107.378.2.571.3a6.876,6.876,0,0,1,1.226.733,6.415,6.415,0,0,1,1.375,1.664,36.642,36.642,0,0,1,3.029,5.9.712.712,0,0,1-.66.978" transform="translate(-422.669 -312.261)"/>
            </g>
          </g>
        </g>
        <path id="Trazado_799054" data-name="Trazado 799054" d="M463.082,170.4a1.077,1.077,0,0,0,1.262-.859,107.084,107.084,0,0,0,1.834-14.251c.163-4.343-1.551-8.49-6.042-10.061-6.356-2.224-10.817,2.515-13.2,7.84a41.924,41.924,0,0,0-2.2,6.031c-.132.479-1.073,4.553-1.369,6.517a1.081,1.081,0,0,0,.871,1.223l18.845,3.561" transform="translate(-295.056 -96.281)" fill="#f7c934"/>
        <path id="Trazado_799055" data-name="Trazado 799055" d="M450.939,165.339a15.988,15.988,0,0,1,.842-2.307c.912-2.037,2.619-3.85,5.05-3a3.631,3.631,0,0,1,2.311,3.849,41.777,41.777,0,0,1-.738,5.638l4.674.883a1.081,1.081,0,0,0,1.265-.859,107.077,107.077,0,0,0,1.834-14.25c.163-4.343-1.551-8.49-6.042-10.061-6.356-2.224-10.817,2.515-13.2,7.84a41.982,41.982,0,0,0-2.2,6.031c-.132.48-1.073,4.553-1.369,6.517a1.078,1.078,0,0,0,.868,1.222l6.159,1.164c.071-.645.491-2.468.546-2.668" transform="translate(-295.056 -96.28)" fill="#ffe3b0"/>
        <path id="Trazado_799056" data-name="Trazado 799056" d="M446.665,165.689a56.176,56.176,0,0,1,1.979-6.079c2.079-5.391,5.682-10.318,10.322-8.469,3.279,1.306,4.336,5.309,3.976,9.609-.255,3.043-.78,6.522-1.271,9.388l1.409.266a1.079,1.079,0,0,0,1.263-.859,107.073,107.073,0,0,0,1.834-14.25c.163-4.343-1.551-8.49-6.042-10.061-6.356-2.224-10.817,2.515-13.2,7.84a41.938,41.938,0,0,0-2.2,6.031c-.132.48-1.073,4.553-1.369,6.517a1.078,1.078,0,0,0,.868,1.222l2.073.392c.176-.785.315-1.38.358-1.546" transform="translate(-295.056 -96.28)" fill="#f7c934"/>
      </g>
    </g>
    <g id="Grupo_1064914" data-name="Grupo 1064914" transform="translate(51.122 13.341)">
      <g id="Grupo_1064913" data-name="Grupo 1064913" clip-path="url(#clip-path-7)">
        <path id="Trazado_799057" data-name="Trazado 799057" d="M259.967,110.163c-9.975-9.565-26.641-12.331-38.045-4.525-5.736,3.926-9.715,10-12.329,16.444-2.625,6.467-4,38.591-4.05,45.57a3.179,3.179,0,0,0,3.057,3.176l24.345,1.022c.189-3.436.437-30.024.817-32.228a14.5,14.5,0,0,1,1.59-5,5.915,5.915,0,0,1,4.124-2.994c2.367-.308,4.488,1.645,5.638,3.736s1.564,29.9,1.812,32.277q.251,2.407.5,4.816l21.324.9a3.18,3.18,0,0,0,3.313-2.91c.983-12.818-2.855-51.419-12.1-60.281" transform="translate(-187.913 -80.627)" fill="#f7c934"/>
        <path id="Trazado_799058" data-name="Trazado 799058" d="M255.933,106.334c-9.861-9.682-27.394-10.22-38.8-2.414A32.811,32.811,0,0,0,204.8,120.364c-5.452,16.122-6.409,38.591-6.457,45.57-.011,1.7,3.76,3.105,5.464,3.177l2.636.272c.663-5.9.177-30.768,1.951-39.814,1.6-8.155,8.277-18.156,14.012-21.284,6.971-3.8,20.428-3.6,26.428,1.6,4.39,3.805,7.982,8.868,10.483,19.154,3.246,13.348,3.005,36.6,3.706,42.335l.935.266c1.7.072,8.276-1.21,8.406-2.91.983-12.818-5.217-51.377-16.436-62.392" transform="translate(-183.124 -78.909)" fill="#8bc5ea"/>
        <path id="Trazado_799059" data-name="Trazado 799059" d="M276.3,145.638c-7-7.387-18.625-9.059-26.534-2.374-3.978,3.362-6.721,8.4-8.511,13.691-1.8,5.309-2.643,32.982-2.642,38.617a2.308,2.308,0,0,0,2.145,2.462l27.924.01-13.751-.577c.192-2.318.444-30.287.839-32.579a14.493,14.493,0,0,1,1.589-5,5.917,5.917,0,0,1,4.124-2.994c2.367-.308,4.488,1.645,5.638,3.736s1.564,29.9,1.812,32.277l.536,5.137,13.218.005a2.482,2.482,0,0,0,2.294-2.461c.622-10.381-2.2-43.107-8.681-49.951" transform="translate(-209.921 -105.891)" fill="#ffe3b0"/>
        <path id="Trazado_799060" data-name="Trazado 799060" d="M296.176,207.861c-.458-3.788-.879-27.362-4.91-36.238a10.155,10.155,0,0,0-9.9-5.588c-9.6.992-11.57,9.875-12.052,12.634-.637,3.649-.863,32.513-1.154,36.207l6.451.275c.19-3.132.44-26.482.823-28.711a14.5,14.5,0,0,1,1.589-5,5.919,5.919,0,0,1,4.124-2.995c2.367-.307,4.488,1.645,5.638,3.736s1.564,26.269,1.812,28.643q.258,2.472.515,4.944l8.063.344-1-8.252" transform="translate(-229.583 -123.809)" fill="#ff644d"/>
      </g>
    </g>
    <g id="Grupo_1064916" data-name="Grupo 1064916">
      <g id="Grupo_1064915" data-name="Grupo 1064915" clip-path="url(#clip-path)">
        <path id="Trazado_799062" data-name="Trazado 799062" d="M254.356,156.856c-4.425,0-5.2.777-5.2,5.2,0-4.426-.777-5.2-5.2-5.2,4.425,0,5.2-.777,5.2-5.2,0,4.426.778,5.2,5.2,5.2" transform="translate(-162.352 -100.927)" fill="#fff"/>
        <path id="Trazado_799063" data-name="Trazado 799063" d="M270.971,5.2c-4.425,0-5.2.777-5.2,5.2,0-4.426-.777-5.2-5.2-5.2,4.425,0,5.2-.777,5.2-5.2,0,4.425.777,5.2,5.2,5.2" transform="translate(-173.409)" fill="#ff644d"/>
        <path id="Trazado_799064" data-name="Trazado 799064" d="M163.616,207.641c-3.721,0-4.375.654-4.375,4.375,0-3.721-.654-4.375-4.375-4.375,3.721,0,4.375-.654,4.375-4.375,0,3.722.654,4.375,4.375,4.375" transform="translate(-103.065 -135.276)" fill="#8bc5ea"/>
        <path id="Trazado_799065" data-name="Trazado 799065" d="M175.27,104.411c-2.213,0-2.6.389-2.6,2.6,0-2.212-.388-2.6-2.6-2.6,2.213,0,2.6-.389,2.6-2.6,0,2.213.389,2.6,2.6,2.6" transform="translate(-113.181 -67.756)" fill="#f7c934"/>
        <path id="Trazado_799066" data-name="Trazado 799066" d="M473.629,52.8c-2.213,0-2.6.389-2.6,2.6,0-2.213-.389-2.6-2.6-2.6,2.213,0,2.6-.389,2.6-2.6,0,2.213.389,2.6,2.6,2.6" transform="translate(-311.743 -33.407)" fill="#f7c934"/>
        <path id="Trazado_799067" data-name="Trazado 799067" d="M428.38,139.762c-2.213,0-2.6.389-2.6,2.6,0-2.212-.389-2.6-2.6-2.6,2.213,0,2.6-.389,2.6-2.6,0,2.213.388,2.6,2.6,2.6" transform="translate(-281.629 -91.282)" fill="#f7c934"/>
        <path id="Trazado_799068" data-name="Trazado 799068" d="M371.117,235.918c-2.816,0-3.311.495-3.311,3.311,0-2.816-.495-3.311-3.311-3.311,2.816,0,3.311-.495,3.311-3.311,0,2.816.495,3.311,3.311,3.311" transform="translate(-242.575 -154.802)" fill="#fff"/>
        <path id="Trazado_799069" data-name="Trazado 799069" d="M355.563,133.755c-2.816,0-3.31.495-3.31,3.31,0-2.816-.5-3.31-3.311-3.31,2.816,0,3.311-.495,3.311-3.311,0,2.816.495,3.311,3.31,3.311" transform="translate(-232.224 -86.812)" fill="#fff"/>
        <path id="Trazado_799070" data-name="Trazado 799070" d="M212.746,258.543c-2.816,0-3.311.495-3.311,3.31,0-2.816-.495-3.31-3.311-3.31,2.816,0,3.311-.495,3.311-3.311,0,2.816.495,3.311,3.311,3.311" transform="translate(-137.178 -169.86)" fill="#fff"/>
        <path id="Trazado_799071" data-name="Trazado 799071" d="M344.548,47.319c-.738-.21-1.237-.656-1.123-1a32.109,32.109,0,0,1,3.82-7.981c1.63-2.253,5.384-3.559,11.323-2.318,8.4,1.757,11.662,6.153,12.233,9.9a13.279,13.279,0,0,1,.057,4.021,28.653,28.653,0,0,1-1.124,3.889c-.14.328-.819.424-1.538.219l-23.648-6.733" transform="translate(-228.543 -23.651)" fill="#ffe3b0"/>
        <path id="Trazado_799072" data-name="Trazado 799072" d="M360.95,50.266a13.7,13.7,0,0,0,.24-2.541c-.218-1.435-1.455-3.2-4.67-3.868a4.717,4.717,0,0,0-4.6,1.969,12.492,12.492,0,0,0-1.5,3.163l-5.866-1.67c-.738-.21-1.242-.657-1.128-1a32.126,32.126,0,0,1,3.82-7.981c1.63-2.253,5.384-3.559,11.323-2.318,8.4,1.757,11.662,6.153,12.233,9.9a13.279,13.279,0,0,1,.057,4.021,28.753,28.753,0,0,1-1.124,3.889c-.14.328-.815.425-1.533.22l-7.729-2.2a9.626,9.626,0,0,0,.477-1.585" transform="translate(-228.543 -23.651)" fill="#f7c934"/>
        <path id="Trazado_799073" data-name="Trazado 799073" d="M365.827,52.375c.236-1.284,1.138-4.039,1.071-5.378-.183-3.646-4.346-6.678-10.577-7.848-4.4-.827-6.179,1.067-7.559,3.388a34.624,34.624,0,0,0-2.443,5.286l-1.768-.5c-.738-.21-1.24-.657-1.125-1a32.127,32.127,0,0,1,3.82-7.981c1.63-2.253,5.384-3.559,11.323-2.317,8.4,1.757,11.662,6.153,12.233,9.9a13.278,13.278,0,0,1,.057,4.021,28.744,28.744,0,0,1-1.124,3.889c-.14.328-.816.425-1.534.221l-2.6-.741c.122-.474.208-.835.227-.938" transform="translate(-228.543 -23.651)" fill="#ff644d"/>
        <path id="Trazado_799074" data-name="Trazado 799074" d="M118.558,151.61c-.713.223-1.358.127-1.449-.215a31.25,31.25,0,0,1-1.155-8.535c.122-2.7,2.481-5.773,7.977-7.934,7.779-3.059,12.778-1.222,15.246,1.525a12.94,12.94,0,0,1,2.194,3.242,27.955,27.955,0,0,1,1.163,3.766c.062.342-.441.783-1.134,1l-22.842,7.153" transform="translate(-77.158 -88.738)" fill="#ffe3b0"/>
        <path id="Trazado_799075" data-name="Trazado 799075" d="M133.48,145.248a13.335,13.335,0,0,0-1.162-2.2c-.944-1.051-2.892-1.824-5.867-.654a4.592,4.592,0,0,0-2.694,4.061,12.178,12.178,0,0,0,.471,3.374l-5.665,1.774c-.713.223-1.362.128-1.453-.214a31.246,31.246,0,0,1-1.155-8.536c.122-2.7,2.481-5.772,7.977-7.934,7.779-3.06,12.778-1.222,15.246,1.525a12.95,12.95,0,0,1,2.195,3.242,27.933,27.933,0,0,1,1.162,3.766c.062.342-.436.781-1.13,1l-7.465,2.338a9.308,9.308,0,0,0-.459-1.545" transform="translate(-77.159 -88.737)" fill="#f7c934"/>
        <path id="Trazado_799076" data-name="Trazado 799076" d="M138.575,144.358c-.494-1.171-1.232-3.9-2-4.948-2.1-2.869-7.1-3.113-12.8-.737-4.025,1.679-4.459,4.169-4.342,6.795a33.707,33.707,0,0,0,.835,5.607l-1.708.535c-.712.223-1.359.127-1.451-.215a31.259,31.259,0,0,1-1.155-8.535c.122-2.7,2.481-5.773,7.977-7.934,7.779-3.06,12.778-1.222,15.246,1.525a12.948,12.948,0,0,1,2.194,3.242,27.891,27.891,0,0,1,1.163,3.766c.062.342-.437.781-1.13,1l-2.512.787c-.154-.451-.277-.791-.316-.884" transform="translate(-77.158 -88.738)" fill="#ff644d"/>
        <path id="Trazado_799077" data-name="Trazado 799077" d="M216.219,50.7a.737.737,0,0,1-.907-.518,73.211,73.211,0,0,1-2.021-9.617c-.346-2.952.6-5.872,3.576-7.186,4.213-1.86,7.512,1.13,9.425,4.631A28.741,28.741,0,0,1,228.118,42c.116.32.977,3.046,1.285,4.369a.739.739,0,0,1-.528.881L216.219,50.7" transform="translate(-141.902 -21.835)" fill="#ff644d"/>
        <path id="Trazado_799078" data-name="Trazado 799078" d="M224.224,46.591a10.977,10.977,0,0,0-.7-1.527c-.732-1.339-1.994-2.483-3.605-1.772a2.483,2.483,0,0,0-1.368,2.749,28.5,28.5,0,0,0,.808,3.8l-3.139.855a.74.74,0,0,1-.909-.517,73.263,73.263,0,0,1-2.021-9.617c-.346-2.952.6-5.872,3.576-7.186,4.213-1.86,7.511,1.13,9.425,4.631A28.8,28.8,0,0,1,228.117,42c.115.32.977,3.046,1.285,4.369a.737.737,0,0,1-.526.88L224.74,48.38c-.083-.436-.468-1.656-.517-1.789" transform="translate(-141.902 -21.835)" fill="#ffe3b0"/>
        <path id="Trazado_799079" data-name="Trazado 799079" d="M227.157,46.6a38.467,38.467,0,0,0-1.678-4.038c-1.709-3.564-4.432-6.728-7.5-5.217-2.165,1.068-2.669,3.854-2.191,6.767.338,2.06.884,4.4,1.374,6.332l-.946.258a.738.738,0,0,1-.908-.517,73.21,73.21,0,0,1-2.021-9.617c-.346-2.952.6-5.872,3.576-7.187,4.213-1.86,7.511,1.13,9.425,4.631A28.741,28.741,0,0,1,228.118,42c.116.32.977,3.046,1.285,4.369a.738.738,0,0,1-.526.88l-1.392.379c-.163-.526-.289-.924-.327-1.034" transform="translate(-141.902 -21.835)" fill="#8bc5ea"/>
        <path id="Trazado_799080" data-name="Trazado 799080" d="M467.5,254.821c0,.842-.029,1.689.016,2.53a.385.385,0,0,0,.769,0c.047-.84.021-1.688.024-2.529a.4.4,0,0,0-.809,0" transform="translate(-311.122 -169.327)" fill="#5594c9"/>
        <path id="Trazado_799081" data-name="Trazado 799081" d="M457.63,248.805c-.842,0-1.689-.029-2.53.016a.385.385,0,0,0,0,.769c.84.048,1.688.021,2.529.024a.4.4,0,0,0,0-.808" transform="translate(-302.626 -165.576)" fill="#5594c9"/>
        <path id="Trazado_799082" data-name="Trazado 799082" d="M468.558,238.933c0-.842.029-1.689-.016-2.529a.385.385,0,0,0-.769,0c-.048.84-.021,1.688-.024,2.529a.4.4,0,0,0,.809,0" transform="translate(-311.289 -157.081)" fill="#5594c9"/>
        <path id="Trazado_799083" data-name="Trazado 799083" d="M473.518,249.861c.842,0,1.689.029,2.53-.016a.385.385,0,0,0,0-.769c-.84-.047-1.688-.021-2.529-.024a.4.4,0,0,0,0,.808" transform="translate(-314.872 -165.744)" fill="#5594c9"/>
        <path id="Trazado_799084" data-name="Trazado 799084" d="M299.93,63.787c0,.552-.019,1.108.01,1.659a.252.252,0,0,0,.5,0c.031-.551.014-1.107.015-1.659a.265.265,0,0,0-.53,0" transform="translate(-199.603 -42.281)" fill="#f7c934"/>
        <path id="Trazado_799085" data-name="Trazado 799085" d="M293.456,59.842c-.552,0-1.108-.019-1.659.011a.252.252,0,0,0,0,.5c.551.031,1.107.014,1.659.016a.265.265,0,0,0,0-.53" transform="translate(-194.031 -39.821)" fill="#f7c934"/>
        <path id="Trazado_799086" data-name="Trazado 799086" d="M300.623,53.366c0-.552.019-1.108-.01-1.659a.252.252,0,0,0-.5,0c-.031.551-.014,1.107-.015,1.659a.265.265,0,0,0,.53,0" transform="translate(-199.713 -34.249)" fill="#f7c934"/>
        <path id="Trazado_799087" data-name="Trazado 799087" d="M303.877,60.534c.552,0,1.108.019,1.659-.01a.252.252,0,0,0,0-.5c-.551-.031-1.107-.014-1.659-.016a.265.265,0,0,0,0,.531" transform="translate(-202.064 -39.931)" fill="#f7c934"/>
        <path id="Trazado_799088" data-name="Trazado 799088" d="M500.016,111.149c0,.552-.019,1.108.01,1.659a.252.252,0,0,0,.5,0c.031-.551.014-1.107.016-1.659a.265.265,0,0,0-.53,0" transform="translate(-332.762 -73.801)" fill="#f7c934"/>
        <path id="Trazado_799089" data-name="Trazado 799089" d="M493.541,107.2c-.552,0-1.108-.019-1.659.01a.252.252,0,0,0,0,.5c.551.031,1.107.014,1.659.016a.265.265,0,0,0,0-.531" transform="translate(-327.189 -71.341)" fill="#f7c934"/>
        <path id="Trazado_799090" data-name="Trazado 799090" d="M500.708,100.729c0-.552.019-1.108-.011-1.659a.252.252,0,0,0-.5,0c-.032.552-.014,1.107-.016,1.659a.266.266,0,0,0,.531,0" transform="translate(-332.871 -65.769)" fill="#f7c934"/>
        <path id="Trazado_799091" data-name="Trazado 799091" d="M503.962,107.9c.552,0,1.108.019,1.659-.011a.252.252,0,0,0,0-.5c-.552-.031-1.108-.014-1.659-.016a.265.265,0,0,0,0,.53" transform="translate(-335.222 -71.451)" fill="#f7c934"/>
        <path id="Trazado_799092" data-name="Trazado 799092" d="M183.159,27.821c0,.76-.026,1.525.015,2.284a.347.347,0,0,0,.693,0c.043-.758.02-1.524.022-2.283a.365.365,0,0,0-.73,0" transform="translate(-121.889 -18.282)" fill="#5594c9"/>
        <path id="Trazado_799093" data-name="Trazado 799093" d="M174.249,22.392c-.759,0-1.525-.026-2.283.014a.347.347,0,0,0,0,.694c.758.043,1.524.019,2.283.021a.365.365,0,0,0,0-.73" transform="translate(-114.221 -14.897)" fill="#5594c9"/>
        <path id="Trazado_799094" data-name="Trazado 799094" d="M184.111,13.482c0-.76.026-1.525-.015-2.283a.347.347,0,0,0-.694,0c-.043.758-.019,1.524-.022,2.283a.365.365,0,0,0,.73,0" transform="translate(-122.039 -7.229)" fill="#5594c9"/>
        <path id="Trazado_799095" data-name="Trazado 799095" d="M188.587,23.344c.759,0,1.525.026,2.283-.014a.347.347,0,0,0,0-.694c-.758-.043-1.524-.019-2.283-.022a.365.365,0,0,0,0,.73" transform="translate(-125.273 -15.047)" fill="#5594c9"/>
        <path id="Trazado_799096" data-name="Trazado 799096" d="M413.906,14.329a2.07,2.07,0,0,1-2.173-1.943,2.187,2.187,0,0,1,4.346,0,2.07,2.07,0,0,1-2.173,1.943m0-3.317a1.505,1.505,0,0,0-1.605,1.374,1.625,1.625,0,0,0,3.211,0,1.505,1.505,0,0,0-1.606-1.374" transform="translate(-274.013 -6.951)" fill="#ffe3b0"/>
        <path id="Trazado_799097" data-name="Trazado 799097" d="M128.979,73.011a1.954,1.954,0,1,1,2.173-1.942,2.07,2.07,0,0,1-2.173,1.942m0-3.317a1.391,1.391,0,1,0,1.605,1.374,1.506,1.506,0,0,0-1.605-1.374" transform="translate(-84.391 -46.005)" fill="#f7c934"/>
      </g>
    </g>
  </g>
</svg>
