<svg xmlns="http://www.w3.org/2000/svg" width="166.804" height="185.521" viewBox="0 0 166.804 185.521">
  <g id="Grupo_1065251" data-name="Grupo 1065251" transform="translate(-699.598 -1677)">
    <path id="Trazado_799337" data-name="Trazado 799337" d="M13.464,153.011a35.449,35.449,0,0,1-7.385-34.2c3.645-11.184,12.97-20.739,12.878-32.5-.052-6.607-3.146-12.771-4.528-19.232-3-14.005,2.306-28.7,10.664-40.335C32.656,16.221,42.956,7.412,55.141,2.992S81.446-1.135,92.8,5.114s19.379,18.773,18.929,31.727c-.463,13.3-9.22,25.635-7.951,38.885.737,7.679,4.77,14.581,7.491,21.8a55.212,55.212,0,0,1,3.215,28.233,41.654,41.654,0,0,1-13.42,24.762c-6.852,5.9-15.705,9.092-24.639,10.5-10.581,1.67-21.4,1.594-32.016,2.987a36.116,36.116,0,0,1-30.949-11" transform="translate(698.859 1677)" fill="#8edee0"/>
    <g id="Grupo_1064998" data-name="Grupo 1064998" transform="translate(699.598 1703.217)">
      <path id="Trazado_799336" data-name="Trazado 799336" d="M166.8,159.221c0,3.434-37.34,6.219-83.4,6.219S0,162.655,0,159.221,37.342,153,83.4,153s83.4,2.784,83.4,6.219" transform="translate(0 -6.135)" fill="#8edee0" opacity="0.46"/>
      <path id="Trazado_799338" data-name="Trazado 799338" d="M122.248,91.358c13.663,24.957,11.669,80.875-2.291,103.437l-5.117,3.416L116.1,195,36.774,128.719l2.535-23.736,69.058-11.345Z" transform="translate(32.128 -59.991)" fill="#006a76"/>
      <path id="Trazado_799339" data-name="Trazado 799339" d="M121.25,106.549h0l-9.335-14.285L39.309,104.192l-2.535,23.735,69.558,58.121-4.877-36.074A35.6,35.6,0,0,1,112.2,119.408l.674-.641a35.583,35.583,0,0,0,8.375-12.218" transform="translate(32.128 -59.2)" fill="#00454d"/>
      <path id="Trazado_799340" data-name="Trazado 799340" d="M49.048,89.2H45a20.708,20.708,0,0,0-20.4,17.151l21.912.8Z" transform="translate(21.492 -61.875)" fill="#f2c9ad"/>
      <path id="Trazado_799341" data-name="Trazado 799341" d="M27.87,97.085l-1.059.264a9.572,9.572,0,0,0-6.406,5.342l-3.663,8.094a9.581,9.581,0,0,0-.618,6.044l1.956,8.707a6.742,6.742,0,0,0,5.45-6.618v-4.285l4.339-9.9Z" transform="translate(13.884 -54.987)" fill="#f2c9ad"/>
      <path id="Trazado_799342" data-name="Trazado 799342" d="M71.581,133.089,54.557,107.568A19.727,19.727,0,0,0,18.5,120.307l5.349,58.649,31.708-2.432,4.141,14.4a22.594,22.594,0,0,0,33.728,12.891l4.326-2.715Z" transform="translate(16.091 -53.5)" fill="#454f6b"/>
      <path id="Trazado_799343" data-name="Trazado 799343" d="M52.41,122.99l2.709,50.188a8.519,8.519,0,0,1-8.506,8.979H45.226a22.543,22.543,0,0,0,24.781.515l4.326-2.715Z" transform="translate(39.512 -32.355)" fill="#422c4f"/>
      <rect id="Rectángulo_374005" data-name="Rectángulo 374005" width="0.341" height="51.77" transform="translate(63.008 67.243) rotate(-6.348)" fill="#422c4f"/>
      <path id="Trazado_799344" data-name="Trazado 799344" d="M34.082,163.714l-3.759-54.982.343-.022,3.759,54.983Z" transform="translate(26.492 -44.832)" fill="#422c4f"/>
      <path id="Trazado_799345" data-name="Trazado 799345" d="M22.711,139.552l-.037-.339,22.291-2.432.037.339Z" transform="translate(19.809 -20.307)" fill="#422c4f"/>
      <path id="Trazado_799346" data-name="Trazado 799346" d="M32.387,156.008H40.7l-2.155-15.2L24.029,141.86l.42,5.647a11.684,11.684,0,0,1-.438,4.092,22.851,22.851,0,0,1,8.377,1.37Z" transform="translate(20.977 -16.791)" fill="#f2c9ad"/>
      <path id="Trazado_799347" data-name="Trazado 799347" d="M14.88,154.568c-.131.277-.272.549-.382.838l-1.2,3.136H52.121l-.564-3.974Z" transform="translate(11.619 -4.768)" fill="#e4e4e0"/>
      <path id="Trazado_799348" data-name="Trazado 799348" d="M49.321,150.977H41.006v-3.039a22.847,22.847,0,0,0-8.375-1.37,11.651,11.651,0,0,1-8.739,8.207l-1.7.371a11.687,11.687,0,0,0-8.053,6.415H50.82Z" transform="translate(12.356 -11.761)" fill="#468097"/>
      <path id="Trazado_799349" data-name="Trazado 799349" d="M38.539,140.806,24.02,141.859l.324,4.382,14.425-3.8Z" transform="translate(20.985 -16.79)" fill="#eba58e"/>
      <path id="Trazado_799350" data-name="Trazado 799350" d="M61.619,85.306l20.856,5.385L58.277,99.9Z" transform="translate(50.914 -65.278)" fill="#f2c9ad"/>
      <path id="Trazado_799351" data-name="Trazado 799351" d="M43.466,115.575a16.8,16.8,0,0,1-10.582-.232c-1.147-.414-2.381-1.113-2.621-2.308-.339-1.686,1.42-2.942,2.749-4.03,3.74-3.063,5.327-7.991,6.427-12.7s1.969-9.655,4.812-13.565a16.128,16.128,0,0,1,18.388-5.366,11.824,11.824,0,0,1,10.225-2.5,16.946,16.946,0,0,1,9.258,5.608,28.887,28.887,0,0,1,5.319,9.578c1.671,4.74,2.462,10.253-.054,14.6-2.2,3.811-6.462,5.908-10.614,7.367-10.537,3.708-22.636.23-33.3,3.545" transform="translate(26.401 -74.618)" fill="#6a3649"/>
      <path id="Trazado_799352" data-name="Trazado 799352" d="M95.318,90.809,78.77,95.19a67.523,67.523,0,0,0-29.628.682l-26.857,6.7v7.645l68.45,9.9,12.321-3.092a45.26,45.26,0,0,0-7.738-26.216" transform="translate(19.47 -60.471)" fill="#f2c9ad"/>
      <path id="Trazado_799353" data-name="Trazado 799353" d="M68.238,127.415a45.135,45.135,0,0,0-6.97-33.553L84.14,87.809a14.8,14.8,0,0,1,9.949,27.764Z" transform="translate(53.527 -63.529)" fill="#006a76"/>
      <path id="Trazado_799354" data-name="Trazado 799354" d="M61.273,90.822c4.339,12.139,3.729,22.107,2.108,27.6L69,117.014a45.275,45.275,0,0,0-7.723-26.192" transform="translate(53.532 -60.46)" fill="#eba58e"/>
      <path id="Trazado_799355" data-name="Trazado 799355" d="M66.725,112.133A43.419,43.419,0,0,0,67.5,104.8L63,105.925a36.4,36.4,0,0,0,3.725,6.207" transform="translate(55.041 -48.246)" fill="#00454d"/>
      <path id="Trazado_799356" data-name="Trazado 799356" d="M64.958,120.8l.064-.326a44.67,44.67,0,0,0-.266-17.82l.334-.073a45.027,45.027,0,0,1,.33,17.631l25.551-11.7a14.669,14.669,0,0,0,8.536-13.3h.341a15.009,15.009,0,0,1-8.735,13.612Z" transform="translate(56.575 -56.625)" fill="#422c4f"/>
      <rect id="Rectángulo_374006" data-name="Rectángulo 374006" width="20.449" height="0.342" transform="translate(42.824 41.647) rotate(-13.96)" fill="#422c4f"/>
      <path id="Trazado_799357" data-name="Trazado 799357" d="M65.226,107.629,29.814,102.5l.047-.339,35.414,5.124Z" transform="translate(26.047 -50.55)" fill="#422c4f"/>
      <path id="Trazado_799358" data-name="Trazado 799358" d="M30.3,144.744c10.684,14.787,29.445,10.684,29.445,10.684l5.081-10.684L34.855,134.572Z" transform="translate(26.472 -22.238)" fill="#422c4f"/>
      <path id="Trazado_799359" data-name="Trazado 799359" d="M20.217,158.542H56.371v-3.974H22.28a13.09,13.09,0,0,0-2.063,3.974" transform="translate(17.663 -4.768)" fill="#fff"/>
      <path id="Trazado_799360" data-name="Trazado 799360" d="M47.186,152.552v-2.61a20.453,20.453,0,0,0-6.288-2.908,19.755,19.755,0,0,1-11.452,9.014l-1.437.431a13.122,13.122,0,0,0-6.691,4.671H55.409v-8.6Z" transform="translate(18.625 -11.349)" fill="#6ca8bf"/>
      <path id="Trazado_799361" data-name="Trazado 799361" d="M38.056,161.43h8.223v-1.239L55.6,144.037l-15.244-7.165-7.528,17.02a18.963,18.963,0,0,1-1.055,2.02,20.453,20.453,0,0,1,6.288,2.908Z" transform="translate(27.754 -20.227)" fill="#f2c9ad"/>
      <path id="Trazado_799362" data-name="Trazado 799362" d="M34.581,144.363a24.832,24.832,0,0,1,14.187,7.251l4.369-7.577L37.9,136.872Z" transform="translate(30.212 -20.227)" fill="#eba58e"/>
      <path id="Trazado_799363" data-name="Trazado 799363" d="M121.761,185.071,90.385,113.74a18.432,18.432,0,0,0-33.7-.111L30.3,172.564c16.676-4.952,29.445,10.684,29.445,10.684L69.907,161.88l5.717,27.067A18.76,18.76,0,0,0,93.98,203.832H103a18.761,18.761,0,0,0,18.761-18.761" transform="translate(26.472 -50.056)" fill="#454f6b"/>
      <path id="Trazado_799364" data-name="Trazado 799364" d="M62.811,121.536c.393,14.545-8.8,36.105-8.8,36.105l-2.574-12.192Z" transform="translate(44.939 -33.625)" fill="#422c4f"/>
      <rect id="Rectángulo_374007" data-name="Rectángulo 374007" width="55.623" height="0.344" transform="translate(85.996 133.085) rotate(-64.416)" fill="#422c4f"/>
      <path id="Trazado_799365" data-name="Trazado 799365" d="M30.529,167.583l-.313-.14L56.6,108.51l.313.141Z" transform="translate(26.399 -45.006)" fill="#422c4f"/>
      <path id="Trazado_799366" data-name="Trazado 799366" d="M56.975,146.332A27.525,27.525,0,0,0,33.1,137.014l-.041-.341a27.856,27.856,0,0,1,24.181,9.438Z" transform="translate(28.88 -20.574)" fill="#422c4f"/>
      <rect id="Rectángulo_374008" data-name="Rectángulo 374008" width="41.989" height="0.342" transform="translate(82.137 125.574) rotate(-63.997)" fill="#422c4f"/>
      <path id="Trazado_799367" data-name="Trazado 799367" d="M50.263,105.043c4.191,1.786,5.025,8.349,4.568,12.851a1.917,1.917,0,0,0,1.669,2.087l1.3.169a1.93,1.93,0,0,0,1.679,1.977l2.608.339a1.625,1.625,0,0,0,1.51,1.623l1.092.077a1.624,1.624,0,0,0,1.726-1.435l.116-1a2.9,2.9,0,0,0,3.326-2.647c.779-10.018-5.061-17.922-11.274-17.922-6.839,0-7.98,2.213-8.325,3.878" transform="translate(43.913 -51.424)" fill="#f2c9ad"/>
      <path id="Trazado_799368" data-name="Trazado 799368" d="M64.745,124.42q-.065,0-.129-.006l-1.092-.077a1.8,1.8,0,0,1-1.662-1.639l-2.466-.32a2.089,2.089,0,0,1-1.825-2l-1.154-.148a2.1,2.1,0,0,1-1.819-2.275l.339.034a1.758,1.758,0,0,0,1.523,1.9l1.458.187,0,.156a1.746,1.746,0,0,0,1.527,1.8l2.756.358v.15A1.462,1.462,0,0,0,63.547,124l1.092.077a1.464,1.464,0,0,0,1.546-1.285l.137-1.171.174.026a2.728,2.728,0,0,0,3.129-2.492,21.753,21.753,0,0,0-.59-7.112,18.387,18.387,0,0,0-2-4.872c-2.155-3.6-5.336-5.752-8.51-5.752-4.442,0-7.017.926-7.873,2.829l-.313-.141c.918-2.04,3.6-3.032,8.186-3.032,3.3,0,6.588,2.213,8.8,5.921a18.686,18.686,0,0,1,2.039,4.96,22.137,22.137,0,0,1,.6,7.227,3.1,3.1,0,0,1-1.156,2.173,3.046,3.046,0,0,1-2.192.65l-.094.824a1.792,1.792,0,0,1-1.782,1.591" transform="translate(43.978 -51.503)" fill="#422c4f"/>
      <path id="Trazado_799369" data-name="Trazado 799369" d="M59.542,116.75l-.343-.017a35.321,35.321,0,0,0-.734-9.765l.332-.086a35.818,35.818,0,0,1,.746,9.869" transform="translate(51.079 -46.429)" fill="#422c4f"/>
      <path id="Trazado_799370" data-name="Trazado 799370" d="M57.109,117.633l-.343-.021c.551-8.643-.6-10.706-.607-10.727l.292-.176c.051.082,1.218,2.117.658,10.923" transform="translate(49.064 -46.578)" fill="#422c4f"/>
      <path id="Trazado_799371" data-name="Trazado 799371" d="M54.538,115.171l-.339-.036a31.21,31.21,0,0,0,0-8.184l.337-.066a31.525,31.525,0,0,1,0,8.285" transform="translate(47.351 -46.425)" fill="#422c4f"/>
    </g>
  </g>
</svg>
