<svg xmlns="http://www.w3.org/2000/svg" xmlns:xlink="http://www.w3.org/1999/xlink" width="400" height="538" viewBox="0 0 400 538">
  <defs>
    <clipPath id="clip-path">
      <rect id="Rectángulo_374127" data-name="Rectángulo 374127" width="204.174" height="440.236" fill="none"/>
    </clipPath>
    <clipPath id="clip-path-3">
      <rect id="Rectángulo_374118" data-name="Rectángulo 374118" width="18.668" height="22.651" fill="none"/>
    </clipPath>
    <clipPath id="clip-path-4">
      <path id="Trazado_799903" data-name="Trazado 799903" d="M77.648,60.84a9.6,9.6,0,1,0,.344-.005c-.114,0-.229,0-.344.005" transform="translate(-68.411 -60.835)" fill="none"/>
    </clipPath>
    <radialGradient id="radial-gradient" cx="0.5" cy="0.496" r="0.479" gradientTransform="matrix(-0.991, 0, 0, -1, -8.573, 36.288)" gradientUnits="objectBoundingBox">
      <stop offset="0" stop-color="#e89575"/>
      <stop offset="1" stop-color="#f2b27e"/>
    </radialGradient>
    <clipPath id="clip-path-5">
      <path id="Trazado_799904" data-name="Trazado 799904" d="M47.186,69.755a9.563,9.563,0,0,0-2.17.326,47.918,47.918,0,0,0,10.2,14.94A9.573,9.573,0,0,0,47.53,69.749c-.114,0-.229,0-.344.006" transform="translate(-45.016 -69.749)" fill="none"/>
    </clipPath>
    <radialGradient id="radial-gradient-2" cx="0.213" cy="0.615" r="0.61" gradientTransform="matrix(-1.237, 0, 0, -1, -10.094, 44.786)" xlink:href="#radial-gradient"/>
    <clipPath id="clip-path-7">
      <path id="Trazado_799909" data-name="Trazado 799909" d="M54.591,64.075a5.575,5.575,0,0,1,.452,5.737c-.542,1.047-1.434,1.952-1.623,3.116a3.419,3.419,0,0,0,1.072,2.9,6.028,6.028,0,0,0,2.83,1.442,4.912,4.912,0,0,0,3.846-3.71c.936-3.347-1.125-7.477-3.083-9.876a2.158,2.158,0,0,0-1.622-.974c-1.121,0-1.871,1.364-1.871,1.364" transform="translate(-53.385 -62.711)" fill="none"/>
    </clipPath>
    <linearGradient id="linear-gradient" x1="-3.991" y1="30.393" x2="-3.912" y2="30.393" gradientUnits="objectBoundingBox">
      <stop offset="0" stop-color="#db8965"/>
      <stop offset="1" stop-color="#f2b27e"/>
    </linearGradient>
    <clipPath id="clip-path-9">
      <path id="Trazado_799914" data-name="Trazado 799914" d="M62.6,74.24c-6.659,2.17-4.067,7.219-4.2,8.506,12-3.545,15.7-5.691,15.7-5.691a13.622,13.622,0,0,0-8.358-3.317,10.1,10.1,0,0,0-3.15.5" transform="translate(-58.012 -73.738)" fill="none"/>
    </clipPath>
    <clipPath id="clip-path-11">
      <rect id="Rectángulo_374125" data-name="Rectángulo 374125" width="84.699" height="22.978" fill="none"/>
    </clipPath>
  </defs>
  <g id="Grupo_1065198" data-name="Grupo 1065198" transform="translate(-14968 9146)">
    <rect id="Rectángulo_374086" data-name="Rectángulo 374086" width="400" height="538" rx="20" transform="translate(14968 -9146)" fill="#ff8182"/>
    <path id="Trazado_800451" data-name="Trazado 800451" d="M107.348,11.568H102.5v3.059h5.73V17H99.412V4.2h8.833V6.585H102.5v2.7h4.852Zm8.736,2.03a1.268,1.268,0,0,0-.479-1.055,5.954,5.954,0,0,0-1.683-.782,16.147,16.147,0,0,1-1.969-.782q-2.487-1.222-2.487-3.357a3.011,3.011,0,0,1,.62-1.876,4.008,4.008,0,0,1,1.753-1.266,6.823,6.823,0,0,1,2.549-.453,5.969,5.969,0,0,1,2.474.492,3.917,3.917,0,0,1,1.7,1.4A3.661,3.661,0,0,1,119.169,8h-3.076a1.547,1.547,0,0,0-.479-1.213,1.867,1.867,0,0,0-1.3-.431,2.106,2.106,0,0,0-1.305.365,1.074,1.074,0,0,0,.048,1.819,6.65,6.65,0,0,0,1.854.826,11.36,11.36,0,0,1,2.18.918,3.663,3.663,0,0,1,2.074,3.3,3.125,3.125,0,0,1-1.266,2.637,5.629,5.629,0,0,1-3.472.958,6.888,6.888,0,0,1-2.817-.558,4.247,4.247,0,0,1-1.9-1.529,3.985,3.985,0,0,1-.637-2.237h3.094a1.963,1.963,0,0,0,.532,1.516,2.513,2.513,0,0,0,1.727.488,1.985,1.985,0,0,0,1.208-.33A1.088,1.088,0,0,0,116.084,13.6ZM130.8,6.585h-3.841V17h-3.085V6.585H120.1V4.2h10.7ZM135.385,17h-3.076V4.2h3.076Zm6.2-12.8,2.856,8.9,2.848-8.9h4.061V17h-3.094V14.012l.3-6.117L145.458,17h-2.039l-3.1-9.114.3,6.126V17H137.53V4.2Zm21.762,0v8.376a4.814,4.814,0,0,1-.606,2.465A3.929,3.929,0,0,1,161,16.631a6.131,6.131,0,0,1-2.681.545,5.3,5.3,0,0,1-3.683-1.213,4.326,4.326,0,0,1-1.371-3.322V4.2h3.1v8.5q.053,2.1,1.951,2.1a1.889,1.889,0,0,0,1.45-.527,2.465,2.465,0,0,0,.492-1.714V4.2Zm5.01,10.424h5.37V17h-8.455V4.2h3.085Zm14.106-.018h-4.228L177.494,17h-3.3l4.693-12.8h2.9L186.52,17h-3.313Zm-3.489-2.382h2.751l-1.38-4.438ZM198.139,17h-3.067l-4.535-7.963V17h-3.085V4.2h3.085l4.526,7.963V4.2h3.076ZM209.881,6.585h-3.841V17h-3.085V6.585h-3.771V4.2h10.7Zm9.237,4.983h-4.852v3.059H220V17h-8.815V4.2h8.833V6.585h-5.748v2.7h4.852Zm8.736,2.03a1.268,1.268,0,0,0-.479-1.055,5.954,5.954,0,0,0-1.683-.782,16.147,16.147,0,0,1-1.969-.782q-2.487-1.222-2.487-3.357a3.011,3.011,0,0,1,.62-1.876A4.008,4.008,0,0,1,223.61,4.48a6.823,6.823,0,0,1,2.549-.453,5.969,5.969,0,0,1,2.474.492,3.917,3.917,0,0,1,1.7,1.4A3.661,3.661,0,0,1,230.94,8h-3.076a1.547,1.547,0,0,0-.479-1.213,1.867,1.867,0,0,0-1.3-.431,2.106,2.106,0,0,0-1.305.365,1.074,1.074,0,0,0,.048,1.819,6.65,6.65,0,0,0,1.854.826,11.36,11.36,0,0,1,2.18.918,3.663,3.663,0,0,1,2.074,3.3,3.125,3.125,0,0,1-1.266,2.637,5.629,5.629,0,0,1-3.472.958,6.888,6.888,0,0,1-2.817-.558,4.247,4.247,0,0,1-1.9-1.529,3.985,3.985,0,0,1-.637-2.237h3.094a1.963,1.963,0,0,0,.532,1.516,2.513,2.513,0,0,0,1.727.488,1.985,1.985,0,0,0,1.208-.33A1.088,1.088,0,0,0,227.855,13.6Z" transform="translate(15003 -9114)" fill="#12263f"/>
    <g id="Grupo_1065197" data-name="Grupo 1065197" transform="translate(15065.912 -9076)">
      <g id="Grupo_1065196" data-name="Grupo 1065196" clip-path="url(#clip-path)">
        <g id="Grupo_1065178" data-name="Grupo 1065178">
          <g id="Grupo_1065177" data-name="Grupo 1065177" clip-path="url(#clip-path)">
            <path id="Trazado_799869" data-name="Trazado 799869" d="M119.375,80.682a137.659,137.659,0,0,0-19.909-2.459C92.057,77.8,84.553,77.779,77.3,79.35c-13.6,2.944-25.471,12.025-32.753,23.773-8.226,13.274-9.085,29.647-16.183,43.69-6.3,12.465-16.241,22.849-22.233,35.466A64.488,64.488,0,0,0,50.9,273.016c9.317,1.991,18.941,1.9,28.414,2.915,18.3,1.971,36.46,8.124,54.726,5.828,17.105-2.151,32.535-11.6,45.414-23.063,9.3-8.279,18.565-21.624,22.195-33.619a62.353,62.353,0,0,0,2.308-14.2,108.2,108.2,0,0,0-12.168-57.459c-12.06-22.53-25.438-50.02-48.18-63.678a76.849,76.849,0,0,0-24.235-9.053" transform="translate(0 21.614)" fill="#8edee0"/>
            <path id="Trazado_799870" data-name="Trazado 799870" d="M72.15,333.812a2.521,2.521,0,0,1-1.266-.146,2.746,2.746,0,0,1-.889-.852,21.188,21.188,0,0,0-8.174-6.463,13.505,13.505,0,0,0,3.588-5.976c.923-3.436.736-7.062.48-10.61-.088-1.226-.314-3.25-.639-5.832l18.688-2.063c-.114,3.742-.216,7.765-.276,12.188-.042,3.15,1.414,10.276,2.616,15.813a35.578,35.578,0,0,1-14.128,3.939" transform="translate(17.136 83.674)" fill="#f2b27e"/>
            <path id="Trazado_799871" data-name="Trazado 799871" d="M81.4,334.244c-5.761,1.519-11.524,3.037-17.344,4.308a21.506,21.506,0,0,1-6.005.7c-1.309-3.363-3.079-6.812-6.033-8.781,3.631-2.273,7.436-4.621,9.29-6.348q.464-.433.922-.853c.808-.743,1.586-1.474,2.313-2.233a21.179,21.179,0,0,1,8.174,6.463,2.759,2.759,0,0,0,.889.852,2.525,2.525,0,0,0,1.266.146A35.59,35.59,0,0,0,89,324.559c.082.378.162.75.241,1.111.421,1.923.791,3.576,1.028,4.713a16.491,16.491,0,0,1-3.19,1.99,32.934,32.934,0,0,1-5.68,1.871" transform="translate(14.417 88.987)" fill="#6666b2"/>
            <path id="Trazado_799872" data-name="Trazado 799872" d="M45.752,334.484c1.035-1.419,4.6-3.69,8.36-6.041,2.954,1.968,4.724,5.418,6.033,8.781a21.492,21.492,0,0,0,6-.7c5.821-1.271,11.584-2.789,17.345-4.308a32.971,32.971,0,0,0,5.68-1.871,16.491,16.491,0,0,0,3.19-1.99c.161.768.264,1.307.277,1.508.33,5.267-9.954,5.574-13.372,6.353-5.646,1.287-10.968,3.669-16.589,5.05-4.774,1.172-11.407,1.922-16.091,0-2.952-1.213-2.485-4.519-.838-6.779" transform="translate(12.319 91.015)" fill="#8080cc"/>
            <path id="Trazado_799873" data-name="Trazado 799873" d="M76.947,320.836a7.042,7.042,0,0,1-3.293,4.921" transform="translate(20.416 88.931)" fill="none" stroke="#000" stroke-linecap="round" stroke-linejoin="round" stroke-width="0.5"/>
            <path id="Trazado_799874" data-name="Trazado 799874" d="M95.217,339.119a2.52,2.52,0,0,1-1.266-.146,2.736,2.736,0,0,1-.889-.853,21.2,21.2,0,0,0-8.175-6.463,13.484,13.484,0,0,0,3.589-5.975c.923-3.436.736-7.062.48-10.61-.088-1.226-.314-3.25-.639-5.832l18.688-2.063c-.114,3.742-.216,7.765-.275,12.188-.043,3.15,1.413,10.276,2.614,15.813a35.577,35.577,0,0,1-14.128,3.939" transform="translate(23.529 85.145)" fill="#f2b27e"/>
            <path id="Trazado_799875" data-name="Trazado 799875" d="M104.463,339.552c-5.761,1.519-11.524,3.036-17.344,4.308a21.5,21.5,0,0,1-6.005.7c-1.309-3.363-3.079-6.812-6.033-8.781,3.631-2.273,7.436-4.621,9.29-6.348q.464-.433.922-.853c.808-.743,1.586-1.474,2.313-2.233a21.178,21.178,0,0,1,8.174,6.461,2.748,2.748,0,0,0,.889.853,2.524,2.524,0,0,0,1.266.146,35.582,35.582,0,0,0,14.129-3.939c.082.378.162.75.241,1.111.421,1.923.791,3.576,1.028,4.713a16.487,16.487,0,0,1-3.19,1.99,32.939,32.939,0,0,1-5.68,1.871" transform="translate(20.811 90.458)" fill="#6666b2"/>
            <path id="Trazado_799876" data-name="Trazado 799876" d="M68.819,339.792c1.035-1.419,4.6-3.69,8.36-6.041,2.954,1.968,4.724,5.418,6.033,8.781a21.5,21.5,0,0,0,6-.7c5.821-1.271,11.584-2.789,17.344-4.308a32.9,32.9,0,0,0,5.68-1.871,16.458,16.458,0,0,0,3.192-1.99c.161.768.264,1.307.277,1.508.33,5.267-9.954,5.574-13.372,6.353-5.646,1.287-10.97,3.669-16.589,5.05-4.774,1.172-11.407,1.922-16.091,0-2.952-1.212-2.485-4.519-.838-6.779" transform="translate(18.713 92.486)" fill="#8080cc"/>
            <path id="Trazado_799877" data-name="Trazado 799877" d="M100.014,326.144a7.042,7.042,0,0,1-3.293,4.921" transform="translate(26.809 90.402)" fill="none" stroke="#000" stroke-linecap="round" stroke-linejoin="round" stroke-width="0.5"/>
            <path id="Trazado_799878" data-name="Trazado 799878" d="M102.146,156.609s3.282,9.807,2.356,40.884-20.351,67.589-20.351,67.589,3.83,28.27,5.184,46.689-.516,46.813-.516,46.813-1.208,4.211-8.963,6.217-11.73-1.418-11.73-1.418-18.353-76.551-19.858-92.81,5.008-46.649,10.96-68.6,14.589-47.71,14.589-47.71Z" transform="translate(13.319 42.759)" fill="#dba13a"/>
            <path id="Trazado_799879" data-name="Trazado 799879" d="M125.158,160.711s3.284,9.806,2.356,40.884-20.351,67.589-20.351,67.589,3.83,28.27,5.184,46.689-.516,46.811-.516,46.811-1.208,4.212-8.963,6.219-11.73-1.418-11.73-1.418-17.48-67.818-18.984-84.078,10.221-76.731,10.221-76.731l9.215-48.311Z" transform="translate(19.963 43.896)" fill="#dba13a"/>
            <path id="Trazado_799880" data-name="Trazado 799880" d="M85.313,326.807c-4.853-20.024-10.3-43.75-11.111-52.51-1.337-14.459,7.787-63.88,9.824-74.648a140.44,140.44,0,0,1-19.385-8.42" transform="translate(17.917 53.006)" fill="none" stroke="#000" stroke-linecap="round" stroke-linejoin="round" stroke-width="0.5"/>
            <path id="Trazado_799881" data-name="Trazado 799881" d="M100.556,245.363q-4.717,1.234-9.435,2.464" transform="translate(25.257 68.011)" fill="none" stroke="#000" stroke-linecap="round" stroke-linejoin="round" stroke-width="0.5"/>
            <path id="Trazado_799882" data-name="Trazado 799882" d="M112.913,160.2s3.284,9.806,2.356,40.884-20.351,67.589-20.351,67.589,3.83,28.27,5.184,46.689.28,51.635.28,51.635" transform="translate(26.31 44.405)" fill="none" stroke="#000" stroke-linecap="round" stroke-linejoin="round" stroke-width="0.5"/>
            <path id="Trazado_799883" data-name="Trazado 799883" d="M111.584,211.6c-4.106-1.337-6.82-5.252-8.553-9.207a38.978,38.978,0,0,1-3.262-15.423" transform="translate(27.654 51.826)" fill="none" stroke="#000" stroke-linecap="round" stroke-linejoin="round" stroke-width="0.5"/>
            <path id="Trazado_799884" data-name="Trazado 799884" d="M75.382,257.414a12.058,12.058,0,0,0,9.34.706" transform="translate(20.895 71.351)" fill="none" stroke="#000" stroke-linecap="round" stroke-linejoin="round" stroke-width="0.5"/>
            <path id="Trazado_799885" data-name="Trazado 799885" d="M50.386,249.766a12.126,12.126,0,0,0,8.9,1.465" transform="translate(13.966 69.231)" fill="none" stroke="#000" stroke-linecap="round" stroke-linejoin="round" stroke-width="0.5"/>
            <path id="Trazado_799886" data-name="Trazado 799886" d="M82.954,198.477q-8.975,2.4-18.1,4.187" transform="translate(17.976 55.015)" fill="none" stroke="#000" stroke-linecap="round" stroke-linejoin="round" stroke-width="0.5"/>
            <path id="Trazado_799887" data-name="Trazado 799887" d="M78.995,201.605l-9.123,2.852" transform="translate(19.367 55.882)" fill="none" stroke="#000" stroke-linecap="round" stroke-linejoin="round" stroke-width="0.5"/>
            <path id="Trazado_799888" data-name="Trazado 799888" d="M78.538,201.056a66.308,66.308,0,0,1,4.2-17.768" transform="translate(21.769 50.804)" fill="none" stroke="#000" stroke-linecap="round" stroke-linejoin="round" stroke-width="0.5"/>
            <path id="Trazado_799889" data-name="Trazado 799889" d="M74.664,199.724a70,70,0,0,1,3.422-18.83" transform="translate(20.696 50.141)" fill="none" stroke="#000" stroke-linecap="round" stroke-linejoin="round" stroke-width="0.5"/>
            <path id="Trazado_799890" data-name="Trazado 799890" d="M72.581,102.375c-.22-4.922-.542-10.334-2.344-14.972a25.224,25.224,0,0,0-4.9-7.138c-.536-.616-1.406-1.281-2.068-.8a1.552,1.552,0,0,0-.46,1.293c-.014,3.07,1.516,5.979,1.584,9.049.015.738-.17,1.641-1.114,1.167a2.7,2.7,0,0,1-.785-.7c-2.665-3.1-5.425-6.385-6.253-10.389a22.125,22.125,0,0,0-.759-3.577c-.356-.914-2.436-3.46-3.542-2.084a3.819,3.819,0,0,0-1.565-.794,1.482,1.482,0,0,0-1.544.611,2.04,2.04,0,0,1-.24.425,1.447,1.447,0,0,1-.49.285,2.988,2.988,0,0,0-1.52,2.107,8.811,8.811,0,0,0-.036,2.681,2.6,2.6,0,0,0-1.174,2.023,7.644,7.644,0,0,0,.263,2.4q.824,3.78,1.649,7.558A27.552,27.552,0,0,0,49.469,97.5a25.78,25.78,0,0,0,4.982,6.832c1.487,1.519,2.814,3.183,4.248,4.75s2.178,5.1,2.178,5.1S39.443,165.793,55.862,171s30.767-35.309,34.512-51.773-2.851-28.4-9.824-26.259-7.97,9.409-7.97,9.409" transform="translate(12.571 20.345)" fill="#f2b27e"/>
            <path id="Trazado_799891" data-name="Trazado 799891" d="M60.019,99.07a21.081,21.081,0,0,0-7.5-8.977" transform="translate(14.557 24.972)" fill="none" stroke="#333" stroke-linecap="round" stroke-linejoin="round" stroke-width="0.5"/>
            <path id="Trazado_799892" data-name="Trazado 799892" d="M46.407,78.227c1.049.743,1.361,2.134,1.619,3.393a37.775,37.775,0,0,0,2.33,7.9" transform="translate(12.863 21.683)" fill="none" stroke="#333" stroke-linecap="round" stroke-linejoin="round" stroke-width="0.5"/>
            <path id="Trazado_799893" data-name="Trazado 799893" d="M48.176,74.273c1.41,1.441,1.759,3.577,2.133,5.558a65.912,65.912,0,0,0,2.342,8.947" transform="translate(13.354 20.587)" fill="none" stroke="#333" stroke-linecap="round" stroke-linejoin="round" stroke-width="0.5"/>
            <path id="Trazado_799894" data-name="Trazado 799894" d="M50.735,74.325a11.548,11.548,0,0,1,1.349,4.4,36.984,36.984,0,0,0,2.547,8.212" transform="translate(14.063 20.602)" fill="none" stroke="#333" stroke-linecap="round" stroke-linejoin="round" stroke-width="0.5"/>
            <path id="Trazado_799895" data-name="Trazado 799895" d="M66.924,96.189a116.825,116.825,0,0,0-.751,13.34c.069,3.493.45,6.972.783,10.45,1.147,11.972,1.7,24.27-1.663,35.819" transform="translate(18.098 26.662)" fill="none" stroke="#333" stroke-linecap="round" stroke-linejoin="round" stroke-width="0.5"/>
            <path id="Trazado_799896" data-name="Trazado 799896" d="M77.152,107.755s-6.745-4.69-7.673-12.339a3.2,3.2,0,0,0,1.536-1.806c.865-3.548-3.11-14.218-3.11-14.218l17.81-7.92s.009,12.384,4.475,16.413a7.845,7.845,0,0,0,2.987,1.461c-1.056,2.843-5.388,12.8-16.026,18.408" transform="translate(18.822 19.811)" fill="#f2b27e"/>
            <g id="Grupo_1065176" data-name="Grupo 1065176" transform="translate(86.728 91.284)" opacity="0.7" style="mix-blend-mode: multiply;isolation: isolate">
              <g id="Grupo_1065175" data-name="Grupo 1065175">
                <g id="Grupo_1065174" data-name="Grupo 1065174" clip-path="url(#clip-path-3)">
                  <path id="Trazado_799897" data-name="Trazado 799897" d="M67.906,79.393l17.809-7.919a48.31,48.31,0,0,0,.86,8.35c-2.94,6.249-8.689,15.827-15.68,14.094a1.906,1.906,0,0,0,.12-.307c.866-3.548-3.109-14.219-3.109-14.219" transform="translate(-67.905 -71.473)" fill="#f2b27e"/>
                </g>
              </g>
            </g>
            <path id="Trazado_799898" data-name="Trazado 799898" d="M70.232,156.09s-4.2-16.307-4.644-20.31c-3.393-30.839,3.639-42.162,6.861-44.243.929,7.649,7.672,12.339,7.672,12.339C90.76,98.265,95.092,88.311,96.147,85.468c7.086,2.115,24.31,1.613,30.539,9.063,13.831,17.571,10.373,115.41,10.373,115.41s-13.083,10.118-36.077,7.442S57.192,199.8,57.192,199.8c.051-.1,13.04-43.712,13.04-43.712" transform="translate(15.853 23.69)" fill="#9999e6"/>
            <path id="Trazado_799899" data-name="Trazado 799899" d="M71.064,170.125c8.6,1.614,17.57.271,25.77-2.774s15.7-7.731,22.762-12.884" transform="translate(19.698 42.816)" fill="none" stroke="#333" stroke-linecap="round" stroke-linejoin="round" stroke-width="0.5"/>
            <path id="Trazado_799900" data-name="Trazado 799900" d="M68.172,140.774a45.871,45.871,0,0,0,12.036.22" transform="translate(18.896 39.02)" fill="none" stroke="#333" stroke-linecap="round" stroke-linejoin="round" stroke-width="0.5"/>
            <path id="Trazado_799901" data-name="Trazado 799901" d="M121.3,52.944A14.022,14.022,0,0,0,113.92,43.8a11.608,11.608,0,0,0-9.364-16.186,10.187,10.187,0,0,0,4.128-4.7,2.932,2.932,0,0,0,.308-1.522c-.17-1.238-1.58-1.876-2.817-2.052-3.987-.567-7.768,1.287-10.88,4a29.974,29.974,0,0,0-11.122-10.57c-1.241-.677-2.788-1.261-4.015-.557a3.074,3.074,0,0,0-1.185,3.347,9.007,9.007,0,0,0,1.833,3.3,39.3,39.3,0,0,0-27.168-1.48,9.757,9.757,0,0,0-4.266,2.286,3.983,3.983,0,0,0-.886,4.485C49.5,26,52.027,26.234,54.137,26.175a32.417,32.417,0,0,0-13.7,7.643c-3.132,2.945-5.723,6.657-6.516,10.883a3.542,3.542,0,0,0,.023,1.838c.7,1.925,3.488,1.625,5.423.955A24.79,24.79,0,0,0,33.623,55.2,24.49,24.49,0,0,0,30.6,63.346a10.128,10.128,0,0,0,2.184,8.173c1.969,2.144,5.463,2.968,7.921,1.407-1.76,4.243.063,9.377,3.487,12.437s8.12,4.333,12.7,4.657a28.009,28.009,0,0,0,13.16-2,18.815,18.815,0,0,0,9.6-8.985,17.573,17.573,0,0,0,20.72,8.418,17.575,17.575,0,0,0,11.11-19.412c2.86.617,5.742-1.235,7.487-3.585A14.017,14.017,0,0,0,121.3,52.944" transform="translate(8.451 3.296)" fill="#9b5b2f"/>
            <path id="Trazado_799902" data-name="Trazado 799902" d="M41.563,63.822c.72,20.476,15.864,40.267,27.892,39.843,16.864-.594,34.4-19.712,33.676-40.189S89.349,24.961,72.484,25.555,40.843,43.349,41.563,63.822" transform="translate(11.514 7.08)" fill="#f2b27e"/>
          </g>
        </g>
        <g id="Grupo_1065180" data-name="Grupo 1065180" transform="translate(87.374 77.697)">
          <g id="Grupo_1065179" data-name="Grupo 1065179" clip-path="url(#clip-path-4)">
            <rect id="Rectángulo_374120" data-name="Rectángulo 374120" width="20.175" height="20" transform="translate(-0.86 0.024) rotate(-2.017)" fill="url(#radial-gradient)"/>
          </g>
        </g>
        <g id="Grupo_1065182" data-name="Grupo 1065182" transform="translate(57.494 89.082)">
          <g id="Grupo_1065181" data-name="Grupo 1065181" clip-path="url(#clip-path-5)">
            <rect id="Rectángulo_374121" data-name="Rectángulo 374121" width="12.684" height="15.691" transform="translate(-0.537 0.019) rotate(-2.017)" fill="url(#radial-gradient-2)"/>
          </g>
        </g>
        <g id="Grupo_1065184" data-name="Grupo 1065184">
          <g id="Grupo_1065183" data-name="Grupo 1065183" clip-path="url(#clip-path)">
            <path id="Trazado_799905" data-name="Trazado 799905" d="M61.173,62.305a3.4,3.4,0,1,0,3.281-3.52,3.4,3.4,0,0,0-3.281,3.52" transform="translate(16.956 16.294)"/>
            <path id="Trazado_799906" data-name="Trazado 799906" d="M47.093,66.545a3.4,3.4,0,1,0,3.281-3.52,3.4,3.4,0,0,0-3.281,3.52" transform="translate(13.053 17.469)"/>
            <path id="Trazado_799907" data-name="Trazado 799907" d="M68.089,58.562a6.057,6.057,0,0,0-7.083,3.225" transform="translate(16.91 16.174)" fill="none" stroke="#000" stroke-linecap="round" stroke-linejoin="round" stroke-width="0.5"/>
            <path id="Trazado_799908" data-name="Trazado 799908" d="M53.364,63.068A4.95,4.95,0,0,0,47,65.658" transform="translate(13.028 17.386)" fill="none" stroke="#000" stroke-linecap="round" stroke-linejoin="round" stroke-width="0.5"/>
          </g>
        </g>
        <g id="Grupo_1065186" data-name="Grupo 1065186" transform="translate(68.182 80.093)">
          <g id="Grupo_1065185" data-name="Grupo 1065185" clip-path="url(#clip-path-7)">
            <rect id="Rectángulo_374123" data-name="Rectángulo 374123" width="16.136" height="11.804" transform="matrix(0.217, -0.976, 0.976, 0.217, -3.222, 13.875)" fill="url(#linear-gradient)"/>
          </g>
        </g>
        <g id="Grupo_1065188" data-name="Grupo 1065188">
          <g id="Grupo_1065187" data-name="Grupo 1065187" clip-path="url(#clip-path)">
            <path id="Trazado_799910" data-name="Trazado 799910" d="M54.591,63.779a5.573,5.573,0,0,1,.452,5.736c-.542,1.047-1.436,1.953-1.623,3.118a3.419,3.419,0,0,0,1.072,2.9,6.036,6.036,0,0,0,2.83,1.443" transform="translate(14.797 17.679)" fill="none" stroke="#000" stroke-linecap="round" stroke-linejoin="round" stroke-width="0.5"/>
            <path id="Trazado_799911" data-name="Trazado 799911" d="M58.4,82.745c.129-1.287-2.464-6.335,4.2-8.5,6.266-2.042,11.507,2.814,11.507,2.814s-3.7,2.147-15.7,5.691" transform="translate(16.08 20.439)"/>
          </g>
        </g>
        <g id="Grupo_1065190" data-name="Grupo 1065190" transform="translate(74.091 94.177)">
          <g id="Grupo_1065189" data-name="Grupo 1065189" clip-path="url(#clip-path-9)">
            <path id="Trazado_799912" data-name="Trazado 799912" d="M60.04,86.593c1.648,2.639,7.853,1.736,13.863-2.015s9.544-8.93,7.9-11.569-7.853-1.736-13.863,2.015-9.544,8.93-7.9,11.569" transform="translate(-57.561 -74.359)" fill="#d8714c"/>
            <path id="Trazado_799913" data-name="Trazado 799913" d="M74.934,74.336S63.928,79.151,60.126,80.15s-7.207-2.9-7.207-2.9L72.305,69.63Z" transform="translate(-59.423 -74.877)" fill="#fff"/>
          </g>
        </g>
        <g id="Grupo_1065195" data-name="Grupo 1065195">
          <g id="Grupo_1065194" data-name="Grupo 1065194" clip-path="url(#clip-path)">
            <path id="Trazado_799915" data-name="Trazado 799915" d="M70.939,53.619c-1.314.119-2.575.291-3.833.441s-2.5.286-3.755.375c-1.249.116-2.5.176-3.764.243s-2.535.091-3.852.18a14.106,14.106,0,0,0,3.806.972,19.547,19.547,0,0,0,3.932.075,19.867,19.867,0,0,0,3.865-.723,14.465,14.465,0,0,0,3.6-1.563" transform="translate(15.449 14.862)" fill="#9b5b2f"/>
            <path id="Trazado_799916" data-name="Trazado 799916" d="M42.823,64.519a11.379,11.379,0,0,0,3.35-1.008,15.4,15.4,0,0,0,5.493-4.281,11.411,11.411,0,0,0,1.8-3c-.923.731-1.769,1.474-2.623,2.2s-1.713,1.418-2.584,2.1-1.759,1.337-2.662,2-1.835,1.289-2.774,2" transform="translate(11.87 15.586)" fill="#9b5b2f"/>
            <path id="Trazado_799917" data-name="Trazado 799917" d="M45.608,64.047a16.549,16.549,0,0,0,4.738-3.786,38.506,38.506,0,0,0,6.645-9.9c-.511,2.806,2.095,5.471,4.92,5.867s5.626-.932,7.9-2.655c4.837-3.666,8.021-9.109,10.389-14.7A17.453,17.453,0,0,0,82.328,48c1.646,2.7,4.635,4.742,7.8,4.581A12.284,12.284,0,0,0,99.7,63.341c1.793.355,3.89.193,5.1-1.176a5.87,5.87,0,0,0,1.148-3.7c.226-5.247-1.536-10.38-3.734-15.149-3.45-7.483-8.493-14.828-16.112-17.967a28.685,28.685,0,0,0-6.719-1.743,37.763,37.763,0,0,0-16.176.884A27.289,27.289,0,0,0,49.7,33.212a40.1,40.1,0,0,0-3.774,5.811A45.873,45.873,0,0,0,41.4,49.351a40.1,40.1,0,0,0-1.066,12.034c.041,1.009-.149,2.7.807,3.364,1.1.768,3.425-.193,4.469-.7" transform="translate(11.165 6.411)" fill="#9b5b2f"/>
            <path id="Trazado_799918" data-name="Trazado 799918" d="M85.642,56.862c-1.609,6.128-.794,11.451,3.553,12.593S99.774,67.127,101.385,61s-.608-12.022-4.955-13.164-9.177,2.9-10.787,9.027" transform="translate(23.527 13.205)" fill="#f2b27e"/>
            <path id="Trazado_799919" data-name="Trazado 799919" d="M98.938,49.5s-7.275,1.857-11.3,15.274" transform="translate(24.293 13.719)" fill="none" stroke="#000" stroke-linecap="round" stroke-linejoin="round" stroke-width="0.5"/>
            <path id="Trazado_799920" data-name="Trazado 799920" d="M47.451,74.441c5.339,9.243,12.9,15.633,19.671,15.6a30.851,30.851,0,0,0,3.374-.176" transform="translate(13.153 20.634)" fill="none" stroke="#333" stroke-linecap="round" stroke-linejoin="round" stroke-width="0.5"/>
            <g id="Grupo_1065193" data-name="Grupo 1065193" transform="translate(42.985 28.735)" opacity="0.7" style="mix-blend-mode: screen;isolation: isolate">
              <g id="Grupo_1065192" data-name="Grupo 1065192">
                <g id="Grupo_1065191" data-name="Grupo 1065191" clip-path="url(#clip-path-11)">
                  <path id="Trazado_799921" data-name="Trazado 799921" d="M47.43,39.349c6.176-1.99,11.732-5.632,17.95-7.489,11.477-3.428,23.914-.416,34.959,4.217a123.526,123.526,0,0,1,18.016,9.4,13.924,13.924,0,0,0-5.313-4.62,11.8,11.8,0,0,0-.589-10.46,11.264,11.264,0,0,0-1.939-2.448c-10.1-4.247-21.105-6.367-31.941-5.074-6.772.808-13.335,2.911-20.1,3.759a34.6,34.6,0,0,1-12.408-.484,32.231,32.231,0,0,0-6.5,4.727,22.138,22.138,0,0,0-5.9,8.662c4.222,1.605,9.352,1.236,13.774-.189" transform="translate(-33.656 -22.499)" fill="#9b5b2f"/>
                </g>
              </g>
            </g>
            <path id="Trazado_799922" data-name="Trazado 799922" d="M113.446,93.758c-6.363-.536-7.7.413-10.512,12.372a155.028,155.028,0,0,0-3.342,26.545s-8.118-11.934-12.822-18.841c1.035-4.839,2.876-9.583,3.272-14.5a48.133,48.133,0,0,0-2.731-18.656c-.686-2.051-1.692-4.259-3.692-5.084a3.754,3.754,0,0,1-.759-.35,2.81,2.81,0,0,1-.626-.732c-1.124-1.645-2.359-1.985-4.044-2.654-1.252-.5-3.032-.8-3.6.932-1.112-.7-2.64.382-2.912,1.665a6.813,6.813,0,0,0,.747,3.8,48.2,48.2,0,0,1,1.725,5.231,11.917,11.917,0,0,1,.5,2.972c.018,2.055-.877,3.991-1.373,5.985a34.2,34.2,0,0,0,.441,17.072,45.742,45.742,0,0,0,1.451,5.635c4.709,13.865,13.43,50.269,23.858,55.6,13.165,6.724,25.439-34.536,27.895-49.91s-5.248-26.393-13.473-27.085" transform="translate(19.846 19.811)" fill="#f2b27e"/>
            <path id="Trazado_799923" data-name="Trazado 799923" d="M79.974,74.831a74.134,74.134,0,0,1,3.92,11.65" transform="translate(22.167 20.742)" fill="none" stroke="#333" stroke-linecap="round" stroke-linejoin="round" stroke-width="0.5"/>
            <path id="Trazado_799924" data-name="Trazado 799924" d="M76.609,72.846a82.138,82.138,0,0,1,4.821,12.87" transform="translate(21.235 20.192)" fill="none" stroke="#333" stroke-linecap="round" stroke-linejoin="round" stroke-width="0.5"/>
            <path id="Trazado_799925" data-name="Trazado 799925" d="M73.922,73.107A48.572,48.572,0,0,1,78.35,85.682" transform="translate(20.49 20.264)" fill="none" stroke="#333" stroke-linecap="round" stroke-linejoin="round" stroke-width="0.5"/>
            <path id="Trazado_799926" data-name="Trazado 799926" d="M90.044,93.683a53.927,53.927,0,0,0-2.732-13c-.687-2.051-1.692-4.259-3.692-5.083a3.725,3.725,0,0,1-.759-.351,2.764,2.764,0,0,1-.627-.731c-1.125-1.645-2.358-1.985-4.042-2.655-1.254-.5-3.032-.8-3.605.934-1.111-.7-2.639.382-2.912,1.665a6.785,6.785,0,0,0,.748,3.8,48.009,48.009,0,0,1,1.724,5.231,12.047,12.047,0,0,1,.5,2.973c.018,2.055-.879,3.99-1.374,5.985a32.4,32.4,0,0,0-.607,11.781" transform="translate(19.846 19.811)" fill="none" stroke="#333" stroke-linecap="round" stroke-linejoin="round" stroke-width="0.5"/>
            <path id="Trazado_799927" data-name="Trazado 799927" d="M93.453,119.557a77.087,77.087,0,0,1,7.933,11.29,25.819,25.819,0,0,1,3.423,13.215" transform="translate(25.904 33.139)" fill="none" stroke="#333" stroke-linecap="round" stroke-linejoin="round" stroke-width="0.5"/>
            <path id="Trazado_799928" data-name="Trazado 799928" d="M105.946,88.078s12.463,1.874,17.587,9.184,4.346,35.3,4.346,35.3-10.842,3.838-21.771.789-14-8.9-14-8.9-1.266-16.872,2.225-26.245,11.617-10.128,11.617-10.128" transform="translate(25.468 24.414)" fill="#9999e6"/>
            <path id="Trazado_799929" data-name="Trazado 799929" d="M126.045,130.911c-3.544.935-11.716,2.538-19.937.245-10.93-3.049-14-8.9-14-8.9s-1.266-16.872,2.225-26.245" transform="translate(25.468 26.612)" fill="none" stroke="#333" stroke-linecap="round" stroke-linejoin="round" stroke-width="0.5"/>
            <path id="Trazado_799930" data-name="Trazado 799930" d="M91.35,7.959a56.545,56.545,0,0,1-6.2,6.159,78.06,78.06,0,0,1,3.037-8.194c1.7-3.639,2.741-3.705,4.072-2.849s1.6,1.766-.908,4.885" transform="translate(23.602 0.727)" fill="#006a76"/>
            <path id="Trazado_799931" data-name="Trazado 799931" d="M113.173,32.618a56.55,56.55,0,0,1-8.3,2.737,78.267,78.267,0,0,1,6.381-5.972c3.143-2.5,4.107-2.089,4.915-.729s.639,2.293-2.995,3.964" transform="translate(29.069 7.642)" fill="#006a76"/>
            <path id="Trazado_799932" data-name="Trazado 799932" d="M107.9,69.091a56.5,56.5,0,0,1-7.959-3.608,78.187,78.187,0,0,1,8.739-.073c4,.294,4.437,1.245,4.11,2.793s-1.084,2.119-4.889.888" transform="translate(27.701 18.103)" fill="#006a76"/>
            <path id="Trazado_799933" data-name="Trazado 799933" d="M25.2,68.422a56.482,56.482,0,0,0,7.763-4.014,78.266,78.266,0,0,0-8.731.379c-3.984.5-4.367,1.471-3.959,3s1.19,2.06,4.927.633" transform="translate(5.583 17.852)" fill="#006a76"/>
            <path id="Trazado_799934" data-name="Trazado 799934" d="M29.242,22.015a56.61,56.61,0,0,0,8.18,3.077,78.3,78.3,0,0,0-6.129-6.23c-3.038-2.625-4.018-2.257-4.881-.931s-.732,2.264,2.83,4.084" transform="translate(7.198 4.686)" fill="#006a76"/>
            <path id="Trazado_799935" data-name="Trazado 799935" d="M82.732,4.535a56.555,56.555,0,0,1-1.591,8.593,78.26,78.26,0,0,1-2.169-8.465C78.295.705,79.115.056,80.7,0s2.317.543,2.036,4.533" transform="translate(21.823 0)" fill="#006a76"/>
          </g>
        </g>
      </g>
    </g>
  </g>
</svg>
