<svg xmlns="http://www.w3.org/2000/svg" xmlns:xlink="http://www.w3.org/1999/xlink" width="400" height="538" viewBox="0 0 400 538">
  <defs>
    <clipPath id="clip-path">
      <rect id="Rectángulo_374107" data-name="Rectángulo 374107" width="339.025" height="433.386" fill="none"/>
    </clipPath>
    <clipPath id="clip-path-3">
      <rect id="Rectángulo_374099" data-name="Rectángulo 374099" width="25.315" height="30.716" fill="none"/>
    </clipPath>
    <clipPath id="clip-path-4">
      <path id="Trazado_799778" data-name="Trazado 799778" d="M122.923,42.026a13.133,13.133,0,1,0,2.057-.162,13.151,13.151,0,0,0-2.057.162" transform="translate(-111.809 -41.864)" fill="none"/>
    </clipPath>
    <radialGradient id="radial-gradient" cx="0.502" cy="0.485" r="0.42" gradientTransform="translate(-11.653 23.202) rotate(180) scale(0.975 1)" gradientUnits="objectBoundingBox">
      <stop offset="0" stop-color="#e89575"/>
      <stop offset="1" stop-color="#f2b27e"/>
    </radialGradient>
    <clipPath id="clip-path-5">
      <path id="Trazado_799779" data-name="Trazado 799779" d="M91.3,54.591a13.134,13.134,0,0,0-2.907.8,65.837,65.837,0,0,0,16.377,18.7,13.143,13.143,0,0,0-13.47-19.5" transform="translate(-88.392 -54.429)" fill="none"/>
    </clipPath>
    <radialGradient id="radial-gradient-2" cx="0.277" cy="0.618" r="0.59" gradientTransform="translate(-14.536 30.617) rotate(180) scale(1.049 1)" xlink:href="#radial-gradient"/>
    <clipPath id="clip-path-7">
      <path id="Trazado_799787" data-name="Trazado 799787" d="M97.113,48.457a7.657,7.657,0,0,1,1.563,7.749c-.566,1.518-1.635,2.9-1.7,4.52a4.7,4.7,0,0,0,1.94,3.781,8.292,8.292,0,0,0,4.1,1.5,6.751,6.751,0,0,0,4.633-5.7c.723-4.719-2.769-10.012-5.836-12.962a3.172,3.172,0,0,0-2.143-1.074c-1.678,0-2.556,2.182-2.556,2.182" transform="translate(-96.974 -46.275)" fill="none"/>
    </clipPath>
    <linearGradient id="linear-gradient" x1="-7.811" y1="26.291" x2="-7.728" y2="26.291" gradientUnits="objectBoundingBox">
      <stop offset="0" stop-color="#db8965"/>
      <stop offset="1" stop-color="#f2b27e"/>
    </linearGradient>
    <clipPath id="clip-path-9">
      <rect id="Rectángulo_374105" data-name="Rectángulo 374105" width="106.61" height="41.42" fill="none"/>
    </clipPath>
  </defs>
  <g id="Grupo_1065199" data-name="Grupo 1065199" transform="translate(-15388 9146)">
    <rect id="Rectángulo_374087" data-name="Rectángulo 374087" width="400" height="538" rx="20" transform="translate(15388 -9146)" fill="#ff8182"/>
    <g id="Grupo_1065149" data-name="Grupo 1065149" transform="translate(15420 -9071.793)">
      <g id="Grupo_1065148" data-name="Grupo 1065148" clip-path="url(#clip-path)">
        <g id="Grupo_1065134" data-name="Grupo 1065134">
          <g id="Grupo_1065133" data-name="Grupo 1065133" clip-path="url(#clip-path)">
            <path id="Trazado_799746" data-name="Trazado 799746" d="M168.668,12.7c-27.526,3.1-54.55,15.64-72,37.149C86.488,62.386,79.836,77.453,69.939,90.214c-9.962,12.848-23,23.088-32.716,36.125A91.2,91.2,0,0,0,49.556,248.81c18.033,16.127,41.573,24.391,62.37,36.752,15.664,9.308,29.927,21.046,46.459,28.7,30.573,14.162,67.924,12.652,97.252-3.929s49.881-47.81,53.507-81.306c1.485-13.728.3-27.65,1.96-41.356,3.151-25.989,16.47-50.9,13.726-76.934-2.009-19.074-12.651-36.409-26.224-49.962C264.454,26.674,217.2,7.223,168.668,12.7" transform="translate(13.823 8.496)" fill="#8edee0"/>
            <path id="Trazado_799747" data-name="Trazado 799747" d="M75.48,40.984C78.067,26.9,86.7,13.738,99.337,7.013a40.349,40.349,0,0,1,25.75-4c13.131-4.293,28.12-4.5,39.822,2.7,10.9,6.711,17.423,18.826,20.9,31.143s4.392,25.2,6.9,37.75a170.229,170.229,0,0,0,11.878,36.442c3.988,8.857,8.671,17.5,10.983,26.941s1.945,20.064-3.6,28.038c-3.234,4.651-7.948,8.033-12.657,11.179-3.575,2.387-7.346,4.747-11.6,5.379-8.544,1.267-16.453-4.64-25-5.874-10.463-1.513-20.5,4.031-30.829,6.263a50.333,50.333,0,0,1-34.568-5.064c-4.4-2.427-8.53-5.63-11.095-9.957-3.716-6.272-3.7-13.981-3.771-21.272a392.572,392.572,0,0,0-3-44.569c-1.831-14.673-4.494-29.28-4.967-44.058a80.127,80.127,0,0,1,1-17.072" transform="translate(53.665 0)" fill="#5e4028"/>
            <path id="Trazado_799748" data-name="Trazado 799748" d="M122.516,96.694c1.022-6.516,2.038-13.7.909-20.268-.659-3.828-2.609-7.293-4.528-10.669-.54-.948-1.5-2.053-2.5-1.6a2.072,2.072,0,0,0-.947,1.573c-.836,4.024.4,8.248-.33,12.294-.176.971-.659,2.107-1.771,1.234a3.61,3.61,0,0,1-.843-1.129c-2.673-4.774-5.422-9.821-5.441-15.294a29.406,29.406,0,0,0-.045-4.895c-.224-1.294-2.274-5.188-4.091-3.676a5.133,5.133,0,0,0-1.84-1.46,1.983,1.983,0,0,0-2.189.391,2.827,2.827,0,0,1-.429.5,1.945,1.945,0,0,1-.719.241A4,4,0,0,0,95.2,56.29a11.772,11.772,0,0,0-.761,3.508,3.476,3.476,0,0,0-2.079,2.341,10.247,10.247,0,0,0-.294,3.227q.077,5.176.153,10.354a36.943,36.943,0,0,0,1.272,8.435,34.523,34.523,0,0,0,4.719,10.289c1.546,2.387,2.845,4.924,4.308,7.361s1.5,7.275,1.5,7.275-41.853,62-21.693,73.2,49.76-38.139,59.055-58.745,3.818-38.026-5.9-37.065-12.96,10.224-12.96,10.224" transform="translate(55.409 37.962)" fill="#f2b27e"/>
            <path id="Trazado_799749" data-name="Trazado 799749" d="M98.412,83.993a.43.43,0,0,1-.42-.339A27.974,27.974,0,0,0,90.657,70.09a.43.43,0,0,1,.611-.6,28.822,28.822,0,0,1,7.564,13.986.429.429,0,0,1-.329.511.424.424,0,0,1-.091.01" transform="translate(65.287 50.018)" fill="#333"/>
            <path id="Trazado_799750" data-name="Trazado 799750" d="M89.529,73.331a.43.43,0,0,1-.42-.336,50.776,50.776,0,0,1-.964-11.083c0-1.871-.088-3.506-1.1-4.589a.43.43,0,1,1,.627-.59C89,58.154,89,60.324,89.006,61.911a49.934,49.934,0,0,0,.943,10.895.431.431,0,0,1-.325.515.455.455,0,0,1-.095.01" transform="translate(62.685 40.816)" fill="#333"/>
            <path id="Trazado_799751" data-name="Trazado 799751" d="M91.867,74.181a.432.432,0,0,1-.427-.377,89.178,89.178,0,0,1-.7-12.422l.005-.349c.038-2.561.077-5.212-1.255-7.272a.43.43,0,0,1,.723-.466c1.472,2.279,1.432,5.06,1.392,7.752l-.005.349a88.023,88.023,0,0,0,.69,12.3.432.432,0,0,1-.374.48.3.3,0,0,1-.055,0" transform="translate(64.49 38.292)" fill="#333"/>
            <path id="Trazado_799752" data-name="Trazado 799752" d="M94.094,72.095a.432.432,0,0,1-.42-.337A49.925,49.925,0,0,1,92.507,60.2l.014-.7a13.158,13.158,0,0,0-.582-5.262.43.43,0,1,1,.8-.325,13.746,13.746,0,0,1,.645,5.606l-.012.692a49.059,49.059,0,0,0,1.146,11.353.431.431,0,0,1-.42.523" transform="translate(66.279 38.693)" fill="#333"/>
            <path id="Trazado_799753" data-name="Trazado 799753" d="M110.831,76.072a38.146,38.146,0,0,0-4.153,3.664l-3.415,12.716s-3.871,15.478-3.8,24.017c0,0,9.709,11.115,24.432,10.79,0,0,13.874-40.44,7.129-50.039s-15.077-4.37-20.2-1.148" transform="translate(71.731 51.724)" fill="#ffad01"/>
            <path id="Trazado_799754" data-name="Trazado 799754" d="M92.979,156.7a.428.428,0,0,1-.38-.63c7.465-14.229,10.017-30.707,11.666-46.4l.191-1.855c.411-3.978.835-8.089,1.565-12.1a157.852,157.852,0,0,1,4.542-17.334.44.44,0,0,1,.539-.3.423.423,0,0,1,.289.528l-.005.017a157.558,157.558,0,0,0-4.518,17.239c-.725,3.972-1.146,8.069-1.554,12.029l-.193,1.855c-1.657,15.776-4.229,32.351-11.761,46.707a.428.428,0,0,1-.38.231" transform="translate(66.742 56.303)" fill="#333"/>
            <path id="Trazado_799755" data-name="Trazado 799755" d="M32.723,216.344a3.545,3.545,0,0,1-1.632-.726,3.854,3.854,0,0,1-.831-1.511,29.7,29.7,0,0,0-8.222-12.069,18.9,18.9,0,0,0,7.3-6.485c2.675-4.207,3.943-9.134,5.089-13.986.4-1.676.941-4.477,1.59-8.064l25.852,5.074c-1.721,4.957-3.542,10.293-5.475,16.182-1.379,4.193-2.418,14.332-3.132,22.241a49.879,49.879,0,0,1-20.542-.656" transform="translate(15.893 125.123)" fill="#f2b27e"/>
            <path id="Trazado_799756" data-name="Trazado 799756" d="M47.718,214.807c-8.339-.386-16.681-.769-25-1.509a30.108,30.108,0,0,1-8.322-1.582c-.341-5.045-1.262-10.4-4.387-14.268,5.809-1.518,11.879-3.064,15.083-4.6.535-.256,1.065-.506,1.59-.754,1.392-.656,2.738-1.306,4.029-2.016a29.676,29.676,0,0,1,8.22,12.067,3.836,3.836,0,0,0,.833,1.511,3.5,3.5,0,0,0,1.632.726,49.878,49.878,0,0,0,20.542.656c-.05.54-.1,1.071-.143,1.587-.243,2.749-.442,5.112-.6,6.731a23.13,23.13,0,0,1-5.1,1.324,46.164,46.164,0,0,1-8.379.122" transform="translate(7.22 137.08)" fill="#6666b2"/>
            <path id="Trazado_799757" data-name="Trazado 799757" d="M3.519,198.935c1.978-1.465,7.7-3,13.711-4.573,3.126,3.871,4.046,9.225,4.387,14.268a30.12,30.12,0,0,0,8.324,1.582c8.315.74,16.657,1.126,25,1.509a46.007,46.007,0,0,0,8.379-.122,22.944,22.944,0,0,0,5.1-1.324c-.107,1.1-.194,1.859-.263,2.134-1.766,7.181-15.645,3.28-20.542,2.89-8.089-.645-16.2.308-24.3-.2-6.876-.432-16.058-2.21-21.516-6.747-3.439-2.859-1.43-7.084,1.721-9.416" transform="translate(0 140.166)" fill="#8080cc"/>
            <path id="Trazado_799758" data-name="Trazado 799758" d="M32.824,200.176a.429.429,0,0,1-.1-.847,9.384,9.384,0,0,0,6.179-4.971.43.43,0,1,1,.775.375,10.25,10.25,0,0,1-6.75,5.43.418.418,0,0,1-.1.012" transform="translate(23.361 139.987)"/>
            <path id="Trazado_799759" data-name="Trazado 799759" d="M226.568,183.152s-9.014,29.394-53.4,27.415-81.707-37.618-81.707-37.618L55.571,248.905s-5.53,3.367-16.63,1S24.4,241.268,24.4,241.268,34.944,120.515,61.689,113.607s93.14,33.545,93.14,33.545l72.209,5.613Z" transform="translate(17.594 81.356)" fill="#9999e6"/>
            <path id="Trazado_799760" data-name="Trazado 799760" d="M38.495,231.155a.437.437,0,0,1-.2-.048.431.431,0,0,1-.182-.58c14.337-27.454,43.306-89.18,43.6-89.8A.441.441,0,0,1,82,140.49a.447.447,0,0,1,.368.086c33.843,27.463,64.215,39.313,90.3,35.224,24.826-3.895,36.528-21.446,36.643-21.623a.431.431,0,0,1,.721.472c-.117.179-12.007,18.034-37.21,22-26.217,4.129-56.686-7.675-90.566-35.055-2.8,5.945-29.721,63.177-43.38,89.333a.433.433,0,0,1-.382.231" transform="translate(27.45 101.309)"/>
            <path id="Trazado_799761" data-name="Trazado 799761" d="M66.556,155.34a.431.431,0,0,1-.429-.4,120.378,120.378,0,0,0-4.768-25.726.429.429,0,0,1,.287-.535.424.424,0,0,1,.535.287,121.212,121.212,0,0,1,4.8,25.909.43.43,0,0,1-.4.461l-.033,0" transform="translate(44.237 92.784)"/>
            <path id="Trazado_799762" data-name="Trazado 799762" d="M93.868,250.411a3.56,3.56,0,0,1-1.7.559,3.874,3.874,0,0,1-1.632-.561A29.661,29.661,0,0,0,76.343,247a18.926,18.926,0,0,0,1.05-9.711c-.845-4.912-3.217-9.415-5.628-13.778-.835-1.508-2.312-3.948-4.243-7.041l22.557-13.613c2.055,4.828,4.293,10,6.818,15.664,1.8,4.031,7.84,12.239,12.625,18.575a49.857,49.857,0,0,1-15.654,13.318" transform="translate(48.694 146.29)" fill="#f2b27e"/>
            <path id="Trazado_799763" data-name="Trazado 799763" d="M106.2,239.533c-6.435,5.318-12.873,10.638-19.528,15.678a30.082,30.082,0,0,1-7.225,4.422c-3.642-3.506-7.922-6.854-12.838-7.62,3.282-5.028,6.74-10.251,8.083-13.537.225-.551.449-1.091.673-1.628.59-1.42,1.15-2.807,1.628-4.2a29.692,29.692,0,0,1,14.2,3.413,3.866,3.866,0,0,0,1.632.561,3.511,3.511,0,0,0,1.7-.559,49.9,49.9,0,0,0,15.656-13.317c.325.432.647.855.96,1.27,1.666,2.2,3.108,4.083,4.079,5.389a23.12,23.12,0,0,1-2.888,4.406,46.021,46.021,0,0,1-6.124,5.721" transform="translate(48.038 160.636)" fill="#6666b2"/>
            <path id="Trazado_799764" data-name="Trazado 799764" d="M62.584,261.824c.482-2.413,3.687-7.4,7.081-12.6,4.916.768,9.2,4.114,12.838,7.62a30.075,30.075,0,0,0,7.225-4.42c6.656-5.04,13.093-10.36,19.528-15.68a46.122,46.122,0,0,0,6.124-5.719,23.078,23.078,0,0,0,2.888-4.408c.657.883,1.1,1.508,1.239,1.757,3.516,6.5-9.384,12.941-13.272,15.943-6.425,4.959-11.8,11.117-18.131,16.177-5.384,4.3-13.379,9.153-20.468,9.461-4.47.193-5.819-4.286-5.053-8.131" transform="translate(44.987 163.426)" fill="#8080cc"/>
            <path id="Trazado_799765" data-name="Trazado 799765" d="M85.59,230.828a.43.43,0,0,1-.358-.673,9.375,9.375,0,0,0,1.238-7.831.431.431,0,1,1,.826-.243,10.259,10.259,0,0,1-1.351,8.559.43.43,0,0,1-.355.188" transform="translate(61.412 159.932)"/>
            <path id="Trazado_799766" data-name="Trazado 799766" d="M231.162,182.572s-15.277,27.311-56.69,31.181-64.055-22.358-64.055-22.358l3.764,81.022s-.382,6.442-10.881,11.821-17.313,1.733-17.313,1.733S39.671,181.02,56.478,148.6s102.946-2.031,102.946-2.031l72.209,5.613Z" transform="translate(38.08 96.383)" fill="#9999e6"/>
            <path id="Trazado_799767" data-name="Trazado 799767" d="M90.163,179.148a.432.432,0,0,1-.427-.375,77.993,77.993,0,0,0-9.115-27.657.43.43,0,1,1,.75-.42,78.851,78.851,0,0,1,9.22,27.967.434.434,0,0,1-.372.482c-.021,0-.038,0-.057,0" transform="translate(58.101 108.516)"/>
            <path id="Trazado_799768" data-name="Trazado 799768" d="M87.833,261.19a.431.431,0,0,1-.43-.4c-3.22-45.755-3.165-100.75-3.165-101.3a.428.428,0,0,1,.26-.394.434.434,0,0,1,.463.077c.318.3,32.053,29.478,61.394,27.805,29.28-1.62,44.277-25.434,44.425-25.673a.43.43,0,0,1,.733.449c-.15.244-15.37,24.44-45.11,26.084-27.224,1.478-56.378-23.046-61.3-27.385.01,7.547.181,57.883,3.165,100.273a.433.433,0,0,1-.4.46l-.029,0" transform="translate(60.748 114.709)"/>
            <path id="Trazado_799769" data-name="Trazado 799769" d="M137.966,179.069a.433.433,0,0,1-.355-.186,20.922,20.922,0,0,1-3.394-10.32,48.7,48.7,0,0,1,.6-10.824.43.43,0,0,1,.852.122,48,48,0,0,0-.592,10.63,20.346,20.346,0,0,0,3.246,9.9.432.432,0,0,1-.11.6.44.44,0,0,1-.244.076" transform="translate(96.717 113.488)"/>
            <path id="Trazado_799770" data-name="Trazado 799770" d="M55.382,191.9a.431.431,0,0,1-.423-.351c-3.592-19.9-3.151-34.349,1.315-42.965,12.005-23.151,58.58-14.761,85.275-7.7a.432.432,0,0,1,.306.525.423.423,0,0,1-.525.306c-26.447-6.995-72.564-15.351-84.292,7.265-4.377,8.442-4.79,22.711-1.231,42.413a.431.431,0,0,1-.348.5.391.391,0,0,1-.077.007" transform="translate(37.903 96.204)"/>
            <path id="Trazado_799771" data-name="Trazado 799771" d="M126.2,100.194s-9.148-6.36-10.406-16.731a4.327,4.327,0,0,0,2.083-2.449c1.172-4.812-4.217-19.28-4.217-19.28L137.813,51s.012,16.792,6.067,22.256a10.665,10.665,0,0,0,4.053,1.981c-1.432,3.855-7.308,17.354-21.731,24.962" transform="translate(81.968 36.775)" fill="#f2b27e"/>
            <g id="Grupo_1065132" data-name="Grupo 1065132" transform="translate(195.632 87.769)" opacity="0.7" style="mix-blend-mode: multiply;isolation: isolate">
              <g id="Grupo_1065131" data-name="Grupo 1065131">
                <g id="Grupo_1065130" data-name="Grupo 1065130" clip-path="url(#clip-path-3)">
                  <path id="Trazado_799772" data-name="Trazado 799772" d="M113.663,61.734l24.15-10.74a65.531,65.531,0,0,0,1.165,11.324c-3.986,8.473-11.781,21.463-21.263,19.113a2.689,2.689,0,0,0,.165-.417c1.172-4.812-4.217-19.28-4.217-19.28" transform="translate(-113.663 -50.994)" fill="#f2b27e"/>
                </g>
              </g>
            </g>
            <path id="Trazado_799773" data-name="Trazado 799773" d="M100.526,181.253q5.742-5.367,11.487-10.735,3.844-3.591,7.688-7.184c1.083-1.012,2.143-2.055,3.253-3.04,1.2-1.06,3.3-1.542,1.692-3.4a4.168,4.168,0,0,1-.838-1.153c-.262-.661.315-1.212.193-1.713-.093-.379-.418-.522-.609-.842a18.067,18.067,0,0,0-1.444-1.731,50.588,50.588,0,0,1-3.119-4.411,62.228,62.228,0,0,1-6.27-13.356c-5.453-16.206-7.456-43.661-3.941-50.587,2.812-5.546,12.533-6.979,16.9-9.8,1.258,10.372,10.406,16.731,10.406,16.731,14.423-7.608,20.3-21.107,21.731-24.962,9.608,2.867,29.563,2.143,36.723,12.289,8.446,11.974,16.952,81.507,14.964,110.935S197,232.024,197,232.024s-21.4,6.718-49.387-7.5-47.433-42.951-47.433-42.951c.115-.108.232-.217.348-.324" transform="translate(72.244 46.931)" fill="#ffad01"/>
            <path id="Trazado_799774" data-name="Trazado 799774" d="M150.58,121.789a46.189,46.189,0,0,1-26.277-8.182.43.43,0,1,1,.5-.7,45.225,45.225,0,0,0,33.809,7.275.418.418,0,0,1,.5.342.43.43,0,0,1-.342.5,43.714,43.714,0,0,1-8.188.764" transform="translate(89.51 81.364)"/>
            <path id="Trazado_799775" data-name="Trazado 799775" d="M157.844,130.364l-.046,0a154.171,154.171,0,0,1-41.6-10.437.43.43,0,0,1-.238-.561.423.423,0,0,1,.559-.236A153.214,153.214,0,0,0,157.888,129.5a.431.431,0,0,1-.045.859" transform="translate(83.606 85.886)"/>
            <path id="Trazado_799776" data-name="Trazado 799776" d="M100.358,165.879a.426.426,0,0,1-.315-.136.434.434,0,0,1,.022-.611l19.521-18.239c.358-.334.711-.671,1.067-1.005.723-.69,1.447-1.38,2.194-2.041a8.551,8.551,0,0,1,.986-.716c.559-.367,1.086-.711,1.139-1.093a1.418,1.418,0,0,0-.475-.983l-.134-.151a3.872,3.872,0,0,1-.778-1.126,1.8,1.8,0,0,1,.074-1.324,1.024,1.024,0,0,0,.1-.446.724.724,0,0,0-.227-.318,2.057,2.057,0,0,1-.332-.4,6.7,6.7,0,0,0-.83-1.021c-.2-.222-.406-.441-.582-.663a51.181,51.181,0,0,1-3.145-4.451,62.482,62.482,0,0,1-6.313-13.451c-2.647-7.861-4.673-19-5.423-29.8a.431.431,0,0,1,.4-.46.425.425,0,0,1,.46.4c.745,10.73,2.756,21.79,5.379,29.587a61.7,61.7,0,0,0,6.225,13.262,50.064,50.064,0,0,0,3.091,4.377c.163.2.351.408.54.613a7.274,7.274,0,0,1,.936,1.165,1.37,1.37,0,0,0,.208.244,1.49,1.49,0,0,1,.449.716,1.612,1.612,0,0,1-.124.935.993.993,0,0,0-.086.719,3.144,3.144,0,0,0,.621.873l.139.158a2.145,2.145,0,0,1,.678,1.666c-.107.768-.824,1.239-1.52,1.694a7.354,7.354,0,0,0-.886.642c-.74.654-1.456,1.337-2.174,2.019-.356.337-.713.678-1.071,1.012l-19.525,18.244a.43.43,0,0,1-.293.112" transform="translate(72.064 63.057)"/>
            <path id="Trazado_799777" data-name="Trazado 799777" d="M83.4,64.91c4.363,27.807,28.284,52.3,44.619,49.738,22.9-3.594,43.659-32.564,39.3-60.371s-25.156-50.26-48.06-46.666S79.037,37.1,83.4,64.91" transform="translate(59.657 5.215)" fill="#f2b27e"/>
          </g>
        </g>
        <g id="Grupo_1065136" data-name="Grupo 1065136" transform="translate(192.44 72.055)">
          <g id="Grupo_1065135" data-name="Grupo 1065135" clip-path="url(#clip-path-4)">
            <rect id="Rectángulo_374101" data-name="Rectángulo 374101" width="32.123" height="31.321" transform="translate(-5.141 0.655) rotate(-8.917)" fill="url(#radial-gradient)"/>
          </g>
        </g>
        <g id="Grupo_1065138" data-name="Grupo 1065138" transform="translate(152.137 93.681)">
          <g id="Grupo_1065137" data-name="Grupo 1065137" clip-path="url(#clip-path-5)">
            <rect id="Rectángulo_374102" data-name="Rectángulo 374102" width="21.243" height="22.276" transform="translate(-3.01 0.472) rotate(-8.917)" fill="url(#radial-gradient-2)"/>
          </g>
        </g>
        <g id="Grupo_1065140" data-name="Grupo 1065140">
          <g id="Grupo_1065139" data-name="Grupo 1065139" clip-path="url(#clip-path)">
            <path id="Trazado_799780" data-name="Trazado 799780" d="M103.9,66.245a.419.419,0,0,1-.091-.009.434.434,0,0,1-.33-.511c.036-.169.94-4.163,5.936-6.475a12.81,12.81,0,0,1,8.936-1,.427.427,0,0,1,.27.542.435.435,0,0,1-.544.274,12.167,12.167,0,0,0-8.3.969,9.507,9.507,0,0,0-5.456,5.874.43.43,0,0,1-.42.339" transform="translate(74.616 41.73)"/>
            <path id="Trazado_799781" data-name="Trazado 799781" d="M103.731,46.7a4.675,4.675,0,1,0,3.893-5.342,4.674,4.674,0,0,0-3.893,5.342" transform="translate(74.765 29.786)"/>
            <path id="Trazado_799782" data-name="Trazado 799782" d="M90,52.717a4.675,4.675,0,1,0,3.893-5.341A4.67,4.67,0,0,0,90,52.717" transform="translate(64.863 34.124)"/>
            <path id="Trazado_799783" data-name="Trazado 799783" d="M100.008,45.154a22.039,22.039,0,0,1,3.077-5.6,12.009,12.009,0,0,1,4.692-3.707,14.44,14.44,0,0,1,5.96-1.108,43.312,43.312,0,0,1,6.439.639,17.145,17.145,0,0,0-6.327-2.2,14.614,14.614,0,0,0-3.461-.076A13.2,13.2,0,0,0,106.97,34a11.269,11.269,0,0,0-5.176,4.669,12.766,12.766,0,0,0-1.787,6.48" transform="translate(72.121 23.82)" fill="#5e4028"/>
            <path id="Trazado_799784" data-name="Trazado 799784" d="M98.846,43.789a11.815,11.815,0,0,0-4.384-2.4,10.953,10.953,0,0,0-5.158-.379,6.77,6.77,0,0,0-2.587.96,5.714,5.714,0,0,0-1.9,2.062,6.519,6.519,0,0,0-.434,5.083,10.174,10.174,0,0,1,1.787-4.2,5.463,5.463,0,0,1,3.506-1.936,14.745,14.745,0,0,1,4.473-.1,37.1,37.1,0,0,1,4.7.914" transform="translate(60.618 29.462)" fill="#5e4028"/>
            <path id="Trazado_799785" data-name="Trazado 799785" d="M103.657,46.927a.4.4,0,0,1-.153-.029.427.427,0,0,1-.248-.554,8.806,8.806,0,0,1,9.607-5.836.429.429,0,0,1,.344.5.443.443,0,0,1-.5.346,7.827,7.827,0,0,0-8.651,5.3.428.428,0,0,1-.4.277" transform="translate(74.443 29.153)"/>
            <path id="Trazado_799786" data-name="Trazado 799786" d="M89.971,52.31a.429.429,0,0,1-.4-.583,7.274,7.274,0,0,1,8.774-4.842.429.429,0,0,1,.293.532.434.434,0,0,1-.532.294c-.227-.062-5.513-1.5-7.73,4.322a.433.433,0,0,1-.4.277" transform="translate(64.572 33.657)"/>
          </g>
        </g>
        <g id="Grupo_1065142" data-name="Grupo 1065142" transform="translate(166.908 79.647)">
          <g id="Grupo_1065141" data-name="Grupo 1065141" clip-path="url(#clip-path-7)">
            <rect id="Rectángulo_374104" data-name="Rectángulo 374104" width="20.764" height="13.336" transform="translate(-1.985 19.543) rotate(-84.363)" fill="url(#linear-gradient)"/>
          </g>
        </g>
        <g id="Grupo_1065147" data-name="Grupo 1065147">
          <g id="Grupo_1065146" data-name="Grupo 1065146" clip-path="url(#clip-path)">
            <path id="Trazado_799788" data-name="Trazado 799788" d="M103.2,65.7a.26.26,0,0,1-.052,0,8.664,8.664,0,0,1-4.31-1.587,5.14,5.14,0,0,1-2.107-4.139,7.92,7.92,0,0,1,1.059-3.193,15.163,15.163,0,0,0,.668-1.46,7.2,7.2,0,0,0-1.475-7.3.43.43,0,1,1,.626-.59,8.078,8.078,0,0,1,1.654,8.194,15.649,15.649,0,0,1-.7,1.542,7.152,7.152,0,0,0-.967,2.842,4.269,4.269,0,0,0,1.771,3.425,7.826,7.826,0,0,0,3.886,1.415.43.43,0,0,1-.05.857" transform="translate(69.753 34.106)"/>
            <path id="Trazado_799789" data-name="Trazado 799789" d="M116.28,80.857a.387.387,0,0,1-.124-.019C105.956,77.754,95,67.582,87.569,54.294a.43.43,0,1,1,.75-.42c7.329,13.1,18.091,23.117,28.084,26.141a.43.43,0,0,1-.124.842" transform="translate(63.111 38.693)" fill="#333"/>
            <path id="Trazado_799790" data-name="Trazado 799790" d="M167.092,63.456c-3.188-4.3-8.188-6.95-13.339-8.4s-10.532-1.828-15.85-2.425c-13.761-1.547-27.793-4.814-38.934-13.039A29.66,29.66,0,0,0,116.85,52.606a35.826,35.826,0,0,1-11.377-.088,16.5,16.5,0,0,1-9.73-5.539,29.07,29.07,0,0,1-5.074,22.585c-1.84,2.487-4.26,4.771-7.287,5.406C80.4,59.781,79.965,43.678,85.344,29.165a28.878,28.878,0,0,1,4.208-7.988A38.018,38.018,0,0,1,97.113,14.5a52.735,52.735,0,0,1,8.208-5.293,34.279,34.279,0,0,1,9.146-2.773,47.975,47.975,0,0,1,29.251,4.256,45.51,45.51,0,0,1,20.7,21.029,58.166,58.166,0,0,1,2.866,7.5c2.845,9.089,4.136,19.058,1.053,28.069" transform="translate(58.56 4.153)" fill="#5e4028"/>
            <path id="Trazado_799791" data-name="Trazado 799791" d="M127.622,40.638c-1.184,8.623.806,15.75,6.924,16.59s14.045-4.923,15.231-13.547-2.816-16.3-8.933-17.136-12.038,5.47-13.222,14.093" transform="translate(91.801 19.089)" fill="#f2b27e"/>
            <path id="Trazado_799792" data-name="Trazado 799792" d="M130.668,51.229a.534.534,0,0,1-.074-.005.431.431,0,0,1-.351-.5C133.516,31.741,142.995,27.856,143.4,27.7a.43.43,0,0,1,.312.8c-.095.036-9.435,3.912-12.618,22.368a.431.431,0,0,1-.423.358" transform="translate(93.921 19.956)"/>
            <g id="Grupo_1065145" data-name="Grupo 1065145" transform="translate(128.135 10.253)" style="mix-blend-mode: screen;isolation: isolate">
              <g id="Grupo_1065144" data-name="Grupo 1065144">
                <g id="Grupo_1065143" data-name="Grupo 1065143" clip-path="url(#clip-path-9)">
                  <path id="Trazado_799793" data-name="Trazado 799793" d="M84.324,15.976A59.323,59.323,0,0,1,90.4,14.52c10.368-1.864,21.012-1.246,31.506-.325,10.348.909,20.854,2.095,31.05.112A38.639,38.639,0,0,0,170.8,5.957,49.113,49.113,0,0,1,181.058,20.15a39.313,39.313,0,0,1-17.1,7.114c-9.546,1.62-19.317.518-28.95-.444s-19.475-1.771-28.909.408c-12.41,2.866-22.952,10.652-31.65,20.148a68.378,68.378,0,0,1,1.009-10.687,51.258,51.258,0,0,1,8.867-20.712" transform="translate(-74.447 -5.957)" fill="#5e4028"/>
                </g>
              </g>
            </g>
            <path id="Trazado_799794" data-name="Trazado 799794" d="M75.043,218.414a5.655,5.655,0,0,1,1.441-2.153,1.751,1.751,0,0,1-.074-2.027,4.064,4.064,0,0,1,2.3-1.757,12.206,12.206,0,0,1,2.914-.482q2.868-.238,5.738-.485a27.966,27.966,0,0,0,4.446-.632,21.486,21.486,0,0,0,7.583-4c1.069-.812,2.071-1.721,3.2-2.434.676-.432,1.623-1,1.525-1.972-.112-1.114-1.456-1.608-2.571-1.718-4.513-.442-9.05,1.287-13.551.725a2.294,2.294,0,0,1-1.814-.9c-.583-1.055.547-2.213,1.544-2.892,3.544-2.408,7.181-4.859,11.334-5.923,7.122-1.823,15.115-1.341,22.372-.792,3.947.3,11.928.62,11.928.62.625-.477,50.588-34.3,50.588-34.3s-6.7-63.235-6.914-66.094c0,0-3.375-17.781,10.9-22.082s27.714,1.719,31.807,21.649,6.966,62.924-1.883,80.1-80.223,39.762-81.032,39c-6.251,2.088-11.38,6.157-17.041,9.434A53.062,53.062,0,0,1,110.2,224a40.654,40.654,0,0,1-9.163,2.145L89.659,227.23a11.315,11.315,0,0,1-3.575-.04,3.833,3.833,0,0,1-2.759-2.079,13.007,13.007,0,0,1-3.924-.527,4.406,4.406,0,0,1-2.823-2.6,2.152,2.152,0,0,0-.33-.769,3.21,3.21,0,0,0-.582-.429,2.186,2.186,0,0,1-.623-2.372" transform="translate(54.039 48.889)" fill="#f2b27e"/>
            <path id="Trazado_799795" data-name="Trazado 799795" d="M84.321,155.266a65.162,65.162,0,0,1-8.084-.5.431.431,0,0,1-.373-.48.438.438,0,0,1,.48-.373A64.247,64.247,0,0,0,93.81,153.7a.43.43,0,0,1,.127.85,65.232,65.232,0,0,1-9.616.714" transform="translate(54.707 110.84)" fill="#333"/>
            <path id="Trazado_799796" data-name="Trazado 799796" d="M80.889,158.235q-2.331,0-4.657-.136a.432.432,0,0,1-.4-.456.438.438,0,0,1,.454-.4,78.384,78.384,0,0,0,19.342-1.258.422.422,0,0,1,.5.342.43.43,0,0,1-.343.5,79.4,79.4,0,0,1-14.895,1.41" transform="translate(54.683 112.479)" fill="#333"/>
            <path id="Trazado_799797" data-name="Trazado 799797" d="M80.4,160.127a.43.43,0,1,1,0-.861,90,90,0,0,0,15-1.286.423.423,0,0,1,.5.351.429.429,0,0,1-.353.5A90.808,90.808,0,0,1,80.4,160.127Z" transform="translate(57.674 113.923)" fill="#333"/>
            <path id="Trazado_799798" data-name="Trazado 799798" d="M150.3,121.756a.44.44,0,0,1-.114-.016,41.214,41.214,0,0,0-11.351-1.465h0a.43.43,0,0,1-.005-.861,42.343,42.343,0,0,1,11.587,1.5.43.43,0,0,1-.114.845" transform="translate(99.81 86.115)"/>
            <path id="Trazado_799799" data-name="Trazado 799799" d="M156.232,67.237s15.675.475,21.693,12.812,10.682,34.905,10.682,34.905-5.265,10.532-24.824,12.489-30.884-5.869-30.884-5.869-12.8-55.865,23.334-54.337" transform="translate(94.253 48.466)" fill="#ffad01"/>
            <path id="Trazado_799800" data-name="Trazado 799800" d="M140.534,116.151a.437.437,0,0,1-.139-.022,33.061,33.061,0,0,1-7.563-3.506.44.44,0,0,1-.176-.258c-.038-.169-3.842-17.058-1.372-31.895a.43.43,0,1,1,.849.141c-2.31,13.878.938,29.6,1.325,31.4a34.543,34.543,0,0,0,7.215,3.306.431.431,0,0,1-.139.838" transform="translate(94.076 57.772)"/>
            <path id="Trazado_799801" data-name="Trazado 799801" d="M164.484,74.816c-4.816,3.019-8.052,8.124-9.776,13.539s-2.072,11.165-2.15,16.845a111.425,111.425,0,0,0,1.143,19.01c.7,4.408,1.781,8.843,1.32,13.284a6.7,6.7,0,0,1-2.052,4.685c-1.971,1.57-4.892.945-7.139-.189a19.782,19.782,0,0,1-6.611-5.415,21.739,21.739,0,0,0,3.833,6.664c-3.418.4-6.838-1.224-9.317-3.609a28.937,28.937,0,0,1-5.645-8.577l.444,6.6a17.036,17.036,0,0,1-6.015-10.1,46.918,46.918,0,0,1-.64-11.955,68.47,68.47,0,0,1,1.1-11.368c1.9-9.181,7.177-17.3,10.022-26.23a51.533,51.533,0,0,0,1.873-23.072Z" transform="translate(87.827 39.613)" fill="#5e4028"/>
          </g>
        </g>
      </g>
    </g>
    <path id="Trazado_800452" data-name="Trazado 800452" d="M108.864,17V4.2h4.122a6.064,6.064,0,0,1,3.05.769,5.406,5.406,0,0,1,2.114,2.171,6.554,6.554,0,0,1,.769,3.142v.589a6.592,6.592,0,0,1-.743,3.151,5.429,5.429,0,0,1-2.092,2.18,5.93,5.93,0,0,1-3.01.8Zm3.085-10.415v8.042h1.072a2.4,2.4,0,0,0,2.039-.945,4.63,4.63,0,0,0,.712-2.808V10.32a4.592,4.592,0,0,0-.712-2.795,2.442,2.442,0,0,0-2.074-.94Zm16.488,4.983h-4.852v3.059h5.73V17H120.5V4.2h8.833V6.585h-5.748v2.7h4.852Zm5.221,1.09V17h-3.085V4.2h5.106a5.948,5.948,0,0,1,2.6.541,4.074,4.074,0,0,1,1.749,1.538,4.2,4.2,0,0,1,.62,2.263,3.7,3.7,0,0,1-1.34,2.993,5.561,5.561,0,0,1-3.678,1.121Zm0-2.382h2.021a1.906,1.906,0,0,0,1.367-.448,1.665,1.665,0,0,0,.47-1.266,2.059,2.059,0,0,0-.483-1.433,1.712,1.712,0,0,0-1.318-.545h-2.057Zm13.386,2.2h-1.67V17h-3.085V4.2h5.036a5.621,5.621,0,0,1,3.56,1.01,3.421,3.421,0,0,1,1.283,2.853,4.155,4.155,0,0,1-.541,2.213,3.837,3.837,0,0,1-1.692,1.422l2.672,5.167V17h-3.3Zm-1.67-2.373h1.951a1.751,1.751,0,0,0,1.323-.463,1.788,1.788,0,0,0,.444-1.291,1.809,1.809,0,0,0-.448-1.3,1.735,1.735,0,0,0-1.318-.471h-1.951Zm16.594,1.468h-4.852v3.059h5.73V17h-8.815V4.2h8.833V6.585h-5.748v2.7h4.852ZM170.7,13.6a1.268,1.268,0,0,0-.479-1.055,5.954,5.954,0,0,0-1.683-.782,16.147,16.147,0,0,1-1.969-.782q-2.487-1.222-2.487-3.357a3.011,3.011,0,0,1,.62-1.876,4.008,4.008,0,0,1,1.753-1.266,6.823,6.823,0,0,1,2.549-.453,5.969,5.969,0,0,1,2.474.492,3.917,3.917,0,0,1,1.7,1.4A3.661,3.661,0,0,1,173.789,8h-3.076a1.547,1.547,0,0,0-.479-1.213,1.867,1.867,0,0,0-1.3-.431,2.106,2.106,0,0,0-1.305.365,1.074,1.074,0,0,0,.048,1.819,6.65,6.65,0,0,0,1.854.826,11.36,11.36,0,0,1,2.18.918,3.663,3.663,0,0,1,2.074,3.3,3.125,3.125,0,0,1-1.266,2.637,5.629,5.629,0,0,1-3.472.958,6.888,6.888,0,0,1-2.817-.558,4.247,4.247,0,0,1-1.9-1.529,3.985,3.985,0,0,1-.637-2.237h3.094a1.963,1.963,0,0,0,.532,1.516,2.513,2.513,0,0,0,1.727.488,1.985,1.985,0,0,0,1.208-.33A1.088,1.088,0,0,0,170.7,13.6Zm15.5-2.733a7.546,7.546,0,0,1-.694,3.313,5.132,5.132,0,0,1-1.973,2.219,5.494,5.494,0,0,1-2.914.778,5.572,5.572,0,0,1-2.9-.751,5.123,5.123,0,0,1-1.973-2.149,7.329,7.329,0,0,1-.743-3.208v-.721a7.58,7.58,0,0,1,.69-3.318,5.119,5.119,0,0,1,1.978-2.219A5.854,5.854,0,0,1,183.51,4.8,5.211,5.211,0,0,1,185.492,7a7.362,7.362,0,0,1,.716,3.274Zm-3.138-.536a5.381,5.381,0,0,0-.637-2.9,2.044,2.044,0,0,0-1.824-.989q-2.32,0-2.452,3.48l-.009.94a5.535,5.535,0,0,0,.624,2.892,2.041,2.041,0,0,0,1.854,1.011,2.016,2.016,0,0,0,1.8-.993,5.383,5.383,0,0,0,.642-2.856Zm9.483,2.145h-1.67V17H187.8V4.2h5.036a5.621,5.621,0,0,1,3.56,1.01,3.421,3.421,0,0,1,1.283,2.853,4.155,4.155,0,0,1-.541,2.213,3.837,3.837,0,0,1-1.692,1.422l2.672,5.167V17h-3.3Zm-1.67-2.373h1.951a1.751,1.751,0,0,0,1.323-.463,1.788,1.788,0,0,0,.444-1.291,1.809,1.809,0,0,0-.448-1.3,1.735,1.735,0,0,0-1.318-.471h-1.951Zm15.926,4.509h-4.228L201.844,17h-3.3l4.693-12.8h2.9L210.87,17h-3.313Zm-3.489-2.382h2.751l-1.38-4.438ZM218.4,13.6a1.268,1.268,0,0,0-.479-1.055,5.954,5.954,0,0,0-1.683-.782,16.147,16.147,0,0,1-1.969-.782q-2.487-1.222-2.487-3.357a3.011,3.011,0,0,1,.62-1.876,4.008,4.008,0,0,1,1.753-1.266,6.823,6.823,0,0,1,2.549-.453,5.969,5.969,0,0,1,2.474.492,3.917,3.917,0,0,1,1.7,1.4A3.661,3.661,0,0,1,221.487,8h-3.076a1.547,1.547,0,0,0-.479-1.213,1.867,1.867,0,0,0-1.3-.431,2.106,2.106,0,0,0-1.305.365,1.074,1.074,0,0,0,.048,1.819,6.65,6.65,0,0,0,1.854.826,11.36,11.36,0,0,1,2.18.918,3.663,3.663,0,0,1,2.074,3.3,3.125,3.125,0,0,1-1.266,2.637,5.629,5.629,0,0,1-3.472.958,6.888,6.888,0,0,1-2.817-.558,4.247,4.247,0,0,1-1.9-1.529,3.985,3.985,0,0,1-.637-2.237h3.094a1.963,1.963,0,0,0,.532,1.516,2.513,2.513,0,0,0,1.727.488,1.985,1.985,0,0,0,1.208-.33A1.088,1.088,0,0,0,218.4,13.6Z" transform="translate(15423 -9114)" fill="#12263f"/>
  </g>
</svg>
