<svg xmlns="http://www.w3.org/2000/svg" xmlns:xlink="http://www.w3.org/1999/xlink" width="56" height="56" viewBox="0 0 56 56">
  <defs>
    <clipPath id="clip-path">
      <rect id="medicamento" width="56" height="56" transform="translate(512 1585)" fill="#ffad01"/>
    </clipPath>
  </defs>
  <g id="Enmascarar_grupo_1059081" data-name="Enmascarar grupo 1059081" transform="translate(-512 -1585)" clip-path="url(#clip-path)">
    <g id="medicamento-2" data-name="medicamento" transform="translate(512 1585)">
      <g id="Grupo_1065379" data-name="Grupo 1065379">
        <path id="Trazado_800716" data-name="Trazado 800716" d="M49.3,19.225a.6.6,0,0,1-.354-.7,8.394,8.394,0,0,0-8.6-10.379.608.608,0,0,1-.621-.425,6.008,6.008,0,0,0-2.93-3.56H35.2L32.8,7.741V47.263l.948,2.917,3.051,1.657h0a6.008,6.008,0,0,0,2.93-3.56.608.608,0,0,1,.621-.425,8.4,8.4,0,0,0,8.6-10.379.6.6,0,0,1,.354-.7,9.49,9.49,0,0,0,0-17.55Z" fill="#ffdecf"/>
        <path id="Trazado_800717" data-name="Trazado 800717" d="M33.558,46.447V9.553a6.148,6.148,0,0,1,3.236-5.39,5.958,5.958,0,0,0-2.773-.7A6.084,6.084,0,0,0,28,9.553l-.819,1.324V44.492L28,46.447a6.084,6.084,0,0,0,6.021,6.086,5.957,5.957,0,0,0,2.773-.7A6.148,6.148,0,0,1,33.558,46.447Z" fill="#ffcebe"/>
        <path id="Trazado_800718" data-name="Trazado 800718" d="M24.966,4.277h-2.03l-2.188,2.66H18.562l-5.668,3.938-2.134,7S7.77,21.457,7.478,22a68.4,68.4,0,0,0-1.823,7.761A17.109,17.109,0,0,0,7.478,34c.51.791,3.208,3.657,3.208,3.657s1.531,4.426,1.531,4.791a31.6,31.6,0,0,0,2.6,3.649l4.549,2.162,2.479,1.189,1.24,1.823,1.529.645A6.148,6.148,0,0,0,28,46.447V9.553A6.147,6.147,0,0,0,24.966,4.277Z" fill="#ffdecf"/>
        <path id="Trazado_800719" data-name="Trazado 800719" d="M22.241,48.278a.608.608,0,0,0-.621-.425,8.4,8.4,0,0,1-8.6-10.379.6.6,0,0,0-.354-.7,9.49,9.49,0,0,1,0-17.55.6.6,0,0,0,.354-.7,8.394,8.394,0,0,1,8.6-10.379.608.608,0,0,0,.621-.425,6.007,6.007,0,0,1,2.725-3.446,5.83,5.83,0,0,0-2.988-.81,5.991,5.991,0,0,0-5.7,4.255.608.608,0,0,1-.621.425,8.394,8.394,0,0,0-8.6,10.379.6.6,0,0,1-.354.7,9.491,9.491,0,0,0,0,17.55.6.6,0,0,1,.354.7,8.4,8.4,0,0,0,8.6,10.379.608.608,0,0,1,.621.425,5.991,5.991,0,0,0,5.7,4.255,5.83,5.83,0,0,0,2.988-.81A6.007,6.007,0,0,1,22.241,48.278Z" fill="#ffcebe"/>
        <path id="Trazado_800720" data-name="Trazado 800720" d="M26.993,25.516l1.771.682,1.278-1.215.083-.559a3.316,3.316,0,0,0-.678-1.933L27.4,19.8h0l-.437-.028L24.283,21.83Z" fill="#60b9fe"/>
        <path id="Trazado_800721" data-name="Trazado 800721" d="M27.111,24.951s-1.3-1.657-2.581-3.31l-2.368,1.815-.065.379h0l2.045,2.689a3.324,3.324,0,0,0,2.387,1.3l.652-.126,1.661-1.58A4.343,4.343,0,0,1,27.111,24.951Z" fill="#1ca8ff"/>
        <path id="Trazado_800722" data-name="Trazado 800722" d="M21.524,16.656v1.422l2.921,3.972L27.4,19.8l-1.821-2.4A3.333,3.333,0,0,0,22,16.221Z" fill="#ffe02f"/>
        <path id="Trazado_800723" data-name="Trazado 800723" d="M24.7,21.857c-.85-1.092-1.721-2.215-2.236-2.886A2.938,2.938,0,0,1,22,16.221a3.322,3.322,0,0,0-1.094.549h0a3.333,3.333,0,0,0-.636,4.67l1.821,2.4Z" fill="#fbc700"/>
        <path id="Trazado_800724" data-name="Trazado 800724" d="M35.747,25.815A5.583,5.583,0,0,0,33.679,24.5H31.987l-2.059,2.143s-.867,2.333-.9,2.661a9.7,9.7,0,0,0,.41,2.188A24.24,24.24,0,0,0,30.917,33.5l1.071,1.276,1.282.405a5.6,5.6,0,0,0,2.477-9.367Z" fill="#ff72c7"/>
        <path id="Trazado_800725" data-name="Trazado 800725" d="M31.613,33.742A5.607,5.607,0,0,1,33.679,24.5a5.607,5.607,0,0,0-7.337,6.63l.368.545,2.461,1.5.954,1.8.626.312a5.63,5.63,0,0,0,2.928-.235A5.584,5.584,0,0,1,31.613,33.742Z" fill="#ff4fb9"/>
        <path id="Trazado_800726" data-name="Trazado 800726" d="M29.275,32.678a5.584,5.584,0,0,0-2.067-1.312h-1.1a24.739,24.739,0,0,0-2.235,1.814A13.458,13.458,0,0,0,22.7,35.822a12.77,12.77,0,0,0,.328,3.147c.164.547,1.5,1.8,1.559,2a14.22,14.22,0,0,0,2.451,1.01,5.605,5.605,0,0,0,2.237-9.3Z" fill="#ff72c7"/>
        <path id="Trazado_800727" data-name="Trazado 800727" d="M25.141,40.606a5.607,5.607,0,0,1,2.067-9.24,5.606,5.606,0,1,0,0,10.551A5.582,5.582,0,0,1,25.141,40.606Z" fill="#ff4fb9"/>
      </g>
      <g id="Grupo_1065380" data-name="Grupo 1065380">
        <path id="Trazado_800728" data-name="Trazado 800728" d="M16.155,8.19a6.606,6.606,0,0,0,.553,3.425" fill="none" stroke="#000" stroke-linecap="round" stroke-linejoin="round" stroke-miterlimit="10" stroke-width="1.641"/>
        <path id="Trazado_800729" data-name="Trazado 800729" d="M7.194,19.036a11.157,11.157,0,0,1,5.325-.6" fill="none" stroke="#000" stroke-linecap="round" stroke-linejoin="round" stroke-miterlimit="10" stroke-width="1.641"/>
        <path id="Trazado_800730" data-name="Trazado 800730" d="M15.932,16.827A4.775,4.775,0,0,0,12.349,22" fill="none" stroke="#000" stroke-linecap="round" stroke-linejoin="round" stroke-miterlimit="10" stroke-width="1.641"/>
        <path id="Trazado_800731" data-name="Trazado 800731" d="M16.155,47.81a6.606,6.606,0,0,1,.553-3.425" fill="none" stroke="#000" stroke-linecap="round" stroke-linejoin="round" stroke-miterlimit="10" stroke-width="1.641"/>
        <path id="Trazado_800732" data-name="Trazado 800732" d="M7.194,36.964a11.157,11.157,0,0,0,5.325.6" fill="none" stroke="#000" stroke-linecap="round" stroke-linejoin="round" stroke-miterlimit="10" stroke-width="1.641"/>
        <path id="Trazado_800733" data-name="Trazado 800733" d="M15.932,39.173A4.775,4.775,0,0,1,12.349,34" fill="none" stroke="#000" stroke-linecap="round" stroke-linejoin="round" stroke-miterlimit="10" stroke-width="1.641"/>
        <path id="Trazado_800734" data-name="Trazado 800734" d="M39.845,8.19a6.606,6.606,0,0,1-.553,3.425" fill="none" stroke="#000" stroke-linecap="round" stroke-linejoin="round" stroke-miterlimit="10" stroke-width="1.641"/>
        <path id="Trazado_800735" data-name="Trazado 800735" d="M48.806,19.036a11.157,11.157,0,0,0-5.325-.6" fill="none" stroke="#000" stroke-linecap="round" stroke-linejoin="round" stroke-miterlimit="10" stroke-width="1.641"/>
        <path id="Trazado_800736" data-name="Trazado 800736" d="M40.068,16.827A4.775,4.775,0,0,1,43.651,22" fill="none" stroke="#000" stroke-linecap="round" stroke-linejoin="round" stroke-miterlimit="10" stroke-width="1.641"/>
        <path id="Trazado_800737" data-name="Trazado 800737" d="M39.845,47.81a6.606,6.606,0,0,0-.553-3.425" fill="none" stroke="#000" stroke-linecap="round" stroke-linejoin="round" stroke-miterlimit="10" stroke-width="1.641"/>
        <path id="Trazado_800738" data-name="Trazado 800738" d="M48.806,36.964a11.157,11.157,0,0,1-5.325.6" fill="none" stroke="#000" stroke-linecap="round" stroke-linejoin="round" stroke-miterlimit="10" stroke-width="1.641"/>
        <path id="Trazado_800739" data-name="Trazado 800739" d="M40.068,39.173A4.775,4.775,0,0,0,43.651,34" fill="none" stroke="#000" stroke-linecap="round" stroke-linejoin="round" stroke-miterlimit="10" stroke-width="1.641"/>
        <circle id="Elipse_4800" data-name="Elipse 4800" cx="5.606" cy="5.606" r="5.606" transform="translate(19.705 31.036)" fill="none" stroke="#000" stroke-linecap="round" stroke-linejoin="round" stroke-miterlimit="10" stroke-width="1.641"/>
        <line id="Línea_1697" data-name="Línea 1697" x2="4.32" transform="translate(23.151 36.642)" fill="none" stroke="#000" stroke-linecap="round" stroke-linejoin="round" stroke-miterlimit="10" stroke-width="1.641"/>
        <line id="Línea_1698" data-name="Línea 1698" x2="3.055" y2="3.055" transform="translate(30.255 28.251)" fill="none" stroke="#000" stroke-linecap="round" stroke-linejoin="round" stroke-miterlimit="10" stroke-width="1.641"/>
        <path id="Trazado_800740" data-name="Trazado 800740" d="M27.819,25.814a5.58,5.58,0,0,1,2.306-1.391,3.316,3.316,0,0,0-.678-1.933l-3.866-5.084a3.332,3.332,0,0,0-4.67-.636h0a3.333,3.333,0,0,0-.636,4.67l3.866,5.084a3.324,3.324,0,0,0,2.387,1.3A5.581,5.581,0,0,1,27.819,25.814Z" fill="none" stroke="#000" stroke-linecap="round" stroke-linejoin="round" stroke-miterlimit="10" stroke-width="1.641"/>
        <path id="Trazado_800741" data-name="Trazado 800741" d="M20.911,16.77h0a3.333,3.333,0,0,0-.636,4.67l1.821,2.4L27.4,19.8l-1.821-2.4A3.332,3.332,0,0,0,20.911,16.77Z" fill="none" stroke="#000" stroke-linecap="round" stroke-linejoin="round" stroke-miterlimit="10" stroke-width="1.641"/>
        <path id="Trazado_800742" data-name="Trazado 800742" d="M20,3.813A6,6,0,0,0,16.155,8.19,8.392,8.392,0,0,0,7.193,19.036a9.491,9.491,0,0,0,0,17.928A8.393,8.393,0,0,0,16.155,47.81,5.99,5.99,0,0,0,28,46.542V41.561a5.606,5.606,0,1,1-1.657-10.429,5.628,5.628,0,0,1,.186-3.3,3.324,3.324,0,0,1-2.387-1.3L20.276,21.44a3.332,3.332,0,0,1,.636-4.67h0a3.332,3.332,0,0,1,4.67.636L28,20.587V9.458a5.993,5.993,0,0,0-4.17-5.708" fill="none" stroke="#000" stroke-linecap="round" stroke-linejoin="round" stroke-miterlimit="10" stroke-width="1.641"/>
        <path id="Trazado_800743" data-name="Trazado 800743" d="M37.052,31.692a5.606,5.606,0,0,1-6.3,3.6A5.606,5.606,0,0,1,28,41.561v4.981A5.99,5.99,0,0,0,39.845,47.81a8.393,8.393,0,0,0,8.961-10.846,9.491,9.491,0,0,0,0-17.928A8.392,8.392,0,0,0,39.845,8.19,5.99,5.99,0,0,0,28,9.458V20.587l1.447,1.9a3.316,3.316,0,0,1,.678,1.933,5.606,5.606,0,0,1,6.927,3.441" fill="none" stroke="#000" stroke-linecap="round" stroke-linejoin="round" stroke-miterlimit="10" stroke-width="1.641"/>
      </g>
    </g>
  </g>
</svg>
