<svg xmlns="http://www.w3.org/2000/svg" xmlns:xlink="http://www.w3.org/1999/xlink" width="56" height="56" viewBox="0 0 56 56">
  <defs>
    <clipPath id="clip-path">
      <rect id="drogas" width="56" height="56" transform="translate(827 1585)" fill="#ffad01"/>
    </clipPath>
  </defs>
  <g id="Enmascarar_grupo_1059082" data-name="Enmascarar grupo 1059082" transform="translate(-827 -1585)" clip-path="url(#clip-path)">
    <g id="drogas-2" data-name="drogas" transform="translate(827 1585)">
      <g id="Grupo_1065389" data-name="Grupo 1065389">
        <g id="Grupo_1065384" data-name="Grupo 1065384">
          <g id="Grupo_1065381" data-name="Grupo 1065381">
            <path id="Trazado_800744" data-name="Trazado 800744" d="M22.185.82a2.281,2.281,0,0,1-4.562,0H15.179a2.281,2.281,0,1,1-4.562,0H8.174a2.281,2.281,0,0,1-4.562,0H.82V28.087H3.612a2.281,2.281,0,0,1,4.562,0h2.444a2.281,2.281,0,1,1,4.562,0h2.444a2.281,2.281,0,0,1,4.562,0h2.791V.82Z" fill="#ff8fd2"/>
          </g>
          <g id="Grupo_1065382" data-name="Grupo 1065382">
            <path id="Trazado_800745" data-name="Trazado 800745" d="M22.185.82A2.281,2.281,0,0,1,20.6,2.992V25.916a2.281,2.281,0,0,1,1.584,2.171h2.791V.82Z" fill="#ff7aca"/>
          </g>
          <g id="Grupo_1065383" data-name="Grupo 1065383">
            <circle id="Elipse_4801" data-name="Elipse 4801" cx="8.01" cy="8.01" r="8.01" transform="translate(4.889 6.444)" fill="#fff185"/>
          </g>
        </g>
        <g id="Grupo_1065387" data-name="Grupo 1065387">
          <path id="Trazado_800746" data-name="Trazado 800746" d="M24.293,17.341H45.1v7.908H24.293Z" transform="translate(-4.896 30.776) rotate(-45)" fill="#99caf7"/>
          <path id="Trazado_800747" data-name="Trazado 800747" d="M26,21.451H46.8v3.093H26Z" transform="translate(-5.602 32.479) rotate(-45)" fill="#85c1f7"/>
          <g id="Grupo_1065385" data-name="Grupo 1065385">
            <path id="Trazado_800748" data-name="Trazado 800748" d="M11.233,40.722l4.046,4.046a1.094,1.094,0,0,0,1.547,0L30.141,31.453,24.548,25.86,11.233,39.175a1.094,1.094,0,0,0,0,1.547Z" fill="#fff185"/>
          </g>
          <path id="Trazado_800749" data-name="Trazado 800749" d="M13.865,43.353l1.414,1.414a1.094,1.094,0,0,0,1.547,0L30.141,31.453l-2.188-2.188Z" fill="#fceb65"/>
          <path id="Trazado_800750" data-name="Trazado 800750" d="M12.013,45.929l-1.942-1.942a1.1,1.1,0,0,1,0-1.554L11.508,41l3.5,3.5-1.437,1.437a1.1,1.1,0,0,1-1.554,0Z" fill="#8fe069"/>
          <path id="Trazado_800751" data-name="Trazado 800751" d="M44.23,5.848h4.943v6.885H44.23Z" transform="translate(20.251 -30.306) rotate(45)" fill="#99caf7"/>
          <g id="Grupo_1065386" data-name="Grupo 1065386">
            <path id="Trazado_800752" data-name="Trazado 800752" d="M45.425,17.3,38.7,10.576A1.565,1.565,0,0,1,40.91,8.362l6.729,6.729A1.565,1.565,0,0,1,45.425,17.3Z" fill="#e3f2ff"/>
            <path id="Trazado_800753" data-name="Trazado 800753" d="M52.508,10.222,45.779,3.493a1.565,1.565,0,1,1,2.214-2.214l6.729,6.729a1.565,1.565,0,1,1-2.214,2.214Z" fill="#e3f2ff"/>
          </g>
        </g>
        <g id="Grupo_1065388" data-name="Grupo 1065388">
          <path id="Trazado_800754" data-name="Trazado 800754" d="M14.764,55.18s1.145-5.358,8.334-8.543C29.955,43.6,29.99,35.3,35.717,35.3s6.3,10.81,11.182,13.248c2.226,1.112,7.5,2.214,8.281,6.634H14.764Z" fill="#e3f2ff"/>
          <path id="Trazado_800755" data-name="Trazado 800755" d="M46.9,48.546C42.019,46.108,41.445,35.3,35.717,35.3a4.821,4.821,0,0,0-2.3.551c3.892,2.231,4.893,10.59,9.111,12.7,2.226,1.112,7.5,2.214,8.281,6.634H55.18c-.776-4.42-6.055-5.522-8.281-6.634Z" fill="#cfe9ff"/>
        </g>
      </g>
      <g id="Grupo_1065390" data-name="Grupo 1065390">
        <path id="Trazado_800756" data-name="Trazado 800756" d="M12.9,23.284a8.84,8.84,0,0,0,8.83-8.83c-.444-11.7-17.219-11.7-17.661,0a8.84,8.84,0,0,0,8.831,8.83Zm0-16.02a7.2,7.2,0,0,1,7.19,7.19c-.361,9.525-14.02,9.523-14.38,0a7.2,7.2,0,0,1,7.19-7.19Z"/>
        <path id="Trazado_800757" data-name="Trazado 800757" d="M9.653,16.562a.82.82,0,0,0-1.419.823,5.388,5.388,0,0,0,9.33,0,.82.82,0,0,0-1.419-.823,3.747,3.747,0,0,1-6.492,0Z"/>
        <path id="Trazado_800758" data-name="Trazado 800758" d="M8.19,14.554a.828.828,0,0,0,1.16,0l.586-.586.586.586a.82.82,0,1,0,1.16-1.16l-.586-.586.586-.586a.82.82,0,1,0-1.16-1.16l-.586.586-.586-.586a.82.82,0,0,0-1.16,1.16l.586.586-.586.586A.82.82,0,0,0,8.19,14.554Z"/>
        <path id="Trazado_800759" data-name="Trazado 800759" d="M14.115,14.554a.828.828,0,0,0,1.16,0l.586-.586.586.586a.82.82,0,0,0,1.16-1.16l-.586-.586.586-.586a.82.82,0,0,0-1.16-1.16l-.586.586-.586-.586a.82.82,0,1,0-1.16,1.16l.586.586-.586.586A.82.82,0,0,0,14.115,14.554Z"/>
        <path id="Trazado_800760" data-name="Trazado 800760" d="M15.038,45.618a1.952,1.952,0,0,0,2.367-.27L44.857,17.9a2.386,2.386,0,0,0,3.362-3.386l-1.036-1.036,3.709-3.709L51.928,10.8A2.386,2.386,0,0,0,55.3,7.428L48.573.7A2.408,2.408,0,0,0,45.2.7a2.408,2.408,0,0,0,0,3.374L46.235,5.11,42.526,8.819,41.49,7.782A2.386,2.386,0,0,0,38.1,11.144L25.8,23.45V.82a.82.82,0,0,0-.82-.82H22.185a.82.82,0,0,0-.82.82,1.461,1.461,0,0,1-2.921,0,.82.82,0,0,0-.82-.82H15.179a.82.82,0,0,0-.82.82,1.461,1.461,0,0,1-2.921,0,.82.82,0,0,0-.82-.82H8.174a.82.82,0,0,0-.82.82,1.461,1.461,0,1,1-2.921,0A.82.82,0,0,0,3.612,0H.82A.82.82,0,0,0,0,.82V6.444a.82.82,0,0,0,1.641,0v-4.8H2.9a3.107,3.107,0,0,0,5.982,0H9.907a3.107,3.107,0,0,0,5.982,0h1.024a3.107,3.107,0,0,0,5.982,0h1.261v23.45l-1.523,1.523a3.108,3.108,0,0,0-5.72.652H15.889a3.107,3.107,0,0,0-5.982,0H8.884a3.107,3.107,0,0,0-5.982,0H1.641V10.851a.82.82,0,1,0-1.641,0V28.087a.82.82,0,0,0,.82.82H3.612a.82.82,0,0,0,.82-.82,1.461,1.461,0,0,1,2.921,0,.82.82,0,0,0,.82.82h2.444a.82.82,0,0,0,.82-.82,1.461,1.461,0,1,1,2.921,0,.82.82,0,0,0,.82.82h2.444a.82.82,0,0,0,.82-.82,1.461,1.461,0,0,1,2.908-.192l-10.7,10.7a1.951,1.951,0,0,0-.27,2.367l-.892.892a1.921,1.921,0,0,0,0,2.714l.391.391L.241,54.6A.82.82,0,0,0,1.4,55.76l9.641-9.641.391.391a1.947,1.947,0,0,0,2.714,0ZM29.117,22.451l1.013,1.013a.821.821,0,0,0,1.16-1.16l-1.013-1.013,3.406-3.406L34.7,18.9a.821.821,0,0,0,1.16-1.16l-1.013-1.013,4.42-4.42L43.7,16.737,30.141,30.293l-4.43-4.436Zm-13.7,13.7,1.013,1.013A.821.821,0,0,0,17.592,36l-1.013-1.013,3.406-3.406L21,32.6a.821.821,0,0,0,1.16-1.16l-1.013-1.013,3.4-3.4,4.433,4.433L16.246,44.188a.282.282,0,0,1-.387,0l-4.046-4.046a.274.274,0,0,1,0-.387ZM46.359,1.859a.745.745,0,0,1,1.054,0l6.729,6.729a.745.745,0,0,1-1.054,1.054L46.359,2.913A.745.745,0,0,1,46.359,1.859ZM47.4,6.27l2.335,2.335-3.709,3.709L43.687,9.979ZM39.276,8.942a.746.746,0,0,1,1.054,0l6.729,6.729A.745.745,0,0,1,46,16.725L39.276,10a.746.746,0,0,1,0-1.054ZM12.79,45.431a1.5,1.5,0,0,1-.2-.081l-1.942-1.942a.279.279,0,0,1,0-.394l.857-.857,2.335,2.335-.857.857A.278.278,0,0,1,12.79,45.431Z"/>
        <path id="Trazado_800761" data-name="Trazado 800761" d="M48.771,48.447c-6.562-2.092-5.934-13.635-13.053-13.97-3.423,0-5.044,2.523-6.761,5.195-1.534,2.387-3.12,4.855-6.19,6.214-7.486,3.316-8.754,8.886-8.8,9.121a.828.828,0,0,0,.8.992h25.3a.82.82,0,0,0,0-1.641H15.917a14.251,14.251,0,0,1,7.514-6.972c3.52-1.559,5.319-4.358,6.906-6.828s2.854-4.441,5.381-4.441c5.04.084,5.987,11.1,10.815,13.161,2.661,1.33,6.318,1.984,7.566,5.08H44.432a.82.82,0,0,0,0,1.641H55.18a.828.828,0,0,0,.808-.962c-.706-4.022-4.624-5.568-7.217-6.59Z"/>
        <path id="Trazado_800762" data-name="Trazado 800762" d="M22.167,52.65a.821.821,0,0,0,0-1.641A.821.821,0,0,0,22.167,52.65Z"/>
        <path id="Trazado_800763" data-name="Trazado 800763" d="M33.683,41.083a.821.821,0,0,0,0,1.641A.821.821,0,0,0,33.683,41.083Z"/>
        <path id="Trazado_800764" data-name="Trazado 800764" d="M38.133,44.691a.821.821,0,0,0,0-1.641A.821.821,0,0,0,38.133,44.691Z"/>
        <path id="Trazado_800765" data-name="Trazado 800765" d="M33.7,50.027a.821.821,0,0,0,0-1.641A.821.821,0,0,0,33.7,50.027Z"/>
        <path id="Trazado_800766" data-name="Trazado 800766" d="M45.281,51.01a.821.821,0,0,0,0,1.641A.821.821,0,0,0,45.281,51.01Z"/>
      </g>
    </g>
  </g>
</svg>
