<svg xmlns="http://www.w3.org/2000/svg" width="95.575" height="62.438" viewBox="0 0 95.575 62.438">
  <g id="Grupo_1065201" data-name="Grupo 1065201" transform="translate(-859.045 -163.847)">
    <path id="Trazado_796852" data-name="Trazado 796852" d="M154.445,30.482V23.722l-8.188-1.747a19.478,19.478,0,0,0-1.916-4.618l4.556-7.029-4.78-4.78L137.088,10.1a19.478,19.478,0,0,0-4.618-1.916L130.723,0h-6.759l-1.747,8.188A19.478,19.478,0,0,0,117.6,10.1l-7.029-4.556-4.78,4.78,4.556,7.029a19.478,19.478,0,0,0-1.916,4.618l-8.188,1.747v6.759l8.188,1.747a19.478,19.478,0,0,0,1.916,4.618l-4.556,7.029,4.78,4.78L117.6,44.1a19.478,19.478,0,0,0,4.618,1.916l1.747,8.188h6.759l1.747-8.188a19.478,19.478,0,0,0,4.618-1.916l7.029,4.556,4.78-4.78-4.556-7.029a19.478,19.478,0,0,0,1.916-4.618Zm-27.1,6.707A10.085,10.085,0,1,1,137.43,27.1a10.085,10.085,0,0,1-10.087,10.087" transform="translate(800.175 163.847)" fill="#006a76"/>
    <path id="Trazado_796853" data-name="Trazado 796853" d="M41.178,74.667V69.532L34.958,68.2A14.786,14.786,0,0,0,33.5,64.7l3.462-5.34-3.631-3.631-5.339,3.461a14.8,14.8,0,0,0-3.509-1.456L23.157,51.51H18.022l-1.328,6.221a14.8,14.8,0,0,0-3.509,1.456l-5.34-3.461L4.215,59.356,7.676,64.7A14.8,14.8,0,0,0,6.22,68.2L0,69.532v5.135l6.22,1.327A14.805,14.805,0,0,0,7.676,79.5L4.215,84.843l3.631,3.631,5.34-3.462a14.768,14.768,0,0,0,3.509,1.456l1.328,6.221h5.135l1.328-6.221a14.768,14.768,0,0,0,3.509-1.456l5.339,3.462,3.631-3.631L33.5,79.5a14.789,14.789,0,0,0,1.456-3.509Zm-20.589,5.1A7.661,7.661,0,1,1,28.252,72.1a7.662,7.662,0,0,1-7.663,7.663" transform="translate(859.045 133.596)" fill="#ff8182"/>
  </g>
</svg>
