<svg xmlns="http://www.w3.org/2000/svg" width="92.926" height="92.926" viewBox="0 0 92.926 92.926">
  <path id="Trazado_796856" data-name="Trazado 796856" d="M629.905,319.9a12.435,12.435,0,0,0-15.229-3.242,12.709,12.709,0,0,0-6.347,7.083,10.554,10.554,0,0,1-4.364,5.408l0,.011L591.63,309.215,571.7,321.545a10.512,10.512,0,0,0,5.409,4.365,12.729,12.729,0,0,1,7.077,6.347,12.2,12.2,0,0,1-21.367,11.783,12.657,12.657,0,0,1-1.82-8.228,10.364,10.364,0,0,0-1.5-6.722l-19.937,12.334,32.212,52.07,19.935-12.332a10.381,10.381,0,0,1,1.5,6.715,12.654,12.654,0,0,0,1.818,8.233A12.205,12.205,0,0,0,616.4,384.325a12.709,12.709,0,0,0-7.083-6.347,10.548,10.548,0,0,1-5.407-4.362l19.933-12.331L611.5,341.337l.01.01a10.378,10.378,0,0,1,6.716-1.5,12.657,12.657,0,0,0,8.234-1.818,12.345,12.345,0,0,0,3.444-18.129" transform="translate(-539.565 -309.215)" fill="#006a76"/>
</svg>
