<svg xmlns="http://www.w3.org/2000/svg" xmlns:xlink="http://www.w3.org/1999/xlink" width="393.362" height="310" viewBox="0 0 393.362 310">
  <defs>
    <clipPath id="clip-path">
      <rect id="Rect치ngulo_374065" data-name="Rect치ngulo 374065" width="203.362" height="305.382" fill="none"/>
    </clipPath>
  </defs>
  <g id="Grupo_1065244" data-name="Grupo 1065244" transform="translate(-180 -2798)">
    <rect id="Rect치ngulo_374066" data-name="Rect치ngulo 374066" width="295" height="310" transform="translate(180 2798)" fill="#ff8182" opacity="0.3"/>
    <g id="Grupo_1065090" data-name="Grupo 1065090" transform="translate(370 2798.41)">
      <g id="Grupo_1065089" data-name="Grupo 1065089" clip-path="url(#clip-path)">
        <path id="Trazado_799660" data-name="Trazado 799660" d="M150.643,184.61c0,4.143-32.675,7.5-72.981,7.5s-72.98-3.359-72.98-7.5,32.675-7.5,72.98-7.5,72.981,3.359,72.981,7.5" transform="translate(2.994 113.27)" fill="#ff8182" opacity="0.47"/>
        <path id="Trazado_799661" data-name="Trazado 799661" d="M57.881,47.486c-4.61,8.926-5.063,19.321-6.348,29.282S47.644,97.28,40.122,103.939c-5.043,4.465-11.682,6.606-17.455,10.075C3.648,125.445-3.681,151,1.738,172.515s21.314,39.11,39.544,51.764c13.369,9.28,28.445,16.46,44.512,19.042s33.193.31,47.145-8.068c15.468-9.29,25.984-25.369,31.653-42.5s6.93-35.385,7.316-53.42c.516-24.154-.656-49.159-11.18-70.9A69.214,69.214,0,0,0,110.85,29.888c-18.719-3.668-43.219-1.274-52.969,17.6" transform="translate(0 18.187)" fill="#8edee0"/>
        <path id="Trazado_799662" data-name="Trazado 799662" d="M173.356,0a27.119,27.119,0,0,1,2.65,13.535A34.342,34.342,0,0,0,161.814.728a25.566,25.566,0,0,1,6.778,14.138,36.955,36.955,0,0,0-12.579-8.331A23.512,23.512,0,0,1,163.35,25.08a11.244,11.244,0,0,1-12.779.131c1.836,5.691,8,9.436,13.974,9.632a32.165,32.165,0,0,1,4.763,32.011,32.242,32.242,0,0,1-18.957,17.709c-.266-9.834-1.348-19.7-4.428-29.03-3.34-10.119-9.165-19.629-17.653-26.074A42.562,42.562,0,0,0,61.3,52.79a43.067,43.067,0,0,0,1.192,24.726c1.994,5.7,6.442,10.528,8.158,16.268a24.36,24.36,0,0,1-16.494-5.009c-5.443-4.109-9.241-10.132-11.495-16.569A68.6,68.6,0,0,1,39.342,52.1a30.678,30.678,0,0,0,8.411-18.009c-3.105,4.494-8.913,7.3-14.372,7.475A57.366,57.366,0,0,1,32.6,19.412a29.011,29.011,0,0,0-7.762,17.7A31.46,31.46,0,0,1,21.76,17.888a32.954,32.954,0,0,0-7.311,24.821A31.652,31.652,0,0,1,8.486,26.987c-3.922,40.6,13.661,94.115,60.429,90.507-2.84,8.588-7.37,16.873-11.364,23.637-8.385,14.2-18.347,27.836-22.821,43.711S32.71,220,45.712,230.144c11.4,8.893,28.153,8.335,41.027,1.764s22.465-18.148,30.376-30.245a205.34,205.34,0,0,0,28.818-69.455C205.01,111.693,213.971,42.169,173.356,0M75.17,78.246a8.653,8.653,0,0,1-9.486-4.415c-2.045-3.681-1.476-9.332,1.538-11.449,2.368-1.661,5.624-1.041,7.744-3.138,1.366-1.351,1.956-3.546,2.5-5.619s1.177-4.261,2.586-5.545c4.089-3.727,6.116,2.663,6.471,6.491a29.1,29.1,0,0,1-3.117,16.373c-1.941,3.545-4.8,6.461-8.237,7.3m35.582,21.372a29.248,29.248,0,0,1-2.5,10.365,13.529,13.529,0,0,1-7.645,7.1c-3.4,1.094-7.539.169-9.683-2.691-2.207-2.943-1.922-6.994-1.535-10.652.393-3.727,1.418-6.735-.68-9.921s-3.277-6.668-2-10.451a11.207,11.207,0,0,1,10.949-7.385c5.032.3,9.347,4.161,11.39,8.77s2.159,9.839,1.71,14.859m17.417-30.328c-2.046,3.874-6.788,5.863-11.144,5.388s-8.27-3.076-11.131-6.4A25.26,25.26,0,0,1,99.9,52.326c-.061-3.845,1.608-10.411,7.147-7.135,1.908,1.128,2.974,3.238,3.919,5.242s1.963,4.125,3.827,5.325c2.894,1.863,6.835.9,9.977,2.307,4,1.789,5.442,7.35,3.4,11.224" transform="translate(5.088)" fill="#ff8182"/>
        <path id="Trazado_799663" data-name="Trazado 799663" d="M88.906,40.783c-3.141-1.4-7.083-.443-9.977-2.307-1.864-1.2-2.881-3.318-3.827-5.325s-2.012-4.112-3.919-5.24c-5.538-3.279-7.207,3.291-7.147,7.134A25.257,25.257,0,0,0,70.027,51c2.859,3.322,6.775,5.92,11.131,6.4s9.1-1.513,11.144-5.386.6-9.437-3.4-11.226" transform="translate(40.955 17.282)" fill="#fff"/>
        <path id="Trazado_799664" data-name="Trazado 799664" d="M64.476,36.256c-.356-3.828-2.381-10.218-6.47-6.491-1.408,1.282-2.04,3.471-2.586,5.543s-1.138,4.269-2.5,5.62c-2.12,2.1-5.374,1.476-7.742,3.138-3.015,2.115-3.584,7.768-1.538,11.449a8.649,8.649,0,0,0,9.485,4.414c3.437-.841,6.3-3.758,8.237-7.3a29.089,29.089,0,0,0,3.117-16.373" transform="translate(27.134 18.315)" fill="#fff"/>
        <path id="Trazado_799665" data-name="Trazado 799665" d="M67.138,46.354A11.2,11.2,0,0,0,56.19,53.738c-1.276,3.782-.085,7.278,2,10.451s1.074,6.194.68,9.921c-.387,3.658-.672,7.709,1.535,10.652,2.145,2.859,6.281,3.784,9.683,2.691a13.524,13.524,0,0,0,7.645-7.1,29.248,29.248,0,0,0,2.5-10.365c.449-5.02.331-10.25-1.71-14.859s-6.358-8.475-11.39-8.77" transform="translate(35.6 29.635)" fill="#fff"/>
        <path id="Trazado_799666" data-name="Trazado 799666" d="M50.838,110.624l-24.564,44.4a18.12,18.12,0,0,0-1.943,12.154l8.478,44.506H57.547l-14.23-47.214,23.77-28.943,10.67,41.232L91.5,221.384h24.416L96.677,169.966l1.043-35a50.8,50.8,0,0,0-6.243-25.956l-.618-1.13-15.2,2.748Z" transform="translate(15.357 68.993)" fill="#454f6b"/>
        <path id="Trazado_799667" data-name="Trazado 799667" d="M48.46,171.19H37.788l-1.462,2.09a8.756,8.756,0,0,1-4.935,3.445l-.672.177a8.731,8.731,0,0,0-4.843,3.343H51.4Z" transform="translate(16.548 109.485)" fill="#f4d071"/>
        <path id="Trazado_799668" data-name="Trazado 799668" d="M26.394,176.713a8.7,8.7,0,0,0-1.33,2.7h27.73l-.876-2.7Z" transform="translate(16.03 113.018)" fill="#fdf7e7"/>
        <path id="Trazado_799669" data-name="Trazado 799669" d="M83.989,177.107H73.317l-2.21,2.479a8.73,8.73,0,0,1-4.3,2.64l-1.223.325A8.726,8.726,0,0,0,60.666,186H86.432Z" transform="translate(38.799 113.27)" fill="#f4d071"/>
        <path id="Trazado_799670" data-name="Trazado 799670" d="M61.156,182.531a8.751,8.751,0,0,0-1.256,2.587H87.631l-.712-2.587Z" transform="translate(38.309 116.739)" fill="#fdf7e7"/>
        <path id="Trazado_799671" data-name="Trazado 799671" d="M62.022,170.071a.138.138,0,0,1-.134-.1L48.624,118.72a.14.14,0,0,1,.1-.169.136.136,0,0,1,.169.1L62.156,169.9a.139.139,0,0,1-.1.167.125.125,0,0,1-.034,0" transform="translate(31.095 75.817)" fill="#422c4f"/>
        <path id="Trazado_799672" data-name="Trazado 799672" d="M35.842,153.875a.141.141,0,0,1-.087-.031.137.137,0,0,1-.02-.2L59.5,124.706a.14.14,0,0,1,.2-.02.138.138,0,0,1,.018.2L35.949,153.824a.136.136,0,0,1-.107.051" transform="translate(22.834 79.724)" fill="#422c4f"/>
        <path id="Trazado_799673" data-name="Trazado 799673" d="M52.653,120.9a22.463,22.463,0,0,1-20.437-.4c-2.568-1.405-4.888-3.784-5.22-6.691a8.632,8.632,0,0,1-8.044-4.866c-1.4-3.015-.976-7.322,1.292-9.754a14.552,14.552,0,0,1-2.22-11.638c1.076-3.927,4.763-7.744,8.814-8.114a10.179,10.179,0,0,1-.982-9.868,9.6,9.6,0,0,1,7.771-5.656,9.622,9.622,0,0,1,16.564-4.851,7.811,7.811,0,0,1,12.351,6.461,8.82,8.82,0,0,1,7.224,4.665,8.654,8.654,0,0,1-.5,8.5c3.082,1.9,5.261,6.155,5.491,9.768a11.564,11.564,0,0,1-4.214,9.568,10.546,10.546,0,0,1,.917,10.395,10.336,10.336,0,0,1-8.68,5.586,6.723,6.723,0,0,1-2.658,5.975c-1.9,1.3-5.371,1.874-7.468.921" transform="translate(11.255 35.798)" fill="#422c4f"/>
        <path id="Trazado_799674" data-name="Trazado 799674" d="M41.669,98.046l3.881,9.27-17.205,16.6-7.806,3.464a5.343,5.343,0,0,0-3.105,3.627,8.266,8.266,0,0,0-.174,2.381,8.912,8.912,0,0,0,.764,3.051,3.225,3.225,0,0,0,3.573,1.81l.021,0,.008.011a2.4,2.4,0,0,0,2.343.977l.561-.09a3.707,3.707,0,0,0,.5,1,1.873,1.873,0,0,0,2.569-.494c.13-.4-.118-.877-.182-1.29.272-.054.585-.116.9-.18a.9.9,0,0,0,.735-.974A9.062,9.062,0,0,1,31,130.36a8.586,8.586,0,0,1,.128,2.805,3.118,3.118,0,0,0,2.041,3.269l.025.008a14.389,14.389,0,0,0,1.031-8l23.608-11.534L47.246,98.046Z" transform="translate(11.025 62.706)" fill="#bd6c67"/>
        <path id="Trazado_799675" data-name="Trazado 799675" d="M21.119,122.638a.137.137,0,0,1-.126-.082.139.139,0,0,1,.07-.184l4.809-2.133,17.187-16.584a.139.139,0,0,1,.2,0,.136.136,0,0,1,0,.2l-17.205,16.6a.127.127,0,0,1-.039.026l-4.832,2.145a.161.161,0,0,1-.056.011" transform="translate(13.418 66.269)" fill="#422c4f"/>
        <path id="Trazado_799676" data-name="Trazado 799676" d="M23.713,126.278a.877.877,0,0,1-.351-.066.71.71,0,0,1-.4-.42,8.889,8.889,0,0,1,.687-8.4.139.139,0,1,1,.243.134,8.641,8.641,0,0,0-.671,8.167.441.441,0,0,0,.243.264,1.061,1.061,0,0,0,.707-.052.139.139,0,1,1,.108.256,1.589,1.589,0,0,1-.571.116" transform="translate(14.213 75.033)" fill="#422c4f"/>
        <path id="Trazado_799677" data-name="Trazado 799677" d="M22.252,126.388a.136.136,0,0,1-.13-.09c-1.646-4.546-1.461-6.86-1.015-8a.138.138,0,1,1,.257.1c-.428,1.1-.6,3.34,1.017,7.8a.137.137,0,0,1-.082.177.121.121,0,0,1-.048.008" transform="translate(13.302 75.601)" fill="#422c4f"/>
        <path id="Trazado_799678" data-name="Trazado 799678" d="M20.515,125.418a.141.141,0,0,1-.123-.074c-2.23-4.235-1.261-6.821-1.218-6.929a.138.138,0,0,1,.257.1c-.008.025-.961,2.586,1.207,6.7a.14.14,0,0,1-.059.187.128.128,0,0,1-.064.016" transform="translate(12.106 75.677)" fill="#422c4f"/>
        <path id="Trazado_799679" data-name="Trazado 799679" d="M60.928,77.6l-4.62,3.21a20.105,20.105,0,0,1-.561,3.089,11.28,11.28,0,0,1-2.856,5.147,9.448,9.448,0,0,1-10.023,1.8A10.448,10.448,0,0,1,37.379,85.2h-.99a9.054,9.054,0,0,0-8.053,13.193l3.73,7.26.1,3.182a6.467,6.467,0,0,0,4.309,5.891l3.837,1.356,8.408,13.907h24.82l9.218-10.672Z" transform="translate(17.474 49.628)" fill="#f4d071"/>
        <path id="Trazado_799680" data-name="Trazado 799680" d="M38.946,91.568a9.449,9.449,0,0,0,10.023-1.8,11.289,11.289,0,0,0,2.854-5.148,19.664,19.664,0,0,0,.561-3.087l-4.65,3.23-.525-8.3-9.977.749-.493,8.711H33.457a10.443,10.443,0,0,0,5.489,5.643" transform="translate(21.398 48.903)" fill="#bd6c67"/>
        <path id="Trazado_799681" data-name="Trazado 799681" d="M35.677,79.617c7.7,5.553,10.446,2.1,10.446,2.1l-.333-5.256-9.977.749Z" transform="translate(22.817 48.903)" fill="#422c4f"/>
        <path id="Trazado_799682" data-name="Trazado 799682" d="M48.265,100.813a13.236,13.236,0,0,1-9.288-3.774.138.138,0,0,1,0-.2.14.14,0,0,1,.2,0,12.928,12.928,0,0,0,12.538,3.2.141.141,0,0,1,.172.093.138.138,0,0,1-.093.172,12.372,12.372,0,0,1-3.525.5" transform="translate(24.902 61.911)" fill="#422c4f"/>
        <path id="Trazado_799683" data-name="Trazado 799683" d="M30.536,103.2a.14.14,0,0,1-.141-.134l-.52-16.287a.139.139,0,0,1,.134-.143.129.129,0,0,1,.143.134l.52,16.287a.137.137,0,0,1-.133.143Z" transform="translate(19.107 55.406)" fill="#422c4f"/>
        <path id="Trazado_799684" data-name="Trazado 799684" d="M40.579,62.346l1.307.892a22.178,22.178,0,0,1,9.688,18.33v.175a7.336,7.336,0,0,1-9.491,7.011l-5.6-1.723a5.759,5.759,0,0,0-.093-4.274l-.931-2.194c6.252-7.762,5.12-18.217,5.12-18.217" transform="translate(22.678 39.874)" fill="#bd6c67"/>
        <path id="Trazado_799685" data-name="Trazado 799685" d="M34.755,74.58a3.345,3.345,0,0,0-2.843.761,2.664,2.664,0,0,0-.3,3.009,4.324,4.324,0,0,0,2.469,1.956,12.128,12.128,0,0,0,3.176.512c1.012.067,2.19.092,2.838-.833s.133-1.548-.438-2.313a7.206,7.206,0,0,0-4.9-3.091" transform="translate(20.01 47.673)" fill="#bd6c67"/>
        <path id="Trazado_799686" data-name="Trazado 799686" d="M37.471,79.049c-.213,0-.425-.013-.63-.026A10.979,10.979,0,0,1,34,78.58a3.059,3.059,0,0,1-1.746-1.335,1.386,1.386,0,0,1,.087-1.515,1.862,1.862,0,0,1,1.282-.4,4.045,4.045,0,0,1,.469.03,5.91,5.91,0,0,1,4.023,2.579,4.368,4.368,0,0,1,.475.708c-.008.008-.026.043-.062.093-.064.092-.215.308-1.059.308" transform="translate(20.514 48.178)" fill="#a64f5a"/>
        <path id="Trazado_799687" data-name="Trazado 799687" d="M47.819,78.507h0a13.034,13.034,0,0,1,18.3,3.5L77.085,98.559l-13.854,9.4Z" transform="translate(30.583 48.719)" fill="#f4d071"/>
        <path id="Trazado_799688" data-name="Trazado 799688" d="M67.253,98.8l5.732,10.956L57.715,123.567a10.687,10.687,0,0,0-9.724-1.341,11.014,11.014,0,0,0-6.334,5.756,1.444,1.444,0,0,0,.892,1.958l.026.008a1.428,1.428,0,0,0,1.6-.521,10.037,10.037,0,0,1,4.9-3.581,15.661,15.661,0,0,0-3.62,4.776A1.727,1.727,0,0,0,46.347,133l.03.011a1.728,1.728,0,0,0,2.012-.571,30.719,30.719,0,0,1,5.292-5.36c-1.056,1.756-2.217,3.714-3.314,5.55a1.323,1.323,0,0,0,.646,1.912l.026.011a1.316,1.316,0,0,0,1.39-.269c1.28-1.207,2.617-2.4,3.874-3.612-.459.731-.907,1.522-1.358,2.3a1.206,1.206,0,0,0,.649,1.743l.025.008a1.2,1.2,0,0,0,1.425-.51c.485-.81.936-1.625,1.456-2.431l.353.026a4.921,4.921,0,0,0,5.061-3.5l21.222-10.216a9.056,9.056,0,0,0,3.687-13.057L79.474,90.5Z" transform="translate(26.561 57.882)" fill="#bd6c67"/>
        <path id="Trazado_799689" data-name="Trazado 799689" d="M69.441,90.5,57.22,98.8l2.13,4.071L70.112,91.547Z" transform="translate(36.595 57.882)" fill="#422c4f"/>
        <path id="Trazado_799690" data-name="Trazado 799690" d="M61.181,103.225a.105.105,0,0,1-.033,0,.135.135,0,0,1-.09-.07L51.039,84a.138.138,0,0,1,.246-.126l9.947,19.009,13.726-9.316a.139.139,0,0,1,.192.036.141.141,0,0,1-.036.193L61.26,103.2a.151.151,0,0,1-.079.023" transform="translate(32.632 53.595)" fill="#422c4f"/>
        <path id="Trazado_799691" data-name="Trazado 799691" d="M51.458,118.563a.139.139,0,0,1-.1-.241L73.183,98.583a.136.136,0,0,1,.2.01.138.138,0,0,1-.01.2L51.549,118.527a.136.136,0,0,1-.092.036" transform="translate(32.82 63.026)" fill="#422c4f"/>
        <path id="Trazado_799692" data-name="Trazado 799692" d="M56.233,96.572a.138.138,0,0,1-.116-.064.14.14,0,0,1,.041-.192l11.211-7.188a.139.139,0,0,1,.19.043.138.138,0,0,1-.041.19L56.308,96.55a.159.159,0,0,1-.075.021" transform="translate(35.876 56.989)" fill="#422c4f"/>
        <path id="Trazado_799693" data-name="Trazado 799693" d="M15.21,135.863a.644.644,0,0,1-.556-.316,22.325,22.325,0,0,1,.715-23.623.647.647,0,1,1,1.069.728,21.3,21.3,0,0,0-.674,22.234.646.646,0,0,1-.223.887.658.658,0,0,1-.331.09" transform="translate(7.431 71.4)" fill="#e7faf9"/>
        <path id="Trazado_799694" data-name="Trazado 799694" d="M10.345,131.741a.648.648,0,0,1-.585-.369,18.8,18.8,0,0,1,1-17.607.647.647,0,1,1,1.1.685,17.474,17.474,0,0,0-.926,16.366.646.646,0,0,1-.584.925" transform="translate(5.139 72.565)" fill="#e7faf9"/>
        <path id="Trazado_799695" data-name="Trazado 799695" d="M75.3,119.256a.64.64,0,0,1-.407-.144.648.648,0,0,1-.1-.91,21.3,21.3,0,0,0,2.5-22.1.646.646,0,0,1,1.161-.567A22.329,22.329,0,0,1,75.8,119.017a.652.652,0,0,1-.5.239" transform="translate(47.744 60.866)" fill="#e7faf9"/>
        <path id="Trazado_799696" data-name="Trazado 799696" d="M79.636,115.469a.639.639,0,0,1-.385-.128.647.647,0,0,1-.133-.905A17.477,17.477,0,0,0,81.389,98.2a.647.647,0,1,1,1.21-.457,18.8,18.8,0,0,1-2.443,17.463.642.642,0,0,1-.52.262" transform="translate(50.518 62.245)" fill="#e7faf9"/>
        <path id="Trazado_799697" data-name="Trazado 799697" d="M17.951,78.116a.649.649,0,0,1-.633-.512,22.328,22.328,0,0,1,8.29-22.134.646.646,0,1,1,.776,1.033,21.3,21.3,0,0,0-7.8,20.831.647.647,0,0,1-.5.769.78.78,0,0,1-.136.013" transform="translate(10.782 35.393)" fill="#e7faf9"/>
        <path id="Trazado_799698" data-name="Trazado 799698" d="M14.268,72.776a.645.645,0,0,1-.641-.572,18.8,18.8,0,0,1,6.616-16.346.647.647,0,0,1,.82,1,17.479,17.479,0,0,0-6.152,15.2.648.648,0,0,1-.567.718c-.025,0-.051,0-.075,0" transform="translate(8.642 35.63)" fill="#e7faf9"/>
        <path id="Trazado_799699" data-name="Trazado 799699" d="M77.632,157.177a.631.631,0,0,1-.344-.1.644.644,0,0,1-.2-.892,21.293,21.293,0,0,0-.118-22.242.647.647,0,0,1,1.087-.7,22.328,22.328,0,0,1,.125,23.636.646.646,0,0,1-.548.3" transform="translate(49.159 85.024)" fill="#e7faf9"/>
        <path id="Trazado_799700" data-name="Trazado 799700" d="M81.719,152.9a.646.646,0,0,1-.561-.969,17.473,17.473,0,0,0,.346-16.389.647.647,0,1,1,1.148-.6,18.793,18.793,0,0,1-.372,17.63.643.643,0,0,1-.561.325" transform="translate(51.851 86.078)" fill="#e7faf9"/>
      </g>
    </g>
  </g>
</svg>
