<svg xmlns="http://www.w3.org/2000/svg" xmlns:xlink="http://www.w3.org/1999/xlink" width="1600" height="220" viewBox="0 0 1600 220">
  <defs>
    <clipPath id="clip-path">
      <rect id="Rectángulo_373505" data-name="Rectángulo 373505" width="1600" height="220" transform="translate(0 70)" fill="#8edee0"/>
    </clipPath>
    <clipPath id="clip-path-2">
      <rect id="Rectángulo_373504" data-name="Rectángulo 373504" width="674.692" height="328.968" fill="#ff8182"/>
    </clipPath>
  </defs>
  <g id="Grupo_1064044" data-name="Grupo 1064044" transform="translate(0 -70)">
    <rect id="Rectángulo_373428" data-name="Rectángulo 373428" width="1600" height="220" transform="translate(0 70)" fill="#8edee0"/>
    <g id="Enmascarar_grupo_1059014" data-name="Enmascarar grupo 1059014" clip-path="url(#clip-path)">
      <g id="Grupo_1064043" data-name="Grupo 1064043" transform="translate(225.692 191.067)">
        <path id="Trazado_796863" data-name="Trazado 796863" d="M305.468,62.991a73.247,73.247,0,0,1,62.53,75.4c-.75,18.711-8.566,36.283-14.594,54.013S343.1,229.72,349.4,247.355c7.772,21.755,29.345,34.934,49.423,46.361S440.485,318.272,448.332,340c8.226,22.779-3.506,50.894-25.484,61.068-1.01-.239-1.423-.833-2.461-.833H1.817L0,52.97c70.236,0,235.268,12.266,305.468,10.021" transform="matrix(0.998, -0.07, 0.07, 0.998, -257.902, -201.073)" fill="#c9f1f2"/>
        <path id="Trazado_796864" data-name="Trazado 796864" d="M305.468,10.021A73.247,73.247,0,0,1,368,85.422c-.75,18.711-8.566,36.283-14.594,54.013S343.1,176.75,349.4,194.385c7.772,21.755,29.345,34.934,49.423,46.361s41.667,24.556,49.514,46.284c8.226,22.779-3.506,50.894-25.484,61.068-1.01-.239-1.423-.833-2.461-.833H1.817L0,0C70.236,0,235.268,12.266,305.468,10.021" transform="matrix(0.799, -0.602, 0.602, 0.799, -572.283, 107.015)" fill="#dcfdfe"/>
        <path id="Trazado_796865" data-name="Trazado 796865" d="M1002.839,0c-14.752,10.172-17.891,31.876-11.1,48.459s21.235,28.788,36.3,38.484,31.372,17.658,45,29.288,24.642,28.042,24.37,45.959c-.377,24.834-21.9,46.477-19.33,71.18,1.767,16.968,15.142,31.054,30.74,37.962s33.159,7.775,50.214,7.392c0-.226-.041-.757-.041-.983V1.8c-50.623,0-105.534-1.8-156.158-1.8" transform="translate(215.27 -205.164)" fill="#c9f1f2"/>
        <g id="Grupo_1064042" data-name="Grupo 1064042" transform="matrix(-0.966, -0.259, 0.259, -0.966, 296.498, 66.024)">
          <g id="Grupo_1064041" data-name="Grupo 1064041" clip-path="url(#clip-path-2)">
            <path id="Trazado_796866" data-name="Trazado 796866" d="M5.524,210.358c5.189-11.917,16.139-22.045,28.869-22.408,16.782-.477,30.876,15.332,47.66,14.957,12.4-.279,23.043-9.532,29.848-20.156s10.834-22.851,16.992-33.88c18.227-32.649,56.229-52.477,92.716-48.378,20.546,2.31,40.762,11.48,61.165,8.093,19.336-3.209,35.28-17.252,47.947-32.564s23.3-32.546,37.935-45.889C395.726,5.455,435.875-3.111,470.306,8.448c13.277,4.456,25.575,11.613,38.869,16.017s28.491,5.782,40.726-1.131c7.653-4.325,13.512-11.533,21.325-15.547C586.979-.3,605.67,6.406,622.756,10.823S661.635,15.365,670.888,0l3.8,100.747s-5.036-5-29.816,0S587.3,67.3,568.8,60.983s-24.675,16.856-52.432,39.764-56.547-30.282-84.3-39.764-47.293,25.285-79.672,73.747S264.1,164.313,264.1,164.313c-28.531,5.826-52.042,31.723-55.655,61.3-2.071,16.958.17,37.906-13.771,47.284-9.2,6.19-21.232,3.888-32.239,3.825-47.593-.271-85.053,44.463-132.124,51.69-5.992.92-12.615,1.061-17.536-2.561-5.738-4.225-7.351-12.125-8.355-19.292a459.011,459.011,0,0,1-4.4-57.786c-.166-13.049.308-26.5,5.5-38.42" transform="translate(0 0)" fill="#ff8182"/>
          </g>
        </g>
        <path id="Trazado_796869" data-name="Trazado 796869" d="M15.579,281.266a5.6,5.6,0,0,0,6.367-2.929,5.715,5.715,0,0,0,.384-4.264,4.747,4.747,0,0,1,.119-3.126l0,0,9.821,3.875L36.137,265a4.729,4.729,0,0,0-3.126-.118,5.734,5.734,0,0,1-4.262-.385,5.493,5.493,0,0,1,4.538-10,5.7,5.7,0,0,1,2.871,2.479A4.668,4.668,0,0,0,38.507,259l3.873-9.816L16.742,239.066l-3.873,9.815a4.664,4.664,0,0,1-2.348-2.02,5.7,5.7,0,0,0-2.873-2.481A5.557,5.557,0,0,0,.18,248.018a5.6,5.6,0,0,0,2.929,6.368,5.725,5.725,0,0,0,4.265.384,4.746,4.746,0,0,1,3.125.118L6.627,264.7l9.823,3.875h-.007a4.674,4.674,0,0,1-2.019,2.349,5.7,5.7,0,0,0-2.482,2.872,5.557,5.557,0,0,0,3.637,7.468" transform="translate(388.944 122.671) rotate(150)" fill="#ff8182"/>
        <path id="Trazado_796870" data-name="Trazado 796870" d="M136.483,1.419a6.807,6.807,0,0,0-1.769,8.338,6.958,6.958,0,0,0,3.88,3.472,5.779,5.779,0,0,1,2.963,2.387l.006,0-10.914,6.763,6.758,10.906a5.756,5.756,0,0,0,2.387-2.963,6.966,6.966,0,0,1,3.472-3.877,6.68,6.68,0,0,1,6.459,11.691,6.926,6.926,0,0,1-4.5,1,5.676,5.676,0,0,0-3.679.822L148.3,50.864l28.491-17.654L170.034,22.3a5.679,5.679,0,0,1,3.675-.823,6.93,6.93,0,0,0,4.507-1,6.757,6.757,0,0,0,1.878-9.926,6.806,6.806,0,0,0-8.338-1.769,6.955,6.955,0,0,0-3.471,3.88,5.778,5.778,0,0,1-2.386,2.962L159.14,4.721l-10.915,6.763.006-.006a5.68,5.68,0,0,1-.823-3.676,6.93,6.93,0,0,0-1-4.506,6.758,6.758,0,0,0-9.926-1.878" transform="translate(-198.644 -27.63)" fill="#006a76"/>
        <path id="Trazado_796871" data-name="Trazado 796871" d="M140.737,2.453a11.77,11.77,0,0,0-3.058,14.416,12.031,12.031,0,0,0,6.708,6A9.993,9.993,0,0,1,149.51,27l.011,0L130.649,38.688l11.685,18.856a9.953,9.953,0,0,0,4.127-5.123,12.044,12.044,0,0,1,6-6.7,11.55,11.55,0,0,1,11.168,20.215,11.976,11.976,0,0,1-7.787,1.729,9.814,9.814,0,0,0-6.36,1.421l11.687,18.862L210.433,57.42l-11.687-18.86a9.82,9.82,0,0,1,6.355-1.423,11.983,11.983,0,0,0,7.792-1.725A11.684,11.684,0,0,0,216.14,18.25a11.768,11.768,0,0,0-14.416-3.058,12.026,12.026,0,0,0-6,6.708,9.991,9.991,0,0,1-4.125,5.121L179.911,8.163,161.039,19.857l.01-.01a9.821,9.821,0,0,1-1.423-6.356A11.982,11.982,0,0,0,157.9,5.7a11.685,11.685,0,0,0-17.162-3.248" transform="matrix(-0.259, -0.966, 0.966, -0.259, 1260.166, 206.277)" fill="#006a76"/>
      </g>
    </g>
  </g>
</svg>
