<svg xmlns="http://www.w3.org/2000/svg" width="59.853" height="59.706" viewBox="0 0 59.853 59.706">
  <g id="Grupo_1064045" data-name="Grupo 1064045" transform="translate(-180 -2657.147)">
    <path id="Rectángulo_373490" data-name="Rectángulo 373490" d="M5,0H30a0,0,0,0,1,0,0V50a0,0,0,0,1,0,0H5a5,5,0,0,1-5-5V5A5,5,0,0,1,5,0Z" transform="translate(180 2662)" fill="#ff8182"/>
    <path id="Trazado_796877" data-name="Trazado 796877" d="M15.579,281.266a5.6,5.6,0,0,0,6.367-2.929,5.715,5.715,0,0,0,.384-4.264,4.747,4.747,0,0,1,.119-3.126l0,0,9.821,3.875L36.137,265a4.729,4.729,0,0,0-3.126-.118,5.734,5.734,0,0,1-4.262-.385,5.493,5.493,0,0,1,4.538-10,5.7,5.7,0,0,1,2.871,2.479A4.668,4.668,0,0,0,38.507,259l3.873-9.816L16.742,239.066l-3.873,9.815a4.664,4.664,0,0,1-2.348-2.02,5.7,5.7,0,0,0-2.873-2.481A5.557,5.557,0,0,0,.18,248.018a5.6,5.6,0,0,0,2.929,6.368,5.725,5.725,0,0,0,4.265.384,4.746,4.746,0,0,1,3.125.118L6.627,264.7l9.823,3.875h-.007a4.674,4.674,0,0,1-2.019,2.349,5.7,5.7,0,0,0-2.482,2.872,5.557,5.557,0,0,0,3.637,7.468" transform="translate(393.521 2872.747) rotate(140)" fill="#8edee0"/>
  </g>
</svg>
