<svg id="Grupo_1064978" data-name="Grupo 1064978" xmlns="http://www.w3.org/2000/svg" xmlns:xlink="http://www.w3.org/1999/xlink" width="162.741" height="303.063" viewBox="0 0 162.741 303.063">
  <defs>
    <clipPath id="clip-path">
      <rect id="Rectángulo_373997" data-name="Rectángulo 373997" width="162.741" height="303.063" fill="none"/>
    </clipPath>
  </defs>
  <g id="Grupo_1064977" data-name="Grupo 1064977" clip-path="url(#clip-path)">
    <path id="Trazado_799259" data-name="Trazado 799259" d="M154,181.986c0,3.033-32.98,5.493-73.664,5.493s-73.663-2.459-73.663-5.493,32.98-5.493,73.663-5.493S154,178.952,154,181.986" transform="translate(4.372 115.585)" fill="#ff8182" opacity="0.17"/>
    <path id="Trazado_799260" data-name="Trazado 799260" d="M1.561,58.186a72.422,72.422,0,0,0,17.805,64.033c3.9,4.122,8.382,7.914,10.775,13.057,3.285,7.061,2.006,15.435-.688,22.742s-6.716,14.1-8.981,21.552A49.617,49.617,0,0,0,33.53,228.917a49.617,49.617,0,0,0,49.981,10.361c12.079-4.4,21.856-13.35,31.291-22.083,11.7-10.835,23.557-21.851,31.9-35.445,14.545-23.7,16.973-52.874,15.773-80.661-.981-22.773-4.447-46.306-16.882-65.41A78.7,78.7,0,0,0,103.534,3.806C61.086-9.477,11.46,12.8,1.561,58.186" transform="translate(0 0)" fill="#8edee0"/>
    <path id="Trazado_799261" data-name="Trazado 799261" d="M48.058,182.542a5.284,5.284,0,0,1-.318-1.039l-1.347-7.209L50.122,162.3l-9.675-2.519-1.714,12.4-1.814,1.638,6.406,10.012a7.341,7.341,0,0,1,4.733-1.286" transform="translate(24.178 104.64)" fill="#f2c9ad"/>
    <path id="Trazado_799262" data-name="Trazado 799262" d="M54.913,183.846a5.241,5.241,0,0,0-3.143-4.03,5.239,5.239,0,0,1-2.8-2.828,7.328,7.328,0,0,0-4.733,1.286l-6.408-10.012-2.317,2.09,5.006,9.876a8.469,8.469,0,0,0,7.551,4.639h7Z" transform="translate(23.261 110.195)" fill="#e36b85"/>
    <path id="Trazado_799263" data-name="Trazado 799263" d="M49.02,162.3l-9.676-2.52-.743,5.383a23.031,23.031,0,0,0,8.617,2.931Z" transform="translate(25.28 104.64)" fill="#422c4f"/>
    <path id="Trazado_799264" data-name="Trazado 799264" d="M42.834,75.959,40.681,79.8a55.641,55.641,0,0,0-5.594,40.058l10.619,44.7-7.894,49.414.27.238a24.787,24.787,0,0,0,20.777,5.81L63.4,167.983v0l1.511,55.663H88.8l-8.687-59.9,10.643-41.616a55.641,55.641,0,0,0-2.5-35.074l-4.6-11.1Z" transform="translate(21.992 49.745)" fill="#12263f"/>
    <path id="Trazado_799265" data-name="Trazado 799265" d="M57.939,95.476,41.913,90.637l16.026,9.676Z" transform="translate(27.449 59.358)" fill="#727997"/>
    <path id="Trazado_799266" data-name="Trazado 799266" d="M69.135,89.45,51.6,96.253l.078,5.253Z" transform="translate(33.79 58.58)" fill="#727997"/>
    <path id="Trazado_799267" data-name="Trazado 799267" d="M57.35,182.959h8.806L65.065,178.1l.907-12.9H56.3l.455,9.463a7.088,7.088,0,0,1-1.865,5.129,6.345,6.345,0,0,1,2.464,3.166" transform="translate(35.945 108.191)" fill="#f2c9ad"/>
    <path id="Trazado_799268" data-name="Trazado 799268" d="M61.658,177.185a6.345,6.345,0,0,0-2.464-3.166c-.07.074-.132.154-.205.227l-.439.439a7.081,7.081,0,0,1-3.254,1.855l-1.86.478a7.09,7.09,0,0,0-5.129,5.188H71.591l-1.127-5.021Z" transform="translate(31.637 113.965)" fill="#e36b85"/>
    <path id="Trazado_799269" data-name="Trazado 799269" d="M55.738,165.2h9.676l-.187,2.646H55.866Z" transform="translate(36.503 108.19)" fill="#422c4f"/>
    <path id="Trazado_799270" data-name="Trazado 799270" d="M77.056,210.655H53.168a.15.15,0,0,1-.151-.147l-1.511-55.662V96.179a.151.151,0,0,1,.3,0V154.84l1.508,55.512H77.056a.151.151,0,0,1,0,.3" transform="translate(33.731 62.889)" fill="#727997"/>
    <path id="Trazado_799271" data-name="Trazado 799271" d="M52.1,137.377a.152.152,0,0,1-.074-.02,19.006,19.006,0,0,1-8.5-10.389.151.151,0,1,1,.286-.1,18.7,18.7,0,0,0,8.361,10.222.152.152,0,0,1,.056.207.148.148,0,0,1-.131.076" transform="translate(28.498 83.021)" fill="#727997"/>
    <path id="Trazado_799272" data-name="Trazado 799272" d="M55.685,133.153a.151.151,0,0,1-.127-.07.154.154,0,0,1,.046-.21,9.874,9.874,0,0,0,4.106-5.364.157.157,0,0,1,.19-.1.151.151,0,0,1,.1.189,10.186,10.186,0,0,1-4.233,5.532.159.159,0,0,1-.081.023" transform="translate(36.369 83.437)" fill="#727997"/>
    <path id="Trazado_799273" data-name="Trazado 799273" d="M53.127,102.308a.148.148,0,0,1-.109-.048,13.7,13.7,0,0,1-3.747-9.941l.581-14.661a.151.151,0,1,1,.3.012L49.572,92.33a13.418,13.418,0,0,0,3.4,9.44V77.665a.151.151,0,1,1,.3,0v24.492a.151.151,0,0,1-.094.141.168.168,0,0,1-.056.01" transform="translate(32.261 50.762)" fill="#727997"/>
    <path id="Trazado_799274" data-name="Trazado 799274" d="M77.9,77.825q-.534-20.683-1.066-41.369c-.121-4.726-.278-9.613-2.312-13.881A17.275,17.275,0,0,0,60.917,13c-5.769-.578-12.134,2.635-15.614,7.272a11.351,11.351,0,0,0-8.256,7.477,16.119,16.119,0,0,0,.626,11.392c1.493,3.591,4.614,6.378,7.427,9.064l-4.94,27.182c12.574,0,25.336,4.51,37.742,2.441" transform="translate(23.76 8.468)" fill="#8c404c"/>
    <path id="Trazado_799275" data-name="Trazado 799275" d="M49.04,59.128A10.711,10.711,0,0,0,61.821,57.4c2.249-2.333,3.212-5.478,3.619-8.751L59.8,50.084,57.634,34.361l-7.407,2.923-1.311,13.1-4.9-1.074a10.764,10.764,0,0,0,5.024,9.815" transform="translate(28.811 22.503)" fill="#f2c9ad"/>
    <path id="Trazado_799276" data-name="Trazado 799276" d="M55.639,35.567l-4.5,6.9a5.716,5.716,0,0,1-3.839,2.512l.77-7.7,7.407-2.923Z" transform="translate(30.973 22.503)" fill="#422c4f"/>
    <path id="Trazado_799277" data-name="Trazado 799277" d="M43.1,62.349l-13.125-1.7L26.616,77.734a10.388,10.388,0,0,0,.073,4.354L42.148,68.2Z" transform="translate(17.303 39.717)" fill="#f2c9ad"/>
    <path id="Trazado_799278" data-name="Trazado 799278" d="M28.641,60.646l13.125,1.7-.948,5.85L28.451,61.615Z" transform="translate(18.633 39.717)" fill="#422c4f"/>
    <path id="Trazado_799279" data-name="Trazado 799279" d="M46.462,42.318h0A11,11,0,0,0,33.6,49.825L26.656,72.4l19.806,2.572Z" transform="translate(17.457 27.547)" fill="#ff8182"/>
    <path id="Trazado_799280" data-name="Trazado 799280" d="M32.572,68.04l8.122-17.371h1.893V69.339Z" transform="translate(21.331 33.183)" fill="#ce4e70"/>
    <path id="Trazado_799281" data-name="Trazado 799281" d="M44.858,21.083h0a17.765,17.765,0,0,0-5.443,12.8v6.509a15.762,15.762,0,0,0,1.011,5.554,9.082,9.082,0,0,0,14.583,3.543l6.681-6.027a6.048,6.048,0,0,1-2.218-4.68V35.7C48.487,34.186,44.858,21.083,44.858,21.083" transform="translate(25.813 13.807)" fill="#f2c9ad"/>
    <path id="Trazado_799282" data-name="Trazado 799282" d="M52.253,37.406a9.313,9.313,0,0,1,.88-4.968,4.918,4.918,0,0,1,3.783-2.716,3.508,3.508,0,0,1,3.684,2.5,3.852,3.852,0,0,1-.839,3.121,8.848,8.848,0,0,1-2.58,2.085,6.714,6.714,0,0,1-2.373.97,3.3,3.3,0,0,1-2.555-1" transform="translate(34.192 19.458)" fill="#f2c9ad"/>
    <path id="Trazado_799283" data-name="Trazado 799283" d="M54.053,36.734a2.192,2.192,0,0,1-1.105-.392,8.082,8.082,0,0,1,.781-3.823,3.718,3.718,0,0,1,2.81-2.07c.058,0,.117-.007.175-.007a2.294,2.294,0,0,1,2.227,1.569,2.653,2.653,0,0,1-.614,2.117,7.8,7.8,0,0,1-2.239,1.786,5.656,5.656,0,0,1-1.935.814Z" transform="translate(34.671 19.936)" fill="#eba58e"/>
    <path id="Trazado_799284" data-name="Trazado 799284" d="M78.267,41.974l-6.658,1.691c-.407,3.273-1.37,6.419-3.619,8.753a10.368,10.368,0,0,1-17.805-8.089l-8.908-1.951L38.655,61.73l-3.366,8.546A10.255,10.255,0,0,0,39.554,82.83a3.629,3.629,0,0,1,1.754,2.858l.875,12.528H79.376Z" transform="translate(22.642 27.489)" fill="#ff8182"/>
    <path id="Trazado_799285" data-name="Trazado 799285" d="M35.066,67.234a.143.143,0,0,1-.056-.012.152.152,0,0,1-.084-.2l3.368-8.546,1.552-11.5a.16.16,0,0,1,.17-.131.151.151,0,0,1,.129.17L38.582,58.556l-3.376,8.582a.152.152,0,0,1-.141.1" transform="translate(22.866 30.681)" fill="#422c4f"/>
    <path id="Trazado_799286" data-name="Trazado 799286" d="M56.725,57.235l-8.683,7.8-2.132,1.915-3.869,3.479L26.583,84.322A10.429,10.429,0,0,0,45.436,87.75L61.089,64.187Z" transform="translate(17.409 37.483)" fill="#f2c9ad"/>
    <path id="Trazado_799287" data-name="Trazado 799287" d="M45.086,57.235l4.364,6.952-2.183,3.285-2.911-9.582Z" transform="translate(29.049 37.483)" fill="#eba58e"/>
    <path id="Trazado_799288" data-name="Trazado 799288" d="M29.555,78.851a.151.151,0,0,1-.1-.263l21.52-19.339a.148.148,0,0,1,.212.012.15.15,0,0,1-.012.213L29.656,78.813a.153.153,0,0,1-.1.038" transform="translate(19.256 38.776)" fill="#422c4f"/>
    <path id="Trazado_799289" data-name="Trazado 799289" d="M60.976,42.127h0l.664,33.659,17.832-2.716L76.342,52.328a12.441,12.441,0,0,0-15.366-10.2" transform="translate(39.933 27.335)" fill="#ff8182"/>
    <path id="Trazado_799290" data-name="Trazado 799290" d="M44.967,52.342a4.837,4.837,0,0,0-1.253,6.447l5.508,8.9,17.7,27.056a12.12,12.12,0,0,0,22.214-7.732L87.468,68.717,73.419,70.856l.167,8.473L57.234,66.023l1.706-7.037a18.371,18.371,0,0,0,.518-4.333,1.935,1.935,0,0,0-3.508-1.125l-.576.8-1.885-3.255A3.63,3.63,0,0,0,48.2,49.969Z" transform="translate(28.153 32.265)" fill="#f2c9ad"/>
    <path id="Trazado_799291" data-name="Trazado 799291" d="M61.377,63.159l14.048-2.14.1,1.071-14.05,5.863Z" transform="translate(40.196 39.962)" fill="#422c4f"/>
    <path id="Trazado_799292" data-name="Trazado 799292" d="M61.6,71.057a.163.163,0,0,1-.1-.035.152.152,0,0,1-.053-.114l-.425-21.562a.151.151,0,0,1,.147-.154h0a.151.151,0,0,1,.151.149l.422,21.39,17.661-2.689a.15.15,0,0,1,.174.126.152.152,0,0,1-.127.172L61.628,71.055l-.023,0" transform="translate(39.968 32.216)" fill="#422c4f"/>
    <path id="Trazado_799293" data-name="Trazado 799293" d="M61.391,61.128a.152.152,0,0,1-.025-.3l14.221-2.315a.151.151,0,0,1,.05.3L61.416,61.126l-.025,0" transform="translate(40.106 38.318)" fill="#422c4f"/>
    <path id="Trazado_799294" data-name="Trazado 799294" d="M73.782,79.363a.161.161,0,0,1-.1-.033l-22.126-18a.148.148,0,0,1-.05-.152l1.077-4.443a.153.153,0,0,1,.182-.111.15.15,0,0,1,.111.182l-1.054,4.351L73.878,79.1a.151.151,0,0,1-.1.268" transform="translate(33.731 37.079)" fill="#422c4f"/>
    <path id="Trazado_799295" data-name="Trazado 799295" d="M65.443,89.179a.153.153,0,0,1-.127-.07L45.265,58.229a.151.151,0,1,1,.253-.165L65.57,88.945a.152.152,0,0,1-.045.209.155.155,0,0,1-.083.025" transform="translate(29.628 37.981)" fill="#422c4f"/>
    <path id="Trazado_799296" data-name="Trazado 799296" d="M44.244,52.554a.154.154,0,0,1-.122-.061.151.151,0,0,1,.033-.212l3.237-2.373A3.779,3.779,0,0,1,52.9,51.061l.3.51a.152.152,0,0,1-.056.207.153.153,0,0,1-.207-.055l-.295-.51a3.477,3.477,0,0,0-5.066-1.062l-3.237,2.373a.149.149,0,0,1-.089.03" transform="translate(28.876 32.205)" fill="#422c4f"/>
    <path id="Trazado_799297" data-name="Trazado 799297" d="M19.338,57.163l-.844-.866,4.127-4.025-4.847-3.6,8.576-4.39-4.73-4.524,9.44-3.376L25.625,29.93l8.134-4.177.553,1.076-6.783,3.484,5.579,6.623-9.234,3.3,4.543,4.346-8.357,4.278,4.425,3.285Z" transform="translate(11.64 16.865)" fill="#e7faf9"/>
    <path id="Trazado_799298" data-name="Trazado 799298" d="M87.723,57.833l-1.147-.382L88.125,52.8H81.9l2.79-7.6-7.212,1.615,4.592-10.065-9.812,1.226-.149-1.2,11.96-1.5-4.48,9.823,7-1.569-2.956,8.053H89.8Z" transform="translate(47.223 23.109)" fill="#e7faf9"/>
    <path id="Trazado_799299" data-name="Trazado 799299" d="M22.538,99.795l1.4-6.674-6.7,1.825,1.945-7.768-6.893,1.13,4.619-11.872,1.125.439-3.848,9.9L20.8,85.685l-1.887,7.551,6.608-1.8-1.428,6.831,4.654-.887.227,1.188Z" transform="translate(8.047 50.058)" fill="#e7faf9"/>
    <path id="Trazado_799300" data-name="Trazado 799300" d="M79.912,95.685l-.645-1.023L84.3,91.483l-4.212-3.417,6.171-2.032-5.41-4.207,7.295-2.659-5.916-4.915.771-.93,7.538,6.259-7.219,2.633,5.476,4.26-6.226,2.049,3.8,3.083Z" transform="translate(51.911 48.019)" fill="#e7faf9"/>
    <path id="Trazado_799301" data-name="Trazado 799301" d="M38.226,141.1,31,139.972l3.654-5.787-5.466-1.148,3.311-4.955-6.151-1.105,7.578-7.321.841.869-5.878,5.68,5.642,1.013-3.341,5,5.418,1.139-3.6,5.7,5.408.841Z" transform="translate(17.253 78.362)" fill="#e7faf9"/>
    <path id="Trazado_799302" data-name="Trazado 799302" d="M77.251,136.121l-.9-.811,5.148-5.691-5.681-2.13L80.9,122.31l-6.843-1.94,7.432-6.505-6.479-3.417.564-1.071,8.035,4.242-7.08,6.2,6.661,1.888-5.2,5.306,5.607,2.1Z" transform="translate(48.499 71.631)" fill="#e7faf9"/>
  </g>
</svg>
