<svg id="Grupo_1065088" data-name="Grupo 1065088" xmlns="http://www.w3.org/2000/svg" xmlns:xlink="http://www.w3.org/1999/xlink" width="347.53" height="317.957" viewBox="0 0 347.53 317.957">
  <defs>
    <clipPath id="clip-path">
      <rect id="Rectángulo_374063" data-name="Rectángulo 374063" width="347.53" height="317.956" fill="none"/>
    </clipPath>
  </defs>
  <g id="Grupo_1065087" data-name="Grupo 1065087" clip-path="url(#clip-path)">
    <path id="Trazado_799620" data-name="Trazado 799620" d="M938.437,1523.55c0,5.938-33.745,10.752-75.372,10.752s-75.372-4.814-75.372-10.752,33.745-10.752,75.372-10.752,75.372,4.814,75.372,10.752" transform="translate(-635.904 -1221.28)" fill="#5e9dd4"/>
    <path id="Trazado_799621" data-name="Trazado 799621" d="M635.384,1586.027c0,3.767-19.687,6.821-43.972,6.821s-43.972-3.054-43.972-6.821,19.687-6.821,43.972-6.821,43.972,3.054,43.972,6.821" transform="translate(-441.948 -1274.892)" fill="#5e9dd4"/>
    <path id="Trazado_799622" data-name="Trazado 799622" d="M352.378,486.566c9.743-5.2,17.814-9.995,34.905-21.814,19.32-13.361,65.159,6.671,88.889-51.74a73.684,73.684,0,0,0,4.867-19.079C492.527,292.625,371.4,231.079,276.3,278.17c-24.988,12.373-87.789,57.157-67.414,140.7,14.06,57.65,78.125,102.617,143.492,67.7" transform="translate(-165.403 -211.573)" fill="#8edee0"/>
    <path id="Trazado_799623" data-name="Trazado 799623" d="M172.086,86.043A86.043,86.043,0,1,1,86.043,0a86.043,86.043,0,0,1,86.043,86.043" fill="#006a76"/>
    <path id="Trazado_799624" data-name="Trazado 799624" d="M156.384,256.381c1.3-3.049-.7-6.239-1.236-7.087-2.1-3.356-7.752-6.121-3.975-4.756.6.216,1.949,1.479,3.777,1.364a4.148,4.148,0,0,0,2.856-1.341c1.429-1.819.143-4.81-.279-5.793-1.926-4.482-7.468-9.19-29.667-21.625-12.426-6.961-22.255-12.667-29.7-20.214-4.025-4.08-6.038-6.155-5.467-7.193.659-1.2,4.39-.333,7.892.479,7.733,1.792,9.535,2.051,14.758,2.483,2.344.194,6.084.452,9.641-1.736,2.931-1.8,6.209-5.56,5.28-8.055-.659-1.771-3.043-1.848-11.482-3.672,0,0-4.373-.945-11.785-2.833-6.616-1.685-7.461-2.3-14.571-4.314-3.4-.963-8.97-2.527-16.133-3.929-9.211-1.8-24.524.475-28.665.558-7.048.143-15.039-1.52-21.311-3.206A86.62,86.62,0,0,0,8.594,203.832l.244.041a33.641,33.641,0,0,1,8.593,2.433,54.271,54.271,0,0,1,13.105,8.421c.986.885,22.06,21.178,38.708,32.419a239.662,239.662,0,0,0,26.188,15.336c10.57,5.232,13.961,4.867,15.357,3.921a3.384,3.384,0,0,0,1.26-2.283c.263-1.848-.847-3.656-2.891-5.713a32.177,32.177,0,0,0-8.717-5.95c-2.168-1.146-6.2-3.682-13.977-8.59,4.4,1.616,18.175,10.79,24.178,13.072,10.744,4.087,16.116,6.13,17.742,7.357.845.637,3.148,2.465,5.875,2.121a4.658,4.658,0,0,0,2.856-1.34c2.09-2.315.3-6.742.176-7.052-2.3-5.513-9.426-7.829-13.744-9.233-3.873-1.259-14.054-7.411-13.778-7.822.359-.535,4.111,1.986,9.768,4.476,20.99,9.24,22.09,8.452,28.769,12.288.642.368,2.1,2.081,4.045,1.935a5.274,5.274,0,0,0,4.034-3.287" transform="translate(-6.938 -133.617)" fill="#f79556"/>
    <path id="Trazado_799625" data-name="Trazado 799625" d="M955.094,715.125c1.153,2.739,3.772,3.928,5.1,4.506,1.768.772,4.477,1.953,5.81.818,1.64-1.4.888-6.033-1.826-8.281-3.107-2.573-8.54-1.815-9.481.278a3.438,3.438,0,0,0,.4,2.679" transform="translate(-770.601 -573.615)" fill="#f79556"/>
    <path id="Trazado_799626" data-name="Trazado 799626" d="M846.814,691.316c1.849-4.087,2.915-3.887,6.208-9.932a13.351,13.351,0,0,1,2.483-3.414c1.612-1.577,3.568-1.959,4.681-2.457,5.8-2.6,17.071-7.449,19.244-7.139,3.011.43,5.575,4.566,6.208,8.38.592,3.567-.192,8.092-3.1,10.553a7.356,7.356,0,0,1-1.963,1.164,1.06,1.06,0,0,1-.421.074,28.836,28.836,0,0,1-6.307-1.859c-1.552-.621-3.936-1.179-3.414-2.483,1.242-3.1,4.264.145,5.277-1.242.613-.84-1.552-3.414-2.483-3.725-1.178-.393-1.811,3.491-8.329,6.905-4.679,2.451-6.562,9.164-10.294,12.649-3,2.8-7.674,4.779-9.312,3.414-2.115-1.762.771-9.218,1.526-10.889" transform="translate(-681.786 -539.566)" fill="#ec7d40"/>
    <path id="Trazado_799627" data-name="Trazado 799627" d="M926.583,777.816c-4.393-2.037-8.513-1.323-14.191-.338a48.409,48.409,0,0,0-10.812,3.379,78.367,78.367,0,0,0-11.15,5.744c-18.584,10.813-20.273,12.84-23.652,14.867a5.287,5.287,0,0,0-2.027,3.041c-.077,2.671,9.506,5.526,16.894,6.42,9.357,1.133,10.855-1.4,29.059-4.055,13.725-2,19.4-1.506,22.976-6.42a14.112,14.112,0,0,0,2.365-9.123,16.53,16.53,0,0,0-9.461-13.516" transform="translate(-698.111 -626.876)" fill="#c4daff"/>
    <path id="Trazado_799628" data-name="Trazado 799628" d="M727.294,751.728s-2.872,3.9-6.758,10.475c-1.222,2.068-3.518,4.983-8.109,10.812-7.343,9.323-7.135,8.22-9.8,12.164a52.316,52.316,0,0,0-7.1,16.219c-.825,3.359-.856,5.028,0,6.42,1.8,2.928,6.878,3.558,10.475,2.7,2.961-.7,6.061-2.686,15.205-18.922,8.484-15.064,7.1-13.178,11.15-20.273,2.911-5.094,7.1-10.812,7.1-10.812a32.3,32.3,0,0,1-5.406-2.7,23.387,23.387,0,0,1-6.758-6.082" transform="translate(-560.994 -606.869)" fill="#c4daff"/>
    <path id="Trazado_799629" data-name="Trazado 799629" d="M628.044,908.045c-.9,0-3.424.242-7.8,6.159-7.132,9.646-8.027,19.3-9.6,29.938-2.135,14.418-3.151,30.551-13.348,56.5a40.837,40.837,0,0,1-9.622,13.825c-3.211,4.129-4.739,6.124-5.386,8.068-1.386,4.161-3.318,9.969-.751,12.827,3.392,3.777,13.839,1.5,19.689-3.869a29.129,29.129,0,0,0,4.014-3.993,9.535,9.535,0,0,0,1.248-.924c2.556-2.255,2.778-5.151,3.609-8.647,1.526-6.419,3.684-7,11.393-21.572,2.675-5.056,5.977-10.125,11.074-21.217,7.3-15.9,11.414-24.841,10.956-36.437-.577-14.613-8.3-30.642-15.472-30.659" transform="translate(-468.456 -733.064)" fill="#ec7d40"/>
    <path id="Trazado_799630" data-name="Trazado 799630" d="M685.061,1001.941c-1.078-.274-12.945-3-19.285-7.45l-.282-.265.149-.357c4.112-14.031,14.565-62.976,15.258-66.215,1.3-6.051,4.515-12.647,7.691-17.8,2.765-4.485,6.305-6.787,8.638-6.787,7.982.019,15.085,17.57,15.639,31.6.463,11.729-3.611,20.6-11.007,36.691-3.683,8.016-6.455,12.936-8.681,16.889-.855,1.518-1.662,2.951-2.406,4.356-1.745,3.3-3.413,6.27-5.1,9.087l-.213.356Z" transform="translate(-537.253 -729.044)" fill="#08213f"/>
    <path id="Trazado_799631" data-name="Trazado 799631" d="M1113.771,825.521c4.61,2.876,5.33,10.732,6.582,26.326.71,8.848.566,14.524,0,31.921-.809,24.844-1.347,37.422-7.9,45.084-2.376,2.779-4.271,5-7.569,5.923-16.533,4.654-38.006-31.618-40.477-35.87-7.659-13.178-19.021-32.728-11.189-46.4,1.286-2.245,3.1-4.354,23.036-14.151,31.077-15.273,35.142-14.314,37.515-12.834" transform="translate(-848.133 -665.815)" fill="#fff"/>
    <path id="Trazado_799632" data-name="Trazado 799632" d="M856.768,961.13s-2.56-.161,12.5,3.379c5.552,1.3,10.6,2.579,16.219,6.082,1.829,1.141,3.379,2.365,3.379,2.365s2.365,15.2-3.717,29.734c-2.7,6.445-4.827,13.808-13.613,18.584-6.357,3.456-11.657,6.4-21.625,5.89a26.42,26.42,0,0,1-19.6-9.944c-9.38-11.631-24.5-67.179-32.832-105.02-.678-3.079-1.9-9.011,1.352-13.178,2.563-3.286,6.784-4.037,8.785-4.393a20.1,20.1,0,0,1,13.854,2.7c9.968,7.265,15.894,24.63,20.09,33.049,8.574,17.2,15.205,30.748,15.205,30.748" transform="translate(-643.163 -722)" fill="#08213f"/>
    <path id="Trazado_799633" data-name="Trazado 799633" d="M977.059,959.458c5.708,10.827,11.772,23.237,29.927,16.9,2.035-.711,2.173.958,2.173.958s2.566,12.216-3.516,26.745c-2.7,6.445-7.1,13.808-15.881,18.584-6.357,3.456-9.77,3.679-19.357,4.055-8.837.347-12.95-1.044-15.881-2.7a25.249,25.249,0,0,1-5.744-4.731c-9.893-11.2-15.277-43.07-24.569-70.957-.025-.075-.114-.341-8.447-38.182-.678-3.078-1.9-9.01,1.352-13.178,2.563-3.286,6.785-4.037,8.785-4.393a20.426,20.426,0,0,1,13.854,2.7c9.63,6.251,18.1,25.032,22.3,33.451,8.574,17.2,11.005,23.162,15,30.748" transform="translate(-738.651 -720.328)" fill="#1b3e70"/>
    <path id="Trazado_799634" data-name="Trazado 799634" d="M730.38,913.02c-.9-.049-3.432.063-8.109,5.744-7.625,9.262-8.46,18.98-11.15,29.4-9.82,38.021-16.981,56.043-21.993,63.417a17.656,17.656,0,0,1-5,5.127,63.393,63.393,0,0,0-5.864,4.222c-.751.605,7.964,9.844,16.365,11.953,7.714,1.936,15.163-3.18,14.777-4.017a13.352,13.352,0,0,1-1.582-5.043,8.012,8.012,0,0,1,.439-2.8c1.886-5.643,2.29-7.966,10.97-20.146,3.32-4.659,6.5-9.8,12.164-20.611,8.123-15.5,12.693-24.212,12.84-35.816.185-14.623-6.688-31.033-13.854-31.424" transform="translate(-547.523 -737.075)" fill="#f79556"/>
    <path id="Trazado_799635" data-name="Trazado 799635" d="M962.441,1038.726c2.06-4.126,4.142-8.2,6.114-12.316.968-2.065,1.928-4.126,2.8-6.212.439-1.043.866-2.087,1.252-3.141s.754-2.109,1.067-3.171a22.18,22.18,0,0,0,.731-3.182l.062-.4.052-.423.1-.842c.064-.56.114-1.117.163-1.675.107-1.116.136-2.232.168-3.35,0-1.116-.01-2.236-.089-3.351a37.839,37.839,0,0,0-3.3-13.088,26.536,26.536,0,0,1,3.358,6.09c.108.272.217.544.316.82l.271.835.27.838.227.85c.074.284.156.567.221.854l.173.864c.055.289.121.576.166.867l.133.872a35.321,35.321,0,0,1,.325,7.043c-.023.587-.069,1.173-.119,1.754l-.08.869-.043.432-.059.456a23.8,23.8,0,0,1-.776,3.526,48.414,48.414,0,0,1-2.542,6.553q-1.474,3.163-3.221,6.16a90.58,90.58,0,0,1-7.742,11.462" transform="translate(-776.978 -797.271)" fill="#08213f"/>
    <path id="Trazado_799636" data-name="Trazado 799636" d="M765.732,1005.391c-6.662-.09-15.38-2.688-22.384-7.164a.557.557,0,0,1-.171-.679h0c1.595-5.027,9.314-26.575,14.45-42.568,3.757-11.7,8.308-28.5,9.362-31.414,5.876-16.275,13.586-22.022,15.86-22.022.09,0,13.351,2.324,14.622,33.6.477,11.729-4.679,20.379-12.9,36.068-4.1,7.814-16.367,31.045-18.371,33.937l-.169.244Z" transform="translate(-599.925 -727.816)" fill="#1b3e70"/>
    <path id="Trazado_799637" data-name="Trazado 799637" d="M488.773,1467.185c-.642.047-1.295.084-1.94.109-3.476.137-6.36.78-12.075-.105-5.262-.815-12.111-2.5-14.036-4.3-1.872-1.751.789-7.29.824-7.342a11.681,11.681,0,0,1,1.529-1.772,6.4,6.4,0,0,1,3.274-1.46,20.1,20.1,0,0,0,3.434-1.09c3.179-1.337,18.458-15.767,23.829-19.021a.433.433,0,0,1,.173-.085.52.52,0,0,1,.19-.008,21.605,21.605,0,0,1,4.079,1.361c7.167,2.748,9.834,5.824,10.469,6.434a5.442,5.442,0,0,0,2.5,1.72,4.955,4.955,0,0,0,1.841.218,10.646,10.646,0,0,0,1.644-.3,17.833,17.833,0,0,1,2.187-.406l.3-.034.112.283c.309.785.7,1.568,1.073,2.325a12.519,12.519,0,0,0,1.032,1.762,11.065,11.065,0,0,1,.784,1.288c.029.054,2.444,6.129.294,9.928-.689,1.218-1.769,1.663-4.658,2.853-.391.161-.816.337-1.281.53-1.188.5-2.2.928-3.106,1.318a60.585,60.585,0,0,1-10.538,3.684,63.3,63.3,0,0,1-11.939,2.11Z" transform="translate(-371.402 -1156.134)" fill="#1b3e70"/>
    <path id="Trazado_799638" data-name="Trazado 799638" d="M574.194,1477c-.668.049-1.347.087-2.019.114a56.361,56.361,0,0,1-12.579-.748,67.441,67.441,0,0,1-9.3-1.818c-.2-.051-.4-.09-.6-.128a3.371,3.371,0,0,1-1.941-.848c-2.377-2.416.5-8.162,1-8.895a12.172,12.172,0,0,1,1.591-1.844,11.708,11.708,0,0,1,4.02-2.416l.091-.034c1.5-.563,2.42-1.448,6.286-5.172.736-.709,1.577-1.519,2.549-2.449,4.454-4.263,6.69-6.4,8.168-7.665a56.031,56.031,0,0,1,4.992-3.87,23.1,23.1,0,0,0,2.714-2.116c.013-.013.024-.028.038-.04a.423.423,0,0,1,.36-.076,24.871,24.871,0,0,1,4.675,1.616,38.213,38.213,0,0,1,7.518,5.315c1.411,1.187,2.317,2.057,2.978,2.692a5.658,5.658,0,0,0,2.6,1.789,5.158,5.158,0,0,0,1.915.227,11.122,11.122,0,0,0,1.71-.31,18.581,18.581,0,0,1,2.274-.422h0a.414.414,0,0,1,.431.26c.321.817.726,1.631,1.116,2.419a13.052,13.052,0,0,0,1.073,1.833,11.487,11.487,0,0,1,.815,1.34c.03.057,2.542,6.376.306,10.328-.717,1.267-1.841,1.73-4.845,2.969-.407.167-.849.35-1.333.552-1.236.515-2.287.966-3.231,1.371a63.038,63.038,0,0,1-10.962,3.832,65.9,65.9,0,0,1-12.42,2.2Z" transform="translate(-441.458 -1161.691)" fill="#1b3e70"/>
    <path id="Trazado_799639" data-name="Trazado 799639" d="M542.521,1510.828a.3.3,0,0,1,.059-.582,13.189,13.189,0,0,1,1.62.031,14.457,14.457,0,0,1,6.051,1.923,13.032,13.032,0,0,1,1.348.918.3.3,0,0,1-.289.508c-.494-.193-.983-.385-1.473-.567-.955-.361-1.909-.694-2.872-1s-1.935-.584-2.923-.843c-.5-.135-1.008-.259-1.52-.386" transform="translate(-437.797 -1219.211)" fill="#5e9dd4"/>
    <path id="Trazado_799640" data-name="Trazado 799640" d="M561.211,1492.872a.3.3,0,0,1,.059-.582,13.286,13.286,0,0,1,1.62.031,14.409,14.409,0,0,1,3.132.625,14.256,14.256,0,0,1,2.918,1.3,13.017,13.017,0,0,1,1.349.918.3.3,0,0,1-.289.508c-.495-.193-.983-.386-1.473-.567-.955-.361-1.909-.694-2.872-1s-1.935-.584-2.923-.843c-.5-.135-1.008-.259-1.52-.386" transform="translate(-452.885 -1204.715)" fill="#5e9dd4"/>
    <path id="Trazado_799641" data-name="Trazado 799641" d="M582.026,1474.916a.3.3,0,0,1,.059-.582,13.287,13.287,0,0,1,1.62.031,14.41,14.41,0,0,1,3.132.625,14.259,14.259,0,0,1,2.918,1.3,12.984,12.984,0,0,1,1.349.918.3.3,0,0,1-.289.508c-.494-.193-.983-.385-1.473-.567-.955-.361-1.909-.694-2.872-1s-1.935-.584-2.923-.843c-.5-.135-1.008-.259-1.52-.386" transform="translate(-469.689 -1190.219)" fill="#5e9dd4"/>
    <path id="Trazado_799642" data-name="Trazado 799642" d="M601.866,1458.745a.3.3,0,0,1,.059-.582,13.287,13.287,0,0,1,1.62.031,14.4,14.4,0,0,1,3.132.625,14.253,14.253,0,0,1,2.918,1.3,13.015,13.015,0,0,1,1.349.918.3.3,0,0,1-.289.508c-.495-.193-.983-.386-1.473-.567-.955-.361-1.909-.694-2.872-1s-1.936-.584-2.923-.844c-.5-.134-1.008-.259-1.52-.386" transform="translate(-485.706 -1177.164)" fill="#5e9dd4"/>
    <path id="Trazado_799643" data-name="Trazado 799643" d="M624.544,1532.746a.282.282,0,0,1,.055-.556,14.943,14.943,0,0,1,1.937.043,16.438,16.438,0,0,1,6.7,2.128,14.686,14.686,0,0,1,1.615,1.092.282.282,0,0,1-.277.485c-.591-.239-1.174-.475-1.762-.7-1.057-.408-2.116-.781-3.186-1.123s-2.151-.645-3.249-.925c-.6-.157-1.214-.3-1.83-.446" transform="translate(-504.02 -1236.924)" fill="#5e9dd4"/>
    <path id="Trazado_799644" data-name="Trazado 799644" d="M641.729,1512.843a.282.282,0,0,1,.055-.556,14.942,14.942,0,0,1,1.937.043,16.441,16.441,0,0,1,6.7,2.128,14.661,14.661,0,0,1,1.615,1.092.282.282,0,0,1-.277.485c-.591-.239-1.174-.475-1.762-.7-1.057-.408-2.116-.781-3.186-1.123s-2.151-.645-3.249-.925c-.6-.157-1.214-.3-1.83-.446" transform="translate(-517.893 -1220.857)" fill="#5e9dd4"/>
    <path id="Trazado_799645" data-name="Trazado 799645" d="M658.914,1492.94a.282.282,0,0,1,.055-.556,14.876,14.876,0,0,1,1.937.043,16.393,16.393,0,0,1,3.463.7,16.22,16.22,0,0,1,3.233,1.426,14.661,14.661,0,0,1,1.615,1.092.282.282,0,0,1-.277.485c-.591-.239-1.174-.475-1.762-.7-1.057-.408-2.116-.781-3.186-1.123s-2.151-.645-3.249-.925c-.6-.157-1.214-.3-1.83-.446" transform="translate(-531.766 -1204.788)" fill="#5e9dd4"/>
    <path id="Trazado_799646" data-name="Trazado 799646" d="M680.905,1475.016a.282.282,0,0,1,.055-.556,14.922,14.922,0,0,1,1.937.043,16.388,16.388,0,0,1,3.463.7,16.212,16.212,0,0,1,3.233,1.426,14.661,14.661,0,0,1,1.615,1.092.282.282,0,0,1-.277.485c-.591-.239-1.174-.475-1.762-.7-1.057-.408-2.116-.781-3.186-1.123s-2.151-.646-3.249-.926c-.6-.157-1.214-.3-1.83-.446" transform="translate(-549.52 -1190.318)" fill="#5e9dd4"/>
    <path id="Trazado_799647" data-name="Trazado 799647" d="M475.881,1552.113a17.255,17.255,0,0,1,4.016.161,23,23,0,0,1,3.9.932,28.121,28.121,0,0,0,3.744.92c1.276.217,2.575.353,3.914.491a13.093,13.093,0,0,1-4.01.45,14.566,14.566,0,0,1-4.009-.7c-1.266-.413-2.48-.8-3.744-1.168s-2.527-.7-3.817-1.082" transform="translate(-384.178 -1252.976)" fill="#5e9dd4"/>
    <path id="Trazado_799648" data-name="Trazado 799648" d="M572.132,1547.6a35.491,35.491,0,0,1,6.786.645q1.681.307,3.345.7c1.112.256,2.212.59,3.287.872a27.757,27.757,0,0,0,3.237.649c1.1.151,2.207.253,3.315.316s2.217.1,3.321.075c.553,0,1.1-.054,1.65-.1s1.1-.06,1.646-.157a72.684,72.684,0,0,0,13.026-3.064c4.283-1.368,8.514-2.937,12.729-4.607a81.884,81.884,0,0,1-12.3,5.827l-1.6.6-1.622.541q-.809.276-1.633.513l-1.644.485-1.667.414c-.554.145-1.116.259-1.681.367s-1.124.234-1.693.324l-1.713.245c-.569.093-1.154.1-1.731.146s-1.158.083-1.736.08c-1.157.006-2.311-.026-3.458-.132s-2.287-.25-3.424-.445a22.811,22.811,0,0,1-3.376-.843l-3.215-1.066c-1.068-.344-2.149-.657-3.234-.953a51.451,51.451,0,0,0-6.607-1.434" transform="translate(-461.882 -1245.612)" fill="#5e9dd4"/>
    <path id="Trazado_799649" data-name="Trazado 799649" d="M547.089,1474.018a3.833,3.833,0,0,1-.731-2.855,10.857,10.857,0,0,1,.718-2.922,16.2,16.2,0,0,1,1.3-2.709,10.912,10.912,0,0,1,1.989-2.131,11.638,11.638,0,0,1,2.5-1.527q.335-.15.679-.279c.228-.087.464-.163.737-.271a7.122,7.122,0,0,0,1.481-.821,26.221,26.221,0,0,0,2.408-2.064l2.249-2.13c2.946-2.887,5.917-5.693,8.948-8.486l4.542-4.181c.761-.69,1.506-1.407,2.309-2.026a19.123,19.123,0,0,0,2.31-2.076,25.393,25.393,0,0,1-2.532,1.757c-.218.132-.441.271-.659.426l-.63.458-1.239.933q-2.449,1.9-4.822,3.887c-1.593,1.314-3.14,2.681-4.686,4.054-1.538,1.39-3.016,2.829-4.512,4.245l-2.216,2.143a29.827,29.827,0,0,1-2.25,1.992,5.809,5.809,0,0,1-1.192.714c-.2.089-.455.181-.7.285s-.5.214-.74.332a11.444,11.444,0,0,0-2.684,1.808,11.66,11.66,0,0,0-1.118,1.167,8.639,8.639,0,0,0-.953,1.333,16.48,16.48,0,0,0-1.155,2.955,10.811,10.811,0,0,0-.454,3.125,5.283,5.283,0,0,0,.262,1.563,3.236,3.236,0,0,0,.855,1.3" transform="translate(-440.761 -1162.138)" fill="#08213f"/>
    <path id="Trazado_799650" data-name="Trazado 799650" d="M1029.355,462.748a19.772,19.772,0,0,0-7.408,7.7c-2.316,3.7-2.486,7.937-2.667,12.446a12.566,12.566,0,0,0,.3,4.148,19.645,19.645,0,0,1,.889,2.963,7.09,7.09,0,0,1-.593,3.556c-.728,1.96.1,5.284,1.778,11.853,2.113,8.257,3.317,10.434,5.334,12.149a6.989,6.989,0,0,0,1.185.889,5.856,5.856,0,0,0,4.148,0c2.157-.577,2.585-.872,4.445-1.481a3.882,3.882,0,0,1,3.418.3,5.81,5.81,0,0,1,1.818,2.371c1.623,5.02,5.655,14.763,10.905,17.6a11.162,11.162,0,0,0,5.728,1.738c1.266.121,10.76,1.033,15.113-4.741a10.836,10.836,0,0,0,1.778-5.037c.352-3.872-3.4-8.77-4.979-11.045a28.256,28.256,0,0,1-4.149-9.779,21.69,21.69,0,0,1,.593-9.482c1.283-5.3,3.041-6.086,4.445-10.075,3.462-9.836-2.085-19.66-2.37-20.15a23.521,23.521,0,0,0-10.075-9.482,24.357,24.357,0,0,0-16-1.482c-4.064.882-7.846,1.477-13.631,5.037" transform="translate(-822.833 -368.93)" fill="#f79556"/>
    <path id="Trazado_799651" data-name="Trazado 799651" d="M1024.1,474.813a15.752,15.752,0,0,0,4.741,7.7c2.978,2.466,4.024,1.529,7.7,3.852,6.463,4.079,5.791,8.783,8.337,12.149a19.166,19.166,0,0,0,9.443,6.519c2.408.779,6.992,2.261,11.853.3a14.825,14.825,0,0,0,3.852-2.371c4.676-3.915,5.939-9.473,6.816-13.335a32.687,32.687,0,0,0-.3-17.779,30.508,30.508,0,0,0-5.927-10.668,24.34,24.34,0,0,0-9.779-7.408c-4.385-1.7-8.033-1.4-14.223-.889a39.679,39.679,0,0,0-11.557,2.37c-3.086,1.168-6.3,2.429-8.89,5.63a13.527,13.527,0,0,0-2.667,5.038,14.862,14.862,0,0,0,.593,8.89" transform="translate(-825.913 -365.29)" fill="#08213f"/>
    <path id="Trazado_799652" data-name="Trazado 799652" d="M1226.169,668.46c-10.549,5.371-4.879,24.571,9.576,19.235,14.476-5.344,7.362-27.859-9.576-19.235" transform="translate(-985.497 -538.076)" fill="#08213f"/>
    <path id="Trazado_799653" data-name="Trazado 799653" d="M1231.167,669.4a9.456,9.456,0,0,0-1.5,4.118,10.034,10.034,0,0,0,.5,4.331,11.51,11.51,0,0,0,5.581,6.355,9.8,9.8,0,0,0,4.044,1.047,9,9,0,0,0,4.012-.787,11.351,11.351,0,0,0,3.381-2.362c.125-.122.257-.235.376-.363l.349-.394a9.839,9.839,0,0,0,.677-.8l.624-.834.536-.886a11.213,11.213,0,0,0,1.328-3.86,10.2,10.2,0,0,0-.228-4.075,10.918,10.918,0,0,0-4.882-6.571,9.452,9.452,0,0,0-4.03-1.327,9.254,9.254,0,0,0-4.257.657,12.7,12.7,0,0,0-3.677,2.372l-.795.768-.721.838c-.118.142-.243.278-.355.424l-.322.45Zm0,0,.638-.9.319-.452c.111-.147.235-.284.352-.427l.708-.852.78-.787a13.3,13.3,0,0,1,3.626-2.546,9.928,9.928,0,0,1,4.374-.947,10.238,10.238,0,0,1,4.409,1.092,11.682,11.682,0,0,1,5.871,6.911,11.363,11.363,0,0,1,.445,4.684,12.17,12.17,0,0,1-1.473,4.475l-.618,1c-.231.315-.471.622-.708.933a9.845,9.845,0,0,1-.767.875l-.4.425c-.135.139-.286.264-.428.4a12.543,12.543,0,0,1-3.942,2.519,10.044,10.044,0,0,1-4.645.621,10.7,10.7,0,0,1-4.365-1.483,12.423,12.423,0,0,1-3.36-3.037,11.941,11.941,0,0,1-2.039-3.977,10.471,10.471,0,0,1-.337-4.409,9.936,9.936,0,0,1,1.556-4.111" transform="translate(-992.585 -534.817)" fill="#08213f"/>
    <path id="Trazado_799654" data-name="Trazado 799654" d="M1088.292,618.23a6.684,6.684,0,0,1-.3-2.685c.068-.639.175-1.655.9-2.089a2.195,2.195,0,0,1,1.79,0,6.655,6.655,0,0,1,3.581,3.581,8.987,8.987,0,0,1,.6,5.669,9.831,9.831,0,0,1-2.089,4.177c-.667.877-1.488,1.929-2.387,1.79a1.463,1.463,0,0,1-.9-.6c-.711-.977.175-2.068.3-3.879.048-.7-.465-2.454-1.492-5.968" transform="translate(-878.309 -495.082)" fill="#f79556"/>
    <path id="Trazado_799655" data-name="Trazado 799655" d="M836.638,805.243c-4.789-2.571-9.792-1.028-11.826-.676-3.771.654-5.36,1.3-11.488,4.73-4.68,2.619-10.608,4.583-17.232,7.1a102.18,102.18,0,0,1-14.867,4.73c-9.359,1.822-10.643,1.183-17.908,2.7-4.11.86-5.993,1.979-9.8,2.027-3.234.041-4.029-.242-9.8-1.352-10.74-2.065-10.776-.789-15.205-2.7-4.521-1.954-5.953-3.6-9.8-3.379a10.019,10.019,0,0,0-5.406,2.027c-3.527,2.674-5.394,7.868-3.717,11.488a9.455,9.455,0,0,0,2.7,3.041c2.843,2.523,4.927,3.014,7.771,4.73s2.71,2.4,6.082,5.068c2.851,2.26,9.795,7.634,18.922,8.447a27.731,27.731,0,0,0,4.73,0c19.668-1.449,32.438-7.362,51.021-7.1,8.778.126,13.207-.892,22.977-2.7,8.743-1.621,12.462-4.876,13.853-6.082,1.215-1.053,7.388-5.727,7.771-14.529.267-6.127-2.265-14.07-8.785-17.57" transform="translate(-572.349 -648.897)" fill="#fff"/>
    <path id="Trazado_799656" data-name="Trazado 799656" d="M901.573,1019.075a30.941,30.941,0,0,0,4.943-.3c1.639-.237,3.281-.411,4.909-.7,3.267-.483,6.505-1.121,9.739-1.783l4.846-1.037,4.852-1.069c3.244-.694,6.5-1.359,9.8-1.9a99.991,99.991,0,0,1,9.972-1.1c3.341-.164,6.726-.06,9.98-.009a77.579,77.579,0,0,0,9.829-.624c3.28-.384,6.56-.9,9.86-1.277-3.218.822-6.439,1.6-9.7,2.26-1.634.32-3.283.594-4.944.808s-3.334.339-5.006.415-3.358.078-4.983.118c-1.64.005-3.276.131-4.911.225q-4.9.393-9.771,1.18c-3.25.5-6.487,1.152-9.736,1.779-3.253.611-6.508,1.278-9.8,1.781-.82.135-1.642.265-2.467.378s-1.646.245-2.473.338c-1.656.185-3.308.382-4.969.5-1.658.145-3.323.2-4.982.273-.83.028-1.668.033-2.5,0a23.667,23.667,0,0,1-2.483-.253" transform="translate(-727.839 -814.788)" fill="#c4daff"/>
    <path id="Trazado_799657" data-name="Trazado 799657" d="M1370.246,265.795a45.245,45.245,0,1,0-31.936-13.2l-1.862,9.924,9.271-3.947a45.054,45.054,0,0,0,24.528,7.224" transform="translate(-1069.677 -141.533)" fill="#ff8182"/>
    <path id="Trazado_799658" data-name="Trazado 799658" d="M1429.754,305.491a33.249,33.249,0,1,1,35.557-30.768,33.287,33.287,0,0,1-35.557,30.768m4.728-65.485a32.406,32.406,0,1,0,29.988,34.656,32.443,32.443,0,0,0-29.988-34.656" transform="translate(-1129.329 -193.007)" fill="#5e9dd4"/>
    <path id="Trazado_799659" data-name="Trazado 799659" d="M1388.673,282.314c8.258,2.006,17.409-2.288,25.072,2.449,2.85,1.761,5,4.728,4.377,8.219-.788,4.422-5.125,7.045-9.153,8.027a41.408,41.408,0,0,1-6.423.9c-2.55.21-5.1.413-7.662.484a35.767,35.767,0,0,1-13.8-1.849,19.72,19.72,0,0,1-9.076-6.7,14.005,14.005,0,0,1-2.359-10.687c1.386-7.647,7.774-13.486,14.936-15.82a40.528,40.528,0,0,1,13.26-1.719,83.679,83.679,0,0,1,12.412,1.136,24.155,24.155,0,0,1,9.929,3.554,9.89,9.89,0,0,1,4.427,8.965,13.624,13.624,0,0,1-5.641,9.418c-3.432,2.528-7.887,3.383-12.067,3.5a52.71,52.71,0,0,1-13.308-1.367c-4.259-1-8.4-2.845-11.339-6.185a12.1,12.1,0,0,1-3-10.78,15.7,15.7,0,0,1,6.638-9.057,22.448,22.448,0,0,1,12.6-3.374,51.025,51.025,0,0,1,13.025,1.767c3.257.865,7.022,2.371,8.407,5.718,1.7,4.119-1.259,8.387-4.621,10.561a29.191,29.191,0,0,1-5.932,2.749,61.064,61.064,0,0,1-6.8,2.188c-3.919.926-8.49.87-11.617-2.036-3.355-3.118-2.464-7.837-.853-11.6,1.673-3.91,3.94-8.088,7.388-10.7,3.107-2.357,7.741-3.383,11.075-.888,2.488,1.862,3.5,5.159,3.39,8.163-.3,8.085-8.3,12.186-15.266,13.752-4.219.948-9.427,1.823-13.31-.629-3.389-2.14-4.93-6.454-2.129-9.739,3.059-3.588,8.151-3.484,12.451-3.367l7.474.2c2.3.063,4.623.027,6.914.235a8.158,8.158,0,0,1,4.873,1.679,4.094,4.094,0,0,1,.257,5.4c-1.245,1.832-3.4,2.679-5.47,3.2-2.19.546-4.436.916-6.66,1.287q-7.381,1.232-14.858,1.747c-3.413.234-8.258.617-10.493-2.607-2.391-3.449.427-7.947,3.091-10.291a20.3,20.3,0,0,1,10.18-4.727,17.187,17.187,0,0,1,10.953,1.714,13.955,13.955,0,0,1,6.262,7.387c2.427,6.438.235,14.591-6.9,16.733-3.549,1.066-7.706.382-10.128-2.6-2.139-2.633-2.774-6.725-.84-9.646,2.185-3.3,6.494-4.075,10.164-4.241a108.831,108.831,0,0,1,14.069.491q3.7.314,7.388.815a37.462,37.462,0,0,1,6.191,1.129,7.723,7.723,0,0,1,4.168,2.6,3.707,3.707,0,0,1-.468,4.66,10.942,10.942,0,0,1-4.872,2.7c-2.263.7-4.584,1.249-6.9,1.763a115.329,115.329,0,0,1-14.086,2.226c-2.487.237-4.985.408-7.482.463a9.337,9.337,0,0,1-4.818-.88,2.941,2.941,0,0,1-.694-4.627c1.356-1.642,3.458-2.464,5.376-3.235a69.6,69.6,0,0,1,13.394-3.871q3.386-.621,6.822-.908a25.233,25.233,0,0,1,6.286-.047c1.958.337,3.87,1.622,3.726,3.833-.124,1.9-1.591,3.569-2.945,4.77a31.96,31.96,0,0,1-5.649,3.668q-3.084,1.736-6.3,3.229c-3.667,1.7-7.492,3.412-11.521,4.016-3.246.487-7.159.305-9.466-2.367-2.711-3.139-1.532-7.358.611-10.439,2.372-3.411,5.886-5.768,9.523-7.66a41.867,41.867,0,0,1,12.311-4.132,24.255,24.255,0,0,1,11.132.246c3.189.973,6.191,3.15,6.566,6.7.478,4.534-3.186,8.133-6.869,10.066a76.66,76.66,0,0,1-13.087,4.842c-4.665,1.438-9.395,2.686-14.17,3.7-3.9.826-8.339,1.509-12.1-.221-3.782-1.741-5.61-5.849-5.519-9.862.1-4.511,2.44-8.641,5.03-12.2a48.3,48.3,0,0,1,8.278-8.777,49.243,49.243,0,0,1,10.057-6.432,39.476,39.476,0,0,1,10.82-3.6,17.949,17.949,0,0,1,10.183.99,8.556,8.556,0,0,1,5.021,8.679c-.392,4.191-3.052,7.959-5.768,11.015a72.417,72.417,0,0,1-8.969,8.482,74.9,74.9,0,0,1-21.23,11.863,72.546,72.546,0,0,1-11.792,3.164c-4.157.747-9.114,1.352-12.51-1.752-2.388-2.183-3.258-5.542-3.25-8.681a20.837,20.837,0,0,1,2.791-10.026c4.072-7.373,10.926-12.789,18.307-16.6a96.948,96.948,0,0,1,12.749-5.313,124.117,124.117,0,0,1,13.286-4.126c4.307-.97,9.162-1.163,12.776,1.79,2.718,2.221,4.064,5.675,4.5,9.076.967,7.471-2.264,15.062-6.677,20.931-4.739,6.3-11.151,11.231-17.923,15.175-7.01,4.083-15.2,8.026-23.525,7.538a15.909,15.909,0,0,1-10.7-4.659,17.178,17.178,0,0,1-4.411-9.781c-1-8.115,3.488-15.57,9.606-20.547,6.933-5.639,15.755-8.164,24.3-10.167,8.7-2.039,18.631-3.6,26.466,1.836a14.5,14.5,0,0,1,6.268,9.334,17.184,17.184,0,0,1-2.76,11.905c-4.675,7.353-13.408,10.884-21.323,13.543a113.519,113.519,0,0,1-13.7,3.665,93.011,93.011,0,0,1-14.46,1.923c-4.4.182-8.987-.308-12.716-2.839a17.538,17.538,0,0,1-6.2-7.966c-2.776-6.766-2.145-14.485.768-21.087a33.4,33.4,0,0,1,14.835-15.927,28.7,28.7,0,0,1,21.165-2.291,30.448,30.448,0,0,1,17.236,12.433,26.225,26.225,0,0,1,3.477,19.985,27.8,27.8,0,0,1-11.061,16.9c-7.129,4.9-16.3,5.151-24.639,4.839-6.534-.245-14.774-1.321-18.872-7.1-5.067-7.143-.09-16.208,5.395-21.414,11.112-10.545,27.65-12.393,42.268-12.7,4.213-.088,8.977-.495,12.869,1.428,3.5,1.73,5.929,5.644,4.066,9.45-1.732,3.538-5.735,5.487-9.16,7a95.676,95.676,0,0,1-13.069,4.656,97.46,97.46,0,0,1-26.957,3.529q-3.461-.036-6.913-.322a33.075,33.075,0,0,1-5.994-.879,9.791,9.791,0,0,1-4.627-2.476,6.194,6.194,0,0,1-1.531-5.423c.763-4.32,4.594-6.852,8.4-8.329a106.81,106.81,0,0,1,13.664-3.963,170.986,170.986,0,0,1,28.11-4.322q7.2-.5,14.431-.381,3.638.059,7.271.273a24.89,24.89,0,0,1,5.632.82,8.117,8.117,0,0,1,4.279,2.641,5.785,5.785,0,0,1,.66,5.649c-1.517,3.975-5.431,6.552-8.892,8.683a79.671,79.671,0,0,1-24.318,9.882,61.156,61.156,0,0,1-12.6,1.722c-3.7.037-8-.81-9.671-4.554-1.592-3.57.169-7.792,2.166-10.815a37.625,37.625,0,0,1,8.29-8.531,48.351,48.351,0,0,1,10.426-6.226,47.117,47.117,0,0,1,5.92-2.137,24.561,24.561,0,0,1,5.917-1.211,3.864,3.864,0,0,1,2.432.572,2.146,2.146,0,0,1,.584,2.65c-.809,1.94-2.9,3.147-4.594,4.211a51.328,51.328,0,0,1-11.093,5.231,52.051,52.051,0,0,1-24.238,2.082l.246.739a36.732,36.732,0,0,1,24.281-6.714,16.311,16.311,0,0,1,5.849,1.191,3.022,3.022,0,0,1,1.794,2.142,3.666,3.666,0,0,1-1.363,3.035,19.024,19.024,0,0,1-5.455,3.239,53.636,53.636,0,0,1-6.523,2.511,54.435,54.435,0,0,1-15.325,2.452l.245.739a50.5,50.5,0,0,1,23.381-8.608l-.358-.732a19.7,19.7,0,0,1-14.561,6.526q.078.4.156.8a6.86,6.86,0,0,1,5.371-.867l-.207-.636a15.623,15.623,0,0,1-6.559,5.11l.583.52a2.977,2.977,0,0,1,3.286-1.694,3.719,3.719,0,0,1,3.072,3.091c.817,3.752-2.076,6.775-4.487,9.214-.38.384.169,1.024.552.638,2.84-2.872,6.362-6.873,4.366-11.21a4.332,4.332,0,0,0-3.931-2.6,3.711,3.711,0,0,0-3.652,2.282.426.426,0,0,0,.583.519,16.464,16.464,0,0,0,6.883-5.39.424.424,0,0,0-.207-.636,7.691,7.691,0,0,0-6.025.9c-.319.2-.3.8.156.8a20.506,20.506,0,0,0,15.173-6.73.426.426,0,0,0-.358-.732,51.341,51.341,0,0,0-23.768,8.8.425.425,0,0,0,.245.739,55.041,55.041,0,0,0,21.877-4.862,20.157,20.157,0,0,0,6.132-3.636c1.3-1.3,2.156-3.2,1.1-4.918-.972-1.592-2.994-2.108-4.706-2.412a36.9,36.9,0,0,0-13.875.233,37.46,37.46,0,0,0-14.28,6.261c-.324.233-.08.689.246.739a52.871,52.871,0,0,0,27.059-3.028,51.667,51.667,0,0,0,6.3-2.953,29.3,29.3,0,0,0,5.593-3.674c1.26-1.15,2.617-2.964,1.92-4.76-.661-1.7-2.558-2.1-4.195-2a28.6,28.6,0,0,0-6.307,1.358,48.929,48.929,0,0,0-17.053,9.07,34.08,34.08,0,0,0-8.514,9.538c-1.749,3.2-2.936,7.363-1.006,10.757,2.025,3.56,6.265,4.452,10.059,4.414a63.141,63.141,0,0,0,13.67-1.929,80.362,80.362,0,0,0,25.866-11.153c3.288-2.175,7.008-5.342,7.581-9.5.552-4-2.6-6.711-6.126-7.695a27.982,27.982,0,0,0-5.944-.82q-3.948-.226-7.9-.267-7.807-.082-15.6.55a170.812,170.812,0,0,0-30.815,5.354c-2.464.666-4.925,1.367-7.348,2.173a24.566,24.566,0,0,0-5.924,2.7c-3.25,2.162-5.885,6.2-4.732,10.244,1.087,3.808,5.025,5.336,8.574,5.957a73.89,73.89,0,0,0,14.144.794,98.327,98.327,0,0,0,29.352-5.117q3.474-1.172,6.854-2.6a38.241,38.241,0,0,0,5.979-2.993c3.076-2,6.037-5.086,5.5-9.053-.559-4.138-4.557-6.715-8.334-7.515a33.671,33.671,0,0,0-7.257-.486c-2.081.016-4.161.061-6.24.148-8.223.344-16.532,1.3-24.348,3.994-7.513,2.591-14.86,7.083-19.322,13.823-2.279,3.444-3.832,7.615-3.39,11.795a12.643,12.643,0,0,0,5.656,9.089,25.057,25.057,0,0,0,10.43,3.594,69.807,69.807,0,0,0,13.066.5,37.765,37.765,0,0,0,13.952-2.9,25.4,25.4,0,0,0,8.685-6.547,29.494,29.494,0,0,0,7.1-20.354c-.7-15.73-15.726-27.7-31.065-27.119-15.787.6-29.79,14.744-30.493,30.5-.32,7.176,2.14,15.182,8.327,19.38,3.94,2.674,8.795,3.193,13.44,2.97a97.424,97.424,0,0,0,15.3-2.114,114.441,114.441,0,0,0,14.958-4.232,54.509,54.509,0,0,0,12.519-5.995,24.167,24.167,0,0,0,8.475-9.565,16.563,16.563,0,0,0,1.023-12.241,16.353,16.353,0,0,0-7.768-8.794,25.162,25.162,0,0,0-13.122-2.83,73.592,73.592,0,0,0-15.513,2.693,72.219,72.219,0,0,0-13.893,4.805c-7.651,3.722-14.738,10.018-16.963,18.514-1.958,7.481.543,16.4,7.479,20.438,7.777,4.524,17.551,1.718,25.134-1.806a71.11,71.11,0,0,0,21.188-14.583c5.587-5.779,10.1-13.282,10.706-21.459a18.943,18.943,0,0,0-2.055-10.621,11.882,11.882,0,0,0-9.5-6.042c-4.921-.432-9.777,1.352-14.383,2.835-4.816,1.551-9.623,3.162-14.264,5.188-8.346,3.643-16.345,8.838-21.532,16.489a24.636,24.636,0,0,0-4.307,10.536,14.754,14.754,0,0,0,1.82,9.94c2.312,3.528,6.356,4.608,10.387,4.361a56.735,56.735,0,0,0,13.244-2.751,75.765,75.765,0,0,0,23.188-11.973,73.3,73.3,0,0,0,9.878-9.035c2.911-3.2,5.707-6.961,6.423-11.339a9.408,9.408,0,0,0-4.123-9.571c-2.984-1.9-6.735-2.253-10.184-1.97a36.238,36.238,0,0,0-11.638,3.332,50.086,50.086,0,0,0-10.816,6.607,49.261,49.261,0,0,0-8.956,9.328c-2.707,3.694-5.146,8.022-5.252,12.718-.09,3.969,1.543,8.1,5.068,10.191,3.745,2.218,8.407,1.782,12.5.994a144.8,144.8,0,0,0,14.919-3.818q3.72-1.139,7.385-2.447a44.008,44.008,0,0,0,6.717-2.83c3.662-2.043,7.015-5.618,6.866-10.088-.119-3.573-2.671-6.182-5.831-7.488a21.987,21.987,0,0,0-11.207-1,42.555,42.555,0,0,0-13.45,4.066c-3.819,1.888-7.553,4.284-10.163,7.712-2.228,2.926-3.816,6.952-2.057,10.494,1.632,3.287,5.2,4.505,8.672,4.455,4.162-.06,8.075-1.566,11.85-3.182a74.407,74.407,0,0,0,13.238-7.03c2.645-1.842,6.248-5.7,3.931-9.082a6.094,6.094,0,0,0-4.747-2.231,38.356,38.356,0,0,0-6.922.305,70.2,70.2,0,0,0-14.927,3.212,46.245,46.245,0,0,0-6.707,2.639c-1.6.827-3.357,2.059-3.948,3.846a3.651,3.651,0,0,0,1.41,4.126,8.737,8.737,0,0,0,4.927,1.245,92.821,92.821,0,0,0,15.27-1.353,88.381,88.381,0,0,0,14.61-3.3c3.058-1.036,7.167-3.486,5.881-7.355-1.11-3.34-5.417-4.289-8.449-4.766a148.219,148.219,0,0,0-16.428-1.655c-4.419-.2-9.25-.6-13.549.709-3.428,1.044-6.279,3.507-6.74,7.205a9.642,9.642,0,0,0,4.158,9.083,11.211,11.211,0,0,0,11.038.2,11.923,11.923,0,0,0,6.075-8.081,15.527,15.527,0,0,0-8.429-17.293c-7.078-3.228-16.293-1.124-21.712,4.331-2.525,2.542-4.809,6.829-2.775,10.32,1.986,3.409,6.454,3.661,9.966,3.475a147.577,147.577,0,0,0,15.861-1.746c2.526-.411,5.089-.809,7.566-1.46a10.216,10.216,0,0,0,5.216-2.814,5.614,5.614,0,0,0,1.424-5.064,5.175,5.175,0,0,0-3.407-3.333,18.408,18.408,0,0,0-5.857-.779l-8.3-.227c-4.634-.127-10.12-.9-14.294,1.614-3.311,1.991-5.167,5.851-3.277,9.488,2.115,4.069,6.773,5.331,11.052,5.109a34.835,34.835,0,0,0,12.571-3.026c3.479-1.607,6.815-4.162,8.426-7.733a12.631,12.631,0,0,0,.26-9.608,8.485,8.485,0,0,0-7.561-5.568c-4.4-.18-8.215,2.538-10.775,5.9a36.249,36.249,0,0,0-3.52,5.92,22.6,22.6,0,0,0-2.179,6.157,9.3,9.3,0,0,0,.863,6.144,9.024,9.024,0,0,0,4.009,3.614c4.2,2.029,8.919,1.072,13.151-.33,4.264-1.413,9.162-2.834,12.337-6.2,2.684-2.847,4.019-7.212,1.754-10.712-2-3.1-5.868-4.444-9.292-5.238-8.607-2-19.04-3.056-26.456,2.768a15.765,15.765,0,0,0-6.105,9.964,13.25,13.25,0,0,0,3.914,10.868c3.224,3.346,7.6,5.126,12.08,6.073a52.45,52.45,0,0,0,13.875,1.159c4.326-.264,8.812-1.394,12.191-4.239a14.161,14.161,0,0,0,5.207-9.858,10.733,10.733,0,0,0-4.643-9.137c-3.052-2.214-6.858-3.209-10.523-3.827a81.191,81.191,0,0,0-13.579-1.145,38.894,38.894,0,0,0-13.773,2.253c-7.285,2.77-13.625,9.428-14.341,17.445-.752,8.416,5.835,14.848,13.357,17.29,4.864,1.579,10.078,1.658,15.137,1.382,2.554-.139,5.114-.323,7.658-.59a26.109,26.109,0,0,0,6.973-1.534c3.557-1.416,6.861-4.477,7.286-8.462.358-3.356-1.588-6.287-4.265-8.127a17.915,17.915,0,0,0-10.431-2.847c-5.122.047-10.316,1.173-15.381-.057-.523-.127-.809.667-.282.795" transform="translate(-1097.165 -203.167)" fill="#12263f"/>
  </g>
</svg>
