<svg id="Grupo_1065207" data-name="Grupo 1065207" xmlns="http://www.w3.org/2000/svg" xmlns:xlink="http://www.w3.org/1999/xlink" width="359.333" height="215.964" viewBox="0 0 359.333 215.964">
  <defs>
    <clipPath id="clip-path">
      <rect id="Rectángulo_374146" data-name="Rectángulo 374146" width="359.333" height="215.964" fill="#8edee0"/>
    </clipPath>
  </defs>
  <g id="Grupo_1065206" data-name="Grupo 1065206" clip-path="url(#clip-path)">
    <path id="Trazado_800176" data-name="Trazado 800176" d="M6.987,171.162C1.879,163.135-1.073,153.434.363,144.03s7.774-18.289,16.8-21.3c7.086-2.369,15.982-1.551,20.705-7.34,6.009-7.368.027-18-4.655-26.271-4.469-7.9-7.761-16.788-7.3-25.854C26.583,50.1,35.2,38.345,46.022,30.82s61.488-21.565,75.615,7.333c7.571,15.487,20.24,30.552,37.37,32.486a10.3,10.3,0,0,0,6.275-.824,8.812,8.812,0,0,0,3.466-4.239C174.327,52.881,162,39.447,161.215,25.6A24.97,24.97,0,0,1,175.647,1.984a24.971,24.971,0,0,1,27.194,5.161c5.39,5.468,8.038,13.306,13.88,18.29,8.011,6.835,20.1,6.525,29.976,2.858s18.424-10.138,27.8-14.93A89.6,89.6,0,0,1,332.945,5.49c5.647,1.172,11.5,2.852,15.679,6.828,28.884,27.5-8.829,65.594-17.72,71.916s-17.076,16.945-13.6,27.285c3.748,11.149,18.755,14.983,23.313,25.827,2.738,6.513.925,14.226-2.925,20.151s-9.489,10.421-15.027,14.808c-7.238,5.733-14.511,11.491-22.523,16.082-33.47,19.177-74.681,15.716-113.171,13.151-27.755-1.849-55.555-2.933-83.36-3.7q-20.633-.566-41.27-.947c-9.893-.2-18.342-.292-27.66-3.829-11.287-4.285-21.165-11.644-27.695-21.9" transform="translate(0 0)" fill="#8edee0"/>
    <path id="Trazado_800177" data-name="Trazado 800177" d="M4.444,165.506a8.517,8.517,0,0,0,2.4,9.637,14.5,14.5,0,0,0,4.473,2.247A56.934,56.934,0,0,0,21.44,179.9c1.634.249,3.484.371,4.757-.682,1.615-1.335,1.48-3.847.885-5.856-2.424-8.179-17.065-21.061-22.637-7.855" transform="translate(-1.763 -73.492)" fill="#8edee0"/>
    <path id="Trazado_800178" data-name="Trazado 800178" d="M260.767,75.655c1.929,1.029,4.808,1.182,5.85-.74a3.919,3.919,0,0,0,.359-2.147c-.306-4.353-3.129-7.7-4.574-11.828-1.225-3.5-4.048-7.075-7.355-5.395-9.071,4.608.022,17.072,5.72,20.109" transform="translate(-115.509 -25.344)" fill="#8edee0"/>
    <path id="Trazado_800179" data-name="Trazado 800179" d="M607.674,184.5a5.7,5.7,0,0,0,1.947,2.537c1.522,1.024,4.879,1.4,6.336-.417,2.017-2.519.476-4.75,1.554-6.459a7.262,7.262,0,0,1,1.96-1.76c1.523-1.137,2.908-2.994,2.319-4.8-2.731-8.385-17.9,2.093-14.116,10.9" transform="translate(-279.144 -78.411)" fill="#8edee0"/>
    <path id="Trazado_800180" data-name="Trazado 800180" d="M248.788,377.1c0,4.64-37.512,8.4-83.786,8.4s-83.786-3.761-83.786-8.4,37.512-8.4,83.786-8.4,83.786,3.761,83.786,8.4" transform="translate(-37.345 -169.535)" fill="#ff8182" opacity="0.61"/>
    <path id="Trazado_800181" data-name="Trazado 800181" d="M481.89,372.274c0,4.079-35.291,7.386-78.825,7.386s-78.825-3.307-78.825-7.386,35.291-7.386,78.825-7.386,78.825,3.307,78.825,7.386" transform="translate(-149.093 -167.783)" fill="#ff8182" opacity="0.61"/>
    <path id="Trazado_800182" data-name="Trazado 800182" d="M134.046,366.874c0,2.689-26.383,4.869-58.929,4.869s-58.929-2.18-58.929-4.869,26.383-4.869,58.929-4.869,58.929,2.18,58.929,4.869" transform="translate(-7.444 -166.457)" fill="#cedadd"/>
    <path id="Trazado_800183" data-name="Trazado 800183" d="M519.538,357.44c0,3.245-24.7,5.875-55.166,5.875s-55.165-2.63-55.165-5.875,24.7-5.875,55.165-5.875,55.166,2.63,55.166,5.875" transform="translate(-188.162 -161.657)" fill="#cedadd"/>
    <path id="Trazado_800184" data-name="Trazado 800184" d="M488.442,338.016c-1.23,4.6-7.555,10.367-9.242,3.886a11.954,11.954,0,0,1,.037-4.859c.839-2.892,1.649-3.02.253-5.477-.865-1.524-1.284-1.411-1.271-3.559.016-2.463,2.226-2.854,3.681-4.554,1.625-1.9,5.05-1.6,6.1-.344,2.3,2.755,1.453,11.142.446,14.908" transform="translate(-219.895 -148.107)" fill="#f53e56"/>
    <path id="Trazado_800185" data-name="Trazado 800185" d="M447.34,346.029c3.328-1.648,17.184-11.6,17.571-11.867,2.161-1.486,2.566-7.562-.95-9.582-.967-.555-22.548,8-25.113,10.962-6.887,7.945-.27,14.825,8.493,10.486" transform="translate(-200.475 -149.237)" fill="#353134"/>
    <path id="Trazado_800186" data-name="Trazado 800186" d="M482.842,352.429a9.066,9.066,0,0,1,4.063.665c.283.1.441-.321.2-.47a6.339,6.339,0,0,0-4.318-.609c-.232.039-.181.44.056.414" transform="translate(-221.926 -161.807)" fill="#fff"/>
    <path id="Trazado_800187" data-name="Trazado 800187" d="M484.805,348.886a8.5,8.5,0,0,1,2.092.048c.631.12,1.211.388,1.831.545.241.062.485-.274.263-.452a5.213,5.213,0,0,0-4.261-.7.288.288,0,0,0,.076.564" transform="translate(-222.795 -160.088)" fill="#fff"/>
    <path id="Trazado_800188" data-name="Trazado 800188" d="M488.506,344.593a7.715,7.715,0,0,1,1.693.137c.5.1.979.3,1.482.4a.225.225,0,0,0,.172-.408,5.352,5.352,0,0,0-3.348-.6c-.3.026-.309.479,0,.473" transform="translate(-224.521 -158.217)" fill="#fff"/>
    <path id="Trazado_800189" data-name="Trazado 800189" d="M493.183,340.619a4.348,4.348,0,0,0,1.124-.065.166.166,0,0,0,0-.318,4.351,4.351,0,0,0-1.124-.065.224.224,0,0,0,0,.447" transform="translate(-226.676 -156.415)" fill="#fff"/>
    <path id="Trazado_800190" data-name="Trazado 800190" d="M508.007,338.016c1.23,4.6,7.555,10.367,9.242,3.886a11.953,11.953,0,0,0-.037-4.859c-.839-2.892-1.649-3.02-.253-5.477.865-1.524,1.284-1.411,1.271-3.559-.016-2.463-2.226-2.854-3.681-4.554-1.625-1.9-5.05-1.6-6.1-.344-2.3,2.755-1.453,11.142-.446,14.908" transform="translate(-233.122 -148.107)" fill="#f53e56"/>
    <path id="Trazado_800191" data-name="Trazado 800191" d="M532.647,346.029c-3.328-1.648-17.184-11.6-17.571-11.867-2.161-1.486-2.566-7.562.95-9.582.967-.555,22.548,8,25.113,10.962,6.887,7.945.27,14.825-8.493,10.486" transform="translate(-236.08 -149.237)" fill="#353134"/>
    <path id="Trazado_800192" data-name="Trazado 800192" d="M519.331,352.014a6.336,6.336,0,0,0-4.318.61c-.24.147-.087.567.2.47a9.051,9.051,0,0,1,4.063-.666c.234.025.291-.375.056-.414" transform="translate(-236.759 -161.807)" fill="#fff"/>
    <path id="Trazado_800193" data-name="Trazado 800193" d="M517.417,348.322a5.21,5.21,0,0,0-4.262.7c-.223.177.021.513.263.452.621-.158,1.2-.426,1.831-.545a8.582,8.582,0,0,1,2.092-.048.288.288,0,0,0,.076-.564" transform="translate(-235.919 -160.088)" fill="#fff"/>
    <path id="Trazado_800194" data-name="Trazado 800194" d="M514.381,344.12a5.351,5.351,0,0,0-3.348.6.225.225,0,0,0,.172.408c.5-.1.978-.3,1.482-.4a7.715,7.715,0,0,1,1.693-.137c.308.007.3-.447,0-.473" transform="translate(-234.935 -158.217)" fill="#fff"/>
    <path id="Trazado_800195" data-name="Trazado 800195" d="M511.6,340.171a4.351,4.351,0,0,0-1.124.065.166.166,0,0,0,0,.318,4.348,4.348,0,0,0,1.124.065.224.224,0,0,0,0-.447" transform="translate(-234.672 -156.415)" fill="#fff"/>
    <path id="Trazado_800196" data-name="Trazado 800196" d="M433.644,301.567c-1.028,14.381,10.351,12.137,14.495,8.6,8.219-7.022,17.139-31.3,22.4-37.678,3.811,7.814,16.27,29.63,18.919,32.635s6.132,7.373,10.135,7.54c2.832.118,6.038-.842,7.421-3.315,3.35-5.986-9.565-39.666-18.328-55.923a4.246,4.246,0,0,0-4.623-2.946c-11.337-.242-22.752-.873-34.082-.7-8.418,21.131-15.9,45.651-16.34,51.787" transform="translate(-199.369 -114.84)" fill="#413c40"/>
    <path id="Trazado_800197" data-name="Trazado 800197" d="M502.325,278.541c.035-1.857.132-3.726.084-5.582a.363.363,0,0,0-.725,0c-.048,1.856.05,3.725.084,5.582a.279.279,0,0,0,.557,0" transform="translate(-230.679 -125.351)" fill="#353134"/>
    <path id="Trazado_800198" data-name="Trazado 800198" d="M493.663,276.9a21.6,21.6,0,0,0,1.683,2.422c.509.649,1.084,1.645,1.9,1.9a.285.285,0,0,0,.348-.348c-.2-.744-.995-1.315-1.483-1.894-.658-.78-1.255-1.6-1.862-2.424-.252-.341-.808-.044-.583.341" transform="translate(-226.972 -127.099)" fill="#353134"/>
    <path id="Trazado_800199" data-name="Trazado 800199" d="M492.625,283.242c.653.391,1.313.768,1.986,1.122a3.482,3.482,0,0,0,1.759.673c.159-.015.32-.2.2-.355a3.8,3.8,0,0,0-1.6-.939c-.688-.327-1.365-.676-2.033-1.04a.313.313,0,0,0-.315.539" transform="translate(-226.45 -129.973)" fill="#353134"/>
    <path id="Trazado_800200" data-name="Trazado 800200" d="M504.165,285.979c1.863.086,4.483.358,6.209-.49a.187.187,0,0,0-.044-.339,12.71,12.71,0,0,0-2.861.2c-1.1.1-2.2.14-3.3.137a.245.245,0,0,0,0,.489" transform="translate(-231.717 -131.1)" fill="#353134"/>
    <path id="Trazado_800201" data-name="Trazado 800201" d="M353.065,48.7c-1.922-.009-1.748,2.407-1.73,4.4a5.336,5.336,0,0,1-1.756-2.341c-1.182-2.959-2.121-6.356-3.082-6.652-1.6.305,1.461,6.878.562,7.244-.319.38-5.744-5.682-6.663-4.6-.521.9,5.042,6.077,4.875,6.625-.6.856-7.44-4.243-7.44-2.889-.658,1.752,6.827,4.91,6.617,5.492-.352.587-3.344-.729-5.312-.63-.689.931,4.791,2.294,5.537,3.016,2.881,2.791,3.126,1.278,6.077,3.871.508.447,1.716,1.971,2.382,2.092,1.171.214,2.209-.747,2.929-1.695a1.233,1.233,0,0,0,.268-.506,37.863,37.863,0,0,1-2.076-4.833c-.311-1.63-.8-2.667-1.027-4.466-.212-1.67.265-3.372-.161-4.133" transform="translate(-155.323 -20.282)" fill="#ff8966"/>
    <path id="Trazado_800202" data-name="Trazado 800202" d="M619.305,50.7c1.922-.009,1.748,2.407,1.73,4.4a5.336,5.336,0,0,0,1.756-2.341c1.182-2.959,2.121-6.356,3.082-6.652,1.6.305-1.461,6.878-.562,7.244.319.38,5.744-5.682,6.663-4.6.521.9-5.042,6.077-4.875,6.625.6.856,7.44-4.243,7.44-2.889.659,1.752-6.827,4.91-6.617,5.492.352.587,3.344-.729,5.312-.63.689.931-4.791,2.294-5.537,3.016-2.881,2.791-3.126,1.278-6.077,3.871-.508.447-1.716,1.971-2.382,2.092-1.171.214-2.209-.747-2.929-1.695a1.233,1.233,0,0,1-.268-.506,37.868,37.868,0,0,0,2.076-4.833c.311-1.63.8-2.667,1.027-4.466.212-1.67-.264-3.372.161-4.133" transform="translate(-283.268 -21.202)" fill="#ff8966"/>
    <path id="Trazado_800203" data-name="Trazado 800203" d="M406.671,98.965l-10.49-5.707A59.881,59.881,0,0,1,387.686,88c-7.85-6.16-15.845-18.769-21.115-18.769-3.643.418-4.506,4.307-3.668,7.008s2.762,4.9,4.419,7.19c5.274,7.295,8.2,16.227,14.338,22.813,6.866,7.369,29.531,20.387,30.2,21.657.437.831.945,13.775,1.891,26.6.617,8.377-2.712,16.38-2.026,19.311.254,1.084,5.379,4.346,10.4,1.215,1.811-1.13,5.981,1.353,8.1,1.08s4.761-1.309,6.893-1.212c3.753.171,4.069,2.233,7.777,2.836,4.277.695,8.462-1.389,12.294-3.409a3.088,3.088,0,0,0,2.063-3.972c-.7-5.555-1.831-11-1.878-16.255-.076-8.549,1.342-16.819,1.921-25.91,19.324-6.714,29.556-26.792,43-42.21,2.839-3.256,5.876-7.454,4.376-11.5-1.221-1.807-3.04-3.608-5.723-3.608-2.314,0-7.993,8.37-12.784,12.064s-8.064,8.115-13.5,10.764c-13.24,6.449-14.676,10.213-29.391,12.2-1.955.264-5.562,3.524-9.5,3.684-4.585.186-9.556-2.774-11.88-3.19-4.791-.859-13-5.133-17.212-7.425" transform="translate(-166.735 -31.835)" fill="#f0c374"/>
    <path id="Trazado_800204" data-name="Trazado 800204" d="M479.818,127.273c-1.45,1.886-1.981,1.668-3.777,1.851,1.844,5.47,5.351,9.074,11.113,9.431a15.225,15.225,0,0,0,4.153-.3c3.917-.845,5.766-3.067,6.118-9.623-2.3.623-2.962-.131-3.741-2.078s-.469-5.659-1.441-7.519c-.11-.211-1.434.865-1.62.716a2.024,2.024,0,0,0-1.271-.3l-5.234-.058c-1.421-.015-4.77-1.53-4.839-.109-.176,3.654.725,7.749.54,7.99" transform="translate(-218.893 -54.569)" fill="#f2775a"/>
    <path id="Trazado_800205" data-name="Trazado 800205" d="M452.539,163.465a25.61,25.61,0,0,1-.13-10.407c.03-.152-.18-.261-.262-.111-1.71,3.14-.707,7.336-.039,10.637.057.283.486.163.432-.119" transform="translate(-207.472 -70.295)" fill="#d8a960"/>
    <path id="Trazado_800206" data-name="Trazado 800206" d="M457.258,165.1c.486-1.5.989-3,1.5-4.489a27.584,27.584,0,0,0,1.444-4.5c.036-.236-.271-.407-.409-.172-1.529,2.6-2.159,6.149-2.954,9.043a.22.22,0,0,0,.423.117" transform="translate(-210.058 -71.654)" fill="#d8a960"/>
    <path id="Trazado_800207" data-name="Trazado 800207" d="M533.778,154.351c.119,2.7.69,6.907,2.851,8.8a.213.213,0,0,0,.353-.205c-.354-1.362-1.258-2.559-1.718-3.908a17.831,17.831,0,0,1-.9-4.69c-.023-.377-.608-.382-.591,0" transform="translate(-245.442 -70.843)" fill="#d8a960"/>
    <path id="Trazado_800208" data-name="Trazado 800208" d="M530.939,166.552l1.9,2.645c.492.685.977,1.666,1.763,2.027a.244.244,0,0,0,.353-.272,5.854,5.854,0,0,0-1.482-2.335l-1.878-2.449c-.29-.379-.945-.019-.656.384" transform="translate(-244.103 -76.334)" fill="#d8a960"/>
    <path id="Trazado_800209" data-name="Trazado 800209" d="M472.933,142.038c.7,6.423,7.557,9.854,13.4,10.2,5.819.342,10.666-3.974,12.2-9.4a.372.372,0,0,0-.716-.2c-1.517,4.926-5.644,8.912-11.022,8.847-6.014-.072-11.783-3.552-13.278-9.53-.078-.315-.617-.259-.58.078" transform="translate(-217.464 -65.18)" fill="#d8a960"/>
    <path id="Trazado_800210" data-name="Trazado 800210" d="M407.945,119.033c.434-.8.886-1.583,1.375-2.345a20.438,20.438,0,0,0,1.513-2.255.267.267,0,0,0-.418-.322,8.442,8.442,0,0,0-1.567,2.116,22.169,22.169,0,0,0-1.356,2.542c-.137.3.287.566.452.264" transform="translate(-187.362 -52.438)" fill="#d8a960"/>
    <path id="Trazado_800211" data-name="Trazado 800211" d="M415.926,117.391a7.15,7.15,0,0,0-2.046,4.1,16.254,16.254,0,0,0-.615,5.406c.039.279.428.216.5,0,1.024-2.9.231-6.679,2.634-9.025.313-.305-.156-.766-.477-.478" transform="translate(-189.997 -53.937)" fill="#d8a960"/>
    <path id="Trazado_800212" data-name="Trazado 800212" d="M419.3,126.935c-.2,1.219-.494,3.007.153,4.127.073.127.313.119.339-.044a9.118,9.118,0,0,0-.08-1.742,11.021,11.021,0,0,1,.15-2.186c.061-.367-.5-.525-.562-.155" transform="translate(-192.691 -58.27)" fill="#d8a960"/>
    <path id="Trazado_800213" data-name="Trazado 800213" d="M579.84,119.1a13.773,13.773,0,0,0,1.271,3.235,5.614,5.614,0,0,0,1.975,2.449c.166.079.4-.054.335-.258a13.115,13.115,0,0,0-1.571-2.4,15.746,15.746,0,0,1-1.457-3.173.287.287,0,0,0-.553.152" transform="translate(-266.617 -54.602)" fill="#d8a960"/>
    <path id="Trazado_800214" data-name="Trazado 800214" d="M616.743,75.514a9.8,9.8,0,0,1,2.959,2.013,8.813,8.813,0,0,1,1.12,1.35,5.417,5.417,0,0,0,.909,1.294.18.18,0,0,0,.3-.125c-.007-1.09-1.141-2.247-1.884-2.966a9.449,9.449,0,0,0-3.224-2c-.247-.095-.427.324-.182.432" transform="translate(-283.537 -34.518)" fill="#d8a960"/>
    <path id="Trazado_800215" data-name="Trazado 800215" d="M366.683,77.292a11.272,11.272,0,0,1,1.035-1.809,14.463,14.463,0,0,0,1.306-1.612.187.187,0,0,0-.254-.254,4.213,4.213,0,0,0-1.417,1.525,9.543,9.543,0,0,0-1.032,2c-.081.207.27.358.362.153" transform="translate(-168.436 -33.841)" fill="#d8a960"/>
    <path id="Trazado_800216" data-name="Trazado 800216" d="M480.166,178.577a76.045,76.045,0,0,0,10.042,10.139,16.578,16.578,0,0,1,4.2,4.62c1.264,1.967.452,4.726-2.48,4.86a28.761,28.761,0,0,1-2.947-.4c-1.335-.211-2.661-.466-4-.648-.48-.065-.708.648-.206.749,2.681.539,6.882,2.009,9.481.582,1.9-1.044,1.921-3.017,1.171-4.837-1.161-2.816-3.8-4.688-6.011-6.626a111.407,111.407,0,0,1-8.8-8.892c-.285-.312-.7.138-.454.454" transform="translate(-220.755 -81.856)" fill="#d8a960"/>
    <path id="Trazado_800217" data-name="Trazado 800217" d="M483.171,224.483c4.163,1.542,7.473,4,11.293,6.123a.174.174,0,0,0,.21-.272c-2.909-3.1-7.423-4.96-11.384-6.283-.275-.092-.385.332-.118.431" transform="translate(-222.102 -103.018)" fill="#d8a960"/>
    <path id="Trazado_800218" data-name="Trazado 800218" d="M496.35,175.537c2.85,2.476,6.747,5.111,10.613,5.455.263.023.386-.4.138-.512-1.7-.738-3.508-1.135-5.2-1.949a26.823,26.823,0,0,1-5.219-3.329c-.232-.187-.567.132-.334.334" transform="translate(-228.196 -80.536)" fill="#d8a960"/>
    <path id="Trazado_800219" data-name="Trazado 800219" d="M481.8,110.371a6.8,6.8,0,0,0,7.135.982c2.522-.977,3.7-3.517,4.667-5.99a23.135,23.135,0,0,0,1.646-12.392,13.677,13.677,0,0,0-7.163-9.984c-7.107-3.392-13.452,1.605-13.976,8.684-.425,5.734,3.26,14.859,7.691,18.7" transform="translate(-217.988 -37.659)" fill="#ff8966"/>
    <path id="Trazado_800220" data-name="Trazado 800220" d="M470.757,91.2l-.237-6.513a4.071,4.071,0,0,0,4.709-1.2,3.765,3.765,0,0,1,.729-.862,2.657,2.657,0,0,1,1.988-.178c1.581.273,4.249-.671,4.742.819.913,2.764,3.858-.326,4.328.153.266.27.308,6.529,1.41,9.02a2,2,0,0,0,.743,1.012c1.1.614,2.105-.969,2.249-2.195a18.052,18.052,0,0,0-.167-5.33,3.056,3.056,0,0,1-.063-1.3c.469-1.828,3.935-1.583,4.275-3.438.17-.928-.65-1.761-1.518-2.174s-3.144-1.274-3.181-3.609c1.421-4.053-6.671-.378-8.8-2.752A8.038,8.038,0,0,0,480.3,71a1.779,1.779,0,0,0-2.186.116c-.492.556-.354,1.4-.564,2.1-.436,1.467-2.3,2.066-3.856,1.895s-3.014-.866-4.571-1.03-3.889-.072-3.829,1.933c.014.482.566,1.277.345,1.709-.973,1.908-3.966,1-3.984,3.241-.024,3.039,3.914,1.451,4.667,4.074.59,2.055.145,4.771.966,7.747.719,2.6,3.574,1.375,3.466-1.585" transform="translate(-212.28 -32.5)" fill="#413c40"/>
    <path id="Trazado_800221" data-name="Trazado 800221" d="M476.431,109.262s-.12-5.409-4.434-4.27c-2.314.611-.574,4.436.188,5.683s1.291,1.716,2.72,1.41,1.67-1.153,1.526-2.824" transform="translate(-216.501 -48.205)" fill="#ff8966"/>
    <path id="Trazado_800222" data-name="Trazado 800222" d="M486.924,108.183A.949.949,0,1,1,486,107a1.076,1.076,0,0,1,.92,1.182" transform="translate(-223.052 -49.201)" fill="#0f3844"/>
    <path id="Trazado_800223" data-name="Trazado 800223" d="M502.17,107.253a.949.949,0,1,1-.92-1.183,1.076,1.076,0,0,1,.92,1.183" transform="translate(-230.062 -48.773)" fill="#0f3844"/>
    <path id="Trazado_800224" data-name="Trazado 800224" d="M493.823,104.435a11.518,11.518,0,0,0,.436,3.763,3.631,3.631,0,0,0,.567,1.045,4.785,4.785,0,0,1,.532.634,1.53,1.53,0,0,1-1.345,2.192c-.468-.03-.472.6-.1.755,1.287.524,2.663-1.048,2.562-2.322-.058-.734-.633-1.165-1.038-1.721-.877-1.2-.9-2.907-1.07-4.345a.27.27,0,0,0-.54,0" transform="translate(-226.988 -47.902)" fill="#e26b50"/>
    <path id="Trazado_800225" data-name="Trazado 800225" d="M474.91,108.067c-3.592-1.473-.268,5.437.935,4.319a.254.254,0,0,0-.307-.4c-.413.245-1.349-1.829-1.438-2.085a5.411,5.411,0,0,1-.232-.916c-.13-.817.287-.735.925-.5.268.1.373-.319.117-.424" transform="translate(-217.628 -49.596)" fill="#e26b50"/>
    <path id="Trazado_800226" data-name="Trazado 800226" d="M508.875,109.262s.12-5.409,4.434-4.27c2.314.611.575,4.436-.188,5.683s-1.291,1.716-2.72,1.41-1.67-1.153-1.526-2.824" transform="translate(-233.975 -48.205)" fill="#ff8966"/>
    <path id="Trazado_800227" data-name="Trazado 800227" d="M513.063,108.491c.638-.239,1.054-.321.925.5a5.408,5.408,0,0,1-.232.916c-.089.256-1.025,2.33-1.438,2.086a.254.254,0,0,0-.307.4c1.207,1.121,4.521-5.79.935-4.319-.255.1-.151.524.117.424" transform="translate(-235.398 -49.597)" fill="#e26b50"/>
    <path id="Trazado_800228" data-name="Trazado 800228" d="M482.583,100.59a3.977,3.977,0,0,1,1.878-.742,14.89,14.89,0,0,1,1.827.252.529.529,0,0,0,.37-.893c-1.212-1.1-3.635-.438-4.663.621-.374.385.113,1.07.588.762" transform="translate(-221.57 -45.357)" fill="#413c40"/>
    <path id="Trazado_800229" data-name="Trazado 800229" d="M497.441,99.827a3.172,3.172,0,0,1,1.988-.407c.541.093,1.052.617,1.592.423a.448.448,0,0,0,.316-.416c0-.04,0-.08,0-.121a.6.6,0,0,0-.3-.52,3.388,3.388,0,0,0-4.1.391.415.415,0,0,0,.5.649" transform="translate(-228.45 -45.192)" fill="#413c40"/>
    <path id="Trazado_800230" data-name="Trazado 800230" d="M496.021,125.066a4.124,4.124,0,0,1-.3.481c-1.037,1.5-3.122,2.636-5.737.1-.113-.108-.232-.227-.351-.357-.443-.481-1.885-2.825-.675-3.009a27.666,27.666,0,0,1,3.662.016c1.064-.016,3.268-.184,3.365-.184,1.3,0,.265,2.517.032,2.955" transform="translate(-224.617 -56.149)" fill="#413c40"/>
    <path id="Trazado_800231" data-name="Trazado 800231" d="M497,127.661c-1.037,1.5-3.122,2.636-5.737.1a4.639,4.639,0,0,1,5.737-.1" transform="translate(-225.893 -58.264)" fill="#ef5480"/>
    <path id="Trazado_800232" data-name="Trazado 800232" d="M474,87.49a1.491,1.491,0,0,1-1.324-1.841c.159-.673.794-.979,1.133-1.553a1.92,1.92,0,0,0,.086-2.107c-.1-.137-.37-.157-.409.053a9.937,9.937,0,0,1-.151,1.3c-.2.622-.583.762-.938,1.195a2.238,2.238,0,0,0-.543,1.668,2.075,2.075,0,0,0,2.064,1.881c.338.02.42-.534.081-.6" transform="translate(-216.963 -37.652)" fill="#565055"/>
    <path id="Trazado_800233" data-name="Trazado 800233" d="M480.04,88.25a2.161,2.161,0,0,1,1.087-2.555,2.083,2.083,0,0,1,1.373-.117,4.856,4.856,0,0,0,.976.328.187.187,0,0,0,.179-.235c-.366-1.058-2.215-.874-2.975-.422a2.583,2.583,0,0,0-1.055,3.115.215.215,0,0,0,.415-.115" transform="translate(-220.467 -39.034)" fill="#565055"/>
    <path id="Trazado_800234" data-name="Trazado 800234" d="M492.816,85.838a1.519,1.519,0,0,1,1.945-.548,2.562,2.562,0,0,1,.846,1,2.715,2.715,0,0,0,1.061,1.149c.637.293,1.661.21,1.642-.673a.188.188,0,0,0-.317-.132c-1.309,1.163-2.113-1.581-3.265-1.933a2.059,2.059,0,0,0-2.328.9c-.171.261.241.5.415.243" transform="translate(-226.397 -38.905)" fill="#565055"/>
    <path id="Trazado_800235" data-name="Trazado 800235" d="M493.915,79.748c.885-.669,1.808-1.221,2.819-.249.375.361.572.832,1.059,1.073.534.265,1.447.277,1.556-.452a.262.262,0,0,0-.378-.291c-1.373.6-1.689-1.065-2.827-1.378a2.966,2.966,0,0,0-2.5.939c-.2.159.069.515.276.358" transform="translate(-226.953 -36.046)" fill="#565055"/>
    <path id="Trazado_800236" data-name="Trazado 800236" d="M505.951,86.559a1.533,1.533,0,0,1,1.836.864c.259.451.3,1.113.744,1.416a.247.247,0,0,0,.359-.146,1.606,1.606,0,0,0-.272-1.15,3.36,3.36,0,0,0-.795-1.117,1.955,1.955,0,0,0-2.154-.349c-.327.159-.041.621.281.481" transform="translate(-232.451 -39.496)" fill="#565055"/>
    <path id="Trazado_800237" data-name="Trazado 800237" d="M509.207,81.54c1.283-.251,1.4,1.667,1.672,2.464.177.526.523,1.32,1.187,1.253a.236.236,0,0,0,.2-.349,2.185,2.185,0,0,0-.4-.479,2.626,2.626,0,0,1-.441-.894,7.379,7.379,0,0,0-.472-1.321,1.686,1.686,0,0,0-1.854-1.047.194.194,0,0,0,.1.374" transform="translate(-234.033 -37.299)" fill="#565055"/>
    <path id="Trazado_800238" data-name="Trazado 800238" d="M472.714,97.953a6.638,6.638,0,0,0,.985.315.285.285,0,0,0,.276-.072.279.279,0,0,0,.083-.2.284.284,0,0,0-.14-.245,7.13,7.13,0,0,0-1.046-.368c-.363-.119-.516.449-.157.57" transform="translate(-217.27 -44.771)" fill="#565055"/>
    <path id="Trazado_800239" data-name="Trazado 800239" d="M473.3,101.659a1.8,1.8,0,0,0,.814.175.337.337,0,0,0,.169-.621,1.787,1.787,0,0,0-.789-.254.363.363,0,0,0-.193.7" transform="translate(-217.514 -46.419)" fill="#565055"/>
    <path id="Trazado_800240" data-name="Trazado 800240" d="M511.6,97.1a2.538,2.538,0,0,0,.534-.536c.194-.294-.186-.65-.476-.475a2.547,2.547,0,0,0-.554.516.35.35,0,0,0,.5.5" transform="translate(-234.972 -44.163)" fill="#565055"/>
    <path id="Trazado_800241" data-name="Trazado 800241" d="M511.742,100.962a2.592,2.592,0,0,0,.711-.013.347.347,0,0,0,.247-.247.425.425,0,0,0,0-.188.347.347,0,0,0-.247-.247,2.571,2.571,0,0,0-.711-.013.355.355,0,0,0,0,.709" transform="translate(-235.152 -46.09)" fill="#565055"/>
    <path id="Trazado_800242" data-name="Trazado 800242" d="M134.578,118.462c3.672-4.072,9.484-8.191,14.847-7.045,11.664,2.493,12.37,11.757,12.093,14.835-.641,7.117.985,13.254,2.735,14.029-.951,1.665-6.054,2.509-10.241,2.157-2.27-.191-4.962-.086-7.232-.277-3.125-.263-7.276-.907-10.081-2.31-8.193-4.1-7.31-15.634-2.121-21.391" transform="translate(-60.057 -51.142)" fill="#543577"/>
    <path id="Trazado_800243" data-name="Trazado 800243" d="M95.869,253.487c-3.8.037-11.925-.495-15.739,0-5.174.671-32.692,7.356-36.109,8.969s-6.482,4.18-5.489,9.587c.083.066,7.384,27.855,10.347,36.35.126.363,5.6.02,7.37-.451-1.5-4.318-2.284-10.563-2.679-20.952-.337-8.884-2.518-13.248-2.518-13.248,6.114.678,42.552-.849,43.148-3.275,1.431-5.82,9.063-17.05,1.668-16.979" transform="translate(-17.631 -116.461)" fill="#f2775a"/>
    <path id="Trazado_800244" data-name="Trazado 800244" d="M57.91,361.523c-2.928.505-16.908.677-17.865.278-1.452-.606-1.288-1.979.256-2.72a49.123,49.123,0,0,1,5.815-1.886c1.952-.676,3.432-.8,2.5-3.432-.609-1.711,7.643-3.5,8.394-.642.766,2.919,3.679,7.924.905,8.4" transform="translate(-17.953 -161.68)" fill="#82c1d0"/>
    <path id="Trazado_800245" data-name="Trazado 800245" d="M50.335,363.552q.512.414,1.025.829a2.609,2.609,0,0,0,.962.621.205.205,0,0,0,.229-.3,2.62,2.62,0,0,0-.866-.744c-.361-.25-.725-.5-1.088-.745-.2-.136-.452.184-.261.338" transform="translate(-23.114 -166.998)" fill="#a4e3ed"/>
    <path id="Trazado_800246" data-name="Trazado 800246" d="M54.507,363.183a4.136,4.136,0,0,1,.837.436c.233.158.44.438.718.5a.269.269,0,0,0,.327-.327c-.106-.32-.475-.506-.757-.663a4.71,4.71,0,0,0-1-.408c-.3-.087-.411.355-.128.464" transform="translate(-24.988 -166.781)" fill="#a4e3ed"/>
    <path id="Trazado_800247" data-name="Trazado 800247" d="M57.963,360.98c.493.276,1.017.494,1.518.756.37.193.75.57,1.167.343a.218.218,0,0,0,.111-.193c-.048-.5-.605-.606-1.013-.781a8.8,8.8,0,0,0-1.6-.564.242.242,0,0,0-.185.44" transform="translate(-26.598 -165.781)" fill="#a4e3ed"/>
    <path id="Trazado_800248" data-name="Trazado 800248" d="M58.553,357.69c.725.061,1.45.129,2.173.212a6.489,6.489,0,0,0,2.006.154c.218-.046.207-.322.057-.432a3.684,3.684,0,0,0-1.957-.32c-.759-.027-1.52-.035-2.279-.036a.211.211,0,0,0,0,.422" transform="translate(-26.83 -164.279)" fill="#a4e3ed"/>
    <path id="Trazado_800249" data-name="Trazado 800249" d="M152.439,304.935c-3.129-.554-22.238-1.692-23.937-1.792a38.76,38.76,0,0,0-7.223.308c4.817-12.024,23.681-28.039,25.242-43.654,1.165-11.653-14.816-3.228-21.694-2.611-1.46.131-3.512-2.105-9.759,19.836-2.5,8.769-6.443,22.619-5.086,33.1.124,2.654,2.1,4.46,3.519,4.423,2.8.412,27.091-2.694,39.715-4.982.371-.068.623-4.378-.777-4.626" transform="translate(-50.445 -116.641)" fill="#f2775a"/>
    <path id="Trazado_800250" data-name="Trazado 800250" d="M193.961,345.855c.558.348,1.12,8.886-.6,12.1-1.487,2.775-3.521,4.418-6.015,3.621-1.676-.541,1.673-3.909,1.858-5.822.026-.27.115-2.008-3.024-2.841-.655-.173-.547-6.069-.556-6.416-.017-.741,6.638-1.7,8.337-.639" transform="translate(-85.353 -158.815)" fill="#82c1d0"/>
    <path id="Trazado_800251" data-name="Trazado 800251" d="M192.858,366.809a4.2,4.2,0,0,1,1.457-.394c.353-.03.72.084.984-.191a.227.227,0,0,0,0-.311c-.277-.344-.851-.179-1.23-.089a4.622,4.622,0,0,0-1.424.62.211.211,0,0,0,.213.365" transform="translate(-88.535 -168.159)" fill="#a4e3ed"/>
    <path id="Trazado_800252" data-name="Trazado 800252" d="M193.781,363.46a3.089,3.089,0,0,1,.88-.344,4.946,4.946,0,0,0,.873-.14c.149-.062.239-.307.051-.393a2.383,2.383,0,0,0-2.035.484.228.228,0,0,0,.23.394" transform="translate(-88.95 -166.679)" fill="#a4e3ed"/>
    <path id="Trazado_800253" data-name="Trazado 800253" d="M192.385,359.791l1.441-1.083c.378-.284-.048-.836-.4-.514l-1.33,1.226c-.193.178.069.534.286.371" transform="translate(-88.3 -164.66)" fill="#a4e3ed"/>
    <path id="Trazado_800254" data-name="Trazado 800254" d="M190.2,357.1q.291-.631.617-1.246c.172-.32.458-.653.358-1.031a.2.2,0,0,0-.244-.138c-.4.123-.523.576-.688.923-.2.419-.384.845-.56,1.274-.12.294.383.508.518.218" transform="translate(-87.213 -163.09)" fill="#a4e3ed"/>
    <path id="Trazado_800255" data-name="Trazado 800255" d="M76.5,256.139a13.3,13.3,0,0,0,.25,11.571c3.848,6.912,9.062,3.286,10.015,6.031,2.331,6.714,5.095,6.953,7.6,6.987,4.314.06,1.748,6.493,9.219,8.148,2.472.548,7.568-1.4,10.024-2.022,4.055-1.021,7.69,2.6,11.871,2.516s8.283-1.386,10.351-5.021c-3.18-3.123-4.14-10.161-4.8-14.569-.373-2.5-.509-5.473-2.636-6.842a7.688,7.688,0,0,0-2.973-.9c-7.915-1.3-15.9-3.789-21.979-9.022a9.455,9.455,0,0,0-3.672-2.4c-3.1-.752-6,1.944-9.036,2.1-.984.052-13.433,1.906-14.236,3.419" transform="translate(-34.625 -115.178)" fill="#543577"/>
    <path id="Trazado_800256" data-name="Trazado 800256" d="M86.462,272.563a16.545,16.545,0,0,0,5.256-2.275.148.148,0,0,0-.149-.255,33.9,33.9,0,0,1-5.195,2.213.165.165,0,0,0,.088.318" transform="translate(-39.663 -124.158)" fill="#442c66"/>
    <path id="Trazado_800257" data-name="Trazado 800257" d="M93.716,281.346a28.726,28.726,0,0,0,8.064-4.2c.193-.153-.056-.463-.261-.338a48.794,48.794,0,0,1-7.9,4.2c-.21.081-.122.421.094.342" transform="translate(-42.994 -127.268)" fill="#442c66"/>
    <path id="Trazado_800258" data-name="Trazado 800258" d="M112.435,289.857a15.44,15.44,0,0,0,4.742-5.86c.092-.209-.2-.392-.313-.183a18.591,18.591,0,0,1-4.727,5.745c-.214.168.086.463.3.3" transform="translate(-51.529 -130.461)" fill="#442c66"/>
    <path id="Trazado_800259" data-name="Trazado 800259" d="M123.527,295.539c.8-3.017,2.313-5.454,3.572-8.251.091-.2-.157-.447-.331-.255-2,2.193-3.1,5.525-3.835,8.343a.308.308,0,0,0,.594.164" transform="translate(-56.522 -131.951)" fill="#442c66"/>
    <path id="Trazado_800260" data-name="Trazado 800260" d="M139.4,290.313c1.019,4.5-.694,8.257-2.1,12.4-.086.255.322.433.44.185,1.883-3.962,3.185-8.364,2.169-12.729-.077-.333-.588-.192-.513.141" transform="translate(-63.131 -133.339)" fill="#442c66"/>
    <path id="Trazado_800261" data-name="Trazado 800261" d="M153.988,291.435c.014,3.571-.19,7.645.754,11.11a.267.267,0,0,0,.522-.071c.134-3.631-.579-7.384-.651-11.039a.312.312,0,0,0-.624,0" transform="translate(-70.802 -133.869)" fill="#442c66"/>
    <path id="Trazado_800262" data-name="Trazado 800262" d="M166.2,292.137c.494,3.123.953,6.578,2.236,9.49.167.378.656.079.609-.257-.438-3.144-1.576-6.287-2.308-9.381-.084-.355-.591-.2-.537.148" transform="translate(-76.421 -134.17)" fill="#442c66"/>
    <path id="Trazado_800263" data-name="Trazado 800263" d="M151.359,170.159c1.168.81,2.368,1.906,2.4,3.328a5.022,5.022,0,0,1-1.168,2.812c-4.874,7.113-9.577,18.408-9.5,26.944.01,1.074.644,16.96,2.551,23.644-1.127,7.14-15.929-.7-25.991-.742-10.341-.041-16.943-9.034-15.87-12.814,1.653-5.822,7.28-10.605,6.122-20.1-.611-5.009-1.349-8.041.081-12.986,1.094-3.784,8.462-13.647,9.032-13.729,6.359-.912,11.662-2.219,18.067-1.479a35.549,35.549,0,0,1,14.274,5.121" transform="translate(-47.67 -75.788)" fill="#82c1d0"/>
    <path id="Trazado_800264" data-name="Trazado 800264" d="M119.179,201.356c.841,4.372,6.087,5.85,9.914,4.632a.186.186,0,0,0-.05-.365c-3.761.058-8.439.356-9.538-4.357-.05-.213-.366-.122-.326.09" transform="translate(-54.799 -92.491)" fill="#69a8b2"/>
    <path id="Trazado_800265" data-name="Trazado 800265" d="M145.443,208.053c1.4,3.2,5.345,5.278,8.647,3.5.257-.138.076-.515-.192-.455-3.372.747-6.439.057-8.1-3.251-.121-.241-.461-.03-.357.209" transform="translate(-66.869 -95.522)" fill="#69a8b2"/>
    <path id="Trazado_800266" data-name="Trazado 800266" d="M123.148,219.746a76.911,76.911,0,0,0,7.056,9.721c2.125,2.487,4.5,5.541,7.629,6.78.261.1.364-.275.176-.416-5.919-4.448-10.464-10.114-14.636-16.216-.094-.138-.315-.014-.226.132" transform="translate(-56.617 -100.956)" fill="#69a8b2"/>
    <path id="Trazado_800267" data-name="Trazado 800267" d="M125.7,238.4a22.342,22.342,0,0,0,6.374,5.555c.172.089.389-.151.22-.285a41.5,41.5,0,0,1-6.271-5.592c-.19-.224-.51.1-.322.323" transform="translate(-57.773 -109.438)" fill="#69a8b2"/>
    <path id="Trazado_800268" data-name="Trazado 800268" d="M154.516,157.064c1.365.316,1.47,1.2,1.958,2.515a2.638,2.638,0,0,1-.287,2.073,9.206,9.206,0,0,1-4.626,3.909,18.741,18.741,0,0,1-11.51,1.207,8.044,8.044,0,0,1-4.673-2.464,3.847,3.847,0,0,1-.119-4.924c1.661-1.72,4.315-.83,5.486-2.915a50,50,0,0,0,1.427-8.646c.055-2.107,8.63-2.085,10.027-.369,2.587,3.179-3.564,8.252,2.318,9.614" transform="translate(-61.81 -67.225)" fill="#f2775a"/>
    <path id="Trazado_800269" data-name="Trazado 800269" d="M141.163,171.664a8.086,8.086,0,0,1,2.76.731c.649.3,1.153.792,1.772,1.117.172.09.427-.062.353-.272-.259-.735-1.187-1.119-1.848-1.4a8.745,8.745,0,0,0-3.037-.7c-.339-.014-.333.5,0,.523" transform="translate(-64.794 -78.694)" fill="#e26b50"/>
    <path id="Trazado_800270" data-name="Trazado 800270" d="M154.842,174.577c1.761-1,4.033-.474,5.932-.872a.234.234,0,0,0,0-.448,11.454,11.454,0,0,0-3.589.147,7.023,7.023,0,0,0-2.624.691.279.279,0,0,0,.281.481" transform="translate(-71.008 -79.623)" fill="#e26b50"/>
    <path id="Trazado_800271" data-name="Trazado 800271" d="M154.641,137.209c-1.218,1.843-3.315,2.936-5.226,4.044s-5.892,2.2-7.9,1.285c-2.046-.932-3.015-2.89-3.422-5.1a19.771,19.771,0,0,1-.028-7.649,17.083,17.083,0,0,1,4.439-8.209c2.469-2.289,6.255-3.347,9.327-1.971,7.3,3.269,5.864,12.986,2.813,17.6" transform="translate(-63.316 -54.715)" fill="#ff8966"/>
    <path id="Trazado_800272" data-name="Trazado 800272" d="M153.7,120.189c.5,1.989-.267,6.125.849,7.847a6.388,6.388,0,0,0,5.005,3.141,19.677,19.677,0,0,0-1.327-11.314,8.438,8.438,0,0,0-2.82-3.766,7.736,7.736,0,0,0-3.738-1.131,13.767,13.767,0,0,0-14.545,11.105c.862.453,2.672.261,3.637.265a18.663,18.663,0,0,0,4.274-.487c.851-.2,8.951-4.525,8.664-5.66" transform="translate(-63.054 -52.847)" fill="#543577"/>
    <path id="Trazado_800273" data-name="Trazado 800273" d="M172.141,140.238c-1.33-1.931-3.29-.14-4.178,1.955,0,0-2.412,6.147,2.606,3.628,1.77-.888,2.814-4.148,1.572-5.584" transform="translate(-76.966 -64.105)" fill="#ff8966"/>
    <path id="Trazado_800274" data-name="Trazado 800274" d="M160.561,140.356a.837.837,0,1,1-.124-1.315.949.949,0,0,1,.124,1.315" transform="translate(-73.108 -63.887)" fill="#543577"/>
    <path id="Trazado_800275" data-name="Trazado 800275" d="M145.524,136.961a.837.837,0,1,1-.124-1.315.95.95,0,0,1,.124,1.315" transform="translate(-66.194 -62.326)" fill="#543577"/>
    <path id="Trazado_800276" data-name="Trazado 800276" d="M148.541,138.783a4.056,4.056,0,0,1-1.158,1.421,8.478,8.478,0,0,0-1.26.935c-.55.7.488,1.566,1.067,1.809.357.15.537-.352.341-.586-.154-.183-.333-.325-.492-.5-.272-.3-.2-.206.037-.416.271-.245.594-.435.867-.681a3.423,3.423,0,0,0,1.069-1.782c.065-.27-.347-.476-.47-.2" transform="translate(-67.118 -63.755)" fill="#e26b50"/>
    <path id="Trazado_800277" data-name="Trazado 800277" d="M159.626,132.826a3.8,3.8,0,0,1,1.85.352c.406.193.765.655,1.22.654a.179.179,0,0,0,.177-.177c-.03-.569-.79-.878-1.253-1.059a3.871,3.871,0,0,0-2.051-.184c-.235.037-.18.427.056.414" transform="translate(-73.304 -60.858)" fill="#543577"/>
    <path id="Trazado_800278" data-name="Trazado 800278" d="M172.374,143.181c.225-.073.485.414.526.556a1.682,1.682,0,0,1,.064.4,1.936,1.936,0,0,1-.186.9c-.245.526-.731.672-1.052,1.092-.139.183.057.4.237.413.924.088,1.534-1.343,1.576-2.083.033-.608-.406-2.176-1.3-1.59-.157.1-.062.38.133.316" transform="translate(-78.942 -65.633)" fill="#e26b50"/>
    <path id="Trazado_800279" data-name="Trazado 800279" d="M145.76,148.3a6.648,6.648,0,0,0,1.065,4.615c1.934,1.419,3.13-2.695,3.243-3.531Z" transform="translate(-66.987 -68.19)" fill="#fff"/>
    <path id="Trazado_800280" data-name="Trazado 800280" d="M170.519,125.784c.027,1.027.145,2.055.25,3.078a11.98,11.98,0,0,0,.405,2.7.221.221,0,0,0,.431-.058,13.55,13.55,0,0,0-.217-3.078c-.106-.9-.2-1.812-.372-2.706-.053-.282-.505-.215-.5.068" transform="translate(-78.408 -57.724)" fill="#6a4c9b"/>
    <path id="Trazado_800281" data-name="Trazado 800281" d="M173.375,123.522a17.592,17.592,0,0,1,1.527,3.652c.319,1.132.407,2.31.72,3.437a.148.148,0,0,0,.29-.039c.232-2.465-.965-5.17-2.15-7.276a.224.224,0,0,0-.386.226" transform="translate(-79.708 -56.644)" fill="#6a4c9b"/>
    <path id="Trazado_800282" data-name="Trazado 800282" d="M176.087,122.594c2.983,2.874,3.336,6.176,3.218,10.081-.006.221.284.225.357.049,1.49-3.619-.506-8.03-3.216-10.488-.24-.218-.594.131-.358.358" transform="translate(-80.933 -56.175)" fill="#6a4c9b"/>
    <path id="Trazado_800283" data-name="Trazado 800283" d="M183.284,148.693a18.091,18.091,0,0,0,1.5,8.188c.109.221.438.062.386-.163a38.6,38.6,0,0,1-1.367-8.025.258.258,0,0,0-.515,0" transform="translate(-84.276 -68.258)" fill="#6a4c9b"/>
    <path id="Trazado_800284" data-name="Trazado 800284" d="M177.5,152.227a9.769,9.769,0,0,0,.545,5.353.225.225,0,0,0,.417-.113,32.421,32.421,0,0,1-.463-5.24c.022-.324-.462-.312-.5,0" transform="translate(-81.561 -69.887)" fill="#6a4c9b"/>
    <path id="Trazado_800285" data-name="Trazado 800285" d="M172.373,157.7a5.131,5.131,0,0,0,.819,3.066.3.3,0,0,0,.5-.209,10.051,10.051,0,0,0-.346-1.293,7.244,7.244,0,0,1-.218-1.564c-.017-.487-.775-.49-.759,0" transform="translate(-79.26 -72.347)" fill="#6a4c9b"/>
    <path id="Trazado_800286" data-name="Trazado 800286" d="M141.2,128.376c4.131-.089,8.988-1.136,12.15-3.981.158-.142-.043-.361-.214-.278-4,1.934-7.376,3.622-11.935,3.863a.2.2,0,0,0,0,.4" transform="translate(-64.839 -57.063)" fill="#6a4c9b"/>
    <path id="Trazado_800287" data-name="Trazado 800287" d="M144.784,123.241c3.445.387,6.81-1.884,9.891-3.124.144-.058.146-.314-.04-.3-3.54.3-6.108,3.371-9.851,3.152-.176-.01-.169.252,0,.27" transform="translate(-66.515 -55.095)" fill="#6a4c9b"/>
    <path id="Trazado_800288" data-name="Trazado 800288" d="M155.432,117.676a6.819,6.819,0,0,1,3.375-1.076,14.864,14.864,0,0,1,3.165.547.174.174,0,0,0,.133-.317c-1.9-1.463-5.078-.742-6.921.423-.266.168-.022.59.247.423" transform="translate(-71.305 -53.345)" fill="#6a4c9b"/>
    <path id="Trazado_800289" data-name="Trazado 800289" d="M159.205,113.786a4.4,4.4,0,0,1,2.933-.308,8.736,8.736,0,0,1,2.2,1.191.149.149,0,0,0,.2-.2c-.952-1.834-3.95-1.8-5.529-1.009-.22.111-.027.431.192.328" transform="translate(-73.073 -51.933)" fill="#6a4c9b"/>
    <path id="Trazado_800290" data-name="Trazado 800290" d="M134.477,138.065c-.655,2.022-1.039,4.761.1,6.682a.221.221,0,0,0,.409-.111c-.069-1.016-.372-1.991-.427-3.014a11.732,11.732,0,0,1,.334-3.443.215.215,0,0,0-.415-.115" transform="translate(-61.547 -63.416)" fill="#6a4c9b"/>
    <path id="Trazado_800291" data-name="Trazado 800291" d="M193.319,199.563c1.059,1.583,2.935,4.331,1.979,5.978-3.693,6.363-25.811,14.214-26.5,15.39-.985,1.681-3.19,1.88-4.227,2.293-3.247,1.292-5.919,1.985-6.282,1.269-.125-.857,3.85-1.515,3.572-1.927-2.964.5-6.207,1.466-6.263.7s5.377-1.9,5.4-2.4c-.231-.6-5.525,1.29-5.57.117.265-.948,5.927-1.8,5.578-2.332,0,0-5.433.46-5.236-.231.861-.925,6.256-1.4,8.066-1.766-.251-1.72-2.538-1.778-1.394-3.493.986.69,2.167.806,2.791,1.576s1.172,1.8,2.139,2.021c.635.142,12.868-9.515,17.2-13.527-5.352-5-11.239-8.971-13.941-15.78a10.528,10.528,0,0,1-1-5.063c.292-2.405,1.443-3.9,3.935-4.1,2.942-.234,4.926,2.506,6.415,4.725,4.316,6.431,9.026,10.1,13.333,16.538" transform="translate(-71.47 -81.98)" fill="#f2775a"/>
    <path id="Trazado_800292" data-name="Trazado 800292" d="M191.763,180.788c.859,1.47,9.292,8.689,9.184,9.6-.076.646-11.941,8.009-18.054,9.8-.291.085-4.972-10.315-6.739-15.1a15.35,15.35,0,0,1-1.024-3.7c-.366-3.558,3.3-9.156,6.874-9.13,4.265.03,7.747,5.089,9.759,8.532" transform="translate(-80.516 -79.207)" fill="#82c1d0"/>
    <path id="Trazado_800293" data-name="Trazado 800293" d="M177.556,194.87c-2.536-3.373-4.071-8.722-1.063-12.274.105-.125-.029-.336-.184-.239-4.163,2.6-1.361,9.861.9,12.778.151.2.495-.066.345-.266" transform="translate(-80.086 -83.84)" fill="#69a8b2"/>
    <path id="Trazado_800294" data-name="Trazado 800294" d="M180.7,196.305c-1.323-2.923-.919-5.457-.141-8.43a.2.2,0,0,0-.355-.15c-1.633,2.582-1.18,6.2.1,8.809.131.266.513.033.394-.23" transform="translate(-82.378 -86.278)" fill="#69a8b2"/>
    <path id="Trazado_800295" data-name="Trazado 800295" d="M212.532,223.7a9.785,9.785,0,0,1,1.609-.278c.452-.035.907.019,1.353-.057.266-.045.223-.426,0-.5a5.562,5.562,0,0,0-3.107.3.274.274,0,0,0,.146.529" transform="translate(-97.571 -102.423)" fill="#e26b50"/>
    <path id="Trazado_800296" data-name="Trazado 800296" d="M92.227,123.56c13.511-5.923,15.526-7.617,22.893-12.613a17.771,17.771,0,0,1,2.934-1.39c2.4-.8,1.793-4.792,2.035-5.72.706-2.714,6.131-.949,4.678-3.069-6.537-2.736-9.993,1.75-10.723,6.176-7.214,3.8-14.98,4.857-23.529,8.116-4.523,1.724-10.7,4.176-9.013,8.713,4.668,12.543,10.925,17.413,13.185,19.329,6.263,5.311,14.671.473,8.419-6.757-1.706-1.973-12.4-12.118-10.878-12.785" transform="translate(-37.345 -45.951)" fill="#ff8966"/>
    <path id="Trazado_800297" data-name="Trazado 800297" d="M103.74,176.64c-2.034-1.631-2.344-2.75-4.951-2.74s-5.3.212-7.74-.708-4.547-3.389-4.035-5.945A8.743,8.743,0,0,1,87.969,165c2.636-5.084,9.425-14.784,11.4-13.3,1.808,1.6,1.487,3.439,3.822,4.039,3.028.778,4.118,3.047,5.164,2.862,2.026-.357,3.8-.281,5.277,1.458-10.143,11.573-8.648,17.567-9.887,16.573" transform="translate(-39.975 -69.688)" fill="#82c1d0"/>
    <path id="Trazado_800298" data-name="Trazado 800298" d="M116.019,183.871c.183-4.972,7.259-5.483,7.795-10.543.019-.185-.24-.184-.3-.04a9.433,9.433,0,0,1-2.947,4.338c-.9.705-1.912,1.267-2.777,2.015a4.761,4.761,0,0,0-1.984,4.231.106.106,0,0,0,.211,0" transform="translate(-53.235 -79.633)" fill="#69a8b2"/>
    <path id="Trazado_800299" data-name="Trazado 800299" d="M113.124,185.565c.176-1.06.156-2.122.258-3.189a8.384,8.384,0,0,1,1.187-3.209.175.175,0,0,0-.237-.237c-2.08,1.087-1.464,4.75-1.481,6.6,0,.152.247.2.273.037" transform="translate(-51.858 -82.266)" fill="#69a8b2"/>
    <path id="Trazado_800300" data-name="Trazado 800300" d="M93.009,142.705a14.016,14.016,0,0,1,2.885.513.292.292,0,0,0,.155-.562,14.767,14.767,0,0,0-3.04-.483c-.343-.019-.339.507,0,.532" transform="translate(-42.65 -65.374)" fill="#f2775a"/>
    <path id="Trazado_800301" data-name="Trazado 800301" d="M230.723,230.437c3.8,17.247,2.358,30.272-2.132,46.6,5.483,2.521,8.465,2.786,21.935,4.267,9.5,1.045,22.546-2.156,22.254-3.387-4.252-17.944-5.419-23.332-3.415-41.664.158-1.443,4.707-13.77,3.965-15.018-.477-.8-6.534-5.067-13.3-5.783-9.928-1.05-8.773,0-17.875-.308-2.239-.076-8.43,1.249-10.061,1.805-5.21,1.779-2.95,6.319-1.37,13.49" transform="translate(-105.111 -98.848)" fill="#76869d"/>
    <path id="Trazado_800302" data-name="Trazado 800302" d="M270.122,269.042a31.148,31.148,0,0,0,10.046,8.163c.308.159.582-.307.272-.466a30.806,30.806,0,0,1-9.936-8.078c-.218-.271-.6.114-.382.382" transform="translate(-124.178 -123.493)" fill="#5e6f84"/>
    <path id="Trazado_800303" data-name="Trazado 800303" d="M252.764,282.933c5.1,3.059,10.459,6.159,16.565,6.28a.27.27,0,0,0,0-.54c-6.007-.119-11.281-3.2-16.292-6.206a.27.27,0,0,0-.273.467" transform="translate(-116.167 -129.866)" fill="#5e6f84"/>
    <path id="Trazado_800304" data-name="Trazado 800304" d="M255.714,302.116c1.783-.744,4.009-.6,5.913-.627,2.059-.031,4.116.029,6.171.16.347.022.346-.518,0-.54-2.234-.143-4.47-.2-6.708-.15-1.8.04-3.828-.07-5.52.636-.316.132-.177.655.144.521" transform="translate(-117.434 -138.379)" fill="#5e6f84"/>
    <path id="Trazado_800305" data-name="Trazado 800305" d="M244.571,219.687c-3.083,5.368,4.838,12.653,9.826,13.047a.161.161,0,0,0,.081-.3c-2.308-1.147-4.452-1.905-6.355-3.747-2.314-2.241-4.288-5.56-3.089-8.807.1-.273-.322-.439-.463-.2" transform="translate(-112.14 -100.962)" fill="#5e6f84"/>
    <path id="Trazado_800306" data-name="Trazado 800306" d="M271.077,237.049a11.62,11.62,0,0,0,12.5-8.083c.107-.328-.4-.459-.513-.142-1.926,5.308-6.4,7.958-11.942,7.909-.175,0-.226.289-.043.315" transform="translate(-124.594 -105.135)" fill="#5e6f84"/>
    <path id="Trazado_800307" data-name="Trazado 800307" d="M248.385,215.72a11.39,11.39,0,0,0,10.9,7.964c3.856.08,10.116-2.027,11.6-5.588a7.712,7.712,0,0,0,.412-3.876c-.675-2.21-3.682-2.135-4.485-4.3a10.006,10.006,0,0,1-.192-3.533,1.361,1.361,0,0,0-.273-.98,1.464,1.464,0,0,0-.909-.321l-6.44-.729c-4.732-.536-7.922-2.683-7.72,3.721.109,3.441-4.2,3.287-2.893,7.644" transform="translate(-114.099 -93.609)" fill="#f2775a"/>
    <path id="Trazado_800308" data-name="Trazado 800308" d="M321.253,287.6c2.258,6.964,2.333,14.347,4.592,21.311.38,1.171,2.97,3.6,3.871,4.438,1.246,1.16,5.572,5.015,5.572,5.523,0,1.743-4.852-3.183-5.307-2.459,0,1.077,3.841,6.416,3.841,7.266-.635.923-2.975-1.91-5.557-4.479-1.071.536,2.981,5.852,2.4,6.919-1.125.373-3.444-3.588-5.918-6.18.184,2.642,2.543,7.088.112,7.088-1.531-1.264-2.337-7.236-3.421-9.808-.32,1.605-2.431,5.05-4.051,3.779-.425-.562,1.656-3.057,1.981-5.489.421-3.145.781-3.674-.45-6.6-3.4-8.075-5.924-16.378-8.913-25.992-3.107-9.993-6.875-15.072-9.189-22.886-.425-1.436-.823-3.068-.066-4.36a5.11,5.11,0,0,1,2.64-1.893,29.708,29.708,0,0,1,9.427-2.126c2.407,5.773,2.486,9.946,3.76,16.05,1.316,6.307,2.688,13.777,4.682,19.9" transform="translate(-138.093 -115.714)" fill="#ff8966"/>
    <path id="Trazado_800309" data-name="Trazado 800309" d="M313.749,245.566c-1.486,2.161-6.706,3.633-10.061,4.023-2,.232-3.722.745-5.269-.543-1.111-.925-1.3-2.533-1.38-3.977-.274-4.738-2.148-25.929,5.231-22.232,8.17,4.093,11.747,22.339,11.479,22.73" transform="translate(-136.395 -102.267)" fill="#76869d"/>
    <path id="Trazado_800310" data-name="Trazado 800310" d="M301.949,257.671a64.808,64.808,0,0,0,.837-15.529c-.025-.344-.555-.351-.54,0a90.328,90.328,0,0,1-.6,15.487c-.022.173.277.215.307.042" transform="translate(-138.701 -111.222)" fill="#5e6f84"/>
    <path id="Trazado_800311" data-name="Trazado 800311" d="M303.938,260.75c.922-2.537,1.968-4.983,2.993-7.476.089-.216-.258-.35-.37-.156a26.659,26.659,0,0,0-2.818,7.578.1.1,0,0,0,.2.054" transform="translate(-139.666 -116.346)" fill="#5e6f84"/>
    <path id="Trazado_800312" data-name="Trazado 800312" d="M319.608,306.678a2.831,2.831,0,0,0,2.459.964c.5-.083.414-.795,0-.925-.344-.109-.717-.1-1.068-.2s-.666-.259-1.019-.325c-.25-.047-.558.23-.372.483" transform="translate(-146.936 -140.792)" fill="#f2775a"/>
    <path id="Trazado_800313" data-name="Trazado 800313" d="M185.572,245.443c-.492,1.064-1.621,2.75-.99,4.55s2.41,2.829,4.231,3.41,4.522.062,6.427-.1c8.3-.688,24.1-2.859,24.1-2.859.675,1.553,3.242,1.036,2.743,1.747-.524.747.846,1.151,1.164,1.254,1.941.63,6.519-1.183,5.432-5.707-.082-.339-.758-5.406-3.784-4.123-.31.131-5.093,1.065-5.429,1.084-8.5.473-10.907-.923-19.4-.45,4.16-1.226,7.679-3.39,11.62-5.2a11.455,11.455,0,0,0,3.179-1.931c1.285-1.424,1.342-3.553,1.169-5.463-1.78-19.687-27.175,6.685-30.46,13.784" transform="translate(-84.789 -103.227)" fill="#ff8966"/>
    <path id="Trazado_800314" data-name="Trazado 800314" d="M206.533,229.86c1,.853,9.429,10.284,10.5,10.02.662-.165,7.313-2.884,8.272-3.856,1.688-1.71,2.711-5.64,1.895-9.049-1.628-6.8-3.378-9.123-5.251-8.441-10.466,3.81-15.711,11.071-15.412,11.326" transform="translate(-94.962 -100.434)" fill="#76869d"/>
    <path id="Trazado_800315" data-name="Trazado 800315" d="M235.061,242.98a63.54,63.54,0,0,0-.663-10.856c-.039-.266-.5-.206-.473.064.317,3.6.549,7.187.781,10.792a.177.177,0,0,0,.354,0" transform="translate(-107.563 -106.657)" fill="#5e6f84"/>
    <path id="Trazado_800316" data-name="Trazado 800316" d="M228.287,239.912a28.661,28.661,0,0,0,2.476,5.965.28.28,0,0,0,.509-.214,28.836,28.836,0,0,0-2.468-5.968.284.284,0,0,0-.517.218" transform="translate(-104.965 -110.153)" fill="#5e6f84"/>
    <path id="Trazado_800317" data-name="Trazado 800317" d="M200.151,261.757a9.226,9.226,0,0,1,2.414-.385,20.9,20.9,0,0,0,2.181.135.23.23,0,0,0,.115-.425c-1.282-.862-3.517-.375-4.862.12-.34.126-.208.658.153.554" transform="translate(-91.873 -119.834)" fill="#f2775a"/>
    <path id="Trazado_800318" data-name="Trazado 800318" d="M255.761,274.427a1.22,1.22,0,0,0,1.194.247c.371-.1.9-.433.748-.892a.262.262,0,0,0-.248-.189c-.273.018-.442.222-.678.331a1.227,1.227,0,0,1-.744.038c-.257-.053-.488.264-.271.466" transform="translate(-117.565 -125.803)" fill="#f2775a"/>
    <path id="Trazado_800319" data-name="Trazado 800319" d="M252.483,196.718c2.515,2.129,6.271,3.123,9.17,1.555,2.75-1.488,3.983-4.745,4.666-7.8a44.1,44.1,0,0,0,1.065-9.777,17.526,17.526,0,0,0-.864-6.014,11.306,11.306,0,0,0-13.329-6.69c-12.91,3.822-8.385,22.221-.707,28.723" transform="translate(-112.68 -77.063)" fill="#ff8966"/>
    <path id="Trazado_800320" data-name="Trazado 800320" d="M265.013,177.74c-.465,1.282-.62,4.931.639,5.454.361-1.662,1.839-3.982,2.2-5.644a13.042,13.042,0,0,0,5.723-1.437c-1.946-1.4-2.394-2.621-4.339-4.024.359-.29,3.925-.75,5.24-1.86-5.24-1.557-7.186-8.995-19.393-7.778-5.206.519-7.7,3.625-8.207,3.68-4.915.535-5.591,6.249-5.591,8.494,0,4.525-.007,3.825,1.328,8.561.408,1.448,2.65,1.015,4.146.863,1.825-.186-1.971-7.409,2.252-9.423,5.33-2.543,9.3,4.638,16,3.116" transform="translate(-110.948 -74.637)" fill="#2b2251"/>
    <path id="Trazado_800321" data-name="Trazado 800321" d="M246.516,197.129s-1.072-2.378-2.669-2.115c-.821.136-1.349,1.539-1.022,3.566a5.241,5.241,0,0,0,1.062,2.584,3.169,3.169,0,0,0,2.3,1.5c1.257.025,1.684-2.022.334-5.537" transform="translate(-111.611 -89.662)" fill="#ff8966"/>
    <path id="Trazado_800322" data-name="Trazado 800322" d="M246.481,198.253c-.338-.451-1-1.308-1.676-.983-.586.281-.5,1.3-.455,1.805a4.363,4.363,0,0,0,1.094,2.585c.31.374,1.155.955,1.381.175a.158.158,0,0,0-.192-.192c-1.07.247-1.686-1.652-1.776-2.463a2.654,2.654,0,0,1,.022-1.232c.306-.574,1.033.241,1.3.534.143.155.429-.055.3-.23" transform="translate(-112.343 -90.676)" fill="#e26b50"/>
    <path id="Trazado_800323" data-name="Trazado 800323" d="M283.459,197.066s1.248-2.355,2.845-2.092c.821.135,1.238,2.55.8,3.836a6.6,6.6,0,0,1-1.037,2.335,3.169,3.169,0,0,1-2.3,1.5c-1.257.025-1.393-2.37-.316-5.582" transform="translate(-130.007 -89.644)" fill="#ff8966"/>
    <path id="Trazado_800324" data-name="Trazado 800324" d="M285.462,198.589c.218-.221.991-.937,1.326-.579.107.114.1.424.109.568a4.283,4.283,0,0,1-.144,1.135c-.181.743-.829,2.248-1.74,2.037a.158.158,0,0,0-.192.192c.223.769,1.078.2,1.381-.175a4.871,4.871,0,0,0,1.125-2.392c.078-.5.19-1.338-.226-1.741-.605-.587-1.54.226-1.907.687-.149.186.092.447.268.268" transform="translate(-130.963 -90.782)" fill="#e26b50"/>
    <path id="Trazado_800325" data-name="Trazado 800325" d="M261.261,199.349a.949.949,0,1,1-.92-1.183,1.076,1.076,0,0,1,.92,1.183" transform="translate(-119.287 -91.121)" fill="#2b2251"/>
    <path id="Trazado_800326" data-name="Trazado 800326" d="M276.224,199.349a.949.949,0,1,1-.92-1.183,1.076,1.076,0,0,1,.92,1.183" transform="translate(-126.167 -91.121)" fill="#2b2251"/>
    <path id="Trazado_800327" data-name="Trazado 800327" d="M268.028,199.776a3.245,3.245,0,0,0,.683,3.051c.449.39.925.2,1.379.463q.218,1.333-.751,1.519l-.322.11a4.643,4.643,0,0,1-1.551.338c-.214,0-.372.3-.188.454.675.557,1.348.125,2.088-.164.723-.282,1.182-.473,1.449-1.263a1.194,1.194,0,0,0-.292-1.409c-.3-.253-.709-.216-1.015-.418a2.756,2.756,0,0,1-.919-2.526.292.292,0,0,0-.562-.155" transform="translate(-122.863 -91.765)" fill="#e26b50"/>
    <path id="Trazado_800328" data-name="Trazado 800328" d="M263.788,214.009a5.065,5.065,0,0,0,2.9,1.28c.773.02,1.926-.212,2.161-1.051a.252.252,0,0,0-.306-.306c-.741.152-1.169.635-2,.613a4.75,4.75,0,0,1-2.444-.939c-.24-.158-.544.223-.312.4" transform="translate(-121.257 -98.203)" fill="#e26b50"/>
    <path id="Trazado_800329" data-name="Trazado 800329" d="M267.408,218.179l.657.068a1.515,1.515,0,0,0,.631.005.28.28,0,0,0,.2-.2.435.435,0,0,0,0-.15.281.281,0,0,0-.2-.2,1.489,1.489,0,0,0-.631.005l-.657.068a.2.2,0,0,0,0,.4" transform="translate(-122.872 -100.091)" fill="#e26b50"/>
    <path id="Trazado_800330" data-name="Trazado 800330" d="M257.444,192.055a4.288,4.288,0,0,1,1.853-1.044c.652-.111,1.09.261,1.694.336.375.046.5-.4.383-.667-.332-.775-1.527-.8-2.227-.618a3.963,3.963,0,0,0-2.154,1.645c-.208.279.219.541.451.348" transform="translate(-118.145 -87.352)" fill="#2b2251"/>
    <path id="Trazado_800331" data-name="Trazado 800331" d="M276.708,191.706a3.96,3.96,0,0,0-2.154-1.645c-.7-.179-1.894-.157-2.227.618-.113.265.008.713.382.667.6-.075,1.043-.447,1.695-.336a4.283,4.283,0,0,1,1.853,1.044c.229.191.661-.066.451-.348" transform="translate(-125.203 -87.352)" fill="#2b2251"/>
    <path id="Trazado_800332" data-name="Trazado 800332" d="M256.528,179.8a16.33,16.33,0,0,1,3.153-.126,8.869,8.869,0,0,1,3.985,1.719,9.5,9.5,0,0,0,4.054,1.538c.272.026.285-.365.061-.448a25.26,25.26,0,0,1-3.212-1.236c-.87-.462-1.633-1.122-2.536-1.523a10.425,10.425,0,0,0-5.5-.363c-.276.031-.283.466,0,.439" transform="translate(-117.86 -82.388)" fill="#3a3475"/>
    <path id="Trazado_800333" data-name="Trazado 800333" d="M259.459,174.925a10.717,10.717,0,0,1,8.561,2.043,6.432,6.432,0,0,0,4.776,1.468c.183-.025.172-.324,0-.358a11.409,11.409,0,0,1-4.472-1.631,16,16,0,0,0-2.488-1.634c-2.037-.908-4.295-.6-6.433-.3-.233.032-.18.443.056.414" transform="translate(-119.21 -80.105)" fill="#3a3475"/>
    <path id="Trazado_800334" data-name="Trazado 800334" d="M260.807,169.46c4.643-.763,8.377.537,12.384,2.761.194.107.426-.162.246-.318-3.4-2.941-8.434-3.588-12.706-2.719-.183.037-.1.306.076.277" transform="translate(-119.841 -77.63)" fill="#3a3475"/>
    <path id="Trazado_800335" data-name="Trazado 800335" d="M270.164,165.1c3.983-.011,6.9,1.4,10.22,3.4a.149.149,0,0,0,.179-.232c-2.592-2.691-6.783-3.685-10.4-3.459a.148.148,0,0,0,0,.3" transform="translate(-124.161 -75.765)" fill="#3a3475"/>
    <path id="Trazado_800336" data-name="Trazado 800336" d="M245.269,180.7a4.567,4.567,0,0,1,.3-2.934,9.275,9.275,0,0,1,1.677-1.937.2.2,0,0,0-.189-.325c-.92.181-1.646,1.239-2,2.045a4.284,4.284,0,0,0-.151,3.252.19.19,0,0,0,.367-.1" transform="translate(-112.495 -80.701)" fill="#3a3475"/>
    <path id="Trazado_800337" data-name="Trazado 800337" d="M249.041,185.939a8.436,8.436,0,0,0,.089-2.641,2.081,2.081,0,0,1,1.286-2.037.171.171,0,0,0-.041-.308c-.731-.266-1.326.491-1.571,1.1-.488,1.213.078,2.516-.2,3.767a.228.228,0,0,0,.44.121" transform="translate(-114.309 -83.18)" fill="#3a3475"/>
    <path id="Trazado_800338" data-name="Trazado 800338" d="M113.819,359.948c-2.3.959-4.1,1.509-5.976,3.152a1.872,1.872,0,0,0-.786,1.286c0,.839.927,1.46,1.765,1.524a118.741,118.741,0,0,0,24.779-.635c-.115-5.474,1.014-8.973,3.31-14.78-1.805-.561-5.144-4.421-6.752-3.174-1.3,1.01-2.774,4.82-3.714,6.145-2.409,3.4-8.858,4.911-12.626,6.482" transform="translate(-49.227 -159.592)" fill="#f0c374"/>
    <path id="Trazado_800339" data-name="Trazado 800339" d="M208.779,304.405c-6.031-4.681-30.6-26.393-36.007-26.393-10.062-.329-16.949,23.574-29.138,41.351,2.787,1.831,7.746,4.29,8.621,4.143,1.012-.169,17.275-20.231,19.571-27.456,4.929,4.794,19.654,22.592,22.1,25.312,3.337,3.709,12.187,5.652,15.562,4.237,3.41-1.43,28.088-18.43,24.85-20.216-7.011-3.864-24.3,0-25.561-.978" transform="translate(-66.046 -127.834)" fill="#221d44"/>
    <path id="Trazado_800340" data-name="Trazado 800340" d="M262.212,338.643a16.725,16.725,0,0,1,.23-3.679c.17-.951.524-1.86.647-2.814.031-.239-.325-.3-.433-.117-1.083,1.847-1.045,4.552-.849,6.611.024.255.417.265.405,0" transform="translate(-120.335 -152.626)" fill="#2b2251"/>
    <path id="Trazado_800341" data-name="Trazado 800341" d="M264.863,339.7a31.777,31.777,0,0,1,1.393-2.886,19.24,19.24,0,0,0,1.366-2.538c.062-.166-.174-.286-.289-.169-1.372,1.4-2.111,3.654-2.763,5.469-.06.169.222.292.293.124" transform="translate(-121.651 -153.606)" fill="#2b2251"/>
    <path id="Trazado_800342" data-name="Trazado 800342" d="M126.61,371.716c.361.406.72.815,1.089,1.213a3.256,3.256,0,0,0,1.093.949.289.289,0,0,0,.353-.353,3.331,3.331,0,0,0-.889-1.153c-.373-.394-.758-.777-1.139-1.163-.327-.332-.813.165-.507.507" transform="translate(-58.174 -170.639)" fill="#76869d"/>
    <path id="Trazado_800343" data-name="Trazado 800343" d="M131.8,370.68c.4.49.861.943,1.309,1.393.384.386.757.913,1.3,1.065a.293.293,0,0,0,.358-.358c-.191-.563-.764-.923-1.193-1.307-.467-.42-.941-.843-1.446-1.217-.264-.2-.507.206-.327.424" transform="translate(-60.577 -170.227)" fill="#76869d"/>
    <path id="Trazado_800344" data-name="Trazado 800344" d="M135.765,368a18.325,18.325,0,0,0,1.6,1.46c.431.348.926.879,1.513.856.122,0,.258-.133.2-.267-.212-.522-.774-.755-1.212-1.073a17.753,17.753,0,0,1-1.678-1.4.3.3,0,0,0-.424.424" transform="translate(-62.387 -168.98)" fill="#76869d"/>
    <path id="Trazado_800345" data-name="Trazado 800345" d="M141.42,365.387c.535.31,1.059.639,1.564,1a4.639,4.639,0,0,0,1.445.91.274.274,0,0,0,.305-.4,3.338,3.338,0,0,0-1.275-1.123c-.544-.361-1.106-.69-1.682-1a.355.355,0,0,0-.358.612" transform="translate(-64.948 -167.71)" fill="#76869d"/>
    <path id="Trazado_800346" data-name="Trazado 800346" d="M179.591,374.751c-2.375,1.346-1.937,4.527.863,5.8.673.306,5.372.5,8.5.4,5.31-.171,7.128-.208,12.533-2.213,3.893-1.443,4.585-7.608.1-9.3-4.083-1.542-18.42,3.293-22,5.32" transform="translate(-81.872 -169.735)" fill="#f0c374"/>
    <path id="Trazado_800347" data-name="Trazado 800347" d="M253.575,350.547c-12.151,5.735-23,6.108-36.741,8.756-5.018.967-8.057-8.016-2.207-9.387,5.119-1.2,21.472-5.615,30.844-13.414,5.72-4.76,17.463-15.829,23.152-5.087,1.583,2.989-2.013,12.979-15.048,19.132" transform="translate(-97.219 -150.304)" fill="#2b2251"/>
    <path id="Trazado_800348" data-name="Trazado 800348" d="M190.831,379.7a3.374,3.374,0,0,0,1.323,2.954c.324.2.786-.213.546-.546a3.989,3.989,0,0,1-1.076-2.408.4.4,0,0,0-.794,0" transform="translate(-87.747 -174.42)" fill="#76869d"/>
    <path id="Trazado_800349" data-name="Trazado 800349" d="M196.686,378.517a10.469,10.469,0,0,0,.412,1.8,3.843,3.843,0,0,0,.69,1.445c.271.285.662-.021.607-.353a8.559,8.559,0,0,0-.608-1.507,14.6,14.6,0,0,1-.5-1.551c-.1-.4-.661-.221-.6.166" transform="translate(-90.438 -173.87)" fill="#76869d"/>
    <path id="Trazado_800350" data-name="Trazado 800350" d="M202.356,377.476a5.677,5.677,0,0,0,.469,2.493c.263.6.661,1.5,1.389,1.559a.213.213,0,0,0,.211-.211c-.015-.58-.563-1.014-.837-1.5a5.741,5.741,0,0,1-.692-2.336.27.27,0,0,0-.54,0" transform="translate(-93.046 -173.451)" fill="#76869d"/>
    <path id="Trazado_800351" data-name="Trazado 800351" d="M206.97,376.884a14.352,14.352,0,0,0,.628,2.016,3.786,3.786,0,0,0,.887,1.54.273.273,0,0,0,.452-.263,6.368,6.368,0,0,0-.67-1.559,15.506,15.506,0,0,1-.727-1.892.3.3,0,0,0-.57.157" transform="translate(-95.164 -173.131)" fill="#76869d"/>
    <path id="Trazado_800352" data-name="Trazado 800352" d="M376.724,210.973c-2.341.868-4.755,1.779-6.534,3.483s-2.762,4.428-1.659,6.6c.521,1.025,1.487,1.981,1.3,3.108a2.876,2.876,0,0,1-.989,1.543,9.615,9.615,0,0,1-8.76,2.184c-1.128-.291-3.392-2.853-4.461-2.4-.7.3-8.283,2.686-11.6.8-3.114-1.77-3.145-3.421-2.892-6.921.091-1.254.139-3.4-.45-4.52-.533-1.015-1.627-1.219-2.521-1.962-2.624-2.181-3.046-5.7-2.115-8.916,1.17-4.045,6.349-5.2,6.257-9.4-.04-1.852-1.8-3.067-.73-5.874,1.72-4.506,5.11-2.483,4.781-6.246-.9-10.294,9.16-11.576,9.16-11.576,6.955-5.286,9.065.366,13.816.366,3.943,0,5.833,3.036,6.374,5.68,1.444,7.069-2.322,5.4.9,14.7,1.8,5.191-3.492,6.873-2.844,10.409.488,2.664,4.655,6.224,2.968,8.945" transform="translate(-154.312 -77.535)" fill="#0f3844"/>
    <path id="Trazado_800353" data-name="Trazado 800353" d="M428.661,225.515s-2.881-19.1-4.386-20.587a18.519,18.519,0,0,0-7.945-4.569c-.2-1.239,1.106-1.777,2.181-1.13a3.284,3.284,0,0,0,3.2.539c-.717-3.148-5.209-8.706-4.178-9.336.949-.143,3.055,3.2,5.017,5.538-.706-3.27-2.537-9.027-.917-9.027.884,0,2.161,8.082,3.151,8.082s-.515-6.122.72-6.621c.72-.582.81,6.621,1.35,7.071.878-.105,1.53-3.642,2.431-3.83,1.711.189-1.552,3.725-.54,6.388,1.171,3.078.326,4.758.72,5.725,2.826,6.947,10.444,26.2,8.013,30.79-1.905,3.6-3.692,3.962-7.1,2.506-3.743-1.6-6.9-3.662-10.548-5.477-4.14-2.061-8.561-5.626-10.825-9.659-2-3.555-3.071-5.055-1.644-8.874,1.159-3.1,2.459-2.786,2.459-2.786a15.47,15.47,0,0,1,7.1,4.095,148.317,148.317,0,0,0,11.737,11.163" transform="translate(-187.016 -85.96)" fill="#f2775a"/>
    <path id="Trazado_800354" data-name="Trazado 800354" d="M447.306,261.893c-.075.97-.079,2.742.858,3.335a.265.265,0,0,0,.394-.226,4.011,4.011,0,0,0-.36-1.41,6.611,6.611,0,0,1-.259-1.7.317.317,0,0,0-.633,0" transform="translate(-205.667 -120.284)" fill="#e26b50"/>
    <path id="Trazado_800355" data-name="Trazado 800355" d="M358.523,260.871c1.274,7.1-3.789,14.244-5.6,21.221a27.526,27.526,0,0,0-.48,14.159c9.7,1.506,22.649-4.152,31.351-8.7a13.06,13.06,0,0,0,4.189-3.085c3.66-4.469,1.46-11.07,0-16.659-3.034-11.617,1.736-13.967,2-20.62.136-3.4-3.875-5.888-4.425-9.74-.54-3.781-2.4-8.1-3.348-8.247-1.958-.3-3.477-.96-4.56-.87-4.787.4-12.935-.893-19.291.378-3.219.644-9.029,2.627-10.1,3.49-6.563,5.281,9.079,22.079,10.263,28.675" transform="translate(-159.4 -104.899)" fill="#f53e56"/>
    <path id="Trazado_800356" data-name="Trazado 800356" d="M401.093,254.653a23.454,23.454,0,0,1,1.568,2.624,29.187,29.187,0,0,0,1.229,2.775.281.281,0,0,0,.519-.141c.023-1.993-1.471-4.259-2.719-5.719-.279-.326-.835.1-.6.46" transform="translate(-184.404 -116.83)" fill="#dd2f4c"/>
    <path id="Trazado_800357" data-name="Trazado 800357" d="M376.546,295.12c1.968.776,4.708,1.55,6.826,1.017a.174.174,0,0,0,0-.333c-.976-.192-1.987-.111-2.977-.214a25.88,25.88,0,0,1-3.776-.729.135.135,0,0,0-.072.26" transform="translate(-173.101 -135.58)" fill="#dd2f4c"/>
    <path id="Trazado_800358" data-name="Trazado 800358" d="M375.726,303.214a26.6,26.6,0,0,0,6.816,0c.256-.045.183-.432-.059-.439-2.256-.072-4.493.124-6.757-.041-.31-.022-.306.455,0,.481" transform="translate(-172.661 -139.202)" fill="#dd2f4c"/>
    <path id="Trazado_800359" data-name="Trazado 800359" d="M368.574,219.743c-2.019.668-.9,3.208.534,4.779,1.911,2.1,5.588,5.268,10.539,5.262,6.325-.008,7.729-3.065,8.1-3.973.77-1.871,1.2-5.1-.525-6.163,0,0-3.98.242-5.057-.589-1.758-1.357-1.711-8.165-1.711-8.165-.925-.8-12.468-2.668-11.761-.9,1.677,4.186,2.2,8.984-.123,9.751" transform="translate(-168.973 -96.22)" fill="#f2775a"/>
    <path id="Trazado_800360" data-name="Trazado 800360" d="M375.283,236.28c1.19.049,2.381.056,3.571.109a14.3,14.3,0,0,0,3.117.1c.256-.046.191-.38,0-.456a9.438,9.438,0,0,0-3.372-.326,20.829,20.829,0,0,0-3.362.238c-.2.031-.14.332.046.34" transform="translate(-172.484 -108.379)" fill="#e26b50"/>
    <path id="Trazado_800361" data-name="Trazado 800361" d="M393.992,235.336a8.369,8.369,0,0,0,3.909-.718.272.272,0,0,0-.136-.5,9,9,0,0,0-1.677.395,16.976,16.976,0,0,1-2.1.371c-.284.032-.3.466,0,.456" transform="translate(-181.065 -107.65)" fill="#e26b50"/>
    <path id="Trazado_800362" data-name="Trazado 800362" d="M378.182,202.2c3.2-.76,5.911-5.307,6.8-8.469.907-3.212.382-7.557-.008-10.871-1.2-10.2-14.018-10.879-18.959-2.52-4.841,8.188,3.384,23.947,12.162,21.861" transform="translate(-167.643 -80.281)" fill="#ff8966"/>
    <path id="Trazado_800363" data-name="Trazado 800363" d="M380.227,200.9a.949.949,0,1,1-.92-1.183,1.076,1.076,0,0,1,.92,1.183" transform="translate(-173.99 -91.833)" fill="#0f3844"/>
    <path id="Trazado_800364" data-name="Trazado 800364" d="M393.934,200.5a.949.949,0,1,1-.92-1.183,1.076,1.076,0,0,1,.92,1.183" transform="translate(-180.293 -91.649)" fill="#0f3844"/>
    <path id="Trazado_800365" data-name="Trazado 800365" d="M365.831,186.547c.991-2.4,2.782-5.173,5.347-5.173,1.806,0,4.021.455,5.733-.123a4.955,4.955,0,0,0,2.42-2.635c1.29,1.644,3.27,3.3,3.167,5.388-.29,5.84,2.089,7.684,3.063,7.606.539-3.1,1.148-8.711-.786-12.845a7.859,7.859,0,0,0-1.76-2.687,8.6,8.6,0,0,0-2.627-1.392c-2.778-1.082-5.656-2.182-8.635-2.059A16,16,0,0,0,367,173.681a9.88,9.88,0,0,0-4.232,2.565c-1.475,1.706-1.843,4.088-1.988,6.339a18.626,18.626,0,0,0,1.193,8.9c.35.768,3.027-2.936,3.856-4.938" transform="translate(-165.862 -79.373)" fill="#0f3844"/>
    <path id="Trazado_800366" data-name="Trazado 800366" d="M387.648,200.064a3.726,3.726,0,0,0,.45,2.967c.229.359.94.758,1.055,1.094.155.458-.744,1.263-.885,1.793a.239.239,0,0,0,.347.267c.587-.393,1.659-1.475,1.3-2.26-.181-.4-.68-.614-.962-.927a3.314,3.314,0,0,1-.746-2.779c.061-.362-.472-.526-.562-.155" transform="translate(-178.191 -91.897)" fill="#e26b50"/>
    <path id="Trazado_800367" data-name="Trazado 800367" d="M387.269,213.316l-4.489-.789c.181,1.107.343,4.21,1.786,4.454,1.483.251,2.4-2.04,2.7-3.665" transform="translate(-176.01 -97.724)" fill="#fff"/>
    <path id="Trazado_800368" data-name="Trazado 800368" d="M391.588,192.213a4.334,4.334,0,0,1,1.935.029c.505.126.934.418,1.428.558.1.029.227-.1.153-.2-.745-.983-2.526-.95-3.6-.681-.191.048-.109.332.082.293" transform="translate(-179.973 -88.174)" fill="#0f3844"/>
    <path id="Trazado_800369" data-name="Trazado 800369" d="M380.647,191.916c-1.112-.263-2.986-.326-3.8.654a.136.136,0,0,0,.131.226c.523-.141.986-.433,1.519-.558a4.93,4.93,0,0,1,2.067-.029c.19.036.273-.247.081-.293" transform="translate(-173.267 -88.17)" fill="#0f3844"/>
    <path id="Trazado_800370" data-name="Trazado 800370" d="M366.035,200.341s-.957-2.18-2.564-2.031c-.826.077-1.42,1.3-1.191,3.129a4.436,4.436,0,0,0,.937,2.363,3.218,3.218,0,0,0,2.221,1.463c1.254.09,1.778-1.715.6-4.924" transform="translate(-166.561 -91.184)" fill="#ff8966"/>
    <path id="Trazado_800371" data-name="Trazado 800371" d="M365.888,201.379c-.334-.433-.9-.991-1.511-.889-.747.126-.834,1.181-.756,1.772a4.075,4.075,0,0,0,.879,1.922c.306.387,1.078,1.037,1.527.495a.158.158,0,0,0-.069-.261c-.4-.125-.713-.111-1.018-.469a4.2,4.2,0,0,1-.583-.949c-.24-.523-.531-1.5.054-1.867.315-.2.415-.109.709.086a2.862,2.862,0,0,1,.471.39c.145.15.433-.056.3-.23" transform="translate(-167.189 -92.184)" fill="#e26b50"/>
    <path id="Trazado_800372" data-name="Trazado 800372" d="M368.064,186.541c1.659-3.753,4.341-6.236,8.637-5.85,1.866.168,2.3-.848,3.6-2.062a.246.246,0,0,0-.3-.385c-1.558.949-1.248,1.822-3.534,1.862a8.816,8.816,0,0,0-3.562.455c-2.548,1.046-4.117,3.348-5.164,5.791-.092.217.224.407.321.187" transform="translate(-169.088 -81.945)" fill="#155260"/>
    <path id="Trazado_800373" data-name="Trazado 800373" d="M364.967,183.72c.738-2.113,2.458-3.483,4.233-4.728a5.738,5.738,0,0,1,2.954-1.119,9.243,9.243,0,0,0,2.185-.251c.186-.06.165-.368-.048-.357a15.931,15.931,0,0,0-3.4.284,8.231,8.231,0,0,0-2.612,1.579,8.924,8.924,0,0,0-3.519,4.533c-.04.137.166.19.212.058" transform="translate(-167.72 -81.51)" fill="#155260"/>
    <path id="Trazado_800374" data-name="Trazado 800374" d="M360.7,183.143a5.641,5.641,0,0,1,2.476-3.023c.962-.614,2.087-.9,3.035-1.523a.153.153,0,0,0-.117-.278c-2.439.421-5.074,2.275-5.736,4.73a.177.177,0,0,0,.342.094" transform="translate(-165.698 -81.993)" fill="#155260"/>
    <path id="Trazado_800375" data-name="Trazado 800375" d="M354.37,204.284c-1.153,1.173-2.224,1.8-2.079,3.582.236,2.9,2.265,5.321.1,8.1-.128.164.038.463.245.318,1.334-.93,1.51-2.511,1.366-4.055a17.505,17.505,0,0,0-.723-3.08c-.569-2.056.422-3.012,1.487-4.562.161-.236-.2-.5-.391-.3" transform="translate(-161.984 -93.902)" fill="#155260"/>
    <path id="Trazado_800376" data-name="Trazado 800376" d="M359.124,210a2.061,2.061,0,0,0-.877,2.459c.215.8.752,1.473,1.03,2.251a5.219,5.219,0,0,1-.133,3.45.187.187,0,0,0,.31.18,3.166,3.166,0,0,0,.748-2.852c-.2-1.3-2.344-3.976-.789-4.994a.287.287,0,0,0-.289-.5" transform="translate(-164.684 -96.543)" fill="#155260"/>
    <path id="Trazado_800377" data-name="Trazado 800377" d="M365.724,215.888a11.123,11.123,0,0,1,1.124,2.283c.23.657.312,1.364.588,2,.089.2.375.079.385-.1.086-1.477-.926-3.218-1.726-4.395-.154-.227-.521-.019-.372.217" transform="translate(-168.151 -99.125)" fill="#155260"/>
    <path id="Trazado_800378" data-name="Trazado 800378" d="M398.979,181.724c2.725,1.441,2.182,5.206,2.636,7.735.036.2.3.122.323-.044.332-2.486-.3-6.678-2.835-7.9-.14-.068-.264.137-.124.211" transform="translate(-183.431 -83.457)" fill="#155260"/>
    <path id="Trazado_800379" data-name="Trazado 800379" d="M401.742,179.436c2.314.706,2.379,3.066,2.874,5.018.045.18.292.126.306-.041.192-2.152-.8-4.75-3.1-5.278a.156.156,0,0,0-.083.3" transform="translate(-184.678 -82.368)" fill="#155260"/>
    <path id="Trazado_800380" data-name="Trazado 800380" d="M401.85,218.911c-.83-2.959,2.891-4.42,2.631-7.15a.14.14,0,0,0-.273-.037,12.009,12.009,0,0,1-1.006,2.332c-.392.631-.853,1.218-1.195,1.88a3.848,3.848,0,0,0-.393,3.04.122.122,0,0,0,.236-.065" transform="translate(-184.596 -97.31)" fill="#155260"/>
    <path id="Trazado_800381" data-name="Trazado 800381" d="M405.538,219.8c.668-1.266,2.326-3.071,1.636-4.609a.149.149,0,0,0-.27.035,10.343,10.343,0,0,1-.7,2.442c-.331.667-.675,1.321-.948,2.015-.063.161.2.268.278.117" transform="translate(-186.343 -98.918)" fill="#155260"/>
    <path id="Trazado_800382" data-name="Trazado 800382" d="M340.658,238.051c-1.1-2.5-.43-4.8,2.012-6.013.147-.073.084-.345-.087-.322-3.108.4-3.287,4.3-2.246,6.523.1.218.415.028.321-.187" transform="translate(-156.231 -106.547)" fill="#155260"/>
    <path id="Trazado_800383" data-name="Trazado 800383" d="M388.465,351.5c11.08-3.416,35.484-13.352,47.067-13.872,4.905-.22,8.8,2.683,13.64,3.511,9.305,1.594,16.34,1.891,26.334,4.186,1.188-2.836,2.1-4.563,2.134-7.331-9.861-3.462-19.552-7.4-29.413-10.863-4.278-1.5-7.974-3.01-12.445-3.759-11.642-1.95-24.23,2.8-35.571,6.077a125.1,125.1,0,0,0-14.143,4.7c-5.123,2.168-12.167,9.69-7.108,14.822a9.935,9.935,0,0,0,9.506,2.528" transform="translate(-173.451 -148.486)" fill="#6ea3ba"/>
    <path id="Trazado_800384" data-name="Trazado 800384" d="M557.956,356.348c1.73-.034,11.09-10.766,13.735-16.41.653-1.393-.741-2.046-2.145-1.68-5.721,1.49-9.193,7.725-14.966,5.94-1-.309-3.42-2.089-4.465-2.057s-1.96,3.724-2.156,4.75c-.389,2.044-1.648,4.884-.83,5.721,1.215,1.3,2.111.04,5.154.25,2.055.142,3.949,3.52,5.673,3.487" transform="translate(-251.457 -155.492)" fill="#0f3945"/>
    <path id="Trazado_800385" data-name="Trazado 800385" d="M554.436,351.845c.1-.49.174-.982.289-1.469.093-.394.341-.842.192-1.235a.226.226,0,0,0-.328-.133c-.381.25-.425.767-.515,1.189a7.445,7.445,0,0,0-.185,1.575c0,.3.485.39.547.074" transform="translate(-254.69 -160.466)" fill="#1b6475"/>
    <path id="Trazado_800386" data-name="Trazado 800386" d="M559.638,354.22a6.354,6.354,0,0,0,.328-.965c.081-.27.267-.6.079-.849a.193.193,0,0,0-.254-.066c-.288.125-.287.5-.351.771a6.435,6.435,0,0,0-.2,1,.212.212,0,0,0,.393.106" transform="translate(-257.152 -162.003)" fill="#1b6475"/>
    <path id="Trazado_800387" data-name="Trazado 800387" d="M566.416,354.524a4.017,4.017,0,0,0-.106-1.837.161.161,0,0,0-.277,0,4.009,4.009,0,0,0-.106,1.837.245.245,0,0,0,.489,0" transform="translate(-260.201 -162.137)" fill="#1b6475"/>
    <path id="Trazado_800388" data-name="Trazado 800388" d="M570.681,351.757a2.308,2.308,0,0,0,.3.911c.216.548,1.009.13.7-.3-.183-.254-.378-.662-.661-.808a.227.227,0,0,0-.337.193" transform="translate(-262.41 -161.643)" fill="#1b6475"/>
    <path id="Trazado_800389" data-name="Trazado 800389" d="M574.948,349.251a8.261,8.261,0,0,0,.421.978c.2.435.923.023.645-.377a8.216,8.216,0,0,0-.628-.856.264.264,0,0,0-.438.254" transform="translate(-264.368 -160.44)" fill="#1b6475"/>
    <path id="Trazado_800390" data-name="Trazado 800390" d="M377.339,334.173c4.771-.7,9.11-4.734,10.515-6.325l20.364-23.072c6.12,6.4,9.009,10.422,15.129,16.819,4.811,5.03,7.11,6.836,10.9,11.249,1.577-.563,5.59-.49,6.474-3.713.443-1.615-26.54-42.75-28.768-43.269-1.632-.379-3.1-1.414-4.778-1.491a8.644,8.644,0,0,0-4.565,1.594c-10.865,6.309-16.68,12.317-26.171,20.548-3.652,3.168-5.584,4.868-10.317,6.8-3.721,1.523-10.095,2.866-9.271,7.7,2.122,12.45,13.025,14.252,20.488,13.152" transform="translate(-164.054 -130.757)" fill="#8cbddd"/>
    <path id="Trazado_800391" data-name="Trazado 800391" d="M498.056,373.908c1.26,1.185,15.457.051,21.292-2.137,1.44-.54.9-1.98-.36-2.7-5.132-2.933-11.974-.9-14.855-6.212-.5-.918-.986-3.884-1.756-4.592s-3.3,1.1-4.862,1.891c-.9.454-4.592,2.342-4.592,3.511-.04,1.78,1.482,1.5,3.511,3.781,1.371,1.538.364,5.278,1.621,6.459" transform="translate(-226.656 -164.664)" fill="#0f3945"/>
    <path id="Trazado_800392" data-name="Trazado 800392" d="M505.372,364.843a8.074,8.074,0,0,1,1.576-.81,4.488,4.488,0,0,0,1.286-.483.217.217,0,0,0-.095-.36,2.518,2.518,0,0,0-1.5.369,7.161,7.161,0,0,0-1.527.952c-.187.147.057.462.256.331" transform="translate(-232.232 -166.989)" fill="#1b6475"/>
    <path id="Trazado_800393" data-name="Trazado 800393" d="M508.358,369.663l1.1-.506c.3-.14.673-.228.847-.53a.2.2,0,0,0-.167-.292c-.34-.043-.654.214-.945.368l-1.065.566c-.263.14-.032.514.23.394" transform="translate(-233.594 -169.366)" fill="#1b6475"/>
    <path id="Trazado_800394" data-name="Trazado 800394" d="M511.862,373.787l.843-.591a1.9,1.9,0,0,0,.675-.613.193.193,0,0,0-.214-.279,1.917,1.917,0,0,0-.779.478l-.805.641c-.2.163.066.516.281.365" transform="translate(-235.202 -171.191)" fill="#1b6475"/>
    <path id="Trazado_800395" data-name="Trazado 800395" d="M517.09,377.193c.484-.329,1.222-.86,1.269-1.487a.222.222,0,0,0-.331-.189,2.258,2.258,0,0,0-.582.58,4.14,4.14,0,0,1-.659.578c-.312.22-.019.736.3.517" transform="translate(-237.569 -172.659)" fill="#1b6475"/>
    <path id="Trazado_800396" data-name="Trazado 800396" d="M522.874,378.305c.42-.4.948-1.026.787-1.644a.222.222,0,0,0-.367-.1,2.225,2.225,0,0,0-.411.635,2.734,2.734,0,0,1-.481.634c-.3.3.16.766.472.472" transform="translate(-240.166 -173.124)" fill="#1b6475"/>
    <path id="Trazado_800397" data-name="Trazado 800397" d="M412.222,268.963c.78-1.481-2.107-7.337-2.856-7.978a5.814,5.814,0,0,0-3.8-2.52c-8.1.375-13.209-5.166-30.617-5.924-3.1-.135-8.887-5.205-12.687-8.578-5-4.433-8.687-11.656-15.153-8.844-6.378,2.773-1.092,11.345,3.359,14.538,3.451,2.477,15.1,10.416,18.321,10.656,12.276.911,18.508,1.665,30.205,2.309,1.3.072,2.294,2.147,3.511,2.616a14.592,14.592,0,0,1,5.312,4.915c1.372.08-.509-3.044-1.108-4.129.051-2.614,3.449,6.5,4.525,5.24.32-1.169-.908-4.368-1.932-6.368,1.154,1.214,2.164,4.534,2.921,4.068" transform="translate(-158.25 -107.822)" fill="#ff8966"/>
    <path id="Trazado_800398" data-name="Trazado 800398" d="M460.9,284.239c.332.62.659,1.242,1,1.859a3.47,3.47,0,0,0,.952,1.406.17.17,0,0,0,.254-.146,3.49,3.49,0,0,0-.742-1.531c-.365-.6-.74-1.195-1.11-1.792a.2.2,0,0,0-.35.2" transform="translate(-211.921 -130.56)" fill="#f2775a"/>
    <path id="Trazado_800399" data-name="Trazado 800399" d="M457.379,288.686c.126.283.651,1.552,1.115,1.242.254-.17.015-.49-.112-.646a5.635,5.635,0,0,1-.566-.852c-.159-.292-.567-.036-.438.255" transform="translate(-210.301 -132.567)" fill="#f2775a"/>
    <path id="Trazado_800400" data-name="Trazado 800400" d="M396.047,270.31a3.08,3.08,0,0,1,.831-.964c.268-.223.671-.468.755-.829.035-.151-.109-.35-.281-.28a3.465,3.465,0,0,0-.958.831,3.286,3.286,0,0,0-.748,1.073c-.1.229.29.389.4.169" transform="translate(-181.919 -123.335)" fill="#f2775a"/>
  </g>
</svg>
