<svg xmlns="http://www.w3.org/2000/svg" xmlns:xlink="http://www.w3.org/1999/xlink" width="400" height="538" viewBox="0 0 400 538">
  <defs>
    <clipPath id="clip-path">
      <rect id="Rectángulo_374117" data-name="Rectángulo 374117" width="370.462" height="440.236" fill="none"/>
    </clipPath>
    <clipPath id="clip-path-3">
      <rect id="Rectángulo_374108" data-name="Rectángulo 374108" width="23.013" height="27.922" fill="none"/>
    </clipPath>
    <clipPath id="clip-path-4">
      <path id="Trazado_799851" data-name="Trazado 799851" d="M121.482,83.449a11.3,11.3,0,1,0,.21,0c-.07,0-.138,0-.21,0" transform="translate(-110.317 -83.446)" fill="none"/>
    </clipPath>
    <radialGradient id="radial-gradient" cx="0.5" cy="0.498" r="0.489" gradientTransform="matrix(0.995, 0, 0, -1, -0.034, 26.71)" gradientUnits="objectBoundingBox">
      <stop offset="0" stop-color="#e89575"/>
      <stop offset="1" stop-color="#f2b27e"/>
    </radialGradient>
    <clipPath id="clip-path-5">
      <path id="Trazado_799852" data-name="Trazado 799852" d="M150.143,90.635a11.373,11.373,0,0,0-8.558,18.619,56.9,56.9,0,0,0,11.154-18.369,11.39,11.39,0,0,0-2.386-.252c-.07,0-.14,0-.21,0" transform="translate(-138.977 -90.633)" fill="none"/>
    </clipPath>
    <radialGradient id="radial-gradient-2" cx="0.817" cy="0.614" r="0.603" gradientTransform="matrix(1.328, 0, 0, -1, 4.98, 31.744)" xlink:href="#radial-gradient"/>
    <clipPath id="clip-path-7">
      <path id="Trazado_799855" data-name="Trazado 799855" d="M136.973,85.5c-2.171,2.969-4.355,8-3.032,11.911a5.835,5.835,0,0,0,4.8,4.159A7.166,7.166,0,0,0,142,99.68a4.068,4.068,0,0,0,1.09-3.511c-.3-1.368-1.414-2.386-2.125-3.6a6.62,6.62,0,0,1,.176-6.833s-.934-1.5-2.218-1.5a2.491,2.491,0,0,0-1.951,1.261" transform="translate(-133.538 -84.24)" fill="none"/>
    </clipPath>
    <linearGradient id="linear-gradient" x1="-13.631" y1="15.854" x2="-13.528" y2="15.854" gradientUnits="objectBoundingBox">
      <stop offset="0" stop-color="#db8965"/>
      <stop offset="1" stop-color="#f2b27e"/>
    </linearGradient>
    <clipPath id="clip-path-9">
      <path id="Trazado_799864" data-name="Trazado 799864" d="M124.088,100.414s4.612,2.137,19.194,5.028c-.292-1.509,2.226-7.762-5.886-9.607a12.105,12.105,0,0,0-2.673-.3c-6.248,0-10.635,4.881-10.635,4.881" transform="translate(-124.088 -95.533)" fill="none"/>
    </clipPath>
    <clipPath id="clip-path-11">
      <rect id="Rectángulo_374115" data-name="Rectángulo 374115" width="94.525" height="27.912" fill="none"/>
    </clipPath>
  </defs>
  <g id="Grupo_1065200" data-name="Grupo 1065200" transform="translate(-15808 9146)">
    <rect id="Rectángulo_374088" data-name="Rectángulo 374088" width="400" height="538" rx="20" transform="translate(15808 -9146)" fill="#ff8182"/>
    <path id="Trazado_800453" data-name="Trazado 800453" d="M105.858,14.609h-4.228L100.893,17H97.6L102.29,4.2h2.9L109.919,17h-3.313Zm-3.489-2.382h2.751l-1.38-4.438Zm11.566,2.4h5.37V17h-8.455V4.2h3.085ZM130.433,4.2v8.376a4.814,4.814,0,0,1-.606,2.465,3.929,3.929,0,0,1-1.74,1.586,6.131,6.131,0,0,1-2.681.545,5.3,5.3,0,0,1-3.683-1.213,4.326,4.326,0,0,1-1.371-3.322V4.2h3.1v8.5q.053,2.1,1.951,2.1a1.889,1.889,0,0,0,1.45-.527,2.465,2.465,0,0,0,.492-1.714V4.2Zm12.278,8.464a4.673,4.673,0,0,1-.721,2.36,4.35,4.35,0,0,1-1.85,1.586,6.3,6.3,0,0,1-2.72.563,5.025,5.025,0,0,1-3.973-1.644A6.786,6.786,0,0,1,132,10.892v-.633a7.746,7.746,0,0,1,.655-3.292,4.961,4.961,0,0,1,1.885-2.18,5.26,5.26,0,0,1,2.848-.769,5.516,5.516,0,0,1,3.744,1.226,4.844,4.844,0,0,1,1.608,3.379h-3.076a2.292,2.292,0,0,0-.589-1.679,2.422,2.422,0,0,0-1.687-.51A1.843,1.843,0,0,0,135.7,7.3a5.536,5.536,0,0,0-.562,2.751v.905a6.126,6.126,0,0,0,.514,2.927,1.882,1.882,0,0,0,1.771.879,2.369,2.369,0,0,0,1.626-.5,2.126,2.126,0,0,0,.6-1.591ZM147.457,17h-3.076V4.2h3.076Zm12.832,0h-3.067l-4.535-7.963V17H149.6V4.2h3.085l4.526,7.963V4.2h3.076Zm12.788-6.135a7.546,7.546,0,0,1-.694,3.313A5.132,5.132,0,0,1,170.41,16.4a5.494,5.494,0,0,1-2.914.778,5.572,5.572,0,0,1-2.9-.751,5.123,5.123,0,0,1-1.973-2.149,7.329,7.329,0,0,1-.743-3.208v-.721a7.58,7.58,0,0,1,.69-3.318,5.119,5.119,0,0,1,1.978-2.219,5.854,5.854,0,0,1,5.832-.009A5.211,5.211,0,0,1,172.361,7a7.362,7.362,0,0,1,.716,3.274Zm-3.138-.536a5.381,5.381,0,0,0-.637-2.9,2.044,2.044,0,0,0-1.824-.989q-2.32,0-2.452,3.48l-.009.94a5.535,5.535,0,0,0,.624,2.892,2.041,2.041,0,0,0,1.854,1.011,2.016,2.016,0,0,0,1.8-.993,5.383,5.383,0,0,0,.642-2.856Zm-2.1-9.554h3.129l-2.443,2.76-2.417,0Zm17.306,14.643a4.96,4.96,0,0,1-2.083,1.274,8.984,8.984,0,0,1-3.006.483,5.36,5.36,0,0,1-4.017-1.538,6.226,6.226,0,0,1-1.608-4.28l-.009-1.107a7.637,7.637,0,0,1,.668-3.3A4.96,4.96,0,0,1,177,4.779a5.407,5.407,0,0,1,2.878-.76,5.669,5.669,0,0,1,3.713,1.094,4.637,4.637,0,0,1,1.542,3.265h-2.971a2.426,2.426,0,0,0-.686-1.529,2.212,2.212,0,0,0-1.494-.457,2.013,2.013,0,0,0-1.793.984,5.256,5.256,0,0,0-.642,2.813v.773a5.145,5.145,0,0,0,.655,2.878,2.316,2.316,0,0,0,2.061.962,2.592,2.592,0,0,0,1.793-.536V12.28h-2.145V10.162h5.229Zm9.729-3.85h-4.852v3.059h5.73V17h-8.815V4.2h8.833V6.585h-5.748v2.7h4.852ZM207.7,17H204.63l-4.535-7.963V17H197.01V4.2h3.085l4.526,7.963V4.2H207.7Zm12.788-6.135a7.546,7.546,0,0,1-.694,3.313,5.132,5.132,0,0,1-1.973,2.219,5.494,5.494,0,0,1-2.914.778,5.572,5.572,0,0,1-2.9-.751,5.123,5.123,0,0,1-1.973-2.149,7.329,7.329,0,0,1-.743-3.208v-.721a7.58,7.58,0,0,1,.69-3.318,5.119,5.119,0,0,1,1.978-2.219,5.854,5.854,0,0,1,5.832-.009A5.211,5.211,0,0,1,219.769,7a7.362,7.362,0,0,1,.716,3.274Zm-3.138-.536a5.381,5.381,0,0,0-.637-2.9,2.044,2.044,0,0,0-1.824-.989q-2.32,0-2.452,3.48l-.009.94a5.535,5.535,0,0,0,.624,2.892,2.041,2.041,0,0,0,1.854,1.011,2.016,2.016,0,0,0,1.8-.993,5.383,5.383,0,0,0,.642-2.856Zm11.329,3.27a1.268,1.268,0,0,0-.479-1.055,5.954,5.954,0,0,0-1.683-.782,16.147,16.147,0,0,1-1.969-.782q-2.487-1.222-2.487-3.357a3.011,3.011,0,0,1,.62-1.876,4.008,4.008,0,0,1,1.753-1.266,6.823,6.823,0,0,1,2.549-.453,5.969,5.969,0,0,1,2.474.492,3.917,3.917,0,0,1,1.7,1.4A3.661,3.661,0,0,1,231.762,8h-3.076a1.547,1.547,0,0,0-.479-1.213,1.867,1.867,0,0,0-1.3-.431,2.106,2.106,0,0,0-1.305.365,1.074,1.074,0,0,0,.048,1.819,6.65,6.65,0,0,0,1.854.826,11.36,11.36,0,0,1,2.18.918,3.663,3.663,0,0,1,2.074,3.3,3.125,3.125,0,0,1-1.266,2.637,5.629,5.629,0,0,1-3.472.958,6.888,6.888,0,0,1-2.817-.558,4.247,4.247,0,0,1-1.9-1.529,3.985,3.985,0,0,1-.637-2.237h3.094a1.963,1.963,0,0,0,.532,1.516,2.513,2.513,0,0,0,1.727.488,1.985,1.985,0,0,0,1.208-.33A1.088,1.088,0,0,0,228.677,13.6Z" transform="translate(15843 -9114)" fill="#12263f"/>
    <g id="Grupo_1065173" data-name="Grupo 1065173" transform="translate(15822.77 -9076)">
      <g id="Grupo_1065172" data-name="Grupo 1065172" clip-path="url(#clip-path)">
        <g id="Grupo_1065154" data-name="Grupo 1065154">
          <g id="Grupo_1065153" data-name="Grupo 1065153" clip-path="url(#clip-path)">
            <path id="Trazado_799802" data-name="Trazado 799802" d="M98.839,58.04a80.377,80.377,0,0,0-47.977,55.626c-2.649,11.41-2.748,23.35-6.071,34.582C41.009,161.025,33.256,172.23,28.1,184.519A94.476,94.476,0,0,0,95.208,313.393c9.94,2.156,20.158,2.692,30.326,2.861,7.675.129,15.406.048,22.945-1.4,25.559-4.909,45.482-24.552,69.106-35.472,10.38-4.8,21.585-7.955,31.217-14.116,15.924-10.187,26.074-27.995,29.449-46.592s.49-37.911-5.5-55.839c-3.46-10.35-7.983-20.428-14.371-29.275-15.7-21.749-40.518-33.957-61.492-49.736-17.107-12.87-29.983-24.378-51.626-29.167A80.1,80.1,0,0,0,98.839,58.04" transform="translate(11.579 29.216)" fill="#8edee0"/>
            <path id="Trazado_799803" data-name="Trazado 799803" d="M130.88,316.834l-18.21-13.549c-8.67-6.45-17.5-13.064-23.658-21.944-5.641-8.129-8.735-17.727-13.5-26.4a77.207,77.207,0,0,0-16.99-21.072c-10.664-9.271-23.733-15.492-34.185-25A70.833,70.833,0,0,1,6.615,183.256c-4.155-10.181-6.844-21.91-6.6-32.917a5.155,5.155,0,0,1,1.058-3.615,3.014,3.014,0,0,1,2.986-.667c1.655.521,1.745,1.638,2.4,2.933a30.8,30.8,0,0,0,2.575,3.858A81.64,81.64,0,0,0,22,167.068q1.76,1.522,3.608,2.942c.9.69,2.919,1.6,3.5,2.54-16.5-26.8-23.366-58.708-23.938-90.178C4.792,62.03,7.14,40.994,17.1,23.25c2.917-5.2,6.69-10.251,12.085-12.79,7.433-3.5,16.648-1.354,23.1,3.733s10.5,12.654,13.224,20.4c9.9,28.133,4.386,59.758,13.352,88.205a150.994,150.994,0,0,1,2.916-37.823A7.24,7.24,0,0,1,83.407,81.1a4.725,4.725,0,0,1,1.239-.954,3,3,0,0,1,2.67.028c1.912.995,2.322,4.637,2.807,6.528a59.214,59.214,0,0,1,1.467,8.354,148.011,148.011,0,0,1,.528,17.456c-.242,24.142-.205,49.2,9.921,71.113,4.17,9.023,9.951,17.251,13.829,26.4,10.967,25.878,6.239,57.716,22.615,80.558,6.659,9.287,16.541,16.575,20.323,27.359a3.7,3.7,0,0,1,.216,2.537c-.664,1.683-3.031,1.634-4.807,1.287l-10.1-1.979" transform="translate(0 4.846)" fill="#006a76"/>
            <path id="Trazado_799804" data-name="Trazado 799804" d="M185,109.813c21.737-20.949,49.018-37.53,63.032-64.269,6.276-11.973,8.821-28.267-.741-37.823C242.04,2.476,234.3.573,226.891.124c-23.566-1.432-46.5,9.747-64.132,25.45s-30.788,35.7-43.734,55.442c-4.879-4.158-6-11.44-4.65-17.707s4.731-11.867,7.644-17.578a128.447,128.447,0,0,0,8.333-20.565q1.718-5.572,2.925-11.286c.614-2.9,2.492-6.073-.244-8.432-5.878-5.07-14.265,8.959-16.386,13q-7.806,14.872-15.615,29.743C93.575,62.4,86.091,76.661,80.72,91.78,62.773,142.3,69.7,198.078,80.893,250.5l43.648,80.047c11.149,3.129,25.567.1,29.8-10.678,2.621-6.665.592-14.133-1.113-21.089a219,219,0,0,1,7.364-127.551c1.912-5.146,4.106-10.355,7.935-14.289,4.037-4.147,9.517-6.5,14.844-8.759l40.061-16.953c3.521-1.489,7.147-3.053,9.773-5.83,7.523-7.961-.085-10.983-7.316-10.764-6.054.183-11.945,1.5-17.892,2.5a164.192,164.192,0,0,0-16.65,3.695c-1.579.438-15.646,3.985-15.644,5.207-.009-6.415,4.674-11.779,9.293-16.23" transform="translate(38.647 0)" fill="#006a76"/>
            <path id="Trazado_799805" data-name="Trazado 799805" d="M161.28,32.661a11.969,11.969,0,0,0-5.594.662c-7.282,2.294-13.54,7-19.387,11.912a8.688,8.688,0,0,0-2.945,3.584c-.5,1.483.061,3.447,1.556,3.918,1.228.385,2.5-.331,3.614-.976a48.017,48.017,0,0,1,8.9-4.007c1.663-.552,3.92-.8,4.77.731.675,1.214-.062,2.7-.786,3.886l-4.159,6.822a8.159,8.159,0,0,0-1.536,3.945c-.025,1.428,1.006,2.981,2.434,2.978a4.028,4.028,0,0,0,2.44-1.229q3.922-3.325,7.555-6.973c2.919-2.928,5.735-6.074,7.436-9.843,2.178-4.829,2.644-14.2-4.3-15.409" transform="translate(73.82 18.041)" fill="#f2f2f2"/>
            <path id="Trazado_799806" data-name="Trazado 799806" d="M156.582,16.924A19.354,19.354,0,0,0,151.8,20a14.9,14.9,0,0,0-3.783,4.066,5.872,5.872,0,0,0-.417,5.355c1.147,2.331,4.2,3.2,6.733,2.622s4.655-2.26,6.631-3.948c1.752-1.5,3.541-3.149,4.235-5.345,1.854-5.849-4.419-7.542-8.622-5.821" transform="translate(81.557 9.027)" fill="#f2f2f2"/>
            <path id="Trazado_799807" data-name="Trazado 799807" d="M169.51,32.411a25.97,25.97,0,0,0-4.413,3.564,19.568,19.568,0,0,0-3.572,4.2c-.892,1.557-1.282,3.362-.628,4.607.912,1.738,3.6,1.851,5.885.849a21.487,21.487,0,0,0,6.11-4.682c1.635-1.621,3.311-3.379,4.038-5.376,1.934-5.317-3.586-5.473-7.42-3.166" transform="translate(89.006 17.181)" fill="#f2f2f2"/>
            <path id="Trazado_799808" data-name="Trazado 799808" d="M28.342,51.545A11.966,11.966,0,0,0,25.5,56.41c-2.554,7.195-2.563,15.025-2.167,22.649a8.718,8.718,0,0,0,1.088,4.511c.881,1.3,2.79,2.028,4.066,1.119,1.048-.749,1.242-2.2,1.4-3.472a47.949,47.949,0,0,1,2.164-9.523c.561-1.66,1.721-3.612,3.455-3.368,1.376.193,2.119,1.677,2.63,2.969q1.471,3.714,2.941,7.428a8.139,8.139,0,0,0,2.224,3.6c1.125.881,2.984.993,3.842-.149a4.019,4.019,0,0,0,.488-2.687q-.291-5.134-1.015-10.232c-.58-4.094-1.394-8.236-3.381-11.864-2.544-4.647-9.742-10.663-14.892-5.846" transform="translate(12.829 27.588)" fill="#f2f2f2"/>
            <path id="Trazado_799809" data-name="Trazado 799809" d="M15.116,41.8a19.43,19.43,0,0,0-.426,5.664,14.926,14.926,0,0,0,.967,5.468,5.877,5.877,0,0,0,4.024,3.558c2.554.49,5.084-1.424,6.149-3.8s1-5.076.841-7.671c-.14-2.3-.381-4.722-1.716-6.6-3.553-5-8.682-1.013-9.839,3.378" transform="translate(8.126 20.007)" fill="#f2f2f2"/>
            <path id="Trazado_799810" data-name="Trazado 799810" d="M35.022,40.626a25.9,25.9,0,0,0,.188,5.67,19.5,19.5,0,0,0,1.2,5.383c.706,1.651,1.912,3.048,3.3,3.276,1.937.319,3.643-1.755,4.222-4.187a21.477,21.477,0,0,0-.058-7.7c-.309-2.282-.7-4.678-1.861-6.461-3.079-4.747-6.528-.434-7,4.016" transform="translate(19.365 19.146)" fill="#f2f2f2"/>
            <path id="Trazado_799811" data-name="Trazado 799811" d="M191.713,115.156c.256-10.45.768-20.93.768-31.383C192.8,70.892,187.93,59.247,177.76,51a49.133,49.133,0,0,0-21.687-9.825,37.116,37.116,0,0,0-11.27-.588,57.109,57.109,0,0,0-6.342,1c-1.284.291-4.624,1.988-5.785,1.694-8.247-2.084-17.24.909-23.806,6.348-6.676,5.53-11.148,13.285-14.509,21.275a108.3,108.3,0,0,0-7.943,52.086,5.669,5.669,0,0,0,.894,3.009,5.5,5.5,0,0,0,1.93,1.394,49.9,49.9,0,0,0,10.4,3.906,14.4,14.4,0,0,1,1.25-8.945,15.757,15.757,0,0,0,2.991,9.833,23.829,23.829,0,0,1,1.257-9.41c-.05,3.723,2.053,7.228,4.887,9.64a30.519,30.519,0,0,0,9.85,5.12c23.066,8.127,48.174,7.616,72.6,6.41-.458-4.388-1.253-8.7-1.146-13.092q.191-7.848.384-15.692" transform="translate(47.633 22.387)" fill="#38322e"/>
            <path id="Trazado_799812" data-name="Trazado 799812" d="M198.487,158.246c2.372.272,4.736.647,7.078,1.086,2.725.51,5.462.967,8.146,1.671a28.459,28.459,0,0,1,7.59,2.731c1.337.805,3.3,2.322,3.152,4.086-.025.277-.331.727-.194.99.162.311,1.236.634,1.568.968a3.552,3.552,0,0,1,.92,3.542,2.749,2.749,0,0,1,1.8,1.567,2.134,2.134,0,0,1-.939,2.2c-.718.518-1.8.51-2.38,1.181-.752.863-.589,1.906-1.853,2.44a6.879,6.879,0,0,1-3.3.242,111.105,111.105,0,0,0-23-.047c-5.32.631-10.916,1.955-16.086.232-4.52-1.508-12.06-6.7-12.06-6.7l1.309-14.677s10.8.1,13.99-.822a36.392,36.392,0,0,1,14.267-.7" transform="translate(93.634 87.509)" fill="#f2b27e"/>
            <path id="Trazado_799813" data-name="Trazado 799813" d="M194.078,171.731a43.815,43.815,0,0,0-.076-4.674" transform="translate(107.537 92.601)" fill="none" stroke="#333" stroke-linecap="round" stroke-linejoin="round" stroke-width="0.5"/>
            <path id="Trazado_799814" data-name="Trazado 799814" d="M194.225,169.031a59.23,59.23,0,0,1,17.334,1.994" transform="translate(107.66 93.677)" fill="none" stroke="#333" stroke-linecap="round" stroke-linejoin="round" stroke-width="0.5"/>
            <path id="Trazado_799815" data-name="Trazado 799815" d="M196.241,166.475a63.755,63.755,0,0,1,14.75,2" transform="translate(108.778 92.278)" fill="none" stroke="#333" stroke-linecap="round" stroke-linejoin="round" stroke-width="0.5"/>
            <path id="Trazado_799816" data-name="Trazado 799816" d="M196.77,163.928a71.854,71.854,0,0,1,11.452,1.606" transform="translate(109.071 90.867)" fill="none" stroke="#333" stroke-linecap="round" stroke-linejoin="round" stroke-width="0.5"/>
            <path id="Trazado_799817" data-name="Trazado 799817" d="M190.377,159.542a53.139,53.139,0,0,1,6.348,2.827c2.936,1.491,6.346,1.786,9.2,3.406,1.054.6,2.094,1.7,1.769,2.863a2.721,2.721,0,0,1-1.444,1.511c-3.154,1.721-6.7,1.107-10.014.3a13.23,13.23,0,0,0-6.474-.183c-3.889.847-7.3,1.377-11-.527" transform="translate(99.091 88.435)" fill="none" stroke="#333" stroke-linecap="round" stroke-linejoin="round" stroke-width="0.5"/>
            <path id="Trazado_799818" data-name="Trazado 799818" d="M133.595,114.094c6.858,1.814,13.227,5.355,16.252,11.853s2.557,45.565,2.557,45.565L199.7,183.677s3.177,3.006,3.65,10.862-.849,11.707-.849,11.707-53.686,2.953-71.71-9.009-9.991-56.979-9.991-56.979,5.939-27.978,12.8-26.164" transform="translate(65.971 63.196)" fill="#ffad01"/>
            <path id="Trazado_799819" data-name="Trazado 799819" d="M146.356,151.352a32.728,32.728,0,0,0-17.1,11.317" transform="translate(71.648 83.896)" fill="none" stroke="#000" stroke-linecap="round" stroke-linejoin="round" stroke-width="0.5"/>
            <path id="Trazado_799820" data-name="Trazado 799820" d="M219.362,254.888a3.217,3.217,0,0,0,1.483-.659,3.527,3.527,0,0,0,.757-1.376,26.991,26.991,0,0,1,7.473-10.97,17.179,17.179,0,0,1-6.638-5.9c-2.432-3.824-3.584-8.3-4.626-12.714-.361-1.523-.856-4.071-1.445-7.332l-23.5,4.613c1.564,4.506,3.219,9.357,4.977,14.71,1.253,3.813,2.2,13.03,2.848,20.218a45.342,45.342,0,0,0,18.673-.6" transform="translate(106.906 119.698)" fill="#f2b27e"/>
            <path id="Trazado_799821" data-name="Trazado 799821" d="M210.826,255.109c7.58-.35,15.165-.7,22.724-1.372a27.388,27.388,0,0,0,7.566-1.438c.309-4.585,1.147-9.453,3.988-12.971-5.28-1.38-10.8-2.785-13.712-4.178q-.73-.347-1.446-.684c-1.265-.6-2.488-1.189-3.662-1.834a27.009,27.009,0,0,0-7.475,10.97,3.5,3.5,0,0,1-.755,1.376,3.217,3.217,0,0,1-1.483.659,45.348,45.348,0,0,1-18.675.6c.045.491.089.973.129,1.442.222,2.5.4,4.649.546,6.121a21.061,21.061,0,0,0,4.638,1.2,41.959,41.959,0,0,0,7.616.11" transform="translate(109.696 128.95)" fill="#dba13a"/>
            <path id="Trazado_799822" data-name="Trazado 799822" d="M257.326,241.1c-1.8-1.33-7-2.731-12.464-4.158-2.841,3.519-3.679,8.387-3.988,12.972a27.377,27.377,0,0,1-7.566,1.438c-7.559.671-15.142,1.023-22.724,1.372a41.959,41.959,0,0,1-7.616-.112,20.874,20.874,0,0,1-4.637-1.2c.1,1,.177,1.69.238,1.94,1.606,6.528,14.223,2.983,18.675,2.627,7.353-.586,14.73.281,22.088-.182,6.25-.395,14.6-2.01,19.559-6.135,3.126-2.6,1.3-6.44-1.565-8.56" transform="translate(109.936 131.337)" fill="#ffc269"/>
            <path id="Trazado_799823" data-name="Trazado 799823" d="M201.7,236.943a8.974,8.974,0,0,0,5.878,4.728" transform="translate(111.806 131.339)" fill="none" stroke="#000" stroke-linecap="round" stroke-linejoin="round" stroke-width="0.5"/>
            <path id="Trazado_799824" data-name="Trazado 799824" d="M95.7,218.79s8.194,26.722,48.546,24.922,74.277-34.2,74.277-34.2l32.623,69.049s5.027,3.06,15.119.908,13.221-7.849,13.221-7.849-9.59-109.773-33.9-116.052-84.669,30.494-84.669,30.494l-65.643,5.1Z" transform="translate(52.808 85.834)" fill="#8080cc"/>
            <path id="Trazado_799825" data-name="Trazado 799825" d="M216.54,287.764a3.192,3.192,0,0,0,1.537-.522,3.494,3.494,0,0,0,.878-1.3A27,27,0,0,1,227.4,275.7a17.2,17.2,0,0,1-6.073-6.477c-2.072-4.03-2.81-8.6-3.444-13.084-.219-1.551-.482-4.131-.771-7.433l-23.824,2.448c1.147,4.629,2.352,9.61,3.614,15.1.9,3.911,1,13.176.989,20.394a45.367,45.367,0,0,0,18.65,1.111" transform="translate(107.141 137.86)" fill="#f2b27e"/>
            <path id="Trazado_799826" data-name="Trazado 799826" d="M208.32,287.045c7.582.343,15.165.689,22.755.709a27.3,27.3,0,0,0,7.664-.741c.727-4.537,2.007-9.309,5.157-12.553-5.132-1.856-10.5-3.758-13.272-5.412q-.695-.413-1.377-.813c-1.206-.71-2.37-1.411-3.48-2.16a27,27,0,0,0-8.445,10.241,3.494,3.494,0,0,1-.878,1.3,3.192,3.192,0,0,1-1.537.522,45.368,45.368,0,0,1-18.65-1.111c0,.493,0,.976,0,1.447-.009,2.509-.025,4.666-.016,6.144a20.92,20.92,0,0,0,4.507,1.621,41.9,41.9,0,0,0,7.574.807" transform="translate(108.775 147.487)" fill="#dba13a"/>
            <path id="Trazado_799827" data-name="Trazado 799827" d="M255.928,276.747c-1.669-1.491-6.724-3.359-12.032-5.278-3.151,3.244-4.43,8.016-5.157,12.553a27.416,27.416,0,0,1-7.664.741c-7.59-.022-15.173-.365-22.755-.709a41.892,41.892,0,0,1-7.574-.807,20.963,20.963,0,0,1-4.509-1.621c.006,1,.023,1.7.061,1.954,1,6.646,13.892,4.268,18.356,4.321,7.377.087,14.645,1.624,22.014,1.834,6.259.18,14.721-.667,20.037-4.321,3.351-2.3,1.884-6.293-.776-8.667" transform="translate(108.775 150.477)" fill="#ffc269"/>
            <path id="Trazado_799828" data-name="Trazado 799828" d="M200.444,269.046a8.966,8.966,0,0,0,5.421,5.244" transform="translate(111.108 149.134)" fill="none" stroke="#000" stroke-linecap="round" stroke-linejoin="round" stroke-width="0.5"/>
            <path id="Trazado_799829" data-name="Trazado 799829" d="M81.028,217.152s13.888,24.827,51.533,28.344,88.99-23.374,88.99-23.374,1.32,12.6,9.84,35.808S256.7,310.059,256.7,310.059s3.8,4.47,14.365,2.633,13.522-8.207,13.522-8.207-14.085-99.832-23.2-114.633-115.149-5.426-115.149-5.426l-65.643,5.1Z" transform="translate(44.677 100.606)" fill="#8080cc"/>
            <path id="Trazado_799830" data-name="Trazado 799830" d="M90.187,204.343s15.018,21.12,42.953,21.849,86.987-21.1,86.987-21.1,6.968,51.163,38.405,95.243" transform="translate(49.991 113.269)" fill="none" stroke="#000" stroke-linecap="round" stroke-linejoin="round" stroke-width="0.5"/>
            <path id="Trazado_799831" data-name="Trazado 799831" d="M172.109,209.028l8.813-7.489" transform="translate(95.401 111.715)" fill="none" stroke="#000" stroke-linecap="round" stroke-linejoin="round" stroke-width="0.5"/>
            <path id="Trazado_799832" data-name="Trazado 799832" d="M102.679,223.572a38.825,38.825,0,0,0,1.4-25.64" transform="translate(56.916 109.715)" fill="none" stroke="#000" stroke-linecap="round" stroke-linejoin="round" stroke-width="0.5"/>
            <path id="Trazado_799833" data-name="Trazado 799833" d="M142.445,178.355l-4.944,5.529c28.49-2.53,86.141-2.369,92.349,7.711,3.418,5.55,7.7,23.716,11.715,44.254,0,0,2.432,14.16,5.064,29.861" transform="translate(76.218 98.864)" fill="none" stroke="#000" stroke-linecap="round" stroke-linejoin="round" stroke-width="0.5"/>
            <path id="Trazado_799834" data-name="Trazado 799834" d="M143.673,182.026s-3.032-.886-16.617-1.045" transform="translate(70.428 100.32)" fill="none" stroke="#000" stroke-linecap="round" stroke-linejoin="round" stroke-width="0.5"/>
            <path id="Trazado_799835" data-name="Trazado 799835" d="M145.522,180s-3.032-.886-16.617-1.044" transform="translate(71.453 99.196)" fill="none" stroke="#000" stroke-linecap="round" stroke-linejoin="round" stroke-width="0.5"/>
            <path id="Trazado_799836" data-name="Trazado 799836" d="M123.639,137.345s8.314-5.782,9.458-15.21a3.951,3.951,0,0,1-1.893-2.226c-1.066-4.374,3.833-17.526,3.833-17.526L113.082,92.62s-.011,15.265-5.516,20.232a9.654,9.654,0,0,1-3.682,1.8c1.3,3.5,6.642,15.776,19.755,22.693" transform="translate(57.584 51.34)" fill="#f2b27e"/>
            <g id="Grupo_1065152" data-name="Grupo 1065152" transform="translate(169.609 143.96)" opacity="0.7" style="mix-blend-mode: multiply;isolation: isolate">
              <g id="Grupo_1065151" data-name="Grupo 1065151">
                <g id="Grupo_1065150" data-name="Grupo 1065150" clip-path="url(#clip-path-3)">
                  <path id="Trazado_799837" data-name="Trazado 799837" d="M132.135,102.383,110.18,92.62a59.624,59.624,0,0,1-1.058,10.294c3.625,7.7,10.711,19.51,19.329,17.374a2.631,2.631,0,0,1-.149-.379c-1.066-4.374,3.833-17.526,3.833-17.526" transform="translate(-109.122 -92.62)" fill="#f2b27e"/>
                </g>
              </g>
            </g>
            <path id="Trazado_799838" data-name="Trazado 799838" d="M172.673,212.407l-10.443-9.758q-3.495-3.266-6.99-6.531c-.985-.92-1.949-1.868-2.956-2.762-1.088-.965-3-1.4-1.537-3.088a3.848,3.848,0,0,0,.762-1.049c.238-.6-.286-1.1-.176-1.557.084-.344.379-.473.553-.765a16.682,16.682,0,0,1,1.313-1.573,45.835,45.835,0,0,0,2.834-4.01,56.428,56.428,0,0,0,5.7-12.142c4.958-14.732,6.778-39.689,3.584-45.986-2.557-5.041-11.395-6.345-15.366-8.908-1.146,9.428-9.46,15.21-9.46,15.21-13.114-6.917-18.454-19.188-19.755-22.693C112,109.4,93.86,108.744,87.352,117.967c-7.678,10.885-15.409,74.1-13.6,100.847s11.224,39.747,11.224,39.747,19.452,6.107,44.895-6.814,43.12-39.046,43.12-39.046l-.314-.294" transform="translate(40.732 59.197)" fill="#ffad01"/>
            <path id="Trazado_799839" data-name="Trazado 799839" d="M124.216,155.112a41.222,41.222,0,0,1-31.032,6.679" transform="translate(51.653 85.98)" fill="none" stroke="#000" stroke-linecap="round" stroke-linejoin="round" stroke-width="0.5"/>
            <path id="Trazado_799840" data-name="Trazado 799840" d="M134.839,161.426a139.915,139.915,0,0,1-37.708,9.461" transform="translate(53.84 89.48)" fill="none" stroke="#000" stroke-linecap="round" stroke-linejoin="round" stroke-width="0.5"/>
            <path id="Trazado_799841" data-name="Trazado 799841" d="M145.622,200.083l-.314-.294q-5.222-4.88-10.443-9.758-3.495-3.266-6.99-6.531c-.985-.92-1.949-1.868-2.956-2.762-1.09-.965-3-1.4-1.537-3.088a3.848,3.848,0,0,0,.762-1.049c.238-.6-.286-1.1-.176-1.556.084-.345.379-.474.553-.765a16.507,16.507,0,0,1,1.313-1.575,45.7,45.7,0,0,0,2.834-4.01,56.428,56.428,0,0,0,5.7-12.142c2.557-7.6,4.281-17.92,4.91-27" transform="translate(68.097 71.815)" fill="none" stroke="#000" stroke-linecap="round" stroke-linejoin="round" stroke-width="0.5"/>
            <path id="Trazado_799842" data-name="Trazado 799842" d="M159.252,213.71q5.171.492,10.342.985a10.3,10.3,0,0,0,3.249-.036,3.482,3.482,0,0,0,2.509-1.89,11.8,11.8,0,0,0,3.567-.479,4,4,0,0,0,2.566-2.363,1.94,1.94,0,0,1,.3-.7,2.809,2.809,0,0,1,.528-.389,1.99,1.99,0,0,0,.566-2.157,5.126,5.126,0,0,0-1.31-1.957,1.591,1.591,0,0,0,.068-1.843,3.7,3.7,0,0,0-2.089-1.6,11.1,11.1,0,0,0-2.649-.437q-2.609-.217-5.216-.443a25.425,25.425,0,0,1-4.043-.574,19.5,19.5,0,0,1-6.893-3.637c-.973-.74-1.884-1.565-2.9-2.213-.616-.392-1.475-.912-1.388-1.792.1-1.013,1.326-1.461,2.338-1.561,4.1-.4,8.229,1.169,12.319.657a2.082,2.082,0,0,0,1.649-.822c.53-.957-.5-2.011-1.4-2.627-3.222-2.19-6.528-4.419-10.3-5.384-6.474-1.658-13.74-1.219-20.337-.721-3.64.275-7.145.78-10.687.786L126.717,198.9c5.686,1.9,10.35,5.6,15.5,8.577a48.092,48.092,0,0,0,8.706,4.285,36.936,36.936,0,0,0,8.331,1.951" transform="translate(70.24 100.484)" fill="#f2b27e"/>
            <path id="Trazado_799843" data-name="Trazado 799843" d="M167.43,196.446a59,59,0,0,1-15.984-.19" transform="translate(83.948 108.786)" fill="none" stroke="#333" stroke-linecap="round" stroke-linejoin="round" stroke-width="0.5"/>
            <path id="Trazado_799844" data-name="Trazado 799844" d="M168.068,199.7a71.881,71.881,0,0,1-17.679-1.15" transform="translate(83.362 110.056)" fill="none" stroke="#333" stroke-linecap="round" stroke-linejoin="round" stroke-width="0.5"/>
            <path id="Trazado_799845" data-name="Trazado 799845" d="M162.473,201.736a81.727,81.727,0,0,1-13.7-1.175" transform="translate(82.467 111.173)" fill="none" stroke="#333" stroke-linecap="round" stroke-linejoin="round" stroke-width="0.5"/>
            <path id="Trazado_799846" data-name="Trazado 799846" d="M108.411,110.723C95.432,106.814,83.217,112.285,79.5,130.4s-6.332,57.2,1.711,72.812,72.423,36.52,72.423,36.52,5.2-3.828,6.537-9.763-2.146-7.907-2.146-7.907q-.853-.65-1.705-1.3-5.712-4.343-11.424-8.69-7.8-5.936-15.608-11.873c-.83-.631-12.632-9.441-12.525-9.592a7.244,7.244,0,0,0,.661-1.16.342.342,0,0,0,.045-.18.351.351,0,0,0-.09-.171c-.445-.57-1.4-1.394-1.368-2.094a3.2,3.2,0,0,1,.312-.793c.253-.643-.309-24,.14-30.121l1.287-17.5.574-7.8s3.068-16.163-9.91-20.074" transform="translate(42.091 60.713)" fill="#ffad01"/>
            <path id="Trazado_799847" data-name="Trazado 799847" d="M103.888,161.059a22.558,22.558,0,0,0-8.569,2.436" transform="translate(52.836 89.276)" fill="none" stroke="#000" stroke-linecap="round" stroke-linejoin="round" stroke-width="0.5"/>
            <path id="Trazado_799848" data-name="Trazado 799848" d="M77.629,129.569c-2.711,20.486-3.469,48.594,3.716,62.539,2.229,4.327,8.87,8.964,17.307,13.4l6.718,3.838c21.241,10.459,48.4,19.278,48.4,19.278a15.278,15.278,0,0,0,1.237-1.06" transform="translate(41.956 71.821)" fill="none" stroke="#000" stroke-linecap="round" stroke-linejoin="round" stroke-width="0.5"/>
            <path id="Trazado_799849" data-name="Trazado 799849" d="M143.733,211.7l-1.707-1.3q-5.712-4.346-11.424-8.69-7.8-5.938-15.607-11.873c-.83-.633-12.632-9.441-12.526-9.593a7.058,7.058,0,0,0,.662-1.158.272.272,0,0,0-.045-.353c-.445-.569-1.4-1.394-1.368-2.092a3.149,3.149,0,0,1,.312-.794c.253-.643-.311-24,.14-30.121q.643-8.748,1.285-17.5" transform="translate(56.383 71.078)" fill="none" stroke="#000" stroke-linecap="round" stroke-linejoin="round" stroke-width="0.5"/>
            <path id="Trazado_799850" data-name="Trazado 799850" d="M176.507,91.982c.438,24.334-16.274,48.768-30.569,49.026-20.044.362-42.05-21.21-42.489-45.544S117.365,48.9,137.408,48.539s38.66,19.109,39.1,43.443" transform="translate(57.337 26.903)" fill="#f2b27e"/>
          </g>
        </g>
        <g id="Grupo_1065156" data-name="Grupo 1065156" transform="translate(171.466 129.701)">
          <g id="Grupo_1065155" data-name="Grupo 1065155" clip-path="url(#clip-path-4)">
            <rect id="Rectángulo_374110" data-name="Rectángulo 374110" width="23.376" height="23.268" transform="matrix(1, -0.018, 0.018, 1, -0.525, 0.007)" fill="url(#radial-gradient)"/>
          </g>
        </g>
        <g id="Grupo_1065158" data-name="Grupo 1065158" transform="translate(216.013 140.872)">
          <g id="Grupo_1065157" data-name="Grupo 1065157" clip-path="url(#clip-path-5)">
            <rect id="Rectángulo_374111" data-name="Rectángulo 374111" width="14.209" height="18.869" transform="translate(-0.449 0.006) rotate(-1.037)" fill="url(#radial-gradient-2)"/>
          </g>
        </g>
        <g id="Grupo_1065160" data-name="Grupo 1065160">
          <g id="Grupo_1065159" data-name="Grupo 1065159" clip-path="url(#clip-path)">
            <path id="Trazado_799853" data-name="Trazado 799853" d="M125.24,83.312a8.66,8.66,0,0,1,10.484,3.738" transform="translate(69.422 45.885)" fill="none" stroke="#000" stroke-linecap="round" stroke-linejoin="round" stroke-width="0.5"/>
            <path id="Trazado_799854" data-name="Trazado 799854" d="M139.052,87.847s4.542-3.382,8.9,2.341" transform="translate(77.078 48.144)" fill="none" stroke="#000" stroke-linecap="round" stroke-linejoin="round" stroke-width="0.5"/>
          </g>
        </g>
        <g id="Grupo_1065162" data-name="Grupo 1065162" transform="translate(207.56 130.935)">
          <g id="Grupo_1065161" data-name="Grupo 1065161" clip-path="url(#clip-path-7)">
            <rect id="Rectángulo_374113" data-name="Rectángulo 374113" width="15.003" height="19.58" transform="translate(-5.407 1.252) rotate(-15.591)" fill="url(#linear-gradient)"/>
          </g>
        </g>
        <g id="Grupo_1065164" data-name="Grupo 1065164">
          <g id="Grupo_1065163" data-name="Grupo 1065163" clip-path="url(#clip-path)">
            <path id="Trazado_799856" data-name="Trazado 799856" d="M139.288,85.206a6.62,6.62,0,0,0-.176,6.833c.709,1.209,1.826,2.226,2.125,3.6a4.074,4.074,0,0,1-1.09,3.511,7.164,7.164,0,0,1-3.266,1.89" transform="translate(75.875 47.23)" fill="none" stroke="#000" stroke-linecap="round" stroke-linejoin="round" stroke-width="0.5"/>
            <path id="Trazado_799857" data-name="Trazado 799857" d="M134.322,85a15.153,15.153,0,0,0-4.863-4.24" transform="translate(71.76 44.766)" fill="none" stroke="#000" stroke-linecap="round" stroke-linejoin="round" stroke-width="0.5"/>
            <path id="Trazado_799858" data-name="Trazado 799858" d="M140.273,85.667a9.72,9.72,0,0,1,5.111-.615" transform="translate(77.754 47.085)" fill="none" stroke="#000" stroke-linecap="round" stroke-linejoin="round" stroke-width="0.5"/>
            <path id="Trazado_799859" data-name="Trazado 799859" d="M124.241,76.233c1.567,0,3.078.065,4.581.1s2.994.067,4.484.037c1.491,0,2.978-.064,4.48-.121s3.009-.168,4.576-.207a16.7,16.7,0,0,1-4.4,1.564,23.191,23.191,0,0,1-4.643.516,23.558,23.558,0,0,1-4.65-.434,17.213,17.213,0,0,1-4.43-1.46" transform="translate(68.868 42.153)" fill="#5e4028"/>
            <path id="Trazado_799860" data-name="Trazado 799860" d="M153.987,85.883a13.52,13.52,0,0,1-4.072-.828,18.309,18.309,0,0,1-6.963-4.467,13.563,13.563,0,0,1-2.454-3.354c1.172.765,2.252,1.551,3.342,2.313s2.179,1.491,3.284,2.2,2.226,1.39,3.365,2.072,2.311,1.326,3.5,2.066" transform="translate(77.879 42.811)" fill="#5e4028"/>
            <path id="Trazado_799861" data-name="Trazado 799861" d="M143.282,105.44c-.292-1.509,2.226-7.762-5.888-9.606-7.633-1.735-13.306,4.579-13.306,4.579s4.61,2.137,19.194,5.027" transform="translate(68.783 52.955)"/>
          </g>
        </g>
        <g id="Grupo_1065166" data-name="Grupo 1065166" transform="translate(192.871 148.488)">
          <g id="Grupo_1065165" data-name="Grupo 1065165" clip-path="url(#clip-path-9)">
            <path id="Trazado_799862" data-name="Trazado 799862" d="M144.9,110.2c-1.662,3.3-9.1,2.907-16.617-.878s-12.262-9.528-10.6-12.828,9.1-2.907,16.617.878,12.262,9.528,10.6,12.828" transform="translate(-127.823 -96.244)" fill="#d8714c"/>
            <path id="Trazado_799863" data-name="Trazado 799863" d="M124.263,97.786s13.543,4.5,18.148,5.269,8.211-4.211,8.211-4.211l-23.761-6.912Z" transform="translate(-123.991 -97.529)" fill="#fff"/>
          </g>
        </g>
        <g id="Grupo_1065171" data-name="Grupo 1065171">
          <g id="Grupo_1065170" data-name="Grupo 1065170" clip-path="url(#clip-path)">
            <path id="Trazado_799865" data-name="Trazado 799865" d="M120.1,91.473A71.5,71.5,0,0,0,138.635,70.7a25.343,25.343,0,0,1-9.349,17.714c8.253,2.849,16.741,5.735,25.467,5.414a6.038,6.038,0,0,0,2.591-.519,5.949,5.949,0,0,0,1.714-1.539A30.748,30.748,0,0,0,165.04,80.43a27.432,27.432,0,0,1-4.535,13.2,15.265,15.265,0,0,0,8.39-9.618,32.03,32.03,0,0,1-4.686,12.414c6.163.931,10.647,6.618,16.692,8.14,1.306-3.084,1.4-6.528,1.411-9.876A87.82,87.82,0,0,0,181.024,77.2a37.066,37.066,0,0,0-6.968-15.949c-3.873-4.859-9.248-8.34-14.926-10.863-8.564-3.8-18.162-5.577-27.416-4.114s-18.1,6.338-23.545,13.967a36.655,36.655,0,0,0-4.727,9.365,38.287,38.287,0,0,0-1.582,19.263c.748,4.066,3.743,15.736,9.374,10.066a79.654,79.654,0,0,1,8.87-7.456" transform="translate(56.138 25.364)" fill="#38322e"/>
            <path id="Trazado_799866" data-name="Trazado 799866" d="M114.492,81.826c2.3,7.167,1.666,13.533-3.418,15.164s-12.7-2.1-15-9.262-.037-14.3,5.047-15.929,11.07,2.86,13.367,10.027" transform="translate(52.759 39.614)" fill="#f2b27e"/>
            <path id="Trazado_799867" data-name="Trazado 799867" d="M96.594,73.472s8.748,1.742,14.365,17.4" transform="translate(53.543 40.726)" fill="none" stroke="#000" stroke-linecap="round" stroke-linejoin="round" stroke-width="0.5"/>
            <g id="Grupo_1065169" data-name="Grupo 1065169" transform="translate(145.499 74.147)" style="mix-blend-mode: screen;isolation: isolate">
              <g id="Grupo_1065168" data-name="Grupo 1065168">
                <g id="Grupo_1065167" data-name="Grupo 1065167" clip-path="url(#clip-path-11)">
                  <path id="Trazado_799868" data-name="Trazado 799868" d="M174.8,48.051c-16.044-1.741-32.74,3.552-48.8,5.272-8.712.934-18.038.356-25.752-3.48a52.542,52.542,0,0,0-6.635,9.688,19.47,19.47,0,0,0,8.776,3.252,54.687,54.687,0,0,0,17.087-.126c4.543-.754,8.976-2.08,13.519-2.829,11.454-1.892,23.339-.028,34.153,4.2a98.039,98.039,0,0,1,20.992,11.594A39.208,39.208,0,0,0,174.8,48.051" transform="translate(-93.61 -47.704)" fill="#38322e"/>
                </g>
              </g>
            </g>
          </g>
        </g>
      </g>
    </g>
  </g>
</svg>
