<svg xmlns="http://www.w3.org/2000/svg" xmlns:xlink="http://www.w3.org/1999/xlink" width="353.881" height="273.974" viewBox="0 0 353.881 273.974">
  <defs>
    <clipPath id="clip-path">
      <rect id="Rectángulo_374128" data-name="Rectángulo 374128" width="314.697" height="202.976" fill="none"/>
    </clipPath>
  </defs>
  <g id="Grupo_1065204" data-name="Grupo 1065204" transform="translate(4032.351 9802.21)">
    <path id="Trazado_800086" data-name="Trazado 800086" d="M2.041,76.088c-6.423,29.45,2.58,61.827,23.283,83.733,5.094,5.391,10.961,10.348,14.09,17.074,4.3,9.234,2.623,20.184-.9,29.738s-8.782,18.44-11.744,28.182c-6.815,22.417.065,48.418,17.076,64.53S87.192,320.915,109.2,312.9c15.8-5.756,28.581-17.457,40.918-28.877,15.3-14.168,30.805-28.574,41.712-46.35,19.02-31,22.194-69.141,20.625-105.478-1.283-29.779-5.815-60.552-22.075-85.534a102.917,102.917,0,0,0-55-41.68C79.879-12.393,14.986,16.741,2.041,76.088" transform="matrix(0.208, 0.978, -0.978, 0.208, -3722.715, -9802.21)" fill="#8edee0"/>
    <g id="Grupo_1065203" data-name="Grupo 1065203" transform="translate(-4012.978 -9761.313)">
      <g id="Grupo_1065202" data-name="Grupo 1065202" clip-path="url(#clip-path)">
        <path id="Trazado_799936" data-name="Trazado 799936" d="M617.918,1056.7q.027,5.409-.143,10.817H584.594c0-.064,0-.132,0-.2q-.112-4.781-.139-9.567a19.728,19.728,0,0,1,33.467-1.054" transform="translate(-482.458 -865.058)" fill="#f6b692"/>
        <path id="Trazado_799937" data-name="Trazado 799937" d="M776.422,348.176a2.4,2.4,0,1,1-4.539,1.093,2.28,2.28,0,0,1,.086-.629,13.2,13.2,0,0,0,4.453-.465" transform="translate(-637.181 -287.415)" fill="#2a1c4e"/>
        <path id="Trazado_799938" data-name="Trazado 799938" d="M1184.821,231.8a2.053,2.053,0,1,1-2.055,2.051,2.051,2.051,0,0,1,2.055-2.051" transform="translate(-976.36 -191.349)" fill="#2a1c4e"/>
        <path id="Trazado_799939" data-name="Trazado 799939" d="M610.591,132.534a23.185,23.185,0,0,1-26.834-7.862h-.021a27.241,27.241,0,0,1-1.054,8.5,5.337,5.337,0,0,0-1.751.586c-.039.018-.082.039-.122.061a1.624,1.624,0,0,0-1.161-1.5,3.79,3.79,0,0,0-2.48.393,25.355,25.355,0,0,0-10.246,8.416q-1.072,1.464-2.008,2.945c-.461-5.836-.872-11.707-.186-17.518a32.316,32.316,0,0,1,5.821-15.245c2.866-3.945,6.94-7.887,11.525-9.713a33.663,33.663,0,0,1,10.538-2.066,39.053,39.053,0,0,1,10.406.5,21.406,21.406,0,0,1,7.272,3.634,31.244,31.244,0,0,1,10.349,12.229c2.212,4.739,4.471,9.817,8.812,13.015a41.474,41.474,0,0,0,6.122,3.295,13.836,13.836,0,0,1,5.436,4.228,6.34,6.34,0,0,1,.868,5.711,9.851,9.851,0,0,1,1.411,1.315,9.534,9.534,0,0,1,2.162,6.665,13.864,13.864,0,0,1-1.576,5.61,44.536,44.536,0,0,0-8.891,1.079,19.045,19.045,0,0,0,.751,2.987c.325.954,1.14,1.74,1.522,2.719a8.983,8.983,0,0,1,.643,3.281,7.325,7.325,0,0,1-3.659,6.443,5.977,5.977,0,0,1-4.974.2,7.8,7.8,0,0,0,2.33,3.688,2.067,2.067,0,0,1,.961,1.572,1.387,1.387,0,0,1-.622,1.018c-1.537,1.058-4.317.046-5.675-.9-2.444-1.719-3.766-4.649-4.392-7.572-.132-.615-.236-1.233-.318-1.848-.883-6.5.711-13.076.8-19.587a16.181,16.181,0,0,0-.143-3.145,2.382,2.382,0,0,1,.361-1.869c.386-.525,1.079-.772,1.573-1.2a6.367,6.367,0,0,0-.179-9.878,4.576,4.576,0,0,0-2.584-1.047A2.9,2.9,0,0,0,618.9,132.8a4.817,4.817,0,0,0-.575,2.809c0,.683,0,1.369,0,2.055a19.879,19.879,0,0,1-5.975-5.192c-.586.046-1.172.068-1.758.061" transform="translate(-465.875 -82.059)" fill="#2a1c4e"/>
        <path id="Trazado_799940" data-name="Trazado 799940" d="M663.584,379.916a2.4,2.4,0,1,1-3.427,2.616,11.567,11.567,0,0,0,3.427-2.616" transform="translate(-544.952 -313.616)" fill="#2a1c4e"/>
        <path id="Trazado_799941" data-name="Trazado 799941" d="M632.047,443.635c-.357,2.655-1.533,5.207-2.491,7.74a23.879,23.879,0,0,0-1.126,3.8,14.168,14.168,0,0,0-.243,1.941,8.659,8.659,0,0,1-.061,1.776.809.809,0,0,1-.508.579,1.024,1.024,0,0,1-.825-.218c-1.183-.815-1.8-2.755-2.162-4.088a10.807,10.807,0,0,1-.289-1.422,7.01,7.01,0,0,1-3.123,3.674q-.263-3.87-.543-7.748,1.147-6.432,2.28-12.868c.247-1.394.386-2.952.636-4.46l.561.089a20.5,20.5,0,0,0,7.994,10.049c-.014.39-.05.776-.1,1.158" transform="translate(-512.361 -356.891)" fill="#2a1c4e"/>
        <path id="Trazado_799942" data-name="Trazado 799942" d="M326.59,297.432a1.98,1.98,0,1,1-1.98,1.98,1.98,1.98,0,0,1,1.98-1.98" transform="translate(-267.962 -245.527)" fill="#2a1c4e"/>
        <path id="Trazado_799943" data-name="Trazado 799943" d="M410.651,314.9a1.98,1.98,0,1,1-1.98,1.98,1.98,1.98,0,0,1,1.98-1.98" transform="translate(-337.353 -259.946)" fill="#2a1c4e"/>
        <path id="Trazado_799944" data-name="Trazado 799944" d="M341.063,381.447a1.463,1.463,0,0,1,.2,1.4,2.426,2.426,0,0,1-.918,1.129,4,4,0,0,1-3.066.611,4.817,4.817,0,0,1-2.691-1.647,2.69,2.69,0,0,1-.718-1.708,1.388,1.388,0,0,1,1.061-1.376,2.166,2.166,0,0,1,.99.164,22.267,22.267,0,0,0,3.191,1.061c.65.107,1.458-.239,1.955.365" transform="translate(-275.602 -313.557)" fill="#fff"/>
        <path id="Trazado_799945" data-name="Trazado 799945" d="M74.488,749.342c-.061-.15-.118-.3-.175-.454.039-.1.079-.2.125-.293.018.25.036.5.05.747" transform="translate(-61.345 -617.957)" fill="#1d971b"/>
        <path id="Trazado_799946" data-name="Trazado 799946" d="M879.571,1069.487c.046.232.089.464.136.7H844.914a91.305,91.305,0,0,1-.929-9.413c2.712-6,9.552-9.781,16.213-9.606,6.679.179,12.926,3.817,17.292,8.909v0q1.131,4.685,2.08,9.409" transform="translate(-696.7 -867.72)" fill="#f6b692"/>
        <path id="Trazado_799947" data-name="Trazado 799947" d="M1132.281,31.911c-1.429,1.651-3.942,3.985-6.121,4.317a2.694,2.694,0,0,1-2.927-1.458,7.116,7.116,0,0,1-.8-2.777,12.714,12.714,0,0,1-.307-3.231c1.351-10.013,7.544-20.1,16.181-25.4C1142.648.7,1148.751.067,1153.772,0a27.5,27.5,0,0,1,13.265,2.938,27.3,27.3,0,0,1,11.686,13.254,39.249,39.249,0,0,1,3.023,11.439c.461,3.956,2.848,7.469,5.507,10.313,3.2,3.42,7,6.3,9.727,10.11a12.356,12.356,0,0,1,2.351,4.746c.286,1.762.111,2.823,1.773,4.1a42.17,42.17,0,0,0,3.724,2.151,11.821,11.821,0,0,1,4.717,14.659c-3.863-3.416-8.984-5.328-14.03-6.654a27.031,27.031,0,0,0-4.932-.79c-3.359-.257-6.2-.143-9.963-2.119a16.15,16.15,0,0,1-6.136-5.735c-1.622-2.6-1.5-5.825-1.154-8.766a38.437,38.437,0,0,0,.525-7.251q-.274-1.4-.49-2.812l.036-.014a5.706,5.706,0,0,0,2.927-2.6,4.693,4.693,0,1,0-8.823-2.87c-.093.558-.046.843-.172,1.394a.456.456,0,0,1-.1.225c-.014.014-.014.029-.007.036a4.845,4.845,0,0,1-3.256-1.126,11.172,11.172,0,0,1-2.316-2.694,34.339,34.339,0,0,1-3.877-7.865,11.78,11.78,0,0,1-3.095-1.562c-1.887-1.308-3.491-2.984-5.325-4.367-.7-.522-1.444-1.058-2.269-.557-1.14.69-1.783,2.323-2.362,3.47a30.6,30.6,0,0,1-4.824,6.575,13.578,13.578,0,0,1-7.626,4.285" transform="translate(-926.271 0)" fill="#a43124"/>
        <path id="Trazado_799948" data-name="Trazado 799948" d="M1184.969,364.773a15.261,15.261,0,0,1,.618-5.142c.682-2.491,1.712-4.885,2.19-7.422a12.654,12.654,0,0,0,.175-3.849,18.617,18.617,0,0,0,17.45,4.392,4.96,4.96,0,0,1-1.415,6.929c-.268.2-.557.4-.861.643-1.433,1.122-2.891,2.216-4.385,3.259q-2.53,1.769-5.178,3.366-2.032,1.233-4.124,2.359-3.264,1.758-6.661,3.252a8.36,8.36,0,0,1,2.191-7.783Z" transform="translate(-976.19 -287.567)" fill="#a43124"/>
        <path id="Trazado_799949" data-name="Trazado 799949" d="M1270.28,208.157a2.053,2.053,0,1,1-2.319,1.748,2.055,2.055,0,0,1,2.319-1.748" transform="translate(-1046.671 -171.815)" fill="#2a1c4e"/>
        <path id="Trazado_799950" data-name="Trazado 799950" d="M1380.811,204.853c.05.039-.032.036-.046,0,.014,0,.032,0,.046,0" transform="translate(-1139.806 -169.104)" fill="#1d971b"/>
        <path id="Trazado_799951" data-name="Trazado 799951" d="M1251.069,302.465a1.592,1.592,0,0,0,.692.506,3.714,3.714,0,0,0,2.723.078,3.671,3.671,0,0,0,2-1.746c.337-.675.528-1.686-.485-1.911a2.033,2.033,0,0,0-1.175.209c-.75.3-4.672,1.558-3.755,2.863" transform="translate(-1032.629 -247.123)" fill="#fff"/>
        <path id="Trazado_799952" data-name="Trazado 799952" d="M1319.111,358.589a6,6,0,0,0,1.673-3.684,34,34,0,0,1-4.974,2.554c-.629.26-1.268.5-1.875.809a4.719,4.719,0,0,1,.537,4.1,16.252,16.252,0,0,0,4.64-3.777" transform="translate(-1084.637 -292.97)" fill="#f2947a"/>
        <path id="Trazado_799953" data-name="Trazado 799953" d="M1201.915,146.373a16.148,16.148,0,0,1-6.136-5.736c-1.622-2.6-1.5-5.825-1.154-8.766a38.417,38.417,0,0,0,.525-7.251q-.273-1.4-.49-2.812l.036-.014a5.707,5.707,0,0,0,2.927-2.6,4.693,4.693,0,1,0-8.823-2.87c-.093.558-.047.843-.172,1.394a.455.455,0,0,1-.1.225c-.014.014-.014.029-.007.036s.032,0,.047,0c.05.039-.032.036-.047,0a4.845,4.845,0,0,1-3.255-1.126,11.174,11.174,0,0,1-2.316-2.694,34.337,34.337,0,0,1-3.877-7.865,11.781,11.781,0,0,1-3.095-1.562c-1.887-1.308-3.492-2.984-5.325-4.367-.685-.513-1.418-1.037-2.227-.58a8.153,8.153,0,0,0-.915,1.612c-.579,1.346-.884,2.793-1.388,4.169a15.515,15.515,0,0,1-7.24,8.3,34.19,34.19,0,0,0-5.037,2.625c-1.085.831-1.942,1.923-2.978,2.816a10.489,10.489,0,0,1-2.987,1.8c1.15,5.637,3.724,10.9,6.6,15.887a24.424,24.424,0,0,0,4.846,6.029,18.617,18.617,0,0,0,17.45,4.392c.03.036.056.075.084.113.607-.305,1.246-.549,1.875-.809a33.986,33.986,0,0,0,4.974-2.554,6,6,0,0,1-1.673,3.684,16.256,16.256,0,0,1-4.64,3.777c-.053.177-.112.351-.181.52a4.788,4.788,0,0,1-1.855,2.2h0c-.514,4.907,3.668,9.759,8.36,10.678,4.585.9,9.4-1.178,12.665-4.523s5.156-7.8,6.365-12.315l.3-1.268c-.369-.162-.745-.338-1.132-.542m-45.888-19.587a2.053,2.053,0,1,1,2.051-2.055,2.055,2.055,0,0,1-2.051,2.055m15.394,9.622a3.672,3.672,0,0,1-2,1.746,3.713,3.713,0,0,1-2.723-.078,1.59,1.59,0,0,1-.692-.506c-.917-1.305,3-2.56,3.755-2.863a2.033,2.033,0,0,1,1.175-.209c1.014.224.823,1.235.485,1.911m1.5-15.518a2.053,2.053,0,1,1-1.748-2.319,2.055,2.055,0,0,1,1.748,2.319" transform="translate(-947.566 -82.228)" fill="#f6b692"/>
        <path id="Trazado_799954" data-name="Trazado 799954" d="M1151.813,117.32a34.178,34.178,0,0,1,5.036-2.625,15.517,15.517,0,0,0,7.24-8.3c.5-1.376.809-2.823,1.388-4.169a8.142,8.142,0,0,1,.915-1.612l-.042.022c-1.14.69-1.783,2.323-2.362,3.47a30.613,30.613,0,0,1-4.824,6.575,13.578,13.578,0,0,1-7.626,4.285c-1.429,1.651-3.942,3.984-6.121,4.317.106.892.252,1.775.431,2.649a10.484,10.484,0,0,0,2.988-1.8c1.036-.892,1.893-1.984,2.978-2.816" transform="translate(-945.528 -83.057)" fill="#f2947a"/>
        <path id="Trazado_799955" data-name="Trazado 799955" d="M1402.084,187.3a1.261,1.261,0,0,0-.806,1.213c.067.538.578.908.775,1.413a1.3,1.3,0,0,1-.072,1.084c-.139.252-.373.5-.315.781a.667.667,0,0,0,.635.437,2.386,2.386,0,0,0,1.465-.47,3.938,3.938,0,0,0,1.394-1.465,2.205,2.205,0,0,0-3.076-2.992" transform="translate(-1156.734 -154.43)" fill="#f2947a"/>
        <path id="Trazado_799956" data-name="Trazado 799956" d="M1130.218,511.309c-.377-.641-.748-1.286-1.1-1.938q-.751-1.374-1.441-2.78a70.782,70.782,0,0,1-3.57-8.683q-3.457,1.313-7.008,2.341a83.562,83.562,0,0,1,2.526,8.108c.678,2.51,1.355,5.074,1.973,7.672.31-.147.615-.3.911-.464,2.58-1.412,4.948-3.288,7.712-4.255" transform="translate(-922.149 -411.017)" fill="#f6b692"/>
        <path id="Trazado_799957" data-name="Trazado 799957" d="M1151.5,574.7c-2.763.967-5.132,2.844-7.712,4.255-.3.162-.6.316-.911.464.438,1.841.848,3.7,1.2,5.565.214.125.432.261.658.407l.289.193a100.922,100.922,0,0,0,12.315-2.416q-.491-.61-.968-1.232-1.431-1.863-2.736-3.819-1.119-1.677-2.138-3.418" transform="translate(-943.434 -474.41)" fill="#f2947a"/>
        <path id="Trazado_799958" data-name="Trazado 799958" d="M1203.7,554.62c-.478-.563-1.352.01-1.924.478-2.433,1.985-5.929,1.757-8.937,2.656q-.276.082-.547.178,1.022,1.738,2.138,3.418,1.3,1.954,2.736,3.819.477.621.968,1.232,2.455-.643,4.867-1.408c-.262,2.177-.471,4.358-.532,6.538q.7-7.971,1.4-15.942a1.3,1.3,0,0,0-.171-.968" transform="translate(-984.226 -457.64)" fill="#f39200"/>
        <path id="Trazado_799959" data-name="Trazado 799959" d="M1415.548,605.258a21.434,21.434,0,0,0-2.127-2.21c-.954,4.659-.953,9.568-2.848,13.926-2.5,5.745-7.881,9.634-11.682,14.614-3.565,4.673-5.827,10.428-10.326,14.209-5.416,4.551-12.874,5.309-20.042,5.509a65.245,65.245,0,0,0,11.656,1.427c4.728.143,9.6-.247,13.865-2.284,6.15-2.93,10.26-8.859,13.708-14.734a102.416,102.416,0,0,0,10.974-25.262,20.729,20.729,0,0,0-1.177-2.338,21.321,21.321,0,0,0-2-2.858" transform="translate(-1129.701 -497.809)" fill="#f2947a"/>
        <path id="Trazado_799960" data-name="Trazado 799960" d="M1160.3,606.078c3.8-4.98,9.183-8.87,11.681-14.614,1.9-4.358,1.894-9.267,2.847-13.926a21.034,21.034,0,0,0-2.4-1.875q-.726-.486-1.493-.91a21.19,21.19,0,0,0-8.538-2.542q-.895-.071-1.793-.066-.448,0-.9.024t-.9.063q-.894.082-1.778.241-1.071,4.24-2.5,8.376-.572,1.653-1.2,3.285-1.57,4.08-3.488,8.015-1.532,3.144-3.281,6.178-.37.641-.761,1.28t-.812,1.264a20,20,0,0,1-3.291,3.889,11.309,11.309,0,0,1-3.288,2.064,10.477,10.477,0,0,1-1.91.556,12.083,12.083,0,0,1-1.311.177,17.163,17.163,0,0,1-4.678-.336c-.666-.132-1.327-.292-1.978-.472q-.326-.09-.647-.185c-.5-.15-1.008-.307-1.508-.475a48.4,48.4,0,0,1-6.969-3q-1.441-.754-2.839-1.591c-1.863-1.114-3.667-2.329-5.412-3.616-.043-.032-.089-.064-.132-.1a67.882,67.882,0,0,1-6.243-4.8,91.272,91.272,0,0,0-7.179-6.05q-2.391-1.812-4.9-3.463l-.289-.193c-.225-.147-.443-.282-.658-.408a16.606,16.606,0,0,0-4.26-1.651c-.154-.043-.307-.086-.461-.125a3.543,3.543,0,0,0-2.359-.036,1.463,1.463,0,0,0-.818,1.6,5.7,5.7,0,0,0-2.645-.311,2.186,2.186,0,0,0-1.322.589,1.6,1.6,0,0,0-.4,1.133,2.337,2.337,0,0,0,.329,1.14,5.717,5.717,0,0,0,1.783,1.637v.025c-.1-.007-.2-.011-.293-.011-.5-.007-1.122.1-1.3.575a1.236,1.236,0,0,0,.154.943,6.616,6.616,0,0,0,2.112,2.477,1.136,1.136,0,0,0-.822.747c-.2.679.361,1.326.872,1.819,2.93,2.809,5.607,4.574,8.1,7.78q1.04,1.34,2.151,2.619a68.629,68.629,0,0,0,32.595,20.777c1.572.457,3.161.85,4.761,1.192,7.168-.2,14.626-.958,20.042-5.509,4.5-3.781,6.761-9.536,10.326-14.209" transform="translate(-891.113 -472.298)" fill="#f6b692"/>
        <path id="Trazado_799961" data-name="Trazado 799961" d="M1183.6,436.779a48.406,48.406,0,0,0,6.969,3c.5.168,1,.325,1.508.475q.322.1.647.185c.651.179,1.312.34,1.978.472a17.154,17.154,0,0,0,4.678.336,12.022,12.022,0,0,0,1.311-.176,10.474,10.474,0,0,0,1.91-.556,11.312,11.312,0,0,0,3.288-2.064,20.01,20.01,0,0,0,3.291-3.889c.281-.416.55-.839.812-1.264s.514-.853.761-1.28q1.748-3.031,3.281-6.178,1.916-3.93,3.488-8.015.628-1.632,1.2-3.285,1.43-4.132,2.5-8.376.884-.159,1.779-.241.447-.041.9-.063t.9-.024q.9-.005,1.793.066a21.193,21.193,0,0,1,8.537,2.542q.766.423,1.493.91a21.052,21.052,0,0,1,2.4,1.875c.042-.2.082-.406.128-.609,1.106-4.917,3.422-9.476,4.851-14.309a28.4,28.4,0,0,0,1.073-5.429,23.484,23.484,0,0,0-4.571-9.226,19.175,19.175,0,0,0-1.926-1.958c-3.863-3.416-8.984-5.328-14.03-6.654a27.024,27.024,0,0,0-4.931-.79c-3.013-.231-5.615-.167-8.831-1.577l-.3,1.268c-1.208,4.514-3.1,8.97-6.364,12.315s-8.079,5.421-12.665,4.523c-4.692-.919-8.874-5.771-8.36-10.678-.268.2-.557.4-.86.643-1.433,1.122-2.891,2.216-4.385,3.259q-2.53,1.769-5.178,3.366-2.031,1.233-4.124,2.359-3.264,1.758-6.661,3.252-2.294,1.013-4.635,1.9a70.733,70.733,0,0,0,3.57,8.683q.69,1.406,1.441,2.78c.357.653.727,1.3,1.1,1.938q.271-.095.547-.178c3.009-.9,6.5-.671,8.938-2.656.573-.467,1.446-1.041,1.924-.478a1.3,1.3,0,0,1,.171.968l-1.4,15.942a37.491,37.491,0,0,0,.139,4.694,25.438,25.438,0,0,0,1.669,7c1.745,1.287,3.549,2.5,5.412,3.616q1.4.835,2.839,1.591" transform="translate(-955.298 -305.986)" fill="#f9b233"/>
        <path id="Trazado_799962" data-name="Trazado 799962" d="M1632.723,490.678a38.894,38.894,0,0,0-.875-4.225,28.393,28.393,0,0,1-1.073,5.429c-1.429,4.833-3.745,9.392-4.851,14.309-.045.2-.086.405-.128.609a21.2,21.2,0,0,1,4.13,5.068,20.736,20.736,0,0,1,1.177,2.338q.445-1.678.8-3.366a55.932,55.932,0,0,0,.815-20.162" transform="translate(-1342.077 -401.561)" fill="#f39200"/>
        <path id="Trazado_799963" data-name="Trazado 799963" d="M1525.621,572.642q-.894.082-1.779.241.884-.159,1.779-.241" transform="translate(-1257.914 -472.709)" fill="#f9b233"/>
        <path id="Trazado_799964" data-name="Trazado 799964" d="M1637.985,615.713a21.314,21.314,0,0,1,2,2.858,21.314,21.314,0,0,0-2-2.858" transform="translate(-1352.138 -508.264)" fill="#f9b233"/>
        <path id="Trazado_799965" data-name="Trazado 799965" d="M1503.829,622.022q-.572,1.653-1.2,3.285.628-1.632,1.2-3.285" transform="translate(-1240.403 -513.472)" fill="#f9b233"/>
        <path id="Trazado_799966" data-name="Trazado 799966" d="M1539.163,572.17q.448-.022.9-.024-.449,0-.9.024" transform="translate(-1270.561 -472.3)" fill="#f9b233"/>
        <path id="Trazado_799967" data-name="Trazado 799967" d="M1459.484,694.235c.261-.425.514-.853.76-1.28q1.747-3.031,3.281-6.178-1.533,3.144-3.281,6.178c-.247.427-.5.855-.76,1.28" transform="translate(-1204.787 -566.927)" fill="#f9b233"/>
        <path id="Trazado_799968" data-name="Trazado 799968" d="M1393.085,795.865a12.33,12.33,0,0,0,3.875-9.063,33.983,33.983,0,0,0-1.638-9.977c-.471-1.717-1.479-3.816-3.251-3.659a3.905,3.905,0,0,0-2.138,1.236l-13.394,12.244a5.727,5.727,0,0,1-.464.38,22.107,22.107,0,0,1-5.545,3.848c-4.267,2.037-9.138,2.426-13.866,2.284a66,66,0,0,1-16.417-2.619,27.505,27.505,0,0,1,2.58,7.8q-1.388.321-2.791.54c3.541,1,6.822,2.769,10.245,4.138a20.451,20.451,0,0,0,9.988,1.765c4.266-1.353,8.681-2.268,12.969-3.522a59.93,59.93,0,0,1,9.963-2.063c3.49-.5,7.2-1.048,9.884-3.332" transform="translate(-1106.184 -638.232)" fill="#f9b233"/>
        <path id="Trazado_799969" data-name="Trazado 799969" d="M1570.242,670.059c-3.7-8.612-8.373-16.782-11.839-25.487a99.554,99.554,0,0,1-5.328-18.372q-.359,1.688-.8,3.366a102.419,102.419,0,0,1-10.975,25.261,47.665,47.665,0,0,1-8.163,10.886,5.7,5.7,0,0,0,.464-.38l13.394-12.244a3.9,3.9,0,0,1,2.138-1.236c1.773-.158,2.781,1.942,3.252,3.658a33.977,33.977,0,0,1,1.638,9.977,12.328,12.328,0,0,1-3.875,9.063c-2.687,2.283-6.394,2.83-9.884,3.332a59.954,59.954,0,0,0-9.963,2.063c.2-.058.4-.113.6-.172l.029.093a79.051,79.051,0,0,1,43.433,1.926,81.884,81.884,0,0,0-4.113-11.736" transform="translate(-1263.243 -516.922)" fill="#f39200"/>
        <path id="Trazado_799970" data-name="Trazado 799970" d="M1581.6,1061.926c-3.563,1.273-7.568.835-11.116,2.148s-6.408,4.3-10.119,5.064c-4.232.868-8.47-1.356-12.787-1.531-1.4-.056-2.967.194-3.806,1.311-.986,1.313-.521,3.187.145,4.688a13.942,13.942,0,0,1,1.18,3.181h29.526c5.909-3.938,9.745-10.566,11.287-17.628a11.685,11.685,0,0,1-4.309,2.766" transform="translate(-1273.896 -874.325)" fill="#553678"/>
        <path id="Trazado_799971" data-name="Trazado 799971" d="M1383.725,955.165c.839-1.117,2.41-1.368,3.806-1.311,4.317.174,8.554,2.4,12.786,1.53,3.711-.762,6.566-3.749,10.119-5.064s7.554-.875,11.116-2.148a11.684,11.684,0,0,0,4.309-2.766,33.491,33.491,0,0,0,.666-4.46,46.874,46.874,0,0,0-1.565-15.5,79.05,79.05,0,0,0-43.433-1.926l-.029-.093c-4.474,1.347-9.1,2.28-13.565,3.695-.472.147-.94.3-1.408.461-6.851,2.362-13.669,6.64-16.149,13.447-2.291,6.286-.414,13.24,1.472,19.658.229.782.461,1.565.69,2.348h32.508a13.946,13.946,0,0,0-1.18-3.181c-.666-1.5-1.131-3.375-.145-4.688" transform="translate(-1113.851 -760.571)" fill="#6a4d85"/>
        <path id="Trazado_799972" data-name="Trazado 799972" d="M1275.667,1050.464c-2.454.144-5.09,1.59-5.543,4.006-.306,1.633.439,3.259,1.164,4.754l5.035,10.372H1287.1c-.229-.783-.461-1.565-.69-2.348-1.493-5.078-2.977-10.492-2.4-15.645-.359-.028-.716-.068-1.066-.121-2.431-.366-4.83-1.161-7.284-1.018" transform="translate(-1048.414 -867.132)" fill="#553678"/>
        <path id="Trazado_799973" data-name="Trazado 799973" d="M1165.288,926.911c.468-.161.936-.315,1.408-.461a20.45,20.45,0,0,1-9.988-1.765c-3.423-1.369-6.7-3.141-10.245-4.138a112.893,112.893,0,0,1-12.64.929c-5.392.239-10.874.664-15.9,2.623a23.12,23.12,0,0,0-5.864,3.313,16.741,16.741,0,0,0-5.575,7.44c-1.819,5.085-.675,10.706.7,15.931q.751,2.852,1.583,5.682.863,2.964,1.8,5.9h29.954l-5.035-10.372c-.725-1.495-1.47-3.121-1.164-4.754.453-2.416,3.089-3.862,5.543-4.006s4.853.652,7.284,1.018c.35.053.707.093,1.066.121a17.316,17.316,0,0,1,.926-4.013c2.48-6.808,9.3-11.085,16.149-13.447" transform="translate(-912.611 -759.9)" fill="#6a4d85"/>
        <path id="Trazado_799974" data-name="Trazado 799974" d="M633.16,684.271c4.621-2.236,8.46-5.779,12.224-9.27,2.571-2.384,5.205-4.855,6.664-8.043,1.31-2.862,1.567-6.078,1.753-9.219q.216-3.66.333-7.326c-.659-.575-1.33-1.174-2.015-1.831-.511-.493-1.069-1.14-.872-1.819a1.137,1.137,0,0,1,.822-.747,6.617,6.617,0,0,1-2.112-2.477,1.236,1.236,0,0,1-.154-.944c.178-.475.8-.582,1.3-.575.1,0,.2,0,.293.011v-.025a5.721,5.721,0,0,1-1.783-1.637,2.341,2.341,0,0,1-.329-1.14q-7.268-.14-14.541-.272a85.505,85.505,0,0,1,.1,15.063c-.279,3.4-.615,8.316-2.77,11.153-2,2.634-6.365,4.539-9.288,5.918-7.026,3.316-14.705,5.028-22.349,6.182-9.1,1.369-18.35,1.765-27.109,4.642-.883.293-1.762.608-2.634.951a28.592,28.592,0,0,0-10.9,7.186c-.182.2-.354.4-.525.6a3.377,3.377,0,0,0-.922,1.8,1.307,1.307,0,0,0,1.1,1.461,1.924,1.924,0,0,0,1.151-.543q1.866-1.458,3.727-2.923l.007.007a39.182,39.182,0,0,0-4.789,4.706c-.429.5-.876,1.151-.661,1.78a1.365,1.365,0,0,0,1.658.7,2.425,2.425,0,0,0,.786-.393,1.09,1.09,0,0,0,.322,1.029,1.57,1.57,0,0,0,1.526.036,15.024,15.024,0,0,0,3.5-2.076l.2.15a1.947,1.947,0,0,0-.365.636.912.912,0,0,0,.193.915,1.416,1.416,0,0,0,1.333.079,67.706,67.706,0,0,1,12.289-1.79q3.184-.257,6.379-.318,1.629-.032,3.259-.011c.124,0,.253.008.381.014,4.792-1.8,9.43-4.247,14.357-5.676,9.346-2.71,19.706-1.731,28.466-5.97" transform="translate(-460.9 -527.453)" fill="#f6b692"/>
        <path id="Trazado_799975" data-name="Trazado 799975" d="M811.591,710.544a41.416,41.416,0,0,0-6.082-5.949q-.119,3.665-.333,7.326c-.185,3.142-.443,6.358-1.753,9.219-1.459,3.188-4.094,5.659-6.664,8.044-3.764,3.491-7.6,7.034-12.224,9.27-8.76,4.239-19.12,3.259-28.466,5.97-4.927,1.429-9.565,3.88-14.357,5.676.257.011.518.027.78.044a7.992,7.992,0,0,0,1.83-.047,59.366,59.366,0,0,1,5.979-.5q3.259-.236,6.511-.557c.608-.061,1.215-.122,1.819-.186q3.784-.4,7.558-.908,3.243-.434,6.468-.951c3.095-.493,6.172-1,9.191-1.629,8.276-1.726,16.117-4.392,22.735-10.356.293-.264.583-.532.865-.815a28.671,28.671,0,0,0,7.1-11.028c1.176-3.377,1.061-6.636,1.2-10q-1.11-1.281-2.151-2.619" transform="translate(-612.275 -581.635)" fill="#f2947a"/>
        <path id="Trazado_799976" data-name="Trazado 799976" d="M1032.857,457.24a3.542,3.542,0,0,1,2.359.036c.154.039.307.082.461.125a16.609,16.609,0,0,1,4.26,1.651c-.858-4.5-2.019-8.948-3.177-13.237a83.584,83.584,0,0,0-2.527-8.108,37.487,37.487,0,0,0-2.455-5.249c-2.373-4.131-5.861-7.783-10.3-9.509a12.586,12.586,0,0,0-4.188-.8c-.19-.006-.381,0-.571,0a11.069,11.069,0,0,1,5.071,5.2c1.67,3.424,2.141,7.325,3.711,10.8,1.377,3.043,3.592,5.747,4.3,9.011.573,2.64.1,5.421.668,8.062a15.2,15.2,0,0,0,1.317,3.547c.085.026.17.052.254.081a1.464,1.464,0,0,1,.818-1.6" transform="translate(-839.287 -348.476)" fill="#dfd7ec"/>
        <path id="Trazado_799977" data-name="Trazado 799977" d="M995.3,874.185c-.282.282-.572.55-.865.815-6.618,5.964-14.459,8.63-22.735,10.356a36.614,36.614,0,0,1,5.467.811c1.891.415,3.758.931,5.626,1.443a32.011,32.011,0,0,0,15.192-7.548c-.871-1.969-1.774-3.924-2.686-5.877" transform="translate(-802.13 -721.63)" fill="#dfd7ec"/>
        <path id="Trazado_799978" data-name="Trazado 799978" d="M1052.554,912.823c-.658-1.67-1.362-3.32-2.088-4.961a32.01,32.01,0,0,1-15.192,7.548c2.2.6,4.4,1.2,6.639,1.623a23.508,23.508,0,0,0,12.036-.4c-.429-1.283-.9-2.552-1.394-3.806" transform="translate(-854.606 -749.43)" fill="#dfd7ec"/>
        <path id="Trazado_799979" data-name="Trazado 799979" d="M645.479,690.069a49.016,49.016,0,0,1-.625,12.875c.118.954.229,1.909.322,2.867.221,2.269.365,4.549.39,6.833a36.362,36.362,0,0,1-1.34,11.464,68.639,68.639,0,0,1,10.553-2.455c-1.455-3.1-2.825-6.244-3.969-9.474-2.534-7.154-3.937-14.649-5.331-22.109" transform="translate(-531.801 -569.644)" fill="#dfd7ec"/>
        <path id="Trazado_799980" data-name="Trazado 799980" d="M706.111,455.223c-.567-2.641-.1-5.422-.668-8.062-.708-3.264-2.924-5.968-4.3-9.011-1.571-3.471-2.042-7.372-3.712-10.8a11.068,11.068,0,0,0-5.071-5.2,49.3,49.3,0,0,0-8.32,1.08,19.032,19.032,0,0,0,.751,2.987c.325.954,1.14,1.74,1.522,2.719a8.983,8.983,0,0,1,.643,3.281,7.324,7.324,0,0,1-3.659,6.443,5.977,5.977,0,0,1-4.974.2,7.8,7.8,0,0,0,2.33,3.688,2.067,2.067,0,0,1,.961,1.572,1.387,1.387,0,0,1-.622,1.018c-1.537,1.058-4.317.046-5.675-.9-2.444-1.719-3.766-4.649-4.392-7.572-.132-.615-.236-1.233-.318-1.848a33.584,33.584,0,0,1-2.948,10.939c-2.162,4.521-5.825,8.562-10.621,10.02-5.632,1.712-12.011-.536-16.081-4.788-4-4.178-5.964-9.988-6.34-15.763-.357,2.655-1.533,5.207-2.491,7.74a23.887,23.887,0,0,0-1.126,3.8,14.179,14.179,0,0,0-.243,1.94,8.648,8.648,0,0,1-.061,1.776.809.809,0,0,1-.507.579,1.025,1.025,0,0,1-.826-.218c-1.183-.815-1.8-2.755-2.162-4.088a10.761,10.761,0,0,1-.289-1.422,7.01,7.01,0,0,1-3.123,3.674q.188,2.761.365,5.525c.479,7.4,1.951,14.68,3.091,22q.41,2.619.74,5.256a49.011,49.011,0,0,0,.624-12.875c1.393,7.46,2.8,14.956,5.331,22.109,1.144,3.23,2.514,6.371,3.969,9.474,5.479-.883,11.046-1.358,16.556-2.187,7.644-1.154,15.324-2.866,22.349-6.182,2.923-1.379,7.29-3.284,9.288-5.918,2.155-2.837,2.491-7.751,2.769-11.153a85.487,85.487,0,0,0-.1-15.063q7.269.134,14.541.272a1.6,1.6,0,0,1,.4-1.133,2.187,2.187,0,0,1,1.322-.59,5.544,5.544,0,0,1,2.39.23,15.194,15.194,0,0,1-1.317-3.547" transform="translate(-514.931 -348.486)" fill="#fff"/>
        <path id="Trazado_799981" data-name="Trazado 799981" d="M698.325,498.155c6.535-.724,12.681-5.231,14.71-11.485-3.872,3.369-7.722,5.237-13.3,5.095a29.352,29.352,0,0,1-13.81-4.309q-.025.518-.092,1.028a29.234,29.234,0,0,0,1.555,7.771,20.724,20.724,0,0,0,10.934,1.9" transform="translate(-566.15 -401.741)" fill="#f2947a"/>
        <path id="Trazado_799982" data-name="Trazado 799982" d="M877.09,284.3a2.876,2.876,0,0,0-2.37,1.131,2.962,2.962,0,0,0-.459,1.146,9.078,9.078,0,0,0,2.829-2.276" transform="translate(-721.692 -234.684)" fill="#f6b692"/>
        <path id="Trazado_799983" data-name="Trazado 799983" d="M667.961,252.362a4.575,4.575,0,0,0-2.584-1.047c-.034,0-.069,0-.1,0a9.078,9.078,0,0,1-2.829,2.276,8.652,8.652,0,0,0-.116,1.663c0,.683,0,1.369,0,2.055a19.631,19.631,0,0,1-3.336-2.376c-.283.078-.567.153-.849.22a31.015,31.015,0,0,1-18.491-1.082,25.125,25.125,0,0,1-11.912-9.729,27.235,27.235,0,0,1-1.055,8.475c.057-.007.118-.011.175-.014a1.874,1.874,0,0,1,1.733.847,1.893,1.893,0,0,1-.1,1.787,4.741,4.741,0,0,1-1,1.172.947.947,0,0,1,.811.243c.54.536.118,1.444-.329,2.058a61.712,61.712,0,0,1-4.821,5.832,32.37,32.37,0,0,0-5.482,7.787l.139.111a39.119,39.119,0,0,1,6.736-6.465,2,2,0,0,1,1.555-.49.707.707,0,0,1,.354.257c.332.443.043,1.072-.257,1.537-1.319,2.048-3.245,4.1-4.2,6.339a14.522,14.522,0,0,0-.886,3.331l.561.089a20.5,20.5,0,0,0,7.994,10.049c0,.043-.006.086-.008.13a29.351,29.351,0,0,0,13.81,4.308c5.574.142,9.424-1.726,13.3-5.095-2.029,6.255-8.174,10.761-14.71,11.485a20.724,20.724,0,0,1-10.934-1.9,22.037,22.037,0,0,0,4.785,7.992c4.07,4.253,10.449,6.5,16.081,4.789,4.8-1.458,8.459-5.5,10.621-10.02a33.581,33.581,0,0,0,2.948-10.939c-.883-6.5.711-13.076.8-19.587a16.2,16.2,0,0,0-.143-3.145,2.382,2.382,0,0,1,.361-1.869c.386-.525,1.079-.772,1.572-1.2a6.367,6.367,0,0,0-.179-9.877m-38.194,18.347a2.4,2.4,0,0,1-4.685-.089A11.564,11.564,0,0,0,628.508,268a2.391,2.391,0,0,1,1.258,2.705m17.214-4.749a2.4,2.4,0,0,1-2.4-2.4,2.287,2.287,0,0,1,.086-.629,13.2,13.2,0,0,0,4.453-.465,2.4,2.4,0,0,1-2.137,3.495" transform="translate(-509.876 -201.704)" fill="#f6b692"/>
        <path id="Trazado_799984" data-name="Trazado 799984" d="M687.284,253.947a31.015,31.015,0,0,0,18.491,1.082c.282-.067.566-.142.849-.22a20.027,20.027,0,0,1-2.639-2.817c-.586.047-1.172.068-1.758.061a23.186,23.186,0,0,1-26.834-7.862h-.021c0,.009,0,.018,0,.027a25.124,25.124,0,0,0,11.912,9.729" transform="translate(-557.512 -201.577)" fill="#f2947a"/>
        <path id="Trazado_799985" data-name="Trazado 799985" d="M564.791,379.47c-.949,3.47-1.061,7.1-1.534,10.671s-1.375,7.215-3.629,10.018c-1.732,2.154-.064,5.3.759,7.936,2.843,9.128,2.588,18.891,2.306,28.447A69.8,69.8,0,0,1,561.421,450a23.406,23.406,0,0,1-6.191,11.823,15.834,15.834,0,0,1-2.986,2.244c.245.133.493.26.746.377a12.414,12.414,0,0,0,1.219.493c.179.061.357.114.54.168l.011.007a28.59,28.59,0,0,1,10.9-7.187c.872-.343,1.751-.658,2.634-.951a36.361,36.361,0,0,0,1.34-11.464c-.025-2.283-.168-4.563-.39-6.833-.264-2.72-.64-5.428-1.061-8.123-1.14-7.315-2.612-14.595-3.091-22q-.177-2.761-.365-5.525-.263-3.87-.543-7.748,1.147-6.432,2.28-12.868c.247-1.394.386-2.952.636-4.46a14.5,14.5,0,0,1,.886-3.331c.954-2.244,2.88-4.292,4.2-6.34.3-.465.59-1.093.257-1.537a.706.706,0,0,0-.354-.257.89.89,0,0,0-.255-.033c-.235,1.84-1.653,3.3-2.828,4.761a22.773,22.773,0,0,0-4.217,8.248" transform="translate(-455.871 -302.509)" fill="#f2947a"/>
        <path id="Trazado_799986" data-name="Trazado 799986" d="M525.287,292.237a4.752,4.752,0,0,0,1-1.172,1.679,1.679,0,0,0-1.63-2.634c-.057,0-.118.007-.175.014a5.333,5.333,0,0,0-1.751.586c-.039.018-.082.039-.122.061a1.624,1.624,0,0,0-1.161-1.5,3.79,3.79,0,0,0-2.48.393,25.354,25.354,0,0,0-10.246,8.416q-1.072,1.463-2.008,2.945a35.451,35.451,0,0,0-4.885,11.6c-1.572,7.233-3.091,14.48-4.374,21.77q-.257,1.453-.5,2.909c-1.236,7.437-2.208,14.931-2.716,22.453a155.616,155.616,0,0,0-.186,18.622c.243,4.6.74,9.27,2.534,13.512.046.111.093.218.143.329a17.5,17.5,0,0,0,7.316,8.353,15.84,15.84,0,0,0,2.986-2.244,23.406,23.406,0,0,0,6.191-11.823,69.8,69.8,0,0,0,1.271-13.455c.282-9.556.538-19.32-2.306-28.447-.822-2.639-2.491-5.782-.758-7.936,2.254-2.8,3.156-6.452,3.629-10.018s.584-7.2,1.534-10.671a22.778,22.778,0,0,1,4.217-8.248c1.175-1.458,2.593-2.92,2.828-4.761a2.378,2.378,0,0,0-1.3.522,39.1,39.1,0,0,0-6.736,6.465l-.139-.111a32.378,32.378,0,0,1,5.482-7.787,61.67,61.67,0,0,0,4.821-5.832c.447-.615.868-1.522.329-2.058a.946.946,0,0,0-.811-.243" transform="translate(-407.677 -237.33)" fill="#f6b692"/>
        <path id="Trazado_799987" data-name="Trazado 799987" d="M607.521,332.414a3.392,3.392,0,0,1,.5-1.5,27.815,27.815,0,0,1,2.8-4.285,53.928,53.928,0,0,1,5.337-5.536l3.9-3.674a5.943,5.943,0,0,1-1,2.207c-2.967,4.543-6.946,8.205-9.367,13.114-.561,1.137-2.184,1.241-2.161-.326" transform="translate(-501.501 -262.026)" fill="#f2947a"/>
        <path id="Trazado_799988" data-name="Trazado 799988" d="M202.986,194.88A47.689,47.689,0,0,1,177.113,211.6a38.512,38.512,0,0,1-4.367,5.121,1.588,1.588,0,0,1-.747.493.811.811,0,0,1-.9-1.133,5.818,5.818,0,0,0-4.02-2.959,5.005,5.005,0,0,0-3.234.157,4.886,4.886,0,0,0-2.473,3.47,8.1,8.1,0,0,0,6.565,9.777l-.025.15c.793,1.676,1.261,2.766,2.026,4.453a12.261,12.261,0,0,1,.933,6.7,14.979,14.979,0,0,1-2.312,6.418c-.168.254-.35.5-.543.743-1.351,1.69-3.452,2.57-5.36,3.577a65.6,65.6,0,0,0,7.5,11.582c3.109,3.6,7.119,6.583,11.754,7.633a11.6,11.6,0,0,0,8.9-1.222c4.871-3.22,5.818-9.834,3.745-14.955a10.359,10.359,0,0,1-3.452-2.437,12.241,12.241,0,0,1-1.652-2.129,10.1,10.1,0,0,1-6.577-10.067c1.317,2.58,4.08,3.992,6.37,5.81.332.046.667.083,1,.108,6.636.464,13.008-3.488,16.835-8.841a34.933,34.933,0,0,0,5.375-12.783c.422-1.862.747-3.749,1.011-5.625a77.4,77.4,0,0,0,.758-7.79,40.435,40.435,0,0,1-11.232-12.972M189.7,214.756a1.98,1.98,0,1,1,1.98,1.98,1.98,1.98,0,0,1-1.98-1.98m9.009,15.406a2.426,2.426,0,0,1-.918,1.129,4,4,0,0,1-3.066.611,4.817,4.817,0,0,1-2.691-1.647,2.69,2.69,0,0,1-.718-1.708,1.389,1.389,0,0,1,1.061-1.376,2.171,2.171,0,0,1,.99.164,22.254,22.254,0,0,0,3.191,1.061c.65.107,1.458-.239,1.955.365a1.463,1.463,0,0,1,.2,1.4m7.64-10.378a1.98,1.98,0,1,1,1.98-1.98,1.98,1.98,0,0,1-1.98,1.98" transform="translate(-133.048 -160.871)" fill="#f6b692"/>
        <path id="Trazado_799989" data-name="Trazado 799989" d="M285.386,436.089a10.1,10.1,0,0,0,6.577,10.067,5.909,5.909,0,0,1-.624-1.484c-.014-.05-.025-.1-.036-.157a4.069,4.069,0,0,1,.29-2.637c.054.008.109.014.164.021-2.29-1.818-5.053-3.23-6.37-5.81" transform="translate(-235.569 -359.986)" fill="#f2947a"/>
        <path id="Trazado_799990" data-name="Trazado 799990" d="M175.232,322.481a5.651,5.651,0,0,0,1.9,2.539,2.245,2.245,0,0,0,1.065.6.839.839,0,0,0,.965-.567c.076-.4-.242-.751-.435-1.11a1.958,1.958,0,0,1-.114-1.573,5.433,5.433,0,0,0,.571-1.406,1.521,1.521,0,0,0-1.271-1.438,2.166,2.166,0,0,0-2.686,2.958" transform="translate(-144.558 -263.713)" fill="#f2947a"/>
        <path id="Trazado_799991" data-name="Trazado 799991" d="M890.16,302.478a3.731,3.731,0,0,1-.771,4.467,4.332,4.332,0,0,0-.153-1.433,1.488,1.488,0,0,0-.967-1c-.365-.093-.81-.015-1.071-.286a.888.888,0,0,1-.184-.67,2.647,2.647,0,0,1,1.209-2.088c.768-.361,1.593.389,1.936,1.007" transform="translate(-732.219 -248.783)" fill="#f2947a"/>
        <path id="Trazado_799992" data-name="Trazado 799992" d="M460.678,710.494a155.624,155.624,0,0,1,.186-18.622q-3.5,5.277-7.439,10.253A117.237,117.237,0,0,0,460.768,712q-.051-.751-.09-1.5" transform="translate(-374.297 -571.132)" fill="#f6b692"/>
        <path id="Trazado_799993" data-name="Trazado 799993" d="M454.253,760.5a117.319,117.319,0,0,1-7.343-9.87l-.005.007a23.564,23.564,0,0,1,.339,3.441,16.742,16.742,0,0,1-1.712,7.837,25.529,25.529,0,0,0,11.307,10.925c-.05-.111-.1-.218-.143-.329a37.049,37.049,0,0,1-2.443-12.01" transform="translate(-367.782 -619.632)" fill="#f2947a"/>
        <path id="Trazado_799994" data-name="Trazado 799994" d="M54.858,613.144a13.187,13.187,0,0,1,4.349-2.051c.134-.04.269-.075.4-.113-1.051-2.46-2.05-4.947-3.287-7.317-1.974-3.782-4.556-7.269-6.022-11.275a16.963,16.963,0,0,1-1.014-4.757c-1.926,5.005-1.278,10.884-.136,16.244a83.409,83.409,0,0,0,3.491,12.14c.039-.1.079-.2.125-.293a6.994,6.994,0,0,1,2.09-2.576" transform="translate(-39.674 -485.082)" fill="#b34f8e"/>
        <path id="Trazado_799995" data-name="Trazado 799995" d="M62.124,533.418c1.237,2.371,2.235,4.857,3.287,7.317a28.65,28.65,0,0,1,15.256-.073.529.529,0,0,1,.029.064c1.776,4.36,5.389,7.876,10.456,7.547,4.492-.29,8.205-3.449,11.554-6.45q8.11-7.258,16.213-14.519,4.83-4.326,9.656-8.644c-1.719-4.642-6.222-7.919-10.842-9.92-3.642-1.576-7.494-1.7-10.76-3.166,2.073,5.121,1.126,11.736-3.745,14.955a11.6,11.6,0,0,1-8.9,1.222c-4.635-1.051-8.644-4.038-11.754-7.633a65.6,65.6,0,0,1-7.5-11.582c-.154.082-.3.161-.45.243-2.655,1.465-5.464,2.63-8.184,3.97-3.909,1.937-7.773,4.374-10.085,8.073a15.034,15.034,0,0,0-1.271,2.564,16.963,16.963,0,0,0,1.014,4.757c1.466,4.007,4.048,7.493,6.022,11.275" transform="translate(-45.475 -414.838)" fill="#d6528e"/>
        <path id="Trazado_799996" data-name="Trazado 799996" d="M151.535,591.91c-3.348,3-7.061,6.161-11.553,6.45-5.067.329-8.68-3.188-10.456-7.547a.5.5,0,0,0-.029-.064,28.651,28.651,0,0,0-15.256.073c.734,1.719,1.494,3.425,2.381,5.069,3.066,5.68,7.543,10.449,11.968,15.147,1.7,1.805,3.51,3.68,5.878,4.417,3.029.942,6.349-.205,8.99-1.962s4.844-4.1,7.422-5.947c3.4-2.435,7.391-3.972,10.663-6.573,3.406-2.707,5.847-6.418,8.851-9.565,2.9-3.043,6.333-5.559,9.143-8.689a24.036,24.036,0,0,0,1.753-2.2c.547-5.8,1.341-11.57,2.3-17.31q-3.093,2.766-6.182,5.535-4.824,4.321-9.656,8.644-8.1,7.258-16.213,14.52" transform="translate(-94.304 -464.924)" fill="#f6b692"/>
        <path id="Trazado_799997" data-name="Trazado 799997" d="M147.169,664.6c-2.81,3.13-6.239,5.646-9.143,8.689-3,3.147-5.445,6.858-8.851,9.565-3.272,2.6-7.266,4.138-10.663,6.573-2.578,1.848-4.781,4.19-7.422,5.947s-5.961,2.9-8.99,1.962c-2.368-.736-4.178-2.611-5.878-4.417-4.425-4.7-8.9-9.467-11.968-15.147-.888-1.644-1.647-3.35-2.382-5.069-.134.038-.269.073-.4.113a13.192,13.192,0,0,0-4.349,2.051,7,7,0,0,0-2.09,2.577c.018.25.036.5.05.747A55.166,55.166,0,0,0,83.77,693.42c5.125,6.264,12.611,11.107,20.705,11.1,9.4-.007,17.553-6.318,24.243-12.929a151.947,151.947,0,0,0,12.34-13.787q3.935-4.969,7.444-10.26.174-2.574.42-5.143a24.014,24.014,0,0,1-1.753,2.2" transform="translate(-61.936 -546.808)" fill="#f2947a"/>
        <path id="Trazado_799998" data-name="Trazado 799998" d="M104.327,325.129a10.654,10.654,0,0,0-1.158,9.617,10.461,10.461,0,0,0,2.589,3.86c.295.14.551.165.711-.016.3-.343.086-.883.029-1.276a9.24,9.24,0,0,1-.132-1.122,4.734,4.734,0,0,0,3.4,2.812,12.659,12.659,0,0,0,4.917-.05,15.87,15.87,0,0,1,4.925-.25c.193.032.361.061.522.086a14.978,14.978,0,0,0,2.312-6.418,12.26,12.26,0,0,0-.933-6.7c-.765-1.687-1.233-2.777-2.026-4.453l.025-.15a8.1,8.1,0,0,1-6.565-9.777,6.2,6.2,0,0,1,.763-1.888c-2.523,2.725-2.678,7.058-4.717,10.242-1.3,2.023-3.306,3.5-4.664,5.48" transform="translate(-84.624 -255.411)" fill="#d5442e"/>
        <path id="Trazado_799999" data-name="Trazado 799999" d="M142.093,116.424a27.6,27.6,0,0,0-10.36-13.244c-12.054-8.1-30.186-5.539-38.516,6.658-3.6,5.275-4.956,11.625-6.94,17.6-2.023,6.089-5.175,11.482-7.991,17.189-1.823,3.7-3.062,7.844-2.43,11.907.372,2.38,1.53,5.235,3.62,6.65a.541.541,0,0,0,.45.118.388.388,0,0,0,.247-.325,3.666,3.666,0,0,0-.261-1.136,9.1,9.1,0,0,1-.189-1.351,8.78,8.78,0,0,1,.007-1.336,9.17,9.17,0,0,0,3.884,5.359,10.463,10.463,0,0,1-2.589-3.86,10.654,10.654,0,0,1,1.158-9.617c1.358-1.982,3.368-3.457,4.664-5.48,2.039-3.184,2.194-7.517,4.717-10.242a4.017,4.017,0,0,1,1.71-1.582,5,5,0,0,1,3.234-.157,5.817,5.817,0,0,1,4.02,2.959.812.812,0,0,0,.9,1.133,1.59,1.59,0,0,0,.747-.493,38.527,38.527,0,0,0,4.367-5.121,47.689,47.689,0,0,0,25.873-16.724A40.436,40.436,0,0,0,143.651,128.3a30.74,30.74,0,0,0-1.558-11.871" transform="translate(-62.481 -81.314)" fill="#e16631"/>
        <path id="Trazado_800000" data-name="Trazado 800000" d="M337.886,413.513c-.222.343-.45.683-.689,1.016-3.827,5.353-10.2,9.306-16.835,8.841q-.59-.043-1.169-.129a4.071,4.071,0,0,0-.29,2.637l3.059.086a21.417,21.417,0,0,0,4.174-.154,8.839,8.839,0,0,0,1.622-.429,4.783,4.783,0,0,1,1.315-.436.319.319,0,0,1,.214.039c.139.1.039.3.2.422a.832.832,0,0,0,.579.118,7.69,7.69,0,0,0,4.224-2.291,9.508,9.508,0,0,0,2.5-3.838h.007a6.4,6.4,0,0,1-.482,2.877,14.953,14.953,0,0,1-1.726,2.577.722.722,0,0,0-.179.636.453.453,0,0,0,.386.257.989.989,0,0,0,.472-.093,6.9,6.9,0,0,0,2.216-1.955,22.7,22.7,0,0,0,1.933-2.555q.209-.321.408-.65c-.143-.766-.322-1.525-.526-2.264-.434-1.575-.96-3.139-1.416-4.713" transform="translate(-263.171 -341.35)" fill="#d5442e"/>
        <path id="Trazado_800001" data-name="Trazado 800001" d="M433.361,351.279c-.118-1.772-.493-3.445-.536-5.192a36.069,36.069,0,0,1-4.686,11.766c.456,1.574.983,3.138,1.416,4.713.2.74.383,1.5.526,2.264A23.154,23.154,0,0,0,432.4,359.7c.147-.472.279-.947.393-1.426a23.231,23.231,0,0,0,.568-6.99" transform="translate(-353.424 -285.691)" fill="#e16631"/>
        <path id="Trazado_800002" data-name="Trazado 800002" d="M64.619,956.57a13.9,13.9,0,0,0-2.008-2.823c-3.649-3.945-9.509-5.271-14.83-4.506s-10.2,3.352-14.73,6.24v.021a85.092,85.092,0,0,0-17.071,1.84,40.732,40.732,0,0,0-1.163,13.622,17.261,17.261,0,0,0,7.514,3.508,20.162,20.162,0,0,0,14.292-2.125q-1.166,6.8-2.694,13.534H65.287a140.062,140.062,0,0,0,1.622-14.605c.265-5,.032-10.413-2.291-14.705" transform="translate(-12.091 -783.416)" fill="#563574"/>
        <path id="Trazado_800003" data-name="Trazado 800003" d="M23.128,1078.206a17.261,17.261,0,0,1-7.514-3.508,27.848,27.848,0,0,0,.824,4.435c1.229,4.51,4.213,8.8,8.527,10.481h9.762q1.525-6.73,2.694-13.534a20.16,20.16,0,0,1-14.292,2.125" transform="translate(-12.889 -887.151)" fill="#3f2d64"/>
        <path id="Trazado_800004" data-name="Trazado 800004" d="M306.358,1073.713c-.294,4.382-.837,8.737-1.528,13.075h8.919l2.073-15.514a58.963,58.963,0,0,1-9.463,2.439" transform="translate(-251.634 -884.324)" fill="#3f2d64"/>
        <path id="Trazado_800005" data-name="Trazado 800005" d="M341.374,965.95a19.537,19.537,0,0,0-1.065-3.188,18.448,18.448,0,0,0-12.186-10.371,18.494,18.494,0,0,0-15.477,3.148A55.459,55.459,0,0,1,301,958.9c2.323,4.292,2.555,9.706,2.291,14.705-.027.51-.06,1.02-.094,1.53a58.953,58.953,0,0,0,9.463-2.439l-2.073,15.514h30.187a93.3,93.3,0,0,0,1.311-11.75c.029-.611.054-1.222.064-1.837v0a32.967,32.967,0,0,0-.776-8.666" transform="translate(-248.472 -785.742)" fill="#563574"/>
        <path id="Trazado_800006" data-name="Trazado 800006" d="M70.388,785.306c-6.868-.6-13.723-3.291-18.574-8.12A32.221,32.221,0,0,1,40.226,768.1a55.161,55.161,0,0,1-8.691-15.227,62.694,62.694,0,0,1-2.09,20.487c-1.519,5.525-3.788,10.81-5.532,16.267-.608,1.894-1.165,3.827-1.633,5.786a85.089,85.089,0,0,1,17.071-1.841v-.021c4.531-2.887,9.413-5.475,14.73-6.239s11.182.561,14.83,4.506a13.91,13.91,0,0,1,2.008,2.823,55.447,55.447,0,0,0,11.646-3.355,18.159,18.159,0,0,1,7.229-3.277q.021-2.692.183-5.38a50.049,50.049,0,0,1-19.59,2.676" transform="translate(-18.392 -621.49)" fill="#b34f8e"/>
        <path id="Trazado_800007" data-name="Trazado 800007" d="M200.639,853.354a22.408,22.408,0,0,1-9.117-2.019c4.85,4.829,11.706,7.524,18.574,8.12a50.058,50.058,0,0,0,19.59-2.676,105.813,105.813,0,0,1,1.772-14.08,88.743,88.743,0,0,1-14.553,4.608c-4.888,3.521-10.327,6.042-16.265,6.047" transform="translate(-158.099 -695.638)" fill="#d6528e"/>
        <path id="Trazado_800008" data-name="Trazado 800008" d="M355.914,761.942a16.746,16.746,0,0,0,1.712-7.837,23.6,23.6,0,0,0-.34-3.441,151.944,151.944,0,0,1-12.34,13.787,68.5,68.5,0,0,1-7.978,6.883,88.726,88.726,0,0,0,14.553-4.608v0a11.334,11.334,0,0,0,4.392-4.781" transform="translate(-278.164 -619.665)" fill="#d6528e"/>
        <path id="Trazado_800009" data-name="Trazado 800009" d="M532.457,1028.044c-.018.262-.038.525-.051.788l-.05.014a32.968,32.968,0,0,1,.775,8.666v0a22.521,22.521,0,0,0,8.063,13.238c.015-8.4.215-16,.215-16a13.867,13.867,0,0,1-8.952-6.711" transform="translate(-439.454 -848.638)" fill="#9a70af"/>
        <path id="Trazado_800010" data-name="Trazado 800010" d="M575.163,947.6a27.854,27.854,0,0,0-1.029-7.562,10.3,10.3,0,0,0-3.985-5.546c-.393-.025-.786-.054-1.161-.057q-1.63-.021-3.259.011-3.195.059-6.379.318a67.7,67.7,0,0,0-12.29,1.79,1.416,1.416,0,0,1-1.333-.079.912.912,0,0,1-.193-.915,1.949,1.949,0,0,1,.365-.636l-.2-.15a15.024,15.024,0,0,1-3.5,2.076,1.57,1.57,0,0,1-1.526-.036,1.09,1.09,0,0,1-.322-1.029,2.428,2.428,0,0,1-.786.393,1.365,1.365,0,0,1-1.658-.7c-.214-.629.232-1.276.661-1.78a39.186,39.186,0,0,1,4.789-4.706l-.007-.007q-1.866,1.463-3.727,2.923a1.924,1.924,0,0,1-1.151.543,1.307,1.307,0,0,1-1.1-1.461,3.378,3.378,0,0,1,.922-1.8c.172-.2.343-.407.525-.6l-.011-.007c-.182-.054-.361-.107-.54-.168a12.393,12.393,0,0,1-1.219-.493c-1.958,5.7-3.7,11.507-4.116,17.473a13.869,13.869,0,0,0,8.952,6.711s-.2,7.6-.215,16c.069.051.134.106.2.156l.189,0q-.113-4.781-.139-9.566a19.728,19.728,0,0,1,33.467-1.054q-.027-5.017-.229-10.031" transform="translate(-439.932 -765.986)" fill="#9791c6"/>
        <path id="Trazado_800011" data-name="Trazado 800011" d="M763.156,974.694a90.787,90.787,0,0,1,.956-12.521,17.311,17.311,0,0,1,1.515-5.528,6.705,6.705,0,0,1,4.26-3.606l-.007-.057q-3.774.509-7.558.908-.906.1-1.819.186-3.254.316-6.511.557a59.37,59.37,0,0,0-5.979.5,8,8,0,0,1-1.83.047,10.3,10.3,0,0,1,3.984,5.546,27.853,27.853,0,0,1,1.029,7.562q.188,4.741.223,9.488l.5-1.848a25.977,25.977,0,0,0,11.236-1.237" transform="translate(-615.966 -786.676)" fill="#9791c6"/>
        <path id="Trazado_800012" data-name="Trazado 800012" d="M776.042,1078.637l-.5,1.848c0,.181,0,.362.005.543q.027,5.409-.143,10.817h12.9a91.308,91.308,0,0,1-.929-9.413c-.08-1.676-.108-3.354-.1-5.032a25.98,25.98,0,0,1-11.236,1.237" transform="translate(-640.088 -889.381)" fill="#9a70af"/>
        <path id="Trazado_800013" data-name="Trazado 800013" d="M876.423,964.295l-1.128-7.69a54.5,54.5,0,0,0,14.154,2.551,20.075,20.075,0,0,1,.634-9.732,16.744,16.744,0,0,1,5.575-7.44c-.032-.1-.064-.207-.1-.311a23.508,23.508,0,0,1-12.036.4c-4.142-.783-8.148-2.162-12.264-3.066a36.609,36.609,0,0,0-5.468-.811c-3.02.632-6.1,1.136-9.191,1.629q-3.227.515-6.468.951l.007.057a6.706,6.706,0,0,0-4.26,3.606,17.309,17.309,0,0,0-1.515,5.528,91,91,0,0,0-.861,17.553c2.712-6,9.552-9.781,16.213-9.606,6.409.172,12.415,3.532,16.749,8.3a5.16,5.16,0,0,0-.036-1.924" transform="translate(-696.212 -774.472)" fill="#9791c6"/>
        <path id="Trazado_800014" data-name="Trazado 800014" d="M1040.346,1046.224a54.512,54.512,0,0,1-14.154-2.551l1.128,7.69a5.162,5.162,0,0,1,.036,1.924c.183.2.367.4.544.607v0q1.131,4.685,2.08,9.409a16.079,16.079,0,0,0,13.279-5.2q-.831-2.83-1.583-5.682a56.755,56.755,0,0,1-1.331-6.2" transform="translate(-847.11 -861.54)" fill="#9a70af"/>
        <path id="Trazado_800015" data-name="Trazado 800015" d="M372.447,351.887c.092-.159.318-.16.5-.141l1.956.2a1.12,1.12,0,0,1,.536.15.385.385,0,0,1,.145.489c-.4.642-3.542-.008-3.138-.7" transform="translate(-307.421 -290.355)" fill="#f2947a"/>
        <path id="Trazado_800016" data-name="Trazado 800016" d="M1230.258,282.513a.571.571,0,0,1-.476-.194.392.392,0,0,1,.1-.47,1.147,1.147,0,0,1,.467-.221l2.735-.814a1.325,1.325,0,0,1,.519-.082.453.453,0,0,1,.4.3c.061.229-.13.446-.318.591a5.127,5.127,0,0,1-3.429.892" transform="translate(-1015.136 -231.737)" fill="#f2947a"/>
        <path id="Trazado_800017" data-name="Trazado 800017" d="M697.522,467.12a22.037,22.037,0,0,1-3.152-.231,26.949,26.949,0,0,1-11.736-4.616.262.262,0,0,1,.3-.427,26.42,26.42,0,0,0,11.507,4.525,18.39,18.39,0,0,0,16.481-5.555,27.5,27.5,0,0,0,3.349-4.294.262.262,0,0,1,.441.281,28,28,0,0,1-3.414,4.376,18.681,18.681,0,0,1-13.78,5.941" transform="translate(-563.416 -376.754)" fill="#f2735f"/>
        <path id="Trazado_800018" data-name="Trazado 800018" d="M772.451,245.287a19.984,19.984,0,0,1-3.087-.244,27.283,27.283,0,0,1-9.041-3.291.262.262,0,0,1,.256-.457,26.761,26.761,0,0,0,8.865,3.23,17.2,17.2,0,0,0,9.266-.96c.452-.188.683-.389.705-.614.044-.443-.716-.683-1.045-.766a25.774,25.774,0,0,1-11.189-6.06.262.262,0,0,1,.355-.384,25.249,25.249,0,0,0,10.961,5.937c.988.248,1.5.719,1.438,1.325-.064.645-.787.947-1.025,1.046a16.782,16.782,0,0,1-6.462,1.238" transform="translate(-627.528 -194.543)" fill="#654781"/>
        <path id="Trazado_800019" data-name="Trazado 800019" d="M969.623,313.466a.261.261,0,0,1-.155-.051c-.795-.584-1.678-1.107-2.533-1.613-2-1.187-4.076-2.414-5.154-4.52a.262.262,0,1,1,.466-.238c1.009,1.971,2.926,3.106,4.955,4.308.865.512,1.76,1.042,2.576,1.642a.262.262,0,0,1-.155.473" transform="translate(-793.916 -253.343)" fill="#654781"/>
        <path id="Trazado_800020" data-name="Trazado 800020" d="M575.12,304.82a.262.262,0,0,1-.215-.41,37.256,37.256,0,0,1,14.575-12.469,5.26,5.26,0,0,1,2.03-.626,2.123,2.123,0,0,1,1.974.984,2.15,2.15,0,0,1-.105,2.039,5.861,5.861,0,0,1-1.293,1.455.262.262,0,1,1-.349-.39,5.377,5.377,0,0,0,1.184-1.318,1.649,1.649,0,0,0,.1-1.534,1.632,1.632,0,0,0-1.494-.712,4.823,4.823,0,0,0-1.825.575,36.733,36.733,0,0,0-14.37,12.293.261.261,0,0,1-.216.113" transform="translate(-474.539 -240.475)" fill="#f2735f"/>
        <path id="Trazado_800021" data-name="Trazado 800021" d="M590.4,329.534a.262.262,0,0,1-.232-.383,32.553,32.553,0,0,1,5.525-7.844,61.823,61.823,0,0,0,4.8-5.806c.206-.282.839-1.241.357-1.72-.409-.406-1.2-.026-1.637.237a52.276,52.276,0,0,0-14.107,12.46.262.262,0,0,1-.411-.324,52.793,52.793,0,0,1,14.248-12.584c.978-.59,1.786-.647,2.276-.161.533.529.423,1.4-.3,2.4a62.306,62.306,0,0,1-4.839,5.856,32.065,32.065,0,0,0-5.443,7.728.262.262,0,0,1-.233.141" transform="translate(-482.613 -258.446)" fill="#f2735f"/>
        <path id="Trazado_800022" data-name="Trazado 800022" d="M616.45,377.36h-.02a.262.262,0,0,1-.241-.281,1.531,1.531,0,0,0,0-.239,1.468,1.468,0,0,1,.022-.394,14.2,14.2,0,0,1,.866-3.172,21.346,21.346,0,0,1,2.675-4.212c.557-.745,1.084-1.448,1.544-2.164.367-.57.457-.987.269-1.239a.441.441,0,0,0-.31-.18,1.922,1.922,0,0,0-1.233.466,38.522,38.522,0,0,0-7.549,7.512.262.262,0,1,1-.417-.317,39.044,39.044,0,0,1,7.652-7.614,2.514,2.514,0,0,1,1.622-.566.972.972,0,0,1,.655.385c.333.445.249,1.063-.248,1.836-.47.731-1.027,1.475-1.566,2.194a20.955,20.955,0,0,0-2.613,4.1,13.716,13.716,0,0,0-.832,3.056.965.965,0,0,0-.015.273,2.041,2.041,0,0,1,0,.311.262.262,0,0,1-.261.242" transform="translate(-505.202 -301.26)" fill="#f2735f"/>
        <path id="Trazado_800023" data-name="Trazado 800023" d="M725.83,390.237a2.779,2.779,0,0,1-.917-.154,2.862,2.862,0,0,1-1.766-1.848,5.363,5.363,0,0,1-.062-2.122c.015-.144.03-.288.042-.431.023-.262.036-.529.04-.794a.262.262,0,1,1,.523.008c0,.277-.018.557-.042.831-.013.146-.028.293-.043.44a4.9,4.9,0,0,0,.043,1.918,2.292,2.292,0,0,0,3.5,1.225.262.262,0,1,1,.3.431,2.853,2.853,0,0,1-1.616.5" transform="translate(-596.836 -317.509)" fill="#2a1c4e"/>
        <path id="Trazado_800024" data-name="Trazado 800024" d="M753.014,317.767a10.377,10.377,0,0,1-4.386-.956.262.262,0,0,1,.222-.474,10.033,10.033,0,0,0,8.857-.254.262.262,0,1,1,.249.461,10.444,10.444,0,0,1-4.941,1.223" transform="translate(-617.86 -260.897)" fill="#2a1c4e"/>
        <path id="Trazado_800025" data-name="Trazado 800025" d="M737.689,438.908a.262.262,0,0,1-.2-.428,9.9,9.9,0,0,1,9.891-3.255.262.262,0,1,1-.128.508,9.367,9.367,0,0,0-9.359,3.08.262.262,0,0,1-.2.1" transform="translate(-608.738 -359.041)" fill="#2a1c4e"/>
        <path id="Trazado_800026" data-name="Trazado 800026" d="M664.827,346.575a.262.262,0,0,1-.175-.457,9.3,9.3,0,0,0,2.6-3.911.262.262,0,0,1,.5.169A9.829,9.829,0,0,1,665,346.509a.261.261,0,0,1-.175.067" transform="translate(-548.591 -282.342)" fill="#2a1c4e"/>
        <path id="Trazado_800027" data-name="Trazado 800027" d="M495.336,616.465a.262.262,0,0,1-.241-.16c-1.845-4.359-2.319-9.114-2.556-13.6-.649-12.281.279-25.374,2.919-41.206a.262.262,0,1,1,.516.086c-2.633,15.793-3.559,28.851-2.912,41.092.235,4.441.7,9.14,2.515,13.425a.262.262,0,0,1-.241.364" transform="translate(-406.421 -463.329)" fill="#f2735f"/>
        <path id="Trazado_800028" data-name="Trazado 800028" d="M565.33,690.81a.262.262,0,0,1-.195-.436,28.664,28.664,0,0,1,11.018-7.27c7.128-2.81,14.747-3.725,22.116-4.61,2.522-.3,5.13-.616,7.682-1,9.378-1.413,16.248-3.312,22.276-6.157l.686-.322c2.826-1.323,6.7-3.135,8.508-5.52,2.034-2.679,2.411-7.293,2.687-10.663l.029-.352a85.219,85.219,0,0,0-.062-14.655.262.262,0,0,1,.521-.047,85.788,85.788,0,0,1,.063,14.745l-.029.351c-.281,3.434-.665,8.136-2.792,10.937-1.889,2.487-5.827,4.331-8.7,5.677l-.685.322c-6.076,2.868-12.991,4.781-22.421,6.2-2.56.386-5.172.7-7.7,1-7.336.881-14.922,1.792-21.987,4.577a28.146,28.146,0,0,0-10.821,7.132.261.261,0,0,1-.2.087" transform="translate(-466.458 -527.933)" fill="#f2735f"/>
        <path id="Trazado_800029" data-name="Trazado 800029" d="M983.906,575.336a.262.262,0,0,1-.26-.238,85.222,85.222,0,0,0-2.366-13.641.262.262,0,0,1,.507-.131,85.75,85.75,0,0,1,2.38,13.725.262.262,0,0,1-.237.284h-.024" transform="translate(-810.029 -463.206)" fill="#dfd7ec"/>
        <path id="Trazado_800030" data-name="Trazado 800030" d="M768.175,345.655a13.387,13.387,0,0,1-1.729-.112.262.262,0,1,1,.068-.519,12.87,12.87,0,0,0,6.407-.8.262.262,0,0,1,.194.486,13.358,13.358,0,0,1-4.94.944" transform="translate(-632.504 -284.138)" fill="#2a1c4e"/>
        <path id="Trazado_800031" data-name="Trazado 800031" d="M653.757,377.327a.262.262,0,0,1-.1-.505,11.421,11.421,0,0,0,5-3.913.262.262,0,1,1,.426.3,11.951,11.951,0,0,1-5.232,4.095.261.261,0,0,1-.1.019" transform="translate(-539.453 -307.742)" fill="#2a1c4e"/>
        <path id="Trazado_800032" data-name="Trazado 800032" d="M648.752,668.947h-.013a.261.261,0,0,1-.249-.274l1.05-21.927a.262.262,0,1,1,.523.025l-1.05,21.926a.262.262,0,0,1-.261.249" transform="translate(-535.321 -533.676)" fill="#dfd7ec"/>
        <path id="Trazado_800033" data-name="Trazado 800033" d="M580.486,906.557a.262.262,0,0,1-.18-.452,39.331,39.331,0,0,1,11.854-7.708.262.262,0,0,1,.2.483,38.809,38.809,0,0,0-11.7,7.606.261.261,0,0,1-.18.071" transform="translate(-478.969 -741.6)" fill="#f2735f"/>
        <path id="Trazado_800034" data-name="Trazado 800034" d="M574.7,922.7a.261.261,0,0,1-.243-.359,3.658,3.658,0,0,1,.945-1.219l.56-.538a35.674,35.674,0,0,1,6.786-4.91,38.569,38.569,0,0,1,8.022-3.553.262.262,0,1,1,.156.5,38.064,38.064,0,0,0-7.914,3.505,35.176,35.176,0,0,0-6.688,4.836l-.56.538a3.214,3.214,0,0,0-.822,1.037.262.262,0,0,1-.243.164" transform="translate(-474.193 -752.937)" fill="#f2735f"/>
        <path id="Trazado_800035" data-name="Trazado 800035" d="M606.912,936.7a.262.262,0,0,1-.194-.437,16.074,16.074,0,0,1,5.6-3.675,67.489,67.489,0,0,1,6.7-2.6.262.262,0,1,1,.157.5,66.979,66.979,0,0,0-6.651,2.581,15.6,15.6,0,0,0-5.42,3.545.261.261,0,0,1-.195.087" transform="translate(-500.783 -767.681)" fill="#f2735f"/>
        <path id="Trazado_800036" data-name="Trazado 800036" d="M845.39,747.39a.266.266,0,0,1-.068-.009,26.516,26.516,0,0,1-14.087-9.4.262.262,0,1,1,.415-.319,25.988,25.988,0,0,0,13.807,9.211.262.262,0,0,1-.068.515" transform="translate(-686.13 -608.849)" fill="#dfd7ec"/>
        <path id="Trazado_800037" data-name="Trazado 800037" d="M750.586,987.745a.262.262,0,0,1-.262-.26c-.02-3.245-.1-6.533-.224-9.775a27.379,27.379,0,0,0-1.019-7.489,10.112,10.112,0,0,0-3.795-5.361.262.262,0,1,1,.29-.436,10.632,10.632,0,0,1,4,5.635,27.8,27.8,0,0,1,1.044,7.63c.129,3.247.2,6.542.224,9.792a.262.262,0,0,1-.26.263Z" transform="translate(-615.129 -796.085)" fill="#553678"/>
        <path id="Trazado_800038" data-name="Trazado 800038" d="M583.269,1032.048a.262.262,0,0,1-.262-.256c-.186-8.6-.183-17.324.009-25.927a.262.262,0,0,1,.262-.256h.006a.262.262,0,0,1,.256.268c-.192,8.595-.2,17.31-.009,25.9a.262.262,0,0,1-.256.267Z" transform="translate(-481.152 -830.119)" fill="#553678"/>
        <path id="Trazado_800039" data-name="Trazado 800039" d="M842.257,979.148A.262.262,0,0,1,842,978.9a91.566,91.566,0,0,1,.859-17.728,17.564,17.564,0,0,1,1.542-5.614,6.909,6.909,0,0,1,4.437-3.739.262.262,0,1,1,.115.511,6.392,6.392,0,0,0-4.087,3.469,17.118,17.118,0,0,0-1.489,5.449,91.032,91.032,0,0,0-.854,17.627.262.262,0,0,1-.249.274h-.013" transform="translate(-694.969 -785.709)" fill="#553678"/>
        <path id="Trazado_800040" data-name="Trazado 800040" d="M1017.771,1038.689a.262.262,0,0,1-.254-.2c-.861-3.479-1.811-6.982-2.823-10.411-.138-.466-.256-.851-.372-1.211a.262.262,0,1,1,.5-.161c.117.364.237.752.376,1.223,1.014,3.436,1.966,6.947,2.829,10.433a.262.262,0,0,1-.191.317.267.267,0,0,1-.063.008" transform="translate(-837.301 -847.386)" fill="#553678"/>
        <path id="Trazado_800041" data-name="Trazado 800041" d="M314.435,1159.2H.262a.262.262,0,0,1,0-.524H314.435a.262.262,0,1,1,0,.524" transform="translate(0 -956.476)" fill="#553678"/>
        <path id="Trazado_800042" data-name="Trazado 800042" d="M932.031,340.484a.262.262,0,0,1-.242-.16c-1.72-4.091-1.448-8.656-1.186-13.07q.027-.451.053-.9c.254-4.426.314-9.481-2.206-13.454a.262.262,0,0,1,.442-.281c2.6,4.1,2.545,9.257,2.286,13.764q-.026.449-.053.9c-.259,4.355-.527,8.858,1.146,12.836a.262.262,0,0,1-.241.363" transform="translate(-766.392 -257.964)" fill="#654781"/>
        <path id="Trazado_800043" data-name="Trazado 800043" d="M965.385,351.517a.261.261,0,0,1-.1-.018,10.329,10.329,0,0,1-4.434-3.685,30.318,30.318,0,0,1-2.736-5.041.262.262,0,0,1,.475-.22,29.9,29.9,0,0,0,2.686,4.956,9.811,9.811,0,0,0,4.2,3.5.262.262,0,0,1-.1.505" transform="translate(-790.896 -282.647)" fill="#654781"/>
        <path id="Trazado_800044" data-name="Trazado 800044" d="M1313.923,351.274a.262.262,0,0,1-.069-.514,18.88,18.88,0,0,0,7.861-4.339.262.262,0,1,1,.357.383,19.4,19.4,0,0,1-8.079,4.461.267.267,0,0,1-.069.009" transform="translate(-1084.412 -285.908)" fill="#f2735f"/>
        <path id="Trazado_800045" data-name="Trazado 800045" d="M1400.4,190.895a.262.262,0,0,1-.166-.465,2.007,2.007,0,0,0,.277-.273,1.62,1.62,0,0,0,.355-1.417,1.45,1.45,0,0,0-.336-.529,1.378,1.378,0,0,1-.445-1.109c.1-.777.97-1.208,1.684-1.342a2.937,2.937,0,0,1,2.624.838.262.262,0,0,1-.377.364,2.441,2.441,0,0,0-2.151-.687c-.436.081-1.192.362-1.261.895-.034.264.094.431.325.7a1.889,1.889,0,0,1,.443.733,2.149,2.149,0,0,1-.458,1.886,2.534,2.534,0,0,1-.349.344.26.26,0,0,1-.165.059" transform="translate(-1155.749 -153.304)" fill="#f2735f"/>
        <path id="Trazado_800046" data-name="Trazado 800046" d="M1245.914,167.733q-1.071,0-2.146-.106a.262.262,0,1,1,.051-.521,21.243,21.243,0,0,0,7.537-.607.262.262,0,0,1,.134.506,21.758,21.758,0,0,1-5.577.728" transform="translate(-1026.521 -137.436)" fill="#2a1c4e"/>
        <path id="Trazado_800047" data-name="Trazado 800047" d="M1226.145,255.36a2.622,2.622,0,0,1-2.489-1.588,2.947,2.947,0,0,1,.052-1.893,5.286,5.286,0,0,0,.172-.838,21.069,21.069,0,0,0,.028-3.332.262.262,0,1,1,.522-.034,21.581,21.581,0,0,1-.03,3.415,5.684,5.684,0,0,1-.187.922,2.463,2.463,0,0,0-.067,1.58,2.179,2.179,0,0,0,2.32,1.222,3.181,3.181,0,0,0,1.347-.539.262.262,0,0,1,.293.434,3.7,3.7,0,0,1-1.569.624,2.889,2.889,0,0,1-.394.027" transform="translate(-1010 -204.251)" fill="#2a1c4e"/>
        <path id="Trazado_800048" data-name="Trazado 800048" d="M1100.634,691.162a.262.262,0,0,1-.2-.089c-.815-.933-1.611-1.9-2.365-2.87a35.049,35.049,0,0,0-5.164-5.15c-.937-.81-1.907-1.647-2.906-2.6-.563-.54-1.18-1.264-.941-2.081.286-.977,1.528-1.175,2.562-.947,3.33.738,5.926,3.358,8.012,5.462a.262.262,0,1,1-.372.369c-2.038-2.056-4.574-4.615-7.754-5.32-.67-.149-1.742-.116-1.947.583-.159.546.345,1.118.8,1.556.989.948,1.953,1.78,2.886,2.586a35.451,35.451,0,0,1,5.235,5.225c.748.964,1.537,1.921,2.346,2.846a.262.262,0,0,1-.2.434" transform="translate(-898.964 -559.132)" fill="#f2735f"/>
        <path id="Trazado_800049" data-name="Trazado 800049" d="M1420.8,256.263a.262.262,0,0,1-.25-.183c-.729-2.317-1.354-4.7-1.857-7.079a.262.262,0,0,1,.512-.108c.5,2.364,1.119,4.729,1.844,7.03a.262.262,0,0,1-.171.328.255.255,0,0,1-.078.012" transform="translate(-1171.108 -205.287)" fill="#7e322a"/>
        <path id="Trazado_800050" data-name="Trazado 800050" d="M1282.052,550.33a22.311,22.311,0,0,1-6.289-1.052c-.5-.15-1.014-.311-1.519-.481a55.71,55.71,0,0,1-15.423-8.339.262.262,0,0,1,.312-.421,55.194,55.194,0,0,0,15.278,8.263c.5.168,1,.328,1.5.475,4.315,1.28,7.6,1.364,10.353.267,3.639-1.454,6-4.889,8.02-8.384a102.033,102.033,0,0,0,12.741-37.988.262.262,0,1,1,.519.065,102.552,102.552,0,0,1-12.807,38.184c-2.062,3.577-4.493,7.1-8.279,8.609a11.711,11.711,0,0,1-4.406.8" transform="translate(-1039.054 -414.76)" fill="#f39200"/>
        <path id="Trazado_800051" data-name="Trazado 800051" d="M1093.663,661.74a.261.261,0,0,1-.177-.069,36.5,36.5,0,0,0-5.1-4.13,11.86,11.86,0,0,0-6.072-2.007c-.269-.008-.909.026-1.051.4a1.018,1.018,0,0,0,.143.736,6.364,6.364,0,0,0,2.134,2.455.262.262,0,1,1-.294.433,6.886,6.886,0,0,1-2.309-2.657,1.463,1.463,0,0,1-.164-1.151c.186-.493.74-.76,1.55-.744a12.373,12.373,0,0,1,6.341,2.087,36.85,36.85,0,0,1,5.172,4.187.262.262,0,0,1-.177.455" transform="translate(-892.117 -540.703)" fill="#f2735f"/>
        <path id="Trazado_800052" data-name="Trazado 800052" d="M1112.943,637.853a.26.26,0,0,1-.169-.062,57.74,57.74,0,0,0-6.718-4.921,14.052,14.052,0,0,0-2.849-1.447.262.262,0,0,1,.169-.5,14.543,14.543,0,0,1,2.959,1.5,58.3,58.3,0,0,1,6.779,4.966.262.262,0,0,1-.17.461" transform="translate(-910.538 -520.811)" fill="#f2735f"/>
        <path id="Trazado_800053" data-name="Trazado 800053" d="M1080.411,643.094a.26.26,0,0,1-.148-.046,5.933,5.933,0,0,1-1.858-1.718,2.593,2.593,0,0,1-.357-1.085.262.262,0,0,1,.521-.049,2.091,2.091,0,0,0,.285.864,5.539,5.539,0,0,0,1.7,1.555.262.262,0,0,1-.148.478" transform="translate(-889.916 -528.279)" fill="#f2735f"/>
        <path id="Trazado_800054" data-name="Trazado 800054" d="M1252.246,546.006l-.031,0a.262.262,0,0,1-.229-.291c.132-1.12.281-2.256.424-3.354q.14-1.073.277-2.145a67.331,67.331,0,0,0,.65-9.2.262.262,0,0,1,.258-.265h0a.262.262,0,0,1,.262.258,67.89,67.89,0,0,1-.654,9.269q-.135,1.073-.277,2.148c-.143,1.1-.292,2.231-.424,3.348a.261.261,0,0,1-.259.231" transform="translate(-1033.499 -438.13)" fill="#f39200"/>
        <path id="Trazado_800055" data-name="Trazado 800055" d="M1351.108,987.238a.262.262,0,0,1-.251-.188l-.558-1.9c-2.122-7.224-3.7-13.7-1.466-19.823,2.9-7.946,11.462-11.935,16.31-13.605.8-.274,1.622-.539,2.526-.808a.262.262,0,1,1,.15.5c-.9.268-1.717.53-2.506.8-4.76,1.64-13.167,5.547-15.989,13.29-2.176,5.972-.619,12.363,1.477,19.5l.558,1.9a.261.261,0,0,1-.177.325.266.266,0,0,1-.074.011" transform="translate(-1112.551 -784.96)" fill="#553678"/>
        <path id="Trazado_800056" data-name="Trazado 800056" d="M1529.936,1079.949a.262.262,0,0,1-.254-.2c-1.44-5.7-3.052-11.434-4.789-17.043a.262.262,0,0,1,.5-.155c1.74,5.618,3.354,11.361,4.8,17.07a.262.262,0,0,1-.254.326" transform="translate(-1258.772 -876.973)" fill="#553678"/>
        <path id="Trazado_800057" data-name="Trazado 800057" d="M1472.687,246.365a.26.26,0,0,1-.131-.036,36.123,36.123,0,0,1-15.358-17.85.262.262,0,0,1,.487-.193,35.6,35.6,0,0,0,15.135,17.591.262.262,0,0,1-.132.488" transform="translate(-1202.884 -188.311)" fill="#7e322a"/>
        <path id="Trazado_800058" data-name="Trazado 800058" d="M1480.432,327.183a.261.261,0,0,1-.23-.136,53.234,53.234,0,0,0-5.543-8.18.262.262,0,1,1,.4-.333,53.767,53.767,0,0,1,5.6,8.26.262.262,0,0,1-.229.388" transform="translate(-1217.265 -262.868)" fill="#7e322a"/>
        <path id="Trazado_800059" data-name="Trazado 800059" d="M1242.607,401.939a.261.261,0,0,1-.26-.238,29.672,29.672,0,0,1,.546-9.068.262.262,0,1,1,.511.111,29.16,29.16,0,0,0-.537,8.908.262.262,0,0,1-.236.285h-.025" transform="translate(-1025.436 -323.944)" fill="#7e322a"/>
        <path id="Trazado_800060" data-name="Trazado 800060" d="M1139.145,105.5a.262.262,0,0,1-.2-.432,58.1,58.1,0,0,0,8.151-12.448.262.262,0,0,1,.471.228,58.62,58.62,0,0,1-8.224,12.56.262.262,0,0,1-.2.091" transform="translate(-940.135 -76.333)" fill="#7e322a"/>
        <path id="Trazado_800061" data-name="Trazado 800061" d="M179.457,324.451a.26.26,0,0,1-.181-.073,4.572,4.572,0,0,1-1.089-1.449,2.4,2.4,0,0,1-.074-1.88,3.678,3.678,0,0,1,.284-.516,1.891,1.891,0,0,0,.313-.679,1.261,1.261,0,0,0-.718-1.158,2.21,2.21,0,0,0-2.767.616.262.262,0,0,1-.425-.305,2.718,2.718,0,0,1,3.448-.768,1.76,1.76,0,0,1,.98,1.692,2.3,2.3,0,0,1-.387.879,3.262,3.262,0,0,0-.246.443,1.877,1.877,0,0,0,.071,1.466,4.083,4.083,0,0,0,.971,1.281.262.262,0,0,1-.181.451" transform="translate(-144.255 -262.439)" fill="#f2735f"/>
        <path id="Trazado_800062" data-name="Trazado 800062" d="M217.636,291.074a.262.262,0,0,1-.029-.522,45.479,45.479,0,0,0,5.588-.994.262.262,0,1,1,.124.509,45.964,45.964,0,0,1-5.653,1.005l-.03,0" transform="translate(-179.44 -239.021)" fill="#d5442e"/>
        <path id="Trazado_800063" data-name="Trazado 800063" d="M210.417,623.18c-4.346,0-8.075-2.847-10.063-7.732a.262.262,0,1,1,.485-.2c2,4.908,5.808,7.671,10.2,7.385,4.246-.275,7.813-3.177,11.4-6.385L248.394,593a.262.262,0,1,1,.349.39l-25.963,23.25c-3.654,3.272-7.3,6.232-11.711,6.518-.219.014-.437.021-.652.021" transform="translate(-165.374 -489.461)" fill="#f2735f"/>
        <path id="Trazado_800064" data-name="Trazado 800064" d="M168.361,649.778a.262.262,0,0,1-.243-.163c-.887-2.179-1.964-4.331-3.005-6.413a72.3,72.3,0,0,1-3.814-8.53.262.262,0,1,1,.495-.172,71.949,71.949,0,0,0,3.788,8.467c1.046,2.09,2.128,4.252,3.022,6.45a.261.261,0,0,1-.242.36" transform="translate(-133.138 -523.627)" fill="#b34f8e"/>
        <path id="Trazado_800065" data-name="Trazado 800065" d="M190.969,521.458a14.456,14.456,0,0,1-3.2-.367c-5.368-1.218-9.432-4.869-11.9-7.717a66.4,66.4,0,0,1-7.489-11.56.262.262,0,0,1,.459-.252,65.989,65.989,0,0,0,7.426,11.469c2.412,2.789,6.386,6.362,11.615,7.549a11.327,11.327,0,0,0,8.695-1.187c3.732-2.466,6.191-8.267,3.669-14.582a.262.262,0,0,1,.486-.194,14.348,14.348,0,0,1,.714,8.317,10.831,10.831,0,0,1-4.581,6.9,10.687,10.687,0,0,1-5.9,1.627" transform="translate(-138.977 -413.922)" fill="#b34f8e"/>
        <path id="Trazado_800066" data-name="Trazado 800066" d="M373.99,326.224A2.574,2.574,0,0,1,372,325.3a.262.262,0,1,1,.408-.328,1.989,1.989,0,0,0,3.536-1.342,4.31,4.31,0,0,0-.691-1.825c-.08-.144-.16-.287-.235-.431a9.7,9.7,0,0,1-.778-1.992.262.262,0,0,1,.506-.136,9.171,9.171,0,0,0,.736,1.885c.074.14.151.28.229.42a4.758,4.758,0,0,1,.756,2.054,2.572,2.572,0,0,1-1.618,2.469,2.423,2.423,0,0,1-.859.155" transform="translate(-307.035 -263.37)" fill="#2a1c4e"/>
        <path id="Trazado_800067" data-name="Trazado 800067" d="M321.964,267.01a.262.262,0,0,1-.084-.51,16.6,16.6,0,0,1,6.136-.858.262.262,0,1,1-.025.523,16.34,16.34,0,0,0-5.943.831.256.256,0,0,1-.084.014" transform="translate(-265.561 -219.268)" fill="#2a1c4e"/>
        <path id="Trazado_800068" data-name="Trazado 800068" d="M422.492,281.642a.262.262,0,0,1-.23-.137,7.734,7.734,0,0,0-3.278-3.187.262.262,0,0,1,.236-.467,8.261,8.261,0,0,1,3.5,3.4.262.262,0,0,1-.23.387" transform="translate(-345.748 -229.34)" fill="#2a1c4e"/>
        <path id="Trazado_800069" data-name="Trazado 800069" d="M300.261,1020.15a.256.256,0,0,1-.041,0,.261.261,0,0,1-.217-.3,139.411,139.411,0,0,0,1.608-14.508c.454-8.538-1.094-12.442-2.3-14.635a.262.262,0,1,1,.459-.252c2.578,4.7,2.583,10.762,2.362,14.915a139.883,139.883,0,0,1-1.614,14.562.262.262,0,0,1-.258.221" transform="translate(-247.052 -817.495)" fill="#2a1c4e"/>
        <path id="Trazado_800070" data-name="Trazado 800070" d="M126.259,1061.21a.254.254,0,0,1-.043,0,.262.262,0,0,1-.216-.3l3.357-20.452a.262.262,0,1,1,.517.085l-3.357,20.451a.262.262,0,0,1-.258.219" transform="translate(-104.009 -858.702)" fill="#2a1c4e"/>
        <path id="Trazado_800071" data-name="Trazado 800071" d="M444.325,760.825a.258.258,0,0,1-.118-.028.262.262,0,0,1-.115-.352,16.487,16.487,0,0,0,1.677-7.7,23.459,23.459,0,0,0-.338-3.432.262.262,0,0,1,.516-.088,24.014,24.014,0,0,1,.346,3.508,17.021,17.021,0,0,1-1.733,7.952.262.262,0,0,1-.234.143" transform="translate(-366.569 -618.294)" fill="#b34f8e"/>
        <path id="Trazado_800072" data-name="Trazado 800072" d="M416.622,610.71a.262.262,0,0,1-.256-.207,23.308,23.308,0,0,1-.533-6.837.262.262,0,0,1,.522.043,22.79,22.79,0,0,0,.523,6.684.262.262,0,0,1-.2.311.269.269,0,0,1-.055.006" transform="translate(-343.212 -498.121)" fill="#b34f8e"/>
        <path id="Trazado_800073" data-name="Trazado 800073" d="M354.551,1072.407l-.033,0a.262.262,0,0,1-.227-.292l2.3-18.33a.262.262,0,0,1,.52.065l-2.3,18.33a.262.262,0,0,1-.259.229" transform="translate(-292.462 -869.697)" fill="#2a1c4e"/>
        <path id="Trazado_800074" data-name="Trazado 800074" d="M887.309,307.2a.262.262,0,0,1-.08-.511,1.09,1.09,0,0,0,.619-.573,1.815,1.815,0,0,0,.146-.921,1.669,1.669,0,0,0-.33-.921.888.888,0,0,0-.776-.342,1.239,1.239,0,0,0-.152.036.69.69,0,0,1-.77-.15c-.5-.536-.127-1.718-.048-1.95a1.9,1.9,0,0,1,1.833-1.374.262.262,0,1,1-.048.521,1.4,1.4,0,0,0-1.29,1.023c-.182.528-.266,1.206-.064,1.422.043.046.053.057.246,0a1.669,1.669,0,0,1,.22-.051,1.4,1.4,0,0,1,1.255.527,2.153,2.153,0,0,1,.448,1.214,2.335,2.335,0,0,1-.2,1.188,1.6,1.6,0,0,1-.932.846.258.258,0,0,1-.08.013" transform="translate(-731.143 -248.051)" fill="#f2735f"/>
        <path id="Trazado_800075" data-name="Trazado 800075" d="M1367.927,156.574a13.729,13.729,0,0,1-6.139-1.438.262.262,0,0,1,.235-.468,13.232,13.232,0,0,0,9.219.955.262.262,0,1,1,.134.506,13.464,13.464,0,0,1-3.45.445" transform="translate(-1124.022 -127.654)" fill="#7e322a"/>
        <path id="Trazado_800076" data-name="Trazado 800076" d="M1339.857,69.563h-.028a27.116,27.116,0,0,1-14.394-6.106.262.262,0,1,1,.336-.4,26.585,26.585,0,0,0,14.113,5.987.262.262,0,0,1-.027.522" transform="translate(-1094.054 -52)" fill="#7e322a"/>
        <path id="Trazado_800077" data-name="Trazado 800077" d="M1330.04,122.46a7.618,7.618,0,0,1-1.875-.243.262.262,0,1,1,.129-.508,6.62,6.62,0,0,0,2.757.143,4.151,4.151,0,0,0,2.176-1.021,2.57,2.57,0,0,0,.813-2.116.262.262,0,1,1,.519-.069,3.1,3.1,0,0,1-.968,2.561,4.608,4.608,0,0,1-2.451,1.161,6.507,6.507,0,0,1-1.1.092" transform="translate(-1096.222 -97.752)" fill="#7e322a"/>
        <path id="Trazado_800078" data-name="Trazado 800078" d="M136.446,376.747a.262.262,0,0,1-.246-.173,20.354,20.354,0,0,1,.1-13.83.262.262,0,1,1,.49.184,19.822,19.822,0,0,0-.094,13.469.262.262,0,0,1-.246.35" transform="translate(-111.471 -299.3)" fill="#e16631"/>
        <path id="Trazado_800079" data-name="Trazado 800079" d="M182.579,398.2a.262.262,0,0,1-.224-.127,24.677,24.677,0,0,1-3.2-8.558.262.262,0,0,1,.516-.09,24.155,24.155,0,0,0,3.131,8.377.262.262,0,0,1-.089.359.259.259,0,0,1-.135.038" transform="translate(-147.888 -321.29)" fill="#e16631"/>
        <path id="Trazado_800080" data-name="Trazado 800080" d="M192.826,206.421a.262.262,0,0,1-.147-.479,69.673,69.673,0,0,0,14.943-13.6.262.262,0,0,1,.4.332,70.2,70.2,0,0,1-15.055,13.7.261.261,0,0,1-.146.045" transform="translate(-158.96 -158.698)" fill="#d5442e"/>
        <path id="Trazado_800081" data-name="Trazado 800081" d="M265.3,188.428a.262.262,0,0,1-.128-.49,42.958,42.958,0,0,0,15.35-14.615.262.262,0,0,1,.444.278,43.484,43.484,0,0,1-15.538,14.794.261.261,0,0,1-.128.034" transform="translate(-218.787 -142.975)" fill="#d5442e"/>
        <path id="Trazado_800082" data-name="Trazado 800082" d="M1314.42,394.008a11.558,11.558,0,0,1-2.223-.212c-4.968-.973-8.982-6.01-8.59-10.78a.262.262,0,1,1,.522.043c-.371,4.521,3.446,9.3,8.169,10.224,4.19.82,8.951-.884,12.427-4.448,2.813-2.886,4.874-6.876,6.3-12.2a.262.262,0,1,1,.506.135c-1.449,5.413-3.552,9.479-6.43,12.43a15.258,15.258,0,0,1-10.679,4.809" transform="translate(-1076.09 -310.746)" fill="#f39200"/>
        <path id="Trazado_800083" data-name="Trazado 800083" d="M992.577,436.673a.262.262,0,0,1-.244-.168,36.68,36.68,0,0,0-2.419-5.161,21.047,21.047,0,0,0-10.169-9.4c-3.6-1.4-7.647-.665-11.559.047-.541.1-1.075.2-1.6.286a.262.262,0,1,1-.088-.516c.525-.09,1.058-.187,1.6-.285,3.8-.691,8.1-1.475,11.843-.02a21.57,21.57,0,0,1,10.434,9.626,37.173,37.173,0,0,1,2.454,5.235.262.262,0,0,1-.244.356" transform="translate(-797.651 -347.229)" fill="#dfd7ec"/>
        <path id="Trazado_800084" data-name="Trazado 800084" d="M1359.083,671.583q-.816,0-1.672-.026a66.3,66.3,0,0,1-16.27-2.566.262.262,0,1,1,.145-.5,65.776,65.776,0,0,0,16.142,2.546c5.781.174,10.15-.541,13.745-2.256,6.109-2.914,10.144-8.755,13.595-14.632,5.865-9.99,9.808-19.547,11.719-28.4a.262.262,0,0,1,.512.11c-1.923,8.912-5.886,18.52-11.78,28.559-3.493,5.949-7.585,11.865-13.821,14.84-3.316,1.581-7.26,2.333-12.314,2.333" transform="translate(-1106.94 -516.371)" fill="#f39200"/>
        <path id="Trazado_800085" data-name="Trazado 800085" d="M1156.5,197.2a.262.262,0,0,1-.159-.47,33.251,33.251,0,0,0,4.33-3.968.262.262,0,0,1,.387.353,33.781,33.781,0,0,1-4.4,4.031.26.26,0,0,1-.159.054" transform="translate(-954.463 -159.056)" fill="#2a1c4e"/>
      </g>
    </g>
  </g>
</svg>
