<svg xmlns="http://www.w3.org/2000/svg" xmlns:xlink="http://www.w3.org/1999/xlink" width="56" height="56" viewBox="0 0 56 56">
  <defs>
    <clipPath id="clip-path">
      <rect id="droga" width="56" height="56" transform="translate(197 1585)" fill="#ff8182"/>
    </clipPath>
  </defs>
  <g id="Enmascarar_grupo_1059080" data-name="Enmascarar grupo 1059080" transform="translate(-197 -1585)" clip-path="url(#clip-path)">
    <g id="droga-2" data-name="droga" transform="translate(195.341 1586.418)">
      <path id="Trazado_800700" data-name="Trazado 800700" d="M48.481,21.945a2.536,2.536,0,0,0-3.334.653l-4.66,6.214a5.949,5.949,0,0,1-3.819,2.3l-15.9,2.112,10.943-4.394a1.818,1.818,0,0,0,1.191-1.76,1.771,1.771,0,0,0-2.288-1.6L16.071,29.942a6.979,6.979,0,0,0-4.183,3.321l-2.75,4.949L4.984,50.673H17.445l.625-5a2.632,2.632,0,0,1,1.78-2.171l21.127-7.042a5.949,5.949,0,0,0,3.341-2.8l5.023-8.224a2.536,2.536,0,0,0-.86-3.5Z" fill="#efcb9a"/>
      <path id="Trazado_800701" data-name="Trazado 800701" d="M46.027,11.981l-3.63,3.63a3.425,3.425,0,1,1-4.843-4.843l3.63-3.63Z" fill="#fff"/>
      <path id="Trazado_800702" data-name="Trazado 800702" d="M46.032,11.977,49.67,8.338A3.425,3.425,0,1,0,44.827,3.5L41.188,7.134Z" fill="#fd614b"/>
      <path id="Trazado_800703" data-name="Trazado 800703" d="M11.979,7.136,7.136,11.979,3.5,8.34A3.425,3.425,0,1,1,8.34,3.5Z" fill="#fecd0d"/>
      <path id="Trazado_800704" data-name="Trazado 800704" d="M15.611,10.768l-3.63-3.63L7.138,11.981l3.63,3.63a3.425,3.425,0,0,0,4.843-4.843Z" fill="#fff"/>
      <circle id="Elipse_4799" data-name="Elipse 4799" cx="4.984" cy="4.984" r="4.984" transform="translate(21.598 2.492)" fill="#8ce2ff"/>
      <path id="Trazado_800705" data-name="Trazado 800705" d="M23.059,11.111l7.049-7.049" fill="#8ce2ff"/>
      <path id="Trazado_800706" data-name="Trazado 800706" d="M21.6,15.783a3.323,3.323,0,0,0,0,6.646h4.984V15.783Z" fill="#fff"/>
      <path id="Trazado_800707" data-name="Trazado 800707" d="M31.567,15.783H26.583v6.646h4.984a3.323,3.323,0,0,0,0-6.646Z" fill="#27ae60"/>
      <path id="Trazado_800708" data-name="Trazado 800708" d="M11,20.555a4.917,4.917,0,0,1,0,6.994,5.011,5.011,0,0,1-7.048,0,4.917,4.917,0,0,1,0-6.994,5.011,5.011,0,0,1,7.048,0Z" fill="#fd614b"/>
      <path id="Trazado_800709" data-name="Trazado 800709" d="M57.659,16.963,52.816,12.12" fill="none"/>
      <path id="Trazado_800710" data-name="Trazado 800710" d="M32.011,29.608a2.6,2.6,0,0,0-1.641-4.932L15.843,29.143a7.765,7.765,0,0,0-4.682,3.717L8.412,37.809a.8.8,0,0,0-.062.14L4.2,50.41A.83.83,0,0,0,4.984,51.5H17.445a.831.831,0,0,0,.824-.728l.625-5a1.812,1.812,0,0,1,1.218-1.486l21.127-7.042a6.731,6.731,0,0,0,3.788-3.15l5.022-8.224A3.367,3.367,0,0,0,44.483,22.1l-4.661,6.213a5.081,5.081,0,0,1-3.264,1.98l-9.342,1.24ZM36.8,31.937a6.745,6.745,0,0,0,4.351-2.628L45.811,23.1a1.705,1.705,0,0,1,2.82,1.912l-5.043,8.26a5.1,5.1,0,0,1-2.875,2.4L19.587,42.715a3.48,3.48,0,0,0-2.341,2.856l-.534,4.272H6.137L9.9,38.548l2.712-4.881a6.121,6.121,0,0,1,3.7-2.931l14.544-4.472a.929.929,0,0,1,.811.127.939.939,0,0,1,.4.733.992.992,0,0,1-.672.939L20.458,32.458a.831.831,0,0,0,.419,1.594Z"/>
      <path id="Trazado_800711" data-name="Trazado 800711" d="M26.583,1.661A5.815,5.815,0,1,0,32.4,7.476a5.815,5.815,0,0,0-5.815-5.815Zm0,1.661a4.125,4.125,0,0,1,2.352.737L23.166,9.829a4.147,4.147,0,0,1,3.417-6.506Zm0,8.307a4.117,4.117,0,0,1-2.215-.653l5.716-5.716a4.138,4.138,0,0,1-3.5,6.369Z"/>
      <path id="Trazado_800712" data-name="Trazado 800712" d="M31.567,14.953H21.6a4.154,4.154,0,0,0,0,8.307h9.968a4.154,4.154,0,0,0,0-8.307ZM19.106,19.106A2.5,2.5,0,0,1,21.6,16.614h4.154V21.6H21.6a2.5,2.5,0,0,1-2.492-2.492ZM31.567,21.6H27.413V16.614h4.154a2.492,2.492,0,1,1,0,4.984Z"/>
      <path id="Trazado_800713" data-name="Trazado 800713" d="M7.476,29.825a5.815,5.815,0,0,0,4.109-1.687,5.748,5.748,0,0,0,0-8.173,5.848,5.848,0,0,0-8.218,0,5.748,5.748,0,0,0,0,8.173,5.814,5.814,0,0,0,4.109,1.687Zm4.154-5.774a4.071,4.071,0,0,1-1.214,2.907,4.131,4.131,0,0,1-2.031,1.1V20.048a4.132,4.132,0,0,1,2.031,1.1,4.068,4.068,0,0,1,1.214,2.907ZM4.537,21.145A4.141,4.141,0,0,1,6.724,20.01v8.083a4.14,4.14,0,0,1-2.186-1.134,4.087,4.087,0,0,1,0-5.814Z"/>
      <path id="Trazado_800714" data-name="Trazado 800714" d="M16.2,10.177,8.929,2.907A4.259,4.259,0,1,0,2.907,8.929h0l7.27,7.269A4.257,4.257,0,1,0,16.2,10.177ZM4.082,4.083a2.6,2.6,0,0,1,3.672,0L10.8,7.129,7.13,10.8,4.083,7.755a2.6,2.6,0,0,1,0-3.672Zm10.941,10.94a2.6,2.6,0,0,1-3.672,0L8.3,11.976,11.976,8.3l3.047,3.048a2.6,2.6,0,0,1,0,3.672Z"/>
      <path id="Trazado_800715" data-name="Trazado 800715" d="M39.978,17.442a4.244,4.244,0,0,0,3.01-1.244l7.27-7.269a4.259,4.259,0,1,0-6.023-6.023h0l-7.269,7.27a4.255,4.255,0,0,0,3.01,7.265ZM45.411,4.083a2.6,2.6,0,1,1,3.673,3.672L46.036,10.8,42.364,7.13Zm-7.269,7.269L41.189,8.3l3.672,3.672-3.048,3.047a2.6,2.6,0,0,1-3.672-3.672Z"/>
    </g>
  </g>
</svg>
