<svg xmlns="http://www.w3.org/2000/svg" xmlns:xlink="http://www.w3.org/1999/xlink" width="85" height="85" viewBox="0 0 85 85">
  <defs>
    <clipPath id="clip-path">
      <rect id="familia" width="85" height="85" transform="translate(443 3299)" fill="#ff8182"/>
    </clipPath>
  </defs>
  <g id="Enmascarar_grupo_1059075" data-name="Enmascarar grupo 1059075" transform="translate(-443 -3299)" clip-path="url(#clip-path)">
    <g id="familia-2" data-name="familia" transform="translate(443 3299)">
      <g id="Grupo_1065307" data-name="Grupo 1065307">
        <g id="Grupo_1065295" data-name="Grupo 1065295">
          <path id="Trazado_800497" data-name="Trazado 800497" d="M18.611,19.248H10.792a5.9,5.9,0,0,0-6.034,6.287L6.073,39.774H18.611Z" fill="#d77f4a"/>
          <path id="Trazado_800498" data-name="Trazado 800498" d="M34.3,59.181H7.987A5.547,5.547,0,0,0,2.44,64.728V76.21H40.061V64.728A5.55,5.55,0,0,0,34.3,59.181Z" fill="#0ab69f"/>
          <path id="Trazado_800499" data-name="Trazado 800499" d="M15.463,59.181a5.788,5.788,0,0,0,11.576,0Z" fill="#82aee3"/>
          <path id="Trazado_800500" data-name="Trazado 800500" d="M21.251,60.986,15.461,57.1l-3.5,1.688a.616.616,0,0,0-.154,1l4.739,4.451a.616.616,0,0,0,.819.022Z" fill="#c0d6f2"/>
          <path id="Trazado_800501" data-name="Trazado 800501" d="M21.251,60.986,27.04,57.1l3.5,1.688a.616.616,0,0,1,.154,1l-4.739,4.451a.616.616,0,0,1-.819.022Z" fill="#c0d6f2"/>
          <path id="Trazado_800502" data-name="Trazado 800502" d="M27.04,45.25H15.461V57.1l5.79,3.883L27.04,57.1Z" fill="#ffb09e"/>
          <path id="Trazado_800503" data-name="Trazado 800503" d="M34.3,59.181h-4.78a5.55,5.55,0,0,1,5.766,5.547V76.21h4.78V64.728A5.55,5.55,0,0,0,34.3,59.181Z" fill="#01998d"/>
          <path id="Trazado_800504" data-name="Trazado 800504" d="M30.544,58.792,27.04,57.1l-1.817,1.218.976.47a.616.616,0,0,1,.154,1l-3.083,2.9,1.869,1.577a.616.616,0,0,0,.819-.022L30.7,59.8a.616.616,0,0,0-.154-1Z" fill="#b2caec"/>
          <path id="Trazado_800505" data-name="Trazado 800505" d="M15.461,56.112a13.82,13.82,0,0,0,5.678,1.212h.182a13.82,13.82,0,0,0,5.72-1.23V44.815H15.461Z" fill="#ffa78f"/>
          <path id="Trazado_800506" data-name="Trazado 800506" d="M14.409,34.02V43.5" fill="none"/>
          <path id="Trazado_800507" data-name="Trazado 800507" d="M28.05,43.5V34.02" fill="none"/>
          <path id="Trazado_800508" data-name="Trazado 800508" d="M14.409,43.5H7.251a4.74,4.74,0,1,1,0-9.48h7.158Z" fill="#ffb09e"/>
          <path id="Trazado_800509" data-name="Trazado 800509" d="M28.05,34.02H35.2a4.74,4.74,0,0,1,0,9.48H28.05Z" fill="#ffa78f"/>
          <path id="Trazado_800510" data-name="Trazado 800510" d="M21.321,55.152h-.182A13.871,13.871,0,0,1,7.268,41.281V36.239A13.871,13.871,0,0,1,21.139,22.368h.182A13.871,13.871,0,0,1,35.191,36.239v5.043A13.871,13.871,0,0,1,21.321,55.152Z" fill="#ffcebf"/>
          <path id="Trazado_800511" data-name="Trazado 800511" d="M21.321,22.368h-.182a14.009,14.009,0,0,0-1.647.1A13.872,13.872,0,0,1,31.715,36.239v5.043A13.872,13.872,0,0,1,19.492,55.054a14.012,14.012,0,0,0,1.647.1h.182A13.871,13.871,0,0,0,35.191,41.281V36.239A13.87,13.87,0,0,0,21.321,22.368Z" fill="#ffb09e"/>
          <g id="Grupo_1065294" data-name="Grupo 1065294">
            <g id="Grupo_1065292" data-name="Grupo 1065292">
              <path id="Trazado_800512" data-name="Trazado 800512" d="M31.363,46.173H28.941a1.15,1.15,0,1,1,0-2.3h2.421a1.15,1.15,0,1,1,0,2.3Z" fill="#fe8f83"/>
            </g>
            <g id="Grupo_1065293" data-name="Grupo 1065293">
              <path id="Trazado_800513" data-name="Trazado 800513" d="M13.56,46.173H11.138a1.15,1.15,0,1,1,0-2.3h2.421a1.15,1.15,0,0,1,0,2.3Z" fill="#fe8f83"/>
            </g>
          </g>
          <path id="Trazado_800514" data-name="Trazado 800514" d="M34.649,19.573a7.445,7.445,0,0,0-6.891-4.627H16.474a8.311,8.311,0,0,0-8.311,8.311A10.761,10.761,0,0,0,18.611,34.012v.008h19.21l.786-8.509A5.776,5.776,0,0,0,34.649,19.573Z" fill="#d77f4a"/>
          <path id="Trazado_800515" data-name="Trazado 800515" d="M34.649,19.573a7.445,7.445,0,0,0-6.891-4.627h-4.78a7.445,7.445,0,0,1,6.891,4.627,5.776,5.776,0,0,1,3.959,5.938l-.786,8.509h4.78l.786-8.509a5.776,5.776,0,0,0-3.959-5.938Z" fill="#c86d36"/>
          <path id="Trazado_800516" data-name="Trazado 800516" d="M25.469,45.168a4.239,4.239,0,0,1-8.478,0Z" fill="#ffb09e"/>
        </g>
        <g id="Grupo_1065300" data-name="Grupo 1065300">
          <g id="Grupo_1065299" data-name="Grupo 1065299">
            <path id="Trazado_800517" data-name="Trazado 800517" d="M71.511,60.184a8.157,8.157,0,1,1,8.157-8.157A8.157,8.157,0,0,1,71.511,60.184Z" fill="#5a5a5a"/>
            <path id="Trazado_800518" data-name="Trazado 800518" d="M71.511,43.871a8.158,8.158,0,0,0-2.167.293,8.156,8.156,0,0,1,0,15.727,8.157,8.157,0,1,0,2.167-16.02Z" fill="#444"/>
            <path id="Trazado_800519" data-name="Trazado 800519" d="M82.164,76.21H44.24V64.676A5.964,5.964,0,0,1,50.2,58.712h26a5.964,5.964,0,0,1,5.964,5.964Z" fill="#c0d6f2"/>
            <path id="Trazado_800520" data-name="Trazado 800520" d="M76.2,58.712H72.3a5.964,5.964,0,0,1,5.964,5.964V76.21h3.9V64.675A5.964,5.964,0,0,0,76.2,58.712Z" fill="#b2caec"/>
            <path id="Trazado_800521" data-name="Trazado 800521" d="M50.289,58.712H76.115v17.5H50.289Z" fill="#528fd8"/>
            <path id="Trazado_800522" data-name="Trazado 800522" d="M63.355,64.662a5.949,5.949,0,0,1-5.949-5.949V44.4H69.3V58.713A5.95,5.95,0,0,1,63.355,64.662Z" fill="#ffb09e"/>
            <path id="Trazado_800523" data-name="Trazado 800523" d="M57.405,57.988a14.369,14.369,0,0,0,11.9-.016V44.4h-11.9Z" fill="#ffa78f"/>
            <path id="Trazado_800524" data-name="Trazado 800524" d="M56.324,44.267H48.971a4.873,4.873,0,1,1,0-9.746h7.353Z" fill="#ffb09e"/>
            <path id="Trazado_800525" data-name="Trazado 800525" d="M70.341,34.52h7.353a4.873,4.873,0,0,1,0,9.746H70.341Z" fill="#ffa78f"/>
            <path id="Trazado_800526" data-name="Trazado 800526" d="M63.337,56.235A14.336,14.336,0,0,1,49,41.9v-5a14.336,14.336,0,1,1,28.673,0v5A14.336,14.336,0,0,1,63.337,56.235Z" fill="#ffcebf"/>
            <path id="Trazado_800527" data-name="Trazado 800527" d="M63.337,22.558a14.457,14.457,0,0,0-1.951.133,14.339,14.339,0,0,1,12.386,14.2v5A14.339,14.339,0,0,1,61.387,56.1,14.341,14.341,0,0,0,77.674,41.9v-5A14.336,14.336,0,0,0,63.337,22.558Z" fill="#ffb09e"/>
            <path id="Trazado_800528" data-name="Trazado 800528" d="M63.337,56.235A14.336,14.336,0,0,1,49,41.9v-5a14.336,14.336,0,1,1,28.673,0v5A14.336,14.336,0,0,1,63.337,56.235Z" fill="#ffcebf"/>
            <path id="Trazado_800529" data-name="Trazado 800529" d="M63.337,22.558a14.505,14.505,0,0,0-1.734.1,14.338,14.338,0,0,1,12.6,14.232v5A14.338,14.338,0,0,1,61.6,56.13,14.341,14.341,0,0,0,77.674,41.9v-5A14.336,14.336,0,0,0,63.337,22.558Z" fill="#ffb09e"/>
            <path id="Trazado_800530" data-name="Trazado 800530" d="M50.317,34.52H46.444V31.777A15.023,15.023,0,0,1,61.467,16.754h.042a2.784,2.784,0,0,1,2.784,2.784v1.005A13.976,13.976,0,0,1,50.317,34.52Z" fill="#5a5a5a"/>
            <path id="Trazado_800531" data-name="Trazado 800531" d="M79.668,34.52H63.783a10.33,10.33,0,0,1-10.33-10.33,7.436,7.436,0,0,1,7.436-7.436h4.443A14.336,14.336,0,0,1,79.668,31.091Z" fill="#5a5a5a"/>
            <path id="Trazado_800532" data-name="Trazado 800532" d="M65.332,16.755H61A14.336,14.336,0,0,1,75.333,31.091V34.52h4.335V31.091A14.336,14.336,0,0,0,65.332,16.755Z" fill="#444"/>
            <g id="Grupo_1065298" data-name="Grupo 1065298">
              <g id="Grupo_1065296" data-name="Grupo 1065296">
                <path id="Trazado_800533" data-name="Trazado 800533" d="M73.3,46.244H70.883a1.147,1.147,0,0,1,0-2.294H73.3a1.147,1.147,0,0,1,0,2.294Z" fill="#fe8f83"/>
              </g>
              <g id="Grupo_1065297" data-name="Grupo 1065297">
                <path id="Trazado_800534" data-name="Trazado 800534" d="M55.537,46.244H53.121a1.147,1.147,0,1,1,0-2.294h2.416a1.147,1.147,0,0,1,0,2.294Z" fill="#fe8f83"/>
              </g>
            </g>
          </g>
          <path id="Trazado_800535" data-name="Trazado 800535" d="M67.564,46.244a4.239,4.239,0,0,1-8.478,0Z" fill="#ffb09e"/>
        </g>
        <path id="Trazado_800536" data-name="Trazado 800536" d="M41.761,18.76a1.432,1.432,0,0,0,1.8,0L50,13.566A10.472,10.472,0,0,0,53.457,8.44,5.581,5.581,0,0,0,45.9,1.7a11.08,11.08,0,0,0-3.248,2.076A11.071,11.071,0,0,0,39.407,1.7,5.581,5.581,0,0,0,31.853,8.44a10.471,10.471,0,0,0,3.454,5.126Z" fill="#eb5569"/>
        <g id="Grupo_1065301" data-name="Grupo 1065301">
          <path id="Trazado_800537" data-name="Trazado 800537" d="M52.493,3.366A5.581,5.581,0,0,0,45.9,1.7c-.049.021-.1.043-.145.064a5.578,5.578,0,0,1,2.99,6.673,10.471,10.471,0,0,1-3.454,5.126l-4.99,4.02,1.458,1.173a1.432,1.432,0,0,0,1.8,0L50,13.567A10.471,10.471,0,0,0,53.457,8.44a5.581,5.581,0,0,0-.964-5.074Z" fill="#e53950"/>
        </g>
        <g id="Grupo_1065305" data-name="Grupo 1065305">
          <path id="Trazado_800538" data-name="Trazado 800538" d="M35.411,70.558H34.9a5,5,0,0,0-5,5v8.2H55.408v-8.2a5,5,0,0,0-5-5Z" fill="#f07281"/>
          <path id="Trazado_800539" data-name="Trazado 800539" d="M50.407,70.558h-4.1a5,5,0,0,1,5,5v8.2h4.1v-8.2A5,5,0,0,0,50.407,70.558Z" fill="#eb5569"/>
          <path id="Trazado_800540" data-name="Trazado 800540" d="M42.638,75.825a4.356,4.356,0,0,1-4.356-4.356V60.986h8.712V71.469a4.356,4.356,0,0,1-4.356,4.356Z" fill="#ffb09e"/>
          <path id="Trazado_800541" data-name="Trazado 800541" d="M38.282,70.849a10.612,10.612,0,0,0,8.712,0v-9.86H38.282Z" fill="#ffa78f"/>
          <path id="Trazado_800542" data-name="Trazado 800542" d="M58.147,71.894h2.177V65.9a6.339,6.339,0,0,0-6.339-6.339H51.808v5.994a6.339,6.339,0,0,0,6.339,6.339Z" fill="#5a5a5a"/>
          <path id="Trazado_800543" data-name="Trazado 800543" d="M53.985,59.561H51.808v.182A6.34,6.34,0,0,1,56.638,65.9v5.812a6.353,6.353,0,0,0,1.51.182h2.177V65.9a6.339,6.339,0,0,0-6.339-6.339Z" fill="#444"/>
          <path id="Trazado_800544" data-name="Trazado 800544" d="M27.1,71.894H24.919V65.9a6.339,6.339,0,0,1,6.339-6.339h2.177v5.994A6.339,6.339,0,0,1,27.1,71.894Z" fill="#5a5a5a"/>
          <path id="Trazado_800545" data-name="Trazado 800545" d="M37.506,60.986h-5.4a3.569,3.569,0,0,1,0-7.138h5.4Z" fill="#ffb09e"/>
          <path id="Trazado_800546" data-name="Trazado 800546" d="M47.737,53.847h5.4a3.569,3.569,0,0,1,0,7.138h-5.4Z" fill="#ffa78f"/>
          <path id="Trazado_800547" data-name="Trazado 800547" d="M42.635,45.089a10.434,10.434,0,0,0-10.5,10.368v3.925a10.5,10.5,0,0,0,21,0V55.457a10.434,10.434,0,0,0-10.5-10.368Z" fill="#ffcebf"/>
          <path id="Trazado_800548" data-name="Trazado 800548" d="M42.635,45.089a10.7,10.7,0,0,0-1.625.124,10.411,10.411,0,0,1,8.872,10.244v3.925a10.411,10.411,0,0,1-8.872,10.244,10.7,10.7,0,0,0,1.625.124,10.434,10.434,0,0,0,10.5-10.368V55.457a10.434,10.434,0,0,0-10.5-10.368Z" fill="#ffb09e"/>
          <g id="Grupo_1065302" data-name="Grupo 1065302">
            <path id="Trazado_800549" data-name="Trazado 800549" d="M37.124,63.127h-1.8a.975.975,0,1,1,0-1.95h1.8a.975.975,0,0,1,0,1.95Z" fill="#fe8f83"/>
          </g>
          <g id="Grupo_1065303" data-name="Grupo 1065303">
            <path id="Trazado_800550" data-name="Trazado 800550" d="M49.983,63.127h-1.8a.975.975,0,0,1,0-1.95h1.8a.975.975,0,1,1,0,1.95Z" fill="#fe8f83"/>
          </g>
          <path id="Trazado_800551" data-name="Trazado 800551" d="M43.735,39.035a1.113,1.113,0,0,0-1.113,1.113,1.113,1.113,0,0,0-1.113-1.113A12.01,12.01,0,0,0,29.5,51.045v2.8h7.008a6.115,6.115,0,0,0,6.115-6.115,6.115,6.115,0,0,0,6.115,6.115h7.008v-2.8A12.01,12.01,0,0,0,43.735,39.035Z" fill="#5a5a5a"/>
          <g id="Grupo_1065304" data-name="Grupo 1065304">
            <path id="Trazado_800552" data-name="Trazado 800552" d="M43.735,39.035a1.109,1.109,0,0,0-.808.35,12.013,12.013,0,0,1,9.132,11.661v2.8h3.687v-2.8A12.01,12.01,0,0,0,43.735,39.035Z" fill="#444"/>
          </g>
        </g>
        <path id="Trazado_800553" data-name="Trazado 800553" d="M68.768,61.516l-5.814,1.445.336-.861a1.159,1.159,0,0,0-2.07-1.022l-2.246,3.707a3.308,3.308,0,0,0-.435.86L52.514,83.755h7.443l2.726-13.961,6.8-7.043a.741.741,0,0,0-.712-1.234Z" fill="#ffcebf"/>
        <g id="Grupo_1065306" data-name="Grupo 1065306">
          <path id="Trazado_800554" data-name="Trazado 800554" d="M68.768,61.516,66.823,62a.739.739,0,0,1-.169.751l-6.8,7.043L57.131,83.755h2.825l2.726-13.961,6.8-7.043a.741.741,0,0,0-.712-1.234Z" fill="#ffb09e"/>
        </g>
        <path id="Trazado_800555" data-name="Trazado 800555" d="M25.772,64.784l-2.246-3.707a1.159,1.159,0,0,0-2.07,1.022l.336.861-5.814-1.445a.741.741,0,0,0-.712,1.234l6.8,7.043,2.726,13.961h7.443L26.208,65.644a3.315,3.315,0,0,0-.436-.86Z" fill="#ffcebf"/>
      </g>
      <g id="Grupo_1065308" data-name="Grupo 1065308">
        <path id="Trazado_800556" data-name="Trazado 800556" d="M70.334,43a1.245,1.245,0,0,0,1.245-1.245v-1.4a1.245,1.245,0,0,0-.108-2.486H70.334a1.245,1.245,0,0,0-1.245,1.245v2.644A1.245,1.245,0,0,0,70.334,43Z"/>
        <path id="Trazado_800557" data-name="Trazado 800557" d="M56.316,37.866H55.179a1.245,1.245,0,0,0-.108,2.486v1.4a1.245,1.245,0,0,0,2.49,0V39.111a1.245,1.245,0,0,0-1.245-1.245Z"/>
        <path id="Trazado_800558" data-name="Trazado 800558" d="M57.841,46.244a5.484,5.484,0,1,0,10.968,0A1.245,1.245,0,0,0,67.564,45H59.086A1.245,1.245,0,0,0,57.841,46.244Zm8.206,1.245a2.993,2.993,0,0,1-5.445,0Z"/>
        <path id="Trazado_800559" data-name="Trazado 800559" d="M14.286,37.243a1.245,1.245,0,0,0-1.245,1.245v2.573a1.245,1.245,0,1,0,2.49,0V38.488A1.245,1.245,0,0,0,14.286,37.243Z"/>
        <path id="Trazado_800560" data-name="Trazado 800560" d="M27.927,42.306a1.245,1.245,0,0,0,1.245-1.245V38.488a1.245,1.245,0,0,0-2.49,0v2.573A1.245,1.245,0,0,0,27.927,42.306Z"/>
        <path id="Trazado_800561" data-name="Trazado 800561" d="M21.23,50.652a5.49,5.49,0,0,0,5.484-5.484,1.245,1.245,0,0,0-1.245-1.245H16.991a1.245,1.245,0,0,0-1.245,1.245A5.49,5.49,0,0,0,21.23,50.652Zm2.722-4.239a2.993,2.993,0,0,1-5.445,0Z"/>
        <path id="Trazado_800562" data-name="Trazado 800562" d="M34.527,14.537l6.454,5.193a2.679,2.679,0,0,0,3.357,0l6.445-5.193A11.67,11.67,0,0,0,54.648,8.8,6.826,6.826,0,0,0,45.417.556a12,12,0,0,0-2.763,1.6A9.374,9.374,0,0,0,37.2,0,6.827,6.827,0,0,0,30.66,8.8a11.674,11.674,0,0,0,3.866,5.737Zm-.733-10.4a4.313,4.313,0,0,1,3.4-1.648A7.752,7.752,0,0,1,41.821,4.7a1.246,1.246,0,0,0,1.667,0A9.854,9.854,0,0,1,46.38,2.853l.016-.007a4.328,4.328,0,0,1,5.12,1.292c2.22,2.809-.018,6.624-2.295,8.459-6.931,5.584-6.51,5.328-6.679,5.193L36.088,12.6c-2.213-1.783-4.566-5.585-2.295-8.459Z"/>
        <path id="Trazado_800563" data-name="Trazado 800563" d="M78.8,57.953a9.382,9.382,0,0,0-.354-12.26c.02-.079.039-.157.058-.236a6.115,6.115,0,0,0,2.4-11.262V32.534a1.245,1.245,0,0,0-2.49,0v.741H63.776a9.1,9.1,0,0,1-8.894-7.231l-.01-.05C53.932,21.347,57.037,18,60.882,18h4.443a13.037,13.037,0,0,1,12.493,9.165,1.245,1.245,0,1,0,2.376-.746,15.714,15.714,0,0,0-5.561-7.825,15.453,15.453,0,0,0-9.307-3.084H60.881a8.7,8.7,0,0,0-1.505.133A16.286,16.286,0,0,0,45.192,31.777V34.52c0,.021,0,.042,0,.063A6.133,6.133,0,0,0,43.034,37.9a2.338,2.338,0,0,0-.412.173,2.661,2.661,0,0,0-1.516-.269,5.984,5.984,0,0,0-2.052-3.613c0-.017.006-.035.007-.052l.786-8.509a7,7,0,0,0-4.27-7.026,8.657,8.657,0,0,0-7.82-4.9H16.474a9.559,9.559,0,0,0-8.257,4.754,7.031,7.031,0,0,0-4.7,7.195l.733,7.934a5.982,5.982,0,0,0,2.159,11.1,15.175,15.175,0,0,0,7.806,10.031v1.606l-2.8,1.349a1.862,1.862,0,0,0-.4.266H7.987a6.8,6.8,0,0,0-6.792,6.792V76.21A1.245,1.245,0,0,0,2.44,77.455H13.392a1.245,1.245,0,1,0,0-2.49H3.685V64.728a4.307,4.307,0,0,1,4.3-4.3h2.721c.164.231.088.133,4.981,4.729a1.913,1.913,0,0,0,.483.327l4.739,4.911.892,4.572H19.2a1.245,1.245,0,1,0,0,2.49h3.086l1.276,6.538A1.245,1.245,0,0,0,24.789,85H59.956a1.245,1.245,0,0,0,1.222-1.007l1.276-6.538H82.164a1.245,1.245,0,0,0,1.245-1.245V64.675A7.219,7.219,0,0,0,78.8,57.953ZM62.212,59.274c-.07,0-.139,0-.207.01l-.037,0a2.378,2.378,0,0,0-1.662.926l-.017.022c-.047.063-.092.128-.134.2l-.36.594a7.547,7.547,0,0,0-.949-.947,10.436,10.436,0,0,1-.2-3.315,15.69,15.69,0,0,0,9.409-.011c0,2.081.078,2.692-.353,3.747l-1.787.444-1.331.331a2.427,2.427,0,0,0-.306-.825,3.122,3.122,0,0,0-.622-.694,2.381,2.381,0,0,0-1.44-.481ZM51.615,82.51H33.13l-1.9-5.705-.086-.258v-.987A3.76,3.76,0,0,1,34.9,71.8h2.144a5.6,5.6,0,0,0,11.183,0h2.177a3.781,3.781,0,0,1,3.712,3.183L53.382,77.2ZM15.359,58.535l3.659,2.454-2.74-.681a1.988,1.988,0,0,0-1.715.373l-1.24-1.165Zm27.263-6.71a7.359,7.359,0,0,0,6.115,3.268H51.88s0,0,0,0q.007.181.007.36a36.783,36.783,0,0,1-.1,5.251c0,.024-.006.049-.01.073a9.275,9.275,0,0,1-18.288,0c-.14-.9-.109-1.09-.109-5.324q0-.18.007-.36a.043.043,0,0,1,0,0h3.118A7.359,7.359,0,0,0,42.622,51.824Zm3.024-13.9a3.657,3.657,0,0,1,2.13-1.963c-.035.588-.028.954-.028,2.443A13.915,13.915,0,0,0,45.646,37.929ZM57.357,65.251l-1.6,4.8a5.1,5.1,0,0,1-2.705-4.5v-.813a11.525,11.525,0,0,0,.989-2.6,4.856,4.856,0,0,0,2.009-.9,5.106,5.106,0,0,1,.988.58h0a5.141,5.141,0,0,1,1.287,1.413c.014.023.029.044.043.067l.02.036a8.4,8.4,0,0,0-1.034,1.906ZM45.749,71.469a3.111,3.111,0,0,1-6.222,0v-.886a11.96,11.96,0,0,0,6.222,0ZM26.623,63.786a5.1,5.1,0,0,1,2.567-2.541,4.843,4.843,0,0,0,2.037.9,11.54,11.54,0,0,0,.962,2.542v.863a5.092,5.092,0,0,1-3.136,4.7c-2.076-6.241-1.637-5.161-2.431-6.472Zm4.268-8.329v3.936a2.312,2.312,0,0,1-1.09-1.7c0-.006,0-.012,0-.018a2.32,2.32,0,0,1,1.093-2.237c0,.007,0,.014,0,.021ZM27.465,58.69a4.8,4.8,0,0,0,.183.539,7.661,7.661,0,0,0-2.482,2.153l-.576-.95c-.012-.02-.025-.039-.038-.058s-.031-.049-.047-.072l2.636-1.768Zm6.922,8.95a11.8,11.8,0,0,0,2.163,1.672,12.812,12.812,0,0,0-2.947.137A7.561,7.561,0,0,0,34.388,67.64Zm19.99-12.188a2.32,2.32,0,0,1,0,3.925V55.452ZM50.862,67.659a7.584,7.584,0,0,0,.767,1.772,6.384,6.384,0,0,0-1.222-.118H48.718A11.8,11.8,0,0,0,50.862,67.659Zm19.68-11.946A15.6,15.6,0,0,0,77.449,48.5a6.845,6.845,0,0,1,.966,3.532,6.914,6.914,0,0,1-2.648,5.439H70.541Zm8.343-12.894c.049-.816.048-6.035,0-6.85a3.629,3.629,0,0,1,0,6.85Zm-2.512-7.053a73.177,73.177,0,0,1-.116,8.206,13,13,0,0,1-.42,1.8c-.012.038-.026.076-.038.114A13.092,13.092,0,0,1,56.99,53.353c0-2.417.006-2.54-.022-3.048a13.153,13.153,0,0,0-6.73-10.812c0-2.705-.016-2.961.049-3.728a15.246,15.246,0,0,0,7.25-1.823,11.484,11.484,0,0,0,6.238,1.823Zm-28.69-2.49v-1.5a13.79,13.79,0,0,1,5.09-10.691,8.927,8.927,0,0,0-.556,3.692c0,.024,0,.047.005.071a11.443,11.443,0,0,0,3.2,7.356C52.619,33.432,50.649,33.275,47.682,33.275Zm-5.06,8.118a1.245,1.245,0,0,0,1.238-1.112c.066,0,.13.005.2.007h.01A10.773,10.773,0,0,1,54.481,50.436c0,.037,0,.074.006.112.008.165.013.331.013.5V52.6c-5.675,0-6.882.251-8.484-.833a4.868,4.868,0,0,1-2.149-4.037,1.245,1.245,0,0,0-2.49,0A4.862,4.862,0,0,1,39.6,51.489q-.09.074-.184.145-.188.14-.389.263a4.84,4.84,0,0,1-2.523.706H30.744V51.045a10.779,10.779,0,0,1,10.64-10.764,1.245,1.245,0,0,0,1.238,1.112Zm-6.186-2.6c0-2.584.005-2.819-.019-3.313a3.508,3.508,0,0,1,2.215,2.622,13.55,13.55,0,0,0-2.2.691ZM16.474,16.191H27.758A6.179,6.179,0,0,1,33.5,20.045a1.245,1.245,0,0,0,.743.7A4.539,4.539,0,0,1,37.368,25.4l-.682,7.379c-18.219,0-18.3.181-20.211-.319a9.456,9.456,0,0,1-5.82-4.492h0a9.5,9.5,0,0,1-1.166-3.474v-.007a7.106,7.106,0,0,1,6.987-8.291ZM6.966,22.284a11.925,11.925,0,0,0,1.169,6.245A15.119,15.119,0,0,0,6.61,32.057L6,25.421a4.352,4.352,0,0,1,.969-3.137ZM3.756,38.76a3.5,3.5,0,0,1,2.287-3.278c-.026.507-.006,6.432,0,6.558A3.5,3.5,0,0,1,3.756,38.76Zm4.757,2.521V36.239a12.762,12.762,0,0,1,1.171-5.312,11.908,11.908,0,0,0,5.891,3.862l.085.024c2.159.6,2.05.452,18.247.452.05.648.038.569.038,4.895a13.18,13.18,0,0,0-5.692,10.885v.786a12.61,12.61,0,0,1-4.223,1.784l-.155.031a12.911,12.911,0,0,1-2.737.26A12.642,12.642,0,0,1,8.514,41.281Zm9.6,14.811a15.189,15.189,0,0,0,2.529.3,15.4,15.4,0,0,0,5.155-.663v.715l-4.544,3.048-4.545-3.048v-.7c.451.139.909.253,1.37.348l.035.007ZM29.9,82.51H25.815L23.286,69.555a1.245,1.245,0,0,0-.326-.626L17.38,63.148l4.111,1.022a1.244,1.244,0,0,0,1.5-1.545c-.005-.018-.008-.037-.014-.055l1.733,2.86c.015.024.031.048.047.072a2.06,2.06,0,0,1,.272.536l5.48,16.473h-.6Zm29.03,0H54.24l5.48-16.472c.08-.24-.083.055,2.052-3.468a1.246,1.246,0,0,0,1.482,1.6l4.111-1.022-5.579,5.781a1.245,1.245,0,0,0-.326.626Zm4.01-7.545.892-4.572,6.541-6.778a1.974,1.974,0,0,0,.484-1.909c-.007-.024-.012-.048-.019-.071a2.024,2.024,0,0,0-.589-.9c.07-.239.155-.628.182-.781H74.87V74.965H62.941Zm17.978,0H77.36V60.1a4.727,4.727,0,0,1,3.559,4.574Z"/>
        <path id="Trazado_800564" data-name="Trazado 800564" d="M42.655,66.593a3.862,3.862,0,0,0,3.8-3.91,1.245,1.245,0,1,0-2.49,0,1.316,1.316,0,1,1-2.624,0,1.245,1.245,0,1,0-2.49,0A3.862,3.862,0,0,0,42.655,66.593Z"/>
        <path id="Trazado_800565" data-name="Trazado 800565" d="M47.573,60.426a1.245,1.245,0,0,0,1.245-1.245V58.82a1.245,1.245,0,0,0-.423-2.417h-.822a1.245,1.245,0,0,0-1.245,1.245v1.532a1.245,1.245,0,0,0,1.245,1.245Z"/>
        <path id="Trazado_800566" data-name="Trazado 800566" d="M35.669,57.649a1.246,1.246,0,0,0,.822,1.171v.361a1.245,1.245,0,1,0,2.49,0V57.649A1.245,1.245,0,0,0,37.736,56.4h-.822a1.245,1.245,0,0,0-1.245,1.245Z"/>
      </g>
    </g>
  </g>
</svg>
