<svg xmlns="http://www.w3.org/2000/svg" xmlns:xlink="http://www.w3.org/1999/xlink" width="85" height="85" viewBox="0 0 85 85">
  <defs>
    <clipPath id="clip-path">
      <rect id="comunidad" width="85" height="85" transform="translate(653 3299)" fill="#ff8182"/>
    </clipPath>
  </defs>
  <g id="Enmascarar_grupo_1059076" data-name="Enmascarar grupo 1059076" transform="translate(-653 -3299)" clip-path="url(#clip-path)">
    <g id="comunidad-2" data-name="comunidad" transform="translate(653 3299)">
      <g id="Grupo_1065309" data-name="Grupo 1065309">
        <path id="Trazado_800567" data-name="Trazado 800567" d="M41.134,77.357h-35a1.366,1.366,0,0,1-1.366-1.366V64.536a5.465,5.465,0,0,1,5.465-5.465h6.442l7.358,1.66,6.564-1.66h6.442A5.465,5.465,0,0,1,42.5,64.536V75.991a1.366,1.366,0,0,1-1.366,1.366Z" fill="#b5adb6"/>
        <path id="Trazado_800568" data-name="Trazado 800568" d="M12.44,42.8V32.813a6.037,6.037,0,0,1,6.037-6.037h8.488A5.634,5.634,0,0,1,32.6,32.41h.3c1.063.009,1.618.873,1.618,1.938V42.8Z" fill="#ffd064"/>
        <path id="Trazado_800569" data-name="Trazado 800569" d="M14.6,41.852h-.823a3.074,3.074,0,0,0,0,6.149H14.6Z" fill="#ffbd86"/>
        <path id="Trazado_800570" data-name="Trazado 800570" d="M28.241,59.071V50.382H19.023v8.689H16.671v1.295a6.961,6.961,0,0,0,13.922,0V59.071Z" fill="#ffbd86"/>
        <path id="Trazado_800571" data-name="Trazado 800571" d="M23.632,57.481a9.26,9.26,0,0,1-9.2-9.319V41.71a9.2,9.2,0,1,1,18.4,0v6.452a9.26,9.26,0,0,1-9.2,9.319Z" fill="#fed2a4"/>
        <path id="Trazado_800572" data-name="Trazado 800572" d="M23.632,32.391a9.158,9.158,0,0,0-1.366.1A9.284,9.284,0,0,1,30.1,41.71v6.452a9.284,9.284,0,0,1-7.833,9.216,9.157,9.157,0,0,0,1.366.1,9.26,9.26,0,0,0,9.2-9.319V41.71a9.26,9.26,0,0,0-9.2-9.319Z" fill="#ffbd86"/>
        <path id="Trazado_800573" data-name="Trazado 800573" d="M13.518,35.66s17.495,6.43,17.495,0c0,0-7.376-9.835-17.495,0Z" fill="#ffd064"/>
        <path id="Trazado_800574" data-name="Trazado 800574" d="M32.9,32.41a5.634,5.634,0,0,0-5.634-5.634H24.485a5.634,5.634,0,0,1,5.634,5.634,1.938,1.938,0,0,1,1.922,1.938V42.8h2.783V34.348A1.938,1.938,0,0,0,32.9,32.41Z" fill="#ffc250"/>
        <path id="Trazado_800575" data-name="Trazado 800575" d="M37.035,59.071H33.893a5.465,5.465,0,0,1,5.465,5.465V75.991a1.366,1.366,0,0,1-1.366,1.366h3.142A1.366,1.366,0,0,0,42.5,75.991V64.536A5.465,5.465,0,0,0,37.035,59.071Z" fill="#a79ba7"/>
        <path id="Trazado_800576" data-name="Trazado 800576" d="M77.21,77.357H43.866A1.366,1.366,0,0,1,42.5,75.991V64.536a5.465,5.465,0,0,1,5.465-5.465h6.442l6.961,1.66,6.961-1.66h4.782a5.465,5.465,0,0,1,5.465,5.465V75.991a1.366,1.366,0,0,1-1.366,1.366Z" fill="#b5adb6"/>
        <path id="Trazado_800577" data-name="Trazado 800577" d="M50.177,42.8V32.813a6.036,6.036,0,0,1,6.037-6.037H64.7a5.634,5.634,0,0,1,5.634,5.634h.3c1.063.009,1.618.873,1.618,1.938V42.8Z" fill="#ffd064"/>
        <path id="Trazado_800578" data-name="Trazado 800578" d="M70.638,32.41A5.634,5.634,0,0,0,65,26.776H62.222a5.634,5.634,0,0,1,5.634,5.634,1.938,1.938,0,0,1,1.922,1.938V42.8H72.56V34.348A1.938,1.938,0,0,0,70.638,32.41Z" fill="#ffc250"/>
        <path id="Trazado_800579" data-name="Trazado 800579" d="M71.225,41.852H70.4V48h.823a3.074,3.074,0,0,0,0-6.149Z" fill="#ffbd86"/>
        <path id="Trazado_800580" data-name="Trazado 800580" d="M74.772,59.071H71.629a5.465,5.465,0,0,1,5.465,5.465V75.991a1.366,1.366,0,0,1-1.366,1.366H78.87a1.366,1.366,0,0,0,1.366-1.366V64.536A5.465,5.465,0,0,0,74.772,59.071Z" fill="#a79ba7"/>
        <path id="Trazado_800581" data-name="Trazado 800581" d="M65.977,59.071V50.382H56.759v8.689H54.407v1.295a6.961,6.961,0,0,0,13.922,0V59.071Z" fill="#ffbd86"/>
        <path id="Trazado_800582" data-name="Trazado 800582" d="M61.368,57.481a9.26,9.26,0,0,1-9.2-9.319V41.71a9.26,9.26,0,0,1,9.2-9.319A9.121,9.121,0,0,1,70.4,41.71v6.452A9.121,9.121,0,0,1,61.368,57.481Z" fill="#fed2a4"/>
        <path id="Trazado_800583" data-name="Trazado 800583" d="M61.368,32.391a9.158,9.158,0,0,0-1.366.1,9.284,9.284,0,0,1,7.833,9.216v6.452A9.284,9.284,0,0,1,60,57.378a9.157,9.157,0,0,0,1.366.1,9.26,9.26,0,0,0,9.2-9.319V41.71a9.26,9.26,0,0,0-9.2-9.319Z" fill="#ffbd86"/>
        <path id="Trazado_800584" data-name="Trazado 800584" d="M51.406,35.66s17.495,6.43,17.495,0c0,0-7.376-9.835-17.495,0Z" fill="#ffd064"/>
        <circle id="Elipse_4786" data-name="Elipse 4786" cx="3.506" cy="3.506" r="3.506" transform="translate(38.994 1.245)" fill="#80b4fb"/>
        <circle id="Elipse_4787" data-name="Elipse 4787" cx="3.507" cy="3.507" r="3.507" transform="translate(10.514 19.51) rotate(-75.408)" fill="#fe646f"/>
        <circle id="Elipse_4788" data-name="Elipse 4788" cx="3.507" cy="3.507" r="3.507" transform="translate(65.952 14.506) rotate(-14.828)" fill="#ffd064"/>
        <path id="Trazado_800585" data-name="Trazado 800585" d="M52.169,41.852h-.657a3.074,3.074,0,0,0,0,6.149h.657Z" fill="#ffbd86"/>
        <path id="Trazado_800586" data-name="Trazado 800586" d="M33.488,41.852h-.657V48h.657a3.074,3.074,0,0,0,0-6.149Z" fill="#ffbd86"/>
        <path id="Trazado_800587" data-name="Trazado 800587" d="M60.293,83.755H23.047a1.518,1.518,0,0,1-1.519-1.519V69.5A6.074,6.074,0,0,1,27.6,63.43h7.212L42.5,65.09l7.685-1.66h5.552A6.074,6.074,0,0,1,61.812,69.5V82.236a1.518,1.518,0,0,1-1.519,1.519Z" fill="#f9f6f6"/>
        <path id="Trazado_800588" data-name="Trazado 800588" d="M57.4,63.43H53.9A6.074,6.074,0,0,1,59.979,69.5V82.236a1.518,1.518,0,0,1-1.519,1.519h3.493a1.518,1.518,0,0,0,1.519-1.519V69.5A6.074,6.074,0,0,0,57.4,63.43Z" fill="#dddaec"/>
        <path id="Trazado_800589" data-name="Trazado 800589" d="M47.589,63.43v-9.9H37.411v9.9h-2.6v1.123a7.685,7.685,0,1,0,15.37,0V63.43Z" fill="#ffbd86"/>
        <path id="Trazado_800590" data-name="Trazado 800590" d="M29.064,47.052V35.062a7.247,7.247,0,0,1,7.247-7.247H46.562a6.764,6.764,0,0,1,6.764,6.764h.3a2.086,2.086,0,0,1,2,2.326V47.052Z" fill="#ffd064"/>
        <path id="Trazado_800591" data-name="Trazado 800591" d="M53.629,34.579a6.764,6.764,0,0,0-6.764-6.764H43.525a6.764,6.764,0,0,1,6.764,6.764A2.327,2.327,0,0,1,52.6,36.905V47.052h3.341V36.905A2.327,2.327,0,0,0,53.629,34.579Z" fill="#ffc250"/>
        <path id="Trazado_800592" data-name="Trazado 800592" d="M32.607,44.292H31.545a3.417,3.417,0,0,0,0,6.834h1.062Z" fill="#ffbd86"/>
        <path id="Trazado_800593" data-name="Trazado 800593" d="M53.455,44.292H52.393v6.834h1.062a3.417,3.417,0,0,0,0-6.834Z" fill="#ffbd86"/>
        <path id="Trazado_800594" data-name="Trazado 800594" d="M42.5,61.663A10.292,10.292,0,0,1,32.275,51.305V44.134A10.292,10.292,0,0,1,42.5,33.776c5.647,0,8.565,4.637,8.565,10.358v7.171c0,5.721-2.918,10.358-8.565,10.358Z" fill="#fed2a4"/>
        <path id="Trazado_800595" data-name="Trazado 800595" d="M42.5,33.776a10.18,10.18,0,0,0-1.519.114,10.319,10.319,0,0,1,8.707,10.244v7.171a10.319,10.319,0,0,1-8.707,10.244,10.179,10.179,0,0,0,1.519.114A10.292,10.292,0,0,0,52.726,51.305V44.134A10.292,10.292,0,0,0,42.5,33.776Z" fill="#ffbd86"/>
        <path id="Trazado_800596" data-name="Trazado 800596" d="M33.371,37.136s17.867,6.567,17.867,0C51.237,37.136,43.7,27.092,33.371,37.136Z" fill="#ffd064"/>
      </g>
      <path id="Trazado_800597" data-name="Trazado 800597" d="M9.49,57.867a36.443,36.443,0,0,1,3.383-36.523,4.748,4.748,0,0,0,6.085-6.612,36.511,36.511,0,0,1,6.5-4.407,1.245,1.245,0,0,0-1.168-2.2,39,39,0,0,0-7.049,4.8c-.027-.016-.053-.033-.08-.049a4.75,4.75,0,0,0-6.225,6.9A38.931,38.931,0,0,0,7.09,58.607a6.715,6.715,0,0,0-3.572,5.928v2.609a1.245,1.245,0,0,0,2.49,0V64.536a4.225,4.225,0,0,1,4.22-4.22h5.2v.05a8.174,8.174,0,0,0,5.029,7.569,7.317,7.317,0,0,0-.171,1.57v6.607H6.13a.121.121,0,0,1-.121-.121v-3.42a1.245,1.245,0,1,0-2.49,0v3.42A2.614,2.614,0,0,0,6.13,78.6H20.283v3.634A2.767,2.767,0,0,0,23.047,85H61.954a2.767,2.767,0,0,0,2.764-2.764V78.6H78.871a2.614,2.614,0,0,0,2.611-2.611V64.536a6.715,6.715,0,0,0-3.572-5.928,38.931,38.931,0,0,0-3.842-38.83,4.75,4.75,0,0,0-6.225-6.9l-.079.048A38.479,38.479,0,0,0,47.171,3.885a4.75,4.75,0,0,0-9.342,0A38.73,38.73,0,0,0,29.61,5.793a1.245,1.245,0,1,0,.825,2.349,36.239,36.239,0,0,1,7.6-1.775,4.751,4.751,0,0,0,8.935,0,36.005,36.005,0,0,1,19.074,8.364,4.748,4.748,0,0,0,6.086,6.611A36.442,36.442,0,0,1,75.51,57.867l-8.288-.042v-.919a10.592,10.592,0,0,0,4.539-7.694,4.317,4.317,0,0,0,2.044-7.747V34.348a3.194,3.194,0,0,0-2-2.952A6.882,6.882,0,0,0,65,25.531H56.213a7.282,7.282,0,0,0-5.207,2.195,7.959,7.959,0,0,0-4.14-1.156H45.473a1.245,1.245,0,0,0,0,2.49h1.392a5.525,5.525,0,0,1,5.519,5.519,1.245,1.245,0,0,0,1.235,1.245A1.085,1.085,0,0,1,54.691,36.9v6.31a4.628,4.628,0,0,0-.77-.144,11.614,11.614,0,0,0-1.906-5.419,1.243,1.243,0,0,0-2.168.175l-.01.016c-.791,1.409-5.773,1.552-14.846-1.465a1.258,1.258,0,0,0-1.36.4,11.7,11.7,0,0,0-2.552,6.3,4.615,4.615,0,0,0-.77.144V35.062a6.009,6.009,0,0,1,6-6h3.736a1.245,1.245,0,1,0,0-2.49H36.311a8.439,8.439,0,0,0-4.1,1.058,6.871,6.871,0,0,0-4.943-2.1H18.477a7.29,7.29,0,0,0-7.282,7.282v8.652a4.317,4.317,0,0,0,2.044,7.747,10.592,10.592,0,0,0,4.539,7.694v.919ZM42.5,7.012a2.261,2.261,0,1,1,2.261-2.261A2.264,2.264,0,0,1,42.5,7.012ZM68.259,18.126a2.261,2.261,0,1,1,3.088.829,2.264,2.264,0,0,1-3.088-.829Zm-55.435-2.26A2.247,2.247,0,0,1,14.2,14.812a2.275,2.275,0,0,1,.59-.078,2.263,2.263,0,1,1-1.962,1.132Zm53.153,44.45h1.107v.05A5.694,5.694,0,0,1,63.6,65.63,7.32,7.32,0,0,0,57.4,62.185H55.95a5.681,5.681,0,0,1-.3-1.82v-.05h1.107A1.245,1.245,0,0,0,58,59.071v-.913a10.261,10.261,0,0,0,6.728,0v.91A1.245,1.245,0,0,0,65.977,60.316ZM48.834,62.185V60.973q.457-.307.882-.657h3.446v.05a8.221,8.221,0,0,0,.2,1.82Zm-17.2,0a8.22,8.22,0,0,0,.2-1.82v-.05h3.446q.425.349.882.657v1.212Zm-2.149-4.359V56.9a10.563,10.563,0,0,0,2.132-1.935,11.621,11.621,0,0,0,1.4,2.86Zm7.925,6.85a1.245,1.245,0,0,0,1.245-1.245V62.236a11.325,11.325,0,0,0,7.687,0V63.43a1.245,1.245,0,0,0,1.245,1.245h1.35a6.44,6.44,0,0,1-12.878,0ZM55.628,47.709a2.176,2.176,0,0,1-1.657,2.11V45.6A2.176,2.176,0,0,1,55.628,47.709ZM51.983,57.826a11.625,11.625,0,0,0,1.4-2.86A10.561,10.561,0,0,0,55.514,56.9v.925H51.983Zm17.341-9.664A7.933,7.933,0,0,1,54.509,52.25a4.658,4.658,0,0,0,2.672-7.34V38.7a30.851,30.851,0,0,0,7.151,1.057,7.807,7.807,0,0,0,4.039-.87,4,4,0,0,0,.358-.247,8.148,8.148,0,0,1,.594,3.07v6.452Zm2.49-1.5V43.195a1.83,1.83,0,0,1,0,3.465Zm-18.9-17.321a4.792,4.792,0,0,1,3.3-1.317H65a4.389,4.389,0,0,1,4.389,4.389,1.245,1.245,0,0,0,1.234,1.245.7.7,0,0,1,.687.693v4.125a10.561,10.561,0,0,0-1.454-2.915,1.244,1.244,0,0,0-1.68-.331,1.214,1.214,0,0,0-.249.206,1.237,1.237,0,0,0-.31.593,1.072,1.072,0,0,1-.545.734c-.69.42-3.023,1.165-9.987-.653a3.6,3.6,0,0,0-2.282-2.566A7.98,7.98,0,0,0,52.917,29.339ZM46.606,41.3a7.832,7.832,0,0,0,4.09-.893,9.2,9.2,0,0,1,.784,3.727v7.171a8.981,8.981,0,1,1-17.961,0V44.134a9.229,9.229,0,0,1,1.547-5.112,56.132,56.132,0,0,0,8.139,1.991,22.975,22.975,0,0,0,3.4.287ZM31.03,49.82a2.172,2.172,0,0,1,0-4.221Zm-12.553-21.8h8.791a4.384,4.384,0,0,1,2.947,1.137,8.461,8.461,0,0,0-2.4,5.9v2.125c-2.331.34-6.407-.325-11.44-1.886a1.245,1.245,0,0,0-1.4.5l-.007.01a10.562,10.562,0,0,0-1.282,2.674V32.813a4.8,4.8,0,0,1,4.791-4.791ZM11.946,44.927a1.832,1.832,0,0,1,1.241-1.732v3.465A1.833,1.833,0,0,1,11.946,44.927Zm3.731,3.235V41.71a8.135,8.135,0,0,1,.906-3.747,37.956,37.956,0,0,0,9.884,1.8,12.8,12.8,0,0,0,1.351-.068V44.91a4.658,4.658,0,0,0,2.672,7.34,7.934,7.934,0,0,1-14.814-4.088Zm2.239,12.2v-.05h1.107a1.245,1.245,0,0,0,1.245-1.245v-.91a10.262,10.262,0,0,0,6.728,0v.913a1.245,1.245,0,0,0,1.245,1.245h1.107v.05a5.681,5.681,0,0,1-.3,1.82H27.6A7.319,7.319,0,0,0,21.4,65.63,5.694,5.694,0,0,1,17.916,60.366ZM57.4,64.675A4.835,4.835,0,0,1,62.227,69.5V82.236a.274.274,0,0,1-.273.273H23.047a.274.274,0,0,1-.274-.273V69.5A4.835,4.835,0,0,1,27.6,64.675h5.97a8.928,8.928,0,0,0,17.855,0ZM78.992,75.991a.121.121,0,0,1-.121.121H64.717V69.5a7.315,7.315,0,0,0-.171-1.57,8.174,8.174,0,0,0,5.029-7.569v-.05h5.2a4.225,4.225,0,0,1,4.22,4.22V75.991Z"/>
    </g>
  </g>
</svg>
