<svg xmlns="http://www.w3.org/2000/svg" xmlns:xlink="http://www.w3.org/1999/xlink" width="1240" height="377.667" viewBox="0 0 1240 377.667">
  <defs>
    <clipPath id="clip-path">
      <path id="Trazado_798179" data-name="Trazado 798179" d="M10,0H1230c5.523,0,10,3.07,10,6.858V370.309c0,3.787-4.477,6.858-10,6.858H10c-5.523,0-10-3.07-10-6.858V6.858C0,3.07,4.477,0,10,0Z" transform="translate(180 2883.262)" fill="#8edee0" opacity="0.2"/>
    </clipPath>
    <clipPath id="clip-path-2">
      <rect id="Rectángulo_373808" data-name="Rectángulo 373808" width="496.654" height="236.318" fill="#8edee0"/>
    </clipPath>
  </defs>
  <g id="Grupo_1065247" data-name="Grupo 1065247" transform="translate(-180 -1402)">
    <path id="Trazado_782233" data-name="Trazado 782233" d="M10,0H1230c5.523,0,10,3.063,10,6.841V369.4c0,3.778-4.477,6.841-10,6.841H10c-5.523,0-10-3.063-10-6.841V6.841C0,3.063,4.477,0,10,0Z" transform="translate(180 1402)" fill="#ff8182" opacity="0.2"/>
    <g id="Enmascarar_grupo_1059040" data-name="Enmascarar grupo 1059040" transform="translate(0 -1480.762)" opacity="0.25" clip-path="url(#clip-path)">
      <g id="Grupo_1064728" data-name="Grupo 1064728" transform="translate(-131.025 2802.402)">
        <path id="Trazado_798172" data-name="Trazado 798172" d="M605.453,72.832A145.178,145.178,0,0,1,729.39,222.28c-1.486,37.087-16.978,71.915-28.927,107.056S680.032,403.3,692.518,438.25c15.4,43.12,58.164,69.241,97.959,91.889s82.585,48.672,98.139,91.738c16.3,45.149-6.95,100.875-50.511,121.04-2-.474-2.821-1.652-4.877-1.652H3.6L0,52.97c139.211,0,466.313,24.311,605.453,19.862" transform="translate(87.333 -33.917)" fill="#ffd4d4"/>
        <path id="Trazado_798173" data-name="Trazado 798173" d="M397.321,66a95.271,95.271,0,0,1,81.332,98.073c-.975,24.338-11.142,47.193-18.983,70.254s-13.408,48.536-5.214,71.473c10.109,28.3,38.169,45.439,64.284,60.3s54.2,31.94,64.4,60.2c10.7,29.628-4.561,66.2-33.147,79.431-1.313-.311-1.851-1.084-3.2-1.084H2.364L0,52.97C91.355,52.97,306.012,68.924,397.321,66" transform="matrix(0.799, -0.602, 0.602, 0.799, -146.793, 460.08)" fill="#fff9f9"/>
        <path id="Trazado_798174" data-name="Trazado 798174" d="M1008.037,0C988,13.813,983.741,43.287,992.958,65.808s28.836,39.094,49.3,52.262,42.6,23.979,61.115,39.773,33.464,38.08,33.095,62.411c-.512,33.725-29.742,63.116-26.249,96.662,2.4,23.042,20.563,42.171,41.745,51.552s45.029,10.559,68.19,10.039c0-.307-.056-1.028-.056-1.335V2.444C1151.352,2.449,1076.783-.005,1008.037,0" transform="translate(413.333 36.249)" fill="#ffc2c3"/>
        <g id="Grupo_1064727" data-name="Grupo 1064727" transform="matrix(-0.966, -0.259, 0.259, -0.966, 439.861, 230.381)">
          <g id="Grupo_1064726" data-name="Grupo 1064726" clip-path="url(#clip-path-2)">
            <path id="Trazado_798175" data-name="Trazado 798175" d="M4.066,151.113c3.82-8.561,11.88-15.837,21.251-16.1C37.67,134.673,48.045,146.03,60.4,145.76c9.125-.2,16.962-6.848,21.972-14.479s7.975-16.415,12.508-24.338c13.417-23.454,41.391-37.7,68.25-34.753,15.124,1.659,30.006,8.247,45.025,5.813,14.234-2.305,25.97-12.393,35.295-23.393s17.152-23.38,27.925-32.965C291.3,3.918,320.856-2.235,346.2,6.069c9.774,3.2,18.826,8.343,28.612,11.506s20.973,4.153,29.979-.813c5.634-3.107,9.946-8.285,15.7-11.168,11.6-5.812,25.355-.992,37.932,2.181S487.042,11.038,493.854,0l2.8,72.373s-3.707-3.59-21.948,0-42.38-24.024-56-28.565-18.163,12.109-38.6,28.565-41.625-21.754-62.058-28.565S283.233,61.971,259.4,96.785s-64.989,21.252-64.989,21.252c-21,4.185-38.309,22.789-40.969,44.039-1.525,12.182.125,27.23-10.137,33.967-6.773,4.447-15.629,2.793-23.732,2.748-35.034-.195-62.609,31.941-97.259,37.132-4.411.661-9.286.762-12.908-1.84-4.224-3.035-5.411-8.71-6.15-13.858A321.937,321.937,0,0,1,.019,178.713c-.122-9.374.227-19.039,4.047-27.6" transform="translate(0)" fill="#8edee0"/>
          </g>
        </g>
        <path id="Trazado_798177" data-name="Trazado 798177" d="M136.483,1.419a6.807,6.807,0,0,0-1.769,8.338,6.958,6.958,0,0,0,3.88,3.472,5.779,5.779,0,0,1,2.963,2.387l.006,0-10.914,6.763,6.758,10.906a5.756,5.756,0,0,0,2.387-2.963,6.966,6.966,0,0,1,3.472-3.877,6.68,6.68,0,0,1,6.459,11.691,6.926,6.926,0,0,1-4.5,1,5.676,5.676,0,0,0-3.679.822L148.3,50.864l28.491-17.654L170.034,22.3a5.679,5.679,0,0,1,3.675-.823,6.93,6.93,0,0,0,4.507-1,6.757,6.757,0,0,0,1.878-9.926,6.806,6.806,0,0,0-8.338-1.769,6.955,6.955,0,0,0-3.471,3.88,5.778,5.778,0,0,1-2.386,2.962L159.14,4.721l-10.915,6.763.006-.006a5.68,5.68,0,0,1-.823-3.676,6.93,6.93,0,0,0-1-4.506,6.758,6.758,0,0,0-9.926-1.878" transform="translate(1315.376 389.425)" fill="#ff8182"/>
        <path id="Trazado_798178" data-name="Trazado 798178" d="M136.483,1.419a6.807,6.807,0,0,0-1.769,8.338,6.958,6.958,0,0,0,3.88,3.472,5.779,5.779,0,0,1,2.963,2.387l.006,0-10.914,6.763,6.758,10.906a5.756,5.756,0,0,0,2.387-2.963,6.966,6.966,0,0,1,3.472-3.877,6.68,6.68,0,0,1,6.459,11.691,6.926,6.926,0,0,1-4.5,1,5.676,5.676,0,0,0-3.679.822L148.3,50.864l28.491-17.654L170.034,22.3a5.679,5.679,0,0,1,3.675-.823,6.93,6.93,0,0,0,4.507-1,6.757,6.757,0,0,0,1.878-9.926,6.806,6.806,0,0,0-8.338-1.769,6.955,6.955,0,0,0-3.471,3.88,5.778,5.778,0,0,1-2.386,2.962L159.14,4.721l-10.915,6.763.006-.006a5.68,5.68,0,0,1-.823-3.676,6.93,6.93,0,0,0-1-4.506,6.758,6.758,0,0,0-9.926-1.878" transform="translate(214.513 373.636)" fill="#ff8182"/>
        <path id="Trazado_798176" data-name="Trazado 798176" d="M15.579,281.266a5.6,5.6,0,0,0,6.367-2.929,5.715,5.715,0,0,0,.384-4.264,4.747,4.747,0,0,1,.119-3.126l0,0,9.821,3.875L36.137,265a4.729,4.729,0,0,0-3.126-.118,5.734,5.734,0,0,1-4.262-.385,5.493,5.493,0,0,1,4.538-10,5.7,5.7,0,0,1,2.871,2.479A4.668,4.668,0,0,0,38.507,259l3.873-9.816L16.742,239.066l-3.873,9.815a4.664,4.664,0,0,1-2.348-2.02,5.7,5.7,0,0,0-2.873-2.481A5.557,5.557,0,0,0,.18,248.018a5.6,5.6,0,0,0,2.929,6.368,5.725,5.725,0,0,0,4.265.384,4.746,4.746,0,0,1,3.125.118L6.627,264.7l9.823,3.875h-.007a4.674,4.674,0,0,1-2.019,2.349,5.7,5.7,0,0,0-2.482,2.872,5.557,5.557,0,0,0,3.637,7.468" transform="translate(557.558 343.17) rotate(150)" fill="#006a76"/>
      </g>
    </g>
  </g>
</svg>
