<svg xmlns="http://www.w3.org/2000/svg" xmlns:xlink="http://www.w3.org/1999/xlink" width="56" height="56" viewBox="0 0 56 56">
  <defs>
    <clipPath id="clip-path">
      <rect id="alucinogeno" width="56" height="56" transform="translate(1142 1585)" fill="#ffad01"/>
    </clipPath>
  </defs>
  <g id="Enmascarar_grupo_1059083" data-name="Enmascarar grupo 1059083" transform="translate(-1142 -1585)" clip-path="url(#clip-path)">
    <g id="Layer_4" transform="translate(1142.789 1585)">
      <g id="Grupo_1065470" data-name="Grupo 1065470">
        <g id="Grupo_1065392" data-name="Grupo 1065392">
          <g id="Grupo_1065391" data-name="Grupo 1065391">
            <circle id="Elipse_4802" data-name="Elipse 4802" cx="3.175" cy="3.175" r="3.175" transform="translate(8.171 28.238)" fill="#70d6f9"/>
          </g>
        </g>
        <g id="Grupo_1065394" data-name="Grupo 1065394">
          <g id="Grupo_1065393" data-name="Grupo 1065393">
            <path id="Trazado_800767" data-name="Trazado 800767" d="M36.516,14.738a.463.463,0,0,0-.446-.454,9,9,0,0,1-6.209-2.241.465.465,0,0,0-.692.044c-3.157,3.97-7.814,3.41-9.38,3.082a.461.461,0,0,0-.558.446v6.959a8.643,8.643,0,0,0,17.286,0v-7.7q0-.068,0-.135Z" fill="#f9c1a8"/>
          </g>
        </g>
        <g id="Grupo_1065396" data-name="Grupo 1065396">
          <g id="Grupo_1065395" data-name="Grupo 1065395">
            <path id="Trazado_800768" data-name="Trazado 800768" d="M34.638,5.57a4.889,4.889,0,0,0-2.522.7,4.943,4.943,0,0,0-4.234-2.417H25.347a8.948,8.948,0,0,0-8.921,8.921v4a3.585,3.585,0,0,1,2.806-.747v-.415a.461.461,0,0,1,.558-.446c1.566.328,6.223.888,9.38-3.082a.465.465,0,0,1,.692-.044,9,9,0,0,0,6.209,2.241.463.463,0,0,1,.446.454c0,.045,0,.09,0,.135v1.156A3.586,3.586,0,0,1,39.575,17V10.507A4.952,4.952,0,0,0,34.638,5.57Z" fill="#414344"/>
          </g>
        </g>
        <g id="Grupo_1065398" data-name="Grupo 1065398">
          <g id="Grupo_1065397" data-name="Grupo 1065397">
            <path id="Trazado_800769" data-name="Trazado 800769" d="M37.072,15.985a3.62,3.62,0,0,0-.555.044v6.543c0,.195-.009.388-.022.58a3.607,3.607,0,1,0,.576-7.167Z" fill="#f9c1a8"/>
          </g>
        </g>
        <g id="Grupo_1065400" data-name="Grupo 1065400">
          <g id="Grupo_1065399" data-name="Grupo 1065399">
            <path id="Trazado_800770" data-name="Trazado 800770" d="M19.231,22.572V16.029a3.61,3.61,0,1,0,.022,7.123h0C19.24,22.96,19.231,22.767,19.231,22.572Z" fill="#f9c1a8"/>
          </g>
        </g>
        <g id="Grupo_1065402" data-name="Grupo 1065402">
          <g id="Grupo_1065401" data-name="Grupo 1065401">
            <path id="Trazado_800771" data-name="Trazado 800771" d="M15.162,26.419l-3.668-3.668a2.07,2.07,0,1,0-2.927,2.927l2.569,2.569a3.163,3.163,0,0,1,3,1.656,2.068,2.068,0,0,0,1.024-3.484Z" fill="#fc657e"/>
          </g>
        </g>
        <g id="Grupo_1065404" data-name="Grupo 1065404">
          <g id="Grupo_1065403" data-name="Grupo 1065403">
            <path id="Trazado_800772" data-name="Trazado 800772" d="M13.591,29.168,9.1,33.658a3.175,3.175,0,0,0,4.49-4.49Z" fill="#fc657e"/>
          </g>
        </g>
        <g id="Grupo_1065406" data-name="Grupo 1065406">
          <g id="Grupo_1065405" data-name="Grupo 1065405">
            <path id="Trazado_800773" data-name="Trazado 800773" d="M15.162,26.419l-1.834-1.834L10.4,27.512l.736.736a3.163,3.163,0,0,1,3,1.656,2.068,2.068,0,0,0,1.024-3.484Z" fill="#70d6f9"/>
          </g>
        </g>
        <g id="Grupo_1065408" data-name="Grupo 1065408">
          <g id="Grupo_1065407" data-name="Grupo 1065407">
            <path id="Trazado_800774" data-name="Trazado 800774" d="M45.305,40.3a3.411,3.411,0,0,0-2.573-3.118l-6.712-1.69-2.372-1.17a2.986,2.986,0,0,1-1.665-2.678V30.17a8.583,8.583,0,0,1-7.964.129v1.342a2.986,2.986,0,0,1-1.665,2.678l-2.372,1.17-6.712,1.69A3.411,3.411,0,0,0,10.7,40.3L9.74,54.453a.948.948,0,0,0,.947,1H45.314a.948.948,0,0,0,.947-1Z" fill="#70d6f9"/>
          </g>
        </g>
        <g id="Grupo_1065410" data-name="Grupo 1065410">
          <g id="Grupo_1065409" data-name="Grupo 1065409">
            <path id="Trazado_800775" data-name="Trazado 800775" d="M33.647,34.319a2.986,2.986,0,0,1-1.665-2.678V30.17a8.583,8.583,0,0,1-7.964.129v1.342a2.986,2.986,0,0,1-1.665,2.678l-.373.184a6.757,6.757,0,0,0,12.04,0Z" fill="#f9c1a8"/>
          </g>
        </g>
        <g id="Grupo_1065412" data-name="Grupo 1065412">
          <g id="Grupo_1065411" data-name="Grupo 1065411">
            <path id="Trazado_800776" data-name="Trazado 800776" d="M36.281,45.4H34.6a.217.217,0,0,1-.2-.287l.967-2.836a.217.217,0,0,0-.2-.287H32.6a.217.217,0,0,0-.207.153L30.92,46.92a.217.217,0,0,0,.207.28H32.8a.217.217,0,0,1,.208.277l-.7,2.44a.416.416,0,0,0,.732.365l3.417-4.537a.217.217,0,0,0-.173-.347Z" fill="#f5c84c"/>
          </g>
        </g>
        <g id="Grupo_1065414" data-name="Grupo 1065414">
          <g id="Grupo_1065413" data-name="Grupo 1065413">
            <path id="Trazado_800777" data-name="Trazado 800777" d="M42.62,8.431a.547.547,0,1,0-1,.452,7.242,7.242,0,0,1,.506,4.436.547.547,0,1,0,1.072.214,8.325,8.325,0,0,0-.583-5.1Z"/>
          </g>
        </g>
        <g id="Grupo_1065416" data-name="Grupo 1065416">
          <g id="Grupo_1065415" data-name="Grupo 1065415">
            <path id="Trazado_800778" data-name="Trazado 800778" d="M44.637,6.453a.547.547,0,1,0-.953.537,9.983,9.983,0,0,1,1.1,6.858.547.547,0,1,0,1.072.215,11.08,11.08,0,0,0-1.215-7.61Z"/>
          </g>
        </g>
        <g id="Grupo_1065418" data-name="Grupo 1065418">
          <g id="Grupo_1065417" data-name="Grupo 1065417">
            <path id="Trazado_800779" data-name="Trazado 800779" d="M46.706,4.651a.547.547,0,0,0-.931.575,12.642,12.642,0,0,1,1.651,9.152.547.547,0,1,0,1.072.215,13.731,13.731,0,0,0-1.793-9.941Z"/>
          </g>
        </g>
        <g id="Grupo_1065420" data-name="Grupo 1065420">
          <g id="Grupo_1065419" data-name="Grupo 1065419">
            <path id="Trazado_800780" data-name="Trazado 800780" d="M14.1,8.159a.547.547,0,0,0-.724.272,8.327,8.327,0,0,0-.583,5.1.547.547,0,0,0,.535.44.553.553,0,0,0,.108-.011.547.547,0,0,0,.429-.643,7.244,7.244,0,0,1,.506-4.436.547.547,0,0,0-.272-.724Z"/>
          </g>
        </g>
        <g id="Grupo_1065422" data-name="Grupo 1065422">
          <g id="Grupo_1065421" data-name="Grupo 1065421">
            <path id="Trazado_800781" data-name="Trazado 800781" d="M12.108,6.245a.547.547,0,0,0-.745.208,11.078,11.078,0,0,0-1.215,7.61.547.547,0,1,0,1.072-.215,9.983,9.983,0,0,1,1.1-6.858A.547.547,0,0,0,12.108,6.245Z"/>
          </g>
        </g>
        <g id="Grupo_1065424" data-name="Grupo 1065424">
          <g id="Grupo_1065423" data-name="Grupo 1065423">
            <path id="Trazado_800782" data-name="Trazado 800782" d="M10.047,4.473a.547.547,0,0,0-.753.178A13.731,13.731,0,0,0,7.5,14.592a.547.547,0,1,0,1.072-.215,12.642,12.642,0,0,1,1.651-9.152A.547.547,0,0,0,10.047,4.473Z"/>
          </g>
        </g>
        <g id="Grupo_1065426" data-name="Grupo 1065426">
          <g id="Grupo_1065425" data-name="Grupo 1065425">
            <path id="Trazado_800783" data-name="Trazado 800783" d="M18.856,2.38A2.428,2.428,0,0,1,16.91.474a.044.044,0,0,0-.086,0A2.428,2.428,0,0,1,14.877,2.38a.043.043,0,0,0,0,.085,2.428,2.428,0,0,1,1.946,1.907.044.044,0,0,0,.086,0,2.428,2.428,0,0,1,1.946-1.907A.043.043,0,0,0,18.856,2.38Z" fill="#f5c84c"/>
          </g>
        </g>
        <g id="Grupo_1065428" data-name="Grupo 1065428">
          <g id="Grupo_1065427" data-name="Grupo 1065427">
            <path id="Trazado_800784" data-name="Trazado 800784" d="M8.288,43.739a1.593,1.593,0,0,1-1.277-1.251.029.029,0,0,0-.057,0,1.593,1.593,0,0,1-1.277,1.251.028.028,0,0,0,0,.056,1.593,1.593,0,0,1,1.277,1.251.029.029,0,0,0,.057,0,1.594,1.594,0,0,1,1.277-1.251A.028.028,0,0,0,8.288,43.739Z" fill="#87d147"/>
          </g>
        </g>
        <g id="Grupo_1065430" data-name="Grupo 1065430">
          <g id="Grupo_1065429" data-name="Grupo 1065429">
            <path id="Trazado_800785" data-name="Trazado 800785" d="M41.981,29.2h-.509v-.51a.691.691,0,0,0-1.381,0v.51h-.51a.691.691,0,1,0,0,1.381h.51v.51a.691.691,0,0,0,1.381,0v-.51h.509a.691.691,0,1,0,0-1.381Z" fill="#fc657e"/>
          </g>
        </g>
        <g id="Grupo_1065432" data-name="Grupo 1065432">
          <g id="Grupo_1065431" data-name="Grupo 1065431">
            <path id="Trazado_800786" data-name="Trazado 800786" d="M22.579,0a.739.739,0,1,0,.739.739A.739.739,0,0,0,22.579,0Z" fill="#70d6f9"/>
          </g>
        </g>
        <g id="Grupo_1065434" data-name="Grupo 1065434">
          <g id="Grupo_1065433" data-name="Grupo 1065433">
            <path id="Trazado_800787" data-name="Trazado 800787" d="M45.547,33.469a.739.739,0,1,0,.739.739A.739.739,0,0,0,45.547,33.469Z" fill="#f5c84c"/>
          </g>
        </g>
        <g id="Grupo_1065437" data-name="Grupo 1065437">
          <g id="Grupo_1065436" data-name="Grupo 1065436">
            <g id="Grupo_1065435" data-name="Grupo 1065435">
              <path id="Trazado_800788" data-name="Trazado 800788" d="M13.978,28.781a3.722,3.722,0,1,0,1.09,2.632A3.726,3.726,0,0,0,13.978,28.781Zm-.773,4.49a2.628,2.628,0,1,1,.77-1.858A2.611,2.611,0,0,1,13.2,33.271Z"/>
            </g>
          </g>
        </g>
        <g id="Grupo_1065440" data-name="Grupo 1065440">
          <g id="Grupo_1065439" data-name="Grupo 1065439">
            <g id="Grupo_1065438" data-name="Grupo 1065438">
              <path id="Trazado_800789" data-name="Trazado 800789" d="M37.063,14.727a1.008,1.008,0,0,0-.977-.99,8.5,8.5,0,0,1-5.843-2.085,1.012,1.012,0,0,0-1.5.094h0A8.757,8.757,0,0,1,19.9,14.633a1.008,1.008,0,0,0-1.217.987v6.953a9.19,9.19,0,1,0,18.38,0v-7.7c0-.049,0-.1,0-.146Zm-1.092,7.845a8.1,8.1,0,1,1-16.193,0V15.724c1.581.312,6.452.862,9.764-3.229a9.527,9.527,0,0,0,6.429,2.333c0,.015,0,.03,0,.046Z"/>
            </g>
          </g>
        </g>
        <g id="Grupo_1065442" data-name="Grupo 1065442">
          <g id="Grupo_1065441" data-name="Grupo 1065441">
            <path id="Trazado_800790" data-name="Trazado 800790" d="M34.638,5.023a5.436,5.436,0,0,0-2.343.534A5.514,5.514,0,0,0,27.882,3.31H25.347a9.479,9.479,0,0,0-9.468,9.468v3.86a.547.547,0,0,0,1.094,0v-3.86A8.384,8.384,0,0,1,25.347,4.4h2.535a4.42,4.42,0,0,1,3.765,2.151.547.547,0,0,0,.75.188,4.376,4.376,0,0,1,6.631,3.764v6.3a.547.547,0,1,0,1.094,0v-6.3a5.49,5.49,0,0,0-5.484-5.484Z"/>
          </g>
        </g>
        <g id="Grupo_1065444" data-name="Grupo 1065444">
          <g id="Grupo_1065443" data-name="Grupo 1065443">
            <path id="Trazado_800791" data-name="Trazado 800791" d="M39.971,43.85a.547.547,0,0,0-.547.547V55.23a.547.547,0,0,0,1.094,0V44.4A.547.547,0,0,0,39.971,43.85Z"/>
          </g>
        </g>
        <g id="Grupo_1065446" data-name="Grupo 1065446">
          <g id="Grupo_1065445" data-name="Grupo 1065445">
            <path id="Trazado_800792" data-name="Trazado 800792" d="M16.029,43.85a.547.547,0,0,0-.547.547V55.23a.547.547,0,0,0,1.094,0V44.4A.547.547,0,0,0,16.029,43.85Z"/>
          </g>
        </g>
        <g id="Grupo_1065448" data-name="Grupo 1065448">
          <g id="Grupo_1065447" data-name="Grupo 1065447">
            <path id="Trazado_800793" data-name="Trazado 800793" d="M37.072,15.438a4.075,4.075,0,0,0-.457.026.547.547,0,0,0,.123,1.087,2.982,2.982,0,0,1,.334-.019,3.062,3.062,0,0,1,0,6.123,2.824,2.824,0,0,1-.356-.024.547.547,0,1,0-.137,1.085,3.886,3.886,0,0,0,.493.033,4.156,4.156,0,0,0,0-8.311Z"/>
          </g>
        </g>
        <g id="Grupo_1065450" data-name="Grupo 1065450">
          <g id="Grupo_1065449" data-name="Grupo 1065449">
            <path id="Trazado_800794" data-name="Trazado 800794" d="M19.6,23.116a.547.547,0,0,0-.606-.48,2.713,2.713,0,0,1-.317.019,3.061,3.061,0,1,1,.313-6.107.547.547,0,1,0,.116-1.087,4.051,4.051,0,0,0-.429-.023,4.155,4.155,0,1,0,0,8.311,3.807,3.807,0,0,0,.442-.027.547.547,0,0,0,.481-.606Z"/>
          </g>
        </g>
        <g id="Grupo_1065452" data-name="Grupo 1065452">
          <g id="Grupo_1065451" data-name="Grupo 1065451">
            <path id="Trazado_800795" data-name="Trazado 800795" d="M30.9,25.006a6.794,6.794,0,0,0-5.791,0,.547.547,0,0,0,.49.978,5.7,5.7,0,0,1,4.811,0,.547.547,0,0,0,.49-.978Z"/>
          </g>
        </g>
        <g id="Grupo_1065454" data-name="Grupo 1065454">
          <g id="Grupo_1065453" data-name="Grupo 1065453">
            <path id="Trazado_800796" data-name="Trazado 800796" d="M25.683,19.632l-1.4-1.3a.547.547,0,1,0-.742.8l.968.9-.968.9a.547.547,0,1,0,.742.8l1.4-1.3a.547.547,0,0,0,0-.8Z"/>
          </g>
        </g>
        <g id="Grupo_1065456" data-name="Grupo 1065456">
          <g id="Grupo_1065455" data-name="Grupo 1065455">
            <path id="Trazado_800797" data-name="Trazado 800797" d="M31.494,20.034l.968-.9a.547.547,0,1,0-.742-.8l-1.4,1.3a.546.546,0,0,0,0,.8l1.4,1.3a.547.547,0,1,0,.742-.8Z"/>
          </g>
        </g>
        <g id="Grupo_1065458" data-name="Grupo 1065458">
          <g id="Grupo_1065457" data-name="Grupo 1065457">
            <path id="Trazado_800798" data-name="Trazado 800798" d="M15.549,26.032l-3.668-3.668a2.616,2.616,0,1,0-3.7,3.7l2.478,2.478a.547.547,0,1,0,.773-.773L8.955,25.291a1.523,1.523,0,0,1,2.154-2.153l3.668,3.668a1.521,1.521,0,0,1-.663,2.541.547.547,0,1,0,.294,1.053,2.615,2.615,0,0,0,1.142-4.368Z"/>
          </g>
        </g>
        <g id="Grupo_1065460" data-name="Grupo 1065460">
          <g id="Grupo_1065459" data-name="Grupo 1065459">
            <path id="Trazado_800799" data-name="Trazado 800799" d="M13.875,28.884a.546.546,0,0,0-.773,0L8.825,33.161a.547.547,0,0,0,.774.773l4.277-4.277a.547.547,0,0,0,0-.773Z"/>
          </g>
        </g>
        <g id="Grupo_1065462" data-name="Grupo 1065462">
          <g id="Grupo_1065461" data-name="Grupo 1065461">
            <path id="Trazado_800800" data-name="Trazado 800800" d="M13.574,24.34a.546.546,0,0,0-.773,0l-2.7,2.7a.547.547,0,0,0,.774.773l2.7-2.7a.547.547,0,0,0,0-.773Z"/>
          </g>
        </g>
        <g id="Grupo_1065464" data-name="Grupo 1065464">
          <g id="Grupo_1065463" data-name="Grupo 1065463">
            <path id="Trazado_800801" data-name="Trazado 800801" d="M46.806,54.415l-.955-14.149a3.94,3.94,0,0,0-2.985-3.618l-6.656-1.675-2.32-1.144a2.424,2.424,0,0,1-1.36-2.188V30.372a.547.547,0,0,0-1.094,0v1.269a3.51,3.51,0,0,0,1.97,3.168l2.372,1.17a.545.545,0,0,0,.108.04l6.713,1.69a2.853,2.853,0,0,1,2.161,2.624l.955,14.15a.4.4,0,0,1-.4.424H10.686a.4.4,0,0,1-.4-.417l.956-14.162a2.851,2.851,0,0,1,2.16-2.618l6.713-1.69a.545.545,0,0,0,.108-.04l2.372-1.17a3.51,3.51,0,0,0,1.971-3.168V30.479a.547.547,0,0,0-1.094,0v1.162a2.424,2.424,0,0,1-1.36,2.188l-2.32,1.144-6.656,1.675a3.938,3.938,0,0,0-2.985,3.611L9.193,54.422A1.5,1.5,0,0,0,10.686,56H45.314a1.5,1.5,0,0,0,1.492-1.585Z"/>
          </g>
        </g>
        <g id="Grupo_1065466" data-name="Grupo 1065466">
          <g id="Grupo_1065465" data-name="Grupo 1065465">
            <path id="Trazado_800802" data-name="Trazado 800802" d="M34.213,34.149a.547.547,0,0,0-.742.22,6.209,6.209,0,0,1-10.942,0,.547.547,0,0,0-.961.522,7.3,7.3,0,0,0,12.864,0A.546.546,0,0,0,34.213,34.149Z"/>
          </g>
        </g>
        <g id="Grupo_1065469" data-name="Grupo 1065469">
          <g id="Grupo_1065468" data-name="Grupo 1065468">
            <g id="Grupo_1065467" data-name="Grupo 1065467">
              <path id="Trazado_800803" data-name="Trazado 800803" d="M36.965,45.274a.76.76,0,0,0-.684-.423h-1.22l.818-2.4a.764.764,0,0,0-.723-1.01H32.6a.76.76,0,0,0-.73.538L30.4,46.758a.763.763,0,0,0,.729.989H32.36l-.58,2.019a.951.951,0,0,0,.5,1.128.974.974,0,0,0,.436.1.952.952,0,0,0,.763-.387l3.416-4.537A.759.759,0,0,0,36.965,45.274Zm-3.938,4.114.506-1.761a.764.764,0,0,0-.734-.974H31.575l1.271-4.118H34.7l-.818,2.4a.763.763,0,0,0,.723,1.01H35.62Z"/>
            </g>
          </g>
        </g>
      </g>
    </g>
  </g>
</svg>
