<svg id="Grupo_1064934" data-name="Grupo 1064934" xmlns="http://www.w3.org/2000/svg" xmlns:xlink="http://www.w3.org/1999/xlink" width="219.097" height="286.689" viewBox="0 0 219.097 286.689">
  <defs>
    <clipPath id="clip-path">
      <rect id="Rectángulo_373935" data-name="Rectángulo 373935" width="219.097" height="286.689" fill="none"/>
    </clipPath>
    <clipPath id="clip-path-3">
      <rect id="Rectángulo_373930" data-name="Rectángulo 373930" width="78.385" height="70.026" fill="none"/>
    </clipPath>
    <clipPath id="clip-path-4">
      <rect id="Rectángulo_373931" data-name="Rectángulo 373931" width="133.463" height="166.689" fill="none"/>
    </clipPath>
    <clipPath id="clip-path-5">
      <rect id="Rectángulo_373932" data-name="Rectángulo 373932" width="18.128" height="28.251" fill="none"/>
    </clipPath>
    <clipPath id="clip-path-6">
      <rect id="Rectángulo_373933" data-name="Rectángulo 373933" width="9.433" height="7.232" fill="none"/>
    </clipPath>
  </defs>
  <g id="Grupo_1064933" data-name="Grupo 1064933" clip-path="url(#clip-path)">
    <g id="Grupo_1064932" data-name="Grupo 1064932">
      <g id="Grupo_1064931" data-name="Grupo 1064931" clip-path="url(#clip-path)">
        <path id="Trazado_799098" data-name="Trazado 799098" d="M110.861,181.387c1.966,1.008,2.4,3.808,4.494,4.4,3.882,1.1,3.811.843,7.729,1.8,8.483,2.081,17.1,3.568,25.709,4.993,8.765,1.451,17.515,2.941,26.322,4.117,8.033,1.072,29.046-2.183,37.179-2.578,7.532-.365,7.5,3.464,7.916,5.363,4.306,19.54,3.267,43.143,5.216,63.058.7,7.108,2.622,14.028,4.4,20.946,2.831,11.041,5.3,22.255,5.683,33.647s-1.423,23.048-6.739,33.13c-20.593-2.612-41.45,0-62.208.03-18.1.03-36.876-4.552-53.453,4.873-4.841,2.753-9.271,6.382-14.576,8.075-7.693,2.454-16.018.495-23.85-1.474A5.28,5.28,0,0,1,72,360.526a4.076,4.076,0,0,1-.874-2.944c.154-4.743,3.977-8.4,6.58-12.373,7.625-11.624,5.172-26.471,5.847-39.591.736-14.329,7.661-27.391,10.59-41.4,2.724-13.03,2.193-25.925,3.242-39.2,2.031-25.678,11.808-44.489,13.472-43.636" transform="translate(-45.438 -115.859)" fill="#3d5a84"/>
        <g id="Grupo_1064921" data-name="Grupo 1064921" transform="translate(78.379 171.152)" opacity="0.2">
          <g id="Grupo_1064920" data-name="Grupo 1064920">
            <g id="Grupo_1064919" data-name="Grupo 1064919" clip-path="url(#clip-path-3)">
              <path id="Trazado_799099" data-name="Trazado 799099" d="M238.644,483.8a29.88,29.88,0,0,1-8.257,1.4c-1.717-.04-3.608-.334-4.993.88-1.712,1.5-1.772,4.47-1.767,7.012a95.722,95.722,0,0,1-5.312,31.733c-.916,2.607-1.936,5.659-.767,8.116,1,2.1,3.185,2.825,5.153,3.343q14.4,3.792,29.035,6.16a84.667,84.667,0,0,0,17.086,1.429,56.868,56.868,0,0,0,13.827-2.417c3.495-1.044,7.107-2.511,9.5-5.737,3.176-4.276,3.461-10.567,3.164-16.282a161.146,161.146,0,0,0-2.8-21.67c-1.266-6.664-2.2-14.576-4.576-20.8-1.878-4.924-6.577-2.6-10.132-1.949q-9.33,1.721-18.613,3.778-10.313,2.29-20.556,5.005" transform="translate(-217.022 -473.896)"/>
            </g>
          </g>
        </g>
        <path id="Trazado_799100" data-name="Trazado 799100" d="M238.071,546.5V517.771h-53.51v28.891l-21.908,8.9S162.3,572.032,171,579.1c6.626,5.38,32.631,32.019,39.261,33.661,18.348,4.546,34.717-19.125,49.076-32.229,4.6-4.2,4.84-26.467,4.84-26.467Z" transform="translate(-103.909 -330.773)" fill="#ff925c"/>
        <path id="Trazado_799101" data-name="Trazado 799101" d="M204.508,636.254a241.275,241.275,0,0,0-44.629-18.322S143.127,657.7,110.6,674.693c-22.566-12.164-40.633-38-51.211-55.347-21.287,6.532-38.321,13.5-44.805,16.907C4.841,641.372,0,681.157,0,681.157l109.368.293,109.729-.293s-4.841-39.785-14.589-44.9" transform="translate(0 -394.76)" fill="#8bc5ea"/>
        <path id="Trazado_799102" data-name="Trazado 799102" d="M239.2,537.651a38.589,38.589,0,0,1-15.884-3.813V505.244h53.51v9.547c-4.931,7.658-10.542,13.075-14.881,15.834-6.1,3.88-15.392,7.026-22.744,7.026" transform="translate(-142.664 -322.771)" fill="#d97645"/>
        <path id="Trazado_799103" data-name="Trazado 799103" d="M171.718,194.538q2.881.764,5.77,1.475c8.483,2.081,17.1,3.568,25.709,4.994,8.765,1.451,17.514,2.941,26.322,4.117,8.543,1.14,17.449,2.569,26.082,1.935,1.415-.1,2.854-.265,4.305-.446,7.76,15.926,2.891,35.547-.357,51.075-3.515,16.8-4.18,27.953-12.292,41.21-9.034,14.762-33.692,34.979-63.823,29.209-11.566-2.215-19.527-15.881-24.319-34.957-3.6-14.327-3.027-33.5-2.246-50.883.765-17.023,2.652-35.073,14.849-47.73" transform="translate(-99.842 -124.279)" fill="#ff925c"/>
        <path id="Trazado_799104" data-name="Trazado 799104" d="M407.524,371.656c5.539-5.489,15.972,2.077,13.287,13.192s-14.3,21.405-20.792,20.684.041-26.478,7.505-33.876" transform="translate(-253.85 -236.259)" fill="#ff925c"/>
        <path id="Trazado_799105" data-name="Trazado 799105" d="M430.692,410.766a.73.73,0,0,1-.49-1.271c.065-.059,3.979-3.678,4.38-8.412a.73.73,0,1,1,1.455.123c-.451,5.333-4.676,9.209-4.856,9.372a.726.726,0,0,1-.489.189" transform="translate(-274.677 -255.801)" fill="#d97645"/>
        <path id="Trazado_799106" data-name="Trazado 799106" d="M231.185,474.718a21.952,21.952,0,0,1-5.958-.828.73.73,0,1,1,.4-1.405,20.738,20.738,0,0,0,16.089-2.131.73.73,0,0,1,.819,1.209,21.627,21.627,0,0,1-11.344,3.155" transform="translate(-143.544 -300.401)" fill="#d97645"/>
        <path id="Trazado_799107" data-name="Trazado 799107" d="M232.156,388.414c-2.061,0-5.58-1.2-6.491-5.939-.477-2.482-.023-7.505,1.351-14.929,1.014-5.482,2.181-10.322,2.192-10.37a.73.73,0,0,1,1.419.343c-.012.048-1.169,4.851-2.176,10.293-1.322,7.142-1.79,12.118-1.353,14.387.967,5.027,5.174,4.757,5.352,4.742a.73.73,0,0,1,.124,1.455c-.131.011-.271.017-.418.017" transform="translate(-144.046 -227.822)" fill="#d97645"/>
        <path id="Trazado_799108" data-name="Trazado 799108" d="M296.914,367.771c-.41,3.933,1.03,7.305,3.215,7.533s4.288-2.776,4.7-6.709-1.03-7.3-3.215-7.532-4.288,2.776-4.7,6.708" transform="translate(-189.636 -230.654)" fill="#160d0b"/>
        <path id="Trazado_799109" data-name="Trazado 799109" d="M181.437,352.606c-.41,3.933,1.029,7.305,3.214,7.532s4.288-2.776,4.7-6.709-1.03-7.3-3.215-7.533-4.288,2.777-4.7,6.709" transform="translate(-115.865 -220.966)" fill="#160d0b"/>
        <path id="Trazado_799110" data-name="Trazado 799110" d="M297.159,326.753a3.065,3.065,0,0,0,1.129,5.223c2.341.785,8.729.915,12.916,2.348,4.052,1.387,8.2,4.338,9.23,4.109,1.047-.232.681-2.374-1.91-4.873-2.415-2.33-4.621-4.993-9.558-6.5s-10.267-1.591-11.807-.308" transform="translate(-189.18 -208.17)" fill="#3d5a84"/>
        <path id="Trazado_799111" data-name="Trazado 799111" d="M174.758,309.962a3.065,3.065,0,0,1-2.751,4.581c-2.47-.012-8.558-1.946-12.984-1.938-4.283.008-9.16,1.465-10.062.917s.12-2.467,3.378-4c3.037-1.427,6.229-2.988,11.635-2.978s9.74,1.706,10.785,3.416" transform="translate(-94.958 -195.834)" fill="#3d5a84"/>
        <path id="Trazado_799112" data-name="Trazado 799112" d="M217.846,380.636c4.567,4.857,12.045,9.446,18.705,6.244,4.226-2.032,7.229-5.891,10.086-9.609s5.89-7.562,10.142-9.54c3.808-1.772,8.16-1.839,12.249-2.8,7.1-1.672,10.6-7.11,12.413-13.766.341-1.253-4.037-6.542-6.118-8.813-2.88-3.142-5.712-6.331-8.533-9.526-5.577-6.316-11.091-12.687-16.7-18.972-.094-.106-1.622-1.936-1.692-1.9,1.6-.926,3.147-1.986,4.469-2.863a29.962,29.962,0,0,0,5.617-4.469c3.676-3.986,5.122-9.485,6.412-14.751,1.765-7.2,3.484-14.549,2.985-21.946a74.319,74.319,0,0,0-2.924-14.43c-1.009-3.7-2.6-7.43-2.159-11.241a73.671,73.671,0,0,0,.352-11.263,84.667,84.667,0,0,0-3.678-22.77q-.532-1.633-1.166-3.2c-2.3.3-4.594.608-6.823.771-8.633.633-17.539-.795-26.082-1.935-8.808-1.176-17.557-2.666-26.322-4.117-8.612-1.425-17.226-2.912-25.709-4.993q-4.222-1.036-8.433-2.194c-5.258,7.091-8.394,15.661-10.5,24.166a124.007,124.007,0,0,1-3.262,12.057,23.733,23.733,0,0,0-1.336,6.9c-.072,1.66,1.137,5.219.653,6.586,3.2-9.034,10.844-12.72,19.971-13.39,6.637-.487,13.558.022,19.69-2.565a41.391,41.391,0,0,0,6.872-4c3.165-2.127,7.266-5.312,9.44-4.814s3.372,7.422,8.874,15.193c4.046,5.716,9.586,8.873,13.342,13.2a53.493,53.493,0,0,1,12.83,38.441,156.922,156.922,0,0,1-5.026,28.083c-2.221,8.49-4.529,17.362-8.4,25.27-4.747,9.711-11.7,18.654-13.723,29.494a18.069,18.069,0,0,0-.214,6.4,13.878,13.878,0,0,0,3.692,7.066" transform="translate(-95.722 -123.008)" fill="#3d5a84"/>
        <path id="Trazado_799113" data-name="Trazado 799113" d="M286.9,190.505c.843-6.108-24.072-14.592-55.649-18.951s-54.027-1.8-54.87,4.3,20.24,13.455,51.818,17.813,57.859,2.941,58.7-3.167" transform="translate(-112.662 -108.203)" fill="#263e56"/>
        <g id="Grupo_1064924" data-name="Grupo 1064924" transform="translate(40.315 90.775)" opacity="0.2">
          <g id="Grupo_1064923" data-name="Grupo 1064923">
            <g id="Grupo_1064922" data-name="Grupo 1064922" clip-path="url(#clip-path-4)">
              <path id="Trazado_799114" data-name="Trazado 799114" d="M413.28,362.25a.73.73,0,0,1-.726-.663,87.269,87.269,0,0,0-13.185-38.618.73.73,0,0,1,1.233-.783,88.745,88.745,0,0,1,13.406,39.267.73.73,0,0,1-.66.794c-.023,0-.045,0-.068,0" transform="translate(-295.376 -296.384)"/>
              <path id="Trazado_799115" data-name="Trazado 799115" d="M470.824,313.26l-.049,0a.73.73,0,0,1-.68-.776c.156-2.344.624-5.178,1.119-8.179.909-5.5,1.939-11.739,1.113-15.921a.73.73,0,0,1,1.433-.282c.876,4.442-.177,10.817-1.106,16.441-.489,2.964-.952,5.764-1.1,8.038a.73.73,0,0,1-.728.682" transform="translate(-340.63 -274.448)"/>
              <path id="Trazado_799116" data-name="Trazado 799116" d="M338.974,685.1a.73.73,0,0,1-.638-1.083,62.145,62.145,0,0,0,5.671-14.082.73.73,0,0,1,1.411.376,63.6,63.6,0,0,1-5.8,14.413.73.73,0,0,1-.64.377" transform="translate(-256.399 -518.407)"/>
              <path id="Trazado_799117" data-name="Trazado 799117" d="M408.614,578.173a.73.73,0,0,1-.594-1.152,25.616,25.616,0,0,0,4.543-11.88.73.73,0,1,1,1.45.165,27.074,27.074,0,0,1-4.8,12.559.729.729,0,0,1-.6.308" transform="translate(-300.889 -451.396)"/>
              <path id="Trazado_799118" data-name="Trazado 799118" d="M427.35,557.76a.73.73,0,0,1-.635-1.09l8.81-15.559a75.893,75.893,0,0,0,4.789-9.463,64.705,64.705,0,0,0,3.26-13.1c1.043-6.316,1.859-13.056.77-19.557a.73.73,0,1,1,1.44-.241c1.124,6.712.294,13.6-.769,20.036a66.009,66.009,0,0,1-3.341,13.391,76.91,76.91,0,0,1-4.878,9.649l-8.81,15.559a.731.731,0,0,1-.636.37" transform="translate(-312.858 -409.01)"/>
              <path id="Trazado_799119" data-name="Trazado 799119" d="M164.938,260.454a.73.73,0,0,1-.488-1.273,9.49,9.49,0,0,1,5.816-2.068c.644-.048,1.294-.07,1.923-.091a20.953,20.953,0,0,0,3.762-.349,21.143,21.143,0,0,0,5.871-2.634l4.509-2.6a.73.73,0,0,1,.729,1.265l-4.509,2.6a16.963,16.963,0,0,1-10.313,3.176c-.614.02-1.248.042-1.861.088a8.133,8.133,0,0,0-4.951,1.7.726.726,0,0,1-.487.187" transform="translate(-145.218 -251.343)"/>
              <path id="Trazado_799120" data-name="Trazado 799120" d="M112.356,546a.73.73,0,0,1-.6-1.14c5.39-7.95,6.619-17.4,7.92-27.406.941-7.236,1.914-14.718,4.622-21.53a.73.73,0,1,1,1.356.539c-2.639,6.642-3.6,14.032-4.53,21.179-1.265,9.734-2.574,19.8-8.159,28.036a.73.73,0,0,1-.6.32" transform="translate(-111.626 -407.297)"/>
            </g>
          </g>
        </g>
        <path id="Trazado_799121" data-name="Trazado 799121" d="M294.424,66.254s-8.966-13.637-23.4-3.4c-15.051,10.673-2.831,38.127,10.193,50.018,0,0,47.375-9.06,40.58-37.561-4.593-19.264-27.368-9.06-27.368-9.06" transform="translate(-168.703 -37.721)" fill="#dc0000"/>
        <g id="Grupo_1064927" data-name="Grupo 1064927" transform="translate(129.411 31.526)" opacity="0.31">
          <g id="Grupo_1064926" data-name="Grupo 1064926">
            <g id="Grupo_1064925" data-name="Grupo 1064925" clip-path="url(#clip-path-5)">
              <path id="Trazado_799122" data-name="Trazado 799122" d="M375.934,93.917a14.009,14.009,0,0,1-.192,8.147c-2.115,6.538-8.364,11.5-14.821,13.365a2.123,2.123,0,0,1-2.3-.544,1.9,1.9,0,0,1-.2-1.637c.61-2.107,2.381-3.491,3.892-4.942a41.56,41.56,0,0,0,5.138-5.736,6.546,6.546,0,0,0,1.386-3.069c.351-3.658-4.381-4.21-5.074-7.373a3.838,3.838,0,0,1,.637-2.985,4.416,4.416,0,0,1,4.333-1.785,9.25,9.25,0,0,1,7.208,6.56" transform="translate(-358.322 -87.291)" fill="#fff"/>
            </g>
          </g>
        </g>
        <g id="Grupo_1064930" data-name="Grupo 1064930" transform="translate(102.548 25.583)" opacity="0.31">
          <g id="Grupo_1064929" data-name="Grupo 1064929">
            <g id="Grupo_1064928" data-name="Grupo 1064928" clip-path="url(#clip-path-6)">
              <path id="Trazado_799123" data-name="Trazado 799123" d="M283.987,76.1c-.424,2.353,2.214,2.134,3.8,1.675a9.762,9.762,0,0,0,4.362-2.261,3.567,3.567,0,0,0,1.088-3.421c-.752-1.97-3.255-1.181-4.694-.586-1.949.806-4.087,2.306-4.542,4.505-.006.03-.012.059-.017.088" transform="translate(-283.941 -70.837)" fill="#fff"/>
            </g>
          </g>
        </g>
        <path id="Trazado_799124" data-name="Trazado 799124" d="M201.945,144.092s-7.462-.829-7.794,4.975c-.644,11.273,17.5,9.121,17.5,9.121s5.555-11.608-1.41-16.832c-4.456-3.342-8.291,2.736-8.291,2.736" transform="translate(-124.021 -89.663)" fill="#dc0000"/>
        <path id="Trazado_799125" data-name="Trazado 799125" d="M412.272,204.172s-.877-5.205-4.865-4.311c-7.746,1.736-2.8,13.586-2.8,13.586s8.918,1.519,11.109-4.2c1.4-3.657-3.448-5.079-3.448-5.079" transform="translate(-257.487 -127.613)" fill="#dc0000"/>
        <path id="Trazado_799126" data-name="Trazado 799126" d="M262.609,2.809s-6.239-1.177-6.891,3.7c-1.266,9.465,14.169,8.812,14.169,8.812s5.429-9.433-.11-14.284c-3.544-3.1-7.167,1.776-7.167,1.776" transform="translate(-163.316 0)" fill="#dc0000"/>
        <path id="Trazado_799127" data-name="Trazado 799127" d="M454.935,54.144s2.212-8.928-4.876-7.946-4.877,16.814-4.877,16.814,14.028,2.636,16.741-3.635-6.988-5.234-6.988-5.234" transform="translate(-284.192 -29.465)" fill="#dc0000"/>
        <path id="Trazado_799128" data-name="Trazado 799128" d="M215.65,67.361s-3.988-2.039-4.308,1.431,7.431,4.177,7.431,4.177,2.806-6.359.133-8.34-3.256,2.733-3.256,2.733" transform="translate(-135.008 -40.976)" fill="#dc0000"/>
        <path id="Trazado_799129" data-name="Trazado 799129" d="M338.752,20.174s4.91-2.127,5.634,1.238-8.329,4.66-8.329,4.66-4.421-6.2-1.8-8.478,4.5,2.58,4.5,2.58" transform="translate(-213.006 -10.851)" fill="#dc0000"/>
        <path id="Trazado_799130" data-name="Trazado 799130" d="M452.352,158.219s3.106-2.064,4.018.155-5.139,4.224-5.139,4.224-3.8-3.705-2.283-5.594,3.4,1.215,3.4,1.215" transform="translate(-286.579 -99.911)" fill="#dc0000"/>
      </g>
    </g>
  </g>
</svg>
